<svg width="244" height="198" viewBox="0 0 244 198" fill="none" xmlns="http://www.w3.org/2000/svg">
<g clip-path="url(#clip0)" filter="url(#filter0_d)">
<path d="M177.568 0.108643H4.07263V122.792H177.568V0.108643Z" fill="#E6E6E6"/>
<path d="M172.608 15.4962H9.03513V115.534H172.608V15.4962Z" fill="white"/>
<path d="M177.495 0H4V8.13817H177.495V0Z" fill="#30B0E6"/>
<path d="M9.47731 5.66904C10.2318 5.66904 10.8434 4.99373 10.8434 4.16069C10.8434 3.32765 10.2318 2.65234 9.47731 2.65234C8.72283 2.65234 8.11121 3.32765 8.11121 4.16069C8.11121 4.99373 8.72283 5.66904 9.47731 5.66904Z" fill="white"/>
<path d="M14.6627 5.66904C15.4172 5.66904 16.0288 4.99373 16.0288 4.16069C16.0288 3.32765 15.4172 2.65234 14.6627 2.65234C13.9082 2.65234 13.2966 3.32765 13.2966 4.16069C13.2966 4.99373 13.9082 5.66904 14.6627 5.66904Z" fill="white"/>
<path d="M19.8481 5.66904C20.6025 5.66904 21.2142 4.99373 21.2142 4.16069C21.2142 3.32765 20.6025 2.65234 19.8481 2.65234C19.0936 2.65234 18.482 3.32765 18.482 4.16069C18.482 4.99373 19.0936 5.66904 19.8481 5.66904Z" fill="white"/>
<path d="M61.1533 23.7242H29.1609V62.0472H61.1533V23.7242Z" fill="#30B0E6"/>
<path d="M106.817 23.7242H74.825V62.0472H106.817V23.7242Z" fill="#30B0E6"/>
<path d="M152.481 23.7242H120.489V62.0472H152.481V23.7242Z" fill="#30B0E6"/>
<path d="M61.1533 68.9839H29.1609V107.307H61.1533V68.9839Z" fill="#30B0E6"/>
<path d="M106.817 68.9839H74.825V107.307H106.817V68.9839Z" fill="#30B0E6"/>
<path d="M152.481 68.9839H120.489V107.307H152.481V68.9839Z" fill="#30B0E6"/>
<path d="M82.5575 78.8332L88.4029 76.2816L89.0826 89.0395C89.0826 89.0395 90.306 92.942 89.8982 94.4429C89.8982 94.4429 90.1701 96.9945 89.4904 97.1446C88.8107 97.2947 86.9075 97.5949 86.7716 97.4448C86.6357 97.2947 86.6357 96.8444 86.6357 96.8444C86.6357 96.8444 85.2763 97.8951 85.1403 99.0958C85.1403 99.0958 79.4309 101.047 79.295 99.2459C79.159 97.4448 82.1497 95.9438 82.1497 95.9438L84.4606 92.0414L82.5575 78.8332Z" fill="#3F3D56"/>
<path d="M94.9279 78.8332L100.773 76.2816L101.453 89.0395C101.453 89.0395 102.676 92.942 102.269 94.4429C102.269 94.4429 102.541 96.9945 101.861 97.1446C101.181 97.2947 99.278 97.5949 99.1421 97.4448C99.0061 97.2947 99.0061 96.8444 99.0061 96.8444C99.0061 96.8444 97.6467 97.8951 97.5108 99.0958C97.5108 99.0958 91.8014 101.047 91.6654 99.2459C91.5295 97.4448 94.5201 95.9438 94.5201 95.9438L96.8311 92.0414L94.9279 78.8332Z" fill="#3F3D56"/>
<path d="M95.4997 29.5663C95.4997 29.5663 94.255 33.4061 95.6972 35.1378L94.495 39.6993C94.495 39.6993 98.7666 53.8486 97.5461 55.8251C97.5461 55.8251 92.9897 58.3405 83.8769 54.9267L87.579 39.0705L87.0501 32.3776L87.7824 29.2333L89.4097 29.0536C89.4097 29.0536 88.4333 33.0963 90.2233 33.7252C92.0133 34.354 93.7596 29.1546 93.7596 29.1546L95.4997 29.5663Z" fill="#3F3D56"/>
<path d="M38.0199 54.3553L39.5906 55.0647L47.087 44.1864L49.4431 56.9566L51.0137 56.6413C52.0213 45.6317 52.8429 34.4019 51.8348 29.0907L46.0161 28.8148L43.3745 38.1166L42.0894 44.4229L38.0199 54.3553Z" fill="#3F3D56"/>
<path d="M133.35 29.0025C133.35 29.0025 131.206 32.2929 131.311 33.6206C131.416 34.9483 132.775 56.5958 132.775 56.5958L135.964 56.769L135.023 41.1828L135.807 36.9688L137.742 56.5958L141.663 56.7113L138.16 31.2539L137.48 29.0025L133.35 29.0025Z" fill="#3F3D56"/>
<path d="M145.465 82.0102C144.896 81.2561 143.918 80.8484 142.978 80.628C143.007 80.5337 140.121 79.8757 140.073 80.0113L138.985 79.0548L135.644 80.9704L133.767 79.5592L132.895 79.9009C132.93 79.7311 130.187 80.2556 130.187 80.2556C129.663 80.2764 128.994 80.3126 128.245 80.3762C125.621 80.599 125.42 88.1005 125.42 88.1005C126.627 87.5554 127.914 87.2578 129.217 87.2226L129.926 96.1962C133.574 95.8508 137.398 96.2528 141.362 97.2361L143.221 90.1824L147.551 88.3233C147.551 88.3233 146.811 83.7927 145.465 82.0102Z" fill="#3F3D56"/>
<path d="M52.5565 77.7377C52.0876 77.1164 51.2815 76.7804 50.5073 76.5989C50.5305 76.5212 48.1529 75.979 48.1131 76.0907L47.217 75.3026L44.4643 76.881L42.9173 75.7182L42.1986 75.9998C42.2279 75.8599 39.9678 76.292 39.9678 76.292C39.5361 76.3091 38.9846 76.339 38.3674 76.3914C36.2058 76.575 36.0395 82.7559 36.0395 82.7559C37.0341 82.3067 38.0945 82.0616 39.1688 82.0326L39.7531 100.131C42.7581 99.8467 45.9097 100.178 49.1755 100.988L50.7073 84.4713L54.2748 82.9395C54.2748 82.9395 53.6651 79.2065 52.5565 77.7377Z" fill="#3F3D56"/>
<path d="M168.958 182.021L147.316 186.911L146.823 186.856L127.805 184.737V158.126L151.086 153.78L167.975 155.954L167.981 156.072V156.128L168.958 182.021Z" fill="#E6E6E6"/>
<path opacity="0.1" d="M168.958 182.021L147.316 186.911L146.823 186.856V159.576L167.981 156.072L168.958 182.021Z" fill="black"/>
<path opacity="0.05" d="M167.981 156.128L167.975 156.135L146.823 159.576L127.805 158.126L151.086 153.78L167.975 155.954L167.981 156.072V156.128Z" fill="black"/>
<path d="M143.581 168.361L130.423 167.413L130.02 174.232L143.178 175.18L143.581 168.361Z" fill="white"/>
<path d="M140.361 170.362L133.38 169.859L133.239 172.231L140.221 172.734L140.361 170.362Z" fill="#30B0E6"/>
<path d="M198.29 182.021L176.648 186.911L176.155 186.856L157.137 184.737V158.126L180.418 153.78L197.306 155.954L197.313 156.072V156.128L198.29 182.021Z" fill="#30B0E6"/>
<path opacity="0.1" d="M198.29 182.021L176.648 186.911L176.155 186.856V159.576L197.313 156.072L198.29 182.021Z" fill="black"/>
<path opacity="0.05" d="M197.312 156.128L197.306 156.135L176.155 159.576L157.137 158.126L180.418 153.78L197.306 155.954L197.312 156.072V156.128Z" fill="black"/>
<path d="M172.913 168.361L159.755 167.413L159.352 174.232L172.51 175.18L172.913 168.361Z" fill="white"/>
<path d="M169.693 170.362L162.711 169.859L162.571 172.231L169.553 172.734L169.693 170.362Z" fill="#30B0E6"/>
<path d="M213.95 49.2091C213.95 49.2091 217.768 60.1004 210.768 60.1004C203.767 60.1004 221.587 70.9917 228.587 64.6678C235.587 58.3438 231.451 57.9924 231.451 57.9924C231.451 57.9924 222.223 59.0464 222.541 49.9118L213.95 49.2091Z" fill="#FFB8B8"/>
<path d="M218.924 52.4875C225.139 52.4875 230.178 46.9245 230.178 40.0621C230.178 33.1998 225.139 27.6367 218.924 27.6367C212.709 27.6367 207.67 33.1998 207.67 40.0621C207.67 46.9245 212.709 52.4875 218.924 52.4875Z" fill="#2F2E41"/>
<path d="M212.041 94.531L199.949 128.962C199.949 128.962 193.903 139.502 196.131 150.042C198.358 160.581 204.479 179.764 204.479 179.764C204.479 179.764 209.103 181.063 208.785 176.496C208.466 171.929 208.983 149.786 204.21 143.813L223.496 119.476L224.132 147.231C224.132 147.231 222.859 159.879 223.178 165.5C223.496 171.121 224.132 180.608 224.132 180.608L227.951 179.905C227.951 179.905 233.102 154.028 232.465 145.596C232.465 145.596 244.288 104.626 232.196 94.7882L212.041 94.531Z" fill="#2F2E41"/>
<path d="M205.808 179.707C205.808 179.707 204.251 179.269 204.072 180.846C203.893 182.423 200.618 189.434 204.037 189.785C207.456 190.136 208.638 186.604 209.211 184.121C209.784 181.638 210.001 181.496 210.479 181.02C210.957 180.544 212.095 177.938 210.667 177.74C209.239 177.542 208.507 175.992 208.507 175.992C208.507 175.992 208.057 180.339 205.808 179.707Z" fill="#2F2E41"/>
<path d="M226.625 178.488C226.625 178.488 223.738 178.033 223.944 179.171C224.15 180.31 223.531 185.092 223.944 185.547C224.356 186.003 225.181 186.913 225.181 187.597C225.181 188.28 225.387 190.557 228.893 189.874C232.4 189.191 231.575 185.775 231.368 185.319C231.162 184.864 228.687 182.587 228.893 181.221C229.1 179.854 227.862 177.577 226.625 178.488Z" fill="#2F2E41"/>
<path d="M219.063 53.8505C223.368 53.8505 226.858 49.9973 226.858 45.2441C226.858 40.491 223.368 36.6378 219.063 36.6378C214.758 36.6378 211.268 40.491 211.268 45.2441C211.268 49.9973 214.758 53.8505 219.063 53.8505Z" fill="#FFB8B8"/>
<path d="M226.519 57.1141C226.519 57.1141 229.237 63.0532 221.043 63.2216C218.523 63.2733 215.527 61.2462 214.291 58.8224C213.562 57.3945 213.378 59.3666 212.2 59.2221C209.968 58.9484 207.585 59.9704 205.452 61.2227C205.176 61.3841 204.96 61.6462 204.84 61.9641C204.72 62.282 204.704 62.636 204.795 62.9656C206.412 68.8913 211.031 97.3959 211.745 98.9479C213.566 102.911 233.273 96.2738 233.273 96.2738C233.543 85.4903 229.998 70.4034 236.233 59.4311C234.861 58.2931 233.283 57.4968 231.606 57.0968C229.929 56.6968 228.193 56.7027 226.519 57.1141Z" fill="#575A89"/>
<path d="M226.352 38.6261L220.641 35.3233L212.755 36.6743L211.123 44.6315L215.185 44.4588L216.319 41.5355V44.4107L218.194 44.3311L219.281 39.677L219.961 44.6315L226.624 44.4811L226.352 38.6261Z" fill="#2F2E41"/>
<path d="M219.516 30.9065C222.024 30.9065 224.057 28.6618 224.057 25.8928C224.057 23.1238 222.024 20.879 219.516 20.879C217.008 20.879 214.975 23.1238 214.975 25.8928C214.975 28.6618 217.008 30.9065 219.516 30.9065Z" fill="#2F2E41"/>
<path d="M213.791 24.3668C213.791 23.1693 214.179 22.0113 214.885 21.1023C215.591 20.1933 216.569 19.5933 217.641 19.4108C216.994 19.3015 216.333 19.3479 215.704 19.5467C215.075 19.7456 214.492 20.0922 213.996 20.5629C213.499 21.0336 213.101 21.6172 212.827 22.2737C212.554 22.9303 212.413 23.6443 212.413 24.3668C212.413 25.0894 212.554 25.8034 212.827 26.4599C213.101 27.1165 213.499 27.7001 213.996 28.1708C214.492 28.6415 215.075 28.9881 215.704 29.187C216.333 29.3858 216.994 29.4322 217.641 29.3229C216.569 29.1404 215.591 28.5404 214.885 27.6314C214.179 26.7224 213.791 25.5644 213.791 24.3668Z" fill="#2F2E41"/>
<path d="M240 143.692L218.359 148.583L217.865 148.527L198.847 146.408V119.797L222.128 115.451L239.017 117.626L239.023 117.744V117.799L240 143.692Z" fill="#E6E6E6"/>
<path opacity="0.1" d="M240 143.692L218.358 148.583L217.865 148.527V121.247L239.023 117.744L240 143.692Z" fill="black"/>
<path opacity="0.05" d="M239.023 117.799L239.017 117.806L217.865 121.247L198.847 119.797L222.128 115.451L239.017 117.626L239.023 117.744V117.799Z" fill="black"/>
<path d="M214.623 130.033L201.465 129.084L201.062 135.904L214.22 136.852L214.623 130.033Z" fill="white"/>
<path d="M211.404 132.034L204.422 131.531L204.282 133.902L211.263 134.406L211.404 132.034Z" fill="#30B0E6"/>
<path d="M206.287 112.963C206.287 112.963 198.332 119.99 201.833 122.449C205.333 124.908 209.469 112.963 209.469 112.963H206.287Z" fill="#FFB8B8"/>
<path d="M206.632 60.9168C206.22 60.404 201.016 63.334 201.788 67.1563L202.151 93.6398C202.151 93.6398 200.242 115.422 205.015 115.422C209.788 115.422 209.224 116.155 209.861 114.398C210.497 112.642 210.668 97.7595 210.668 97.7595L206.632 60.9168Z" fill="#575A89"/>
<path d="M231.242 110.586C231.242 110.586 235.379 122.531 238.879 120.072C242.379 117.613 234.424 110.586 234.424 110.586H231.242Z" fill="#FFB8B8"/>
<path d="M232.196 95.6796C232.196 95.6796 230.214 110.264 230.851 112.021C231.487 113.778 230.924 113.045 235.697 113.045C240.47 113.045 238.561 91.2627 238.561 91.2627L238.924 64.7792C239.695 60.957 234.492 58.0269 234.08 58.5397L229.505 75.7726L232.196 95.6796Z" fill="#575A89"/>
</g>
<defs>
<filter id="filter0_d" x="0" y="0" width="244" height="198" filterUnits="userSpaceOnUse" color-interpolation-filters="sRGB">
<feFlood flood-opacity="0" result="BackgroundImageFix"/>
<feColorMatrix in="SourceAlpha" type="matrix" values="0 0 0 0 0 0 0 0 0 0 0 0 0 0 0 0 0 0 127 0"/>
<feOffset dy="4"/>
<feGaussianBlur stdDeviation="2"/>
<feColorMatrix type="matrix" values="0 0 0 0 0 0 0 0 0 0 0 0 0 0 0 0 0 0 0.25 0"/>
<feBlend mode="normal" in2="BackgroundImageFix" result="effect1_dropShadow"/>
<feBlend mode="normal" in="SourceGraphic" in2="effect1_dropShadow" result="shape"/>
</filter>
<clipPath id="clip0">
<rect width="236" height="190" fill="white" transform="translate(4)"/>
</clipPath>
</defs>
</svg>
