<?xml version="1.0" encoding="utf-8"?>
<!-- Generator: Adobe Illustrator 25.0.1, SVG Export Plug-In . SVG Version: 6.00 Build 0)  -->
<svg version="1.1" id="Layer_1" xmlns="http://www.w3.org/2000/svg" xmlns:xlink="http://www.w3.org/1999/xlink" x="0px" y="0px"
	 viewBox="0 0 236 190" style="enable-background:new 0 0 236 190;" xml:space="preserve">
<style type="text/css">
	.st0{fill:#3F3D56;}
	.st1{fill:#007F5F;}
	.st2{fill:#9E9E9E;}
	.st3{fill:#0A6B53;}
	.st4{fill:#FF4D73;}
	.st5{fill:#0192FF;}
	.st6{fill:#6C63FF;}
	.st7{fill:#2845A8;}
	.st8{fill:#FFCC36;}
	.st9{fill:#EFC5CB;}
	.st10{fill:#A0616A;}
	.st11{fill:#2F2E41;}
	.st12{fill:#575A89;}
	.st13{fill:#F2F2F2;}
	.st14{fill:#30B0E6;}
	.st15{opacity:0.1;enable-background:new    ;}
	.st16{fill:#21386B;}
	.st17{fill:#26457D;}
	.st18{fill:#61A2F9;}
	.st19{fill:#E4F6FF;}
	.st20{fill:#D3EFFB;}
	.st21{fill:#5986CB;}
	.st22{fill:#F9F6F6;}
	.st23{fill:#DA4A54;}
	.st24{fill:#DDDAEC;}
	.st25{fill:#E6E6E6;}
	.st26{clip-path:url(#SVGID_2_);}
	.st27{fill:#FFFFFF;}
	.st28{opacity:5.000000e-02;enable-background:new    ;}
	.st29{fill:#FFB8B8;}
</style>
<g>
	<g>
		<path class="st0" d="M-154.7-107.6c0,5.8,5.4,10.5,12,10.5h15.9c6.6,0,12-4.7,12-10.5v-20.9h-39.9V-107.6z"/>
		<path class="st1" d="M-173.5-166.3c-3.5-2-6.8-4.2-9.8-6.7c-2.6,8.8-12.4,14.3-22.6,12.8c-10.2-1.5-17.3-9.6-16.5-18.7
			c0.9-9,9.5-15.9,19.9-15.9c0.6,0,1.2,0.1,1.8,0.2c-3.8-7.8-5.7-16.1-5.7-24.6h-5.1l-2.8,11.5c-0.3,1.1-1.2,2.1-2.4,2.5
			c-1.2,0.4-2.6,0.3-3.7-0.4l-11-6.6l-12,10.5l7.6,9.6c0.8,1,0.9,2.2,0.4,3.3c-0.5,1.1-1.6,1.9-2.9,2.1l-13.1,2.4v14l13.1,2.4
			c1.3,0.2,2.4,1,2.9,2.1c0.5,1.1,0.3,2.3-0.4,3.3l-7.6,9.6l12,10.5l11-6.6c1.1-0.7,2.5-0.8,3.7-0.4c1.2,0.4,2.1,1.4,2.4,2.5
			l2.8,11.5h15.9l2.8-11.5c0.3-1.1,1.2-2.1,2.4-2.5c1.2-0.4,2.6-0.3,3.7,0.4l11,6.6l12.5-11C-164.5-158.8-168.2-163.4-173.5-166.3z"
			/>
		<path class="st1" d="M-63-219.2c0-30.1-24.4-56-58.2-61.7c-33.8-5.7-67.4,10.4-80.2,38.4c-12.8,28-1,59.9,27.9,76.2
			c6.6,3.6,10.7,9.9,10.8,16.8v14.1c0,5.8,5.4,10.5,12,10.5h31.9c6.6,0,12-4.7,12-10.5v-13.8c0.1-7,4.3-13.5,11-17.2
			C-75.3-178-63-197.9-63-219.2L-63-219.2z"/>
		<path class="st1" d="M-29.8-262.9l12.5-8.2l-14.4-16.7l-12.5,8.2c-2.6,1.7-6.1,1.9-8.8,0.4c-2.8-1.4-4.3-4.2-3.8-7l2.2-13.6
			l-23.7-3l-2.2,13.6c-0.5,2.8-2.8,5.1-5.9,5.8c-3.1,0.7-6.4-0.3-8.4-2.6l-9.4-11l-19.1,12.6l9.4,11c1.9,2.3,2.1,5.3,0.5,7.7
			c-1.6,2.4-4.8,3.7-8,3.4l-15.5-1.9l-3.4,20.7l15.5,1.9c3.2,0.4,5.8,2.4,6.6,5.2c0.8,2.7-0.4,5.6-2.9,7.3l-12.5,8.2l14.4,16.7
			l12.5-8.2c2.6-1.7,6.1-1.9,8.8-0.4c2.8,1.4,4.3,4.2,3.8,7l-2.2,13.6l23.7,3l2.2-13.6c0.5-2.8,2.8-5.1,5.9-5.8
			c3.1-0.7,6.4,0.3,8.4,2.6l9.4,11l19.1-12.6l-9.4-11c-1.9-2.3-2.1-5.3-0.5-7.7c1.6-2.4,4.8-3.8,8-3.4l15.5,1.9l3.4-20.7l-15.5-1.9
			c-3.2-0.4-5.8-2.4-6.6-5.2C-33.5-258.3-32.3-261.2-29.8-262.9L-29.8-262.9z M-75.4-221.6c-15.4,0-27.9-10.9-27.9-24.4
			c0-13.5,12.5-24.4,27.9-24.4c15.4,0,27.9,10.9,27.9,24.4C-47.5-232.5-60-221.6-75.4-221.6z"/>
		<path class="st2" d="M-154.7-118h39.9v7h-39.9V-118z"/>
		<path class="st3" d="M-138.7-146h8v10.5h-8V-146z"/>
		<path class="st3" d="M-130.8-152.9h-8c0-9.2-6.5-17.5-16.3-20.8c-19.6-6.7-33.3-22.5-35.2-40.9c-2-18.4,8-36.1,25.8-45.9l4.2,5.9
			c-15.3,8.4-23.9,23.6-22.1,39.4c1.7,15.7,13.4,29.3,30.2,35C-139.3-175.9-130.7-165-130.8-152.9L-130.8-152.9z"/>
		<path class="st3" d="M-55-170.4h19.9c2.2,0,4,1.6,4,3.5c0,1.9-1.8,3.5-4,3.5H-55c-2.2,0-4-1.6-4-3.5
			C-59-168.8-57.2-170.4-55-170.4z"/>
		<path class="st3" d="M-63-149.4c1.4-1.5,3.9-1.7,5.6-0.4l17.8,13c1.7,1.2,1.9,3.4,0.5,4.9c-1.4,1.5-3.9,1.7-5.6,0.4l-17.8-13
			C-64.2-145.8-64.4-148-63-149.4L-63-149.4z"/>
		<path class="st3" d="M-78.9-142.5c2.2,0,4,1.6,4,3.5v17.4c0,1.9-1.8,3.5-4,3.5c-2.2,0-4-1.6-4-3.5V-139
			C-82.9-140.9-81.1-142.5-78.9-142.5z"/>
		<path class="st3" d="M-247.5-240.9l24.2-5.3c2.1-0.5,4.3,0.7,4.8,2.5c0.5,1.9-0.8,3.8-2.9,4.2l-24.2,5.3c-2.1,0.5-4.3-0.7-4.8-2.5
			C-250.9-238.5-249.6-240.4-247.5-240.9z"/>
		<path class="st3" d="M-242.4-278.5c1.3-1.6,3.8-1.9,5.6-0.8l21.4,13.4c1.8,1.1,2.2,3.3,0.9,4.9c-1.3,1.6-3.8,1.9-5.6,0.8
			l-21.4-13.4C-243.3-274.8-243.7-277-242.4-278.5L-242.4-278.5z"/>
		<path class="st3" d="M-206.7-299.5c2.1-0.5,4.3,0.6,4.8,2.5l6.2,21.1c0.5,1.9-0.7,3.8-2.9,4.2s-4.3-0.7-4.8-2.5l-6.2-21.1
			C-210.1-297.1-208.8-299-206.7-299.5L-206.7-299.5z"/>
	</g>
</g>
<rect x="58.8" y="-57.3" class="st4" width="24.1" height="16.5"/>
<rect x="100.9" y="-57.3" class="st5" width="24.1" height="16.5"/>
<rect x="158.4" y="-55.4" class="st6" width="24.1" height="16.5"/>
<rect x="226.9" y="-52.7" class="st7" width="24.1" height="16.5"/>
<rect x="277.1" y="-38.9" class="st8" width="24.1" height="16.5"/>
<rect class="st6" width="236" height="190.9"/>
<g>
	<path class="st0" d="M-249.2,165.9c59.9,0,108.5-3.8,108.5-8.5c0-4.7-48.6-8.5-108.5-8.5c-59.9,0-108.5,3.8-108.5,8.5
		C-357.6,162.1-309.1,165.9-249.2,165.9z"/>
	<path class="st9" d="M-157,141.7l1,7.4l-7.1,0.7l1-9.1L-157,141.7z"/>
	<path class="st10" d="M-190.6,39.4c0,0,0.7,9.1,0.7,9.5s-4.7,23.7-4.7,23.7s-6.8,12.9,0,12.5c6.8-0.3,4.7-12.2,4.7-12.2l7.1-19.6
		l-3-13.9H-190.6z"/>
	<path class="st9" d="M-179.4,141.7l-1,7.4l7.1,0.7l-1-9.1L-179.4,141.7z"/>
	<path class="st11" d="M-187.2,71.9l-1.7,2.4c0,0-1,10.2,0,13.5c1,3.4,3.1,19,3.1,20c0,1,0.3,1.7,0,2c-0.3,0.3-1.4,0.3-0.7,1
		c0.7,0.7,0.7,2.7,0.7,2.7v1.7l4.4,25.1c0,0-2.7,3-0.7,3c2,0,9.5,0,9.1-3.4l-0.7-0.3c0,0-1-22.3-0.7-23.4c0.3-1,0-3,0-3
		s-0.7-1,0-1.4c0.7-0.3,0.7-3,0.7-3l3-20.7c0,0,2.7,13.9,4.4,15.2c1.7,1.4,1.4,4.7,1.4,4.7l1.4,29.8c0,0-1.4,3.4,0,4.1
		c1.4,0.7,7.1,3,7.5-0.3s2-32.8,2-34.2c0-1.4-0.3-2,0-3s-0.3-1,0-1s-0.7-1-0.7-1.7V85.1c0,0,0.3-3.4,0.7-4.1c0.3-0.7-0.3-1.4,0-2.4
		c0.3-1-0.7-4.4-0.7-4.4l-15.2-4.1L-187.2,71.9z"/>
	<path class="st11" d="M-175.3,147.8c0,0,1.7-1.7-0.7-1.7c-1.5,0-3,0.4-4.4,1l-1.7,6.1c0,0-6.9,5.6,0.8,4.9c7.8-0.7,6.6-0.2,6.6-0.2
		s2.4-0.7,2.7-1.4c0.3-0.7-0.7-10.5-0.7-10.5S-173.7,148.8-175.3,147.8z"/>
	<path class="st11" d="M-160.8,147.8c0,0-1.7-1.7,0.7-1.7c1.5,0,3,0.4,4.4,1l1.7,6.1c0,0,6.9,5.6-0.8,4.9c-7.8-0.7-7.6-0.2-7.6-0.2
		s-2.4-0.7-2.7-1.4c-0.3-0.7,1.7-10.5,1.7-10.5S-162.5,148.8-160.8,147.8z"/>
	<path class="st9" d="M-182.8,12.7c4.9,0,8.8-3.9,8.8-8.8c0-4.9-3.9-8.8-8.8-8.8c-4.9,0-8.8,3.9-8.8,8.8
		C-191.6,8.7-187.7,12.7-182.8,12.7z"/>
	<path class="st9" d="M-185.9,10.3c0,0,1.4,6.8,1.4,7.8c0,1,5.8,4.1,5.8,4.1l6.4-8.1c0,0-4.1-5.8-4.1-7.1L-185.9,10.3z"/>
	<path class="st12" d="M-180.8,19.1c0,0-3-0.8-3.8-2.1c0,0-9.4,9.2-9.4,10.9l7.5,13.2c0,0,0,4.7,0.7,5.1c0.7,0.3,0,0,0,1.4
		s-2,10.2-1.4,11.5c0.7,1.4,1.4,0.3,0.7,2.4c-0.7,2-2.4,12.9-2.4,12.9s6.1-2,14.9,1.4c8.8,3.4,19.3-1.4,19.3-1.4s-2.7-6.1-2-8.1
		c0.7-2-1.7-5.8-1.7-5.8l-1.7-31.2c0,0,2.4-13.9,0.7-14.6l-3.4-1.4l-10.9-1.3C-173.7,12-176.4,18.8-180.8,19.1z"/>
	<path class="st12" d="M-190.6,25.5l-3.4,2.4c0,0-1.7,5.1,0,7.4c1.7,2.4,2.4,5.8,2.4,5.8l6.8-0.7L-190.6,25.5z"/>
	<path class="st11" d="M-189.5-5.4l-1.5-0.6c0,0,3.2-3.5,7.6-3.2l-1.3-1.4c0,0,3.1-1.2,5.8,2c1.5,1.7,3.2,3.7,4.2,5.9h1.6l-0.7,1.5
		l2.4,1.5l-2.5-0.3c0.2,1.3,0.2,2.6-0.2,3.9l0.1,1.2c0,0-2.8-4.4-2.8-5v1.5c0,0-1.5-1.4-1.5-2.3l-0.8,1.1l-0.4-1.7l-5.1,1.7l0.8-1.4
		l-3.2,0.5l1.3-1.7c0,0-3.6,2-3.8,3.7c-0.1,1.7-1.9,3.8-1.9,3.8l-0.8-1.5C-192.3,3.7-193.6-3.2-189.5-5.4z"/>
	<path class="st13" d="M-187.5,62.8h-134.7v94.5h134.7V62.8z"/>
	<path class="st14" d="M-277,98.9h-33.8v59h33.8V98.9z"/>
	<path class="st13" d="M-295.4,102.4h-9.1v8.5h9.1V102.4z"/>
	<path class="st13" d="M-283.3,102.4h-9.1v8.5h9.1V102.4z"/>
	<path class="st13" d="M-295.4,114h-9.1v8.8h9.1V114z"/>
	<path class="st13" d="M-283.3,114h-9.1v8.8h9.1V114z"/>
	<path class="st0" d="M-281.3,134.5c1.2,0,2.1-1,2.1-2.1c0-1.2-1-2.1-2.1-2.1c-1.2,0-2.1,1-2.1,2.1
		C-283.4,133.5-282.5,134.5-281.3,134.5z"/>
	<path class="st0" d="M-198.8,93.3h-66.8v56.1h66.8V93.3z"/>
	<path class="st14" d="M-173.4,80.6h-162.8l10.9-22.7l2.4-5.1l3.2-6.6l2.4-5.1l2.8-5.9h128.3l1.7,5.9l1.4,5.1l1.9,6.6l1.4,5.1
		L-173.4,80.6z"/>
	<path class="st14" d="M-261,116.5h-2.3V131h2.3V116.5z"/>
	<path class="st13" d="M-261,118.7h-2.3v1.8h2.3V118.7z"/>
	<path class="st13" d="M-261,127.1h-2.3v1.8h2.3V127.1z"/>
	<path class="st14" d="M-254.1,116.5h-5.7V131h5.7V116.5z"/>
	<path class="st13" d="M-254.1,118.7h-5.7v1.8h5.7V118.7z"/>
	<path class="st13" d="M-254.1,127.1h-5.7v1.8h5.7V127.1z"/>
	<path class="st14" d="M-250.4,116.5h-2.3V131h2.3V116.5z"/>
	<path class="st13" d="M-250.4,118.7h-2.3v1.8h2.3V118.7z"/>
	<path class="st13" d="M-250.4,127.1h-2.3v1.8h2.3V127.1z"/>
	<path class="st14" d="M-246.9,116.5h-2.3V131h2.3V116.5z"/>
	<path class="st13" d="M-246.9,118.7h-2.3v1.8h2.3V118.7z"/>
	<path class="st13" d="M-246.9,127.1h-2.3v1.8h2.3V127.1z"/>
	<path class="st14" d="M-244.6,116.6l-2.2,0.8l5.1,13.5l2.2-0.8L-244.6,116.6z"/>
	<path class="st13" d="M-243.9,118.6l-2.2,0.8l0.6,1.6l2.2-0.8L-243.9,118.6z"/>
	<path class="st13" d="M-240.9,126.4l-2.2,0.8l0.6,1.6l2.2-0.8L-240.9,126.4z"/>
	<path class="st14" d="M-201,116.5h-5.7V131h5.7V116.5z"/>
	<path class="st13" d="M-201,118.7h-5.7v1.8h5.7V118.7z"/>
	<path class="st13" d="M-201,127.1h-5.7v1.8h5.7V127.1z"/>
	<path class="st14" d="M-208,116.5h-2.3V131h2.3V116.5z"/>
	<path class="st13" d="M-208,118.7h-2.3v1.8h2.3V118.7z"/>
	<path class="st13" d="M-208,127.1h-2.3v1.8h2.3V127.1z"/>
	<path class="st14" d="M-211.5,116.5h-2.3V131h2.3V116.5z"/>
	<path class="st13" d="M-211.5,118.7h-2.3v1.8h2.3V118.7z"/>
	<path class="st13" d="M-211.5,127.1h-2.3v1.8h2.3V127.1z"/>
	<path class="st14" d="M-216.1,116.6l-5.1,13.5l2.2,0.8l5.1-13.5L-216.1,116.6z"/>
	<path class="st13" d="M-216.9,118.6l-0.6,1.6l2.2,0.8l0.6-1.6L-216.9,118.6z"/>
	<path class="st13" d="M-219.9,126.4l-0.6,1.6l2.2,0.8l0.6-1.6L-219.9,126.4z"/>
	<path class="st13" d="M-198.8,131h-66.8v1.4h66.8V131z"/>
	<path class="st14" d="M-224.2,116.5h-12.3V131h12.3V116.5z"/>
	<path class="st13" d="M-227.3,119.7h-6.3v2.7h6.3V119.7z"/>
	<path class="st14" d="M-231.7,93.3h-1.2v12.5h1.2V93.3z"/>
	<path class="st14" d="M-232.2,107.7c1.1,0,2-0.9,2-2c0-1.1-0.9-2-2-2c-1.1,0-2,0.9-2,2C-234.2,106.9-233.3,107.7-232.2,107.7z"/>
	<path class="st0" d="M-183.1,46.2h-136.6l2.4-5.1h132.7L-183.1,46.2z"/>
	<path class="st0" d="M-179.8,57.9h-145.5l2.4-5.1h141.7L-179.8,57.9z"/>
	<path class="st9" d="M-165.5,28.6c0,0-2,5-1.6,10c0.1,0.9,0.4,1.8,0.9,2.5l-24,11.4c0,0-10.9,1.1-8.2,5.9
		c2.7,4.7,12.5-2.4,12.5-2.4s25.8-3.7,27.8-7.4c2-3.7,3.4-19.3,3.4-19.3L-165.5,28.6z"/>
	<path class="st12" d="M-164.5,14.7h5.1c0,0,3.7,0.7,4.7,7.4c1,6.8,2,8.5,1,8.5c-1,0-13.2-0.3-13.2-0.7
		C-166.9,29.6-164.5,14.7-164.5,14.7z"/>
	<path class="st14" d="M-334.2,115.9c14.4,0,26.1-11.7,26.1-26.1c0-14.4-11.7-26.1-26.1-26.1c-14.4,0-26.1,11.7-26.1,26.1
		C-360.3,104.2-348.6,115.9-334.2,115.9z"/>
	<path class="st15" d="M-334.2,112.2c12.4,0,22.4-10,22.4-22.4c0-12.4-10-22.4-22.4-22.4c-12.4,0-22.4,10-22.4,22.4
		C-356.6,102.2-346.6,112.2-334.2,112.2z"/>
	<path class="st13" d="M-335.3,103v-3.3c-1.6,0-3.4-0.6-4.4-1.4l0.7-2.2c1.2,0.9,2.6,1.4,4.1,1.4c2,0,3.4-1.3,3.4-3.2
		c0-1.8-1.1-2.9-3.2-3.8c-2.9-1.3-4.7-2.8-4.7-5.6c0-2.7,1.7-4.7,4.3-5.2v-3.3h1.8v3.1c1.3,0,2.6,0.4,3.7,1.1l-0.7,2.1
		c-1.1-0.7-2.3-1.1-3.6-1.1c-2.2,0-3,1.5-3,2.8c0,1.7,1.1,2.5,3.5,3.7c2.9,1.4,4.4,3,4.4,5.9c0,2.6-1.6,4.9-4.5,5.5v3.4H-335.3z"/>
</g>
<g>
	<g>
		<path class="st16" d="M-138.7,409.7h-15.1c-1.8,0-3.3-1.5-3.3-3.3s1.5-3.3,3.3-3.3h11.8v-11c0-1.8,1.5-3.3,3.3-3.3
			c1.8,0,3.3,1.5,3.3,3.3v14.2C-135.5,408.3-136.9,409.7-138.7,409.7z"/>
		<path class="st17" d="M-150.4,344.8h-5.1c-1.8,0-3.3-1.5-3.3-3.3c0-1.8,1.5-3.3,3.3-3.3h5.1c1.8,0,3.3,1.5,3.3,3.3
			C-147.2,343.3-148.6,344.8-150.4,344.8z"/>
		<path class="st14" d="M60.5,359.1c0-2.4-0.9-4.6-2.5-6.4l-6.5-7.1L3.7,323.9c-2.1,0-3.7-1.7-3.7-3.7l-19.5-25.5h-130.8
			c-2.9,0-5.3,2.4-5.3,5.3v93.3c0,1.8,1.5,3.3,3.3,3.3H54c3.6,0,6.5-2.9,6.5-6.5V359.1z"/>
		<path class="st18" d="M60.5,390.1v-30.9c0-2.2-0.8-4.3-2.2-6c-0.6-0.7,0.9,1-6.8-7.5l-18.4-8.4l14.2,15.5c1.6,1.7,2.5,4,2.5,6.4
			v30.9c0,3.6-2.9,6.5-6.5,6.5H54C57.6,396.6,60.5,393.7,60.5,390.1z"/>
		<path class="st19" d="M7.8,297.8c-1.8-2-4.3-3.1-7-3.1h-20.3v47.2c0,2,1.7,3.7,3.7,3.7h67.3L7.8,297.8z"/>
		<path class="st20" d="M-3,297.8l43.7,47.9h10.8L7.8,297.8c-1.8-2-4.3-3.1-7-3.1H-10C-7.3,294.7-4.8,295.8-3,297.8z"/>
		<path class="st21" d="M63.8,379.5c0-1.8-1.5-3.3-3.3-3.3h-99.9v-81.6c0-1.8-1.5-3.3-3.3-3.3c-1.8,0-3.3,1.5-3.3,3.3v81.6h-109.7
			c-1.8,0-3.3,1.5-3.3,3.3c0,1.8,1.5,3.3,3.3,3.3h109.7v13.8c0,1.8,1.5,3.3,3.3,3.3c1.8,0,3.3-1.5,3.3-3.3v-13.8h99.9
			C62.3,382.8,63.8,381.3,63.8,379.5z"/>
		<path class="st16" d="M21.9,331.4c-1.3-1.3-3.3-1.3-4.6,0c-1.3,1.3-1.3,3.3,0,4.6l9.7,9.7h9.2L21.9,331.4z"/>
		<path class="st17" d="M16.4,340.2c-0.8,0-1.7-0.3-2.3-1c-1.3-1.3-1.3-3.3,0-4.6l6.5-6.5c1.3-1.3,3.3-1.3,4.6,0
			c1.3,1.3,1.3,3.3,0,4.6l-6.5,6.5C18,339.9,17.2,340.2,16.4,340.2z"/>
		<path class="st22" d="M-107.8,352.9l-2.3-2.4c-0.3-0.3-0.3-0.8,0-1.1l16.5-16c0.1-0.1,0.2-0.2,0.2-0.4c0-0.1-0.1-0.3-0.2-0.4
			l-16.5-16c-0.3-0.3-0.3-0.8,0-1.1l2.3-2.4c3.9-4.1,10.4-4.1,14.5-0.2l15.2,14.8c0.8,0.8,1.4,1.7,1.8,2.7c1,2.8,0.3,5.7-1.7,7.6
			l-15.3,14.9C-97.4,357.1-103.9,357-107.8,352.9z"/>
		<path class="st23" d="M60.5,370H54c-1.8,0-3.3-1.5-3.3-3.3c0-1.8,1.5-3.3,3.3-3.3h6.5c1.8,0,3.3,1.5,3.3,3.3
			C63.8,368.6,62.3,370,60.5,370z"/>
		<path class="st17" d="M18.4,422.5c13.5,0,24.5-11,24.5-24.5c0-13.5-11-24.5-24.5-24.5c-13.5,0-24.5,11-24.5,24.5
			C-6.1,411.5,4.8,422.5,18.4,422.5z"/>
		<path class="st16" d="M18.4,373.5c-1.4,0-2.7,0.1-4.1,0.3c11.6,1.9,20.4,12,20.4,24.2c0,12.1-8.8,22.2-20.4,24.2
			c1.3,0.2,2.7,0.3,4.1,0.3c13.5,0,24.5-11,24.5-24.5S31.9,373.5,18.4,373.5z"/>
		<path class="st22" d="M18.4,406.1c4.5,0,8.1-3.6,8.1-8.1s-3.6-8.1-8.1-8.1c-4.5,0-8.1,3.6-8.1,8.1S13.9,406.1,18.4,406.1z"/>
		<path class="st24" d="M18.4,389.8c-1.2,0-2.3,0.3-3.3,0.7c2.8,1.3,4.8,4.1,4.8,7.4s-2,6.2-4.8,7.4c1,0.5,2.1,0.7,3.3,0.7
			c4.5,0,8.1-3.6,8.1-8.1C26.5,393.5,22.9,389.8,18.4,389.8z"/>
		<path class="st17" d="M-103.6,422.5c13.5,0,24.5-11,24.5-24.5c0-13.5-11-24.5-24.5-24.5c-13.5,0-24.5,11-24.5,24.5
			C-128.1,411.5-117.2,422.5-103.6,422.5z"/>
		<path class="st16" d="M-103.6,373.5c-1.4,0-2.7,0.1-4.1,0.3c11.6,1.9,20.4,12,20.4,24.2c0,12.1-8.8,22.2-20.4,24.2
			c1.3,0.2,2.7,0.3,4.1,0.3c13.5,0,24.5-11,24.5-24.5C-79.2,384.5-90.1,373.5-103.6,373.5z"/>
		<path class="st22" d="M-103.6,406.1c4.5,0,8.1-3.6,8.1-8.1s-3.6-8.1-8.1-8.1c-4.5,0-8.1,3.6-8.1,8.1S-108.1,406.1-103.6,406.1z"/>
		<path class="st24" d="M-103.6,389.8c-1.2,0-2.3,0.3-3.3,0.7c2.8,1.3,4.8,4.1,4.8,7.4s-2,6.2-4.8,7.4c1,0.5,2.1,0.7,3.3,0.7
			c4.5,0,8.1-3.6,8.1-8.1C-95.5,393.5-99.1,389.8-103.6,389.8z"/>
		<path class="st17" d="M-6.7,315.2c-0.4-3-2.9-5.2-5.9-5.2h-6.9v31.9c0,2,1.7,3.7,3.7,3.7h13.2L-6.7,315.2z"/>
	</g>
</g>
<g>
	<path class="st14" d="M461.9-152.4H411c-1.7,0-3.1,1.5-3.1,3.5v25.8c0,1.9,1.4,3.5,3.1,3.5h50.9c1.7,0,3.1-1.5,3.1-3.5V-149
		C465-150.9,463.6-152.4,461.9-152.4z"/>
	<path class="st25" d="M561.8-142.8h-18.3c-0.7,0-1.3,0.7-1.3,1.5v20.4c0,0.8,0.6,1.5,1.3,1.5h18.3c0.7,0,1.3-0.7,1.3-1.5v-20.4
		C563.2-142.1,562.6-142.8,561.8-142.8z"/>
	<path class="st25" d="M532.4-142.8h-18.3c-0.7,0-1.3,0.7-1.3,1.5v20.4c0,0.8,0.6,1.5,1.3,1.5h18.3c0.7,0,1.3-0.7,1.3-1.5v-20.4
		C533.7-142.1,533.1-142.8,532.4-142.8z"/>
	<path class="st25" d="M503-142.8h-18.3c-0.7,0-1.3,0.7-1.3,1.5v20.4c0,0.8,0.6,1.5,1.3,1.5H503c0.7,0,1.3-0.7,1.3-1.5v-20.4
		C504.3-142.1,503.7-142.8,503-142.8z"/>
	<path class="st25" d="M532.4-173.4h-18.3c-0.7,0-1.3,0.7-1.3,1.5v20.4c0,0.8,0.6,1.5,1.3,1.5h18.3c0.7,0,1.3-0.7,1.3-1.5V-172
		C533.7-172.8,533.1-173.4,532.4-173.4z"/>
	<path class="st25" d="M503-173.4h-18.3c-0.7,0-1.3,0.7-1.3,1.5v20.4c0,0.8,0.6,1.5,1.3,1.5H503c0.7,0,1.3-0.7,1.3-1.5V-172
		C504.3-172.8,503.7-173.4,503-173.4z"/>
	<path class="st14" d="M444.7-186.7h-16.5c-1,0-1.8,0.9-1.8,2v23.4c0,1.1,0.8,2,1.8,2h16.5c1,0,1.8-0.9,1.8-2v-23.4
		C446.5-185.8,445.7-186.7,444.7-186.7z"/>
	<path class="st14" d="M444.7-202.8h-5.6v-21.4c0-1.6-1.2-3-2.7-3c-1.5,0-2.7,1.3-2.7,3v21.4h-5.6c-1,0-1.8,0.9-1.8,2v5.2
		c0,1.1,0.8,2,1.8,2h16.5c1,0,1.8-0.9,1.8-2v-5.2C446.5-201.9,445.7-202.8,444.7-202.8z"/>
	<path class="st14" d="M611.2-118.3c-0.2-0.4-0.6-0.6-1-0.6H575c-0.3,0-0.7,0.2-0.9,0.5l-4.7,6.7H397.8c-0.4,0-0.7,0.2-0.9,0.5
		c-0.2,0.3-0.2,0.8-0.1,1.2c0,0,15,41.2,20,55c0.2,0.5,0.6,0.8,1,0.8h157.9c0.4,0,0.8-0.1,1-0.6c8.6-15.6,34.5-62.1,34.5-62.1
		C611.4-117.4,611.4-117.9,611.2-118.3z M540.8-87.4c-2.4,0-4.3-2.2-4.3-4.8c0-2.7,1.9-4.8,4.3-4.8s4.3,2.2,4.3,4.8
		C545.1-89.6,543.2-87.4,540.8-87.4z M561.8-87.4c-2.4,0-4.3-2.2-4.3-4.8c0-2.7,1.9-4.8,4.3-4.8c2.4,0,4.3,2.2,4.3,4.8
		C566.2-89.6,564.2-87.4,561.8-87.4z"/>
</g>
<g>
	<g>
		<defs>
			<rect id="SVGID_1_" x="11.3" y="9.1" width="213.4" height="171.8"/>
		</defs>
		<clipPath id="SVGID_2_">
			<use xlink:href="#SVGID_1_"  style="overflow:visible;"/>
		</clipPath>
		<g class="st26">
			<path class="st25" d="M168.3,9.2H11.3v111h156.9V9.2z"/>
			<path class="st27" d="M163.8,23.1H15.8v90.5h147.9V23.1z"/>
			<path class="st14" d="M168.2,9.1H11.3v7.4h156.9V9.1z"/>
			<path class="st27" d="M16.2,14.2c0.7,0,1.2-0.6,1.2-1.4c0-0.8-0.6-1.4-1.2-1.4c-0.7,0-1.2,0.6-1.2,1.4
				C15,13.6,15.6,14.2,16.2,14.2z"/>
			<path class="st27" d="M20.9,14.2c0.7,0,1.2-0.6,1.2-1.4c0-0.8-0.6-1.4-1.2-1.4s-1.2,0.6-1.2,1.4C19.7,13.6,20.2,14.2,20.9,14.2z"
				/>
			<path class="st27" d="M25.6,14.2c0.7,0,1.2-0.6,1.2-1.4c0-0.8-0.6-1.4-1.2-1.4c-0.7,0-1.2,0.6-1.2,1.4
				C24.4,13.6,24.9,14.2,25.6,14.2z"/>
			<path class="st14" d="M63,30.5H34v34.7H63V30.5z"/>
			<path class="st14" d="M104.3,30.5H75.3v34.7h28.9V30.5z"/>
			<path class="st14" d="M145.6,30.5h-28.9v34.7h28.9V30.5z"/>
			<path class="st14" d="M63,71.5H34v34.7H63V71.5z"/>
			<path class="st14" d="M104.3,71.5H75.3v34.7h28.9V71.5z"/>
			<path class="st14" d="M145.6,71.5h-28.9v34.7h28.9V71.5z"/>
			<path class="st0" d="M82.3,80.4l5.3-2.3l0.6,11.5c0,0,1.1,3.5,0.7,4.9c0,0,0.2,2.3-0.4,2.4c-0.6,0.1-2.3,0.4-2.5,0.3
				S86,96.7,86,96.7s-1.2,1-1.4,2c0,0-5.2,1.8-5.3,0.1c-0.1-1.6,2.6-3,2.6-3l2.1-3.5L82.3,80.4z"/>
			<path class="st0" d="M93.5,80.4l5.3-2.3l0.6,11.5c0,0,1.1,3.5,0.7,4.9c0,0,0.2,2.3-0.4,2.4c-0.6,0.1-2.3,0.4-2.5,0.3
				c-0.1-0.1-0.1-0.5-0.1-0.5s-1.2,1-1.4,2c0,0-5.2,1.8-5.3,0.1c-0.1-1.6,2.6-3,2.6-3l2.1-3.5L93.5,80.4z"/>
			<path class="st0" d="M94,35.8c0,0-1.1,3.5,0.2,5L93.1,45c0,0,3.9,12.8,2.8,14.6c0,0-4.1,2.3-12.4-0.8l3.3-14.3l-0.5-6.1l0.7-2.8
				l1.5-0.2c0,0-0.9,3.7,0.7,4.2c1.6,0.6,3.2-4.1,3.2-4.1L94,35.8z"/>
			<path class="st0" d="M42.1,58.2l1.4,0.6l6.8-9.8l2.1,11.5l1.4-0.3c0.9-10,1.7-20.1,0.7-24.9l-5.3-0.2l-2.4,8.4l-1.2,5.7
				L42.1,58.2z"/>
			<path class="st0" d="M128.3,35.3c0,0-1.9,3-1.8,4.2c0.1,1.2,1.3,20.8,1.3,20.8l2.9,0.2l-0.9-14.1l0.7-3.8l1.7,17.8l3.5,0.1
				l-3.2-23l-0.6-2H128.3z"/>
			<path class="st0" d="M139.2,83.3c-0.5-0.7-1.4-1.1-2.2-1.3c0-0.1-2.6-0.7-2.6-0.6l-1-0.9l-3,1.7l-1.7-1.3l-0.8,0.3
				c0-0.2-2.4,0.3-2.4,0.3c-0.5,0-1.1,0.1-1.8,0.1c-2.4,0.2-2.6,7-2.6,7c1.1-0.5,2.3-0.8,3.4-0.8l0.6,8.1c3.3-0.3,6.8,0.1,10.3,0.9
				l1.7-6.4l3.9-1.7C141.1,89,140.4,84.9,139.2,83.3z"/>
			<path class="st0" d="M55.2,79.4c-0.4-0.6-1.2-0.9-1.9-1c0-0.1-2.1-0.6-2.2-0.5l-0.8-0.7l-2.5,1.4l-1.4-1.1l-0.6,0.3
				c0-0.1-2,0.3-2,0.3c-0.4,0-0.9,0-1.4,0.1c-2,0.2-2.1,5.8-2.1,5.8c0.9-0.4,1.9-0.6,2.8-0.7l0.5,16.4c2.7-0.3,5.6,0,8.5,0.8
				l1.4-14.9l3.2-1.4C56.8,84.1,56.2,80.7,55.2,79.4z"/>
			<path class="st25" d="M160.5,173.7l-19.6,4.4l-0.4,0l-17.2-1.9v-24.1l21.1-3.9l15.3,2l0,0.1v0.1L160.5,173.7z"/>
			<path class="st15" d="M160.5,173.7l-19.6,4.4l-0.4,0v-24.7l19.1-3.2L160.5,173.7z"/>
			<path class="st28" d="M159.6,150.3L159.6,150.3l-19.1,3.1l-17.2-1.3l21.1-3.9l15.3,2L159.6,150.3L159.6,150.3z"/>
			<path class="st27" d="M137.5,161.3l-11.9-0.9l-0.4,6.2l11.9,0.9L137.5,161.3z"/>
			<path class="st14" d="M134.6,163.2l-6.3-0.5l-0.1,2.1l6.3,0.5L134.6,163.2z"/>
			<path class="st14" d="M187,173.7l-19.6,4.4l-0.4,0l-17.2-1.9v-24.1l21.1-3.9l15.3,2l0,0.1v0.1L187,173.7z"/>
			<path class="st15" d="M187,173.7l-19.6,4.4l-0.4,0v-24.7l19.1-3.2L187,173.7z"/>
			<path class="st28" d="M186.1,150.3L186.1,150.3l-19.1,3.1l-17.2-1.3l21.1-3.9l15.3,2L186.1,150.3L186.1,150.3z"/>
			<path class="st27" d="M164,161.3l-11.9-0.9l-0.4,6.2l11.9,0.9L164,161.3z"/>
			<path class="st14" d="M161.1,163.2l-6.3-0.5l-0.1,2.1l6.3,0.5L161.1,163.2z"/>
			<path class="st29" d="M201.2,53.6c0,0,3.5,9.8-2.9,9.8c-6.3,0,9.8,9.8,16.1,4.1c6.3-5.7,2.6-6,2.6-6s-8.3,1-8.1-7.3L201.2,53.6z"
				/>
			<path class="st11" d="M205.7,56.6c5.6,0,10.2-5,10.2-11.2c0-6.2-4.6-11.2-10.2-11.2s-10.2,5-10.2,11.2
				C195.5,51.5,200,56.6,205.7,56.6z"/>
			<path class="st11" d="M199.4,94.6l-10.9,31.1c0,0-5.5,9.5-3.5,19.1c2,9.5,7.5,26.9,7.5,26.9s4.2,1.2,3.9-3
				c-0.3-4.1,0.2-24.2-4.1-29.6l17.4-22l0.6,25.1c0,0-1.2,11.4-0.9,16.5c0.3,5.1,0.9,13.7,0.9,13.7l3.5-0.6c0,0,4.7-23.4,4.1-31
				c0,0,10.7-37.1-0.2-45.9L199.4,94.6z"/>
			<path class="st11" d="M193.8,171.6c0,0-1.4-0.4-1.6,1c-0.2,1.4-3.1,7.8,0,8.1c3.1,0.3,4.2-2.9,4.7-5.1c0.5-2.2,0.7-2.4,1.1-2.8
				c0.4-0.4,1.5-2.8,0.2-3c-1.3-0.2-2-1.6-2-1.6S195.8,172.2,193.8,171.6z"/>
			<path class="st11" d="M212.6,170.5c0,0-2.6-0.4-2.4,0.6c0.2,1-0.4,5.4,0,5.8c0.4,0.4,1.1,1.2,1.1,1.9c0,0.6,0.2,2.7,3.4,2.1
				c3.2-0.6,2.4-3.7,2.2-4.1c-0.2-0.4-2.4-2.5-2.2-3.7C214.9,171.7,213.7,169.7,212.6,170.5z"/>
			<path class="st29" d="M205.8,57.8c3.9,0,7-3.5,7-7.8c0-4.3-3.2-7.8-7-7.8s-7,3.5-7,7.8C198.7,54.3,201.9,57.8,205.8,57.8z"/>
			<path class="st12" d="M212.5,60.7c0,0,2.5,5.4-5,5.5c-2.3,0-5-1.8-6.1-4c-0.7-1.3-0.8,0.5-1.9,0.4c-2-0.2-4.2,0.7-6.1,1.8
				c-0.2,0.1-0.4,0.4-0.6,0.7c-0.1,0.3-0.1,0.6,0,0.9c1.5,5.4,5.6,31.1,6.3,32.5c1.6,3.6,19.5-2.4,19.5-2.4c0.2-9.8-3-23.4,2.7-33.3
				c-1.2-1-2.7-1.7-4.2-2.1C215.6,60.4,214,60.4,212.5,60.7z"/>
			<path class="st11" d="M212.4,44l-5.2-3l-7.1,1.2l-1.5,7.2l3.7-0.2l1-2.6v2.6l1.7-0.1l1-4.2l0.6,4.5l6-0.1L212.4,44z"/>
			<path class="st11" d="M206.2,37c2.3,0,4.1-2,4.1-4.5s-1.8-4.5-4.1-4.5c-2.3,0-4.1,2-4.1,4.5S203.9,37,206.2,37z"/>
			<path class="st11" d="M201,31.1c0-1.1,0.4-2.1,1-3c0.6-0.8,1.5-1.4,2.5-1.5c-0.6-0.1-1.2-0.1-1.8,0.1c-0.6,0.2-1.1,0.5-1.5,0.9
				c-0.4,0.4-0.8,1-1.1,1.5c-0.2,0.6-0.4,1.2-0.4,1.9c0,0.7,0.1,1.3,0.4,1.9c0.2,0.6,0.6,1.1,1.1,1.5c0.4,0.4,1,0.7,1.5,0.9
				c0.6,0.2,1.2,0.2,1.8,0.1c-1-0.2-1.9-0.7-2.5-1.5C201.4,33.3,201,32.2,201,31.1z"/>
			<path class="st25" d="M224.7,139l-19.6,4.4l-0.4-0.1l-17.2-1.9v-24.1l21.1-3.9l15.3,2l0,0.1v0L224.7,139z"/>
			<path class="st15" d="M224.7,139l-19.6,4.4l-0.4-0.1v-24.7l19.1-3.2L224.7,139z"/>
			<path class="st28" d="M223.8,115.6L223.8,115.6l-19.1,3.1l-17.2-1.3l21.1-3.9l15.3,2L223.8,115.6L223.8,115.6z"/>
			<path class="st27" d="M201.8,126.7l-11.9-0.9l-0.4,6.2l11.9,0.9L201.8,126.7z"/>
			<path class="st14" d="M198.9,128.5l-6.3-0.5l-0.1,2.1l6.3,0.5L198.9,128.5z"/>
			<path class="st29" d="M194.2,111.2c0,0-7.2,6.4-4,8.6c3.2,2.2,6.9-8.6,6.9-8.6H194.2z"/>
			<path class="st12" d="M194.5,64.2c-0.4-0.5-5.1,2.2-4.4,5.6l0.3,24c0,0-1.7,19.7,2.6,19.7c4.3,0,3.8,0.7,4.4-0.9
				c0.6-1.6,0.7-15,0.7-15L194.5,64.2z"/>
			<path class="st29" d="M216.8,109.1c0,0,3.7,10.8,6.9,8.6c3.2-2.2-4-8.6-4-8.6H216.8z"/>
			<path class="st12" d="M217.7,95.6c0,0-1.8,13.2-1.2,14.8c0.6,1.6,0.1,0.9,4.4,0.9c4.3,0,2.6-19.7,2.6-19.7l0.3-24
				c0.7-3.5-4-6.1-4.4-5.6l-4.1,15.6L217.7,95.6z"/>
		</g>
	</g>
</g>
</svg>
