<?xml version="1.0" encoding="utf-8"?>
<!-- Generator: Adobe Illustrator 25.0.1, SVG Export Plug-In . SVG Version: 6.00 Build 0)  -->
<svg version="1.1" id="Layer_1" xmlns="http://www.w3.org/2000/svg" xmlns:xlink="http://www.w3.org/1999/xlink" x="0px" y="0px"
	 viewBox="0 0 236 190" style="enable-background:new 0 0 236 190;" xml:space="preserve">
<style type="text/css">
	.st0{fill:#FF4D73;}
	.st1{fill:#0192FF;}
	.st2{fill:#6C63FF;}
	.st3{fill:#2845A8;}
	.st4{fill:#FFCC36;}
	.st5{fill:#3F3D56;}
	.st6{fill:#EFC5CB;}
	.st7{fill:#A0616A;}
	.st8{fill:#2F2E41;}
	.st9{fill:#575A89;}
	.st10{fill:#F2F2F2;}
	.st11{fill:#30B0E6;}
	.st12{opacity:0.1;enable-background:new    ;}
	.st13{fill:#21386B;}
	.st14{fill:#26457D;}
	.st15{fill:#61A2F9;}
	.st16{fill:#E4F6FF;}
	.st17{fill:#D3EFFB;}
	.st18{fill:#5986CB;}
	.st19{fill:#F9F6F6;}
	.st20{fill:#DA4A54;}
	.st21{fill:#DDDAEC;}
	.st22{fill:#E6E6E6;}
	.st23{clip-path:url(#SVGID_2_);}
	.st24{fill:#FFFFFF;}
	.st25{opacity:5.000000e-02;enable-background:new    ;}
	.st26{fill:#FFB8B8;}
	.st27{fill:#007F5F;}
	.st28{fill:#9E9E9E;}
	.st29{fill:#0A6B53;}
</style>
<rect x="58.8" y="-57.3" class="st0" width="24.1" height="16.5"/>
<rect x="100.9" y="-57.3" class="st1" width="24.1" height="16.5"/>
<rect x="158.4" y="-55.4" class="st2" width="24.1" height="16.5"/>
<rect x="226.9" y="-52.7" class="st3" width="24.1" height="16.5"/>
<rect x="277.1" y="-38.9" class="st4" width="24.1" height="16.5"/>
<rect class="st4" width="236" height="190.9"/>
<g>
	<path class="st5" d="M-249.2,165.9c59.9,0,108.5-3.8,108.5-8.5c0-4.7-48.6-8.5-108.5-8.5c-59.9,0-108.5,3.8-108.5,8.5
		C-357.6,162.1-309.1,165.9-249.2,165.9z"/>
	<path class="st6" d="M-157,141.7l1,7.4l-7.1,0.7l1-9.1L-157,141.7z"/>
	<path class="st7" d="M-190.6,39.4c0,0,0.7,9.1,0.7,9.5s-4.7,23.7-4.7,23.7s-6.8,12.9,0,12.5c6.8-0.3,4.7-12.2,4.7-12.2l7.1-19.6
		l-3-13.9H-190.6z"/>
	<path class="st6" d="M-179.4,141.7l-1,7.4l7.1,0.7l-1-9.1L-179.4,141.7z"/>
	<path class="st8" d="M-187.2,71.9l-1.7,2.4c0,0-1,10.2,0,13.5c1,3.4,3.1,19,3.1,20c0,1,0.3,1.7,0,2c-0.3,0.3-1.4,0.3-0.7,1
		c0.7,0.7,0.7,2.7,0.7,2.7v1.7l4.4,25.1c0,0-2.7,3-0.7,3c2,0,9.5,0,9.1-3.4l-0.7-0.3c0,0-1-22.3-0.7-23.4c0.3-1,0-3,0-3
		s-0.7-1,0-1.4c0.7-0.3,0.7-3,0.7-3l3-20.7c0,0,2.7,13.9,4.4,15.2c1.7,1.4,1.4,4.7,1.4,4.7l1.4,29.8c0,0-1.4,3.4,0,4.1
		c1.4,0.7,7.1,3,7.5-0.3s2-32.8,2-34.2c0-1.4-0.3-2,0-3s-0.3-1,0-1s-0.7-1-0.7-1.7V85.1c0,0,0.3-3.4,0.7-4.1c0.3-0.7-0.3-1.4,0-2.4
		c0.3-1-0.7-4.4-0.7-4.4l-15.2-4.1L-187.2,71.9z"/>
	<path class="st8" d="M-175.3,147.8c0,0,1.7-1.7-0.7-1.7c-1.5,0-3,0.4-4.4,1l-1.7,6.1c0,0-6.9,5.6,0.8,4.9c7.8-0.7,6.6-0.2,6.6-0.2
		s2.4-0.7,2.7-1.4c0.3-0.7-0.7-10.5-0.7-10.5S-173.7,148.8-175.3,147.8z"/>
	<path class="st8" d="M-160.8,147.8c0,0-1.7-1.7,0.7-1.7c1.5,0,3,0.4,4.4,1l1.7,6.1c0,0,6.9,5.6-0.8,4.9c-7.8-0.7-7.6-0.2-7.6-0.2
		s-2.4-0.7-2.7-1.4c-0.3-0.7,1.7-10.5,1.7-10.5S-162.5,148.8-160.8,147.8z"/>
	<path class="st6" d="M-182.8,12.7c4.9,0,8.8-3.9,8.8-8.8c0-4.9-3.9-8.8-8.8-8.8c-4.9,0-8.8,3.9-8.8,8.8
		C-191.6,8.7-187.7,12.7-182.8,12.7z"/>
	<path class="st6" d="M-185.9,10.3c0,0,1.4,6.8,1.4,7.8c0,1,5.8,4.1,5.8,4.1l6.4-8.1c0,0-4.1-5.8-4.1-7.1L-185.9,10.3z"/>
	<path class="st9" d="M-180.8,19.1c0,0-3-0.8-3.8-2.1c0,0-9.4,9.2-9.4,10.9l7.5,13.2c0,0,0,4.7,0.7,5.1c0.7,0.3,0,0,0,1.4
		s-2,10.2-1.4,11.5c0.7,1.4,1.4,0.3,0.7,2.4c-0.7,2-2.4,12.9-2.4,12.9s6.1-2,14.9,1.4c8.8,3.4,19.3-1.4,19.3-1.4s-2.7-6.1-2-8.1
		c0.7-2-1.7-5.8-1.7-5.8l-1.7-31.2c0,0,2.4-13.9,0.7-14.6l-3.4-1.4l-10.9-1.3C-173.7,12-176.4,18.8-180.8,19.1z"/>
	<path class="st9" d="M-190.6,25.5l-3.4,2.4c0,0-1.7,5.1,0,7.4c1.7,2.4,2.4,5.8,2.4,5.8l6.8-0.7L-190.6,25.5z"/>
	<path class="st8" d="M-189.5-5.4l-1.5-0.6c0,0,3.2-3.5,7.6-3.2l-1.3-1.4c0,0,3.1-1.2,5.8,2c1.5,1.7,3.2,3.7,4.2,5.9h1.6l-0.7,1.5
		l2.4,1.5l-2.5-0.3c0.2,1.3,0.2,2.6-0.2,3.9l0.1,1.2c0,0-2.8-4.4-2.8-5v1.5c0,0-1.5-1.4-1.5-2.3l-0.8,1.1l-0.4-1.7l-5.1,1.7l0.8-1.4
		l-3.2,0.5l1.3-1.7c0,0-3.6,2-3.8,3.7c-0.1,1.7-1.9,3.8-1.9,3.8l-0.8-1.5C-192.3,3.7-193.6-3.2-189.5-5.4z"/>
	<path class="st10" d="M-187.5,62.8h-134.7v94.5h134.7V62.8z"/>
	<path class="st11" d="M-277,98.9h-33.8v59h33.8V98.9z"/>
	<path class="st10" d="M-295.4,102.4h-9.1v8.5h9.1V102.4z"/>
	<path class="st10" d="M-283.3,102.4h-9.1v8.5h9.1V102.4z"/>
	<path class="st10" d="M-295.4,114h-9.1v8.8h9.1V114z"/>
	<path class="st10" d="M-283.3,114h-9.1v8.8h9.1V114z"/>
	<path class="st5" d="M-281.3,134.5c1.2,0,2.1-1,2.1-2.1c0-1.2-1-2.1-2.1-2.1c-1.2,0-2.1,1-2.1,2.1
		C-283.4,133.5-282.5,134.5-281.3,134.5z"/>
	<path class="st5" d="M-198.8,93.3h-66.8v56.1h66.8V93.3z"/>
	<path class="st11" d="M-173.4,80.6h-162.8l10.9-22.7l2.4-5.1l3.2-6.6l2.4-5.1l2.8-5.9h128.3l1.7,5.9l1.4,5.1l1.9,6.6l1.4,5.1
		L-173.4,80.6z"/>
	<path class="st11" d="M-261,116.5h-2.3V131h2.3V116.5z"/>
	<path class="st10" d="M-261,118.7h-2.3v1.8h2.3V118.7z"/>
	<path class="st10" d="M-261,127.1h-2.3v1.8h2.3V127.1z"/>
	<path class="st11" d="M-254.1,116.5h-5.7V131h5.7V116.5z"/>
	<path class="st10" d="M-254.1,118.7h-5.7v1.8h5.7V118.7z"/>
	<path class="st10" d="M-254.1,127.1h-5.7v1.8h5.7V127.1z"/>
	<path class="st11" d="M-250.4,116.5h-2.3V131h2.3V116.5z"/>
	<path class="st10" d="M-250.4,118.7h-2.3v1.8h2.3V118.7z"/>
	<path class="st10" d="M-250.4,127.1h-2.3v1.8h2.3V127.1z"/>
	<path class="st11" d="M-246.9,116.5h-2.3V131h2.3V116.5z"/>
	<path class="st10" d="M-246.9,118.7h-2.3v1.8h2.3V118.7z"/>
	<path class="st10" d="M-246.9,127.1h-2.3v1.8h2.3V127.1z"/>
	<path class="st11" d="M-244.6,116.6l-2.2,0.8l5.1,13.5l2.2-0.8L-244.6,116.6z"/>
	<path class="st10" d="M-243.9,118.6l-2.2,0.8l0.6,1.6l2.2-0.8L-243.9,118.6z"/>
	<path class="st10" d="M-240.9,126.4l-2.2,0.8l0.6,1.6l2.2-0.8L-240.9,126.4z"/>
	<path class="st11" d="M-201,116.5h-5.7V131h5.7V116.5z"/>
	<path class="st10" d="M-201,118.7h-5.7v1.8h5.7V118.7z"/>
	<path class="st10" d="M-201,127.1h-5.7v1.8h5.7V127.1z"/>
	<path class="st11" d="M-208,116.5h-2.3V131h2.3V116.5z"/>
	<path class="st10" d="M-208,118.7h-2.3v1.8h2.3V118.7z"/>
	<path class="st10" d="M-208,127.1h-2.3v1.8h2.3V127.1z"/>
	<path class="st11" d="M-211.5,116.5h-2.3V131h2.3V116.5z"/>
	<path class="st10" d="M-211.5,118.7h-2.3v1.8h2.3V118.7z"/>
	<path class="st10" d="M-211.5,127.1h-2.3v1.8h2.3V127.1z"/>
	<path class="st11" d="M-216.1,116.6l-5.1,13.5l2.2,0.8l5.1-13.5L-216.1,116.6z"/>
	<path class="st10" d="M-216.9,118.6l-0.6,1.6l2.2,0.8l0.6-1.6L-216.9,118.6z"/>
	<path class="st10" d="M-219.9,126.4l-0.6,1.6l2.2,0.8l0.6-1.6L-219.9,126.4z"/>
	<path class="st10" d="M-198.8,131h-66.8v1.4h66.8V131z"/>
	<path class="st11" d="M-224.2,116.5h-12.3V131h12.3V116.5z"/>
	<path class="st10" d="M-227.3,119.7h-6.3v2.7h6.3V119.7z"/>
	<path class="st11" d="M-231.7,93.3h-1.2v12.5h1.2V93.3z"/>
	<path class="st11" d="M-232.2,107.7c1.1,0,2-0.9,2-2c0-1.1-0.9-2-2-2c-1.1,0-2,0.9-2,2C-234.2,106.9-233.3,107.7-232.2,107.7z"/>
	<path class="st5" d="M-183.1,46.2h-136.6l2.4-5.1h132.7L-183.1,46.2z"/>
	<path class="st5" d="M-179.8,57.9h-145.5l2.4-5.1h141.7L-179.8,57.9z"/>
	<path class="st6" d="M-165.5,28.6c0,0-2,5-1.6,10c0.1,0.9,0.4,1.8,0.9,2.5l-24,11.4c0,0-10.9,1.1-8.2,5.9
		c2.7,4.7,12.5-2.4,12.5-2.4s25.8-3.7,27.8-7.4c2-3.7,3.4-19.3,3.4-19.3L-165.5,28.6z"/>
	<path class="st9" d="M-164.5,14.7h5.1c0,0,3.7,0.7,4.7,7.4c1,6.8,2,8.5,1,8.5c-1,0-13.2-0.3-13.2-0.7
		C-166.9,29.6-164.5,14.7-164.5,14.7z"/>
	<path class="st11" d="M-334.2,115.9c14.4,0,26.1-11.7,26.1-26.1c0-14.4-11.7-26.1-26.1-26.1c-14.4,0-26.1,11.7-26.1,26.1
		C-360.3,104.2-348.6,115.9-334.2,115.9z"/>
	<path class="st12" d="M-334.2,112.2c12.4,0,22.4-10,22.4-22.4c0-12.4-10-22.4-22.4-22.4c-12.4,0-22.4,10-22.4,22.4
		C-356.6,102.2-346.6,112.2-334.2,112.2z"/>
	<path class="st10" d="M-335.3,103v-3.3c-1.6,0-3.4-0.6-4.4-1.4l0.7-2.2c1.2,0.9,2.6,1.4,4.1,1.4c2,0,3.4-1.3,3.4-3.2
		c0-1.8-1.1-2.9-3.2-3.8c-2.9-1.3-4.7-2.8-4.7-5.6c0-2.7,1.7-4.7,4.3-5.2v-3.3h1.8v3.1c1.3,0,2.6,0.4,3.7,1.1l-0.7,2.1
		c-1.1-0.7-2.3-1.1-3.6-1.1c-2.2,0-3,1.5-3,2.8c0,1.7,1.1,2.5,3.5,3.7c2.9,1.4,4.4,3,4.4,5.9c0,2.6-1.6,4.9-4.5,5.5v3.4H-335.3z"/>
</g>
<g>
	<g>
		<path class="st13" d="M-427.4,416.2h-15.1c-1.8,0-3.3-1.5-3.3-3.3s1.5-3.3,3.3-3.3h11.8v-11c0-1.8,1.5-3.3,3.3-3.3
			c1.8,0,3.3,1.5,3.3,3.3v14.2C-424.1,414.7-425.6,416.2-427.4,416.2z"/>
		<path class="st14" d="M-439.1,351.3h-5.1c-1.8,0-3.3-1.5-3.3-3.3c0-1.8,1.5-3.3,3.3-3.3h5.1c1.8,0,3.3,1.5,3.3,3.3
			C-435.9,349.8-437.3,351.3-439.1,351.3z"/>
		<path class="st11" d="M-228.2,365.6c0-2.4-0.9-4.6-2.5-6.4l-6.5-7.1l-47.8-21.8c-2.1,0-3.7-1.7-3.7-3.7l-19.5-25.5H-439
			c-2.9,0-5.3,2.4-5.3,5.3v93.3c0,1.8,1.5,3.3,3.3,3.3h206.2c3.6,0,6.5-2.9,6.5-6.5V365.6z"/>
		<path class="st15" d="M-228.2,396.5v-30.9c0-2.2-0.8-4.3-2.2-6c-0.6-0.7,0.9,1-6.8-7.5l-18.4-8.4l14.2,15.5c1.6,1.7,2.5,4,2.5,6.4
			v30.9c0,3.6-2.9,6.5-6.5,6.5h10.8C-231.1,403.1-228.2,400.1-228.2,396.5z"/>
		<path class="st16" d="M-280.9,304.2c-1.8-2-4.3-3.1-7-3.1h-20.3v47.2c0,2,1.7,3.7,3.7,3.7h67.3L-280.9,304.2z"/>
		<path class="st17" d="M-291.7,304.2l43.7,47.9h10.8l-43.7-47.9c-1.8-2-4.3-3.1-7-3.1h-10.8C-296,301.2-293.5,302.3-291.7,304.2z"
			/>
		<path class="st18" d="M-224.9,386c0-1.8-1.5-3.3-3.3-3.3h-99.9v-81.6c0-1.8-1.5-3.3-3.3-3.3s-3.3,1.5-3.3,3.3v81.6h-109.7
			c-1.8,0-3.3,1.5-3.3,3.3c0,1.8,1.5,3.3,3.3,3.3h109.7v13.8c0,1.8,1.5,3.3,3.3,3.3s3.3-1.5,3.3-3.3v-13.8h99.9
			C-226.4,389.3-224.9,387.8-224.9,386z"/>
		<path class="st13" d="M-266.8,337.8c-1.3-1.3-3.3-1.3-4.6,0c-1.3,1.3-1.3,3.3,0,4.6l9.7,9.7h9.2L-266.8,337.8z"/>
		<path class="st14" d="M-272.3,346.6c-0.8,0-1.7-0.3-2.3-1c-1.3-1.3-1.3-3.3,0-4.6l6.5-6.5c1.3-1.3,3.3-1.3,4.6,0
			c1.3,1.3,1.3,3.3,0,4.6l-6.5,6.5C-270.6,346.3-271.5,346.6-272.3,346.6z"/>
		<path class="st19" d="M-396.5,359.4l-2.3-2.4c-0.3-0.3-0.3-0.8,0-1.1l16.5-16c0.1-0.1,0.2-0.2,0.2-0.4c0-0.1-0.1-0.3-0.2-0.4
			l-16.5-16c-0.3-0.3-0.3-0.8,0-1.1l2.3-2.4c3.9-4.1,10.4-4.1,14.5-0.2l15.2,14.8c0.8,0.8,1.4,1.7,1.8,2.7c1,2.8,0.3,5.7-1.7,7.6
			l-15.3,14.9C-386.1,363.5-392.6,363.4-396.5,359.4z"/>
		<path class="st20" d="M-228.2,376.5h-6.5c-1.8,0-3.3-1.5-3.3-3.3c0-1.8,1.5-3.3,3.3-3.3h6.5c1.8,0,3.3,1.5,3.3,3.3
			C-224.9,375.1-226.4,376.5-228.2,376.5z"/>
		<path class="st14" d="M-270.3,428.9c13.5,0,24.5-11,24.5-24.5c0-13.5-11-24.5-24.5-24.5c-13.5,0-24.5,11-24.5,24.5
			C-294.8,418-283.8,428.9-270.3,428.9z"/>
		<path class="st13" d="M-270.3,380c-1.4,0-2.7,0.1-4.1,0.3c11.6,1.9,20.4,12,20.4,24.2c0,12.1-8.8,22.2-20.4,24.2
			c1.3,0.2,2.7,0.3,4.1,0.3c13.5,0,24.5-11,24.5-24.5S-256.8,380-270.3,380z"/>
		<path class="st19" d="M-270.3,412.6c4.5,0,8.1-3.6,8.1-8.1s-3.6-8.1-8.1-8.1c-4.5,0-8.1,3.6-8.1,8.1S-274.8,412.6-270.3,412.6z"/>
		<path class="st21" d="M-270.3,396.3c-1.2,0-2.3,0.3-3.3,0.7c2.8,1.3,4.8,4.1,4.8,7.4s-2,6.2-4.8,7.4c1,0.5,2.1,0.7,3.3,0.7
			c4.5,0,8.1-3.6,8.1-8.1S-265.8,396.3-270.3,396.3z"/>
		<path class="st14" d="M-392.3,428.9c13.5,0,24.5-11,24.5-24.5c0-13.5-11-24.5-24.5-24.5c-13.5,0-24.5,11-24.5,24.5
			C-416.8,418-405.9,428.9-392.3,428.9z"/>
		<path class="st13" d="M-392.3,380c-1.4,0-2.7,0.1-4.1,0.3c11.6,1.9,20.4,12,20.4,24.2c0,12.1-8.8,22.2-20.4,24.2
			c1.3,0.2,2.7,0.3,4.1,0.3c13.5,0,24.5-11,24.5-24.5C-367.8,390.9-378.8,380-392.3,380z"/>
		<path class="st19" d="M-392.3,412.6c4.5,0,8.1-3.6,8.1-8.1s-3.6-8.1-8.1-8.1c-4.5,0-8.1,3.6-8.1,8.1S-396.8,412.6-392.3,412.6z"/>
		<path class="st21" d="M-392.3,396.3c-1.2,0-2.3,0.3-3.3,0.7c2.8,1.3,4.8,4.1,4.8,7.4s-2,6.2-4.8,7.4c1,0.5,2.1,0.7,3.3,0.7
			c4.5,0,8.1-3.6,8.1-8.1S-387.8,396.3-392.3,396.3z"/>
		<path class="st14" d="M-295.4,321.7c-0.4-3-2.9-5.2-5.9-5.2h-6.9v31.9c0,2,1.7,3.7,3.7,3.7h13.2L-295.4,321.7z"/>
	</g>
</g>
<g>
	<path class="st11" d="M461.9-152.4H411c-1.7,0-3.1,1.5-3.1,3.5v25.8c0,1.9,1.4,3.5,3.1,3.5h50.9c1.7,0,3.1-1.5,3.1-3.5V-149
		C465-150.9,463.6-152.4,461.9-152.4z"/>
	<path class="st22" d="M561.8-142.8h-18.3c-0.7,0-1.3,0.7-1.3,1.5v20.4c0,0.8,0.6,1.5,1.3,1.5h18.3c0.7,0,1.3-0.7,1.3-1.5v-20.4
		C563.2-142.1,562.6-142.8,561.8-142.8z"/>
	<path class="st22" d="M532.4-142.8h-18.3c-0.7,0-1.3,0.7-1.3,1.5v20.4c0,0.8,0.6,1.5,1.3,1.5h18.3c0.7,0,1.3-0.7,1.3-1.5v-20.4
		C533.7-142.1,533.1-142.8,532.4-142.8z"/>
	<path class="st22" d="M503-142.8h-18.3c-0.7,0-1.3,0.7-1.3,1.5v20.4c0,0.8,0.6,1.5,1.3,1.5H503c0.7,0,1.3-0.7,1.3-1.5v-20.4
		C504.3-142.1,503.7-142.8,503-142.8z"/>
	<path class="st22" d="M532.4-173.4h-18.3c-0.7,0-1.3,0.7-1.3,1.5v20.4c0,0.8,0.6,1.5,1.3,1.5h18.3c0.7,0,1.3-0.7,1.3-1.5V-172
		C533.7-172.8,533.1-173.4,532.4-173.4z"/>
	<path class="st22" d="M503-173.4h-18.3c-0.7,0-1.3,0.7-1.3,1.5v20.4c0,0.8,0.6,1.5,1.3,1.5H503c0.7,0,1.3-0.7,1.3-1.5V-172
		C504.3-172.8,503.7-173.4,503-173.4z"/>
	<path class="st11" d="M444.7-186.7h-16.5c-1,0-1.8,0.9-1.8,2v23.4c0,1.1,0.8,2,1.8,2h16.5c1,0,1.8-0.9,1.8-2v-23.4
		C446.5-185.8,445.7-186.7,444.7-186.7z"/>
	<path class="st11" d="M444.7-202.8h-5.6v-21.4c0-1.6-1.2-3-2.7-3c-1.5,0-2.7,1.3-2.7,3v21.4h-5.6c-1,0-1.8,0.9-1.8,2v5.2
		c0,1.1,0.8,2,1.8,2h16.5c1,0,1.8-0.9,1.8-2v-5.2C446.5-201.9,445.7-202.8,444.7-202.8z"/>
	<path class="st11" d="M611.2-118.3c-0.2-0.4-0.6-0.6-1-0.6H575c-0.3,0-0.7,0.2-0.9,0.5l-4.7,6.7H397.8c-0.4,0-0.7,0.2-0.9,0.5
		c-0.2,0.3-0.2,0.8-0.1,1.2c0,0,15,41.2,20,55c0.2,0.5,0.6,0.8,1,0.8h157.9c0.4,0,0.8-0.1,1-0.6c8.6-15.6,34.5-62.1,34.5-62.1
		C611.4-117.4,611.4-117.9,611.2-118.3z M540.8-87.4c-2.4,0-4.3-2.2-4.3-4.8c0-2.7,1.9-4.8,4.3-4.8s4.3,2.2,4.3,4.8
		C545.1-89.6,543.2-87.4,540.8-87.4z M561.8-87.4c-2.4,0-4.3-2.2-4.3-4.8c0-2.7,1.9-4.8,4.3-4.8c2.4,0,4.3,2.2,4.3,4.8
		C566.2-89.6,564.2-87.4,561.8-87.4z"/>
</g>
<g>
	<g>
		<defs>
			<rect id="SVGID_1_" x="204.7" y="205.5" width="213.4" height="171.8"/>
		</defs>
		<clipPath id="SVGID_2_">
			<use xlink:href="#SVGID_1_"  style="overflow:visible;"/>
		</clipPath>
		<g class="st23">
			<path class="st22" d="M361.7,205.6H204.7v111h156.9V205.6z"/>
			<path class="st24" d="M357.2,219.5H209.2V310h147.9V219.5z"/>
			<path class="st11" d="M361.6,205.5H204.7v7.4h156.9V205.5z"/>
			<path class="st24" d="M209.6,210.6c0.7,0,1.2-0.6,1.2-1.4c0-0.8-0.6-1.4-1.2-1.4s-1.2,0.6-1.2,1.4
				C208.4,210,209,210.6,209.6,210.6z"/>
			<path class="st24" d="M214.3,210.6c0.7,0,1.2-0.6,1.2-1.4c0-0.8-0.6-1.4-1.2-1.4c-0.7,0-1.2,0.6-1.2,1.4
				C213.1,210,213.6,210.6,214.3,210.6z"/>
			<path class="st24" d="M219,210.6c0.7,0,1.2-0.6,1.2-1.4c0-0.8-0.6-1.4-1.2-1.4c-0.7,0-1.2,0.6-1.2,1.4
				C217.8,210,218.3,210.6,219,210.6z"/>
			<path class="st11" d="M256.4,227h-28.9v34.7h28.9V227z"/>
			<path class="st11" d="M297.7,227h-28.9v34.7h28.9V227z"/>
			<path class="st11" d="M339,227H310v34.7H339V227z"/>
			<path class="st11" d="M256.4,267.9h-28.9v34.7h28.9V267.9z"/>
			<path class="st11" d="M297.7,267.9h-28.9v34.7h28.9V267.9z"/>
			<path class="st11" d="M339,267.9H310v34.7H339V267.9z"/>
			<path class="st5" d="M275.7,276.8l5.3-2.3l0.6,11.5c0,0,1.1,3.5,0.7,4.9c0,0,0.2,2.3-0.4,2.4c-0.6,0.1-2.3,0.4-2.5,0.3
				c-0.1-0.1-0.1-0.5-0.1-0.5s-1.2,1-1.4,2c0,0-5.2,1.8-5.3,0.1c-0.1-1.6,2.6-3,2.6-3l2.1-3.5L275.7,276.8z"/>
			<path class="st5" d="M286.9,276.8l5.3-2.3l0.6,11.5c0,0,1.1,3.5,0.7,4.9c0,0,0.2,2.3-0.4,2.4c-0.6,0.1-2.3,0.4-2.5,0.3
				c-0.1-0.1-0.1-0.5-0.1-0.5s-1.2,1-1.4,2c0,0-5.2,1.8-5.3,0.1c-0.1-1.6,2.6-3,2.6-3l2.1-3.5L286.9,276.8z"/>
			<path class="st5" d="M287.4,232.3c0,0-1.1,3.5,0.2,5l-1.1,4.1c0,0,3.9,12.8,2.8,14.6c0,0-4.1,2.3-12.4-0.8l3.3-14.3l-0.5-6.1
				l0.7-2.8l1.5-0.2c0,0-0.9,3.7,0.7,4.2c1.6,0.6,3.2-4.1,3.2-4.1L287.4,232.3z"/>
			<path class="st5" d="M235.4,254.7l1.4,0.6l6.8-9.8l2.1,11.5l1.4-0.3c0.9-10,1.7-20.1,0.7-24.9l-5.3-0.2l-2.4,8.4l-1.2,5.7
				L235.4,254.7z"/>
			<path class="st5" d="M321.7,231.7c0,0-1.9,3-1.8,4.2c0.1,1.2,1.3,20.8,1.3,20.8l2.9,0.2l-0.9-14.1l0.7-3.8l1.7,17.8l3.5,0.1
				l-3.2-23l-0.6-2H321.7z"/>
			<path class="st5" d="M332.6,279.7c-0.5-0.7-1.4-1.1-2.2-1.3c0-0.1-2.6-0.7-2.6-0.6l-1-0.9l-3,1.7l-1.7-1.3l-0.8,0.3
				c0-0.2-2.4,0.3-2.4,0.3c-0.5,0-1.1,0.1-1.8,0.1c-2.4,0.2-2.6,7-2.6,7c1.1-0.5,2.3-0.8,3.4-0.8l0.6,8.1c3.3-0.3,6.8,0.1,10.3,0.9
				l1.7-6.4l3.9-1.7C334.5,285.4,333.8,281.3,332.6,279.7z"/>
			<path class="st5" d="M248.6,275.8c-0.4-0.6-1.2-0.9-1.9-1c0-0.1-2.1-0.6-2.2-0.5l-0.8-0.7l-2.5,1.4l-1.4-1.1l-0.6,0.3
				c0-0.1-2,0.3-2,0.3c-0.4,0-0.9,0-1.4,0.1c-2,0.2-2.1,5.8-2.1,5.8c0.9-0.4,1.9-0.6,2.8-0.7l0.5,16.4c2.7-0.3,5.6,0,8.5,0.8
				l1.4-14.9l3.2-1.4C250.1,280.5,249.6,277.2,248.6,275.8z"/>
			<path class="st22" d="M353.9,370.1l-19.6,4.4l-0.4,0l-17.2-1.9v-24.1l21.1-3.9l15.3,2l0,0.1v0.1L353.9,370.1z"/>
			<path class="st12" d="M353.9,370.1l-19.6,4.4l-0.4,0v-24.7l19.1-3.2L353.9,370.1z"/>
			<path class="st25" d="M353,346.7L353,346.7l-19.1,3.1l-17.2-1.3l21.1-3.9l15.3,2L353,346.7L353,346.7z"/>
			<path class="st24" d="M330.9,357.8l-11.9-0.9l-0.4,6.2l11.9,0.9L330.9,357.8z"/>
			<path class="st11" d="M328,359.6l-6.3-0.5l-0.1,2.1l6.3,0.5L328,359.6z"/>
			<path class="st11" d="M380.4,370.1l-19.6,4.4l-0.4,0l-17.2-1.9v-24.1l21.1-3.9l15.3,2l0,0.1v0.1L380.4,370.1z"/>
			<path class="st12" d="M380.4,370.1l-19.6,4.4l-0.4,0v-24.7l19.1-3.2L380.4,370.1z"/>
			<path class="st25" d="M379.5,346.7L379.5,346.7l-19.1,3.1l-17.2-1.3l21.1-3.9l15.3,2L379.5,346.7L379.5,346.7z"/>
			<path class="st24" d="M357.4,357.8l-11.9-0.9l-0.4,6.2l11.9,0.9L357.4,357.8z"/>
			<path class="st11" d="M354.5,359.6l-6.3-0.5l-0.1,2.1l6.3,0.5L354.5,359.6z"/>
			<path class="st26" d="M394.6,250c0,0,3.5,9.8-2.9,9.8c-6.3,0,9.8,9.8,16.1,4.1c6.3-5.7,2.6-6,2.6-6s-8.3,1-8.1-7.3L394.6,250z"/>
			<path class="st8" d="M399.1,253c5.6,0,10.2-5,10.2-11.2c0-6.2-4.6-11.2-10.2-11.2s-10.2,5-10.2,11.2
				C388.9,248,393.4,253,399.1,253z"/>
			<path class="st8" d="M392.8,291l-10.9,31.1c0,0-5.5,9.5-3.5,19.1c2,9.5,7.5,26.9,7.5,26.9s4.2,1.2,3.9-3
				c-0.3-4.1,0.2-24.2-4.1-29.6l17.4-22l0.6,25.1c0,0-1.2,11.4-0.9,16.5c0.3,5.1,0.9,13.7,0.9,13.7l3.5-0.6c0,0,4.7-23.4,4.1-31
				c0,0,10.7-37.1-0.2-45.9L392.8,291z"/>
			<path class="st8" d="M387.2,368c0,0-1.4-0.4-1.6,1s-3.1,7.8,0,8.1c3.1,0.3,4.2-2.9,4.7-5.1c0.5-2.2,0.7-2.4,1.1-2.8
				c0.4-0.4,1.5-2.8,0.2-3s-2-1.6-2-1.6S389.2,368.6,387.2,368z"/>
			<path class="st8" d="M406,366.9c0,0-2.6-0.4-2.4,0.6c0.2,1-0.4,5.4,0,5.8c0.4,0.4,1.1,1.2,1.1,1.9c0,0.6,0.2,2.7,3.4,2.1
				c3.2-0.6,2.4-3.7,2.2-4.1c-0.2-0.4-2.4-2.5-2.2-3.7C408.3,368.2,407.1,366.1,406,366.9z"/>
			<path class="st26" d="M399.2,254.2c3.9,0,7-3.5,7-7.8c0-4.3-3.2-7.8-7-7.8s-7,3.5-7,7.8C392.1,250.7,395.3,254.2,399.2,254.2z"/>
			<path class="st9" d="M405.9,257.2c0,0,2.5,5.4-5,5.5c-2.3,0-5-1.8-6.1-4c-0.7-1.3-0.8,0.5-1.9,0.4c-2-0.2-4.2,0.7-6.1,1.8
				c-0.2,0.1-0.4,0.4-0.6,0.7c-0.1,0.3-0.1,0.6,0,0.9c1.5,5.4,5.6,31.1,6.3,32.5c1.6,3.6,19.5-2.4,19.5-2.4c0.2-9.8-3-23.4,2.7-33.3
				c-1.2-1-2.7-1.7-4.2-2.1C409,256.8,407.4,256.8,405.9,257.2z"/>
			<path class="st8" d="M405.8,240.5l-5.2-3l-7.1,1.2l-1.5,7.2l3.7-0.2l1-2.6v2.6l1.7-0.1l1-4.2l0.6,4.5l6-0.1L405.8,240.5z"/>
			<path class="st8" d="M399.6,233.5c2.3,0,4.1-2,4.1-4.5c0-2.5-1.8-4.5-4.1-4.5c-2.3,0-4.1,2-4.1,4.5
				C395.5,231.4,397.3,233.5,399.6,233.5z"/>
			<path class="st8" d="M394.4,227.6c0-1.1,0.4-2.1,1-3c0.6-0.8,1.5-1.4,2.5-1.5c-0.6-0.1-1.2-0.1-1.8,0.1c-0.6,0.2-1.1,0.5-1.5,0.9
				c-0.4,0.4-0.8,1-1.1,1.5c-0.2,0.6-0.4,1.2-0.4,1.9c0,0.7,0.1,1.3,0.4,1.9c0.2,0.6,0.6,1.1,1.1,1.5c0.4,0.4,1,0.7,1.5,0.9
				c0.6,0.2,1.2,0.2,1.8,0.1c-1-0.2-1.9-0.7-2.5-1.5C394.8,229.7,394.4,228.6,394.4,227.6z"/>
			<path class="st22" d="M418.1,335.5l-19.6,4.4l-0.4-0.1l-17.2-1.9v-24.1l21.1-3.9l15.3,2l0,0.1v0L418.1,335.5z"/>
			<path class="st12" d="M418.1,335.5l-19.6,4.4l-0.4-0.1v-24.7l19.1-3.2L418.1,335.5z"/>
			<path class="st25" d="M417.2,312.1L417.2,312.1l-19.1,3.1l-17.2-1.3l21.1-3.9l15.3,2L417.2,312.1L417.2,312.1z"/>
			<path class="st24" d="M395.2,323.1l-11.9-0.9l-0.4,6.2l11.9,0.9L395.2,323.1z"/>
			<path class="st11" d="M392.3,324.9l-6.3-0.5l-0.1,2.1l6.3,0.5L392.3,324.9z"/>
			<path class="st26" d="M387.6,307.7c0,0-7.2,6.4-4,8.6c3.2,2.2,6.9-8.6,6.9-8.6H387.6z"/>
			<path class="st9" d="M387.9,260.6c-0.4-0.5-5.1,2.2-4.4,5.6l0.3,24c0,0-1.7,19.7,2.6,19.7c4.3,0,3.8,0.7,4.4-0.9
				c0.6-1.6,0.7-15,0.7-15L387.9,260.6z"/>
			<path class="st26" d="M410.2,305.5c0,0,3.7,10.8,6.9,8.6c3.2-2.2-4-8.6-4-8.6H410.2z"/>
			<path class="st9" d="M411.1,292.1c0,0-1.8,13.2-1.2,14.8c0.6,1.6,0.1,0.9,4.4,0.9s2.6-19.7,2.6-19.7l0.3-24
				c0.7-3.5-4-6.1-4.4-5.6l-4.1,15.6L411.1,292.1z"/>
		</g>
	</g>
</g>
<g>
	<g>
		<path class="st5" d="M96.5,179c0,5.3,4.9,9.5,10.9,9.5h14.5c6,0,10.9-4.3,10.9-9.5v-19H96.5V179z"/>
		<path class="st27" d="M79.4,125.6c-3.2-1.8-6.2-3.8-8.9-6.1c-2.4,8-11.3,13-20.6,11.6c-9.3-1.4-15.8-8.8-15-17
			c0.8-8.2,8.7-14.5,18.1-14.5c0.6,0,1.1,0.1,1.6,0.1c-3.4-7.1-5.2-14.7-5.2-22.4h-4.6l-2.5,10.4c-0.2,1-1.1,1.9-2.2,2.3
			c-1.1,0.4-2.4,0.3-3.4-0.3l-10-6l-10.9,9.5l6.9,8.8c0.7,0.9,0.8,2,0.4,3c-0.4,1-1.4,1.7-2.6,1.9l-11.9,2.2v12.7l11.9,2.2
			c1.2,0.2,2.2,0.9,2.6,1.9c0.4,1,0.3,2.1-0.4,3l-6.9,8.8l10.9,9.5l10-6c1-0.6,2.3-0.7,3.4-0.3c1.1,0.4,2,1.3,2.2,2.3l2.5,10.4h14.5
			l2.5-10.4c0.2-1,1.1-1.9,2.2-2.3c1.1-0.4,2.4-0.3,3.4,0.3l10,6l11.4-10C87.6,132.5,84.2,128.2,79.4,125.6z"/>
		<path class="st27" d="M179.9,77.5c0-27.4-22.2-50.9-53-56.1c-30.7-5.2-61.3,9.5-73,34.9c-11.6,25.4-0.9,54.5,25.4,69.3
			c6,3.3,9.7,9,9.8,15.2v12.8c0,5.3,4.9,9.5,10.9,9.5h29c6,0,10.9-4.3,10.9-9.5v-12.6c0.1-6.4,3.9-12.3,10-15.6
			C168.7,114.9,179.9,96.9,179.9,77.5L179.9,77.5z"/>
		<path class="st27" d="M210.1,37.7l11.4-7.5L208.5,15L197,22.5c-2.3,1.5-5.5,1.7-8,0.4c-2.5-1.3-3.9-3.8-3.5-6.4l2-12.3L166,1.5
			l-2,12.3c-0.4,2.5-2.5,4.6-5.4,5.3c-2.8,0.6-5.8-0.3-7.6-2.3l-8.6-10L125,18.2l8.5,10c1.8,2.1,1.9,4.8,0.4,7
			c-1.5,2.2-4.4,3.4-7.3,3l-14.1-1.8l-3.1,18.9l14.1,1.8c2.9,0.4,5.3,2.2,6,4.7c0.7,2.5-0.3,5.1-2.7,6.7l-11.4,7.5l13.1,15.2
			l11.4-7.5c2.3-1.5,5.5-1.7,8-0.4c2.5,1.3,3.9,3.8,3.5,6.4l-2,12.3l21.5,2.7l2-12.3c0.4-2.5,2.5-4.6,5.4-5.3
			c2.8-0.6,5.8,0.3,7.6,2.3l8.6,10L212.1,88l-8.6-10c-1.8-2.1-1.9-4.8-0.4-7c1.5-2.2,4.4-3.4,7.3-3l14.1,1.8l3.1-18.9l-14.1-1.8
			c-2.9-0.4-5.3-2.2-6-4.7C206.7,41.9,207.8,39.2,210.1,37.7L210.1,37.7z M168.6,75.3c-14,0-25.4-9.9-25.4-22.2
			c0-12.3,11.4-22.2,25.4-22.2c14,0,25.4,9.9,25.4,22.2C193.9,65.3,182.6,75.3,168.6,75.3z"/>
		<path class="st28" d="M96.5,169.5h36.3v6.3H96.5V169.5z"/>
		<path class="st29" d="M111,144.1h7.3v9.5H111V144.1z"/>
		<path class="st29" d="M118.2,137.8H111c0-8.4-5.9-15.9-14.9-18.9C78.2,112.7,65.8,98.4,64,81.7C62.2,65,71.3,48.8,87.5,39.9
			l3.8,5.4c-13.9,7.7-21.7,21.5-20.1,35.8c1.5,14.3,12.2,26.6,27.5,31.9C110.5,116.9,118.2,126.8,118.2,137.8L118.2,137.8z"/>
		<path class="st29" d="M187.1,121.9h18.1c2,0,3.6,1.4,3.6,3.2c0,1.8-1.6,3.2-3.6,3.2h-18.1c-2,0-3.6-1.4-3.6-3.2
			C183.5,123.3,185.1,121.9,187.1,121.9z"/>
		<path class="st29" d="M179.9,140.9c1.3-1.3,3.6-1.5,5.1-0.4l16.2,11.8c1.5,1.1,1.7,3.1,0.5,4.5c-1.3,1.3-3.6,1.5-5.1,0.4
			l-16.2-11.8C178.8,144.3,178.6,142.3,179.9,140.9L179.9,140.9z"/>
		<path class="st29" d="M165.4,147.3c2,0,3.6,1.4,3.6,3.2v15.9c0,1.8-1.6,3.2-3.6,3.2s-3.6-1.4-3.6-3.2v-15.9
			C161.7,148.7,163.4,147.3,165.4,147.3z"/>
		<path class="st29" d="M12.1,57.7l22-4.8c1.9-0.4,3.9,0.6,4.4,2.3c0.5,1.7-0.7,3.4-2.6,3.8l-22,4.8c-1.9,0.4-3.9-0.6-4.4-2.3
			C8.9,59.9,10.1,58.2,12.1,57.7z"/>
		<path class="st29" d="M16.7,23.5c1.2-1.4,3.4-1.8,5.1-0.7L41.2,35c1.6,1,2,3,0.8,4.4c-1.2,1.4-3.4,1.8-5.1,0.7L17.5,27.9
			C15.9,26.9,15.5,24.9,16.7,23.5L16.7,23.5z"/>
		<path class="st29" d="M49.1,4.5c1.9-0.4,3.9,0.6,4.4,2.3L59.2,26c0.5,1.7-0.7,3.4-2.6,3.9c-1.9,0.4-3.9-0.6-4.4-2.3L46.5,8.3
			C46,6.6,47.2,4.9,49.1,4.5L49.1,4.5z"/>
	</g>
</g>
</svg>
