<svg width="234" height="201" viewBox="0 0 234 201" fill="none" xmlns="http://www.w3.org/2000/svg">
<g filter="url(#filter0_d)">
<path d="M94.7812 183.178C94.7812 188.602 99.8053 193 106.006 193H120.972C127.171 193 132.196 188.602 132.196 183.178V163.534H94.7812V183.178Z" fill="#3F3D56"/>
<path d="M77.1496 128.032C73.8776 126.188 70.792 124.097 67.931 121.786C65.4884 130.005 56.257 135.217 46.6932 133.778C37.1274 132.339 30.4154 124.731 31.2466 116.27C32.0778 107.808 40.1766 101.314 49.8829 101.327C50.4548 101.327 51.0047 101.431 51.5509 101.474C48.0049 94.1794 46.1761 86.3348 46.178 78.4087H41.4152L38.8301 89.1692C38.5725 90.2419 37.7194 91.1308 36.5574 91.5368C35.3937 91.9445 34.0765 91.815 33.0461 91.1931L22.7076 84.9568L11.483 94.7789L18.5916 103.824C19.3022 104.727 19.4502 105.88 18.9843 106.897C18.5203 107.915 17.5045 108.662 16.2805 108.885L4 111.149V124.245L16.2951 126.507C17.5192 126.733 18.5349 127.479 19.0008 128.496C19.4648 129.513 19.3168 130.667 18.6062 131.569L11.483 140.615L22.7076 150.437L33.0461 144.216C34.0765 143.594 35.3955 143.463 36.5593 143.87C37.723 144.276 38.5762 145.167 38.8338 146.239L41.4152 156.986H56.3813L58.9627 146.223C59.2203 145.149 60.0735 144.26 61.2372 143.854C62.401 143.447 63.72 143.576 64.7504 144.2L75.0889 150.437L86.8341 140.16C85.6028 135.142 82.1115 130.769 77.1496 128.032Z" fill="#007F5F"/>
<path d="M180.836 78.4087C180.832 50.1526 157.91 25.8739 126.2 20.5408C94.4907 15.2077 62.9162 30.3181 50.9426 56.56C38.969 82.8018 49.9634 112.788 77.1497 128.032C83.3794 131.412 87.2068 137.341 87.2982 143.755V156.986C87.2982 162.41 92.3222 166.808 98.5227 166.808H128.455C134.654 166.808 139.679 162.41 139.679 156.986V144.027C139.774 137.461 143.679 131.39 150.044 127.911C169.252 117.059 180.849 98.4158 180.836 78.4087V78.4087Z" fill="#007F5F"/>
<path d="M212.014 37.3924L223.778 29.6725L210.308 13.9562L198.544 21.6761C196.124 23.2636 192.848 23.4186 190.245 22.0694C187.641 20.7201 186.224 18.1319 186.649 15.5117L188.726 2.77845L166.502 0L164.425 12.7317C163.999 15.355 161.809 17.494 158.876 18.1511C155.944 18.8097 152.848 17.8569 151.032 15.7371L142.211 5.4434L124.253 17.2303L133.071 27.524C134.885 29.6438 135.063 32.5086 133.521 34.7866C131.979 37.0647 129.021 38.3053 126.027 37.9328L111.475 36.1151L108.298 55.5627L122.853 57.3804C125.85 57.7544 128.294 59.6712 129.045 62.2371C129.796 64.8029 128.707 67.5126 126.284 69.1017L114.524 76.8215L127.994 92.5363L139.754 84.8196C142.175 83.2305 145.452 83.0739 148.057 84.4231C150.661 85.7724 152.08 88.3622 151.653 90.984L149.557 103.714L171.782 106.494L173.877 93.7576C174.305 91.1359 176.495 88.9985 179.427 88.3414C182.36 87.6828 185.456 88.6372 187.27 90.7554L196.094 101.046L214.053 89.259L205.227 78.9685C203.411 76.8503 203.232 73.9823 204.774 71.7027C206.316 69.4246 209.276 68.1824 212.272 68.5581L226.823 70.3774L230 50.9298L215.449 49.1105C212.454 48.7349 210.012 46.8197 209.259 44.2538C208.508 41.6896 209.595 38.9815 212.014 37.3924V37.3924ZM169.151 76.1629C154.686 76.1629 142.96 65.9028 142.96 53.2446C142.96 40.5881 154.686 30.3264 169.151 30.3264C183.617 30.3264 195.342 40.5881 195.342 53.2446C195.342 65.9028 183.617 76.1629 169.151 76.1629Z" fill="#007F5F"/>
<path d="M94.7812 173.356H132.196V179.904H94.7812V173.356Z" fill="#9E9E9E"/>
<path d="M109.747 147.163H117.23V156.986H109.747V147.163Z" fill="#0A6B53"/>
<path d="M117.23 140.615H109.747C109.744 131.959 103.643 124.199 94.4066 121.101C75.9931 114.8 63.2011 99.965 61.334 82.7411C59.4669 65.5172 68.8408 48.8417 85.5717 39.6239L89.5415 45.1632C75.1966 53.0622 67.1564 67.3573 68.7567 82.124C70.3553 96.8892 81.3204 109.608 97.1068 115.008C109.234 119.067 117.239 129.254 117.23 140.615V140.615Z" fill="#0A6B53"/>
<path d="M188.319 124.245H207.027C209.093 124.245 210.768 125.71 210.768 127.519C210.768 129.327 209.093 130.793 207.027 130.793H188.319C186.253 130.793 184.578 129.327 184.578 127.519C184.578 125.71 186.253 124.245 188.319 124.245Z" fill="#0A6B53"/>
<path d="M180.836 143.891C182.159 142.502 184.517 142.313 186.105 143.471L202.807 155.647C204.394 156.805 204.61 158.869 203.287 160.258C201.962 161.647 199.604 161.836 198.016 160.678L181.315 148.502C179.727 147.344 179.513 145.28 180.836 143.891V143.891Z" fill="#0A6B53"/>
<path d="M165.87 150.438C167.936 150.438 169.612 151.902 169.612 153.712V170.082C169.612 171.89 167.936 173.356 165.87 173.356C163.804 173.356 162.129 171.89 162.129 170.082V153.712C162.129 151.902 163.804 150.438 165.87 150.438Z" fill="#0A6B53"/>
<path d="M7.70862 58.0643L30.3806 53.1085C32.3866 52.6704 34.4163 53.7367 34.9168 55.4905C35.4174 57.2442 34.1989 59.0203 32.1929 59.4583L9.52092 64.4141C7.51497 64.8522 5.48527 63.7859 4.98469 62.0321C4.48412 60.2784 5.70267 58.5023 7.70862 58.0643Z" fill="#0A6B53"/>
<path d="M12.4658 22.7517C13.6661 21.281 16.0027 20.9421 17.6835 21.9924L37.7832 34.5562C39.4658 35.6065 39.8549 37.6512 38.6546 39.1219C37.4543 40.5927 35.1177 40.9332 33.437 39.8813L13.3373 27.3175C11.6547 26.2672 11.2655 24.2225 12.4658 22.7517V22.7517Z" fill="#0A6B53"/>
<path d="M45.9751 3.10273C47.9774 2.65511 50.0144 3.71182 50.5259 5.46394L56.3245 25.3112C56.8361 27.0633 55.6285 28.8474 53.6262 29.295C51.6239 29.7426 49.5869 28.6843 49.0753 26.9338L43.2767 7.08657C42.7652 5.33445 43.9728 3.55035 45.9751 3.10273V3.10273Z" fill="#0A6B53"/>
</g>
<defs>
<filter id="filter0_d" x="0" y="0" width="234" height="201" filterUnits="userSpaceOnUse" color-interpolation-filters="sRGB">
<feFlood flood-opacity="0" result="BackgroundImageFix"/>
<feColorMatrix in="SourceAlpha" type="matrix" values="0 0 0 0 0 0 0 0 0 0 0 0 0 0 0 0 0 0 127 0"/>
<feOffset dy="4"/>
<feGaussianBlur stdDeviation="2"/>
<feColorMatrix type="matrix" values="0 0 0 0 0 0 0 0 0 0 0 0 0 0 0 0 0 0 0.25 0"/>
<feBlend mode="normal" in2="BackgroundImageFix" result="effect1_dropShadow"/>
<feBlend mode="normal" in="SourceGraphic" in2="effect1_dropShadow" result="shape"/>
</filter>
</defs>
</svg>
