<svg width="236" height="190" viewBox="0 0 236 190" fill="none" xmlns="http://www.w3.org/2000/svg">
<path d="M119.401 190C183.797 190 236 185.925 236 180.897C236 175.87 183.797 171.795 119.401 171.795C55.0058 171.795 2.80286 175.87 2.80286 180.897C2.80286 185.925 55.0058 190 119.401 190Z" fill="#3F3D56"/>
<path d="M218.445 163.987L219.538 171.995L211.888 172.723L212.981 162.895L218.445 163.987Z" fill="#EFC5CB"/>
<path d="M182.382 54.0558C182.382 54.0558 183.11 63.8841 183.11 64.2481C183.11 64.6121 178.011 89.7289 178.011 89.7289C178.011 89.7289 170.725 103.561 178.011 103.197C185.296 102.833 183.11 90.093 183.11 90.093L190.76 68.9803L187.482 54.0558L182.382 54.0558Z" fill="#A0616A"/>
<path d="M194.403 163.987L193.31 171.995L200.96 172.723L199.867 162.895L194.403 163.987Z" fill="#EFC5CB"/>
<path d="M186.025 89.0008L184.203 91.5489C184.203 91.5489 183.11 102.469 184.203 106.109C185.296 109.75 187.482 126.494 187.482 127.586C187.482 128.678 187.846 129.406 187.482 129.77C187.117 130.134 186.025 130.134 186.753 130.862C187.482 131.59 187.482 133.774 187.482 133.774V135.594L192.217 162.531C192.217 162.531 189.303 165.807 191.489 165.807C193.674 165.807 201.689 165.807 201.324 162.167L200.596 161.803C200.596 161.803 199.503 137.778 199.867 136.686C200.231 135.594 199.867 133.41 199.867 133.41C199.867 133.41 199.139 132.318 199.867 131.954C200.596 131.59 200.596 128.678 200.596 128.678L203.874 106.473C203.874 106.473 206.788 121.398 208.61 122.854C210.431 124.31 210.067 127.95 210.067 127.95L211.524 159.983C211.524 159.983 210.067 163.623 211.524 164.351C212.981 165.079 219.174 167.627 219.538 163.987C219.902 160.347 221.724 128.678 221.724 127.222C221.724 125.766 221.36 125.038 221.724 123.946C222.088 122.854 221.36 122.854 221.724 122.854C222.088 122.854 220.995 121.762 220.995 121.034V103.197C220.995 103.197 221.36 99.5572 221.724 98.8292C222.088 98.1011 221.36 97.3731 221.724 96.2811C222.088 95.189 220.995 91.5489 220.995 91.5489L204.603 87.1808L186.025 89.0008Z" fill="#2F2E41"/>
<path d="M198.774 170.539C198.774 170.539 200.596 168.719 198.046 168.719C196.409 168.753 194.796 169.125 193.31 169.811L191.489 176.364C191.489 176.364 184.021 182.37 192.4 181.642C200.778 180.914 199.503 181.46 199.503 181.46C199.503 181.46 202.053 180.732 202.417 180.004C202.781 179.276 201.689 168.719 201.689 168.719C201.689 168.719 200.596 171.631 198.774 170.539Z" fill="#2F2E41"/>
<path d="M214.438 170.539C214.438 170.539 212.617 168.719 215.167 168.719C216.804 168.753 218.416 169.125 219.902 169.811L221.724 176.364C221.724 176.364 229.192 182.37 220.813 181.642C212.435 180.914 212.617 181.46 212.617 181.46C212.617 181.46 210.067 180.732 209.703 180.004C209.338 179.276 211.524 168.719 211.524 168.719C211.524 168.719 212.617 171.631 214.438 170.539Z" fill="#2F2E41"/>
<path d="M190.76 25.2988C195.991 25.2988 200.232 21.0615 200.232 15.8345C200.232 10.6076 195.991 6.37024 190.76 6.37024C185.529 6.37024 181.289 10.6076 181.289 15.8345C181.289 21.0615 185.529 25.2988 190.76 25.2988Z" fill="#EFC5CB"/>
<path d="M187.482 22.7507C187.482 22.7507 188.939 30.0309 188.939 31.123C188.939 32.215 195.132 35.4911 195.132 35.4911L202.053 26.7548C202.053 26.7548 197.682 20.5666 197.682 19.1106L187.482 22.7507Z" fill="#EFC5CB"/>
<path d="M192.946 32.215C192.946 32.215 189.771 31.3706 188.809 29.9728C188.809 29.9728 178.739 39.8593 178.739 41.6793L186.753 55.8758C186.753 55.8758 186.753 60.9719 187.482 61.336C188.21 61.7 187.482 61.336 187.482 62.792C187.482 64.248 185.296 73.7123 186.025 75.1684C186.753 76.6245 187.482 75.5324 186.753 77.7165C186.025 79.9006 184.203 91.5489 184.203 91.5489C184.203 91.5489 190.76 89.3649 200.231 93.005C209.703 96.6451 220.995 91.5489 220.995 91.5489C220.995 91.5489 218.081 84.9967 218.81 82.8127C219.538 80.6286 216.988 76.6245 216.988 76.6245L215.167 43.1354C215.167 43.1354 217.717 28.2109 215.895 27.4829L212.253 26.0268L200.587 24.5941C200.587 24.5941 197.682 31.851 192.946 32.215Z" fill="#575A89"/>
<path d="M182.382 39.1313L178.739 41.6794C178.739 41.6794 176.918 47.1395 178.739 49.6876C180.561 52.2357 181.289 55.8758 181.289 55.8758L188.575 55.1478L182.382 39.1313Z" fill="#575A89"/>
<path d="M183.529 5.83236L181.886 5.17511C181.886 5.17511 185.321 1.39598 190.101 1.72461L188.756 0.245801C188.756 0.245801 192.042 -1.06867 195.029 2.38183C196.6 4.19569 198.416 6.32778 199.549 8.72955H201.308L200.574 10.3453L203.144 11.961L200.506 11.6708C200.756 13.0656 200.671 14.4999 200.257 15.8553L200.327 17.1323C200.327 17.1323 197.27 12.4047 197.27 11.7475V13.3906C197.27 13.3906 195.627 11.9118 195.627 10.926L194.731 12.0761L194.283 10.2687L188.756 12.0761L189.653 10.5974L186.217 11.0903L187.562 9.28287C187.562 9.28287 183.678 11.4189 183.529 13.2263C183.38 15.0337 181.438 17.3341 181.438 17.3341L180.542 15.691C180.542 15.691 179.198 8.297 183.529 5.83236Z" fill="#2F2E41"/>
<path d="M185.726 79.2157H40.969V180.828H185.726V79.2157Z" fill="#F2F2F2"/>
<path d="M89.5014 117.986H53.1546V181.389H89.5014V117.986Z" fill="#30B0E6"/>
<path d="M69.6686 121.789H59.8777V130.91H69.6686V121.789Z" fill="#F2F2F2"/>
<path d="M82.7783 121.789H72.9875V130.91H82.7783V121.789Z" fill="#F2F2F2"/>
<path d="M69.6686 134.226H59.8777V143.678H69.6686V134.226Z" fill="#F2F2F2"/>
<path d="M82.7783 134.226H72.9875V143.678H82.7783V134.226Z" fill="#F2F2F2"/>
<path d="M84.8793 156.265C86.1556 156.265 87.1903 155.231 87.1903 153.956C87.1903 152.68 86.1556 151.646 84.8793 151.646C83.6029 151.646 82.5682 152.68 82.5682 153.956C82.5682 155.231 83.6029 156.265 84.8793 156.265Z" fill="#3F3D56"/>
<path d="M173.54 111.967H101.687V172.221H173.54V111.967Z" fill="#3F3D56"/>
<path d="M200.853 98.3458H25.842L37.5108 73.967L40.1223 68.5085L43.5387 61.3704L46.1501 55.9119L49.1774 49.5885H187.064L188.852 55.9119L190.396 61.3704L192.415 68.5085L193.96 73.967L200.853 98.3458Z" fill="#30B0E6"/>
<path d="M106.729 136.95H104.208V152.486H106.729V136.95Z" fill="#30B0E6"/>
<path d="M106.729 139.26H104.208V141.149H106.729V139.26Z" fill="#F2F2F2"/>
<path d="M106.729 148.287H104.208V150.177H106.729V148.287Z" fill="#F2F2F2"/>
<path d="M114.083 136.95H107.99V152.486H114.083V136.95Z" fill="#30B0E6"/>
<path d="M114.083 139.26H107.99V141.149H114.083V139.26Z" fill="#F2F2F2"/>
<path d="M114.083 148.287H107.99V150.177H114.083V148.287Z" fill="#F2F2F2"/>
<path d="M118.075 136.95H115.553V152.486H118.075V136.95Z" fill="#30B0E6"/>
<path d="M118.075 139.26H115.553V141.149H118.075V139.26Z" fill="#F2F2F2"/>
<path d="M118.075 148.287H115.553V150.177H118.075V148.287Z" fill="#F2F2F2"/>
<path d="M121.856 136.95H119.335V152.486H121.856V136.95Z" fill="#30B0E6"/>
<path d="M121.856 139.26H119.335V141.149H121.856V139.26Z" fill="#F2F2F2"/>
<path d="M121.856 148.287H119.335V150.177H121.856V148.287Z" fill="#F2F2F2"/>
<path d="M124.286 137.005L121.927 137.894L127.411 152.431L129.77 151.542L124.286 137.005Z" fill="#30B0E6"/>
<path d="M125.101 139.166L122.742 140.055L123.409 141.823L125.768 140.934L125.101 139.166Z" fill="#F2F2F2"/>
<path d="M128.288 147.614L125.928 148.502L126.595 150.27L128.955 149.382L128.288 147.614Z" fill="#F2F2F2"/>
<path d="M171.229 136.95H165.136V152.486H171.229V136.95Z" fill="#30B0E6"/>
<path d="M171.229 139.26H165.136V141.149H171.229V139.26Z" fill="#F2F2F2"/>
<path d="M171.229 148.287H165.136V150.177H171.229V148.287Z" fill="#F2F2F2"/>
<path d="M163.666 136.95H161.144V152.486H163.666V136.95Z" fill="#30B0E6"/>
<path d="M163.666 139.26H161.144V141.149H163.666V139.26Z" fill="#F2F2F2"/>
<path d="M163.666 148.287H161.144V150.177H163.666V148.287Z" fill="#F2F2F2"/>
<path d="M159.884 136.95H157.363V152.486H159.884V136.95Z" fill="#30B0E6"/>
<path d="M159.884 139.26H157.363V141.149H159.884V139.26Z" fill="#F2F2F2"/>
<path d="M159.884 148.287H157.363V150.177H159.884V148.287Z" fill="#F2F2F2"/>
<path d="M154.933 137.005L149.449 151.542L151.808 152.431L157.292 137.894L154.933 137.005Z" fill="#30B0E6"/>
<path d="M154.118 139.166L153.451 140.934L155.81 141.823L156.477 140.055L154.118 139.166Z" fill="#F2F2F2"/>
<path d="M150.932 147.613L150.265 149.381L152.624 150.27L153.291 148.502L150.932 147.613Z" fill="#F2F2F2"/>
<path d="M173.54 152.486H101.687V153.956H173.54V152.486Z" fill="#F2F2F2"/>
<path d="M146.228 136.95H132.991V152.486H146.228V136.95Z" fill="#30B0E6"/>
<path d="M142.971 140.309H136.248V143.249H142.971V140.309Z" fill="#F2F2F2"/>
<path d="M138.244 111.967H136.983V125.403H138.244V111.967Z" fill="#30B0E6"/>
<path d="M137.614 127.503C138.774 127.503 139.715 126.563 139.715 125.403C139.715 124.244 138.774 123.304 137.614 123.304C136.453 123.304 135.513 124.244 135.513 125.403C135.513 126.563 136.453 127.503 137.614 127.503Z" fill="#30B0E6"/>
<path d="M190.396 61.3703H43.5386L46.15 55.9119H188.852L190.396 61.3703Z" fill="#3F3D56"/>
<path d="M193.96 73.9671H37.5108L40.1223 68.5085H192.415L193.96 73.9671Z" fill="#3F3D56"/>
<path d="M209.338 42.4073C209.338 42.4073 207.229 47.8278 207.67 53.1907C207.75 54.1509 208.074 55.0749 208.61 55.8758L182.766 68.1361C182.766 68.1361 171.089 69.3442 174.004 74.4404C176.918 79.5365 187.482 71.8923 187.482 71.8923C187.482 71.8923 215.167 67.8882 217.353 63.884C219.538 59.8799 220.995 43.1354 220.995 43.1354L209.338 42.4073Z" fill="#EFC5CB"/>
<path d="M210.431 27.4828H215.895C215.895 27.4828 219.902 28.2109 220.995 35.4911C222.088 42.7713 223.181 44.5914 222.088 44.5914C220.995 44.5914 207.881 44.2274 207.881 43.8634C207.881 43.4994 210.431 27.4828 210.431 27.4828Z" fill="#575A89"/>
<path d="M28.0285 136.225C43.5082 136.225 56.057 123.685 56.057 108.217C56.057 92.7481 43.5082 80.2085 28.0285 80.2085C12.5488 80.2085 0 92.7481 0 108.217C0 123.685 12.5488 136.225 28.0285 136.225Z" fill="#30B0E6"/>
<path opacity="0.1" d="M28.0285 132.304C41.341 132.304 52.133 121.519 52.133 108.217C52.133 94.9137 41.341 84.1296 28.0285 84.1296C14.7159 84.1296 3.92398 94.9137 3.92398 108.217C3.92398 121.519 14.7159 132.304 28.0285 132.304Z" fill="black"/>
<path d="M26.8735 122.43V118.924C25.1 118.89 23.2654 118.265 22.1952 117.397L22.929 115.071C24.2007 116.024 25.743 116.546 27.3321 116.564C29.5031 116.564 30.9709 115.141 30.9709 113.162C30.9709 111.253 29.7783 110.073 27.5156 109.032C24.3967 107.643 22.4704 106.046 22.4704 103.027C22.4704 100.146 24.2744 97.9588 27.0876 97.4382V93.9324H28.9833V97.2994C30.3969 97.3186 31.7758 97.74 32.9584 98.5142L32.1939 100.805C31.0597 100.029 29.7157 99.6176 28.3412 99.6249C25.9868 99.6249 25.1 101.222 25.1 102.61C25.1 104.415 26.2314 105.317 28.8916 106.567C32.041 108.025 33.6311 109.83 33.6311 112.919C33.6311 115.661 31.9493 118.23 28.7998 118.82V122.43H26.8735Z" fill="#F2F2F2"/>
</svg>
