<svg width="250" height="156" viewBox="0 0 250 156" fill="none" xmlns="http://www.w3.org/2000/svg">
<g filter="url(#filter0_d)">
<path d="M22.5747 133.28H5.61523C3.59229 133.28 1.95312 131.641 1.95312 129.618C1.95312 127.595 3.59229 125.956 5.61523 125.956H18.9126V113.637C18.9126 111.614 20.5518 109.975 22.5747 109.975C24.5977 109.975 26.2368 111.614 26.2368 113.637V129.618C26.2368 131.641 24.5977 133.28 22.5747 133.28Z" fill="#21386B"/>
<path d="M9.39502 60.3271H3.66211C1.63916 60.3271 0 58.6875 0 56.665C0 54.6426 1.63916 53.0029 3.66211 53.0029H9.39502C11.418 53.0029 13.0571 54.6426 13.0571 56.665C13.0571 58.6875 11.418 60.3271 9.39502 60.3271Z" fill="#26457D"/>
<path d="M246.338 76.458C246.338 73.8169 245.35 71.271 243.568 69.3213L236.233 61.2944L182.515 36.8501C180.212 36.8501 178.346 34.9839 178.346 32.6816L156.478 4.06885H9.57324C6.30859 4.06885 3.66259 6.71533 3.66259 9.97949V114.799C3.66259 116.854 5.32861 118.52 7.38378 118.52H239.002C243.054 118.52 246.338 115.236 246.338 111.184L246.338 76.458Z" fill="#30B0E6"/>
<path d="M246.338 111.184V76.458C246.338 73.9819 245.46 71.5962 243.883 69.7002C243.228 68.9126 244.94 70.8486 236.232 61.2944L215.548 51.8823L231.485 69.3213C233.267 71.271 234.255 73.8169 234.255 76.458V111.184C234.255 115.235 230.971 118.52 226.919 118.52H239.002C243.054 118.52 246.338 115.236 246.338 111.184Z" fill="#61A2F9"/>
<path d="M187.094 7.52344C185.083 5.32276 182.239 4.06885 179.258 4.06885H156.479V57.126C156.479 59.4282 158.345 61.2944 160.647 61.2944H236.233L187.094 7.52344Z" fill="#E4F6FF"/>
<path d="M175.012 7.52344L224.15 61.2944H236.233L187.094 7.52344C185.083 5.32276 182.239 4.06885 179.258 4.06885H167.175C170.156 4.06885 173 5.32227 175.012 7.52344Z" fill="#D3EFFB"/>
<path d="M250 99.3652C250 97.3423 248.361 95.7031 246.338 95.7031H134.153V4.06885C134.153 2.04639 132.514 0.406738 130.491 0.406738C128.468 0.406738 126.829 2.04639 126.829 4.06885V95.7031H3.66211C1.63916 95.7031 0 97.3423 0 99.3652C0 101.388 1.63916 103.027 3.66211 103.027H126.829V118.52C126.829 120.543 128.468 122.182 130.491 122.182C132.514 122.182 134.153 120.543 134.153 118.52V103.027H246.338C248.361 103.027 250 101.388 250 99.3652Z" fill="#5986CB"/>
<path d="M202.994 45.2651C201.563 43.835 199.245 43.835 197.815 45.2651C196.385 46.6953 196.385 49.0142 197.815 50.4439L208.666 61.2944H219.024L202.994 45.2651Z" fill="#21386B"/>
<path d="M196.768 55.1534C195.831 55.1534 194.894 54.796 194.178 54.0806C192.748 52.6505 192.748 50.3316 194.179 48.9019L201.452 41.629C202.882 40.1983 205.201 40.1988 206.631 41.629C208.061 43.0591 208.061 45.378 206.63 46.8077L199.357 54.0806C198.643 54.7955 197.705 55.1534 196.768 55.1534Z" fill="#26457D"/>
<path d="M57.2651 69.4507L54.6621 66.7759C54.3286 66.4331 54.3359 65.8848 54.6787 65.5513L73.1885 47.5347C73.2964 47.4297 73.3574 47.2852 73.3574 47.1343C73.3574 46.9834 73.2964 46.8389 73.1885 46.7339L54.6787 28.7168C54.3359 28.3833 54.3286 27.835 54.6621 27.4922L57.2651 24.8179C61.7007 20.2608 68.9907 20.1621 73.5479 24.5977L90.6738 41.2676C91.562 42.1319 92.2847 43.1651 92.7085 44.3296C93.8345 47.4229 92.9951 50.7422 90.77 52.9077L73.5479 69.6709C68.9907 74.1065 61.7007 74.0078 57.2651 69.4507Z" fill="#F9F6F6"/>
<path d="M246.338 88.7031H239.047C237.024 88.7031 235.385 87.064 235.385 85.041C235.385 83.0181 237.024 81.3789 239.047 81.3789H246.338C248.361 81.3789 250 83.0181 250 85.041C250 87.064 248.361 88.7031 246.338 88.7031Z" fill="#DA4A54"/>
<path d="M199.012 147.593C214.207 147.593 226.524 135.276 226.524 120.082C226.524 104.887 214.207 92.5698 199.012 92.5698C183.818 92.5698 171.5 104.887 171.5 120.082C171.5 135.276 183.818 147.593 199.012 147.593Z" fill="#26457D"/>
<path d="M199.012 92.5693C197.454 92.5693 195.929 92.7056 194.441 92.9546C207.458 95.1328 217.382 106.445 217.382 120.082C217.382 133.718 207.458 145.03 194.441 147.209C195.928 147.458 197.454 147.594 199.012 147.594C214.207 147.594 226.524 135.276 226.524 120.082C226.524 104.888 214.207 92.5693 199.012 92.5693Z" fill="#21386B"/>
<path d="M199.012 129.224C204.061 129.224 208.154 125.131 208.154 120.082C208.154 115.033 204.061 110.939 199.012 110.939C193.963 110.939 189.87 115.033 189.87 120.082C189.87 125.131 193.963 129.224 199.012 129.224Z" fill="#F9F6F6"/>
<path d="M199.012 110.939C197.681 110.939 196.42 111.23 195.28 111.741C198.466 113.17 200.689 116.363 200.689 120.081C200.689 123.799 198.466 126.993 195.28 128.421C196.42 128.932 197.681 129.223 199.012 129.223C204.061 129.223 208.154 125.13 208.154 120.081C208.154 115.032 204.061 110.939 199.012 110.939Z" fill="#DDDAEC"/>
<path d="M61.9634 147.593C77.1577 147.593 89.4751 135.276 89.4751 120.082C89.4751 104.887 77.1577 92.5698 61.9634 92.5698C46.7691 92.5698 34.4517 104.887 34.4517 120.082C34.4517 135.276 46.7691 147.593 61.9634 147.593Z" fill="#26457D"/>
<path d="M61.9634 92.5693C60.4053 92.5693 58.8799 92.7056 57.3921 92.9546C70.4097 95.1328 80.333 106.445 80.333 120.082C80.333 133.718 70.4102 145.03 57.3926 147.208C58.8799 147.457 60.4058 147.593 61.9639 147.593C77.1582 147.593 89.4756 135.276 89.4756 120.082C89.4756 104.887 77.1577 92.5693 61.9634 92.5693Z" fill="#21386B"/>
<path d="M61.9634 129.224C67.0124 129.224 71.1055 125.131 71.1055 120.082C71.1055 115.033 67.0124 110.939 61.9634 110.939C56.9143 110.939 52.8213 115.033 52.8213 120.082C52.8213 125.131 56.9143 129.224 61.9634 129.224Z" fill="#F9F6F6"/>
<path d="M61.9634 110.939C60.6323 110.939 59.3716 111.23 58.231 111.741C61.4175 113.17 63.6406 116.363 63.6406 120.081C63.6406 123.799 61.4175 126.993 58.231 128.421C59.3716 128.932 60.6323 129.223 61.9634 129.223C67.0122 129.223 71.1055 125.13 71.1055 120.081C71.1055 115.032 67.0127 110.939 61.9634 110.939Z" fill="#DDDAEC"/>
<path d="M170.83 27.1323C170.375 23.8101 167.536 21.3345 164.183 21.3345H156.478V57.1265C156.478 59.4287 158.344 61.2949 160.646 61.2949H175.509L170.83 27.1323Z" fill="#26457D"/>
</g>
<defs>
<filter id="filter0_d" x="-4" y="0.406738" width="258" height="155.187" filterUnits="userSpaceOnUse" color-interpolation-filters="sRGB">
<feFlood flood-opacity="0" result="BackgroundImageFix"/>
<feColorMatrix in="SourceAlpha" type="matrix" values="0 0 0 0 0 0 0 0 0 0 0 0 0 0 0 0 0 0 127 0"/>
<feOffset dy="4"/>
<feGaussianBlur stdDeviation="2"/>
<feColorMatrix type="matrix" values="0 0 0 0 0 0 0 0 0 0 0 0 0 0 0 0 0 0 0.25 0"/>
<feBlend mode="normal" in2="BackgroundImageFix" result="effect1_dropShadow"/>
<feBlend mode="normal" in="SourceGraphic" in2="effect1_dropShadow" result="shape"/>
</filter>
</defs>
</svg>
