<?xml version="1.0" encoding="utf-8"?>
<!-- Generator: Adobe Illustrator 25.0.1, SVG Export Plug-In . SVG Version: 6.00 Build 0)  -->
<svg version="1.1" id="Layer_1" xmlns="http://www.w3.org/2000/svg" xmlns:xlink="http://www.w3.org/1999/xlink" x="0px" y="0px"
	 viewBox="0 0 236 190" style="enable-background:new 0 0 236 190;" xml:space="preserve">
<style type="text/css">
	.st0{clip-path:url(#SVGID_2_);}
	.st1{fill:#E6E6E6;}
	.st2{fill:#FFFFFF;}
	.st3{fill:#30B0E6;}
	.st4{fill:#3F3D56;}
	.st5{opacity:0.1;enable-background:new    ;}
	.st6{opacity:5.000000e-02;enable-background:new    ;}
	.st7{fill:#FFB8B8;}
	.st8{fill:#2F2E41;}
	.st9{fill:#575A89;}
	.st10{fill:#007F5F;}
	.st11{fill:#9E9E9E;}
	.st12{fill:#0A6B53;}
	.st13{fill:#FF4D73;}
	.st14{fill:#0192FF;}
	.st15{fill:#6C63FF;}
	.st16{fill:#2845A8;}
	.st17{fill:#FFCC36;}
	.st18{fill:#EFC5CB;}
	.st19{fill:#A0616A;}
	.st20{fill:#F2F2F2;}
	.st21{fill:#21386B;}
	.st22{fill:#26457D;}
	.st23{fill:#61A2F9;}
	.st24{fill:#E4F6FF;}
	.st25{fill:#D3EFFB;}
	.st26{fill:#5986CB;}
	.st27{fill:#F9F6F6;}
	.st28{fill:#DA4A54;}
	.st29{fill:#DDDAEC;}
</style>
<g>
	<g>
		<defs>
			<rect id="SVGID_1_" x="466.2" y="303.5" width="210.8" height="169.7"/>
		</defs>
		<clipPath id="SVGID_2_">
			<use xlink:href="#SVGID_1_"  style="overflow:visible;"/>
		</clipPath>
		<g class="st0">
			<path class="st1" d="M621.2,303.6h-155v109.6h155V303.6z"/>
			<path class="st2" d="M616.8,317.3H470.7v89.4h146.1V317.3z"/>
			<path class="st3" d="M621.1,303.5h-155v7.3h155V303.5z"/>
			<path class="st2" d="M471.1,308.6c0.7,0,1.2-0.6,1.2-1.3s-0.5-1.3-1.2-1.3c-0.7,0-1.2,0.6-1.2,1.3S470.4,308.6,471.1,308.6z"/>
			<path class="st2" d="M475.7,308.6c0.7,0,1.2-0.6,1.2-1.3s-0.5-1.3-1.2-1.3c-0.7,0-1.2,0.6-1.2,1.3S475,308.6,475.7,308.6z"/>
			<path class="st2" d="M480.3,308.6c0.7,0,1.2-0.6,1.2-1.3s-0.5-1.3-1.2-1.3c-0.7,0-1.2,0.6-1.2,1.3S479.6,308.6,480.3,308.6z"/>
			<path class="st3" d="M517.2,324.7h-28.6v34.2h28.6V324.7z"/>
			<path class="st3" d="M558,324.7h-28.6v34.2H558V324.7z"/>
			<path class="st3" d="M598.8,324.7h-28.6v34.2h28.6V324.7z"/>
			<path class="st3" d="M517.2,365.1h-28.6v34.2h28.6V365.1z"/>
			<path class="st3" d="M558,365.1h-28.6v34.2H558V365.1z"/>
			<path class="st3" d="M598.8,365.1h-28.6v34.2h28.6V365.1z"/>
			<path class="st4" d="M536.3,373.9l5.2-2.3l0.6,11.4c0,0,1.1,3.5,0.7,4.8c0,0,0.2,2.3-0.4,2.4c-0.6,0.1-2.3,0.4-2.4,0.3
				c-0.1-0.1-0.1-0.5-0.1-0.5s-1.2,0.9-1.3,2c0,0-5.1,1.7-5.2,0.1c-0.1-1.6,2.5-2.9,2.5-2.9l2.1-3.5L536.3,373.9z"/>
			<path class="st4" d="M547.4,373.9l5.2-2.3l0.6,11.4c0,0,1.1,3.5,0.7,4.8c0,0,0.2,2.3-0.4,2.4c-0.6,0.1-2.3,0.4-2.4,0.3
				c-0.1-0.1-0.1-0.5-0.1-0.5s-1.2,0.9-1.3,2c0,0-5.1,1.7-5.2,0.1c-0.1-1.6,2.5-2.9,2.5-2.9l2.1-3.5L547.4,373.9z"/>
			<path class="st4" d="M547.9,329.9c0,0-1.1,3.4,0.2,5L547,339c0,0,3.8,12.6,2.7,14.4c0,0-4.1,2.2-12.2-0.8l3.3-14.2l-0.5-6
				l0.7-2.8l1.5-0.2c0,0-0.9,3.6,0.7,4.2c1.6,0.6,3.2-4.1,3.2-4.1L547.9,329.9z"/>
			<path class="st4" d="M496.6,352.1l1.4,0.6l6.7-9.7l2.1,11.4l1.4-0.3c0.9-9.8,1.6-19.9,0.7-24.6l-5.2-0.2l-2.4,8.3l-1.1,5.6
				L496.6,352.1z"/>
			<path class="st4" d="M581.7,329.4c0,0-1.9,2.9-1.8,4.1c0.1,1.2,1.3,20.5,1.3,20.5l2.8,0.2l-0.8-13.9l0.7-3.8l1.7,17.5l3.5,0.1
				l-3.1-22.7l-0.6-2H581.7z"/>
			<path class="st4" d="M592.5,376.8c-0.5-0.7-1.4-1-2.2-1.2c0-0.1-2.6-0.7-2.6-0.6l-1-0.9l-3,1.7l-1.7-1.3l-0.8,0.3
				c0-0.2-2.4,0.3-2.4,0.3c-0.5,0-1.1,0.1-1.7,0.1c-2.3,0.2-2.5,6.9-2.5,6.9c1.1-0.5,2.2-0.8,3.4-0.8l0.6,8
				c3.3-0.3,6.7,0.1,10.2,0.9l1.7-6.3l3.9-1.7C594.4,382.4,593.7,378.4,592.5,376.8z"/>
			<path class="st4" d="M509.5,372.9c-0.4-0.6-1.1-0.9-1.8-1c0-0.1-2.1-0.6-2.1-0.5l-0.8-0.7l-2.5,1.4l-1.4-1l-0.6,0.3
				c0-0.1-2,0.3-2,0.3c-0.4,0-0.9,0-1.4,0.1c-1.9,0.2-2.1,5.7-2.1,5.7c0.9-0.4,1.8-0.6,2.8-0.6l0.5,16.2c2.7-0.3,5.5,0,8.4,0.8
				l1.4-14.8l3.2-1.4C511.1,377.6,510.5,374.3,509.5,372.9z"/>
			<path class="st1" d="M613.5,466.1l-19.3,4.4l-0.4,0l-17-1.9v-23.8l20.8-3.9l15.1,1.9l0,0.1v0.1L613.5,466.1z"/>
			<path class="st5" d="M613.5,466.1l-19.3,4.4l-0.4,0V446l18.9-3.1L613.5,466.1z"/>
			<path class="st6" d="M612.6,443L612.6,443l-18.9,3.1l-17-1.3l20.8-3.9l15.1,1.9L612.6,443L612.6,443z"/>
			<path class="st2" d="M590.8,453.9l-11.8-0.8l-0.4,6.1l11.8,0.8L590.8,453.9z"/>
			<path class="st3" d="M588,455.7l-6.2-0.4l-0.1,2.1l6.2,0.4L588,455.7z"/>
			<path class="st3" d="M639.7,466.1l-19.3,4.4l-0.4,0l-17-1.9v-23.8l20.8-3.9l15.1,1.9l0,0.1v0.1L639.7,466.1z"/>
			<path class="st5" d="M639.7,466.1l-19.3,4.4l-0.4,0V446l18.9-3.1L639.7,466.1z"/>
			<path class="st6" d="M638.8,443L638.8,443l-18.9,3.1l-17-1.3l20.8-3.9l15.1,1.9L638.8,443L638.8,443z"/>
			<path class="st2" d="M617,453.9l-11.8-0.8l-0.4,6.1l11.8,0.8L617,453.9z"/>
			<path class="st3" d="M614.2,455.7l-6.2-0.4l-0.1,2.1l6.2,0.4L614.2,455.7z"/>
			<path class="st7" d="M653.7,347.5c0,0,3.4,9.7-2.8,9.7c-6.3,0,9.7,9.7,15.9,4.1c6.3-5.6,2.6-6,2.6-6s-8.2,0.9-8-7.2L653.7,347.5z
				"/>
			<path class="st8" d="M658.1,350.4c5.6,0,10.1-5,10.1-11.1c0-6.1-4.5-11.1-10.1-11.1c-5.6,0-10.1,5-10.1,11.1
				C648.1,345.4,652.6,350.4,658.1,350.4z"/>
			<path class="st8" d="M652,387.9l-10.8,30.8c0,0-5.4,9.4-3.4,18.8c2,9.4,7.5,26.5,7.5,26.5s4.1,1.2,3.8-2.9
				c-0.3-4.1,0.2-23.9-4.1-29.2l17.2-21.7l0.6,24.8c0,0-1.1,11.3-0.9,16.3c0.3,5,0.9,13.5,0.9,13.5l3.4-0.6c0,0,4.6-23.1,4-30.6
				c0,0,10.6-36.6-0.2-45.4L652,387.9z"/>
			<path class="st8" d="M646.4,464c0,0-1.4-0.4-1.6,1c-0.2,1.4-3.1,7.7,0,8c3.1,0.3,4.1-2.8,4.6-5.1c0.5-2.2,0.7-2.3,1.1-2.8
				c0.4-0.4,1.4-2.8,0.2-2.9c-1.3-0.2-1.9-1.6-1.9-1.6S648.4,464.6,646.4,464z"/>
			<path class="st8" d="M665,462.9c0,0-2.6-0.4-2.4,0.6c0.2,1-0.4,5.3,0,5.7c0.4,0.4,1.1,1.2,1.1,1.8c0,0.6,0.2,2.6,3.3,2
				c3.1-0.6,2.4-3.7,2.2-4.1c-0.2-0.4-2.4-2.4-2.2-3.7C667.2,464.2,666.1,462.1,665,462.9z"/>
			<path class="st7" d="M658.3,351.6c3.8,0,7-3.4,7-7.7c0-4.2-3.1-7.7-7-7.7c-3.8,0-7,3.4-7,7.7
				C651.3,348.2,654.4,351.6,658.3,351.6z"/>
			<path class="st9" d="M664.9,354.5c0,0,2.4,5.3-4.9,5.5c-2.3,0-4.9-1.8-6-3.9c-0.7-1.3-0.8,0.5-1.9,0.4c-2-0.2-4.1,0.7-6,1.8
				c-0.2,0.1-0.4,0.4-0.5,0.7s-0.1,0.6,0,0.9c1.4,5.3,5.6,30.8,6.2,32.1c1.6,3.5,19.2-2.4,19.2-2.4c0.2-9.6-2.9-23.1,2.6-32.9
				c-1.2-1-2.6-1.7-4.1-2.1S666.4,354.2,664.9,354.5z"/>
			<path class="st8" d="M664.8,338l-5.1-3l-7,1.2l-1.5,7.1l3.6-0.2l1-2.6v2.6l1.7-0.1l1-4.2l0.6,4.4l6-0.1L664.8,338z"/>
			<path class="st8" d="M658.7,331.1c2.2,0,4.1-2,4.1-4.5c0-2.5-1.8-4.5-4.1-4.5s-4.1,2-4.1,4.5
				C654.6,329.1,656.4,331.1,658.7,331.1z"/>
			<path class="st8" d="M653.6,325.3c0-1.1,0.3-2.1,1-2.9c0.6-0.8,1.5-1.3,2.5-1.5c-0.6-0.1-1.2-0.1-1.7,0.1
				c-0.6,0.2-1.1,0.5-1.5,0.9c-0.4,0.4-0.8,0.9-1,1.5c-0.2,0.6-0.4,1.2-0.4,1.9c0,0.6,0.1,1.3,0.4,1.9c0.2,0.6,0.6,1.1,1,1.5
				c0.4,0.4,1,0.7,1.5,0.9c0.6,0.2,1.2,0.2,1.7,0.1c-1-0.2-1.8-0.7-2.5-1.5C653.9,327.4,653.6,326.3,653.6,325.3z"/>
			<path class="st1" d="M677,431.9l-19.3,4.4l-0.4-0.1l-17-1.9v-23.8l20.8-3.9l15.1,1.9l0,0.1v0L677,431.9z"/>
			<path class="st5" d="M677,431.9l-19.3,4.4l-0.4-0.1v-24.4l18.9-3.1L677,431.9z"/>
			<path class="st6" d="M676.1,408.7L676.1,408.7l-18.9,3.1l-17-1.3l20.8-3.9l15.1,1.9L676.1,408.7L676.1,408.7z"/>
			<path class="st2" d="M654.3,419.7l-11.8-0.8l-0.4,6.1l11.8,0.8L654.3,419.7z"/>
			<path class="st3" d="M651.4,421.4l-6.2-0.4l-0.1,2.1l6.2,0.5L651.4,421.4z"/>
			<path class="st7" d="M646.9,404.4c0,0-7.1,6.3-4,8.5c3.1,2.2,6.8-8.5,6.8-8.5H646.9z"/>
			<path class="st9" d="M647.2,357.9c-0.4-0.5-5,2.2-4.3,5.6l0.3,23.7c0,0-1.7,19.5,2.6,19.5s3.8,0.7,4.3-0.9
				c0.6-1.6,0.7-14.9,0.7-14.9L647.2,357.9z"/>
			<path class="st7" d="M669.1,402.3c0,0,3.7,10.7,6.8,8.5c3.1-2.2-4-8.5-4-8.5H669.1z"/>
			<path class="st9" d="M670,389c0,0-1.8,13-1.2,14.6c0.6,1.6,0.1,0.9,4.3,0.9s2.6-19.5,2.6-19.5l0.3-23.7c0.7-3.4-4-6-4.3-5.6
				l-4.1,15.4L670,389z"/>
		</g>
	</g>
</g>
<g>
	<g>
		<path class="st4" d="M-154.7-107.6c0,5.8,5.4,10.5,12,10.5h15.9c6.6,0,12-4.7,12-10.5v-20.9h-39.9V-107.6z"/>
		<path class="st10" d="M-173.5-166.3c-3.5-2-6.8-4.2-9.8-6.7c-2.6,8.8-12.4,14.3-22.6,12.8c-10.2-1.5-17.3-9.6-16.5-18.7
			c0.9-9,9.5-15.9,19.9-15.9c0.6,0,1.2,0.1,1.8,0.2c-3.8-7.8-5.7-16.1-5.7-24.6h-5.1l-2.8,11.5c-0.3,1.1-1.2,2.1-2.4,2.5
			c-1.2,0.4-2.6,0.3-3.7-0.4l-11-6.6l-12,10.5l7.6,9.6c0.8,1,0.9,2.2,0.4,3.3c-0.5,1.1-1.6,1.9-2.9,2.1l-13.1,2.4v14l13.1,2.4
			c1.3,0.2,2.4,1,2.9,2.1c0.5,1.1,0.3,2.3-0.4,3.3l-7.6,9.6l12,10.5l11-6.6c1.1-0.7,2.5-0.8,3.7-0.4c1.2,0.4,2.1,1.4,2.4,2.5
			l2.8,11.5h15.9l2.8-11.5c0.3-1.1,1.2-2.1,2.4-2.5c1.2-0.4,2.6-0.3,3.7,0.4l11,6.6l12.5-11C-164.5-158.8-168.2-163.4-173.5-166.3z"
			/>
		<path class="st10" d="M-63-219.2c0-30.1-24.4-56-58.2-61.7c-33.8-5.7-67.4,10.4-80.2,38.4c-12.8,28-1,59.9,27.9,76.2
			c6.6,3.6,10.7,9.9,10.8,16.8v14.1c0,5.8,5.4,10.5,12,10.5h31.9c6.6,0,12-4.7,12-10.5v-13.8c0.1-7,4.3-13.5,11-17.2
			C-75.3-178-63-197.9-63-219.2L-63-219.2z"/>
		<path class="st10" d="M-29.8-262.9l12.5-8.2l-14.4-16.7l-12.5,8.2c-2.6,1.7-6.1,1.9-8.8,0.4c-2.8-1.4-4.3-4.2-3.8-7l2.2-13.6
			l-23.7-3l-2.2,13.6c-0.5,2.8-2.8,5.1-5.9,5.8c-3.1,0.7-6.4-0.3-8.4-2.6l-9.4-11l-19.1,12.6l9.4,11c1.9,2.3,2.1,5.3,0.5,7.7
			c-1.6,2.4-4.8,3.7-8,3.4l-15.5-1.9l-3.4,20.7l15.5,1.9c3.2,0.4,5.8,2.4,6.6,5.2c0.8,2.7-0.4,5.6-2.9,7.3l-12.5,8.2l14.4,16.7
			l12.5-8.2c2.6-1.7,6.1-1.9,8.8-0.4c2.8,1.4,4.3,4.2,3.8,7l-2.2,13.6l23.7,3l2.2-13.6c0.5-2.8,2.8-5.1,5.9-5.8
			c3.1-0.7,6.4,0.3,8.4,2.6l9.4,11l19.1-12.6l-9.4-11c-1.9-2.3-2.1-5.3-0.5-7.7c1.6-2.4,4.8-3.8,8-3.4l15.5,1.9l3.4-20.7l-15.5-1.9
			c-3.2-0.4-5.8-2.4-6.6-5.2C-33.5-258.3-32.3-261.2-29.8-262.9L-29.8-262.9z M-75.4-221.6c-15.4,0-27.9-10.9-27.9-24.4
			c0-13.5,12.5-24.4,27.9-24.4c15.4,0,27.9,10.9,27.9,24.4C-47.5-232.5-60-221.6-75.4-221.6z"/>
		<path class="st11" d="M-154.7-118h39.9v7h-39.9V-118z"/>
		<path class="st12" d="M-138.7-146h8v10.5h-8V-146z"/>
		<path class="st12" d="M-130.8-152.9h-8c0-9.2-6.5-17.5-16.3-20.8c-19.6-6.7-33.3-22.5-35.2-40.9c-2-18.4,8-36.1,25.8-45.9l4.2,5.9
			c-15.3,8.4-23.9,23.6-22.1,39.4c1.7,15.7,13.4,29.3,30.2,35C-139.3-175.9-130.7-165-130.8-152.9L-130.8-152.9z"/>
		<path class="st12" d="M-55-170.4h19.9c2.2,0,4,1.6,4,3.5c0,1.9-1.8,3.5-4,3.5H-55c-2.2,0-4-1.6-4-3.5
			C-59-168.8-57.2-170.4-55-170.4z"/>
		<path class="st12" d="M-63-149.4c1.4-1.5,3.9-1.7,5.6-0.4l17.8,13c1.7,1.2,1.9,3.4,0.5,4.9c-1.4,1.5-3.9,1.7-5.6,0.4l-17.8-13
			C-64.2-145.8-64.4-148-63-149.4L-63-149.4z"/>
		<path class="st12" d="M-78.9-142.5c2.2,0,4,1.6,4,3.5v17.4c0,1.9-1.8,3.5-4,3.5c-2.2,0-4-1.6-4-3.5V-139
			C-82.9-140.9-81.1-142.5-78.9-142.5z"/>
		<path class="st12" d="M-247.5-240.9l24.2-5.3c2.1-0.5,4.3,0.7,4.8,2.5c0.5,1.9-0.8,3.8-2.9,4.2l-24.2,5.3
			c-2.1,0.5-4.3-0.7-4.8-2.5C-250.9-238.5-249.6-240.4-247.5-240.9z"/>
		<path class="st12" d="M-242.4-278.5c1.3-1.6,3.8-1.9,5.6-0.8l21.4,13.4c1.8,1.1,2.2,3.3,0.9,4.9c-1.3,1.6-3.8,1.9-5.6,0.8
			l-21.4-13.4C-243.3-274.8-243.7-277-242.4-278.5L-242.4-278.5z"/>
		<path class="st12" d="M-206.7-299.5c2.1-0.5,4.3,0.6,4.8,2.5l6.2,21.1c0.5,1.9-0.7,3.8-2.9,4.2s-4.3-0.7-4.8-2.5l-6.2-21.1
			C-210.1-297.1-208.8-299-206.7-299.5L-206.7-299.5z"/>
	</g>
</g>
<g>
	<path class="st3" d="M609.9-152.2h-55c-1.8,0-3.3,1.7-3.3,3.7v27.8c0,2.1,1.5,3.7,3.3,3.7h55c1.8,0,3.3-1.7,3.3-3.7v-27.8
		C613.3-150.5,611.8-152.2,609.9-152.2z"/>
	<path class="st1" d="M717.9-141.8h-19.8c-0.8,0-1.4,0.7-1.4,1.6v22.1c0,0.9,0.6,1.6,1.4,1.6h19.8c0.8,0,1.4-0.7,1.4-1.6v-22.1
		C719.4-141.1,718.7-141.8,717.9-141.8z"/>
	<path class="st1" d="M686.1-141.8h-19.8c-0.8,0-1.4,0.7-1.4,1.6v22.1c0,0.9,0.6,1.6,1.4,1.6h19.8c0.8,0,1.4-0.7,1.4-1.6v-22.1
		C687.6-141.1,686.9-141.8,686.1-141.8z"/>
	<path class="st1" d="M654.3-141.8h-19.8c-0.8,0-1.4,0.7-1.4,1.6v22.1c0,0.9,0.6,1.6,1.4,1.6h19.8c0.8,0,1.4-0.7,1.4-1.6v-22.1
		C655.8-141.1,655.1-141.8,654.3-141.8z"/>
	<path class="st1" d="M686.1-174.9h-19.8c-0.8,0-1.4,0.7-1.4,1.6v22.1c0,0.9,0.6,1.6,1.4,1.6h19.8c0.8,0,1.4-0.7,1.4-1.6v-22.1
		C687.6-174.2,686.9-174.9,686.1-174.9z"/>
	<path class="st1" d="M654.3-174.9h-19.8c-0.8,0-1.4,0.7-1.4,1.6v22.1c0,0.9,0.6,1.6,1.4,1.6h19.8c0.8,0,1.4-0.7,1.4-1.6v-22.1
		C655.8-174.2,655.1-174.9,654.3-174.9z"/>
	<path class="st3" d="M591.3-189.2h-17.9c-1.1,0-1.9,1-1.9,2.1v25.2c0,1.2,0.9,2.1,1.9,2.1h17.9c1.1,0,1.9-1,1.9-2.1v-25.2
		C593.3-188.3,592.4-189.2,591.3-189.2z"/>
	<path class="st3" d="M591.3-206.6h-6.1v-23.2c0-1.8-1.3-3.2-2.9-3.2c-1.6,0-2.9,1.4-2.9,3.2v23.2h-6.1c-1.1,0-1.9,1-1.9,2.1v5.6
		c0,1.2,0.9,2.1,1.9,2.1h17.9c1.1,0,1.9-1,1.9-2.1v-5.6C593.3-205.7,592.4-206.6,591.3-206.6z"/>
	<path class="st3" d="M771.4-115.3c-0.2-0.4-0.6-0.7-1-0.7h-38.1c-0.4,0-0.7,0.2-0.9,0.5l-5.1,7.2H540.6c-0.4,0-0.8,0.2-1,0.6
		c-0.2,0.4-0.3,0.8-0.1,1.2c0,0,16.2,44.6,21.6,59.4c0.2,0.5,0.6,0.8,1.1,0.8h170.7c0.4,0,0.8-0.2,1.1-0.6
		c9.3-16.8,37.3-67.2,37.3-67.2C771.6-114.3,771.6-114.8,771.4-115.3z M695.2-81.9c-2.6,0-4.7-2.3-4.7-5.2c0-2.9,2.1-5.2,4.7-5.2
		s4.7,2.3,4.7,5.2C699.9-84.3,697.8-81.9,695.2-81.9z M717.9-81.9c-2.6,0-4.7-2.3-4.7-5.2c0-2.9,2.1-5.2,4.7-5.2
		c2.6,0,4.7,2.3,4.7,5.2C722.6-84.3,720.5-81.9,717.9-81.9z"/>
</g>
<rect x="58.8" y="-57.3" class="st13" width="24.1" height="16.5"/>
<rect x="100.9" y="-57.3" class="st14" width="24.1" height="16.5"/>
<rect x="158.4" y="-55.4" class="st15" width="24.1" height="16.5"/>
<rect x="226.9" y="-52.7" class="st16" width="24.1" height="16.5"/>
<rect x="277.1" y="-38.9" class="st17" width="24.1" height="16.5"/>
<rect class="st14" width="236" height="190.9"/>
<g>
	<path class="st4" d="M-243.2,216c59.9,0,108.5-3.8,108.5-8.5c0-4.7-48.6-8.5-108.5-8.5c-59.9,0-108.5,3.8-108.5,8.5
		C-351.7,212.2-303.1,216-243.2,216z"/>
	<path class="st18" d="M-151.1,191.8l1,7.4l-7.1,0.7l1-9.1L-151.1,191.8z"/>
	<path class="st19" d="M-184.6,89.5c0,0,0.7,9.1,0.7,9.5s-4.7,23.7-4.7,23.7s-6.8,12.9,0,12.5c6.8-0.3,4.7-12.2,4.7-12.2l7.1-19.6
		l-3-13.9H-184.6z"/>
	<path class="st18" d="M-173.4,191.8l-1,7.4l7.1,0.7l-1-9.1L-173.4,191.8z"/>
	<path class="st8" d="M-181.2,122l-1.7,2.4c0,0-1,10.2,0,13.5c1,3.4,3.1,19,3.1,20c0,1,0.3,1.7,0,2c-0.3,0.3-1.4,0.3-0.7,1
		c0.7,0.7,0.7,2.7,0.7,2.7v1.7l4.4,25.1c0,0-2.7,3-0.7,3c2,0,9.5,0,9.1-3.4l-0.7-0.3c0,0-1-22.3-0.7-23.4c0.3-1,0-3,0-3
		s-0.7-1,0-1.4c0.7-0.3,0.7-3,0.7-3l3-20.7c0,0,2.7,13.9,4.4,15.2c1.7,1.4,1.4,4.7,1.4,4.7l1.4,29.8c0,0-1.4,3.4,0,4.1
		c1.4,0.7,7.1,3,7.5-0.3s2-32.8,2-34.2c0-1.4-0.3-2,0-3c0.3-1-0.3-1,0-1s-0.7-1-0.7-1.7v-16.6c0,0,0.3-3.4,0.7-4.1
		c0.3-0.7-0.3-1.4,0-2.4c0.3-1-0.7-4.4-0.7-4.4l-15.2-4.1L-181.2,122z"/>
	<path class="st8" d="M-169.4,197.8c0,0,1.7-1.7-0.7-1.7c-1.5,0-3,0.4-4.4,1l-1.7,6.1c0,0-6.9,5.6,0.8,4.9c7.8-0.7,6.6-0.2,6.6-0.2
		s2.4-0.7,2.7-1.4c0.3-0.7-0.7-10.5-0.7-10.5S-167.7,198.9-169.4,197.8z"/>
	<path class="st8" d="M-154.8,197.8c0,0-1.7-1.7,0.7-1.7c1.5,0,3,0.4,4.4,1l1.7,6.1c0,0,6.9,5.6-0.8,4.9c-7.8-0.7-7.6-0.2-7.6-0.2
		s-2.4-0.7-2.7-1.4c-0.3-0.7,1.7-10.5,1.7-10.5S-156.5,198.9-154.8,197.8z"/>
	<path class="st18" d="M-176.8,62.7c4.9,0,8.8-3.9,8.8-8.8c0-4.9-3.9-8.8-8.8-8.8s-8.8,3.9-8.8,8.8
		C-185.6,58.8-181.7,62.7-176.8,62.7z"/>
	<path class="st18" d="M-179.9,60.4c0,0,1.4,6.8,1.4,7.8c0,1,5.8,4.1,5.8,4.1l6.4-8.1c0,0-4.1-5.8-4.1-7.1L-179.9,60.4z"/>
	<path class="st9" d="M-174.8,69.2c0,0-3-0.8-3.8-2.1c0,0-9.4,9.2-9.4,10.9l7.5,13.2c0,0,0,4.7,0.7,5.1c0.7,0.3,0,0,0,1.4
		s-2,10.2-1.4,11.5c0.7,1.4,1.4,0.3,0.7,2.4c-0.7,2-2.4,12.9-2.4,12.9s6.1-2,14.9,1.4c8.8,3.4,19.3-1.4,19.3-1.4s-2.7-6.1-2-8.1
		c0.7-2-1.7-5.8-1.7-5.8l-1.7-31.2c0,0,2.4-13.9,0.7-14.6l-3.4-1.4l-10.9-1.3C-167.7,62.1-170.4,68.8-174.8,69.2z"/>
	<path class="st9" d="M-184.6,75.6L-188,78c0,0-1.7,5.1,0,7.4c1.7,2.4,2.4,5.8,2.4,5.8l6.8-0.7L-184.6,75.6z"/>
	<path class="st8" d="M-183.6,44.6l-1.5-0.6c0,0,3.2-3.5,7.6-3.2l-1.3-1.4c0,0,3.1-1.2,5.8,2c1.5,1.7,3.2,3.7,4.2,5.9h1.6l-0.7,1.5
		l2.4,1.5l-2.5-0.3c0.2,1.3,0.2,2.6-0.2,3.9l0.1,1.2c0,0-2.8-4.4-2.8-5v1.5c0,0-1.5-1.4-1.5-2.3l-0.8,1.1l-0.4-1.7l-5.1,1.7l0.8-1.4
		l-3.2,0.5l1.3-1.7c0,0-3.6,2-3.8,3.7c-0.1,1.7-1.9,3.8-1.9,3.8l-0.8-1.5C-186.3,53.8-187.6,46.9-183.6,44.6z"/>
	<path class="st20" d="M-181.5,112.9h-134.7v94.5h134.7V112.9z"/>
	<path class="st3" d="M-271,149h-33.8v59h33.8V149z"/>
	<path class="st20" d="M-289.5,152.5h-9.1v8.5h9.1V152.5z"/>
	<path class="st20" d="M-277.3,152.5h-9.1v8.5h9.1V152.5z"/>
	<path class="st20" d="M-289.5,164.1h-9.1v8.8h9.1V164.1z"/>
	<path class="st20" d="M-277.3,164.1h-9.1v8.8h9.1V164.1z"/>
	<path class="st4" d="M-275.3,184.6c1.2,0,2.1-1,2.1-2.1c0-1.2-1-2.1-2.1-2.1c-1.2,0-2.1,1-2.1,2.1
		C-277.5,183.6-276.5,184.6-275.3,184.6z"/>
	<path class="st4" d="M-192.9,143.4h-66.8v56.1h66.8V143.4z"/>
	<path class="st3" d="M-167.4,130.7h-162.8l10.9-22.7l2.4-5.1l3.2-6.6l2.4-5.1l2.8-5.9h128.3l1.7,5.9l1.4,5.1l1.9,6.6l1.4,5.1
		L-167.4,130.7z"/>
	<path class="st3" d="M-255,166.6h-2.3v14.5h2.3V166.6z"/>
	<path class="st20" d="M-255,168.8h-2.3v1.8h2.3V168.8z"/>
	<path class="st20" d="M-255,177.1h-2.3v1.8h2.3V177.1z"/>
	<path class="st3" d="M-248.2,166.6h-5.7v14.5h5.7V166.6z"/>
	<path class="st20" d="M-248.2,168.8h-5.7v1.8h5.7V168.8z"/>
	<path class="st20" d="M-248.2,177.1h-5.7v1.8h5.7V177.1z"/>
	<path class="st3" d="M-244.4,166.6h-2.3v14.5h2.3V166.6z"/>
	<path class="st20" d="M-244.4,168.8h-2.3v1.8h2.3V168.8z"/>
	<path class="st20" d="M-244.4,177.1h-2.3v1.8h2.3V177.1z"/>
	<path class="st3" d="M-240.9,166.6h-2.3v14.5h2.3V166.6z"/>
	<path class="st20" d="M-240.9,168.8h-2.3v1.8h2.3V168.8z"/>
	<path class="st20" d="M-240.9,177.1h-2.3v1.8h2.3V177.1z"/>
	<path class="st3" d="M-238.7,166.7l-2.2,0.8l5.1,13.5l2.2-0.8L-238.7,166.7z"/>
	<path class="st20" d="M-237.9,168.7l-2.2,0.8l0.6,1.6l2.2-0.8L-237.9,168.7z"/>
	<path class="st20" d="M-234.9,176.5l-2.2,0.8l0.6,1.6l2.2-0.8L-234.9,176.5z"/>
	<path class="st3" d="M-195,166.6h-5.7v14.5h5.7V166.6z"/>
	<path class="st20" d="M-195,168.8h-5.7v1.8h5.7V168.8z"/>
	<path class="st20" d="M-195,177.1h-5.7v1.8h5.7V177.1z"/>
	<path class="st3" d="M-202,166.6h-2.3v14.5h2.3V166.6z"/>
	<path class="st20" d="M-202,168.8h-2.3v1.8h2.3V168.8z"/>
	<path class="st20" d="M-202,177.1h-2.3v1.8h2.3V177.1z"/>
	<path class="st3" d="M-205.6,166.6h-2.3v14.5h2.3V166.6z"/>
	<path class="st20" d="M-205.6,168.8h-2.3v1.8h2.3V168.8z"/>
	<path class="st20" d="M-205.6,177.1h-2.3v1.8h2.3V177.1z"/>
	<path class="st3" d="M-210.2,166.7l-5.1,13.5l2.2,0.8l5.1-13.5L-210.2,166.7z"/>
	<path class="st20" d="M-210.9,168.7l-0.6,1.6l2.2,0.8l0.6-1.6L-210.9,168.7z"/>
	<path class="st20" d="M-213.9,176.5l-0.6,1.6l2.2,0.8l0.6-1.6L-213.9,176.5z"/>
	<path class="st20" d="M-192.9,181.1h-66.8v1.4h66.8V181.1z"/>
	<path class="st3" d="M-218.3,166.6h-12.3v14.5h12.3V166.6z"/>
	<path class="st20" d="M-221.3,169.7h-6.3v2.7h6.3V169.7z"/>
	<path class="st3" d="M-225.7,143.4h-1.2v12.5h1.2V143.4z"/>
	<path class="st3" d="M-226.3,157.8c1.1,0,2-0.9,2-2c0-1.1-0.9-2-2-2c-1.1,0-2,0.9-2,2C-228.2,156.9-227.4,157.8-226.3,157.8z"/>
	<path class="st4" d="M-177.2,96.3h-136.6l2.4-5.1h132.7L-177.2,96.3z"/>
	<path class="st4" d="M-173.9,108h-145.5l2.4-5.1h141.7L-173.9,108z"/>
	<path class="st18" d="M-159.6,78.7c0,0-2,5-1.6,10c0.1,0.9,0.4,1.8,0.9,2.5l-24,11.4c0,0-10.9,1.1-8.2,5.9
		c2.7,4.7,12.5-2.4,12.5-2.4s25.8-3.7,27.8-7.4c2-3.7,3.4-19.3,3.4-19.3L-159.6,78.7z"/>
	<path class="st9" d="M-158.5,64.8h5.1c0,0,3.7,0.7,4.7,7.4c1,6.8,2,8.5,1,8.5c-1,0-13.2-0.3-13.2-0.7
		C-160.9,79.7-158.5,64.8-158.5,64.8z"/>
	<path class="st3" d="M-328.2,165.9c14.4,0,26.1-11.7,26.1-26.1c0-14.4-11.7-26.1-26.1-26.1c-14.4,0-26.1,11.7-26.1,26.1
		C-354.3,154.3-342.6,165.9-328.2,165.9z"/>
	<path class="st5" d="M-328.2,162.3c12.4,0,22.4-10,22.4-22.4c0-12.4-10-22.4-22.4-22.4c-12.4,0-22.4,10-22.4,22.4
		C-350.6,152.2-340.6,162.3-328.2,162.3z"/>
	<path class="st20" d="M-329.3,153.1v-3.3c-1.6,0-3.4-0.6-4.4-1.4l0.7-2.2c1.2,0.9,2.6,1.4,4.1,1.4c2,0,3.4-1.3,3.4-3.2
		c0-1.8-1.1-2.9-3.2-3.8c-2.9-1.3-4.7-2.8-4.7-5.6c0-2.7,1.7-4.7,4.3-5.2v-3.3h1.8v3.1c1.3,0,2.6,0.4,3.7,1.1l-0.7,2.1
		c-1.1-0.7-2.3-1.1-3.6-1.1c-2.2,0-3,1.5-3,2.8c0,1.7,1.1,2.5,3.5,3.7c2.9,1.4,4.4,3,4.4,5.9c0,2.6-1.6,4.9-4.5,5.5v3.4H-329.3z"/>
</g>
<g>
	<g>
		<path class="st21" d="M26.8,147.8H11.7c-1.8,0-3.3-1.5-3.3-3.3c0-1.8,1.5-3.3,3.3-3.3h11.8v-11c0-1.8,1.5-3.3,3.3-3.3
			c1.8,0,3.3,1.5,3.3,3.3v14.2C30.1,146.3,28.6,147.8,26.8,147.8z"/>
		<path class="st22" d="M15.1,82.8H10c-1.8,0-3.3-1.5-3.3-3.3c0-1.8,1.5-3.3,3.3-3.3h5.1c1.8,0,3.3,1.5,3.3,3.3
			C18.3,81.4,16.9,82.8,15.1,82.8z"/>
		<path class="st3" d="M226,97.2c0-2.4-0.9-4.6-2.5-6.4l-6.5-7.1l-47.8-21.8c-2.1,0-3.7-1.7-3.7-3.7L146,32.7H15.2
			c-2.9,0-5.3,2.4-5.3,5.3v93.3c0,1.8,1.5,3.3,3.3,3.3h206.2c3.6,0,6.5-2.9,6.5-6.5V97.2z"/>
		<path class="st23" d="M226,128.1V97.2c0-2.2-0.8-4.3-2.2-6c-0.6-0.7,0.9,1-6.8-7.5l-18.4-8.4l14.2,15.5c1.6,1.7,2.5,4,2.5,6.4
			v30.9c0,3.6-2.9,6.5-6.5,6.5h10.8C223.1,134.6,226,131.7,226,128.1z"/>
		<path class="st24" d="M173.3,35.8c-1.8-2-4.3-3.1-7-3.1H146V80c0,2,1.7,3.7,3.7,3.7H217L173.3,35.8z"/>
		<path class="st25" d="M162.5,35.8l43.7,47.9H217l-43.7-47.9c-1.8-2-4.3-3.1-7-3.1h-10.8C158.2,32.7,160.7,33.9,162.5,35.8z"/>
		<path class="st26" d="M229.3,117.6c0-1.8-1.5-3.3-3.3-3.3h-99.9V32.7c0-1.8-1.5-3.3-3.3-3.3c-1.8,0-3.3,1.5-3.3,3.3v81.6H10
			c-1.8,0-3.3,1.5-3.3,3.3c0,1.8,1.5,3.3,3.3,3.3h109.7v13.8c0,1.8,1.5,3.3,3.3,3.3c1.8,0,3.3-1.5,3.3-3.3v-13.8H226
			C227.8,120.8,229.3,119.4,229.3,117.6z"/>
		<path class="st21" d="M187.4,69.4c-1.3-1.3-3.3-1.3-4.6,0c-1.3,1.3-1.3,3.3,0,4.6l9.7,9.7h9.2L187.4,69.4z"/>
		<path class="st22" d="M181.9,78.2c-0.8,0-1.7-0.3-2.3-1c-1.3-1.3-1.3-3.3,0-4.6l6.5-6.5c1.3-1.3,3.3-1.3,4.6,0
			c1.3,1.3,1.3,3.3,0,4.6l-6.5,6.5C183.6,77.9,182.7,78.2,181.9,78.2z"/>
		<path class="st27" d="M57.7,90.9l-2.3-2.4c-0.3-0.3-0.3-0.8,0-1.1l16.5-16c0.1-0.1,0.2-0.2,0.2-0.4c0-0.1-0.1-0.3-0.2-0.4
			l-16.5-16c-0.3-0.3-0.3-0.8,0-1.1l2.3-2.4c3.9-4.1,10.4-4.1,14.5-0.2l15.2,14.8c0.8,0.8,1.4,1.7,1.8,2.7c1,2.8,0.3,5.7-1.7,7.6
			L72.2,91.1C68.1,95.1,61.6,95,57.7,90.9z"/>
		<path class="st28" d="M226,108.1h-6.5c-1.8,0-3.3-1.5-3.3-3.3c0-1.8,1.5-3.3,3.3-3.3h6.5c1.8,0,3.3,1.5,3.3,3.3
			C229.3,106.6,227.8,108.1,226,108.1z"/>
		<path class="st22" d="M183.9,160.5c13.5,0,24.5-11,24.5-24.5c0-13.5-11-24.5-24.5-24.5c-13.5,0-24.5,11-24.5,24.5
			C159.4,149.6,170.4,160.5,183.9,160.5z"/>
		<path class="st21" d="M183.9,111.5c-1.4,0-2.7,0.1-4.1,0.3c11.6,1.9,20.4,12,20.4,24.2c0,12.1-8.8,22.2-20.4,24.2
			c1.3,0.2,2.7,0.3,4.1,0.3c13.5,0,24.5-11,24.5-24.5S197.4,111.5,183.9,111.5z"/>
		<path class="st27" d="M183.9,144.2c4.5,0,8.1-3.6,8.1-8.1c0-4.5-3.6-8.1-8.1-8.1s-8.1,3.6-8.1,8.1
			C175.8,140.5,179.4,144.2,183.9,144.2z"/>
		<path class="st29" d="M183.9,127.9c-1.2,0-2.3,0.3-3.3,0.7c2.8,1.3,4.8,4.1,4.8,7.4c0,3.3-2,6.2-4.8,7.4c1,0.5,2.1,0.7,3.3,0.7
			c4.5,0,8.1-3.6,8.1-8.1C192,131.5,188.4,127.9,183.9,127.9z"/>
		<path class="st22" d="M61.9,160.5c13.5,0,24.5-11,24.5-24.5c0-13.5-11-24.5-24.5-24.5s-24.5,11-24.5,24.5
			C37.4,149.6,48.3,160.5,61.9,160.5z"/>
		<path class="st21" d="M61.9,111.5c-1.4,0-2.7,0.1-4.1,0.3c11.6,1.9,20.4,12,20.4,24.2c0,12.1-8.8,22.2-20.4,24.2
			c1.3,0.2,2.7,0.3,4.1,0.3c13.5,0,24.5-11,24.5-24.5C86.4,122.5,75.4,111.5,61.9,111.5z"/>
		<path class="st27" d="M61.9,144.2c4.5,0,8.1-3.6,8.1-8.1c0-4.5-3.6-8.1-8.1-8.1c-4.5,0-8.1,3.6-8.1,8.1
			C53.7,140.5,57.4,144.2,61.9,144.2z"/>
		<path class="st29" d="M61.9,127.9c-1.2,0-2.3,0.3-3.3,0.7c2.8,1.3,4.8,4.1,4.8,7.4c0,3.3-2,6.2-4.8,7.4c1,0.5,2.1,0.7,3.3,0.7
			c4.5,0,8.1-3.6,8.1-8.1C70,131.5,66.4,127.9,61.9,127.9z"/>
		<path class="st22" d="M158.8,53.3c-0.4-3-2.9-5.2-5.9-5.2H146V80c0,2,1.7,3.7,3.7,3.7H163L158.8,53.3z"/>
	</g>
</g>
</svg>
