<svg width="232" height="191" viewBox="0 0 232 191" fill="none" xmlns="http://www.w3.org/2000/svg">
<path d="M71.6668 82.2935H15.7605C13.8802 82.2935 12.3553 83.9914 12.3553 86.0863V114.404C12.3553 116.499 13.8802 118.198 15.7605 118.198H71.6668C73.5476 118.198 75.0724 116.499 75.0724 114.404V86.0863C75.0724 83.9914 73.5476 82.2935 71.6668 82.2935Z" fill="#30B0E6"/>
<path d="M181.519 92.8721H161.356C160.551 92.8721 159.897 93.6001 159.897 94.4981V116.956C159.897 117.853 160.551 118.581 161.356 118.581H181.519C182.324 118.581 182.977 117.853 182.977 116.956V94.4981C182.977 93.6001 182.324 92.8721 181.519 92.8721Z" fill="#E6E6E6"/>
<path d="M149.175 92.8721H129.014C128.206 92.8721 127.554 93.6001 127.554 94.4981V116.956C127.554 117.853 128.206 118.581 129.014 118.581H149.175C149.982 118.581 150.636 117.853 150.636 116.956V94.4981C150.636 93.6001 149.982 92.8721 149.175 92.8721Z" fill="#E6E6E6"/>
<path d="M116.832 92.8721H96.6706C95.8639 92.8721 95.2108 93.6001 95.2108 94.4981V116.956C95.2108 117.853 95.8639 118.581 96.6706 118.581H116.832C117.637 118.581 118.291 117.853 118.291 116.956V94.4981C118.291 93.6001 117.637 92.8721 116.832 92.8721Z" fill="#E6E6E6"/>
<path d="M149.175 59.1862H129.014C128.206 59.1862 127.554 59.9141 127.554 60.8117V83.2692C127.554 84.1667 128.206 84.8947 129.014 84.8947H149.175C149.982 84.8947 150.636 84.1667 150.636 83.2692V60.8117C150.636 59.9141 149.982 59.1862 149.175 59.1862Z" fill="#E6E6E6"/>
<path d="M116.832 59.1862H96.6706C95.8639 59.1862 95.2108 59.9141 95.2108 60.8117V83.2692C95.2108 84.1667 95.8639 84.8947 96.6706 84.8947H116.832C117.637 84.8947 118.291 84.1667 118.291 83.2692V60.8117C118.291 59.9141 117.637 59.1862 116.832 59.1862Z" fill="#E6E6E6"/>
<path d="M52.7998 44.6304H34.6279C33.5533 44.6304 32.6821 45.6014 32.6821 46.7982V72.4703C32.6821 73.6672 33.5533 74.6382 34.6279 74.6382H52.7998C53.8748 74.6382 54.7456 73.6677 54.7456 72.4703V46.7982C54.7456 45.6014 53.8743 44.6304 52.7998 44.6304Z" fill="#30B0E6"/>
<path d="M52.7998 26.9537H46.6325V3.40712C46.6325 1.61156 45.3254 0.156128 43.7134 0.156128C42.1009 0.156128 40.7942 1.61156 40.7942 3.40712V26.9537H34.6279C33.5533 26.9537 32.6821 27.9242 32.6821 29.1216V34.8081C32.6821 36.0045 33.5533 36.9755 34.6279 36.9755H52.7998C53.8748 36.9755 54.7456 36.0045 54.7456 34.8081V29.1216C54.7456 27.9242 53.8743 26.9537 52.7998 26.9537Z" fill="#30B0E6"/>
<path d="M235.846 119.85C235.632 119.421 235.226 119.155 234.784 119.155H195.998C195.625 119.155 195.271 119.347 195.041 119.675L189.898 127.004H1.21615C0.811576 127.004 0.434458 127.229 0.20761 127.603C-0.0182752 127.976 -0.0635486 128.451 0.0881653 128.868C0.0881653 128.868 16.5633 174.203 22.065 189.311C22.2514 189.822 22.6974 190.156 23.1925 190.156H196.742C197.164 190.156 197.592 189.994 197.857 189.515C207.315 172.42 235.817 121.223 235.817 121.223C236.05 120.805 236.061 120.28 235.846 119.85ZM158.371 153.763C155.734 153.763 153.595 151.381 153.595 148.444C153.595 145.506 155.734 143.125 158.371 143.125C161.008 143.125 163.146 145.506 163.146 148.444C163.146 151.381 161.009 153.763 158.371 153.763ZM181.519 153.763C178.88 153.763 176.743 151.381 176.743 148.444C176.743 145.506 178.88 143.125 181.519 143.125C184.155 143.125 186.293 145.506 186.293 148.444C186.293 151.381 184.155 153.763 181.519 153.763Z" fill="#30B0E6"/>
</svg>
