<svg width="88" height="29" viewBox="0 0 88 29" fill="none" xmlns="http://www.w3.org/2000/svg">
<path d="M88 29H0L18.9499 10.2606C32.7844 -3.42019 55.2111 -3.42019 69.05 10.2606L88 29Z" fill="#6C63FF"/>
<path d="M54.6225 21.4388C54.188 21.4388 53.7488 21.2732 53.4184 20.9464L44.0022 11.6349L34.5861 20.9464C33.9206 21.6045 32.8387 21.6045 32.1732 20.9464C31.5078 20.2883 31.5078 19.2184 32.1732 18.5603L42.7935 8.05799C43.115 7.74014 43.545 7.56555 43.9977 7.56555C44.4504 7.56555 44.885 7.74462 45.2019 8.05799L55.8222 18.5603C56.4877 19.2184 56.4877 20.2838 55.8222 20.9464C55.4917 21.2732 55.0571 21.4388 54.6225 21.4388Z" fill="white"/>
</svg>
