<svg width="564" height="544" viewBox="0 0 564 544" fill="none" xmlns="http://www.w3.org/2000/svg">
<g clip-path="url(#clip0)">
<path d="M201.909 544C195.158 544 189.635 538.477 189.635 531.727V380.769C189.635 330.45 148.823 289.642 98.4988 289.642C91.748 289.642 86.2246 284.119 86.2246 277.369C86.2246 270.619 91.748 265.096 98.4988 265.096C162.325 265.096 214.183 316.95 214.183 380.769V531.727C214.183 538.477 208.967 544 201.909 544Z" fill="#30B0E6"/>
<path d="M361.784 544C355.033 544 349.51 538.477 349.51 531.727V380.769C349.51 316.95 401.368 265.096 465.194 265.096C471.945 265.096 477.468 270.619 477.468 277.369C477.468 284.119 471.945 289.642 465.194 289.642C414.87 289.642 374.058 330.45 374.058 380.769V531.727C374.058 538.477 368.535 544 361.784 544Z" fill="#30B0E6"/>
<path d="M282.001 544C275.25 544 269.727 538.477 269.727 531.727V129.173C269.727 122.423 275.25 116.9 282.001 116.9C288.752 116.9 294.275 122.423 294.275 129.173V531.42C294.275 538.477 288.752 544 282.001 544Z" fill="#30B0E6"/>
<path d="M277.091 2.76142L209.583 119.355C207.435 123.037 210.197 127.639 214.186 127.639H348.895C353.191 127.639 355.646 123.037 353.498 119.355L285.99 2.76142C284.456 -0.920474 279.239 -0.920474 277.091 2.76142Z" fill="#30B0E6"/>
<path d="M2.7617 281.972L90.5223 332.598C94.2046 334.745 98.8074 331.984 98.8074 327.995V226.743C98.8074 222.448 94.2046 219.993 90.5223 222.141L2.7617 272.46C-0.920566 274.608 -0.920566 279.824 2.7617 281.972Z" fill="#30B0E6"/>
<path d="M561.237 281.972L473.476 332.598C469.794 334.745 465.191 331.984 465.191 327.995V226.743C465.191 222.448 469.794 219.993 473.476 222.141L561.237 272.767C564.919 274.608 564.919 279.824 561.237 281.972Z" fill="#30B0E6"/>
</g>
<defs>
<clipPath id="clip0">
<rect width="564" height="544" fill="white"/>
</clipPath>
</defs>
</svg>
