<svg width="564" height="478" viewBox="0 0 564 478" fill="none" xmlns="http://www.w3.org/2000/svg">
<g clip-path="url(#clip0)">
<path d="M531.654 387.456H32.3462C14.7028 387.456 0 373.052 0 355.119V32.337C0 14.6986 14.4088 0 32.3462 0H531.948C549.591 0 564.294 14.4047 564.294 32.337V355.413C564 373.052 549.591 387.456 531.654 387.456ZM32.3462 23.5178C27.6413 23.5178 23.5245 27.3395 23.5245 32.337V355.413C23.5245 360.117 27.3472 364.232 32.3462 364.232H531.948C536.653 364.232 540.77 360.411 540.77 355.413V32.337C540.77 27.6335 536.947 23.5178 531.948 23.5178H32.3462Z" fill="#30B0E6"/>
<path d="M325.225 478C318.755 478 313.462 472.708 313.462 466.241V418.911C313.462 401.567 299.348 387.456 281.998 387.456C264.649 387.456 250.534 401.567 250.534 418.911V466.241C250.534 472.708 245.241 478 238.772 478C232.303 478 227.01 472.708 227.01 466.241V418.911C227.01 388.632 251.711 363.938 281.998 363.938C312.286 363.938 336.987 388.632 336.987 418.911V466.241C336.987 472.708 331.694 478 325.225 478Z" fill="#30B0E6"/>
<path d="M441.967 478H122.034C115.564 478 110.271 472.709 110.271 466.241C110.271 459.774 115.564 454.482 122.034 454.482H441.967C448.436 454.482 453.729 459.774 453.729 466.241C453.729 472.709 448.436 478 441.967 478Z" fill="#30B0E6"/>
</g>
<defs>
<clipPath id="clip0">
<rect width="564" height="478" fill="white"/>
</clipPath>
</defs>
</svg>
