<svg width="445" height="544" viewBox="0 0 445 544" fill="none" xmlns="http://www.w3.org/2000/svg">
<path d="M370.628 197.902C366.019 193.299 358.336 193.299 353.418 197.902C348.809 202.504 348.809 210.175 353.418 215.084L398.287 259.88H264.296V192.379C264.296 122.73 210.514 65.6605 141.982 59.8308C136.45 26.0801 106.948 0 71.6057 0C31.9613 0 0 31.9098 0 71.4901C0 110.764 31.9613 142.98 71.6057 142.98C106.64 142.98 136.143 117.514 141.982 84.0699C196.992 89.5928 240.017 135.923 240.017 192.379V259.88H141.982C136.143 226.13 106.948 200.663 71.6057 200.663C31.9613 200.663 0 232.573 0 271.847C0 311.12 31.9613 343.337 71.6057 343.337C106.948 343.337 136.45 317.563 141.982 284.12H240.017V351.621C240.017 408.077 196.992 454.407 141.982 459.93C135.836 426.486 106.64 401.02 71.6057 401.02C31.9613 401.02 0 433.236 0 472.51C0 511.783 31.9613 544 71.6057 544C107.255 544 136.758 517.92 142.289 484.169C210.514 478.34 264.296 421.27 264.296 351.621V284.12H398.595L353.726 328.916C349.116 333.518 349.116 341.189 353.726 346.098C356.184 348.553 359.258 349.78 362.331 349.78C365.404 349.78 368.477 348.553 370.936 346.098L445 272.153L370.628 197.902ZM71.6057 118.741C45.4834 118.741 24.2783 97.5702 24.2783 71.4901C24.2783 45.41 45.4834 24.2391 71.6057 24.2391C97.7279 24.2391 118.933 45.41 118.933 71.4901C118.933 97.5702 97.7279 118.741 71.6057 118.741ZM71.6057 319.098C45.4834 319.098 24.2783 297.927 24.2783 271.847C24.2783 245.766 45.4834 224.596 71.6057 224.596C97.7279 224.596 118.933 245.766 118.933 271.847C118.933 297.927 97.7279 319.098 71.6057 319.098ZM71.6057 519.761C45.4834 519.761 24.2783 498.59 24.2783 472.51C24.2783 446.43 45.4834 425.259 71.6057 425.259C97.7279 425.259 118.933 446.43 118.933 472.51C118.933 498.59 97.7279 519.761 71.6057 519.761Z" fill="#30B0E6"/>
</svg>
