<svg width="400" height="400" viewBox="0 0 400 400" fill="none" xmlns="http://www.w3.org/2000/svg">
<path d="M200.001 0C89.5447 0 0 89.9191 0 200.837C0 300.318 72.1044 382.705 166.645 398.658V242.737H118.399V186.628H166.645V145.255C166.645 97.2502 195.843 71.0905 238.494 71.0905C258.921 71.0905 276.476 72.619 281.572 73.2922V123.47L251.991 123.484C228.8 123.484 224.329 134.548 224.329 150.789V186.599H279.664L272.447 242.709H224.329V400C323.284 387.906 400 303.421 400 200.78C400 89.9191 310.455 0 200.001 0Z" fill="#30B0E6"/>
</svg>
