<svg width="400" height="400" viewBox="0 0 400 400" fill="none" xmlns="http://www.w3.org/2000/svg">
<path d="M238.281 200C238.281 221.143 221.143 238.281 200 238.281C178.857 238.281 161.719 221.143 161.719 200C161.719 178.857 178.857 161.719 200 161.719C221.143 161.719 238.281 178.857 238.281 200Z" fill="#30B0E6"/>
<path d="M289.526 132.269C287.686 127.283 284.75 122.769 280.936 119.064C277.231 115.25 272.72 112.314 267.731 110.474C263.684 108.902 257.605 107.031 246.408 106.521C234.296 105.969 230.664 105.85 200 105.85C169.333 105.85 165.701 105.966 153.592 106.518C142.395 107.031 136.313 108.902 132.269 110.474C127.28 112.314 122.766 115.25 119.064 119.064C115.25 122.769 112.314 127.28 110.471 132.269C108.899 136.316 107.028 142.398 106.519 153.595C105.966 165.704 105.847 169.336 105.847 200.003C105.847 230.667 105.966 234.299 106.519 246.411C107.028 257.608 108.899 263.687 110.471 267.734C112.314 272.723 115.247 277.234 119.061 280.939C122.766 284.753 127.277 287.689 132.266 289.529C136.313 291.104 142.395 292.975 153.592 293.484C165.701 294.037 169.33 294.153 199.997 294.153C230.667 294.153 234.299 294.037 246.405 293.484C257.602 292.975 263.684 291.104 267.731 289.529C277.747 285.666 285.663 277.75 289.526 267.734C291.098 263.687 292.969 257.608 293.481 246.411C294.034 234.299 294.15 230.667 294.15 200.003C294.15 169.336 294.034 165.704 293.481 153.595C292.972 142.398 291.101 136.316 289.526 132.269V132.269ZM200 258.972C167.429 258.972 141.025 232.571 141.025 200C141.025 167.428 167.429 141.028 200 141.028C232.568 141.028 258.972 167.428 258.972 200C258.972 232.571 232.568 258.972 200 258.972ZM261.304 152.478C253.693 152.478 247.522 146.307 247.522 138.696C247.522 131.085 253.693 124.914 261.304 124.914C268.915 124.914 275.085 131.085 275.085 138.696C275.082 146.307 268.915 152.478 261.304 152.478Z" fill="#30B0E6"/>
<path d="M200 0C89.5599 0 0 89.5599 0 200C0 310.44 89.5599 400 200 400C310.44 400 400 310.44 400 200C400 89.5599 310.44 0 200 0ZM314.151 247.348C313.596 259.573 311.652 267.92 308.813 275.226C302.847 290.652 290.652 302.847 275.226 308.813C267.923 311.652 259.573 313.593 247.351 314.151C235.104 314.709 231.192 314.844 200.003 314.844C168.811 314.844 164.902 314.709 152.652 314.151C140.43 313.593 132.08 311.652 124.777 308.813C117.111 305.93 110.172 301.41 104.434 295.566C98.5931 289.832 94.0735 282.889 91.1896 275.226C88.3514 267.923 86.4075 259.573 85.8521 247.351C85.2875 235.101 85.1562 231.189 85.1562 200C85.1562 168.811 85.2875 164.899 85.849 152.652C86.4044 140.427 88.3453 132.08 91.1835 124.774C94.0674 117.111 98.5901 110.168 104.434 104.434C110.168 98.5901 117.111 94.0704 124.774 91.1865C132.08 88.3484 140.427 86.4075 152.652 85.849C164.899 85.2905 168.811 85.1562 200 85.1562C231.189 85.1562 235.101 85.2905 247.348 85.8521C259.573 86.4075 267.92 88.3484 275.226 91.1835C282.889 94.0674 289.832 98.5901 295.569 104.434C301.41 110.172 305.933 117.111 308.813 124.774C311.655 132.08 313.596 140.427 314.154 152.652C314.713 164.899 314.844 168.811 314.844 200C314.844 231.189 314.713 235.101 314.151 247.348V247.348Z" fill="#30B0E6"/>
</svg>
