<svg width="400" height="400" viewBox="0 0 400 400" fill="none" xmlns="http://www.w3.org/2000/svg">
<path d="M200 0C89.5599 0 0 89.5599 0 200C0 310.44 89.5599 400 200 400C310.44 400 400 310.44 400 200C400 89.5599 310.44 0 200 0ZM291.318 155.939C291.406 157.907 291.449 159.885 291.449 161.871C291.449 222.531 245.276 292.48 160.837 292.484H160.84H160.837C134.912 292.484 110.788 284.885 90.4724 271.863C94.0643 272.287 97.7203 272.498 101.422 272.498C122.931 272.498 142.725 265.161 158.438 252.847C138.342 252.475 121.399 239.203 115.552 220.963C118.35 221.5 121.228 221.793 124.179 221.793C128.369 221.793 132.428 221.228 136.285 220.175C115.28 215.97 99.4568 197.406 99.4568 175.177C99.4568 174.969 99.4568 174.783 99.4629 174.591C105.649 178.03 112.723 180.099 120.255 180.331C107.928 172.107 99.826 158.047 99.826 142.12C99.826 133.71 102.1 125.83 106.042 119.046C128.68 146.823 162.512 165.091 200.665 167.01C199.878 163.647 199.472 160.144 199.472 156.543C199.472 131.201 220.032 110.641 245.383 110.641C258.588 110.641 270.514 116.223 278.891 125.146C289.349 123.083 299.17 119.263 308.041 114.005C304.608 124.719 297.333 133.71 287.854 139.395C297.141 138.284 305.991 135.822 314.215 132.166C308.072 141.373 300.281 149.46 291.318 155.939V155.939Z" fill="#30B0E6"/>
</svg>
