<?xml version="1.0" encoding="utf-8"?>
<!-- Generator: Adobe Illustrator 25.0.1, SVG Export Plug-In . SVG Version: 6.00 Build 0)  -->
<svg version="1.1" id="Layer_1" xmlns="http://www.w3.org/2000/svg" xmlns:xlink="http://www.w3.org/1999/xlink" x="0px" y="0px"
	 viewBox="0 0 512 512" style="enable-background:new 0 0 512 512;" xml:space="preserve">
<style type="text/css">
	.st0{fill:url(#SVGID_1_);}
	.st1{fill:url(#SVGID_2_);}
</style>
<g>
	<linearGradient id="SVGID_1_" gradientUnits="userSpaceOnUse" x1="82.7842" y1="-21.4559" x2="414.1448" y2="634.7038">
		<stop  offset="0" style="stop-color:#00EEFF"/>
		<stop  offset="1" style="stop-color:#0073E5"/>
	</linearGradient>
	<path class="st0" d="M427.27,312.59C427.27,422.72,338,512,227.84,512c-30.42,0-59.29-6.81-85.08-19.01
		c2.28,0.11,4.58,0.14,6.89,0.14c92.04,0,166.66-74.61,166.66-166.63c0-32.26-9.17-62.4-25.06-87.91c-1.04-1.68-2.11-3.33-3.21-4.96
		c-0.06-0.1-0.13-0.2-0.2-0.31c-4.13-7.4-6.47-15.93-6.47-25.02c0-28.41,23.03-51.41,51.41-51.41c14.22,0,27.06,5.75,36.36,15.04
		C405.09,207.94,427.27,257.7,427.27,312.59z"/>
	<linearGradient id="SVGID_2_" gradientUnits="userSpaceOnUse" x1="135.5257" y1="-48.0904" x2="466.8863" y2="608.0693">
		<stop  offset="0" style="stop-color:#00EEFF"/>
		<stop  offset="1" style="stop-color:#0073E5"/>
	</linearGradient>
	<path class="st1" d="M142.85,340.08c-35.95-36.02-58.11-85.78-58.11-140.67C84.73,89.3,173.99,0,284.14,0
		c30.43,0,59.3,6.82,85.09,19.01c-2.27-0.1-4.57-0.14-6.89-0.14c-92.04,0-166.66,74.63-166.66,166.63c0,32.26,9.16,62.4,25.06,87.91
		c1.05,1.69,2.11,3.34,3.21,4.96c0.06,0.11,0.14,0.2,0.2,0.31c4.13,7.41,6.48,15.94,6.48,25.04c0,28.41-23.03,51.41-51.41,51.41
		C164.99,355.13,152.14,349.38,142.85,340.08z"/>
</g>
</svg>
