<svg width="180" height="57" viewBox="0 0 180 57" fill="none" xmlns="http://www.w3.org/2000/svg">
<path d="M31.4626 19.1399C30.4338 18.1046 29.0129 17.465 27.4399 17.465C24.3006 17.465 21.7529 20.0255 21.7529 23.188C21.7529 24.2007 22.0121 25.1509 22.4696 25.9753C22.4775 25.9866 22.4854 25.998 22.4921 26.0093C22.6138 26.1896 22.7321 26.3733 22.8459 26.5615C24.606 29.4021 25.619 32.7563 25.619 36.3486C25.619 46.5915 17.364 54.8988 7.18225 54.8988C6.92759 54.8988 6.67181 54.8954 6.42053 54.8829C9.2736 56.2403 12.4658 56.9989 15.8338 56.9989C28.0202 56.9989 37.8944 47.0587 37.8944 34.7985C37.8933 28.6888 35.4391 23.1495 31.4626 19.1399Z" fill="#30B0E6"/>
<path d="M10.4534 39.535C13.5926 39.535 16.1403 36.9745 16.1403 33.812C16.1403 32.7994 15.8812 31.8491 15.4237 31.0247C15.4158 31.0134 15.4079 31.002 15.4011 30.9907C15.2794 30.8104 15.1611 30.6267 15.0473 30.4385C13.2873 27.5979 12.2743 24.2437 12.2743 20.6514C12.2743 10.4085 20.5292 2.1012 30.711 2.1012C30.9657 2.1012 31.2215 2.1046 31.4727 2.11707C28.6197 0.758609 25.4274 0 22.0605 0C9.87417 0 0 9.94016 0 22.2004C0 28.3112 2.45305 33.8505 6.43066 37.8601C7.45831 38.8943 8.87921 39.535 10.4534 39.535Z" fill="#30B0E6"/>
<path d="M60.0237 21.2048C60.5645 20.9655 61.2418 20.8453 62.0531 20.8453C62.897 20.8453 63.5934 20.9836 64.1399 21.2615C64.6864 21.5393 65.0954 21.9259 65.3658 22.4215C65.6363 22.917 65.7715 23.4863 65.7715 24.1292H70.8534C70.8534 22.68 70.4939 21.4032 69.7739 20.2976C69.0539 19.192 68.0386 18.3291 66.7293 17.7077C65.4199 17.0863 63.8875 16.7767 62.1342 16.7767C60.4237 16.7767 58.9059 17.0545 57.5797 17.6102C56.2534 18.1658 55.2111 18.9414 54.4539 19.9381C53.6967 20.9349 53.317 22.1028 53.317 23.4432C53.317 24.4887 53.5277 25.4038 53.9502 26.1884C54.3728 26.9731 54.9508 27.6592 55.6878 28.2477C56.4236 28.8362 57.2709 29.351 58.2287 29.7921C59.1865 30.2332 60.1961 30.6278 61.2564 30.9771C62.5117 31.3797 63.4616 31.7584 64.1061 32.1122C64.7495 32.466 65.1856 32.839 65.4132 33.2314C65.6408 33.6237 65.7546 34.0864 65.7546 34.6205C65.7546 35.1001 65.6306 35.5333 65.3816 35.92C65.1326 36.3066 64.7506 36.6117 64.2368 36.8351C63.723 37.0584 63.0593 37.1696 62.248 37.1696C61.555 37.1696 60.9296 37.1015 60.373 36.9655C59.8152 36.8294 59.3397 36.6083 58.9442 36.3032C58.5487 35.9982 58.2456 35.6036 58.0349 35.1183C57.8242 34.6341 57.7182 34.0376 57.7182 33.3289H52.6037C52.6037 34.6908 52.8798 35.8667 53.4319 36.8577C53.984 37.8488 54.7232 38.6687 55.6483 39.3173C56.5734 39.9659 57.6078 40.4444 58.7493 40.7551C59.8907 41.0658 61.057 41.2212 62.248 41.2212C63.9911 41.2212 65.5056 40.9592 66.7946 40.4365C68.0826 39.9137 69.0809 39.1562 69.7908 38.1652C70.4996 37.1741 70.8545 35.9812 70.8545 34.5865C70.8545 33.2688 70.5593 32.1269 69.97 31.1631C69.3795 30.1992 68.5006 29.3635 67.331 28.6548C66.1625 27.9472 64.7168 27.3315 62.9962 26.8087C62.0215 26.5037 61.1944 26.1907 60.5116 25.8687C59.8287 25.5466 59.3104 25.1962 58.9532 24.8152C58.596 24.4342 58.4169 23.9875 58.4169 23.4749C58.4169 22.9851 58.5487 22.544 58.8146 22.1516C59.0794 21.7593 59.4828 21.444 60.0237 21.2048Z" fill="#F7F7F7"/>
<path d="M92.2479 23.2141H86.3537L82.002 28.4427L81.1738 29.5177V15.78H76.2699V40.8934H81.1738V35.5991L82.8155 33.948L87.1323 40.8934H92.7674L85.9649 30.5643L92.2479 23.2141Z" fill="#F7F7F7"/>
<path d="M105.279 22.8875C104.197 22.8875 103.277 23.2277 102.519 23.9092C102.085 24.2993 101.719 24.7835 101.406 25.3437L101.252 23.2153H96.6414V40.8946H101.545V29.4588C101.568 29.41 101.586 29.3556 101.611 29.3079C101.881 28.7852 102.292 28.3906 102.844 28.123C103.397 27.8554 104.1 27.7227 104.955 27.7227C105.215 27.7227 105.507 27.7363 105.832 27.7635C106.156 27.7907 106.438 27.8202 106.676 27.8531L106.741 23.0985C106.567 23.0225 106.343 22.9681 106.067 22.9352C105.79 22.9034 105.528 22.8875 105.279 22.8875Z" fill="#F7F7F7"/>
<path d="M114.073 16.1224C113.239 16.1224 112.573 16.3594 112.076 16.8334C111.578 17.3074 111.329 17.914 111.329 18.6556C111.329 19.3859 111.578 19.9903 112.076 20.4688C112.574 20.9485 113.239 21.1877 114.073 21.1877C114.907 21.1877 115.569 20.9485 116.062 20.4688C116.554 19.9892 116.801 19.3848 116.801 18.6556C116.801 17.9152 116.554 17.3074 116.062 16.8334C115.569 16.3594 114.907 16.1224 114.073 16.1224Z" fill="#F7F7F7"/>
<path d="M116.541 23.2141H111.621V40.8934H116.541V23.2141Z" fill="#F7F7F7"/>
<path d="M127.949 15.7959H123.029V40.8935H127.949V15.7959Z" fill="#F7F7F7"/>
<path d="M139.356 15.7959H134.437V40.8935H139.356V15.7959Z" fill="#F7F7F7"/>
<path d="M159.923 36.5312V29.1458C159.923 27.751 159.614 26.591 158.998 25.6657C158.381 24.7404 157.536 24.0453 156.464 23.5826C155.393 23.12 154.175 22.8887 152.811 22.8887C151.285 22.8887 149.959 23.1449 148.834 23.6564C147.708 24.1678 146.837 24.8515 146.22 25.7065C145.602 26.5615 145.295 27.5118 145.295 28.5573H150.198C150.198 28.1218 150.29 27.7544 150.474 27.4539C150.658 27.1546 150.929 26.9232 151.286 26.76C151.643 26.5967 152.065 26.515 152.552 26.515C153.407 26.515 154.029 26.7498 154.419 27.2181C154.809 27.6864 155.004 28.318 155.004 29.114V30.0779H153.023C150.328 30.0779 148.299 30.587 146.934 31.6053C145.571 32.6236 144.888 34.0592 144.888 35.9109C144.888 36.9462 145.153 37.8635 145.683 38.6641C146.214 39.4647 146.934 40.0906 147.842 40.5431C148.752 40.9955 149.758 41.2212 150.862 41.2212C151.717 41.2212 152.461 41.0964 153.094 40.8458C153.728 40.5952 154.266 40.2686 154.71 39.865C154.898 39.6937 155.07 39.5157 155.23 39.3331C155.342 39.9432 155.497 40.4671 155.701 40.8946H160.637V40.6168C160.409 40.1598 160.234 39.6257 160.11 39.0156C159.985 38.4044 159.923 37.5767 159.923 36.5312ZM153.712 37.0777C153.219 37.3442 152.632 37.478 151.951 37.478C151.29 37.478 150.765 37.2977 150.375 36.9382C149.985 36.5788 149.79 36.1218 149.79 35.5662C149.79 34.8359 150.055 34.2122 150.586 33.6952C151.117 33.1781 151.976 32.9195 153.167 32.9195H155.002V35.8678C154.957 35.9483 154.907 36.03 154.848 36.1139C154.583 36.4903 154.204 36.8112 153.712 37.0777Z" fill="#F7F7F7"/>
<path d="M171.606 36.9235L179.757 26.0898V23.2141H178.052H176.445H165.598V27.1841H173.449L165.339 37.9361V40.8934H166.637H168.618H180V36.9235H171.606Z" fill="#F7F7F7"/>
</svg>
