<svg width="128" height="105" viewBox="0 0 128 105" fill="none" xmlns="http://www.w3.org/2000/svg">
<path d="M75.4627 19.1399C74.434 18.1046 73.0131 17.465 71.44 17.465C68.3008 17.465 65.7531 20.0255 65.7531 23.188C65.7531 24.2007 66.0122 25.1509 66.4697 25.9753C66.4776 25.9866 66.4855 25.998 66.4922 26.0093C66.6139 26.1896 66.7323 26.3733 66.8461 26.5615C68.6061 29.4021 69.6191 32.7563 69.6191 36.3486C69.6191 46.5915 61.3642 54.8988 51.1824 54.8988C50.9277 54.8988 50.6719 54.8954 50.4207 54.8829C53.2737 56.2403 56.466 56.9989 59.834 56.9989C72.0203 56.9989 81.8945 47.0587 81.8945 34.7985C81.8934 28.6888 79.4392 23.1495 75.4627 19.1399Z" fill="#30B0E6"/>
<path d="M54.4534 39.535C57.5926 39.535 60.1403 36.9745 60.1403 33.812C60.1403 32.7993 59.8812 31.8491 59.4237 31.0247C59.4158 31.0134 59.4079 31.002 59.4011 30.9907C59.2794 30.8104 59.1611 30.6267 59.0473 30.4385C57.2873 27.5979 56.2743 24.2437 56.2743 20.6514C56.2743 10.4085 64.5292 2.1012 74.711 2.1012C74.9657 2.1012 75.2215 2.1046 75.4727 2.11707C72.6197 0.758609 69.4274 0 66.0605 0C53.8742 0 44 9.94016 44 22.2004C44 28.3112 46.4531 33.8505 50.4307 37.8601C51.4583 38.8943 52.8792 39.535 54.4534 39.535Z" fill="#30B0E6"/>
<path d="M7.41999 84.2047C7.96085 83.9655 8.63806 83.8453 9.44936 83.8453C10.2933 83.8453 10.9897 83.9836 11.5362 84.2614C12.0827 84.5392 12.4917 84.9259 12.7621 85.4215C13.0326 85.917 13.1678 86.4862 13.1678 87.1292H18.2497C18.2497 85.68 17.8902 84.4032 17.1702 83.2976C16.4502 82.192 15.4349 81.329 14.1256 80.7076C12.8162 80.0862 11.2838 79.7767 9.53048 79.7767C7.82 79.7767 6.3022 80.0545 4.97595 80.6101C3.64971 81.1658 2.60742 81.9414 1.85021 82.9381C1.093 83.9349 0.713267 85.1028 0.713267 86.4431C0.713267 87.4886 0.923978 88.4037 1.34653 89.1884C1.76908 89.9731 2.34713 90.6591 3.08405 91.2477C3.81986 91.8362 4.66721 92.351 5.62499 92.7921C6.58277 93.2332 7.59239 93.6278 8.65271 93.9771C9.90796 94.3796 10.8579 94.7584 11.5024 95.1122C12.1458 95.4659 12.5819 95.839 12.8095 96.2314C13.0371 96.6237 13.1509 97.0863 13.1509 97.6204C13.1509 98.1001 13.0269 98.5333 12.7779 98.9199C12.5289 99.3066 12.1469 99.6116 11.6331 99.835C11.1193 100.058 10.4556 100.17 9.64429 100.17C8.95131 100.17 8.32593 100.102 7.76929 99.9654C7.21152 99.8294 6.73602 99.6082 6.34051 99.3032C5.945 98.9982 5.64189 98.6036 5.43118 98.1182C5.22047 97.634 5.11455 97.0376 5.11455 96.3289H0C0 97.6907 0.276067 98.8666 0.828199 99.8577C1.38033 100.849 2.11951 101.669 3.04462 102.317C3.96972 102.966 5.00412 103.444 6.14557 103.755C7.28702 104.066 8.45326 104.221 9.64429 104.221C11.3875 104.221 12.9019 103.959 14.1909 103.436C15.4789 102.914 16.4772 102.156 17.1871 101.165C17.8959 100.174 18.2508 98.9812 18.2508 97.5864C18.2508 96.2688 17.9556 95.1269 17.3663 94.163C16.7758 93.1992 15.8969 92.3635 14.7273 91.6548C13.5588 90.9472 12.1131 90.3314 10.3925 89.8087C9.4178 89.5037 8.59073 89.1907 7.90789 88.8686C7.22505 88.5466 6.70672 88.1962 6.34952 87.8152C5.99233 87.4342 5.81317 86.9874 5.81317 86.4749C5.81317 85.985 5.94501 85.5439 6.21093 85.1516C6.47573 84.7592 6.87912 84.444 7.41999 84.2047Z" fill="#F7F7F7"/>
<path d="M39.6443 86.2141H33.75L29.3983 91.4427L28.5701 92.5177V78.78H23.6663V103.893H28.5701V98.5991L30.2118 96.948L34.5286 103.893H40.1637L33.3612 93.5643L39.6443 86.2141Z" fill="#F7F7F7"/>
<path d="M52.6757 85.8875C51.5928 85.8875 50.6733 86.2277 49.915 86.9092C49.4812 87.2993 49.115 87.7835 48.8017 88.3436L48.6485 86.2152H44.0376V103.895H48.9414V92.4587C48.964 92.41 48.982 92.3555 49.0068 92.3079C49.2772 91.7852 49.6885 91.3905 50.2407 91.1229C50.7928 90.8553 51.4959 90.7227 52.3512 90.7227C52.6114 90.7227 52.9033 90.7363 53.2278 90.7635C53.5523 90.7907 53.834 90.8202 54.0718 90.8531L54.1371 86.0984C53.9636 86.0225 53.7394 85.968 53.4633 85.9351C53.1861 85.9034 52.9247 85.8875 52.6757 85.8875Z" fill="#F7F7F7"/>
<path d="M61.4693 79.1224C60.6355 79.1224 59.9696 79.3594 59.4727 79.8334C58.9746 80.3074 58.7256 80.9141 58.7256 81.6557C58.7256 82.3859 58.9746 82.9903 59.4727 83.4688C59.9707 83.9485 60.6355 84.1878 61.4693 84.1878C62.3032 84.1878 62.9657 83.9485 63.4582 83.4688C63.9506 82.9892 64.1973 82.3848 64.1973 81.6557C64.1973 80.9152 63.9506 80.3074 63.4582 79.8334C62.9657 79.3594 62.3032 79.1224 61.4693 79.1224Z" fill="#F7F7F7"/>
<path d="M63.937 86.2141H59.0173V103.893H63.937V86.2141Z" fill="#F7F7F7"/>
<path d="M75.3449 78.7958H70.4253V103.893H75.3449V78.7958Z" fill="#F7F7F7"/>
<path d="M86.7526 78.7958H81.833V103.893H86.7526V78.7958Z" fill="#F7F7F7"/>
<path d="M107.319 99.5312V92.1458C107.319 90.751 107.01 89.591 106.394 88.6657C105.777 87.7404 104.932 87.0453 103.861 86.5826C102.789 86.12 101.571 85.8887 100.208 85.8887C98.6808 85.8887 97.3557 86.1449 96.23 86.6564C95.1043 87.1678 94.2333 87.8515 93.6158 88.7065C92.9983 89.5615 92.6907 90.5118 92.6907 91.5573H97.5946C97.5946 91.1218 97.6858 90.7544 97.8706 90.4539C98.0543 90.1546 98.3247 89.9232 98.6819 89.76C99.0391 89.5967 99.4617 89.515 99.9485 89.515C100.804 89.515 101.426 89.7498 101.816 90.2181C102.205 90.6864 102.4 91.318 102.4 92.114V93.0779H100.419C97.7241 93.0779 95.6948 93.587 94.3302 94.6053C92.9668 95.6236 92.2839 97.0592 92.2839 98.9109C92.2839 99.9462 92.5487 100.864 93.0795 101.664C93.6102 102.465 94.3302 103.091 95.2384 103.543C96.1478 103.996 97.154 104.221 98.2582 104.221C99.1135 104.221 99.8572 104.096 100.49 103.846C101.124 103.595 101.662 103.269 102.106 102.865C102.294 102.694 102.466 102.516 102.626 102.333C102.738 102.943 102.893 103.467 103.097 103.895H108.033V103.617C107.806 103.16 107.63 102.626 107.506 102.016C107.381 101.404 107.319 100.577 107.319 99.5312ZM101.108 100.078C100.616 100.344 100.028 100.478 99.3467 100.478C98.6864 100.478 98.1613 100.298 97.7715 99.9382C97.3816 99.5788 97.1867 99.1218 97.1867 98.5662C97.1867 97.8359 97.4515 97.2122 97.9822 96.6952C98.5129 96.1781 99.3727 95.9195 100.564 95.9195H102.398V98.8678C102.353 98.9483 102.303 99.03 102.244 99.1139C101.979 99.4903 101.6 99.8112 101.108 100.078Z" fill="#F7F7F7"/>
<path d="M119.003 99.9235L127.153 89.0898V86.2141H125.448H123.841H112.995V90.1841H120.845L112.736 100.936V103.893H114.034H116.015H127.396V99.9235H119.003Z" fill="#F7F7F7"/>
</svg>
