<svg width="453" height="332" viewBox="0 0 453 332" fill="none" xmlns="http://www.w3.org/2000/svg">
<path opacity="0.1" d="M168.258 250.67C261.177 250.67 336.503 248.367 336.503 245.526C336.503 242.686 261.177 240.383 168.258 240.383C75.3389 240.383 0.0131226 242.686 0.0131226 245.526C0.0131226 248.367 75.3389 250.67 168.258 250.67Z" fill="#303038"/>
<g opacity="0.7">
<path opacity="0.7" d="M105.595 207.565H51.9458V241.363H105.595V207.565Z" fill="#DAB785"/>
<path opacity="0.1" d="M87.1399 213.443H70.8304V217.362H87.1399V213.443Z" fill="black"/>
<path opacity="0.1" d="M85.1012 213.933H72.8691V216.872H85.1012V213.933Z" fill="black"/>
<path opacity="0.7" d="M160.103 207.565H106.454V241.363H160.103V207.565Z" fill="#DAB785"/>
<path opacity="0.1" d="M141.648 213.443H125.338V217.362H141.648V213.443Z" fill="black"/>
<path opacity="0.1" d="M139.609 213.933H127.377V216.872H139.609V213.933Z" fill="black"/>
<path opacity="0.7" d="M105.595 172.788H51.9458V206.586H105.595V172.788Z" fill="#DAB785"/>
<path opacity="0.1" d="M87.1399 178.666H70.8304V182.585H87.1399V178.666Z" fill="black"/>
<path opacity="0.1" d="M85.1012 179.156H72.8691V182.095H85.1012V179.156Z" fill="black"/>
<path opacity="0.7" d="M160.103 172.788H106.454V206.586H160.103V172.788Z" fill="#DAB785"/>
<path opacity="0.1" d="M141.648 178.666H125.338V182.585H141.648V178.666Z" fill="black"/>
<path opacity="0.1" d="M139.609 179.156H127.377V182.095H139.609V179.156Z" fill="black"/>
<path opacity="0.7" d="M105.595 137.521H51.9458V171.319H105.595V137.521Z" fill="#DAB785"/>
<path opacity="0.1" d="M87.1399 143.399H70.8304V147.318H87.1399V143.399Z" fill="black"/>
<path opacity="0.1" d="M85.1012 143.889H72.8691V146.828H85.1012V143.889Z" fill="black"/>
<path opacity="0.7" d="M160.103 137.521H106.454V171.319H160.103V137.521Z" fill="#DAB785"/>
<path opacity="0.1" d="M141.648 143.399H125.338V147.318H141.648V143.399Z" fill="black"/>
<path opacity="0.1" d="M139.609 143.889H127.377V146.828H139.609V143.889Z" fill="black"/>
<path opacity="0.7" d="M160.103 102.254H106.454V136.052H160.103V102.254Z" fill="#DAB785"/>
<path opacity="0.1" d="M141.648 108.132H125.338V112.051H141.648V108.132Z" fill="black"/>
<path opacity="0.1" d="M139.609 108.622H127.377V111.561H139.609V108.622Z" fill="black"/>
</g>
<path d="M367.958 12.0539C367.958 12.0539 331.824 9.5656 336.073 38.465C336.073 38.465 335.215 43.5738 339.284 45.8906C339.284 45.8906 339.348 43.7501 342.992 44.4799C344.289 44.7254 345.607 44.7977 346.919 44.6955C348.692 44.5558 350.376 43.7614 351.718 42.4325C351.718 42.4325 361.877 37.6421 365.825 18.6958C365.825 18.6958 368.748 14.5618 368.632 13.4989L362.533 16.4721C362.533 16.4721 364.619 21.4927 362.963 25.666C362.963 25.666 362.765 16.6533 361.593 16.8492C361.357 16.8933 358.426 18.5881 358.426 18.5881C358.426 18.5881 362.01 27.3314 359.306 33.6892C359.306 33.6892 360.332 22.9132 357.306 19.2199L353.014 22.0805C353.014 22.0805 357.203 31.1128 354.361 38.4846C354.361 38.4846 355.091 27.1795 352.108 22.776L348.22 26.2391C348.22 26.2391 352.155 35.144 349.756 41.2569C349.756 41.2569 349.443 28.0955 347.378 27.1011C347.378 27.1011 343.975 30.5299 343.456 31.9308C343.456 31.9308 346.151 38.3964 344.477 41.8055C344.477 41.8055 343.451 33.0378 342.61 32.9888C342.61 32.9888 339.219 38.798 338.868 42.7852C338.868 42.7852 339.013 36.8584 341.79 32.4353C341.79 32.4353 338.511 33.0769 336.597 35.5065C336.597 35.5065 337.125 31.3969 342.627 31.0393C342.627 31.0393 345.43 26.6309 346.177 26.3615C346.177 26.3615 340.709 25.8423 337.391 27.5175C337.391 27.5175 340.31 23.643 347.181 25.4064L351.022 21.8258C351.022 21.8258 343.82 20.7041 340.765 21.9433C340.765 21.9433 344.28 18.5146 352.057 21.0176L356.246 18.1864C356.246 18.1864 350.104 16.6778 346.447 17.2068C346.447 17.2068 350.31 14.8312 357.473 17.4076L360.478 15.8745C360.478 15.8745 355.98 14.8654 354.662 14.7038C353.344 14.5422 353.276 14.1307 353.276 14.1307C356.125 13.5884 359.051 13.9598 361.726 15.2034C361.726 15.2034 368.07 12.5094 367.958 12.0539Z" fill="#70A288"/>
<path d="M323.391 19.4061C323.391 19.4061 307.081 18.2795 308.991 31.343C308.991 31.343 308.609 33.65 310.438 34.6983C310.438 34.6983 310.468 33.7186 312.116 34.0566C312.701 34.169 313.296 34.2019 313.888 34.1546C314.689 34.0924 315.451 33.7329 316.056 33.1308C316.056 33.1308 320.648 30.9707 322.434 22.4087C322.434 22.4087 323.751 20.5376 323.7 20.0576L320.944 21.3997C320.944 21.3997 321.888 23.6724 321.146 25.5582C321.146 25.5582 321.056 21.4829 320.528 21.5809C320.421 21.5809 319.094 22.3646 319.094 22.3646C319.094 22.3646 320.717 26.3174 319.494 29.1927C319.494 29.1927 319.957 24.3239 318.588 22.6536L316.648 23.9467C316.648 23.9467 318.545 28.0269 317.257 31.3577C317.257 31.3577 317.588 26.2489 316.24 24.2602L314.485 25.8227C314.485 25.8227 316.262 29.849 315.18 32.6116C315.18 32.6116 315.039 26.6603 314.103 26.2146C314.103 26.2146 312.566 27.7624 312.33 28.3992C312.33 28.3992 313.549 31.3381 312.794 32.8565C312.794 32.8565 312.33 28.8939 311.935 28.8792C311.935 28.8792 310.408 31.5046 310.244 33.2876C310.321 31.6236 310.777 30.0113 311.566 28.6098C310.682 28.8009 309.866 29.2827 309.219 29.996C309.219 29.996 309.459 28.1445 311.944 27.9779C311.944 27.9779 313.232 25.9893 313.549 25.8668C313.549 25.8668 311.077 25.6317 309.579 26.3909C309.579 26.3909 310.897 24.6374 314.004 25.4358L315.721 23.8194C315.721 23.8194 312.468 23.3295 311.086 23.8732C311.086 23.8732 312.674 22.3254 316.189 23.452L318.077 22.1638C318.077 22.1638 315.305 21.478 313.648 21.7278C313.648 21.7278 315.395 20.6502 318.631 21.816L319.983 21.1254C319.983 21.1254 317.948 20.6649 317.352 20.5964C316.755 20.5278 316.725 20.3367 316.725 20.3367C318.014 20.0921 319.336 20.2617 320.545 20.8266C320.545 20.8266 323.442 19.6118 323.391 19.4061Z" fill="#70A288"/>
<path d="M87.2214 327.816C96.7527 327.816 104.479 326.325 104.479 324.485C104.479 322.646 96.7527 321.155 87.2214 321.155C77.6901 321.155 69.9635 322.646 69.9635 324.485C69.9635 326.325 77.6901 327.816 87.2214 327.816Z" fill="#70A288"/>
<path d="M94.359 319.039C95.1469 318.306 95.7203 317.317 96.0028 316.203C96.2174 315.081 95.7968 313.753 94.8525 313.318C93.7967 312.857 92.6679 313.695 91.8138 314.537C90.9597 315.38 89.9769 316.345 88.861 316.163C89.436 315.567 89.8662 314.811 90.1099 313.969C90.3536 313.128 90.4023 312.228 90.2515 311.358C90.2027 310.998 90.0692 310.659 89.8653 310.379C89.2773 309.663 88.2172 309.967 87.5133 310.53C85.2815 312.323 84.6591 315.786 84.6462 318.897C84.4231 317.775 84.6119 316.604 84.6076 315.468C84.6033 314.331 84.3243 313.019 83.4702 312.416C82.9435 312.093 82.3513 311.934 81.7535 311.956C80.7534 311.912 79.6332 312.029 78.9508 312.867C78.0924 313.905 78.3199 315.649 79.0581 316.785C79.7963 317.922 80.9251 318.652 81.9638 319.44C82.7947 320.006 83.5032 320.777 84.0368 321.698C84.1011 321.827 84.1529 321.963 84.1913 322.105H90.4833C91.8905 321.287 93.1942 320.256 94.359 319.039Z" fill="#70A288"/>
<path d="M298.888 179.523C298.853 179.152 298.736 178.797 298.55 178.491C298.363 178.184 298.112 177.936 297.819 177.77C297.573 177.65 297.308 177.588 297.04 177.587C296.772 177.587 296.507 177.648 296.261 177.767C296.014 177.885 295.791 178.06 295.604 178.279C295.418 178.498 295.272 178.758 295.175 179.043L285.643 201.933L283.497 292.059H286.931L288.218 202.133L298.708 180.944C298.897 180.504 298.96 180.007 298.888 179.523Z" fill="#3F3D56"/>
<path opacity="0.1" d="M452.626 312.416C449.814 315.221 446.786 317.731 443.578 319.915C443.528 319.996 443.472 320.071 443.411 320.141C443.071 320.47 442.666 320.702 442.231 320.817C431.595 327.582 419.607 331.094 407.432 331.015H171.451C144.412 327.841 127.913 323.633 127.913 319.014C127.913 315.434 137.819 312.098 154.876 309.306C156.644 309.012 158.488 308.728 160.408 308.454C161.59 308.284 162.798 308.121 164.035 307.964L166.133 307.685C167.69 307.482 169.288 307.285 170.927 307.092H171.061L172.777 306.896C174.228 306.725 175.709 306.563 177.219 306.406L178.318 306.294L181.121 306.009C182.941 305.823 184.8 305.645 186.7 305.476C188.277 305.335 189.879 305.195 191.507 305.054C208.014 303.658 227.045 302.605 247.753 301.924L253.668 301.694L255.659 301.645L259.865 301.537L261.552 301.498L263.325 301.459L264.587 301.435L270.509 301.327L273.552 301.278H274.175C281.371 301.18 288.702 301.129 296.167 301.126C310.923 301.126 325.232 301.327 338.867 301.709C346.696 301.924 354.286 302.199 361.636 302.532H361.705C382.899 303.482 401.869 304.883 417.569 306.622L417.857 306.656C421.887 307.102 425.702 307.577 429.282 308.067C432.651 308.527 435.814 309.012 438.75 309.507C439.767 309.678 440.754 309.854 441.716 310.026L441.96 310.075C446.029 310.824 449.6 311.588 452.626 312.416Z" fill="#DAB785"/>
<path d="M443.578 319.915C443.528 319.996 443.472 320.071 443.411 320.141C443.071 320.47 442.666 320.702 442.231 320.817C441.363 321.094 440.47 321.259 439.57 321.306H439.299C438.785 321.326 438.27 321.306 437.759 321.248C437.385 321.186 437.007 321.158 436.63 321.164H436.578C436.029 321.252 435.49 321.405 434.969 321.62C433.807 321.983 432.611 322.177 431.406 322.198H430.977C429.63 322.198 428.265 322.144 426.913 322.154C426.694 322.154 426.484 322.154 426.256 322.154C423.938 322.222 421.634 322.644 419.316 322.688H418.573C416.303 322.624 413.981 322.071 412.174 320.503C411.81 320.228 411.514 319.85 411.316 319.406C411.162 318.937 411.11 318.433 411.166 317.936C411.209 317.05 411.359 316.085 411.942 315.487C412.309 315.166 412.73 314.935 413.179 314.807C413.964 314.518 414.754 314.238 415.539 313.959C416.325 313.68 417.222 313.381 418.067 313.097L418.23 313.038L418.702 312.877L419.007 312.759C419.376 312.624 419.731 312.44 420.063 312.21C420.501 311.894 420.872 311.471 421.149 310.971C421.196 310.883 421.247 310.79 421.29 310.697C421.333 310.604 421.29 310.545 421.26 310.467C421.187 309.854 421.131 309.227 421.037 308.63C419.829 308.31 418.728 307.599 417.865 306.582C417.124 305.744 416.5 304.781 416.015 303.727C414.947 301.434 414.397 298.873 413.599 296.438C412.376 292.735 410.595 289.316 408.801 285.927C407.161 282.802 405.513 279.667 403.65 276.713C402.41 274.754 401.075 272.888 399.848 270.924C396.375 265.443 393.884 259.234 392.517 252.653C392.308 251.391 392.011 250.149 391.629 248.94C390.89 246.883 389.538 245.208 388.491 243.327C387.365 241.3 386.594 239.042 386.221 236.68C386.006 235.338 385.646 233.888 384.474 233.741L384.349 234.021C381.92 239.409 379.427 244.895 375.765 249.293C375.18 249.94 374.644 250.643 374.165 251.394C373.78 252.123 373.436 252.879 373.134 253.657C372.555 255.055 371.786 256.339 370.855 257.463C370.579 257.783 370.277 258.073 369.954 258.33C369.525 258.686 369.048 258.959 368.542 259.139C368.343 259.208 368.139 259.26 367.933 259.295C367.933 259.354 367.954 259.408 367.958 259.467C367.963 259.525 367.984 259.594 367.993 259.658C368.624 263.577 368.354 267.615 367.207 271.379C367.177 271.497 367.143 271.609 367.104 271.727C366.927 272.275 366.734 272.814 366.525 273.343C366.001 274.641 365.379 275.885 364.89 277.203C364.808 277.428 364.727 277.654 364.654 277.879C362.937 283.125 363.366 288.983 363.143 294.621C363.123 295.854 362.995 297.081 362.761 298.285C362.469 299.642 362.001 301.043 361.744 302.443C361.509 303.494 361.49 304.592 361.688 305.652L361.585 305.696C361.126 305.892 360.658 306.068 360.19 306.235V306.308C360.357 307.405 360.52 308.503 360.688 309.595C360.829 310.535 360.997 311.554 361.572 312.22C361.729 312.367 361.872 312.531 362.001 312.71C362.34 313.317 362.04 314.121 362.104 314.841C362.199 315.86 363.023 316.727 362.894 317.741C362.836 318.044 362.714 318.326 362.539 318.563C362.364 318.8 362.141 318.985 361.89 319.102C361.678 319.211 361.456 319.292 361.229 319.342L361.087 319.377C360.829 319.43 360.572 319.46 360.314 319.489C357.117 319.852 353.876 320.214 350.709 319.597C350.082 319.474 349.46 319.313 348.825 319.254C348.022 319.213 347.218 319.251 346.421 319.367C340.545 320.002 334.636 320.133 328.743 319.759C327.211 319.661 325.451 319.377 324.64 317.883C323.966 316.643 324.21 315.042 324.55 313.626C324.647 313.106 324.822 312.608 325.069 312.157C325.097 312.108 325.128 312.062 325.163 312.019C325.953 310.898 327.438 310.829 328.717 310.873L332.897 311.015C333.309 311.053 333.723 311.017 334.125 310.908C334.803 310.682 335.318 310.065 335.953 309.717C336.752 309.281 337.756 309.227 338.331 308.483L338.404 308.375C338.505 308.217 338.6 308.054 338.687 307.885C338.687 307.851 338.726 307.817 338.747 307.783C338.763 307.752 338.78 307.723 338.799 307.694C339.327 306.901 340.25 306.636 341.001 306.132C341.114 306.056 341.222 305.969 341.322 305.872L341.408 305.784C340.6 305.126 339.894 304.316 339.322 303.389C339.102 303.118 338.939 302.793 338.846 302.439C338.794 302.173 338.811 301.895 338.898 301.64C338.916 301.578 338.939 301.517 338.966 301.459L338.988 301.41C339.28 300.754 339.88 300.161 340.211 299.49C340.223 299.469 340.234 299.446 340.241 299.421C340.696 298.442 340.786 296.923 340.112 296.135C340.456 289.684 342.009 283.399 342.353 276.929C342.49 274.367 342.434 271.795 342.537 269.224C342.64 266.652 342.88 264.159 343.134 261.637C343.7 255.871 345.074 250.224 344.881 244.434C344.864 243.894 344.884 243.354 344.941 242.818C344.939 242.779 344.939 242.739 344.941 242.7C345.078 241.514 345.402 240.365 345.898 239.311C346.52 238.118 347.225 236.985 348.005 235.921C350.645 232.003 353.816 228.084 354.756 223.264C355.241 220.776 356.314 218.498 357.383 216.26C358.014 214.927 358.671 213.561 359.679 212.581C360.225 212.149 360.733 211.657 361.194 211.112C361.898 210.073 361.924 208.638 362.34 207.404C362.555 206.762 362.885 206.174 363.048 205.513C363.048 205.444 363.078 205.381 363.091 205.312C363.186 204.645 363.237 203.97 363.242 203.294C363.242 203.098 363.267 202.907 363.289 202.716C363.539 200.78 364.032 198.894 364.752 197.118C364.842 196.892 364.928 196.662 365.014 196.437C363.034 195.118 361.287 193.389 359.864 191.338C359.381 190.674 358.962 189.953 358.615 189.187C357.731 187.184 357.529 184.901 357.113 182.707C356.117 177.476 353.838 172.548 353.52 167.199C353.426 165.568 353.52 163.883 353.022 162.34C352.885 161.923 352.723 161.517 352.537 161.126C352.46 160.959 352.387 160.793 352.31 160.636L352.224 160.45L352.005 159.96L351.653 160.273C342.873 168.12 333.654 175.306 324.056 181.786L323.232 182.345C322.803 182.581 322.429 182.93 322.142 183.363C322.107 183.427 322.077 183.491 322.047 183.554C321.85 184.02 321.798 184.534 321.618 185.024C321.232 186.146 320.24 186.861 319.227 187.194C317.395 187.732 315.451 187.446 313.798 186.395C313.588 186.273 313.369 186.146 313.18 186.004C312.678 186.321 312.149 186.579 311.601 186.773C309.884 187.341 308.086 187.316 306.309 187.311C304.532 187.306 302.716 187.311 301.034 187.978C299.909 188.413 298.819 189.133 297.652 189.202C297.517 189.212 297.383 189.212 297.248 189.202C296.583 189.115 295.935 188.898 295.334 188.56L294.982 188.379C294.8 188.281 294.622 188.171 294.45 188.051C294.262 187.919 294.088 187.763 293.931 187.586C293.703 187.325 293.538 187.003 293.45 186.65C293.392 186.395 293.392 186.127 293.45 185.871C293.467 185.757 293.518 185.653 293.596 185.577C293.672 185.526 293.76 185.5 293.849 185.504C294.341 185.498 294.833 185.545 295.317 185.646C295.601 185.69 295.888 185.709 296.175 185.7H296.33C296.583 185.669 296.828 185.579 297.049 185.436C297.271 185.292 297.464 185.099 297.617 184.867C297.665 184.795 297.702 184.716 297.729 184.632C297.781 184.494 297.807 184.346 297.806 184.196C297.809 184.159 297.809 184.121 297.806 184.083C297.626 183.99 297.446 183.897 297.274 183.785C297.184 183.731 297.098 183.672 297.012 183.613L296.961 183.574C296.807 183.454 296.663 183.318 296.532 183.167C296.448 183.073 296.375 182.968 296.313 182.854C296.199 182.677 296.113 182.478 296.059 182.266C295.706 182.182 295.34 182.194 294.991 182.3C294.523 182.447 294.051 182.761 293.587 182.869C293.353 182.936 293.107 182.924 292.879 182.834C292.21 182.56 291.974 181.629 291.832 180.831C291.806 180.679 291.776 180.522 291.755 180.366C291.705 180.065 291.705 179.756 291.755 179.455C291.962 178.77 292.358 178.181 292.883 177.775L294.291 176.428L294.394 176.33C294.394 176.197 294.347 176.065 294.33 175.933C294.28 175.63 294.28 175.32 294.33 175.017C294.537 174.334 294.933 173.746 295.459 173.342L298.575 170.349C299.158 169.791 299.793 169.203 300.553 169.144C301.682 169.056 302.583 170.124 303.429 170.981C304.493 172.058 305.785 172.94 307.206 173.048C307.882 173.083 308.559 172.977 309.201 172.734L309.566 172.597C309.489 172.416 309.412 172.235 309.339 172.053C309.214 171.755 309.09 171.451 308.97 171.147C310.798 171.015 312.459 169.869 313.845 168.497C315.232 167.126 316.421 165.505 317.82 164.158C319.33 162.688 321.064 161.596 322.597 160.18C326.159 156.884 328.524 152.039 332.335 149.135C333.657 148.121 335.185 147.313 336.086 145.804C336.365 145.314 336.576 144.824 336.863 144.335C337.777 142.865 339.344 142.189 340.636 141.17C341.928 140.152 343.052 138.658 344.104 137.222C344.851 136.199 345.602 135.175 346.314 134.122C346.971 132.726 347.524 131.266 348.211 129.89C348.794 128.727 349.474 127.631 350.241 126.618C350.417 126.226 350.597 125.834 350.791 125.452C350.984 125.07 351.125 124.81 351.306 124.472C351.43 124.252 351.559 124.041 351.692 123.826C351.301 123.037 350.928 122.356 350.752 122.058L350.666 121.925C350.287 121.465 349.883 121.033 349.456 120.632C349.007 120.555 348.563 120.447 348.125 120.309C345.476 119.48 343.14 117.681 341.475 115.187C339.811 112.694 338.911 109.645 338.915 106.511C338.913 106.496 338.913 106.481 338.915 106.467C338.916 104.222 339.384 102.009 340.28 100.011C340.46 99.6091 340.653 99.2222 340.863 98.845C340.667 98.7744 340.476 98.6859 340.292 98.5805C339.979 98.4044 339.706 98.1479 339.494 97.8311C339.319 97.5489 339.206 97.2231 339.164 96.8809C339.091 96.0735 339.197 95.2584 339.473 94.5101C339.59 94.1499 339.723 93.7968 339.872 93.4521C339.883 93.432 339.894 93.4106 339.902 93.3884C341.82 88.9801 345.911 86.2714 349.997 86.0803C354.404 85.8795 358.696 88.2404 362.173 91.6202C363.21 92.5916 364.139 93.7054 364.937 94.9363C366.752 97.8164 367.572 101.5 367.812 105.149C367.903 106.278 367.885 107.414 367.761 108.539C367.716 108.939 367.644 109.335 367.546 109.724C367.491 109.954 367.418 110.184 367.34 110.415C367.263 110.645 367.216 110.748 367.147 110.904V110.929C367.083 111.086 367.01 111.233 366.937 111.38L366.898 111.443L366.842 111.546C366.877 111.639 366.915 111.737 366.954 111.83C366.993 111.923 367.027 112.011 367.07 112.1H367.121C367.98 112.178 368.774 112.315 369.649 112.393C370.061 112.416 370.47 112.488 370.868 112.609C371.727 112.903 372.375 113.618 373.096 114.196C374.881 115.636 377.079 116.307 378.834 117.796C381.409 119.991 382.697 123.615 384.259 126.863C386.319 131.212 389.676 134.915 391.156 139.569C391.826 141.681 392.498 143.791 393.174 145.897C394.491 150.026 395.809 154.175 397.599 158.069C400.088 163.487 403.457 168.355 405.453 174.047C405.651 174.617 406.023 175.087 406.5 175.37C409.22 179.752 411.638 184.369 413.732 189.178C414.835 191.72 415.878 194.36 416.2 197.176C416.451 199.684 416.269 202.223 415.664 204.651C415.321 206.093 414.901 207.51 414.406 208.893C414.213 209.377 414.069 209.885 413.977 210.406C413.977 210.46 413.977 210.514 413.977 210.568C413.891 211.508 414.204 212.439 414.29 213.38C414.362 214.137 414.287 214.902 414.071 215.623C414.037 215.736 413.998 215.848 413.96 215.961C413.693 216.534 413.468 217.13 413.286 217.744C413.27 217.818 413.259 217.893 413.251 217.969C413.11 219.032 413.479 220.105 413.681 221.168C414.436 225.008 414.299 229.005 414.11 232.923C414.011 234.883 415.397 236.455 416.556 237.9C418.702 240.609 420.38 243.778 421.998 246.932C422.881 248.534 423.625 250.23 424.217 251.997C424.831 254.015 425.076 256.151 425.415 258.242C426.509 264.708 430.085 270.419 431.055 276.899C431.504 279.867 432.651 282.64 434.372 284.923C434.891 285.534 435.369 286.189 435.801 286.882C436.1 287.434 436.338 288.026 436.51 288.645C436.932 290.086 437.131 291.599 437.098 293.117C437.03 293.844 437.066 294.579 437.205 295.292C437.608 296.796 439.05 297.624 439.647 299.039C440.244 300.455 439.832 302.267 440.076 303.874C440.268 305.169 440.881 306.334 441.793 307.136C441.45 307.479 441.089 307.792 440.72 308.116C441.062 308.418 441.361 308.778 441.608 309.183C441.777 309.455 441.921 309.745 442.038 310.05C442.604 311.554 442.621 313.342 443.085 314.949C443.282 315.615 443.561 316.32 443.39 316.996C443.316 317.19 443.267 317.394 443.244 317.603C443.244 318.044 443.647 318.333 443.802 318.735C443.858 318.937 443.867 319.152 443.828 319.359C443.789 319.566 443.703 319.758 443.578 319.915Z" fill="url(#paint0_linear)"/>
<path d="M352.743 128.886C355.37 128.078 357.709 126.388 360.001 124.717L367.988 118.913C365.821 118.717 363.95 116.954 362.838 114.818C361.726 112.682 361.267 110.199 360.89 107.76C357.456 109.288 354.482 111.879 351.709 114.617C350.61 115.7 348.276 117.336 347.936 119.026C347.597 120.716 349.761 122.087 350.597 123.218C350.885 123.596 353.593 128.616 352.743 128.886Z" fill="#FBBEBE"/>
<path opacity="0.1" d="M352.743 128.886C355.37 128.078 357.709 126.388 360.001 124.717L367.988 118.913C365.821 118.717 363.95 116.954 362.838 114.818C361.726 112.682 361.267 110.199 360.89 107.76C357.456 109.288 354.482 111.879 351.709 114.617C350.61 115.7 348.276 117.336 347.936 119.026C347.597 120.716 349.761 122.087 350.597 123.218C350.885 123.596 353.593 128.616 352.743 128.886Z" fill="black"/>
<path d="M309.098 176.829C307.691 177.652 306.193 178.495 304.618 178.377C303.201 178.274 301.909 177.397 300.845 176.325C299.987 175.472 299.102 174.41 297.974 174.498C297.218 174.556 296.583 175.139 295.999 175.693L292.888 178.666C292.364 179.068 291.968 179.652 291.759 180.331C291.698 180.793 291.722 181.263 291.832 181.713C291.974 182.506 292.21 183.432 292.879 183.701C293.549 183.971 294.278 183.393 294.987 183.172C295.419 183.046 295.874 183.056 296.302 183.2C296.73 183.344 297.116 183.617 297.42 183.99C297.673 184.274 297.826 184.654 297.849 185.058C297.849 185.945 296.991 186.528 296.201 186.572C295.411 186.616 294.656 186.322 293.875 186.376C293.828 186.369 293.78 186.373 293.734 186.388C293.688 186.402 293.646 186.427 293.608 186.461C293.571 186.495 293.54 186.537 293.518 186.584C293.495 186.632 293.481 186.684 293.476 186.738C293.427 187.048 293.448 187.366 293.536 187.664C293.623 187.962 293.775 188.23 293.978 188.443C294.386 188.868 294.861 189.2 295.377 189.423C295.977 189.761 296.625 189.977 297.291 190.059C298.609 190.157 299.819 189.325 301.068 188.84C302.751 188.193 304.562 188.173 306.339 188.178C308.116 188.183 309.918 188.213 311.622 187.644C313.326 187.076 314.944 185.817 315.609 183.941C315.688 183.766 315.714 183.567 315.682 183.373C315.616 183.167 315.488 182.994 315.322 182.883C312.927 180.86 311.957 178.402 309.262 176.947L309.098 176.829Z" fill="#FBBEBE"/>
<path opacity="0.1" d="M309.098 176.829C307.691 177.652 306.193 178.495 304.618 178.377C303.201 178.274 301.909 177.397 300.845 176.325C299.987 175.472 299.102 174.41 297.974 174.498C297.218 174.556 296.583 175.139 295.999 175.693L292.888 178.666C292.364 179.068 291.968 179.652 291.759 180.331C291.698 180.793 291.722 181.263 291.832 181.713C291.974 182.506 292.21 183.432 292.879 183.701C293.549 183.971 294.278 183.393 294.987 183.172C295.419 183.046 295.874 183.056 296.302 183.2C296.73 183.344 297.116 183.617 297.42 183.99C297.673 184.274 297.826 184.654 297.849 185.058C297.849 185.945 296.991 186.528 296.201 186.572C295.411 186.616 294.656 186.322 293.875 186.376C293.828 186.369 293.78 186.373 293.734 186.388C293.688 186.402 293.646 186.427 293.608 186.461C293.571 186.495 293.54 186.537 293.518 186.584C293.495 186.632 293.481 186.684 293.476 186.738C293.427 187.048 293.448 187.366 293.536 187.664C293.623 187.962 293.775 188.23 293.978 188.443C294.386 188.868 294.861 189.2 295.377 189.423C295.977 189.761 296.625 189.977 297.291 190.059C298.609 190.157 299.819 189.325 301.068 188.84C302.751 188.193 304.562 188.173 306.339 188.178C308.116 188.183 309.918 188.213 311.622 187.644C313.326 187.076 314.944 185.817 315.609 183.941C315.688 183.766 315.714 183.567 315.682 183.373C315.616 183.167 315.488 182.994 315.322 182.883C312.927 180.86 311.957 178.402 309.262 176.947L309.098 176.829Z" fill="black"/>
<path d="M359.357 124.59C358.691 124.099 357.936 123.79 357.148 123.686C356.361 123.581 355.563 123.684 354.816 123.987C353.321 124.602 351.979 125.623 350.906 126.961C349.835 128.207 348.908 129.605 348.147 131.119C347.417 132.589 346.859 134.127 346.129 135.591C344.842 138.212 343.159 140.524 341.468 142.816C340.417 144.242 339.352 145.687 338.005 146.735C336.657 147.783 335.151 148.425 334.236 149.879C333.949 150.34 333.743 150.859 333.46 151.324C332.563 152.823 331.039 153.626 329.713 154.631C325.91 157.521 323.545 162.331 319.991 165.607C318.459 167.018 316.73 168.125 315.223 169.565C313.82 170.902 312.648 172.504 311.249 173.876C309.85 175.247 308.206 176.379 306.382 176.506C307.601 179.607 309.056 182.648 311.146 185.063C313.236 187.478 316.369 189.021 319.223 188.076C320.236 187.742 321.228 187.037 321.614 185.92C321.735 185.346 321.905 184.787 322.12 184.25C322.407 183.819 322.779 183.472 323.206 183.236C334.664 175.603 345.585 166.968 355.872 157.408C358.632 154.841 361.37 152.544 364.203 150.061C365.219 149.238 366.158 148.3 367.006 147.259C368.187 145.649 368.925 143.676 369.126 141.589C369.328 139.501 368.984 137.393 368.139 135.528C367.379 134.101 366.509 132.755 365.538 131.506C363.771 128.882 361.691 126.554 359.357 124.59Z" fill="#218DBB"/>
<path opacity="0.1" d="M359.357 124.59C358.691 124.099 357.936 123.79 357.148 123.686C356.361 123.581 355.563 123.684 354.816 123.987C353.321 124.602 351.979 125.623 350.906 126.961C349.835 128.207 348.908 129.605 348.147 131.119C347.417 132.589 346.859 134.127 346.129 135.591C344.842 138.212 343.159 140.524 341.468 142.816C340.417 144.242 339.352 145.687 338.005 146.735C336.657 147.783 335.151 148.425 334.236 149.879C333.949 150.34 333.743 150.859 333.46 151.324C332.563 152.823 331.039 153.626 329.713 154.631C325.91 157.521 323.545 162.331 319.991 165.607C318.459 167.018 316.73 168.125 315.223 169.565C313.82 170.902 312.648 172.504 311.249 173.876C309.85 175.247 308.206 176.379 306.382 176.506C307.601 179.607 309.056 182.648 311.146 185.063C313.236 187.478 316.369 189.021 319.223 188.076C320.236 187.742 321.228 187.037 321.614 185.92C321.735 185.346 321.905 184.787 322.12 184.25C322.407 183.819 322.779 183.472 323.206 183.236C334.664 175.603 345.585 166.968 355.872 157.408C358.632 154.841 361.37 152.544 364.203 150.061C365.219 149.238 366.158 148.3 367.006 147.259C368.187 145.649 368.925 143.676 369.126 141.589C369.328 139.501 368.984 137.393 368.139 135.528C367.379 134.101 366.509 132.755 365.538 131.506C363.771 128.882 361.691 126.554 359.357 124.59Z" fill="black"/>
<path d="M340.915 306.298C340.164 306.788 339.241 307.063 338.713 307.856C338.541 308.111 338.425 308.41 338.241 308.654C337.67 309.419 336.657 309.453 335.863 309.889C335.228 310.232 334.713 310.868 334.039 311.069C333.636 311.179 333.22 311.215 332.807 311.177L328.635 311.035C327.314 310.991 325.764 311.069 324.996 312.299C324.746 312.749 324.569 313.247 324.472 313.768C324.15 315.174 323.889 316.766 324.562 318C325.369 319.47 327.138 319.768 328.661 319.866C334.547 320.238 340.449 320.107 346.318 319.475C347.112 319.359 347.914 319.321 348.713 319.362C349.348 319.421 349.971 319.582 350.597 319.705C353.761 320.317 356.997 319.959 360.19 319.597C360.73 319.567 361.261 319.438 361.765 319.215C362.016 319.098 362.238 318.914 362.412 318.677C362.586 318.441 362.707 318.16 362.765 317.858C362.898 316.849 362.07 315.992 361.98 314.978C361.915 314.263 362.216 313.464 361.872 312.857C361.744 312.678 361.6 312.514 361.443 312.367C360.868 311.686 360.701 310.692 360.559 309.761L359.808 304.731C359.787 304.376 359.66 304.041 359.447 303.781C359.29 303.651 359.107 303.565 358.915 303.531C355.645 302.688 352.293 303.457 349.044 303.928C347.372 304.207 345.68 304.304 343.992 304.217C343.262 304.163 342.979 304.065 342.434 304.609C341.889 305.152 341.597 305.843 340.915 306.298Z" fill="#3F3D56"/>
<path d="M419.891 312.353C419.317 312.719 418.702 312.994 418.063 313.171C416.377 313.732 414.695 314.318 413.015 314.929C412.568 315.055 412.149 315.285 411.784 315.605C411.2 316.193 411.05 317.153 411.007 318.054C410.951 318.551 411.003 319.055 411.157 319.524C411.358 319.963 411.653 320.337 412.015 320.611C413.938 322.271 416.449 322.786 418.861 322.786C421.273 322.786 423.668 322.32 426.08 322.247C428.994 322.159 431.986 322.629 434.788 321.698C435.323 321.473 435.879 321.318 436.445 321.238C436.821 321.231 437.197 321.259 437.57 321.321C439.073 321.491 440.59 321.333 442.042 320.856C442.479 320.745 442.885 320.515 443.226 320.185C443.395 320.018 443.516 319.797 443.573 319.55C443.629 319.304 443.619 319.043 443.544 318.803C443.39 318.407 442.995 318.118 442.99 317.682C443.011 317.472 443.058 317.268 443.132 317.074C443.308 316.403 443.025 315.703 442.827 315.042C442.274 313.151 442.364 310.976 441.372 309.335C440.381 307.694 438.561 307.018 436.831 306.759C435.426 306.532 433.996 306.579 432.604 306.896C431.037 307.278 429.574 308.076 428.037 308.586C426.254 309.171 424.391 309.372 422.543 309.179C421.316 309.061 421.737 309.281 421.32 310.457C421.025 311.241 420.526 311.903 419.891 312.353Z" fill="#3F3D56"/>
<path d="M351.31 122.092C358.184 122.092 363.757 115.732 363.757 107.887C363.757 100.042 358.184 93.6823 351.31 93.6823C344.436 93.6823 338.863 100.042 338.863 107.887C338.863 115.732 344.436 122.092 351.31 122.092Z" fill="#FBBEBE"/>
<path d="M441.544 307.273C437.681 311.059 432.466 312.715 427.381 312.774C425.235 312.798 423.007 312.534 421.179 311.265C421.05 310.462 420.998 309.595 420.87 308.792C418.651 308.263 416.93 306.2 415.857 303.918C414.784 301.635 414.239 299.098 413.44 296.678C412.221 292.995 410.436 289.6 408.65 286.23C407.011 283.125 405.367 280.01 403.5 277.076C402.264 275.116 400.925 273.275 399.702 271.32C396.236 265.88 393.749 259.711 392.384 253.168C392.175 251.913 391.878 250.679 391.495 249.479C390.757 247.432 389.405 245.766 388.362 243.9C387.238 241.886 386.466 239.642 386.092 237.293C385.882 235.96 385.521 234.52 384.349 234.383C381.886 239.845 379.375 245.394 375.65 249.837C375.064 250.478 374.528 251.176 374.049 251.923C373.664 252.649 373.32 253.402 373.019 254.177C372.441 255.567 371.673 256.843 370.744 257.958C369.965 258.909 368.939 259.548 367.817 259.78C368.644 264.487 368.152 269.371 366.409 273.74C365.89 275.033 365.267 276.268 364.778 277.575C362.778 282.963 363.242 289.042 363.031 294.886C363.013 296.11 362.886 297.329 362.654 298.525C362.134 300.915 361.061 303.457 361.581 305.848C356.198 308.194 350.22 308.047 344.52 307.058C343.405 306.941 342.323 306.566 341.34 305.956C340.531 305.302 339.826 304.497 339.254 303.575C339.033 303.306 338.87 302.983 338.777 302.63C338.554 301.513 339.636 300.67 340.138 299.691C340.64 298.711 340.73 297.158 340.039 296.355C340.383 289.943 341.936 283.683 342.28 277.252C342.417 274.705 342.361 272.148 342.464 269.596C342.567 267.044 342.808 264.561 343.056 262.053C343.623 256.327 344.996 250.714 344.803 244.958C344.744 243.187 345.102 241.43 345.838 239.869C346.458 238.683 347.161 237.556 347.941 236.499C350.576 232.615 353.743 228.721 354.683 223.925C355.168 221.452 356.241 219.189 357.306 216.965C357.937 215.638 358.593 214.281 359.598 213.306C360.144 212.875 360.652 212.382 361.113 211.837C361.817 210.803 361.842 209.388 362.259 208.153C362.473 207.516 362.804 206.929 362.963 206.272C363.093 205.547 363.158 204.808 363.156 204.068C363.293 201.697 364.091 199.405 364.933 197.235C362.954 195.928 361.207 194.21 359.782 192.17C359.303 191.508 358.886 190.791 358.538 190.03C357.653 188.041 357.452 185.773 357.035 183.594C356.044 178.392 353.765 173.498 353.447 168.184C353.353 166.563 353.447 164.887 352.954 163.354C352.726 162.705 352.459 162.075 352.155 161.468C351.856 160.872 351.628 160.233 351.477 159.568C351.203 158.123 351.58 156.629 351.477 155.16C351.374 153.862 350.889 152.647 350.649 151.378C350.404 149.728 350.362 148.046 350.524 146.382C350.632 144.423 351.005 142.4 350.859 140.465C350.623 137.263 350.98 134.041 351.908 131.008C352.836 127.974 354.314 125.198 356.246 122.861L356.344 122.748C357.164 121.769 358.061 120.902 358.799 119.863C359.804 118.472 360.516 116.836 361.576 115.484C362.04 114.882 362.563 114.343 363.023 113.736C363.444 113.099 363.91 112.502 364.418 111.953C364.674 111.681 364.985 111.485 365.323 111.381C365.661 111.278 366.016 111.271 366.357 111.36C366.444 112.09 366.644 112.797 366.95 113.447C367.843 113.525 368.637 113.667 369.525 113.745C369.937 113.768 370.345 113.84 370.744 113.961C371.581 114.25 372.25 114.941 372.967 115.533C374.753 116.968 376.946 117.635 378.701 119.114C381.276 121.293 382.564 124.894 384.118 128.122C386.173 132.447 389.525 136.125 390.985 140.749L392.998 147.038C394.315 151.143 395.633 155.262 397.418 159.132C399.903 164.52 403.268 169.374 405.264 175.012C405.464 175.577 405.833 176.043 406.307 176.325C409.025 180.674 411.44 185.26 413.53 190.04C414.633 192.567 415.676 195.193 415.994 197.989C416.462 201.942 415.518 205.939 414.204 209.632C413.992 210.161 413.847 210.722 413.775 211.298C413.689 212.233 414.003 213.154 414.088 214.09C414.171 214.964 414.057 215.847 413.758 216.656C413.491 217.225 413.266 217.818 413.084 218.43C412.852 219.556 413.264 220.702 413.487 221.829C414.243 225.645 414.105 229.598 413.917 233.506C413.818 235.466 415.204 237.018 416.359 238.453C418.505 241.143 420.179 244.287 421.797 247.427C422.676 249.019 423.418 250.706 424.011 252.462C424.625 254.466 424.87 256.587 425.209 258.668C426.299 265.09 429.87 270.767 430.84 277.208C431.289 280.159 432.435 282.914 434.153 285.177C434.671 285.79 435.149 286.444 435.582 287.137C435.879 287.686 436.115 288.275 436.286 288.89C436.708 290.32 436.907 291.824 436.874 293.333C436.806 294.055 436.843 294.784 436.982 295.493C437.385 296.987 438.827 297.81 439.419 299.216C440.012 300.621 439.604 302.424 439.849 304.021C440.034 305.31 440.639 306.472 441.544 307.273Z" fill="#228DBB"/>
<path d="M311.674 172.421C310.266 173.244 308.768 174.086 307.193 173.969C305.777 173.866 304.485 172.989 303.42 171.916C302.562 171.064 301.678 170.001 300.549 170.089C299.794 170.148 299.158 170.731 298.575 171.284L295.463 174.258C294.939 174.659 294.543 175.244 294.334 175.923C294.273 176.384 294.298 176.855 294.407 177.304C294.549 178.098 294.785 179.024 295.454 179.293C296.124 179.562 296.854 178.984 297.562 178.764C297.994 178.638 298.449 178.647 298.877 178.791C299.305 178.935 299.692 179.208 299.995 179.582C300.248 179.866 300.401 180.246 300.424 180.65C300.424 181.536 299.566 182.119 298.776 182.163C297.987 182.207 297.231 181.914 296.45 181.967C296.403 181.961 296.355 181.965 296.309 181.979C296.264 181.994 296.221 182.019 296.184 182.053C296.146 182.086 296.115 182.128 296.093 182.176C296.07 182.224 296.056 182.276 296.051 182.33C296.002 182.639 296.023 182.958 296.111 183.256C296.199 183.553 296.351 183.821 296.553 184.034C296.961 184.459 297.436 184.792 297.952 185.014C298.553 185.353 299.201 185.568 299.867 185.651C301.184 185.749 302.394 184.916 303.643 184.431C305.326 183.785 307.137 183.765 308.914 183.77C310.691 183.775 312.493 183.804 314.197 183.236C315.901 182.668 317.519 181.409 318.185 179.533C318.263 179.358 318.289 179.158 318.258 178.965C318.191 178.758 318.064 178.585 317.897 178.475C315.502 176.452 314.532 173.993 311.837 172.538L311.674 172.421Z" fill="#FBBEBE"/>
<path d="M345.254 99.1585C344.511 99.2957 343.88 99.8688 343.177 100.187C342.704 100.397 342.198 100.489 341.692 100.459C341.186 100.428 340.691 100.276 340.241 100.011C339.927 99.8365 339.652 99.5817 339.438 99.2663C338.863 98.3552 339.065 97.0327 339.417 95.9649C341.082 90.9148 345.529 87.7898 349.932 87.589C354.336 87.3881 358.619 89.7344 362.091 93.0897C363.124 94.0578 364.051 95.1646 364.851 96.3861C366.662 99.2516 367.482 102.911 367.722 106.535C367.866 108.056 367.777 109.594 367.46 111.081C367.308 111.803 367.03 112.483 366.642 113.08C366.254 113.676 365.764 114.178 365.203 114.554C363.975 115.269 362.503 115.043 361.263 114.358C360.023 113.672 358.958 112.589 357.894 111.556C357.412 111.025 356.841 110.61 356.216 110.336C355.904 110.209 355.567 110.188 355.244 110.275C354.922 110.362 354.629 110.553 354.4 110.826C353.825 111.615 353.971 112.908 353.447 113.765C352.924 114.622 351.833 114.745 350.915 114.745C349.997 114.745 349.065 114.656 348.516 113.824C348.014 113.069 348.087 111.967 348.275 111.017C348.464 110.067 348.786 109.126 348.705 108.152C348.529 106.192 347.026 104.987 346.559 103.185C346.254 102.004 346.923 101.505 346.855 100.437C346.803 99.4965 345.919 99.0361 345.254 99.1585Z" fill="#3F3D56"/>
<path opacity="0.1" d="M384.358 234.261V234.383C381.894 239.845 379.384 245.394 375.658 249.837C375.073 250.478 374.537 251.176 374.057 251.924C373.673 252.649 373.329 253.402 373.027 254.177C372.449 255.567 371.681 256.843 370.752 257.958L367.645 259.731L377.517 200.953L384.358 234.261Z" fill="black"/>
<path opacity="0.1" d="M370.01 145.3C369.162 146.34 368.223 147.279 367.207 148.101C364.375 150.55 361.628 152.862 358.877 155.449C356.659 157.509 354.41 159.527 352.13 161.503C351.83 160.907 351.602 160.267 351.452 159.602C351.177 158.157 351.555 156.663 351.452 155.194C351.349 153.896 350.864 152.681 350.623 151.412C350.378 149.762 350.336 148.08 350.499 146.416C350.606 144.457 350.979 142.434 350.834 140.499C350.596 137.29 350.955 134.06 351.888 131.02C352.821 127.98 354.306 125.2 356.246 122.861L356.344 122.748C356.806 122.442 357.295 122.192 357.804 122.004C358.552 121.704 359.351 121.605 360.138 121.714C360.925 121.822 361.68 122.136 362.345 122.631C364.678 124.595 366.759 126.923 368.525 129.547C369.496 130.796 370.366 132.142 371.126 133.568C371.974 135.432 372.32 137.539 372.122 139.626C371.923 141.714 371.189 143.687 370.01 145.3Z" fill="black"/>
<path d="M361.932 120.182C361.267 119.691 360.511 119.382 359.723 119.277C358.936 119.173 358.138 119.276 357.392 119.579C355.896 120.194 354.554 121.214 353.482 122.552C352.41 123.799 351.483 125.196 350.722 126.711C349.992 128.18 349.434 129.718 348.705 131.183C347.417 133.803 345.735 136.115 344.044 138.408C342.992 139.833 341.928 141.278 340.58 142.326C339.232 143.375 337.726 144.016 336.812 145.471C336.524 145.931 336.318 146.451 336.035 146.916C335.138 148.415 333.614 149.218 332.288 150.222C328.485 153.112 326.12 157.922 322.567 161.199C321.034 162.61 319.305 163.717 317.798 165.157C316.395 166.494 315.223 168.096 313.824 169.467C312.425 170.839 310.781 171.97 308.957 172.098C310.176 175.198 311.631 178.24 313.721 180.655C315.811 183.07 318.944 184.612 321.798 183.667C322.811 183.334 323.803 182.629 324.189 181.512C324.311 180.938 324.48 180.379 324.695 179.842C324.982 179.411 325.354 179.063 325.781 178.828C337.239 171.195 348.16 162.56 358.447 153C361.207 150.433 363.945 148.136 366.778 145.652C367.794 144.83 368.733 143.891 369.581 142.85C370.762 141.24 371.5 139.268 371.702 137.18C371.903 135.093 371.56 132.984 370.714 131.119C369.954 129.692 369.084 128.347 368.113 127.098C366.347 124.474 364.266 122.145 361.932 120.182Z" fill="#218DBB"/>
<g opacity="0.1">
<path opacity="0.1" d="M351.773 112.771C350.915 112.771 349.924 112.682 349.374 111.85C348.876 111.095 348.945 109.993 349.134 109.043C349.323 108.093 349.645 107.152 349.563 106.178C349.387 104.218 347.885 103.013 347.417 101.211C347.112 100.03 347.782 99.5308 347.713 98.463C347.653 97.5372 346.773 97.0768 346.108 97.1992C345.366 97.3364 344.735 97.9095 344.031 98.2279C343.558 98.4373 343.052 98.5299 342.546 98.4995C342.04 98.4691 341.546 98.3164 341.095 98.0515C340.781 97.8773 340.506 97.6225 340.292 97.307C339.717 96.3959 339.919 95.0734 340.271 94.0056C340.271 93.9664 340.301 93.9321 340.314 93.893C339.955 94.5484 339.653 95.2423 339.413 95.9649C339.061 97.0327 338.859 98.3552 339.434 99.2663C339.648 99.5817 339.922 99.8366 340.237 100.011C340.687 100.276 341.182 100.428 341.688 100.459C342.194 100.489 342.7 100.397 343.172 100.187C343.876 99.8688 344.507 99.2957 345.25 99.1585C345.915 99.0361 346.795 99.4965 346.855 100.422C346.924 101.49 346.254 101.99 346.559 103.17C347.018 104.973 348.52 106.197 348.705 108.137C348.791 109.117 348.477 110.057 348.276 111.002C348.074 111.948 348.018 113.055 348.516 113.809C349.065 114.642 350.048 114.72 350.915 114.73C351.782 114.74 352.898 114.671 353.447 113.75C353.684 113.288 353.84 112.777 353.907 112.247C353.323 112.722 352.507 112.78 351.773 112.771Z" fill="black"/>
<path opacity="0.1" d="M366.061 112.594C364.834 113.309 363.362 113.084 362.121 112.398C360.881 111.713 359.817 110.63 358.752 109.597C358.27 109.066 357.699 108.651 357.074 108.377C356.762 108.25 356.425 108.229 356.103 108.316C355.781 108.403 355.488 108.594 355.259 108.867C354.967 109.359 354.783 109.923 354.722 110.513C354.945 110.362 355.194 110.269 355.452 110.237C355.709 110.206 355.97 110.238 356.216 110.331C356.841 110.606 357.412 111.02 357.894 111.551C358.958 112.584 360.04 113.672 361.263 114.353C362.486 115.034 363.976 115.264 365.203 114.549C366.289 113.824 367.08 112.639 367.405 111.252C367.052 111.81 366.593 112.269 366.061 112.594Z" fill="black"/>
</g>
<path d="M259.247 323.163C266.359 323.163 272.123 316.584 272.123 308.468C272.123 300.353 266.359 293.774 259.247 293.774C252.136 293.774 246.372 300.353 246.372 308.468C246.372 316.584 252.136 323.163 259.247 323.163Z" fill="#3F3D56"/>
<path opacity="0.1" d="M259.247 323.163C266.359 323.163 272.123 316.584 272.123 308.468C272.123 300.353 266.359 293.774 259.247 293.774C252.136 293.774 246.372 300.353 246.372 308.468C246.372 316.584 252.136 323.163 259.247 323.163Z" fill="black"/>
<path d="M259.247 317.775C263.751 317.775 267.402 313.608 267.402 308.468C267.402 303.328 263.751 299.162 259.247 299.162C254.744 299.162 251.093 303.328 251.093 308.468C251.093 313.608 254.744 317.775 259.247 317.775Z" fill="#65617D"/>
<path opacity="0.1" d="M259.247 317.775C263.751 317.775 267.402 313.608 267.402 308.468C267.402 303.328 263.751 299.162 259.247 299.162C254.744 299.162 251.093 303.328 251.093 308.468C251.093 313.608 254.744 317.775 259.247 317.775Z" fill="black"/>
<path d="M249.376 285.447L257.822 307.244C257.948 307.57 258.153 307.849 258.413 308.047C258.673 308.246 258.978 308.355 259.29 308.362C259.603 308.369 259.911 308.274 260.178 308.088C260.445 307.902 260.66 307.633 260.797 307.312L270.836 283.977L249.376 285.447Z" fill="#3F3D56"/>
<path opacity="0.1" d="M249.376 285.447L257.822 307.244C257.948 307.57 258.153 307.849 258.413 308.047C258.673 308.246 258.978 308.355 259.29 308.362C259.603 308.369 259.911 308.274 260.178 308.088C260.445 307.902 260.66 307.633 260.797 307.312L270.836 283.977L249.376 285.447Z" fill="black"/>
<path d="M178.988 323.163C186.099 323.163 191.864 316.584 191.864 308.468C191.864 300.353 186.099 293.774 178.988 293.774C171.877 293.774 166.112 300.353 166.112 308.468C166.112 316.584 171.877 323.163 178.988 323.163Z" fill="#3F3D56"/>
<path opacity="0.1" d="M178.988 323.163C186.099 323.163 191.864 316.584 191.864 308.468C191.864 300.353 186.099 293.774 178.988 293.774C171.877 293.774 166.112 300.353 166.112 308.468C166.112 316.584 171.877 323.163 178.988 323.163Z" fill="black"/>
<path d="M178.988 317.775C183.492 317.775 187.143 313.608 187.143 308.468C187.143 303.328 183.492 299.162 178.988 299.162C174.484 299.162 170.833 303.328 170.833 308.468C170.833 313.608 174.484 317.775 178.988 317.775Z" fill="#65617D"/>
<path opacity="0.1" d="M178.988 317.775C183.492 317.775 187.143 313.608 187.143 308.468C187.143 303.328 183.492 299.162 178.988 299.162C174.484 299.162 170.833 303.328 170.833 308.468C170.833 313.608 174.484 317.775 178.988 317.775Z" fill="black"/>
<path d="M169.116 285.447L177.563 307.244C177.689 307.57 177.894 307.849 178.154 308.047C178.414 308.246 178.718 308.355 179.031 308.362C179.343 308.369 179.651 308.274 179.918 308.088C180.185 307.902 180.4 307.633 180.537 307.312L190.576 283.977L169.116 285.447Z" fill="#3F3D56"/>
<path opacity="0.1" d="M169.116 285.447L177.563 307.244C177.689 307.57 177.894 307.849 178.154 308.047C178.414 308.246 178.718 308.355 179.031 308.362C179.343 308.369 179.651 308.274 179.918 308.088C180.185 307.902 180.4 307.633 180.537 307.312L190.576 283.977L169.116 285.447Z" fill="black"/>
<path d="M301.034 180.503C300.999 180.132 300.882 179.777 300.696 179.47C300.509 179.164 300.258 178.916 299.965 178.749C299.719 178.63 299.454 178.567 299.186 178.567C298.918 178.566 298.653 178.627 298.407 178.746C298.16 178.865 297.937 179.039 297.75 179.259C297.564 179.478 297.418 179.738 297.321 180.023L289.935 200.953L287.789 294.998H291.223L292.51 201.154L300.854 181.923C301.043 181.483 301.106 180.986 301.034 180.503Z" fill="#3F3D56"/>
<path d="M149.159 287.651L160.747 279.324L285.858 278.099L289.077 287.651H149.159Z" fill="#70A288"/>
<path d="M149.159 296.468V287.651L291.343 286.083L291.205 292.059H151.734V296.468H149.159Z" fill="#3F3D56"/>
<path d="M167.185 328.306C174.296 328.306 180.061 321.727 180.061 313.611C180.061 305.496 174.296 298.917 167.185 298.917C160.074 298.917 154.309 305.496 154.309 313.611C154.309 321.727 160.074 328.306 167.185 328.306Z" fill="#3F3D56"/>
<path d="M167.185 322.918C171.689 322.918 175.34 318.751 175.34 313.611C175.34 308.472 171.689 304.305 167.185 304.305C162.681 304.305 159.03 308.472 159.03 313.611C159.03 318.751 162.681 322.918 167.185 322.918Z" fill="#65617D"/>
<path d="M157.313 290.59L165.76 312.387C165.886 312.714 166.091 312.992 166.351 313.191C166.611 313.389 166.915 313.498 167.228 313.505C167.541 313.512 167.848 313.417 168.115 313.231C168.382 313.045 168.597 312.776 168.734 312.455L178.773 289.12L157.313 290.59Z" fill="#3F3D56"/>
<path d="M267.188 328.306C274.299 328.306 280.063 321.727 280.063 313.611C280.063 305.496 274.299 298.917 267.188 298.917C260.076 298.917 254.312 305.496 254.312 313.611C254.312 321.727 260.076 328.306 267.188 328.306Z" fill="#3F3D56"/>
<path d="M267.188 322.918C271.691 322.918 275.342 318.751 275.342 313.611C275.342 308.472 271.691 304.305 267.188 304.305C262.684 304.305 259.033 308.472 259.033 313.611C259.033 318.751 262.684 322.918 267.188 322.918Z" fill="#65617D"/>
<path d="M257.316 290.59L265.763 312.387C265.888 312.714 266.093 312.992 266.354 313.191C266.614 313.389 266.918 313.498 267.231 313.505C267.543 313.512 267.851 313.417 268.118 313.231C268.385 313.045 268.6 312.776 268.737 312.455L278.776 289.12L257.316 290.59Z" fill="#3F3D56"/>
<path d="M218.903 249.2H165.254V282.998H218.903V249.2Z" fill="#DAB785"/>
<path opacity="0.1" d="M200.448 255.078H184.138V258.997H200.448V255.078Z" fill="black"/>
<path opacity="0.1" d="M198.409 255.568H186.177V258.507H198.409V255.568Z" fill="black"/>
<path d="M273.411 249.2H219.761V282.998H273.411V249.2Z" fill="#DAB785"/>
<path opacity="0.1" d="M254.955 255.078H238.646V258.997H254.955V255.078Z" fill="black"/>
<path opacity="0.1" d="M252.917 255.568H240.685V258.507H252.917V255.568Z" fill="black"/>
<path d="M218.903 214.423H165.254V248.22H218.903V214.423Z" fill="#DAB785"/>
<path opacity="0.1" d="M200.448 220.301H184.138V224.219H200.448V220.301Z" fill="black"/>
<path opacity="0.1" d="M198.409 220.791H186.177V223.729H198.409V220.791Z" fill="black"/>
<path d="M273.411 214.423H219.761V248.22H273.411V214.423Z" fill="#DAB785"/>
<path opacity="0.1" d="M254.955 220.301H238.646V224.219H254.955V220.301Z" fill="black"/>
<path opacity="0.1" d="M252.917 220.791H240.685V223.729H252.917V220.791Z" fill="black"/>
<path d="M218.903 179.156H165.254V212.953H218.903V179.156Z" fill="#DAB785"/>
<path opacity="0.1" d="M200.448 185.034H184.138V188.952H200.448V185.034Z" fill="black"/>
<path opacity="0.1" d="M198.409 185.524H186.177V188.462H198.409V185.524Z" fill="black"/>
<path d="M273.411 179.156H219.761V212.953H273.411V179.156Z" fill="#DAB785"/>
<path opacity="0.1" d="M254.955 185.034H238.646V188.952H254.955V185.034Z" fill="black"/>
<path opacity="0.1" d="M252.917 185.524H240.685V188.462H252.917V185.524Z" fill="black"/>
<path d="M273.411 143.889H219.761V177.686H273.411V143.889Z" fill="#DAB785"/>
<path opacity="0.1" d="M254.955 149.767H238.646V153.685H254.955V149.767Z" fill="black"/>
<path opacity="0.1" d="M252.917 150.257H240.685V153.195H252.917V150.257Z" fill="black"/>
<g clip-path="url(#clip0)">
<path d="M195.693 49.2417C190.899 49.2417 187.013 44.8941 187.013 39.5311C187.013 34.1681 190.899 29.8206 195.693 29.8206C200.486 29.8206 204.372 34.1681 204.372 39.5311C204.372 44.8941 200.486 49.2417 195.693 49.2417Z" fill="#30B0E6"/>
<path d="M195.693 46.0823C192.459 46.0823 189.837 43.1492 189.837 39.531C189.837 35.9129 192.459 32.9797 195.693 32.9797C198.927 32.9797 201.548 35.9129 201.548 39.531C201.548 43.1492 198.927 46.0823 195.693 46.0823Z" fill="#30B0E6"/>
<path opacity="0.2" d="M195.693 46.0823C192.459 46.0823 189.837 43.1492 189.837 39.531C189.837 35.9129 192.459 32.9797 195.693 32.9797C198.927 32.9797 201.548 35.9129 201.548 39.531C201.548 43.1492 198.927 46.0823 195.693 46.0823Z" fill="#F5F5F5"/>
<path d="M195.693 43.821C193.575 43.821 191.858 41.9003 191.858 39.531C191.858 37.1618 193.575 35.2411 195.693 35.2411C197.81 35.2411 199.527 37.1618 199.527 39.531C199.527 41.9003 197.81 43.821 195.693 43.821Z" fill="#30B0E6"/>
<path opacity="0.25" d="M195.693 43.821C193.575 43.821 191.858 41.9003 191.858 39.531C191.858 37.1618 193.575 35.2411 195.693 35.2411C197.81 35.2411 199.527 37.1618 199.527 39.531C199.527 41.9003 197.81 43.821 195.693 43.821Z" fill="black"/>
<path d="M209.222 25.0745C209.222 25.0745 220.929 36.5999 219.316 59.4035C219.316 59.4035 217.901 62.3395 214.267 59.4035C214.267 59.4035 217.294 30.4904 197.107 25.0698L209.222 25.0745Z" fill="#30B0E6"/>
<path d="M182.168 25.0745C182.168 25.0745 170.456 36.5999 172.057 59.4035C172.057 59.4035 173.471 62.3395 177.106 59.4035C177.106 59.4035 174.078 30.4904 194.266 25.0698L182.168 25.0745Z" fill="#30B0E6"/>
<path d="M188.843 8H204.691C210.127 8 214.534 12.9303 214.534 19.0122C214.534 25.0942 210.127 30.0246 204.691 30.0246H188.843C183.407 30.0246 179 25.0942 179 19.0122C179 12.9303 183.407 8 188.843 8Z" fill="#30B0E6"/>
<path d="M208.347 22.452L236.072 21.5826C237.155 21.5492 238.183 21.0445 238.938 20.1759C239.693 19.3072 240.115 18.1433 240.115 16.9317V15.744C240.115 14.5466 239.702 13.3954 238.962 12.53C238.223 11.6646 237.213 11.1515 236.144 11.0977L208.419 9.70575C207.858 9.67751 207.298 9.77676 206.772 9.99752C206.246 10.2183 205.766 10.556 205.36 10.9902C204.954 11.4244 204.631 11.9462 204.41 12.524C204.189 13.1018 204.075 13.7236 204.075 14.352V17.8058C204.075 18.4271 204.187 19.0421 204.403 19.6143C204.62 20.1866 204.936 20.7045 205.335 21.1376C205.733 21.5707 206.205 21.9102 206.722 22.1359C207.239 22.3617 207.792 22.4692 208.347 22.452Z" fill="#30B0E6"/>
<path d="M183.242 22.452L155.517 21.5826C154.435 21.5492 153.406 21.0445 152.651 20.1759C151.896 19.3072 151.474 18.1433 151.475 16.9317V15.744C151.475 14.5466 151.887 13.3954 152.627 12.53C153.366 11.6646 154.376 11.1515 155.445 11.0977L183.17 9.70575C183.731 9.67751 184.291 9.77676 184.817 9.99752C185.343 10.2183 185.824 10.556 186.23 10.9902C186.636 11.4244 186.959 11.9462 187.179 12.524C187.4 13.1018 187.514 13.7236 187.514 14.352V17.8058C187.514 18.4271 187.402 19.0421 187.186 19.6143C186.969 20.1866 186.653 20.7045 186.255 21.1376C185.856 21.5707 185.385 21.9102 184.867 22.1359C184.35 22.3617 183.797 22.4692 183.242 22.452Z" fill="#30B0E6"/>
<path opacity="0.2" d="M208.347 22.452L236.072 21.5826C237.155 21.5492 238.183 21.0445 238.938 20.1759C239.693 19.3072 240.115 18.1433 240.115 16.9317V15.744C240.115 14.5466 239.702 13.3954 238.962 12.53C238.223 11.6646 237.213 11.1515 236.144 11.0977L208.419 9.70575C207.858 9.67751 207.298 9.77676 206.772 9.99752C206.246 10.2183 205.766 10.556 205.36 10.9902C204.954 11.4244 204.631 11.9462 204.41 12.524C204.189 13.1018 204.075 13.7236 204.075 14.352V17.8058C204.075 18.4271 204.187 19.0421 204.403 19.6143C204.62 20.1866 204.936 20.7045 205.335 21.1376C205.733 21.5707 206.205 21.9102 206.722 22.1359C207.239 22.3617 207.792 22.4692 208.347 22.452Z" fill="#F5F5F5"/>
<path opacity="0.2" d="M183.242 22.452L155.517 21.5826C154.435 21.5492 153.406 21.0445 152.651 20.1759C151.896 19.3072 151.474 18.1433 151.475 16.9317V15.744C151.475 14.5466 151.887 13.3954 152.627 12.53C153.366 11.6646 154.376 11.1515 155.445 11.0977L183.17 9.70575C183.731 9.67751 184.291 9.77676 184.817 9.99752C185.343 10.2183 185.824 10.556 186.23 10.9902C186.636 11.4244 186.959 11.9462 187.179 12.524C187.4 13.1018 187.514 13.7236 187.514 14.352V17.8058C187.514 18.4271 187.402 19.0421 187.186 19.6143C186.969 20.1866 186.653 20.7045 186.255 21.1376C185.856 21.5707 185.385 21.9102 184.867 22.1359C184.35 22.3617 183.797 22.4692 183.242 22.452Z" fill="#F5F5F5"/>
<path d="M242.633 9.03595H243.847C246.467 9.03595 248.59 11.4118 248.59 14.3425V17.0552C248.59 19.986 246.467 22.3618 243.847 22.3618H242.633C240.013 22.3618 237.889 19.986 237.889 17.0552V14.3425C237.889 11.4118 240.013 9.03595 242.633 9.03595Z" fill="#30B0E6"/>
<path d="M147.538 9.03595H148.752C151.372 9.03595 153.496 11.4118 153.496 14.3425V17.0552C153.496 19.986 151.372 22.3618 148.752 22.3618H147.538C144.918 22.3618 142.795 19.986 142.795 17.0552V14.3425C142.795 11.4118 144.918 9.03595 147.538 9.03595Z" fill="#30B0E6"/>
<path d="M241.525 6.09998H244.756C245.647 6.09998 246.369 6.90823 246.369 7.90526V7.91001C246.369 8.90705 245.647 9.7153 244.756 9.7153H241.525C240.633 9.7153 239.911 8.90705 239.911 7.91001V7.90526C239.911 6.90823 240.633 6.09998 241.525 6.09998Z" fill="#30B0E6"/>
<path d="M240.918 2.71268C240.918 1.21451 242.002 0 243.339 0C244.678 0 245.762 1.21451 245.762 2.71268V5.42062C245.762 6.91879 244.678 8.1333 243.339 8.1333C242.002 8.1333 240.918 6.91879 240.918 5.42062V2.71268Z" fill="#30B0E6"/>
<path d="M255.86 6.09998C248.388 6.09998 242.331 5.18963 242.331 4.06665C242.331 2.94368 248.388 2.03333 255.86 2.03333C263.332 2.03333 269.389 2.94368 269.389 4.06665C269.389 5.18963 263.332 6.09998 255.86 6.09998Z" fill="#30B0E6"/>
<path d="M230.823 6.09998C223.351 6.09998 217.294 5.18963 217.294 4.06665C217.294 2.94368 223.351 2.03333 230.823 2.03333C238.296 2.03333 244.352 2.94368 244.352 4.06665C244.352 5.18963 238.296 6.09998 230.823 6.09998Z" fill="#30B0E6"/>
<path d="M146.23 6.09998H149.462C150.353 6.09998 151.075 6.90823 151.075 7.90526V7.91001C151.075 8.90705 150.353 9.7153 149.462 9.7153H146.23C145.339 9.7153 144.616 8.90705 144.616 7.91001V7.90526C144.616 6.90823 145.339 6.09998 146.23 6.09998Z" fill="#30B0E6"/>
<path d="M145.623 2.71268C145.623 1.21451 146.708 0 148.045 0C149.383 0 150.468 1.21451 150.468 2.71268V5.42062C150.468 6.91879 149.383 8.1333 148.045 8.1333C146.708 8.1333 145.623 6.91879 145.623 5.42062V2.71268Z" fill="#30B0E6"/>
<path d="M160.562 6.09998C153.09 6.09998 147.033 5.18963 147.033 4.06665C147.033 2.94368 153.09 2.03333 160.562 2.03333C168.034 2.03333 174.091 2.94368 174.091 4.06665C174.091 5.18963 168.034 6.09998 160.562 6.09998Z" fill="#30B0E6"/>
<path d="M135.529 6.09998C128.057 6.09998 122 5.18963 122 4.06665C122 2.94368 128.057 2.03333 135.529 2.03333C143.001 2.03333 149.058 2.94368 149.058 4.06665C149.058 5.18963 143.001 6.09998 135.529 6.09998Z" fill="#30B0E6"/>
<path opacity="0.2" d="M255.86 6.09998C248.388 6.09998 242.331 5.18963 242.331 4.06665C242.331 2.94368 248.388 2.03333 255.86 2.03333C263.332 2.03333 269.389 2.94368 269.389 4.06665C269.389 5.18963 263.332 6.09998 255.86 6.09998Z" fill="#F5F5F5"/>
<path opacity="0.2" d="M230.823 6.09998C223.351 6.09998 217.294 5.18963 217.294 4.06665C217.294 2.94368 223.351 2.03333 230.823 2.03333C238.296 2.03333 244.352 2.94368 244.352 4.06665C244.352 5.18963 238.296 6.09998 230.823 6.09998Z" fill="#F5F5F5"/>
<path opacity="0.2" d="M160.562 6.09998C153.09 6.09998 147.033 5.18963 147.033 4.06665C147.033 2.94368 153.09 2.03333 160.562 2.03333C168.034 2.03333 174.091 2.94368 174.091 4.06665C174.091 5.18963 168.034 6.09998 160.562 6.09998Z" fill="#F5F5F5"/>
<path opacity="0.2" d="M135.529 6.09998C128.057 6.09998 122 5.18963 122 4.06665C122 2.94368 128.057 2.03333 135.529 2.03333C143.001 2.03333 149.058 2.94368 149.058 4.06665C149.058 5.18963 143.001 6.09998 135.529 6.09998Z" fill="#F5F5F5"/>
<path d="M190.848 23.2645H200.538C202.323 23.2645 203.769 24.8821 203.769 26.8775C203.769 28.8729 202.323 30.4904 200.538 30.4904H190.848C189.063 30.4904 187.616 28.8729 187.616 26.8775C187.616 24.8821 189.063 23.2645 190.848 23.2645Z" fill="#30B0E6"/>
<path opacity="0.2" d="M190.848 23.2645H200.538C202.323 23.2645 203.769 24.8821 203.769 26.8775C203.769 28.8729 202.323 30.4904 200.538 30.4904H190.848C189.063 30.4904 187.616 28.8729 187.616 26.8775C187.616 24.8821 189.063 23.2645 190.848 23.2645Z" fill="#F5F5F5"/>
<path d="M197.344 56.078C195.816 58.5009 196.071 61.6221 196.071 61.6221C196.071 61.6221 198.78 60.8193 200.317 58.3964C201.854 55.9735 202.44 53.4936 201.591 52.8522C200.742 52.2109 198.873 53.6504 197.344 56.078Z" fill="#67647E"/>
<path d="M194.758 56.078C196.287 58.5009 196.032 61.6221 196.032 61.6221C196.032 61.6221 193.323 60.8193 191.786 58.3964C190.249 55.9735 189.663 53.4936 190.512 52.8522C191.361 52.2109 193.23 53.6504 194.758 56.078Z" fill="#67647E"/>
<path d="M224.237 61H167V96.2808H224.237V61Z" fill="#DAB785"/>
<path opacity="0.1" d="M204.547 67.1358H187.147V71.2263H204.547V67.1358Z" fill="black"/>
<path opacity="0.1" d="M202.372 67.6471H189.322V70.715H202.372V67.6471Z" fill="black"/>
<g opacity="0.6">
<path d="M198.345 82.1053C198.345 84.2562 196.602 86 194.45 86C193.856 86 193.292 85.867 192.788 85.6287C192.833 85.6309 192.878 85.6314 192.923 85.6314C194.72 85.6314 196.178 84.1742 196.178 82.3769C196.178 81.7469 195.999 81.1582 195.688 80.66C195.668 80.6271 195.647 80.5949 195.626 80.5631C195.625 80.5611 195.623 80.5592 195.622 80.557C195.541 80.4125 195.495 80.2459 195.495 80.0684C195.495 79.5135 195.945 79.0643 196.5 79.0643C196.777 79.0643 197.028 79.1766 197.21 79.358C197.912 80.0613 198.345 81.0332 198.345 82.1053Z" fill="#1D2130"/>
<path d="M192.79 82.6422C192.088 81.9387 191.655 80.9668 191.655 79.8947C191.655 77.7441 193.398 76 195.55 76C196.144 76 196.708 76.1332 197.212 76.3713C197.167 76.3693 197.122 76.3686 197.077 76.3686C195.279 76.3686 193.822 77.8262 193.822 79.623C193.822 80.2531 194.001 80.8418 194.311 81.34C194.332 81.373 194.353 81.4053 194.374 81.4369C194.375 81.4391 194.377 81.4408 194.378 81.443C194.459 81.5877 194.504 81.7543 194.504 81.932C194.504 82.4869 194.055 82.9361 193.5 82.9361C193.222 82.9361 192.971 82.8238 192.79 82.6422Z" fill="#1D2130"/>
</g>
</g>
<defs>
<linearGradient id="paint0_linear" x1="367.761" y1="322.742" x2="367.761" y2="86.0901" gradientUnits="userSpaceOnUse">
<stop stop-color="#808080" stop-opacity="0.25"/>
<stop offset="0.54" stop-color="#808080" stop-opacity="0.12"/>
<stop offset="1" stop-color="#808080" stop-opacity="0.1"/>
</linearGradient>
<clipPath id="clip0">
<rect width="148" height="102" fill="white" transform="translate(122)"/>
</clipPath>
</defs>
</svg>
