<svg width="494" height="378" viewBox="0 0 494 378" fill="none" xmlns="http://www.w3.org/2000/svg">
<g clip-path="url(#clip0)">
<path opacity="0.1" d="M482.029 257.007C481.586 257.329 481.179 257.642 480.745 257.947C479.145 259.074 477.47 260.093 475.731 260.994C466.623 265.779 455.395 268.117 444.459 269.704C419.932 273.268 394.891 273.96 369.957 274.64C302.585 276.483 235.049 278.322 167.84 274.075C141.286 272.399 114.148 269.594 90.0851 260.994C86.636 259.765 83.2547 258.41 79.9414 256.928C73.2365 253.924 66.7971 250.268 61.442 245.902C56.41 241.809 52.3295 237.108 49.8909 231.763C44.8058 220.631 47.4966 208.128 53.3031 197.216C55.7147 192.802 58.4343 188.562 61.442 184.528C65.9252 178.384 70.8687 172.417 75.3785 166.278C91.426 144.456 101.897 116.847 87.0844 94.4647C82.8269 88.0345 76.6752 82.3893 73.2055 75.6768C68.7798 67.0899 69.1206 57.5547 70.5279 48.2931C70.7109 47.117 70.9041 45.9526 71.1077 44.8001C73.5108 31.0663 78.0339 16.2697 91.9793 7.69602C106.465 -1.21283 127.035 -0.762977 145.012 2.40364C172.969 7.37848 198.758 17.7339 224.821 27.0838C250.884 36.4337 278.15 44.9765 306.793 45.8938C332.086 46.7053 361.588 40.6323 378.375 24.8478C394.679 9.51749 425.327 8.34875 447.415 17.6104C462.578 23.9657 473.89 35.4149 478.661 48.2931C479.627 50.8785 480.323 53.5566 480.736 56.2846C481.119 58.7777 481.243 61.3033 481.108 63.8218C481.042 65.0655 480.913 66.296 480.736 67.5132C477.045 92.9255 450.478 112.97 434.329 135.67C426.438 146.758 420.866 160.077 426.292 172.033C434.568 190.253 463.348 196.731 480.728 210.289C483.998 212.756 486.878 215.7 489.269 219.021C497.7 231.088 494.589 247.384 482.029 257.007Z" fill="#6C63FF"/>
<path d="M114.179 143.274C114.179 143.274 93.8204 107.321 63.1415 96.9654C50.2671 92.6168 39.0303 84.4401 31.3473 73.2643C27.71 67.9583 24.5693 62.3306 21.9648 56.4521" stroke="#535461" stroke-width="2" stroke-miterlimit="10"/>
<path d="M2.67316 49.797C6.16946 53.1621 22.4471 56.6903 22.4471 56.6903C22.4471 56.6903 18.464 40.5838 14.9589 37.2011C13.274 35.6111 11.0282 34.7469 8.70826 34.7956C6.38832 34.8443 4.18109 35.8021 2.56491 37.4614C0.948734 39.1207 0.0538049 41.3479 0.0740672 43.6602C0.0943295 45.9725 1.02815 48.1837 2.67316 49.8146V49.797Z" fill="#6C63FF"/>
<path d="M11.883 78.9448C16.6584 79.8886 32.2412 74.0096 32.2412 74.0096C32.2412 74.0096 20.0927 62.6486 15.313 61.7048C13.0413 61.3062 10.7033 61.8102 8.80013 63.1088C6.89692 64.4075 5.5799 66.3973 5.13133 68.652C4.68275 70.9067 5.13832 73.2468 6.40039 75.1708C7.66246 77.0948 9.63061 78.4496 11.883 78.9448Z" fill="#6C63FF"/>
<path d="M45.4077 110.496C50.0104 108.909 60.455 95.9995 60.455 95.9995C60.455 95.9995 44.2216 92.2993 39.6233 93.887C38.495 94.2363 37.4487 94.8079 36.5463 95.5679C35.644 96.3279 34.9041 97.2608 34.3705 98.3112C33.8369 99.3617 33.5205 100.508 33.4401 101.683C33.3597 102.857 33.5169 104.036 33.9025 105.149C34.288 106.262 34.8939 107.286 35.6843 108.162C36.4747 109.037 37.4335 109.744 38.5037 110.243C39.5739 110.742 40.7338 111.021 41.9144 111.065C43.0951 111.108 44.2725 110.915 45.3767 110.496H45.4077Z" fill="#6C63FF"/>
<path d="M76.1662 128.662C80.9725 127.869 93.4706 116.909 93.4706 116.909C93.4706 116.909 78.1002 110.527 73.2939 111.317C70.9857 111.696 68.9233 112.974 67.5605 114.869C66.1977 116.764 65.646 119.12 66.0269 121.421C66.4078 123.721 67.69 125.776 69.5915 127.134C71.493 128.492 73.858 129.042 76.1662 128.662Z" fill="#6C63FF"/>
<path d="M45.8014 61.4226C45.8014 66.274 36.9943 80.3561 36.9943 80.3561C36.9943 80.3561 28.1695 66.2828 28.1651 61.4314C28.1387 60.2609 28.3474 59.0968 28.7787 58.0077C29.21 56.9186 29.8554 55.9264 30.6768 55.0892C31.4983 54.2521 32.4793 53.5869 33.5622 53.1328C34.6452 52.6787 35.8083 52.4448 36.9832 52.4448C38.1582 52.4448 39.3213 52.6787 40.4042 53.1328C41.4872 53.5869 42.4682 54.2521 43.2897 55.0892C44.1111 55.9264 44.7565 56.9186 45.1878 58.0077C45.6191 59.0968 45.8278 60.2609 45.8014 61.4314V61.4226Z" fill="#6C63FF"/>
<path d="M81.5081 83.1522C80.052 87.7831 67.4166 98.5884 67.4166 98.5884C67.4166 98.5884 63.2211 82.5127 64.6594 77.8598C65.4325 75.7295 67.0011 73.9788 69.038 72.973C71.0749 71.9672 73.4229 71.7839 75.5921 72.4615C77.7614 73.139 79.5843 74.625 80.6808 76.6094C81.7772 78.5939 82.0625 80.9236 81.4771 83.1125L81.5081 83.1522Z" fill="#6C63FF"/>
<path d="M113.302 108.975C112.656 113.786 102.034 126.563 102.034 126.563C102.034 126.563 95.1746 111.444 95.8385 106.633C96.1822 104.351 97.4128 102.295 99.2647 100.909C101.117 99.5229 103.441 98.9184 105.736 99.2259C108.032 99.5334 110.113 100.728 111.532 102.552C112.951 104.376 113.593 106.683 113.32 108.975H113.302Z" fill="#6C63FF"/>
<path opacity="0.25" d="M2.67316 49.797C6.16946 53.1621 22.4471 56.6903 22.4471 56.6903C22.4471 56.6903 18.464 40.5838 14.9589 37.2011C13.274 35.6111 11.0282 34.7469 8.70826 34.7956C6.38832 34.8443 4.18109 35.8021 2.56491 37.4614C0.948734 39.1207 0.0538049 41.3479 0.0740672 43.6602C0.0943295 45.9725 1.02815 48.1837 2.67316 49.8146V49.797Z" fill="black"/>
<path opacity="0.25" d="M11.883 78.9448C16.6584 79.8886 32.2412 74.0096 32.2412 74.0096C32.2412 74.0096 20.0927 62.6486 15.313 61.7048C13.0413 61.3062 10.7033 61.8102 8.80013 63.1088C6.89692 64.4075 5.5799 66.3973 5.13133 68.652C4.68275 70.9067 5.13832 73.2468 6.40039 75.1708C7.66246 77.0948 9.63061 78.4496 11.883 78.9448Z" fill="black"/>
<path opacity="0.25" d="M45.4077 110.496C50.0104 108.909 60.455 95.9995 60.455 95.9995C60.455 95.9995 44.2216 92.2993 39.6233 93.887C38.495 94.2363 37.4487 94.8079 36.5463 95.5679C35.644 96.3279 34.9041 97.2608 34.3705 98.3112C33.8369 99.3617 33.5205 100.508 33.4401 101.683C33.3597 102.857 33.5169 104.036 33.9025 105.149C34.288 106.262 34.8939 107.286 35.6843 108.162C36.4747 109.037 37.4335 109.744 38.5037 110.243C39.5739 110.742 40.7338 111.021 41.9144 111.065C43.0951 111.108 44.2725 110.915 45.3767 110.496H45.4077Z" fill="black"/>
<path opacity="0.25" d="M76.1662 128.662C80.9725 127.869 93.4706 116.909 93.4706 116.909C93.4706 116.909 78.1002 110.527 73.2939 111.317C70.9857 111.696 68.9233 112.974 67.5605 114.869C66.1977 116.764 65.646 119.12 66.0269 121.421C66.4078 123.721 67.69 125.776 69.5915 127.134C71.493 128.492 73.858 129.042 76.1662 128.662Z" fill="black"/>
<path opacity="0.25" d="M45.8014 61.4226C45.8014 66.274 36.9943 80.3561 36.9943 80.3561C36.9943 80.3561 28.1695 66.2828 28.1651 61.4314C28.1387 60.2609 28.3474 59.0968 28.7787 58.0077C29.21 56.9186 29.8554 55.9264 30.6768 55.0892C31.4983 54.2521 32.4793 53.5869 33.5622 53.1328C34.6452 52.6787 35.8083 52.4448 36.9832 52.4448C38.1582 52.4448 39.3213 52.6787 40.4042 53.1328C41.4872 53.5869 42.4682 54.2521 43.2897 55.0892C44.1111 55.9264 44.7565 56.9186 45.1878 58.0077C45.6191 59.0968 45.8278 60.2609 45.8014 61.4314V61.4226Z" fill="black"/>
<path opacity="0.25" d="M81.5081 83.1522C80.052 87.7831 67.4166 98.5884 67.4166 98.5884C67.4166 98.5884 63.2211 82.5127 64.6594 77.8598C65.4325 75.7295 67.0011 73.9788 69.038 72.973C71.0749 71.9672 73.4229 71.7839 75.5921 72.4615C77.7614 73.139 79.5843 74.625 80.6808 76.6094C81.7772 78.5939 82.0625 80.9236 81.4771 83.1125L81.5081 83.1522Z" fill="black"/>
<path opacity="0.25" d="M113.302 108.975C112.656 113.786 102.034 126.563 102.034 126.563C102.034 126.563 95.1746 111.444 95.8385 106.633C96.1822 104.351 97.4128 102.295 99.2647 100.909C101.117 99.5229 103.441 98.9184 105.736 99.2259C108.032 99.5334 110.113 100.728 111.532 102.552C112.951 104.376 113.593 106.683 113.32 108.975H113.302Z" fill="black"/>
<path d="M113.006 142.559C113.006 142.559 109.023 101.464 85.177 79.6064C75.1794 70.4329 68.231 58.4368 65.7482 45.1C64.5828 38.7787 64.0021 32.3642 64.0133 25.9371" stroke="#535461" stroke-width="2" stroke-miterlimit="10"/>
<path d="M49.0765 12.0755C50.8999 16.5784 64.3585 26.3473 64.3585 26.3473C64.3585 26.3473 67.2573 10.007 65.4383 5.5041C64.5639 3.34017 62.8626 1.61104 60.7088 0.697101C58.555 -0.21684 56.1251 -0.240728 53.9537 0.630691C51.7822 1.50211 50.047 3.19746 49.1299 5.34377C48.2128 7.49008 48.1888 9.91155 49.0633 12.0755H49.0765Z" fill="#6C63FF"/>
<path d="M45.6288 42.4406C49.612 45.2323 66.2393 46.1452 66.2393 46.1452C66.2393 46.1452 59.7911 30.859 55.8079 28.0673C53.8953 26.7222 51.5247 26.1893 49.2178 26.5859C46.9109 26.9825 44.8566 28.276 43.5067 30.1821C42.1569 32.0881 41.6221 34.4504 42.0201 36.7493C42.4181 39.0482 43.7162 41.0954 45.6288 42.4406Z" fill="#6C63FF"/>
<path d="M63.4689 84.8149C68.3372 85.2251 83.1367 77.6437 83.1367 77.6437C83.1367 77.6437 69.8021 67.7073 64.9471 67.3015C63.7789 67.1776 62.5977 67.2874 61.4727 67.6246C60.3478 67.9618 59.3017 68.5196 58.396 69.2651C57.4903 70.0107 56.7431 70.929 56.1984 71.9662C55.6537 73.0034 55.3224 74.1386 55.2239 75.3052C55.1254 76.4718 55.2618 77.6462 55.625 78.7595C55.9882 79.8728 56.571 80.9026 57.339 81.7884C58.107 82.6743 59.0449 83.3983 60.0975 83.918C61.1502 84.4377 62.2964 84.7427 63.4689 84.8149Z" fill="#6C63FF"/>
<path d="M84.1988 113.853C88.9166 115.07 104.8 110.095 104.8 110.095C104.8 110.095 93.3423 98.0547 88.6289 96.8375C86.3791 96.2943 84.0051 96.6543 82.0192 97.8399C80.0333 99.0255 78.5947 100.942 78.0139 103.175C77.433 105.408 77.7564 107.779 78.9144 109.777C80.0723 111.774 81.9719 113.238 84.2033 113.853H84.1988Z" fill="#6C63FF"/>
<path d="M83.7784 40.1207C81.809 44.5575 68.0274 53.8677 68.0274 53.8677C68.0274 53.8677 65.6817 37.4437 67.6512 33.0025C68.1073 31.928 68.7735 30.9547 69.611 30.1394C70.4484 29.3241 71.4404 28.6832 72.529 28.2538C73.6176 27.8245 74.7811 27.6155 75.9516 27.6389C77.1221 27.6623 78.2762 27.9177 79.3467 28.3902C80.4171 28.8626 81.3825 29.5427 82.1865 30.3908C82.9904 31.2389 83.6169 32.2381 84.0294 33.3299C84.4419 34.4218 84.6322 35.5846 84.5891 36.7505C84.546 37.9164 84.2704 39.0621 83.7784 40.1207Z" fill="#6C63FF"/>
<path d="M107.589 74.3801C104.375 78.0275 88.4297 82.8039 88.4297 82.8039C88.4297 82.8039 91.1205 66.4327 94.338 62.7854C95.102 61.9184 96.0298 61.2098 97.0686 60.7001C98.1074 60.1904 99.2367 59.8896 100.392 59.8149C101.548 59.7402 102.706 59.8929 103.803 60.2645C104.899 60.6361 105.911 61.2192 106.781 61.9805C107.651 62.7418 108.362 63.6665 108.873 64.7016C109.385 65.7368 109.687 66.8622 109.762 68.0136C109.837 69.165 109.683 70.3199 109.31 71.4123C108.938 72.5046 108.352 73.5131 107.589 74.3801Z" fill="#6C63FF"/>
<path d="M126.177 110.849C123.627 114.986 108.722 122.378 108.722 122.378C108.722 122.378 108.598 105.786 111.147 101.649C112.371 99.6607 114.338 98.2383 116.615 97.6949C118.891 97.1515 121.291 97.5316 123.287 98.7515C125.282 99.9715 126.709 101.931 127.255 104.2C127.8 106.469 127.419 108.861 126.194 110.849H126.177Z" fill="#6C63FF"/>
<path opacity="0.1" d="M180.639 375.627C207.9 375.627 229.999 372.76 229.999 369.223C229.999 365.687 207.9 362.82 180.639 362.82C153.378 362.82 131.279 365.687 131.279 369.223C131.279 372.76 153.378 375.627 180.639 375.627Z" fill="#6C63FF"/>
<path opacity="0.1" d="M80.9369 371.287C89.218 371.287 95.9311 370.142 95.9311 368.729C95.9311 367.317 89.218 366.172 80.9369 366.172C72.6558 366.172 65.9426 367.317 65.9426 368.729C65.9426 370.142 72.6558 371.287 80.9369 371.287Z" fill="#6C63FF"/>
<path d="M84.1942 340.248C84.1942 340.248 86.6239 343.419 83.0701 348.186C79.5162 352.954 76.5864 357.007 77.7592 359.993C77.7592 359.993 83.1187 351.106 87.4958 350.982C91.8728 350.859 89.0005 345.593 84.1942 340.248Z" fill="#6C63FF"/>
<path opacity="0.1" d="M84.1943 340.248C84.4065 340.554 84.5735 340.89 84.69 341.244C88.9475 346.228 91.2179 350.881 87.1241 350.996C83.3136 351.106 78.7374 357.898 77.6443 359.613C77.6804 359.746 77.7232 359.877 77.7726 360.006C77.7726 360.006 83.1321 351.119 87.5092 350.996C91.8862 350.872 89.0006 345.593 84.1943 340.248Z" fill="black"/>
<path d="M88.7129 344.287C88.7129 345.403 88.589 346.307 88.4341 346.307C88.2792 346.307 88.1509 345.425 88.1509 344.287C88.1509 343.15 88.3102 343.697 88.4651 343.697C88.62 343.697 88.7129 343.172 88.7129 344.287Z" fill="#FFD037"/>
<path d="M90.2663 345.619C89.2838 346.153 88.4252 346.475 88.35 346.338C88.2748 346.202 89.0138 345.659 89.9963 345.125C90.9788 344.592 90.5894 344.98 90.6646 345.125C90.7399 345.271 91.2488 345.086 90.2663 345.619Z" fill="#FFD037"/>
<path d="M71.3508 340.248C71.3508 340.248 68.9211 343.419 72.4749 348.186C76.0288 352.954 78.9586 357.007 77.7858 359.993C77.7858 359.993 72.4262 351.106 68.0492 350.982C63.6722 350.859 66.5533 345.593 71.3508 340.248Z" fill="#6C63FF"/>
<path opacity="0.1" d="M71.3509 340.248C71.1386 340.554 70.9717 340.89 70.8552 341.244C66.5977 346.228 64.3273 350.881 68.4211 350.996C72.236 351.106 76.8078 357.898 77.9009 359.613C77.8668 359.747 77.824 359.878 77.7726 360.006C77.7726 360.006 72.4131 351.119 68.036 350.996C63.659 350.872 66.5534 345.593 71.3509 340.248Z" fill="black"/>
<path d="M66.8323 344.287C66.8323 345.403 66.9562 346.307 67.1111 346.307C67.266 346.307 67.3943 345.425 67.3943 344.287C67.3943 343.15 67.235 343.697 67.0801 343.697C66.9252 343.697 66.8323 343.172 66.8323 344.287Z" fill="#FFD037"/>
<path d="M65.2832 345.619C66.2657 346.153 67.1199 346.475 67.1951 346.338C67.2704 346.202 66.5313 345.659 65.5488 345.125C64.5663 344.592 64.9557 344.98 64.8805 345.125C64.8053 345.271 64.3007 345.086 65.2832 345.619Z" fill="#FFD037"/>
<path d="M67.6067 359.591C67.6067 359.591 74.4046 359.38 76.4581 357.929C78.5116 356.478 86.9116 354.736 87.4205 357.069C87.9295 359.402 97.635 368.663 89.9609 368.725C82.2867 368.787 72.1297 367.534 70.0851 366.295C68.0404 365.056 67.6067 359.591 67.6067 359.591Z" fill="#A8A8A8"/>
<path opacity="0.2" d="M90.0936 367.914C82.4195 367.975 72.2625 366.723 70.2178 365.483C68.66 364.535 68.0404 361.144 67.8324 359.582H67.6067C67.6067 359.582 68.0493 365.042 70.0807 366.286C72.112 367.53 82.2823 368.778 89.9564 368.716C92.1693 368.716 92.9394 367.914 92.8951 366.749C92.5897 367.464 91.7444 367.9 90.0936 367.914Z" fill="black"/>
<path d="M294.618 359.331C294.618 359.331 275.906 358.206 278.115 371.274C278.115 371.274 277.672 373.581 279.774 374.631C279.774 374.631 279.81 373.665 281.695 373.991C282.366 374.104 283.048 374.136 283.727 374.088C284.646 374.028 285.52 373.668 286.214 373.065C286.214 373.065 291.471 370.904 293.516 362.335C293.516 362.335 295.03 360.465 294.972 359.984L291.812 361.307C291.812 361.307 292.892 363.578 292.042 365.466C292.042 365.466 291.941 361.391 291.334 361.497C291.21 361.497 289.692 362.282 289.692 362.282C289.692 362.282 291.551 366.251 290.135 369.109C290.135 369.109 290.666 364.257 289.099 362.568L286.886 363.86C286.886 363.86 289.055 367.944 287.586 371.279C287.586 371.279 287.962 366.167 286.422 364.174L284.408 365.739C284.408 365.739 286.444 369.766 285.2 372.531C285.2 372.531 285.041 366.582 283.97 366.132C283.97 366.132 282.2 367.68 281.939 368.337C281.939 368.337 283.333 371.257 282.47 372.8C282.47 372.8 281.939 368.831 281.5 368.831C281.5 368.831 279.73 371.477 279.562 373.241C279.562 373.241 279.642 370.564 281.076 368.562C280.063 368.754 279.13 369.237 278.389 369.951C278.389 369.951 278.664 368.094 281.487 367.931C281.487 367.931 282.939 365.938 283.328 365.819C283.328 365.819 280.496 365.581 278.779 366.339C278.779 366.339 280.288 364.575 283.846 365.382L285.833 363.768C285.833 363.768 282.107 363.256 280.522 363.821C280.522 363.821 282.346 362.268 286.369 363.38L288.537 362.092C288.537 362.092 285.355 361.408 283.461 361.651C283.461 361.651 285.461 360.575 289.17 361.739L290.719 361.047C290.719 361.047 288.387 360.606 287.705 360.522C287.024 360.438 286.988 360.262 286.988 360.262C288.464 360.016 289.979 360.184 291.365 360.747C291.365 360.747 294.676 359.538 294.618 359.331Z" fill="#6C63FF"/>
<path opacity="0.1" d="M281.73 378C289.044 378 294.972 377.001 294.972 375.768C294.972 374.536 289.044 373.537 281.73 373.537C274.417 373.537 268.489 374.536 268.489 375.768C268.489 377.001 274.417 378 281.73 378Z" fill="#6C63FF"/>
<path d="M261.837 360.028C261.837 360.028 251.286 359.393 252.543 366.763C252.48 367.136 252.536 367.52 252.704 367.86C252.873 368.2 253.145 368.478 253.481 368.655C253.481 368.655 253.481 368.108 254.565 368.293C254.943 368.354 255.326 368.373 255.707 368.35C256.225 368.313 256.717 368.11 257.11 367.772C257.11 367.772 260.075 366.551 261.231 361.721C261.231 361.721 262.08 360.667 262.049 360.398L260.279 361.153C260.279 361.153 260.885 362.436 260.407 363.499C260.407 363.499 260.35 361.201 260.009 361.254C259.938 361.254 259.084 361.695 259.084 361.695C259.084 361.695 260.129 363.9 259.341 365.545C259.341 365.545 259.637 362.798 258.757 361.854L257.504 362.586C257.504 362.586 258.726 364.888 257.898 366.767C257.898 366.767 258.11 363.883 257.239 362.762L256.106 363.644C256.106 363.644 257.252 365.916 256.548 367.473C256.548 367.473 256.455 364.116 255.853 363.865C255.422 364.227 255.037 364.64 254.707 365.095C254.707 365.095 255.495 366.745 255.008 367.614C255.008 367.614 254.707 365.378 254.464 365.369C254.464 365.369 253.472 366.851 253.371 367.865C253.415 366.924 253.709 366.011 254.22 365.219C253.65 365.326 253.124 365.598 252.707 366C252.707 366 252.862 364.95 254.477 364.862C254.477 364.862 255.291 363.737 255.513 363.671C255.513 363.671 253.915 363.534 252.946 363.962C252.946 363.962 253.8 362.974 255.805 363.424L256.924 362.511C256.924 362.511 254.822 362.224 253.933 362.542C253.933 362.542 254.959 361.66 257.23 362.304L258.447 361.58C257.509 361.373 256.548 361.29 255.588 361.333C255.588 361.333 256.716 360.729 258.805 361.382L259.69 360.994C259.69 360.994 258.363 360.734 257.995 360.694C257.628 360.654 257.588 360.548 257.588 360.548C258.421 360.41 259.276 360.505 260.058 360.822C260.058 360.822 261.868 360.147 261.837 360.028Z" fill="#6C63FF"/>
<path opacity="0.1" d="M254.57 370.555C258.694 370.555 262.036 369.993 262.036 369.298C262.036 368.604 258.694 368.041 254.57 368.041C250.447 368.041 247.104 368.604 247.104 369.298C247.104 369.993 250.447 370.555 254.57 370.555Z" fill="#6C63FF"/>
<path d="M281.916 344.411C281.916 344.411 269.184 343.644 270.684 352.539C270.607 352.99 270.675 353.454 270.878 353.865C271.082 354.275 271.41 354.611 271.817 354.824C271.817 354.824 271.817 354.167 273.122 354.383C273.579 354.455 274.042 354.478 274.503 354.449C275.129 354.404 275.723 354.16 276.198 353.752C276.198 353.752 279.779 352.279 281.168 346.444C281.168 346.444 282.2 345.174 282.16 344.848L280.009 345.761C280.009 345.761 280.744 347.309 280.168 348.592C280.168 348.592 280.097 345.818 279.681 345.884C279.602 345.884 278.566 346.418 278.566 346.418C278.566 346.418 279.832 349.112 278.876 351.066C278.876 351.066 279.239 347.75 278.172 346.612L276.659 347.494C276.659 347.494 278.137 350.272 277.137 352.544C277.137 352.544 277.393 349.064 276.34 347.692L274.968 348.755C274.968 348.755 276.358 351.494 275.512 353.377C275.512 353.377 275.402 349.328 274.671 349.02C274.671 349.02 273.472 350.074 273.291 350.506C273.291 350.506 274.242 352.495 273.649 353.545C273.649 353.545 273.291 350.85 272.994 350.837C272.994 350.837 271.799 352.601 271.666 353.849C271.724 352.716 272.078 351.619 272.693 350.665C272.005 350.795 271.369 351.123 270.865 351.609C270.865 351.609 271.051 350.343 272.99 350.233C272.99 350.233 273.977 348.879 274.242 348.795C274.242 348.795 272.313 348.636 271.144 349.152C271.144 349.152 272.171 347.957 274.596 348.499L275.95 347.401C275.95 347.401 273.41 347.053 272.335 347.436C272.335 347.436 273.574 346.382 276.318 347.15L277.792 346.268C277.792 346.268 275.627 345.827 274.34 345.972C274.34 345.972 275.698 345.24 278.225 346.03L279.279 345.562C279.279 345.562 277.69 345.249 277.225 345.2C276.76 345.152 276.738 345.024 276.738 345.024C277.743 344.857 278.774 344.972 279.717 345.355C279.717 345.355 281.961 344.552 281.916 344.411Z" fill="#6C63FF"/>
<path opacity="0.1" d="M273.149 357.117C278.128 357.117 282.164 356.438 282.164 355.6C282.164 354.762 278.128 354.083 273.149 354.083C268.17 354.083 264.134 354.762 264.134 355.6C264.134 356.438 268.17 357.117 273.149 357.117Z" fill="#6C63FF"/>
<path d="M481.559 257.858V42.1362H60.5212V245.483C65.8985 249.955 72.3644 253.717 79.1091 256.809C82.4314 258.335 85.8244 259.73 89.2882 260.994H476.536L481.559 257.858Z" fill="url(#paint0_linear)"/>
<path d="M480.745 257.947V48.3107H61.4417V245.937C66.7967 250.286 73.2361 253.942 79.941 256.963C83.2515 258.433 86.6327 259.789 90.0847 261.029H475.73L480.745 257.947Z" fill="white"/>
<path d="M480.745 42.7493H61.4463V53.8368H480.745V42.7493Z" fill="#5A5773"/>
<path d="M69.8198 51.1597C71.4086 51.1597 72.6965 49.8763 72.6965 48.293C72.6965 46.7098 71.4086 45.4263 69.8198 45.4263C68.2311 45.4263 66.9431 46.7098 66.9431 48.293C66.9431 49.8763 68.2311 51.1597 69.8198 51.1597Z" fill="white"/>
<path d="M77.5647 51.1597C79.1534 51.1597 80.4414 49.8763 80.4414 48.293C80.4414 46.7098 79.1534 45.4263 77.5647 45.4263C75.9759 45.4263 74.688 46.7098 74.688 48.293C74.688 49.8763 75.9759 51.1597 77.5647 51.1597Z" fill="white"/>
<path d="M85.3098 51.1597C86.8986 51.1597 88.1865 49.8763 88.1865 48.293C88.1865 46.7098 86.8986 45.4263 85.3098 45.4263C83.721 45.4263 82.4331 46.7098 82.4331 48.293C82.4331 49.8763 83.721 51.1597 85.3098 51.1597Z" fill="white"/>
<path d="M237.859 78.2039H168.597V121.575H237.859V78.2039Z" fill="#6C63FF"/>
<path opacity="0.2" d="M141.958 78.2039H72.6963V121.575H141.958V78.2039Z" fill="#5A5773"/>
<path opacity="0.2" d="M333.759 78.2039H264.497V121.575H333.759V78.2039Z" fill="#5A5773"/>
<path opacity="0.2" d="M141.958 140.209H72.6963V183.58H141.958V140.209Z" fill="#5A5773"/>
<path opacity="0.2" d="M237.859 140.209H168.597V183.58H237.859V140.209Z" fill="#5A5773"/>
<path opacity="0.2" d="M333.759 140.209H264.497V183.58H333.759V140.209Z" fill="#5A5773"/>
<path opacity="0.2" d="M141.958 202.209H72.6963V245.58H141.958V202.209Z" fill="#5A5773"/>
<path opacity="0.2" d="M237.859 202.209H168.597V245.58H237.859V202.209Z" fill="#5A5773"/>
<path opacity="0.2" d="M333.759 202.209H264.497V245.58H333.759V202.209Z" fill="#5A5773"/>
<path d="M220.886 116.194L216.107 117.879L214.372 115.012C213.044 112.807 211.203 109.791 209.844 107.599C207.445 103.744 210.583 97.8695 210.583 97.8695C210.583 97.8695 211.15 91.9729 213.168 90.1558C215.186 88.3388 215.748 97.8695 215.748 97.8695C223.852 101.539 219.51 110.17 219.51 110.17L220.298 113.592L220.886 116.194Z" fill="#EFB7B9"/>
<path opacity="0.1" d="M220.886 116.194L216.107 117.879L214.372 115.012V114.761C214.372 114.761 217.111 112.887 220.307 113.592L220.886 116.194Z" fill="black"/>
<path d="M213.168 135.512L215.562 133.492L214.363 115.312C214.363 115.312 220.559 111.087 225.144 117.698C225.144 117.698 224.958 121.738 225.144 122.841C225.33 123.943 223.856 125.046 225.144 126.144C226.432 127.242 225.144 130.92 225.144 130.92C225.144 130.92 226.6 133.492 227.52 134.224C228.441 134.956 229.366 141.02 227.52 142.303C225.675 143.587 222.214 146.529 222.214 147.812C222.214 149.095 217.788 152.222 217.788 152.222L213.903 147.102L213.168 135.512Z" fill="#FF6484"/>
<path d="M161.387 245.867C152.456 242.092 154.439 232.87 156.121 228.225C156.457 227.285 156.852 226.365 157.302 225.473L162.312 222.444C162.312 222.444 163.335 225.041 164.428 228.525C166.964 236.632 169.88 249.461 161.387 245.867Z" fill="#EFB7B9"/>
<path d="M173.664 330.011C173.059 331.185 172.613 332.434 172.336 333.725C171.894 335.801 171.701 337.923 171.761 340.045C171.796 341.513 171.92 342.475 171.92 342.475L161.971 349.293C161.971 349.293 162.029 348.495 162.126 347.322C162.383 344.199 162.919 338.404 163.423 337.654C163.773 337.134 164.016 335.043 164.171 333.103C164.326 331.162 164.388 329.46 164.388 329.46C164.388 329.46 176.359 324.988 173.664 330.011Z" fill="#EFB7B9"/>
<path d="M197.16 334.902C197.16 334.902 197.16 336.799 197.09 339.004C197.019 341.209 196.886 343.811 196.607 345.024C196.35 346.135 196.333 348.177 196.381 350.061C196.448 352.266 196.607 354.25 196.607 354.25C196.607 354.25 186.45 344.68 187.486 343.921C187.765 343.719 188.039 342.903 188.291 341.818C188.601 340.495 188.88 338.73 189.088 337.231C189.336 335.445 189.491 334.007 189.491 334.007L197.16 334.902Z" fill="#EFB7B9"/>
<path opacity="0.1" d="M173.664 330.011C173.06 331.185 172.613 332.434 172.337 333.725C169.613 333.654 166.896 333.446 164.193 333.103C164.344 331.206 164.41 329.46 164.41 329.46C164.41 329.46 176.36 324.988 173.664 330.011Z" fill="black"/>
<path opacity="0.1" d="M197.16 334.902C197.16 334.902 197.16 336.799 197.089 339.004C193.921 339.811 190.663 338.197 189.088 337.24C189.335 335.454 189.49 334.016 189.49 334.016L197.16 334.902Z" fill="black"/>
<path d="M217.956 241.095C213.903 249.915 212.243 260.377 212.243 260.377L210.769 269.197C210.769 269.197 211.508 273.052 210.769 274.521C210.03 275.989 208.556 278.38 208.556 278.38C208.556 278.38 209.663 287.377 208.556 288.294C207.45 289.211 208.556 294.72 208.556 294.72L204.87 313.243L199.709 337.112C194.735 341.156 188.114 336.014 188.114 336.014L189.574 320.406C189.574 320.406 191.787 293.062 190.867 291.941C189.946 290.821 191.234 287.35 191.234 287.35C191.234 287.35 192.526 284.042 191.606 282.759C190.685 281.476 191.787 278.719 191.787 278.719C191.787 278.719 191.42 267.517 192.526 264.946C193.633 262.375 192.526 246.471 192.526 246.471L192.084 241.518L191.827 238.775L191.805 238.506C191.805 238.506 191.637 239.604 191.362 241.306C190.548 246.489 188.813 257.228 188.127 259.437C187.661 261.03 187.028 262.568 186.238 264.028C186.238 264.028 187.193 269.537 186.238 271.006C185.282 272.474 186.091 274.128 186.091 274.128C186.091 274.128 187.012 278.719 184.246 280.554C181.48 282.389 184.246 283.31 184.246 283.31C184.246 283.31 182.219 287.721 181.484 289.551C180.75 291.381 181.484 293.961 181.484 293.961L180.011 308.833C180.011 308.833 178.718 315.074 178.904 319.299C179.09 323.524 177.245 333.253 177.245 333.253C177.245 333.253 163.056 333.253 160.869 331.599C158.683 329.945 164.521 313.812 164.521 313.812C164.521 313.812 166.18 285.533 165.809 284.801C165.437 284.069 165.809 278.556 167.101 277.458C168.393 276.36 167.101 274.15 167.101 274.15C167.101 274.15 166.733 269.74 167.101 268.642C167.468 267.543 167.043 263.865 167.043 263.865C167.043 263.865 165.809 254.868 165.627 249.726C165.446 244.583 164.521 233.019 164.521 233.019C164.521 233.019 165.485 225.866 165.631 222.461C165.685 221.209 166.247 219.643 166.959 218.17C167.757 216.507 168.674 214.903 169.703 213.371C169.703 213.371 213.363 200.511 215.195 201.79C215.682 202.13 216.39 204.436 217.089 207.775C219.036 217.103 220.939 234.612 217.956 241.095Z" fill="#444053"/>
<path d="M191.057 128.865C198.08 128.865 203.772 123.192 203.772 116.194C203.772 109.196 198.08 103.523 191.057 103.523C184.035 103.523 178.342 109.196 178.342 116.194C178.342 123.192 184.035 128.865 191.057 128.865Z" fill="#A1616A"/>
<path opacity="0.1" d="M217.089 207.784C215.624 208.533 214.642 209.049 214.642 209.049C214.642 209.049 194.005 218.783 188.136 218.232C183.595 217.791 172.005 218.042 166.955 218.165C167.752 216.502 168.669 214.899 169.699 213.367C169.699 213.367 213.363 200.511 215.195 201.79C215.682 202.138 216.39 204.436 217.089 207.784Z" fill="black"/>
<path d="M182.21 136.429C182.21 136.429 170.433 138.281 167.654 140.098C164.875 141.915 159.369 145.426 159.369 152.954C159.369 160.483 158.081 168.197 157.342 170.397C156.603 172.598 168.951 190.411 168.951 190.411L164.525 217.407C164.525 217.407 182.228 216.856 188.123 217.407C194.018 217.958 214.646 208.225 214.646 208.225C214.646 208.225 226.808 201.799 229.388 201.609C231.968 201.419 224.228 187.47 224.228 187.47C224.228 187.47 212.247 164.889 214.274 161.215C216.301 157.541 217.788 152.218 217.788 152.218L215.575 133.492C215.575 133.492 212.261 132.389 209.495 134.409C206.728 136.429 197.333 135.326 197.333 135.326L182.21 136.429Z" fill="#FF6484"/>
<path opacity="0.1" d="M162.219 169.114L157.599 170.397L156.32 187.677C156.32 187.677 157.98 192.268 156.32 193.737C154.66 195.205 154.293 226.607 154.293 226.607C154.293 226.607 159.639 230.461 165.902 227.524C165.902 227.524 164.981 224.036 167.747 211.365C170.513 198.694 170.509 192.268 170.509 192.268C170.509 192.268 170.509 176.475 171.801 173.903C173.093 171.332 171.801 164.906 171.801 164.906C171.801 164.906 169.221 161.418 169.402 160.134C169.584 158.851 162.219 169.114 162.219 169.114Z" fill="black"/>
<path opacity="0.1" d="M164.428 228.539C161.714 229.449 158.761 229.342 156.121 228.239C156.457 227.298 156.851 226.379 157.302 225.487L162.312 222.457C162.312 222.457 163.352 225.054 164.428 228.539Z" fill="black"/>
<path d="M161.941 169.114L157.333 170.397L156.046 187.677C156.046 187.677 157.705 192.268 156.046 193.737C154.386 195.205 154.019 226.607 154.019 226.607C154.019 226.607 159.369 230.457 165.627 227.507C165.627 227.507 164.707 224.018 167.468 211.347C170.23 198.676 170.234 192.25 170.234 192.25C170.234 192.25 170.234 176.457 171.522 173.886C172.81 171.315 171.522 164.889 171.522 164.889C171.522 164.889 168.942 161.4 169.128 160.117C169.314 158.833 161.941 169.114 161.941 169.114Z" fill="#FF6484"/>
<path opacity="0.1" d="M209.114 171.866C209.114 171.866 206.72 192.431 199.714 196.29C199.714 196.29 215.376 191.884 209.114 171.866Z" fill="black"/>
<path opacity="0.1" d="M173.921 173.705C173.921 173.705 182.578 177.926 180.559 180.863C178.541 183.8 173.921 173.705 173.921 173.705Z" fill="black"/>
<path opacity="0.1" d="M173.921 182.151C173.921 182.151 179.449 187.844 178.347 189.864C177.245 191.884 173.921 182.151 173.921 182.151Z" fill="black"/>
<path opacity="0.1" d="M218.51 134.96C218.51 134.96 220.678 138.63 220.886 141.02C221.094 143.41 218.51 134.96 218.51 134.96Z" fill="black"/>
<path opacity="0.1" d="M218.51 130.003C218.51 130.003 219.598 129.081 222.378 130.003C225.157 130.925 218.51 130.003 218.51 130.003Z" fill="black"/>
<path opacity="0.1" d="M207.87 237.328C203.305 237.974 198.649 237.38 194.394 235.608L192.071 241.536L191.814 238.793C192.195 236.49 192.934 234.025 194.394 233.403C194.394 233.403 199.51 237.465 207.87 237.328Z" fill="black"/>
<path opacity="0.1" d="M170.071 245.042C170.071 245.042 181.405 247.384 184.582 246.969L170.071 245.042Z" fill="black"/>
<path opacity="0.1" d="M171.248 248.001C171.248 248.001 176.085 247.794 178.502 248.76L171.248 248.001Z" fill="black"/>
<path opacity="0.1" d="M171.801 249.999C174.008 250.466 176.248 250.761 178.502 250.881L171.801 249.999Z" fill="black"/>
<path opacity="0.1" d="M171.522 275.27C171.73 275.134 181.197 272.928 182.374 274.512L171.522 275.27Z" fill="black"/>
<path opacity="0.1" d="M171.522 278.163C171.522 278.163 179.745 277.198 179.953 278.163C180.161 279.129 171.522 278.163 171.522 278.163Z" fill="black"/>
<path opacity="0.1" d="M171.522 280.779C171.522 280.779 180.298 278.971 181.334 279.412C182.37 279.853 171.522 280.779 171.522 280.779Z" fill="black"/>
<path opacity="0.1" d="M171.938 342.479L161.989 349.298C161.989 349.298 162.047 348.499 162.144 347.326C164.357 341.901 167.238 339.039 167.238 339.039C169.482 338.457 170.898 338.995 171.779 340.049C171.814 341.513 171.938 342.479 171.938 342.479Z" fill="black"/>
<path d="M172.907 348.605C171.502 351.801 170.794 355.259 170.832 358.749C170.888 361.61 170.159 364.433 168.725 366.912C168.518 367.262 168.284 367.595 168.026 367.909C168.026 367.909 161.113 367.852 158.692 365.854C158.42 365.639 158.198 365.369 158.042 365.06C156.656 362.308 160.737 351.772 160.737 351.772C162.879 343.648 167.229 339.308 167.229 339.308C174.979 337.31 172.907 348.605 172.907 348.605Z" fill="#444053"/>
<path opacity="0.1" d="M168.725 366.89C168.518 367.24 168.284 367.573 168.026 367.887C168.026 367.887 161.113 367.83 158.692 365.832C159.883 361.907 163.68 350.03 165.459 352.05C167.132 353.946 168.296 363.071 168.725 366.89Z" fill="black"/>
<path d="M167.778 352.786L167.296 370.577H169.615C169.615 370.577 169.991 354.969 171.027 352.786C172.062 350.603 167.778 352.786 167.778 352.786Z" fill="#444053"/>
<path opacity="0.1" d="M196.607 354.25C196.607 354.25 186.45 344.68 187.486 343.921C187.765 343.719 188.039 342.903 188.291 341.818C190.243 341.478 193.602 342.29 196.381 350.061C196.448 352.266 196.607 354.25 196.607 354.25Z" fill="black"/>
<path d="M198.125 364.923C198.047 364.957 197.965 364.98 197.882 364.994C196.687 365.201 192.283 365.082 189.818 364.994C189.366 364.979 188.938 364.79 188.624 364.467C188.309 364.143 188.133 363.711 188.132 363.261C188.132 362.599 188.132 361.792 188.079 360.932C187.964 358.215 187.636 354.982 186.658 354.255C184.928 352.932 183.56 348.442 186.658 342.757C186.658 342.757 192.597 338.236 196.881 351.825C196.881 351.825 197.297 355.701 199.161 357.077C201.024 358.453 198.957 364.531 198.125 364.923Z" fill="#444053"/>
<path opacity="0.1" d="M197.873 364.994C196.678 365.201 192.274 365.082 189.809 364.994C189.357 364.979 188.929 364.79 188.615 364.467C188.3 364.143 188.124 363.711 188.123 363.261C188.123 362.599 188.123 361.792 188.07 360.932C188.818 357.642 189.893 354.255 191.278 353.483C191.287 353.479 195.478 353.007 197.873 364.994Z" fill="black"/>
<path d="M187.41 353.082L188.526 367.887H189.942V351.82L187.41 353.082Z" fill="#444053"/>
<path opacity="0.1" d="M190.871 96.0039C186.857 96.3017 182.97 97.5458 179.533 99.6336C178.648 100.167 177.762 100.816 177.395 101.773C177.077 102.602 177.209 103.537 177.223 104.419C177.342 112.013 168.845 117.76 169.11 125.35C169.216 128.362 170.734 131.167 171.013 134.171C171.478 139.181 168.504 143.79 165.654 147.94C168.59 148.118 171.483 147.162 173.731 145.272C176.738 155.261 177.127 165.852 174.859 176.034H178.935C179.338 176.004 179.742 176.054 180.126 176.179C180.484 176.348 180.804 176.587 181.068 176.88C184.879 180.66 187.433 186.248 185.977 191.408L194.651 188.166C196.727 187.39 198.833 186.601 200.639 185.322C202.445 184.043 203.958 182.186 204.339 180.007C204.573 178.684 204.498 177.105 205.591 176.338C206.13 176.053 206.704 175.84 207.3 175.707C209.681 174.869 210.734 172.126 211.221 169.656C211.813 166.626 212 163.531 211.774 160.452C211.389 155.292 209.858 150.052 211.119 145.016C211.831 142.189 213.416 139.556 213.544 136.636C213.752 131.825 209.977 127.679 209.415 122.894C209.021 119.559 210.229 116.186 209.835 112.851C209.617 111.13 208.985 109.487 207.993 108.062C207.002 106.636 205.68 105.47 204.14 104.661C203.073 104.115 201.927 103.748 200.873 103.144C198.47 101.755 196.935 99.2543 194.753 97.5343C192.571 95.8143 188.937 95.166 187.295 97.402L190.871 96.0039Z" fill="black"/>
<path d="M190.871 95.4526C186.857 95.7504 182.97 96.9945 179.533 99.0823C178.648 99.616 177.763 100.264 177.395 101.221C177.077 102.05 177.209 102.985 177.223 103.868C177.342 111.462 168.845 117.209 169.11 124.803C169.216 127.811 170.734 130.616 171.013 133.624C171.478 138.634 168.504 143.243 165.654 147.397C168.589 147.569 171.479 146.614 173.731 144.729C176.738 154.716 177.126 165.304 174.859 175.482H178.935C179.338 175.455 179.743 175.505 180.126 175.632C180.484 175.798 180.805 176.036 181.068 176.329C184.879 180.113 187.433 185.697 185.977 190.857L194.651 187.615C196.727 186.839 198.833 186.049 200.639 184.771C202.445 183.492 203.958 181.635 204.339 179.456C204.573 178.133 204.498 176.554 205.591 175.787C206.13 175.501 206.704 175.289 207.3 175.156C209.681 174.318 210.734 171.575 211.221 169.105C211.819 166.073 212.009 162.974 211.787 159.892C211.402 154.732 209.871 149.492 211.132 144.456C211.845 141.629 213.429 138.996 213.557 136.076C213.766 131.264 209.99 127.119 209.428 122.334C209.034 118.999 210.243 115.63 209.849 112.291C209.629 110.571 208.997 108.928 208.006 107.502C207.014 106.077 205.693 104.91 204.153 104.101C203.086 103.554 201.94 103.188 200.887 102.589C198.484 101.195 196.948 98.6942 194.766 96.9742C192.584 95.2542 188.951 94.6058 187.309 96.8419L190.871 95.4526Z" fill="#925978"/>
<g opacity="0.1">
<path opacity="0.1" d="M177.214 102.033C177.196 102.203 177.187 102.374 177.187 102.544C177.2 102.377 177.209 102.205 177.214 102.033Z" fill="black"/>
<path opacity="0.1" d="M209.38 119.687C209.539 117.35 210.061 115.004 209.866 112.675C209.72 115.012 209.198 117.359 209.38 119.687Z" fill="black"/>
<path opacity="0.1" d="M171.013 131.309C170.757 128.574 169.478 126.016 169.177 123.286C169.117 123.787 169.094 124.291 169.11 124.795C169.216 127.771 170.699 130.554 171 133.518C171.073 132.784 171.078 132.044 171.013 131.309Z" fill="black"/>
<path opacity="0.1" d="M211.15 142.171C210.736 143.966 210.587 145.811 210.707 147.649C210.752 146.577 210.9 145.512 211.15 144.469C211.863 141.642 213.447 139.009 213.575 136.089C213.596 135.571 213.573 135.051 213.504 134.537C213.159 137.161 211.783 139.604 211.15 142.171Z" fill="black"/>
<path opacity="0.1" d="M173.731 142.409C171.885 143.951 169.6 144.876 167.198 145.056C166.694 145.841 166.172 146.608 165.654 147.367C168.589 147.538 171.479 146.583 173.731 144.698C175.347 150.06 176.214 155.618 176.306 161.215C176.438 154.851 175.569 148.506 173.731 142.409Z" fill="black"/>
<path opacity="0.1" d="M211.234 166.794C210.747 169.264 209.694 172.007 207.313 172.841C206.717 172.973 206.142 173.187 205.604 173.476C204.511 174.243 204.587 175.831 204.352 177.145C203.971 179.324 202.462 181.176 200.652 182.437C198.842 183.699 196.74 184.51 194.664 185.287L186.388 188.374C186.345 189.202 186.212 190.022 185.99 190.821L194.664 187.58C196.74 186.804 198.846 186.014 200.652 184.735C202.458 183.456 203.971 181.599 204.352 179.421C204.587 178.098 204.511 176.519 205.604 175.751C206.143 175.466 206.718 175.254 207.313 175.121C209.694 174.283 210.747 171.54 211.234 169.07C211.738 166.5 211.947 163.881 211.858 161.263C211.8 163.121 211.591 164.97 211.234 166.794Z" fill="black"/>
<path opacity="0.1" d="M181.082 174.005C180.819 173.71 180.498 173.471 180.139 173.304C179.756 173.178 179.352 173.128 178.949 173.154H175.333C175.191 173.921 175.041 174.689 174.89 175.452H178.966C179.369 175.424 179.774 175.475 180.157 175.601C180.515 175.768 180.836 176.005 181.1 176.298C183.888 179.068 185.999 182.799 186.362 186.627C186.809 182.049 184.428 177.339 181.082 174.005Z" fill="black"/>
</g>
<path opacity="0.1" d="M160.861 189.035C160.861 189.035 164.153 187.659 164.888 189.035C165.623 190.411 160.861 189.035 160.861 189.035Z" fill="black"/>
<path opacity="0.1" d="M162.025 191.395C162.025 191.395 165.317 190.019 166.056 191.395C166.796 192.771 162.025 191.395 162.025 191.395Z" fill="black"/>
<path opacity="0.1" d="M366.098 13.328C366.098 13.328 349.258 12.3181 351.245 24.076C351.245 24.076 350.851 26.1532 352.741 27.097C352.741 27.097 352.772 26.215 354.467 26.5193C355.071 26.6205 355.684 26.6501 356.295 26.6075C357.119 26.5506 357.902 26.2269 358.525 25.6857C358.525 25.6857 363.256 23.7408 365.097 16.0315C365.097 16.0315 366.461 14.3468 366.425 13.9146L363.584 15.1274C363.584 15.1274 364.553 17.1694 363.787 18.8674C363.787 18.8674 363.699 15.198 363.15 15.2862C363.039 15.2862 361.676 15.9918 361.676 15.9918C361.676 15.9918 363.345 19.551 362.084 22.1398C362.084 22.1398 362.562 17.756 361.154 16.2521L359.145 17.4384C359.145 17.4384 361.097 21.1122 359.773 24.1113C359.773 24.1113 360.114 19.5113 358.724 17.7207L356.91 19.1276C356.91 19.1276 358.747 22.7308 357.64 25.2182C357.64 25.2182 357.494 19.8597 356.529 19.4584C356.529 19.4584 354.945 20.852 354.706 21.4254C354.706 21.4254 355.958 24.0716 355.179 25.4388C355.179 25.4388 354.701 21.8752 354.294 21.8576C354.294 21.8576 352.714 24.2215 352.551 25.8269C352.627 24.3289 353.096 22.877 353.909 21.615C352.998 21.7869 352.157 22.2226 351.493 22.8675C351.493 22.8675 351.736 21.196 354.299 21.0461C354.299 21.0461 355.604 19.2555 355.954 19.1452C355.954 19.1452 353.405 18.9335 351.86 19.6171C351.86 19.6171 353.219 18.0382 356.423 18.7351L358.193 17.2797C358.193 17.2797 354.839 16.8386 353.414 17.3282C353.414 17.3282 355.051 15.9345 358.676 16.9489L360.623 15.789C360.623 15.789 357.764 15.1715 356.06 15.3965C356.06 15.3965 357.857 14.4306 361.194 15.4758L362.588 14.854C362.588 14.854 360.49 14.4438 359.88 14.3777C359.269 14.3115 359.233 14.1439 359.233 14.1439C360.561 13.9238 361.923 14.0765 363.168 14.585C363.168 14.585 366.146 13.5132 366.098 13.328Z" fill="#6C63FF"/>
<path opacity="0.1" d="M342.097 3.79288C342.097 3.79288 327.935 12.9267 336.525 21.2225C336.525 21.2225 337.441 23.1277 339.526 22.7749C339.526 22.7749 339.03 22.0516 340.575 21.2886C341.122 21.0139 341.635 20.6748 342.102 20.2787C342.732 19.7457 343.172 19.0228 343.354 18.219C343.354 18.219 346.009 13.8528 342.911 6.55815C342.911 6.55815 343.009 4.39709 342.708 4.07955L341.141 6.72574C341.141 6.72574 343.137 7.79745 343.531 9.6145C343.531 9.6145 341.278 6.71692 340.876 7.10944C340.796 7.18883 340.106 8.55162 340.106 8.55162C340.106 8.55162 343.571 10.4304 344.089 13.2574C344.089 13.2574 341.876 9.4425 339.836 9.06762L338.915 11.1846C338.915 11.1846 342.677 12.9928 343.394 16.1903C343.394 16.1903 340.929 12.2828 338.747 11.6609L338.127 13.8661C338.127 13.8661 341.756 15.7008 342.336 18.3646C342.336 18.3646 339.035 14.1395 338.017 14.3953C338.017 14.3953 337.574 16.4505 337.716 17.0415C337.716 17.0415 340.291 18.4175 340.486 19.9964C340.486 19.9964 337.981 17.4075 337.658 17.6237C337.658 17.6237 337.791 20.4595 338.619 21.862C337.791 20.6098 337.306 19.1641 337.211 17.6678C336.579 18.3443 336.161 19.1908 336.007 20.1023C336.007 20.1023 335.211 18.6116 337.189 16.9797C337.189 16.9797 337.189 14.7746 337.388 14.4703C337.388 14.4703 335.211 15.7934 334.37 17.2664C334.37 17.2664 334.529 15.1936 337.534 13.8793L338.11 11.6521C338.11 11.6521 335.136 13.2663 334.29 14.5144C334.29 14.5144 334.781 12.4239 338.3 11.1008L339.185 9.0147C339.185 9.0147 336.53 10.2099 335.273 11.3963C335.273 11.3963 336.158 9.55276 339.459 8.42813L340.212 7.10503C340.212 7.10503 338.278 8.01356 337.747 8.32228C337.216 8.631 337.087 8.51633 337.087 8.51633C338.025 7.55493 339.213 6.87236 340.517 6.54492C340.517 6.54492 342.248 3.91637 342.097 3.79288Z" fill="#6C63FF"/>
<path opacity="0.1" d="M320.544 14.435C320.544 14.435 312.078 28.9891 323.509 32.4864C323.509 32.4864 325.195 33.7698 326.89 32.4864C326.89 32.4864 326.125 32.0719 327.152 30.6914C327.508 30.1987 327.805 29.6658 328.037 29.1037C328.357 28.3432 328.42 27.4998 328.218 26.7001C328.218 26.7001 328.594 21.6106 322.509 16.5078C322.509 16.5078 321.624 14.5408 321.181 14.3953L320.991 17.4825C320.991 17.4825 323.257 17.5354 324.439 18.9776C324.439 18.9776 321.111 17.412 320.942 17.9368C320.907 18.0426 320.911 19.5686 320.911 19.5686C320.911 19.5686 324.89 19.6877 326.66 21.9722C326.66 21.9722 322.943 19.5774 320.964 20.1596L321.106 22.4618C321.106 22.4618 325.28 22.3736 327.373 24.9007C327.373 24.9007 323.39 22.5323 321.177 22.9646L321.619 25.2094C321.619 25.2094 325.691 25.2094 327.417 27.3175C327.417 27.3175 322.549 25.0418 321.757 25.7166C321.757 25.7166 322.292 27.7542 322.699 28.2261C322.699 28.2261 325.62 28.2878 326.514 29.6065C326.514 29.6065 323.102 28.4289 322.912 28.773C322.912 28.773 324.324 31.2383 325.7 32.1116C324.394 31.3738 323.303 30.3098 322.536 29.0243C322.281 29.9125 322.293 30.8555 322.571 31.7367C322.571 31.7367 321.181 30.7708 322.199 28.4201C322.199 28.4201 321.181 26.4531 321.239 26.0959C321.239 26.0959 319.911 28.2702 319.823 29.9505C319.823 29.9505 319.017 28.032 321.097 25.5049L320.597 23.2556C320.597 23.2556 318.681 26.0386 318.495 27.5337C318.495 27.5337 317.982 25.4476 320.517 22.6823L320.349 20.4286C320.349 20.4286 318.517 22.6999 317.951 24.3185C317.951 24.3185 317.889 22.281 320.327 19.7803L320.394 18.2587C320.394 18.2587 319.066 19.9391 318.752 20.4639C318.437 20.9887 318.252 20.9138 318.252 20.9138C318.65 19.632 319.398 18.4855 320.411 17.6016C320.411 17.6016 320.73 14.4747 320.544 14.435Z" fill="#6C63FF"/>
<path d="M393.236 180.343C391.983 180.343 390.759 180.713 389.717 181.406C388.676 182.1 387.864 183.085 387.385 184.239C386.905 185.392 386.78 186.661 387.024 187.885C387.269 189.109 387.872 190.234 388.758 191.116C389.643 191.999 390.772 192.6 392 192.844C393.229 193.087 394.502 192.962 395.659 192.484C396.817 192.007 397.806 191.198 398.502 190.16C399.198 189.122 399.569 187.902 399.569 186.654C399.564 184.981 398.896 183.379 397.709 182.196C396.522 181.014 394.914 180.347 393.236 180.343ZM374.719 130.819V137.13H381.052L392.452 160.143L387.686 167.875C387.166 168.789 386.893 169.822 386.894 170.874C386.894 175.099 389.793 177.185 393.723 177.185H430.752V171.116H394.497C394.391 171.123 394.286 171.107 394.186 171.069C394.087 171.032 393.997 170.974 393.923 170.899C393.848 170.825 393.79 170.735 393.752 170.636C393.715 170.538 393.698 170.432 393.705 170.327C393.788 170.054 393.901 169.791 394.041 169.542L397.206 164.562H420.799C421.939 164.572 423.059 164.267 424.037 163.683C425.015 163.099 425.811 162.257 426.34 161.25L437.745 141.708C437.967 141.212 438.076 140.673 438.064 140.129C438.059 139.723 437.973 139.322 437.81 138.95C437.647 138.577 437.411 138.241 437.116 137.962C436.82 137.682 436.471 137.464 436.09 137.322C435.708 137.179 435.302 137.114 434.895 137.13H388.022L385.013 130.819H374.719ZM424.415 180.343C423.162 180.343 421.938 180.714 420.897 181.408C419.857 182.102 419.046 183.088 418.567 184.242C418.088 185.395 417.963 186.664 418.208 187.888C418.453 189.112 419.057 190.236 419.943 191.118C420.828 192 421.957 192.601 423.185 192.844C424.414 193.087 425.687 192.962 426.844 192.484C428.001 192.006 428.99 191.197 429.685 190.16C430.381 189.122 430.752 187.902 430.752 186.654C430.748 184.981 430.078 183.377 428.891 182.195C427.703 181.012 426.094 180.346 424.415 180.343Z" fill="#6C63FF"/>
<path d="M416.312 148.279H411.001V142.987H407.018V148.279H401.707V152.249H407.018V157.541H411.001V152.249H416.312V148.279Z" fill="white"/>
</g>
<defs>
<linearGradient id="paint0_linear" x1="271.038" y1="260.994" x2="271.038" y2="42.1362" gradientUnits="userSpaceOnUse">
<stop stop-color="#808080" stop-opacity="0.25"/>
<stop offset="0.54" stop-color="#808080" stop-opacity="0.12"/>
<stop offset="1" stop-color="#808080" stop-opacity="0.1"/>
</linearGradient>
<clipPath id="clip0">
<rect width="494" height="378" fill="white"/>
</clipPath>
</defs>
</svg>
