<svg width="500" height="380" viewBox="0 0 500 380" fill="none" xmlns="http://www.w3.org/2000/svg">
<path d="M429.926 152.924C430.545 153.242 431.161 153.245 431.779 152.927C436.46 153.443 441.141 153.381 445.823 152.968C452.572 152.935 459.322 152.899 466.071 152.865C466.709 152.874 467.345 152.882 467.983 152.89C471.111 152.985 474.239 153.18 477.365 153.13C479.016 153.105 479.654 153.613 479.718 155.608C479.808 158.455 480.267 161.284 480.569 164.122C480.674 164.97 480.777 165.821 480.883 166.67C482.821 179.629 487.031 191.625 492.775 202.972C493.104 203.641 493.43 204.311 493.759 204.981C495.233 208.438 497.101 211.622 499.044 214.753C499.112 214.982 499.179 215.208 499.245 215.437C498.092 216.572 496.703 216.073 495.422 216.076C467.47 216.106 439.515 216.09 411.562 216.123C410.294 216.126 408.885 215.573 407.781 216.846C407.423 216.804 407.065 216.765 406.709 216.723C405.867 215.752 404.79 216.112 403.807 216.112C344.138 216.095 284.469 216.095 224.8 216.118C223.735 216.118 222.52 215.652 221.672 216.899C220.604 215.328 222.121 214.605 222.624 213.737C231.196 198.903 237.725 183.106 240.34 165.462C240.828 162.166 241.138 158.815 241.246 155.477C241.309 153.476 241.903 152.915 243.586 152.938C254.369 153.08 265.152 153.141 275.935 153.203C277.042 153.208 278.148 153.021 279.255 152.924C279.952 153.038 280.649 153.259 281.343 153.25C292.705 153.136 304.07 152.991 315.432 152.854C315.832 152.86 316.232 152.862 316.631 152.868C317.858 153.51 319.097 153.384 320.339 152.932C321.443 153.044 322.552 153.273 323.653 153.247C329.132 153.13 334.606 153.072 340.092 153.183C345.956 153.303 351.849 153.767 357.708 152.86C367.6 152.996 377.498 153.359 387.385 153.15C390.931 153.074 394.5 153.688 398.033 152.96C406.395 153.393 414.759 153.434 423.12 152.938C424.31 153.334 425.5 153.407 426.695 152.963C427.772 153.292 428.852 153.384 429.926 152.924Z" fill="#06D6A0"/>
<path d="M56.6465 110.938C61.7795 101.574 66.7088 92.0861 70.1905 81.7212C73.5642 71.6814 76.035 61.3894 76.2706 50.5818C76.3319 47.7965 77.6102 48.0347 79.1904 48.0347C103.148 48.0487 127.102 48.0459 151.059 48.0375C152.281 48.0375 153.501 47.9562 154.723 47.9142C165.347 47.9142 175.971 47.9142 186.595 47.9142C197.413 47.9142 208.234 47.9142 219.052 47.9142C222.148 47.3958 222.747 49.0434 222.894 52.3919C223.252 60.5151 224.644 68.4898 227.294 76.1087C230.211 87.2357 235.013 97.3232 240.415 107.077C241.117 108.347 241.772 109.65 242.447 110.938C211.838 110.964 181.229 111.011 150.618 111.011C119.295 111.009 87.9719 110.964 56.6465 110.938Z" fill="#06D6A0"/>
<path d="M209.197 122.603C209.204 190.633 209.212 258.664 209.214 326.695C209.214 327.386 209.152 328.073 209.119 328.764C203.141 328.72 197.166 328.673 191.188 328.628C191.167 325.283 191.132 321.941 191.132 318.595C191.115 252.503 191.102 186.414 191.087 120.323C193.199 118.131 195.059 115.751 195.884 111.865C198.259 119.252 202.573 122.816 209.197 122.603Z" fill="#59C0EB"/>
<path d="M89.1863 172.862C89.2062 156.122 89.2261 139.382 89.246 122.642C95.8315 122.852 100.121 119.285 102.497 111.865C103.293 115.793 105.146 118.17 107.251 120.353C107.236 166.721 107.224 213.092 107.204 259.459C107.194 282.527 107.166 305.597 107.146 328.664C102.803 328.686 98.4587 328.656 94.1173 328.761C92.4902 328.8 91.5846 328.44 91.724 326.312C91.9578 322.756 91.6767 319.186 92.025 315.611C92.229 313.514 92.7241 311.269 91.6319 309.222C91.6518 305.547 91.6643 301.874 91.6991 298.199C91.7041 297.544 91.5249 296.646 92.3036 296.482C92.6743 296.404 93.1819 296.94 93.5774 297.27C95.0602 298.501 96.4211 299.958 98.0109 300.973C101.273 303.053 103.375 301.805 104.353 297.789C104.987 295.187 104.315 292.704 103.944 290.321C103.37 286.615 103.507 282.527 100.939 279.459C100.452 276.491 99.1603 274.25 96.441 273.309C96.7968 271.564 97.8218 270.971 99.3295 271.254C100.708 271.512 102.081 271.797 103.457 272.072C104.691 273.323 105.278 272.582 105.552 271.171C106.161 268.011 105.569 264.985 104.457 262.1C103.85 260.525 102.957 260.813 102.208 262.111C99.225 264.156 96.2793 266.283 92.7938 267.165C91.9429 267.382 91.2164 267.8 91.1368 268.915C91.0697 269.85 91.1169 271.29 91.918 271.27C93.9307 271.221 93.9656 273.57 95.2966 274.211C95.3463 274.347 95.3463 274.483 95.2966 274.618C94.7642 275.331 94.8164 276 95.411 276.632C96.6276 277.126 96.6873 278.599 97.3814 279.531C97.7521 282.829 98.2273 286.127 97.6626 290.319C95.3115 286.832 94.1273 283.603 92.8709 280.419C92.0076 278.233 91.2936 275.925 89.2162 274.704C89.2162 274.141 89.2162 273.576 89.2162 273.012C90.8507 271.076 89.1092 269.209 89.1241 267.304C89.1291 257.113 89.1341 246.919 89.139 236.728C89.154 227.882 89.1689 219.036 89.1838 210.19C89.1888 209.291 89.1938 208.39 89.1988 207.491C89.1938 195.952 89.1888 184.407 89.1863 172.862Z" fill="#59C0EB"/>
<path d="M70.2418 261.593C64.9942 262.664 59.8399 263.749 54.6757 264.76C44.7593 266.703 34.8331 268.561 24.9265 270.567C23.5852 270.838 22.673 270.751 21.6578 269.649C11.327 258.461 3.80878 245.507 0.898108 229.504C0.446917 227.027 1.03543 226.255 3.09276 225.945C11.2559 224.725 19.4141 223.443 27.5601 222.084C28.7003 221.895 29.5022 222.133 30.3334 222.928C43.4964 235.5 56.6693 248.059 69.8347 260.628C69.9721 260.765 70.0088 261.028 70.2418 261.593Z" fill="#06D6A0"/>
<path d="M91.8863 315.538C91.5725 319.124 91.824 322.71 91.6148 326.279C91.5992 326.535 91.5992 326.767 91.6103 326.973V326.986L91.4368 350.883C91.3945 351.236 91.3789 351.645 91.3856 352.122C91.4011 353.305 91.4056 354.491 91.4012 355.674L91.3967 356.376C91.3633 360.964 91.2009 365.558 91.1141 370.149C91.094 371.251 91.3744 372.593 89.9524 372.699C89.5741 373.353 89.0355 373.144 88.5281 373.108C87.3976 372.596 87.2307 371.474 87.1016 370.121C86.4095 362.818 85.6306 355.529 84.8806 348.238C85.0008 345.128 84.7404 342.088 83.8369 339.164C86.1002 329.425 87.5267 319.514 87.7158 309.352C88.9888 309.277 90.2617 309.201 91.5347 309.124C92.5094 311.181 92.0688 313.433 91.8863 315.538Z" fill="#1A898C"/>
<path d="M168.37 348.896C143.735 348.905 119.1 348.949 94.4666 348.866C92.8537 348.86 91.9504 349.114 91.5609 350.206C91.4839 350.423 91.4269 350.677 91.3896 350.966L91.5832 327.056C91.5906 327.165 91.6006 327.265 91.6155 327.36V327.363C91.809 328.605 92.6552 328.839 93.9778 328.808C98.3078 328.705 102.64 328.733 106.97 328.711C109.31 328.68 111.648 328.65 113.985 328.619C131.864 328.616 149.742 328.611 167.619 328.605C167.944 335.366 168.633 342.108 168.37 348.896Z" fill="#30B0E6"/>
<path d="M469.789 264.422C469.786 270.637 469.781 276.851 469.779 283.068C469.774 283.993 469.769 284.916 469.766 285.842C469.749 295.62 469.729 305.402 469.712 315.18C469.679 319.709 469.645 324.235 469.612 328.764C463.692 328.712 457.77 328.662 451.85 328.609C451.81 326.306 451.739 324.002 451.736 321.699C451.706 288.506 451.684 255.312 451.662 222.116C452.252 220.735 452.843 219.358 453.527 217.753C457.646 226.503 461.44 228.621 469.64 227.046C469.684 238.79 469.731 250.531 469.776 262.274C469.779 262.987 469.784 263.705 469.789 264.422Z" fill="#59C0EB"/>
<path d="M267.366 315.066C267.366 319.563 267.291 324.064 267.25 328.564C261.624 328.631 255.997 328.697 250.373 328.764L250.272 308.149L250.253 303.865L250.212 295.362L250 250.983C250.005 244.066 250.012 237.149 250.019 230.232C250.022 228.737 250.113 227.24 250.161 225.745C254.081 227.787 257.952 228.115 261.843 225.548C264.575 223.745 265.948 220.745 267.37 217.753C267.37 250.192 267.375 282.627 267.366 315.066Z" fill="#59C0EB"/>
<path d="M250.755 295.461C250.518 295.413 250.259 295.377 250 295.352C250.03 280.587 250.059 265.822 250.104 251.056L250.755 295.461Z" fill="#59C0EB"/>
<path d="M250.755 328.761C250.603 328.761 250.456 328.764 250.304 328.764C250.203 321.99 250.101 315.22 250 308.446C250.193 308.388 250.382 308.33 250.562 308.27L250.755 328.761Z" fill="#59C0EB"/>
<path d="M107.64 120.518C105.564 118.202 103.736 115.686 102.949 111.524C100.603 119.386 96.3755 123.166 89.8808 122.943C85.0643 122.011 81.7544 118.801 79.7645 112.967C76.8153 120.562 72.1215 124.101 65.3716 122.49C60.5747 121.347 57.3826 116.571 56.6465 110.157C87.9694 110.184 119.292 110.234 150.618 110.234C181.227 110.234 211.836 110.187 242.447 110.157C241.709 116.691 238.291 121.411 233.432 122.608C227.561 124.054 223.211 121.173 219.327 113.111C217.408 118.646 214.122 122.032 209.215 122.937C202.72 123.16 198.49 119.383 196.162 111.562C195.352 115.68 193.529 118.202 191.458 120.524C188.124 122.71 184.659 123.578 180.908 122.214C177.176 120.859 175.017 117.443 173.066 113.32C170.448 119.713 166.664 123.098 160.862 122.843C155.164 122.59 151.7 118.895 149.546 112.753C147.485 118.61 144.253 122.325 138.816 122.796C132.667 123.328 128.609 119.904 126.064 113.346C120.814 123.234 115.717 125.168 107.64 120.518Z" fill="#06D6A0"/>
<path d="M268.079 218.277C266.626 221.283 265.23 224.295 262.445 226.107C258.478 228.686 254.535 228.357 250.54 226.308C248.141 224.307 246.141 221.931 245.096 218.294C242.439 225.11 238.196 228.684 231.795 227.793C226.765 227.092 223.308 223.003 222.054 216.912C222.903 215.664 224.118 216.13 225.183 216.13C284.854 216.108 344.525 216.111 404.197 216.125C405.181 216.125 406.258 215.764 407.1 216.736C405.627 223.251 401.952 227.224 396.763 227.905C391.441 228.605 387.13 225.437 384.046 218.464C381.872 224.248 378.282 227.927 372.636 227.905C366.497 227.88 362.859 223.757 360.832 217.16C359.272 223.363 355.957 227.078 350.694 227.81C344.579 228.661 340.46 225.06 337.729 218.509C335.327 224.803 331.463 228.209 325.76 227.885C319.894 227.55 316.41 223.466 314.493 216.7C312.756 223.441 309.294 227.352 303.651 227.866C297.809 228.399 293.846 224.918 291.516 219.098C291.204 219.145 291.059 219.123 291.03 219.181C290.821 219.575 290.635 219.982 290.443 220.39C288.058 225.471 284.331 228.181 279.275 227.896C274.22 227.612 270.763 224.474 268.751 219.212C268.633 218.891 268.989 217.922 268.079 218.277Z" fill="#06D6A0"/>
<path d="M56.4949 343.281C45.9613 340.155 36.8259 334.111 28.8982 325.732C21.5156 317.929 15.8736 308.687 12.0845 298.022C18.4306 298.571 24.6202 300.216 30.8734 301.435C45.6606 304.325 60.4723 307.07 75.2717 309.873C75.7264 314.469 75.4526 319.073 75.3866 323.678C74.8585 323.992 74.245 324.198 73.8123 324.635C69.7934 328.691 65.6865 332.647 61.8608 336.928C60.0322 338.974 57.5583 340.38 56.4949 343.281Z" fill="#185873"/>
<path d="M89.1239 236.99C89.1191 247.298 89.1143 257.609 89.1119 267.917C88.9368 267.76 88.7593 267.606 88.5842 267.451C88.4475 265.184 87.5409 263.237 86.7206 261.251C87.4809 260.524 88.5195 259.854 87.8047 258.456C87.1044 257.084 86.2529 258.266 85.4566 258.459C84.2886 258.748 83.1181 259.026 81.9381 259.236C79.3406 259.696 78.5347 261.074 79.1799 264.062C79.542 265.743 80.5638 267.171 80.5638 268.989C74.0688 263.386 68.2381 256.851 62.0141 250.87C59.3998 248.356 56.8838 245.699 54.2599 243.196C53.0535 242.046 52.7081 240.89 52.9359 238.993C54.1903 228.514 55.2672 218.004 56.4041 207.506C65.4151 213.033 73.3013 220.381 80.9475 228.133C82.1084 229.311 82.9862 231.003 84.6867 231.34C84.9985 232.26 85.2192 233.278 86.2985 233.363L86.2098 233.34C86.4064 233.649 86.6031 233.96 86.7998 234.269C87.5769 235.175 88.3516 236.084 89.1239 236.99Z" fill="#06D6A0"/>
<path d="M226.574 75.9587C223.865 68.5186 222.443 60.7337 222.077 52.7983C221.927 49.5284 221.315 47.9194 218.149 48.4256C218.149 42.8681 218.22 37.3079 218.129 31.7504C218.069 28.0344 218.656 24.2665 217.522 20.619C222.451 20.2851 227.334 20.5068 231.924 22.7314C237.657 25.5115 241.011 30.4753 242.475 37.037C242.791 38.4572 242.884 39.9485 243.815 41.1223C245.191 44.4415 244.6 47.8729 244.509 51.3371C244.311 59.0536 244.444 66.7782 244.442 74.5002C238.482 74.9325 232.583 76.2487 226.574 75.9587Z" fill="#9BD9F3"/>
<path d="M250.136 328.965C255.932 328.897 261.731 328.832 267.527 328.764C279.776 328.802 292.025 328.84 304.273 328.878C304.589 330.366 304.723 331.893 304.948 333.389C305.308 335.791 304.868 338.426 306.336 340.57C306.439 343.159 306.544 345.748 306.647 348.337C288.694 348.345 270.742 348.318 252.79 348.404C250.755 348.415 249.92 347.949 250.006 345.474C250.192 339.976 250.109 334.468 250.136 328.965Z" fill="#30B0E6"/>
<path d="M244.565 74.2922C244.567 66.5528 244.436 58.8106 244.63 51.0767C244.717 47.6047 245.29 44.1628 243.958 40.8389C250.365 37.6685 256.906 35.362 264.061 35.9599C274.62 36.8402 279.398 49.4915 277.56 57.6615C276.594 61.9536 273.319 64.4657 269.963 66.4568C263.211 70.4636 255.859 72.238 248.418 73.6313C247.136 73.8699 245.849 74.0728 244.565 74.2922Z" fill="#9BD9F3"/>
<path d="M44.0878 200.747C47.4452 202.956 51.2101 204.285 54.3807 206.904C53.1241 217.694 51.8675 228.484 50.5333 239.955C35.083 224.918 20.0136 210.249 4.53174 195.179C10.6206 193.59 16.2632 193.626 21.9276 194.221C29.62 195.027 36.8781 197.787 44.0878 200.747Z" fill="#06D6A0"/>
<path d="M364.802 348.405C349.359 348.391 333.913 348.381 318.47 348.367C318.516 347.921 318.38 347.58 317.991 347.385C317.649 345.185 318.028 342.893 317.285 340.744C317.143 336.9 317.192 333.072 317.893 329.282C329.395 329.298 340.894 329.317 352.396 329.33C353.095 329.33 353.818 329.445 354.432 328.924C354.849 328.871 355.267 328.818 355.685 328.764C358.068 333.486 360.509 338.176 362.803 342.949C363.634 344.673 364.856 346.277 364.802 348.405Z" fill="#30B0E6"/>
<path d="M217.602 20.4944C218.688 24.1909 218.126 28.0121 218.183 31.7752C218.27 37.4072 218.205 43.0421 218.202 48.6742C207.609 48.6742 197.012 48.6742 186.418 48.6742C186.517 47.2849 186.034 45.8207 187.937 45.1524C189.33 44.6616 189.318 38.5026 187.93 37.9397C185.892 37.1105 186.07 35.2803 185.801 33.5444C188.521 30.1502 192.166 28.5113 195.751 26.9417C202.815 23.8553 210.069 21.5065 217.602 20.4944Z" fill="#9BD9F3"/>
<path d="M12.0845 296.393C16.2097 289.153 22.0587 284.415 28.6558 280.755C29.6459 280.206 30.6385 279.657 31.6311 279.108C34.19 278.409 36.5674 276.934 39.228 276.674C44.5201 285.312 49.8099 293.95 55.102 302.585C55.4337 303.129 56.1503 303.562 55.7944 304.349C55.4531 305.099 54.7558 304.824 54.1772 304.708C47.9022 303.434 41.6344 302.13 35.3545 300.89C27.6027 299.362 19.8411 297.89 12.0845 296.393Z" fill="#185873"/>
<path d="M87.6133 309.398C87.4087 319.626 85.8662 329.601 83.4187 339.403C82.6101 342.418 81.8016 345.433 80.993 348.448C79.0196 355.747 77.0511 363.047 75.0633 370.341C74.7288 371.568 74.8636 373.367 72.9841 372.938C72.356 373.23 71.7279 373.263 71.0998 372.93C69.6655 372.686 70.4428 371.579 70.5294 370.814C71.3982 363.125 72.8445 355.523 73.1694 347.75C74.5146 340.829 74.8804 333.79 75.0681 326.729C75.831 325.916 75.5037 324.877 75.4965 323.907C75.5614 319.273 75.831 314.638 75.3858 310.012L75.6312 309.978C76.0764 310.491 76.5216 311.007 76.9644 311.519C77.3784 312.685 77.7032 313.907 78.2206 315.005C78.9907 316.642 80.401 316.815 81.8208 316.779C82.4152 316.762 83.3056 316.675 83.3369 316.017C83.4019 314.618 82.1818 314.002 81.5128 313.049C80.9545 312.256 80.3408 311.514 79.7512 310.752C79.9413 310.233 80.1338 309.718 80.3264 309.202C81.9411 309.177 83.5559 309.149 85.1731 309.124C85.9865 309.216 86.7999 309.306 87.6133 309.398Z" fill="#1A898C"/>
<path d="M191.029 328.764C197.045 328.807 203.059 328.853 209.076 328.897C209.108 334.602 209.066 340.31 209.212 346.013C209.262 347.972 208.63 348.425 206.91 348.404C199.503 348.317 192.094 348.371 184.688 348.374C182.927 341.847 183.388 335.321 184.698 328.797C186.806 328.786 188.918 328.775 191.029 328.764Z" fill="#30B0E6"/>
<path d="M185.045 328.393C183.793 335.135 183.352 341.88 185.036 348.625C185.057 354.922 185.086 361.22 184.385 367.482C184.2 369.138 184.373 370.935 183.265 372.315C182.324 372.261 181.384 372.208 180.442 372.155C179.368 365.718 178.294 359.283 177.227 352.843C177.135 352.284 177.145 351.687 176.615 351.383C176.215 348.128 175.924 344.85 175.396 341.626C173.879 332.33 172.268 323.056 170.695 313.773C170.7 313.078 170.704 312.38 170.709 311.685C171.863 311.691 173.017 311.694 174.168 311.699C174.209 312.849 174.39 314.022 174.267 315.15C173.973 317.858 174.818 318.821 177.222 318.614C179.79 318.394 182.389 318.662 184.975 318.718C184.997 321.942 185.021 325.166 185.045 328.393Z" fill="#185873"/>
<path d="M39.0404 276.793C36.3562 277.054 33.9579 278.534 31.3763 279.236C29.1635 277.207 26.9508 275.179 24.1689 272.631C30.0086 271.375 35.201 270.213 40.4081 269.147C50.2703 267.13 60.1496 265.233 69.9971 263.127C71.5993 262.784 72.5982 263.207 73.7925 264.349C76.1909 266.642 78.196 269.522 81.0829 271.102L81.0609 271.068C81.1415 271.915 81.652 272.258 82.2723 272.471C82.2894 272.986 82.3065 273.503 82.326 274.017C80.7825 274.04 79.4368 274.883 78.0226 275.435C65.552 273.375 53.1058 272.949 40.7183 276.239C40.159 276.426 39.5997 276.608 39.0404 276.793Z" fill="#06D6A0"/>
<path d="M453.059 348.879C454.22 353.914 455.847 358.815 456.614 363.967C456.759 364.944 457.271 365.91 456.644 366.898C455.864 366.865 455.172 367.078 454.636 367.75C452.876 368.791 453.031 366.798 452.726 366.06C450.296 360.245 447.985 354.369 445.084 348.812C442.609 344.093 440.94 338.903 438.174 334.354C437.625 330.293 435.404 326.779 435.045 322.654C439.824 321.275 443.339 317.708 446.912 314.247C447.31 319.138 448.804 323.845 448.877 328.791C448.581 335.916 449.767 342.664 453.059 348.879Z" fill="#185873"/>
<path d="M27.9456 220.395C18.9026 221.852 10.6192 223.175 2.34087 224.53C0.74489 224.792 0.175073 224.106 0.0961375 222.321C-0.246739 214.508 0.308277 206.805 2.072 199.223C2.44447 197.625 2.73555 196.344 4.55847 198.11C12.1166 205.43 19.7733 212.626 27.9456 220.395Z" fill="#06D6A0"/>
<path d="M425.475 348.405C418.853 348.391 412.231 348.377 405.61 348.363C405.414 341.5 406.649 334.746 406.823 327.91C407.233 328.001 407.642 328.095 408.053 328.186C414.518 329.147 421.012 328.37 427.492 328.579C427.311 330.246 427.255 331.942 426.925 333.57C425.944 338.423 426.896 343.469 425.685 348.289L425.475 348.405Z" fill="#30B0E6"/>
<path d="M425.635 348.45C426.877 343.575 425.901 338.465 426.907 333.554C427.246 331.907 427.304 330.189 427.489 328.503C427.554 328.283 427.56 328.06 427.507 327.834C428.179 324.383 428.849 320.932 429.521 317.481C430.891 316.116 430.733 313.624 432.479 312.539C432.828 315.104 433.22 317.66 433.513 320.233C433.684 321.732 434.296 322.477 435.691 322.281C436.05 326.424 438.272 329.953 438.822 334.031C437.452 338.864 435.257 343.383 434.346 348.394C431.448 353.462 429.996 359.288 427.497 364.559C426.789 366.05 426.616 367.923 425.133 368.899C424.157 368.84 423.182 368.785 422.206 368.726C422.988 362.081 424.331 355.555 425.66 349.03C425.728 348.843 425.72 348.648 425.635 348.45Z" fill="#242E56"/>
<path d="M453.441 348.404C450.289 342.35 449.157 335.771 449.437 328.824C450.459 328.805 451.481 328.783 452.503 328.764C458.227 328.816 463.953 328.864 469.677 328.916C469.701 334.526 469.648 340.14 469.785 345.747C469.836 347.787 469.358 348.458 467.473 348.401C462.802 348.261 458.121 348.385 453.441 348.404Z" fill="#30B0E6"/>
<path d="M170.333 314.247C171.836 323.454 173.374 332.652 174.819 341.873C175.322 345.074 175.6 348.324 175.982 351.55C175.074 356.307 175.481 361.316 174.185 365.976C173.585 368.131 174.143 370.919 172.006 372.314C171.112 372.254 170.216 372.193 169.322 372.132C169.023 365.586 168.738 359.04 168.412 352.494C168.35 351.248 168.127 350.013 167.978 348.776C168.221 342.031 167.583 335.327 167.284 328.61C167.316 328.41 167.302 328.214 167.242 328.023C167.134 324.57 167.026 321.117 166.918 317.667C169.635 319.165 170.634 317.949 170.285 314.585C170.271 314.477 170.315 314.361 170.333 314.247Z" fill="#242E56"/>
<path d="M406.875 328.17C406.701 335.091 405.459 341.934 405.656 348.886C405.017 350.024 405.105 351.232 405.4 352.457C404.606 352.529 403.815 352.602 403.023 352.674C394.471 352.06 385.911 352.568 377.354 352.406C376.029 352.381 374.689 352.259 373.381 352.432C370.038 352.875 367.032 352.501 365.124 348.811C365.18 346.585 363.951 344.908 363.116 343.109C360.805 338.121 358.351 333.22 355.955 328.285C355.168 326.246 354.381 324.206 353.474 321.855C354.693 321.944 355.591 322.011 356.49 322.075C360.438 330.695 364.411 339.304 368.32 347.949C369.109 349.695 370.394 349.519 371.717 349.516C381.115 349.514 390.516 349.447 399.914 349.572C401.961 349.6 402.851 348.956 402.989 346.596C403.461 338.391 404.039 330.196 404.574 321.994C404.931 318.114 405.462 314.242 405.577 310.35C405.649 308.004 406.399 307.41 408.304 307.494C410.934 307.611 413.574 307.455 416.212 307.416C417.203 308.294 418.193 309.17 419.184 310.049C416.332 311.235 413.38 310.426 410.479 310.549C408.911 310.615 408.122 310.892 408.021 312.984C407.78 318.053 407.276 323.107 406.875 328.17Z" fill="#185873"/>
<path d="M317.2 340.719C317.926 342.966 317.557 345.364 317.892 347.664C317.921 348.08 317.949 348.499 317.976 348.915C317.629 357.079 318.34 365.294 317.109 373.417C316.377 373.902 315.645 374.388 314.913 374.877C314.405 369.928 313.895 364.981 313.388 360.032C312.242 364.529 312.72 369.171 311.687 373.595C310.734 373.291 310.33 374.449 309.576 374.676C308.7 366.059 307.826 357.442 306.95 348.825C306.85 346.16 306.747 343.494 306.646 340.828C310.167 340.786 313.682 340.753 317.2 340.719Z" fill="#F2B691"/>
<path d="M185.554 33.3035C185.829 35.0671 185.646 36.9236 187.745 37.7688C189.173 38.3435 189.186 44.6005 187.752 45.0964C185.794 45.7781 186.291 47.2656 186.19 48.6743C175.486 48.6743 164.782 48.6743 154.079 48.6714C156.825 40.8142 162.894 37.7519 171.548 39.8592C171.748 39.907 171.931 40.0479 172.129 40.0873C174.584 40.5606 176.937 42.8285 179.023 42.5468C180.764 42.313 180.521 38.0477 182.212 36.2249C183.236 35.1234 183.975 33.588 185.554 33.3035Z" fill="#9BD9F3"/>
<path d="M138.947 13.7313C136.612 12.3672 134.264 11.034 131.955 9.61668C131.352 9.24696 130.191 9.09851 130.873 7.70923C132.118 5.16876 136.636 2.86357 139.058 3.533C144.512 5.60851 150.231 6.67008 155.589 9.12091C155.589 11.4569 155.589 13.7957 155.587 16.1317C150.002 15.6668 144.148 17.6302 138.947 13.7313Z" fill="#9BD9F3"/>
<path d="M74.7735 327.056C74.5805 333.94 74.2071 340.803 72.8221 347.551C67.5988 346.827 62.3952 346.012 57.4019 344.048C63.0358 338.188 68.6622 332.32 74.7735 327.056Z" fill="#185873"/>
<path d="M155.589 15.5364C155.589 13.2871 155.589 11.035 155.592 8.78565C159.418 8.78565 162.804 11.2831 166.731 10.9136C164.85 10.1962 162.971 9.48149 161.09 8.76407C161.093 6.9813 161.095 5.19854 161.098 3.41577C168.237 7.31035 175.285 11.3883 182.024 16.0785C179.957 16.1109 177.89 16.1433 175.822 16.1783C169.068 16.3186 162.324 16.1514 155.589 15.5364Z" fill="#9BD9F3"/>
<path d="M402.976 352.883C403.762 352.814 404.551 352.744 405.338 352.674C409.975 358.367 409.653 364.749 404.568 367.916C402.211 369.385 399.633 368.752 397.132 368.819C395.473 368.224 393.811 368.117 392.148 368.803C388.722 368.806 385.297 368.806 381.869 368.809C380.245 368.195 378.62 368.125 376.995 368.795C374.564 368.809 372.133 368.838 369.702 368.83C368.806 368.827 367.782 368.972 367.826 367.406C367.872 365.824 368.947 366.106 369.803 366.103C379.426 366.092 389.05 366.068 398.671 366.138C401.304 366.157 403.779 366.023 405.306 363.199C406.946 360.172 405.646 357.689 404.085 355.23C403.628 354.514 403.34 353.669 402.976 352.883Z" fill="#185873"/>
<path d="M155.642 15.957C162.412 16.568 169.194 16.7342 175.982 16.5948C175.802 16.9915 175.619 17.3908 175.439 17.7875C164.885 18.6639 154.328 19.5134 143.775 20.4273C139.799 20.7704 139.195 19.9798 138.973 13.6628C144.182 17.3908 150.048 15.5121 155.642 15.957Z" fill="#30B0E6"/>
<path d="M160.876 3.55059C160.874 5.49814 160.871 7.4457 160.869 9.39326C157.051 7.94364 153.185 6.65902 149.431 4.99136C146.704 3.7804 143.639 3.71853 141.239 1.39089C148.041 -1.45532 154.5 0.46867 160.876 3.55059Z" fill="#9BD9F3"/>
<path d="M434.29 348.249C435.135 343.238 437.173 338.723 438.445 333.888C441.014 338.453 442.565 343.667 444.864 348.405C441.34 348.352 437.816 348.301 434.29 348.249Z" fill="#02666C"/>
<path d="M80.8522 268.71C80.8522 266.948 79.8638 265.567 79.5103 263.944C78.8847 261.053 79.6661 259.721 82.1848 259.276C83.3291 259.075 84.464 258.804 85.5966 258.524C86.3664 258.334 87.1943 257.194 87.8734 258.521C88.5665 259.873 87.5595 260.522 86.8222 261.224C85.4361 261.775 83.1058 260.88 83.9361 264.476C85.0314 269.22 84.871 269.269 88.6269 267.222C88.7967 267.372 88.9688 267.524 89.1386 267.673C89.1246 269.535 90.7526 271.364 89.2246 273.258C84.5803 273.009 84.5826 273.009 83.3151 267.725C83.1616 267.084 83.0128 266.438 82.7988 265.825C82.6174 265.306 82.3127 264.807 81.7429 265.046C81.1918 265.277 81.1708 265.833 81.3057 266.419C81.5081 267.298 82.5639 268.417 80.8383 268.78L80.8522 268.71Z" fill="#242E56"/>
<path d="M454.699 368.042C455.26 367.374 455.99 367.161 456.809 367.194C456.285 368.183 455.98 369.232 457.346 369.641C460.257 370.516 459.627 372.993 459.97 375.191C458.937 375.37 458.621 373.396 457.27 374.901C453.883 378.678 453.032 378.75 447.13 377.739C447.965 376.063 449.413 375.754 450.844 375.425C454.955 374.487 456.122 372.256 454.699 368.042Z" fill="#242E56"/>
<path d="M315.014 374.613C315.797 374.132 316.581 373.652 317.364 373.168C318.658 375.052 317.498 376.864 317.493 378.682C316.279 379.16 316.212 375.933 314.612 378.146C313.395 379.828 311.208 378.861 309.454 378.939C307.06 379.047 304.658 378.966 301.359 378.966C303.964 375.942 307.452 376.779 309.3 374.411C310.11 374.188 310.54 373.041 311.559 373.342C311.692 374.312 311.825 375.282 311.984 376.428C313.106 375.884 314.266 375.688 315.014 374.613Z" fill="#242E56"/>
<path d="M392.073 368.541C393.769 367.822 395.462 367.935 397.153 368.557C397.305 368.861 397.429 369.183 397.614 369.461C399.215 371.877 399.287 374.265 397.185 376.277C395.587 377.806 393.681 377.843 392.068 376.28C389.968 374.248 390.093 371.863 391.637 369.444C391.816 369.166 391.931 368.841 392.073 368.541ZM396.864 372.764C396.687 371.599 396.281 370.623 394.991 370.558C393.694 370.494 392.757 370.988 392.69 372.615C392.633 373.987 393.258 374.756 394.491 374.888C395.853 375.034 396.6 374.299 396.864 372.764Z" fill="#185873"/>
<path d="M376.844 368.542C378.353 367.841 379.86 367.914 381.364 368.556C381.62 369.028 381.876 369.499 382.13 369.97C383.356 372.237 383.179 374.413 381.563 376.175C380.05 377.824 378.274 377.878 376.731 376.223C375.086 374.458 375.013 372.267 376.119 369.993C376.359 369.507 376.604 369.028 376.844 368.542ZM381.149 372.666C380.9 371.235 380.27 370.43 379.01 370.568C377.895 370.688 377.297 371.406 377.331 372.8C377.37 374.436 378.201 374.952 379.391 374.904C380.555 374.857 380.968 373.917 381.149 372.666Z" fill="#185873"/>
<path d="M140.812 1.75586C143.307 3.84915 146.493 3.90479 149.328 4.99384C153.231 6.49359 157.25 7.64887 161.219 8.95254C163.12 9.65472 165.018 10.3595 166.918 11.0644C162.951 11.4274 159.529 8.97374 155.664 8.97374C150.272 6.65257 144.511 5.64832 139.02 3.68487C138.792 2.16657 139.382 1.51738 140.812 1.75586Z" fill="#C3E8F8"/>
<path d="M425.028 371.461C426.675 373.071 425.725 375.05 425.564 376.902C425.539 377.186 425.116 377.697 425.043 377.661C421.661 375.898 418.409 379.28 415.051 377.992C414.691 377.853 414.194 378.166 413.978 377.564C413.721 376.855 414.128 376.412 414.51 376.025C415.571 374.952 416.808 374.418 418.217 374.48C421.374 376.237 423.033 373.325 425.028 371.461Z" fill="#242E56"/>
<path d="M80.8159 268.651C82.5255 268.274 81.4795 267.119 81.279 266.205C81.1454 265.598 81.1661 265.022 81.7122 264.783C82.2789 264.535 82.5808 265.053 82.7582 265.59C82.9701 266.225 83.1176 266.894 83.2697 267.558C84.5253 273.031 84.523 273.031 89.1241 273.29C89.1241 273.86 89.1241 274.434 89.1241 275.005C87.691 275.229 86.668 276.964 85.0852 276.632C84.0231 276.365 83.325 275.533 82.7996 274.434C82.7835 273.925 82.7674 273.413 82.749 272.905C82.6937 272.042 82.4425 271.42 81.6039 271.516L81.6246 271.55C81.7905 270.403 81.1869 269.576 80.8159 268.651Z" fill="#F2B691"/>
<path d="M70.6123 372.315C71.2933 372.651 71.9742 372.617 72.6551 372.323C71.8281 373.551 72.4725 373.893 73.4482 374.598C75.2248 375.88 77.6432 375.699 79.3051 377.728C76.2944 379.032 73.3986 377.618 70.5341 377.963C68.9505 378.152 69.4697 375.778 70.0984 374.677C70.568 373.861 71.3037 373.342 70.6123 372.315Z" fill="#242E56"/>
<path d="M88.6727 373.503C89.2561 373.532 89.8779 373.703 90.3104 373.168C91.2111 375.096 93.4016 375.144 95.18 375.764C95.8633 376.003 96.8382 376.065 96.654 376.89C96.4518 377.785 95.4283 377.297 94.768 377.369C92.8233 377.583 90.8938 376.412 88.9056 377.338C88.4705 377.54 87.841 377.369 87.7131 376.762C87.4572 375.546 87.6645 374.428 88.6727 373.503Z" fill="#242E56"/>
<path d="M172.14 373.168C173.782 375.243 172.521 377.302 172.113 380C171.552 377.02 170.867 377.346 169.442 378.753C167.683 380.489 165.35 379.175 163.142 379.551C163.215 377.684 164.216 377.398 165.345 377.291C168.327 378.275 170.403 377.017 172.14 373.168Z" fill="#185873"/>
<path d="M183.45 373.168C185.1 375.105 183.845 377.02 183.645 379.009C182.347 378.813 183.019 377.605 182.354 377.012C180.298 379.983 177.351 378.946 174.471 379.061C174.542 377.363 175.545 377.105 176.671 377.004C179.648 377.913 181.709 376.748 183.45 373.168Z" fill="#185873"/>
<path d="M425.046 371.664C423.107 373.344 421.496 375.97 418.429 374.388C420.739 373.408 422.126 371.64 422.377 368.899C423.327 368.955 424.277 369.011 425.227 369.064C425.168 369.93 425.107 370.798 425.046 371.664Z" fill="#F2B691"/>
<path d="M84.561 348.404C83.311 348.376 82.0634 348.344 80.8159 348.315C81.6679 345.214 82.5198 342.113 83.3718 339.011C84.4013 342.038 84.6979 345.185 84.561 348.404Z" fill="#185873"/>
<path d="M172.205 373.28C170.468 376.883 168.392 378.061 165.408 377.137C167.211 376.038 169.033 374.955 169.316 372.315C170.266 372.375 171.217 372.435 172.166 372.495C172.181 372.759 172.193 373.021 172.205 373.28Z" fill="#F2B691"/>
<path d="M183.535 373.279C181.594 376.883 179.298 378.057 175.982 377.14C177.955 376.014 180.018 374.974 180.313 372.315C181.375 372.367 182.436 372.422 183.494 372.474C183.508 372.739 183.521 373.01 183.535 373.279Z" fill="#F2B691"/>
<path d="M117.069 3.64558C119.478 3.22314 121.792 3.25683 123.867 4.84293C121.442 5.60488 119.229 4.68484 117.069 3.64558Z" fill="#30B0E6"/>
<path d="M106.496 2.96011C108.792 2.41598 111.063 2.39034 113.293 3.12676C111.004 3.54982 108.736 3.5199 106.496 2.96011Z" fill="#30B0E6"/>
<path d="M37.0089 104.18C34.9839 107.103 32.4938 107.413 30.3312 108.406C29.9762 108.568 29.4737 108.266 29.4562 107.68C29.4487 107.405 29.7137 106.919 29.9162 106.869C32.1413 106.309 34.0188 104.417 37.0089 104.18Z" fill="#30B0E6"/>
<path d="M93.6555 5.23182C91.6613 7.00904 89.4429 7.96995 86.8579 8.53927C88.2276 6.0391 90.8173 4.72275 93.6555 5.23182Z" fill="#30B0E6"/>
<path d="M84.5921 9.39331C82.9153 11.5909 80.8651 13.0869 78.5498 14.5169C79.1039 11.8277 81.3493 9.867 84.5921 9.39331Z" fill="#30B0E6"/>
<path d="M57.115 53.7979C57.6675 57.7175 57.4392 60.5193 56.2749 63.1911C55.6311 60.2651 55.7247 57.4402 57.115 53.7979Z" fill="#30B0E6"/>
<path d="M54.3805 77.9277C54.3161 80.6478 53.6023 83.1452 52.1574 85.3932C51.8922 85.31 51.6246 85.2268 51.3594 85.1464C52.0409 82.6677 52.725 80.1864 53.4065 77.7078C53.7337 77.7802 54.0583 77.8526 54.3805 77.9277Z" fill="#30B0E6"/>
<path d="M95.9214 4.04336C98.2616 2.52417 100.553 3.02014 102.585 2.58252C102.977 2.49708 103.421 2.67629 103.47 3.10559C103.519 3.52863 103.142 3.7787 102.73 3.75786C100.636 3.65783 98.6217 4.71856 95.9214 4.04336Z" fill="#30B0E6"/>
<path d="M70.2417 21.3484C71.0773 18.2074 73.3502 16.8579 75.5287 15.3708C74.2803 17.9761 72.5569 20.0048 70.2417 21.3484Z" fill="#30B0E6"/>
<path d="M55.8404 65.7529C56.3564 66.2071 56.4974 66.2683 56.5094 66.3498C56.9234 69.107 56.3684 71.7333 55.2855 74.2692C55.2525 74.3449 54.3975 74.2139 54.3975 74.1644C54.3105 71.3664 54.5325 68.615 55.8404 65.7529Z" fill="#30B0E6"/>
<path d="M44.5619 98.2021C43.3263 100.735 41.8183 102.842 39.2749 103.326C40.6572 101.022 42.3978 99.2819 44.5619 98.2021Z" fill="#30B0E6"/>
<path d="M64.1992 29.8877C64.6973 27.323 66.106 25.4449 67.9757 23.9102C67.5401 26.4925 65.9924 28.2772 64.1992 29.8877Z" fill="#30B0E6"/>
<path d="M62.6886 33.3035C62.3883 35.9165 61.3968 38.2006 59.6675 40.1349C59.74 37.441 60.6228 35.1099 62.6886 33.3035Z" fill="#30B0E6"/>
<path d="M57.5348 51.236C57.1919 48.7764 57.4784 46.4579 58.7937 44.4045C59.1743 46.852 58.6097 49.0951 57.5348 51.236Z" fill="#30B0E6"/>
<path d="M46.8276 95.6405C47.2701 92.7638 49.0143 90.8499 50.6041 88.8091C50.5346 91.9049 48.8162 93.8765 46.8276 95.6405Z" fill="#30B0E6"/>
<path d="M26.4353 108.709C24.3221 110.653 21.986 110.231 19.6377 109.767C21.8309 108.788 24.0434 108.031 26.4353 108.709Z" fill="#30B0E6"/>
<path d="M175.227 17.6632C175.412 17.2215 175.6 16.7768 175.786 16.335C177.928 16.2992 180.071 16.2634 182.213 16.2246C182.5 16.4156 183.105 16.9708 182.559 16.9917C180.101 17.0753 177.732 18.5169 175.227 17.6632Z" fill="#30B0E6"/>
<path d="M318.108 348.404C318.063 348.12 318.017 347.835 317.976 347.551C318.578 347.69 318.787 347.934 318.718 348.254C318.552 348.34 318.347 348.389 318.108 348.404Z" fill="#1A898C"/>
<path d="M452.417 328.619C451.369 328.639 450.321 328.661 449.273 328.681C449.204 323.723 447.738 318.999 447.346 314.094C447.568 312.653 447.13 311.389 446.579 310.119C443.612 303.289 441.668 296.204 442.549 288.455C443.144 289.087 443.031 289.927 443.085 290.726C443.174 292.018 443.295 293.41 444.571 293.852C445.92 294.32 447.253 294.022 448.166 292.664C448.776 291.756 449.425 290.793 449.735 289.732C451.285 284.438 450.161 280.719 445.971 277.496C444.072 276.034 442.857 274.64 444.239 271.856C446.736 266.829 446.013 261.885 442.365 257.777C442.397 257.568 442.372 257.365 442.293 257.173C442.303 254.166 442.313 251.157 442.323 248.151C442.36 244.335 442.286 240.51 442.478 236.702C442.598 234.303 441.961 233.559 439.769 233.568C413.676 233.668 387.581 233.654 361.488 233.671C360.603 233.693 359.715 233.712 358.829 233.735C357.808 233.696 356.789 233.626 355.771 233.626C330.438 233.621 305.108 233.623 279.776 233.623C279.377 233.584 279.163 233.793 279.136 234.244C279.161 245.596 279.185 256.947 279.21 268.299C279.21 280.107 279.212 291.918 279.212 303.726C279.176 311.01 279.185 318.295 279.07 325.58C279.04 327.498 279.498 328.199 281.284 328.168C288.95 328.037 296.616 328.06 304.282 328.026C304.294 328.271 304.306 328.519 304.319 328.764C292.003 328.725 279.687 328.686 267.372 328.647C267.413 324.138 267.49 319.631 267.49 315.122C267.5 282.62 267.495 250.116 267.495 217.615C268.407 217.261 268.051 218.227 268.174 218.55C270.191 223.797 273.657 226.929 278.725 227.21C283.796 227.494 287.533 224.791 289.924 219.725C290.116 219.321 290.303 218.912 290.512 218.52C290.542 218.464 290.687 218.486 290.999 218.436C293.336 224.24 297.307 227.708 303.167 227.179C308.826 226.667 312.297 222.767 314.039 216.045C315.96 222.792 319.454 226.868 325.336 227.199C331.051 227.522 334.926 224.126 337.337 217.849C340.075 224.382 344.206 227.975 350.336 227.124C355.614 226.392 358.937 222.687 360.502 216.504C362.534 223.082 366.182 227.193 372.338 227.218C377.999 227.241 381.598 223.572 383.778 217.804C386.868 224.76 391.193 227.917 396.529 227.218C401.732 226.539 405.415 222.578 406.894 216.081C407.253 216.12 407.612 216.162 407.971 216.204C409.009 222.046 412.358 226.161 417.374 227.032C423.916 228.168 428.268 224.554 430.935 218.002C431.744 219.497 432.352 220.952 433.218 222.172C438.175 229.153 445.733 228.927 452.24 221.668C452.262 255.004 452.284 288.341 452.314 321.68C452.306 323.993 452.378 326.306 452.417 328.619Z" fill="#30B0E6"/>
<path d="M452.023 222.25C445.533 229.71 437.993 229.941 433.044 222.768C432.18 221.515 431.571 220.019 430.766 218.483C428.103 225.216 423.763 228.929 417.237 227.762C412.232 226.867 408.891 222.639 407.855 216.635C408.957 215.328 410.366 215.895 411.635 215.895C439.6 215.86 467.568 215.877 495.534 215.846C496.815 215.846 498.204 216.355 499.358 215.191C500.865 217.599 499.36 219.521 498.496 221.441C497.91 222.742 496.938 223.809 496.14 224.982C495.899 225.25 495.656 225.519 495.416 225.788L495.337 225.694C494.591 226.163 493.842 226.632 493.096 227.101C485.138 229.212 482.021 227.573 476.879 218.466C475.632 222.702 473.042 225.382 469.804 227.338C461.694 228.966 457.939 226.781 453.864 217.748C453.192 219.404 452.607 220.828 452.023 222.25Z" fill="#06D6A0"/>
<path d="M184.923 328.764C184.899 325.555 184.874 322.343 184.85 319.133C186.115 318.172 185.415 316.857 185.28 315.693C184.928 312.626 184.497 309.569 184.098 306.507C184.135 282.983 184.159 259.456 184.23 235.932C184.235 234.198 183.576 233.809 182.208 233.818C171.741 233.896 161.275 233.915 150.809 233.954C149.93 233.932 149.051 233.912 148.172 233.89C137.595 233.873 127.016 233.865 116.439 233.823C115.115 233.818 114.067 233.812 114.094 235.921C114.204 244.688 114.214 253.454 114.26 262.224C114.263 273.777 114.263 285.331 114.265 296.885C114.246 307.238 114.226 317.594 114.207 327.947C114.194 328.178 114.182 328.408 114.17 328.639C111.864 328.669 109.557 328.7 107.251 328.731C107.271 305.621 107.295 282.513 107.307 259.406C107.327 212.958 107.339 166.508 107.354 120.06C115.414 124.456 120.499 122.628 125.738 113.28C128.274 119.479 132.326 122.717 138.462 122.214C143.89 121.769 147.114 118.257 149.168 112.719C151.318 118.526 154.775 122.019 160.46 122.258C166.25 122.503 170.025 119.299 172.638 113.255C174.584 117.154 176.741 120.38 180.462 121.663C184.206 122.953 187.663 122.133 190.99 120.066C191.005 186.272 191.017 252.476 191.034 318.683C191.034 322.034 191.071 325.382 191.088 328.733C189.029 328.742 186.975 328.753 184.923 328.764ZM150.74 143.676C149.947 143.62 149.156 143.562 148.363 143.506C144.776 143.234 141.476 144.401 138.565 146.61C128.549 154.201 123.415 165.419 120.628 178.314C119.977 178.82 120.129 179.604 120.087 180.321C117.529 187.948 117.277 196.012 116.586 203.995C116.393 206.245 117.727 205.981 118.946 205.979C128.688 205.959 138.432 205.942 148.174 205.923C149.051 205.904 149.93 205.884 150.806 205.867C160.026 205.904 169.247 205.926 178.467 205.992C179.752 206.001 180.661 205.828 180.501 203.975C179.809 196.003 179.559 187.948 177.005 180.332C176.973 179.598 177.115 178.801 176.432 178.303C173.791 165.702 168.74 154.788 159.214 147.113C156.719 145.101 153.93 143.659 150.74 143.676Z" fill="#30B0E6"/>
<path d="M85.3625 276.545C87.0598 276.867 88.1593 275.184 89.6936 274.966C91.7566 276.166 92.4657 278.435 93.323 280.584C94.5707 283.715 95.7467 286.889 98.0815 290.317C98.6424 286.197 98.1705 282.954 97.8024 279.712C98.9809 279.687 100.157 279.662 101.335 279.638C103.885 282.651 103.749 286.674 104.32 290.317C104.688 292.66 105.355 295.101 104.725 297.659C103.754 301.605 101.667 302.835 98.4274 300.789C96.8487 299.791 95.4972 298.36 94.0247 297.149C93.6294 296.824 93.1254 296.298 92.7597 296.374C91.9888 296.532 92.1667 297.419 92.1593 298.062C92.1247 301.676 92.1124 305.287 92.0926 308.9C90.6794 308.974 89.2662 309.047 87.8529 309.124C87.0178 309.034 86.1827 308.946 85.3477 308.856C85.3551 298.084 85.36 287.315 85.3625 276.545Z" fill="#C5E4EB"/>
<path d="M103.474 271.999C102.127 271.728 100.783 271.446 99.4336 271.191C97.9552 270.911 96.9541 271.495 96.6058 273.219C96.2332 273.518 95.8581 273.816 95.483 274.112C94.18 273.476 94.1483 271.158 92.1755 271.207C91.3912 271.226 91.3449 269.804 91.4107 268.88C91.4886 267.781 92.2023 267.365 93.0328 267.151C96.4451 266.277 99.3288 264.174 102.249 262.157C102.39 265.482 102.563 268.798 103.474 271.999Z" fill="#185873"/>
<path d="M103.278 271.798C102.299 268.72 102.113 265.532 101.964 262.335C102.752 261.102 103.689 260.828 104.331 262.325C105.501 265.063 106.125 267.938 105.483 270.942C105.195 272.283 104.577 272.987 103.278 271.798Z" fill="#242E56"/>
<path d="M95.9214 274.25C96.2802 273.919 96.6391 273.587 96.9956 273.258C99.54 274.293 100.749 276.749 101.208 280.008C100.097 280.035 98.9855 280.062 97.874 280.09C97.2216 279.064 97.168 277.452 96.0286 276.91C95.9913 276.173 95.9563 275.437 95.9214 274.701C95.968 274.549 95.968 274.399 95.9214 274.25Z" fill="#F2B691"/>
<path d="M95.7417 274.966C95.8002 275.536 95.8627 276.105 95.9213 276.674C94.9879 276.14 94.9098 275.571 95.7417 274.966Z" fill="#185873"/>
<path d="M114.048 328.764C114.061 328.533 114.073 328.303 114.086 328.072C124.809 328.1 135.533 328.086 146.254 328.197C148.167 328.216 148.729 327.505 148.707 325.414C148.605 315.938 148.623 306.462 148.598 296.986C148.598 285.192 148.598 273.397 148.598 261.603C148.563 252.393 148.529 243.184 148.496 233.978C149.387 234 150.277 234.019 151.167 234.041C151.175 244.855 151.185 255.668 151.192 266.484C151.197 277.122 151.2 287.757 151.205 298.395C151.187 308.102 151.172 317.812 151.155 327.519C151.324 327.699 151.49 327.88 151.658 328.061C156.976 328.094 162.293 328.125 167.61 328.158C167.675 328.35 167.69 328.547 167.657 328.747C149.783 328.753 131.917 328.758 114.048 328.764Z" fill="#62C0C4"/>
<path d="M89.1239 266.78C85.0423 268.94 85.2167 268.886 84.0264 263.881C83.1241 260.089 85.6565 261.034 87.1627 260.449C88.0245 262.478 88.9799 264.466 89.1239 266.78Z" fill="#F2B691"/>
<path d="M304.633 328.765C304.62 328.521 304.608 328.274 304.596 328.03C304.242 320.627 302.179 313.141 305.431 305.913C309.457 305.844 313.483 305.777 317.51 305.708C317.634 305.766 317.764 305.788 317.898 305.774C318.794 307.897 319.69 310.018 320.584 312.141C321.372 315.478 320.967 318.685 319.922 321.886C319.26 323.912 318.838 326.038 318.308 328.119C318.225 328.319 318.145 328.515 318.062 328.715C317.358 332.648 317.312 336.625 317.454 340.616C313.864 340.65 310.275 340.686 306.688 340.719C305.223 338.527 305.665 335.833 305.304 333.377C305.082 331.847 304.948 330.287 304.633 328.765Z" fill="#185873"/>
<path d="M317.976 328.54C318.51 326.405 318.934 324.224 319.603 322.146C320.657 318.862 321.066 315.573 320.271 312.15C320.926 311.4 321.022 310.308 320.736 309.54C319.522 306.305 320.963 304.608 323.174 303.17C323.864 302.72 324.43 302.024 325.053 301.438C325.243 303.161 326.388 302.899 327.378 302.908C329.106 302.925 330.838 302.973 332.564 302.902C341.279 302.547 350.026 303.724 358.719 302.214C358.734 308.597 358.746 314.979 358.761 321.364C358.599 321.58 358.438 321.799 358.276 322.015C357.636 322.098 356.993 322.183 356.353 322.265C355.451 322.197 354.552 322.132 353.331 322.041C354.24 324.437 355.028 326.515 355.816 328.594C355.395 328.65 354.974 328.707 354.552 328.764C342.36 328.693 330.168 328.616 317.976 328.54Z" fill="#C3E8F8"/>
<path d="M318.226 327.91C330.479 328.007 342.733 328.104 354.985 328.201C354.363 328.903 353.628 328.752 352.923 328.748C341.273 328.73 329.626 328.705 317.976 328.683C318.06 328.424 318.144 328.169 318.226 327.91Z" fill="#C3E8F8"/>
<path d="M85.3472 276.272C85.3421 287.191 85.3396 298.11 85.3345 309.029C83.6218 309.054 81.9065 309.079 80.1938 309.107L80.2015 309.124C80.005 307.901 79.8084 306.679 79.0121 305.703C78.9916 305.49 78.9712 305.277 78.9482 305.067C79.0452 300.129 76.8731 295.542 77.0492 290.589L77.0952 290.523C77.2866 290.316 77.4806 290.105 77.672 289.898L77.7256 289.829C79.3822 287.888 80.273 285.242 82.8611 284.122C84.0659 283.599 83.1062 282.399 82.4961 281.597C81.0923 279.753 79.7114 277.889 78.3203 276.031C78.305 275.852 78.305 275.672 78.3178 275.492C79.7957 274.956 81.202 274.134 82.8152 274.112C83.3972 275.188 84.1705 276.009 85.3472 276.272Z" fill="#D5EBEA"/>
<path d="M78.8657 305.36C78.8876 305.573 78.9071 305.785 78.9265 305.998C79.1601 307.2 78.0822 308.961 80.0603 309.417L80.053 309.4C79.8584 309.908 79.6662 310.417 79.4715 310.925C78.5324 311.177 77.5932 311.431 76.6564 311.685C76.2063 311.18 75.7562 310.671 75.3085 310.166C74.9168 309.464 74.5226 308.762 74.1309 308.06C72.9703 305.282 71.7221 302.544 70.6685 299.714C69.4666 296.48 68.9191 293.145 70.3011 289.749C71.9897 285.6 73.8438 281.577 76.8194 278.382C78.4277 282.171 77.3523 286.219 77.7002 290.133L77.6491 290.202C77.4667 290.409 77.2817 290.619 77.0993 290.826L77.0555 290.893C75.6102 296.044 77.5226 300.656 78.8657 305.36Z" fill="#D1EAEB"/>
<path d="M77.0391 311.595C78.0299 311.34 79.0208 311.087 80.0091 310.832C80.638 311.589 81.2926 312.322 81.8882 313.11C82.6018 314.054 83.9033 314.665 83.834 316.05C83.8006 316.7 82.8508 316.788 82.2168 316.805C80.6996 316.841 79.1979 316.669 78.3765 315.048C77.8271 313.957 77.478 312.75 77.0391 311.595Z" fill="#F2B691"/>
<path d="M184.258 306.522C184.669 309.638 185.11 312.749 185.476 315.87C185.614 317.055 186.338 318.392 185.032 319.371C182.323 319.314 179.602 319.043 176.914 319.266C174.399 319.475 173.512 318.5 173.819 315.757C173.948 314.615 173.761 313.427 173.716 312.262C173.756 310.388 173.794 308.51 173.834 306.635C174.672 307.105 175.494 307.614 176.346 308.041C179.627 309.681 181.214 308.79 181.882 304.888C182.23 302.863 182.318 300.777 183.125 298.876C183.503 301.421 183.882 303.972 184.258 306.522Z" fill="#06D6A0"/>
<path d="M173.716 306.397C173.678 308.159 173.643 309.923 173.605 311.686C172.473 311.68 171.341 311.678 170.208 311.672C170.518 308.717 169.828 306.894 166.731 307.795C161.979 307.534 161.979 307.534 161.769 303.555C162.15 302.583 162.745 301.642 162.861 300.629C163.074 298.79 163.476 296.597 160.776 296.539C159.53 295.048 160.202 294.213 161.613 293.865C162.44 293.661 163.336 293.801 164.202 293.785C167.35 293.825 169.137 295.513 169.326 299.136C168.464 303.335 171.452 304.589 173.716 306.397Z" fill="#FEFEFE"/>
<path d="M166.599 308.507C170.178 307.582 170.973 309.456 170.618 312.486C170.612 313.165 170.607 313.847 170.601 314.527C170.579 314.638 170.528 314.753 170.541 314.857C170.956 318.171 169.768 319.368 166.539 317.895C165.558 317.197 165.171 316.488 165.553 315.113C166.143 312.977 166.274 310.716 166.599 308.507Z" fill="#06D6A0"/>
<path d="M77.079 278.295C74.0529 281.522 72.169 285.586 70.4557 289.775C69.0514 293.206 69.6052 296.575 70.829 299.84C71.8995 302.698 73.1678 305.464 74.3471 308.27C70.1244 307.522 65.9116 306.676 61.6716 306.062C58.8161 305.649 57.6986 303.165 56.2919 300.948C51.1223 292.795 45.9527 284.637 40.7856 276.481C53.3227 273.248 65.9215 273.667 78.5475 275.691C78.5327 275.872 78.5352 276.054 78.55 276.235C78.058 276.922 77.5685 277.608 77.079 278.295Z" fill="#185873"/>
<path d="M81.5708 271.556C82.1224 271.498 82.2896 271.877 82.3261 272.404C81.9386 272.276 81.621 272.068 81.5708 271.556Z" fill="#FEFEFE"/>
<path d="M442.367 288.933C441.5 296.629 443.408 303.659 446.319 310.44C446.86 311.7 447.29 312.952 447.073 314.386C443.63 317.832 440.245 321.383 435.643 322.756C434.301 322.95 433.712 322.209 433.548 320.725C433.265 318.175 432.889 315.641 432.553 313.098C432.377 311.954 432.201 310.81 432.024 309.663C433.405 309.398 434.786 309.114 436.17 308.873C440.281 308.16 440.977 307.279 441.08 302.385C441.189 297.217 441.138 292.052 440.279 286.949C441.597 286.755 442.147 287.615 442.367 288.933Z" fill="#62C0C4"/>
<path d="M407.1 328.479C407.496 323.311 408 318.151 408.239 312.973C408.337 310.838 409.125 310.556 410.685 310.487C413.571 310.362 416.509 311.188 419.346 309.978C421.753 309.986 424.157 309.992 426.564 310C424.654 314.434 424.649 314.44 428.425 317.219C428.831 317.518 429.313 317.684 429.758 317.911C429.103 321.437 428.45 324.962 427.794 328.488C421.308 328.579 414.819 328.673 408.332 328.764C407.921 328.667 407.511 328.573 407.1 328.479Z" fill="#C3E8F8"/>
<path d="M407.855 328.21C414.391 328.111 420.925 328.009 427.459 327.91C427.509 328.161 427.504 328.408 427.44 328.653C420.915 328.415 414.372 329.29 407.855 328.21Z" fill="#1A898C"/>
<path d="M429.055 317.663C428.597 317.437 428.101 317.274 427.683 316.978C423.798 314.226 423.8 314.22 425.768 309.83C427.641 309.291 429.538 309.018 431.473 309.162C431.657 310.329 431.84 311.496 432.024 312.666C430.27 313.76 430.426 316.281 429.055 317.663Z" fill="#1A898C"/>
<path d="M166.637 307.877C166.352 310.137 166.237 312.449 165.719 314.633C165.386 316.039 165.723 316.767 166.582 317.478C166.694 320.954 166.806 324.432 166.919 327.91C161.793 327.877 156.668 327.846 151.543 327.812C151.38 327.631 151.22 327.45 151.058 327.266C151.074 317.525 151.089 307.782 151.105 298.042C154.218 298.036 157.33 298.028 160.443 298.022C159.384 300.251 160.503 301.838 161.616 303.425C161.832 307.604 161.832 307.604 166.637 307.877Z" fill="#C3E8F8"/>
<path d="M415.724 307.504C413.101 307.543 410.47 307.7 407.853 307.581C405.956 307.496 405.21 308.087 405.139 310.409C405.022 314.259 404.496 318.094 404.138 321.933C389.766 321.875 375.397 321.814 361.027 321.756C361.076 307.532 361.125 293.308 361.174 279.086C367.017 279.904 372.887 279.801 378.756 279.79C392.967 279.763 407.177 279.73 421.385 279.818C424.857 279.84 428.246 279.553 431.561 278.382C431.967 280.243 432.373 282.105 432.78 283.966C429.883 289.058 427.999 294.387 429.736 300.562C429.144 302.338 428.552 304.113 427.962 305.889C424.199 306.742 420.517 309.18 416.587 306.35C415.758 305.756 415.706 306.811 415.724 307.504Z" fill="#C3E8F8"/>
<path d="M361.213 321.933C375.502 321.99 389.789 322.051 404.079 322.108C403.548 330.18 402.977 338.251 402.51 346.327C402.376 348.651 401.493 349.285 399.466 349.258C390.166 349.134 380.866 349.2 371.564 349.203C370.255 349.203 368.983 349.376 368.202 347.659C364.336 339.149 360.405 330.677 356.496 322.188C357.128 322.108 357.763 322.026 358.396 321.946C358.595 321.946 358.794 321.946 358.994 321.949C359.733 321.944 360.473 321.938 361.213 321.933Z" fill="#06D6A0"/>
<path d="M416.166 307.361C416.148 306.672 416.2 305.625 417.026 306.216C420.952 309.032 424.632 306.606 428.392 305.757C429.492 305.779 430.477 305.367 431.411 304.754C436.184 303.649 436.213 303.644 435.521 298.5C435.174 295.93 434.592 293.397 434.308 290.822C433.79 286.126 434.89 284.931 439.149 285.266C439.511 285.755 439.87 286.247 440.232 286.736C441.105 291.811 441.154 296.944 441.046 302.086C440.944 306.952 440.237 307.829 436.074 308.538C434.67 308.777 433.274 309.06 431.876 309.323C429.996 309.186 428.152 309.453 426.333 309.977C423.928 309.969 421.525 309.964 419.119 309.955C418.136 309.09 417.151 308.224 416.166 307.361Z" fill="#F2B691"/>
<path d="M314.955 374.707C314.137 375.818 312.868 376.021 311.643 376.584C311.47 375.398 311.324 374.395 311.178 373.392C312.391 368.862 311.831 364.11 313.17 359.506C313.767 364.573 314.361 369.64 314.955 374.707Z" fill="#FEFEFE"/>
<path d="M396.525 373.206C396.287 375.016 395.612 375.878 394.379 375.71C393.268 375.554 392.701 374.649 392.752 373.034C392.813 371.118 393.659 370.537 394.831 370.613C395.999 370.686 396.368 371.835 396.525 373.206Z" fill="#185873"/>
<path d="M381.42 373.096C381.241 374.568 380.835 375.674 379.681 375.727C378.505 375.783 377.683 375.176 377.645 373.251C377.613 371.614 378.205 370.766 379.305 370.624C380.551 370.465 381.171 371.413 381.42 373.096Z" fill="#185873"/>
<path d="M280.095 233.978C305.303 233.978 330.508 233.975 355.716 233.981C356.729 233.981 357.745 234.05 358.761 234.088C358.754 245.232 358.747 256.374 358.742 267.518C354.942 268.419 351.089 268.164 347.25 268.177C337.402 268.213 327.556 268.227 317.707 268.249C317.646 267.37 317.597 266.488 317.524 265.61C317.262 262.427 315.736 260.716 313.176 260.721C309.403 260.73 306.676 262.883 306.495 265.994C304.987 269.081 305.07 272.459 305.073 275.82C302.546 273.969 301.295 270.753 298.987 268.672C296.597 264.047 294.404 259.277 291.765 254.839C289.214 250.549 289.988 244.23 285.153 241.407C284.448 242.599 286.027 243.774 285.16 244.974C283.995 246.592 284.741 248.154 285.652 249.294C289.968 254.693 290.911 261.699 293.018 268.147C288.521 268.161 284.024 268.177 279.529 268.191C279.505 256.992 279.481 245.793 279.456 234.593C279.669 234.387 279.882 234.181 280.095 233.978Z" fill="#C3E8F8"/>
<path d="M431.667 278.627C428.34 279.819 424.939 280.111 421.454 280.089C407.192 279.999 392.933 280.033 378.671 280.061C372.78 280.072 366.889 280.173 361.027 279.344C361.03 269.29 361.032 259.237 361.035 249.183C362.417 249.52 363.763 249.964 365.224 249.914C390.757 249.009 416.342 251.67 441.843 248.494C441.833 251.53 441.823 254.568 441.814 257.604C441.59 257.637 441.369 257.674 441.146 257.708C439.164 257.472 437.089 257.365 436.343 260.029C435.795 261.98 434.823 261.932 433.411 261.8C431.159 261.592 429.491 262.643 428.909 265.35C427.335 268.992 427.736 272.879 428.121 276.657C428.335 278.728 430.805 277.14 431.667 278.627Z" fill="#C3E8F8"/>
<path d="M441.675 248.602C416.224 251.757 390.691 249.113 365.208 250.012C363.75 250.062 362.407 249.621 361.027 249.286C361.069 244.217 361.111 239.15 361.152 234.081C387.144 234.064 413.139 234.078 439.131 233.978C441.312 233.969 441.949 234.712 441.829 237.121C441.64 240.94 441.714 244.775 441.675 248.602Z" fill="#C3E8F8"/>
<path d="M279.456 269.033C283.966 269.019 288.477 269.003 292.985 268.989C293.812 270.47 293.957 272.409 295.364 273.503C296.641 278.543 299.776 282.372 302.143 286.704C302.722 287.762 303.623 288.792 303.758 289.931C304.343 294.896 304.696 299.893 305.136 304.88C303.82 304.947 302.499 304.952 301.188 305.085C293.91 305.822 286.645 306.289 279.461 304.195C279.459 292.475 279.456 280.753 279.456 269.033Z" fill="#C3E8F8"/>
<path d="M279.598 304C286.693 306.064 293.868 305.604 301.055 304.877C302.35 304.746 303.654 304.738 304.954 304.675C305.015 305.13 305.075 305.585 305.136 306.04C301.906 313.142 303.955 320.497 304.307 327.77C296.751 327.803 289.193 327.784 281.64 327.909C279.879 327.939 279.426 327.253 279.458 325.377C279.572 318.253 279.562 311.126 279.598 304Z" fill="#C3E8F8"/>
<path d="M429.003 265.531C429.589 262.863 431.271 261.826 433.536 262.031C434.956 262.162 435.935 262.209 436.489 260.286C437.243 257.66 439.331 257.765 441.329 257.998C441.576 258.164 441.824 258.33 442.073 258.496C445.739 262.586 446.468 267.506 443.958 272.509C442.568 275.28 443.79 276.665 445.699 278.122C449.911 281.333 451.041 285.035 449.483 290.301C449.171 291.354 448.518 292.316 447.905 293.219C446.99 294.568 445.647 294.867 444.292 294.402C443.008 293.961 442.885 292.576 442.798 291.29C442.744 290.495 442.857 289.659 442.259 289.03C442.034 287.711 441.47 286.849 440.122 287.041C439.756 286.547 439.39 286.052 439.027 285.558C437.263 283.633 436.932 281.212 437.098 278.613C437.738 277.064 438.423 275.538 439.012 273.964C440.194 270.808 440.268 267.531 439.655 264.231C439.477 263.273 438.935 262.472 437.909 263.106C436.642 263.89 437.968 264.32 438.198 264.846C439.642 268.176 439.054 270.551 436.012 273.429C435.359 272.584 434.55 271.731 435.023 270.498C435.594 269.013 435.149 268.57 433.882 268.88C431.268 269.517 429.938 267.908 429.003 265.531Z" fill="#242E56"/>
<path d="M361.027 233.978C360.992 239.026 360.957 244.073 360.921 249.121C360.919 259.066 360.917 269.011 360.913 278.956C360.872 293.277 360.83 307.595 360.789 321.916C360.158 321.921 359.528 321.927 358.898 321.933C358.892 321.713 358.859 321.499 358.796 321.293C358.784 315.052 358.774 308.81 358.761 302.566C358.763 291.005 358.765 279.442 358.767 267.882C358.774 256.6 358.78 245.321 358.786 234.039C359.532 234.019 360.281 234 361.027 233.978Z" fill="#30B0E6"/>
<path d="M184.164 306.562C183.801 304.059 183.436 301.559 183.073 299.056C183.112 296.443 183.114 293.829 183.195 291.218C183.295 287.95 182.946 284.87 180.726 282.459C179.643 280.344 177.829 279.235 176.067 278.053C177.953 274.684 176.588 271.363 175.831 268.106C175.198 265.384 174.131 262.759 171.227 262.44C168.403 262.129 166.475 263.863 165.112 266.541C160.435 266.527 155.759 266.51 151.082 266.496C151.075 255.703 151.065 244.91 151.058 234.114C161.465 234.075 171.872 234.055 182.279 233.978C183.64 233.967 184.295 234.358 184.29 236.089C184.224 259.579 184.2 283.069 184.164 306.562Z" fill="#C3E8F8"/>
<path d="M148.036 261.303C148.036 273.256 148.036 285.208 148.036 297.16C136.708 297.163 125.379 297.166 114.053 297.169C114.051 285.456 114.051 273.743 114.048 262.03C125.379 261.83 136.722 262.509 148.036 261.303Z" fill="#C3E8F8"/>
<path d="M114.108 297.177C125.633 297.174 137.156 297.171 148.681 297.168C148.706 306.502 148.689 315.835 148.791 325.169C148.813 327.228 148.248 327.931 146.33 327.91C135.568 327.797 124.807 327.814 114.048 327.786C114.068 317.582 114.088 307.378 114.108 297.177Z" fill="#C3E8F8"/>
<path d="M148.036 261.431C136.777 262.613 125.488 261.949 114.214 262.142C114.168 253.448 114.161 244.752 114.049 236.058C114.022 233.967 115.064 233.975 116.381 233.978C126.898 234.016 137.417 234.025 147.934 234.044C147.968 243.173 148.002 252.302 148.036 261.431Z" fill="#C3E8F8"/>
<path d="M148.613 205.731C138.658 205.751 128.7 205.767 118.745 205.787C117.499 205.789 116.136 206.056 116.333 203.807C117.036 195.839 117.296 187.792 119.911 180.18C128.605 180.216 137.299 180.266 145.991 180.271C147.547 180.271 148.835 180.219 148.79 182.684C148.653 190.365 148.66 198.05 148.613 205.731Z" fill="#C3E8F8"/>
<path d="M177.047 180.18C179.566 187.786 179.812 195.825 180.495 203.783C180.655 205.634 179.756 205.808 178.489 205.797C169.393 205.731 160.298 205.708 151.203 205.672C151.174 198.421 151.246 191.167 151.063 183.922C150.993 181.117 151.621 180.146 154.198 180.202C161.812 180.371 169.432 180.213 177.047 180.18Z" fill="#C3E8F8"/>
<path d="M120.846 178.472C123.653 165.515 128.826 154.241 138.919 146.616C141.852 144.4 145.177 143.224 148.791 143.501C148.779 153.596 148.767 163.692 148.754 173.787C148.749 178.377 148.752 178.369 144.837 178.383C136.839 178.405 128.844 178.441 120.846 178.472Z" fill="#C3E8F8"/>
<path d="M151.145 144.315C154.228 144.298 156.926 145.721 159.338 147.705C168.546 155.276 173.429 166.042 175.982 178.472C168.816 178.445 161.65 178.316 154.489 178.45C152.008 178.497 151.01 177.798 151.059 174.668C151.223 164.551 151.135 154.432 151.145 144.315Z" fill="#C3E8F8"/>
<path d="M151 143.63C150.991 153.873 151.084 164.119 150.912 174.359C150.857 177.528 151.902 178.235 154.489 178.188C161.964 178.055 169.441 178.186 176.915 178.211C177.604 178.707 177.458 179.504 177.493 180.236C169.705 180.267 161.917 180.428 154.134 180.261C151.499 180.206 150.857 181.177 150.929 183.983C151.116 191.231 151.042 198.488 151.072 205.742C150.188 205.762 149.302 205.781 148.418 205.798C148.467 198.111 148.46 190.421 148.593 182.734C148.637 180.264 147.363 180.32 145.83 180.32C137.249 180.314 128.671 180.264 120.091 180.228C120.13 179.512 119.98 178.729 120.634 178.224C128.639 178.194 136.642 178.161 144.647 178.133C148.566 178.119 148.563 178.127 148.568 173.565C148.578 163.53 148.593 153.495 148.605 143.461C149.403 143.516 150.2 143.574 151 143.63Z" fill="#30B0E6"/>
<path d="M151.058 266.427C155.842 266.441 160.626 266.457 165.411 266.471C165.451 272.617 164.646 278.812 166.118 285.161C167.032 284.583 167.732 284.14 168.429 283.697C167.988 287.286 165.647 289.936 164.581 293.217C163.67 293.234 162.726 293.088 161.854 293.3C160.367 293.66 159.662 294.524 160.973 296.066C160.913 296.71 160.853 297.356 160.793 298.003C157.55 298.009 154.308 298.017 151.065 298.023C151.065 287.49 151.063 276.96 151.058 266.427Z" fill="#C3E8F8"/>
<path d="M305.363 305.708C305.301 305.247 305.24 304.786 305.178 304.325C304.737 299.341 304.377 294.347 303.788 289.386C303.654 288.251 302.742 287.221 302.158 286.161C299.769 281.835 296.606 278.006 295.317 272.97C296.531 271.642 297.745 270.314 298.957 268.989C301.293 271.081 302.559 274.317 305.116 276.175L305.121 276.109C305.202 277.393 305.856 277.76 306.907 277.498C306.979 279.138 307.779 280.212 309.008 281.02C310.373 281.918 311.758 283.191 311.725 284.933C311.634 289.957 314.627 290.565 317.976 290.885C316.829 295.727 317.166 300.614 317.617 305.504C313.534 305.573 309.449 305.642 305.363 305.708Z" fill="#1A898C"/>
<path d="M325.307 301.201C324.697 301.771 324.141 302.456 323.468 302.895C321.306 304.303 319.896 305.964 321.082 309.131C321.364 309.879 321.27 310.948 320.627 311.685C319.742 309.554 318.858 307.425 317.976 305.294C319.701 302.65 321.383 299.968 323.169 297.383C324.01 296.164 324.403 295.048 323.48 293.705C324.251 292.013 325.025 290.321 325.796 288.629C331.503 293.958 331.489 295.791 325.707 300.703C325.551 300.831 325.437 301.031 325.307 301.201Z" fill="#F2B691"/>
<path d="M323.489 294.556C324.408 295.848 324.017 296.922 323.18 298.094C321.403 300.583 319.729 303.164 318.013 305.704C317.881 305.717 317.754 305.696 317.629 305.637C317.19 300.894 316.864 296.156 317.974 291.464C318.212 291.373 318.451 291.282 318.691 291.191C320.156 292.551 321.72 293.736 323.489 294.556Z" fill="#D1EAEB"/>
<path d="M325.487 301.63C325.621 301.465 325.733 301.268 325.891 301.136C331.731 296.291 331.745 294.484 325.981 289.227C324.051 286.213 321.93 283.385 319.501 280.862C320.589 277.057 320.579 273.441 318.151 270.183C317.934 269.892 318.027 269.31 317.976 268.865C327.764 268.843 337.551 268.829 347.34 268.794C351.155 268.78 354.985 269.038 358.761 268.135C358.759 279.55 358.756 290.967 358.754 302.382C350.165 303.837 341.522 302.701 332.911 303.047C331.205 303.115 329.494 303.069 327.786 303.052C326.803 303.038 325.672 303.294 325.487 301.63Z" fill="#C3E8F8"/>
<path d="M358.611 321.079C358.703 321.353 358.752 321.636 358.761 321.933C358.509 321.933 358.258 321.933 358.006 321.929C358.205 321.647 358.408 321.365 358.611 321.079Z" fill="#C5E4EB"/>
<path d="M77.0391 277.841C77.5569 277.167 78.0747 276.494 78.5925 275.82C80.0179 277.658 81.4327 279.503 82.8711 281.332C83.4962 282.126 84.4795 283.314 83.2451 283.832C80.5932 284.944 79.6805 287.561 77.9832 289.483C77.6118 285.609 78.7678 281.595 77.0391 277.841Z" fill="#C5E4EB"/>
<path d="M79.302 305.708C77.9953 300.989 76.1348 296.362 77.5409 291.191C77.3775 296.156 79.3919 300.756 79.302 305.708Z" fill="#C5E4EB"/>
<path d="M80.0605 309.123C78.8371 308.671 79.5037 306.909 79.3593 305.708C79.8287 306.685 79.9446 307.906 80.0605 309.123Z" fill="#C5E4EB"/>
<path d="M77.0391 291.191C77.2897 290.624 77.5437 290.05 77.7943 289.483C77.5437 290.05 77.2897 290.624 77.0391 291.191Z" fill="#C5E4EB"/>
<path d="M180.951 282.652C183.263 285.071 183.623 288.164 183.519 291.448C183.435 294.07 183.433 296.698 183.392 299.321C182.578 301.197 182.49 303.254 182.142 305.246C181.47 309.09 179.876 309.97 176.578 308.354C175.719 307.933 174.892 307.434 174.053 306.969C171.625 305.073 168.42 303.758 169.348 299.357C169.832 299.332 170.316 299.307 170.801 299.282C171.802 299.778 172.836 300.093 173.949 299.976C175.774 301.094 176.664 300.642 176.535 298.212C176.469 296.952 176.279 295.74 176.051 294.499C174.89 288.201 176.56 284.282 180.951 282.652Z" fill="#F2B691"/>
<path d="M170.801 298.802C170.32 298.827 169.842 298.852 169.358 298.876C169.154 295.128 167.253 293.382 163.897 293.341C164.975 290.063 167.342 287.415 167.785 283.831C169.006 282.869 170.227 281.906 171.45 280.944C171.234 286.895 171.017 292.848 170.801 298.802Z" fill="#06D6A0"/>
<path d="M160.569 298.363C160.63 297.68 160.69 296.999 160.751 296.315C163.634 296.382 163.204 298.782 162.977 300.796C162.851 301.905 162.217 302.935 161.811 304C160.632 302.344 159.453 300.688 160.569 298.363Z" fill="#F2B691"/>
<path d="M437.031 277.653C436.877 280.308 437.185 282.788 438.822 284.757C434.822 284.411 433.789 285.644 434.276 290.487C434.542 293.142 435.091 295.755 435.414 298.404C436.067 303.709 436.039 303.715 431.555 304.854C431.227 303.352 431.183 301.734 430.384 300.425C428.754 294.088 430.522 288.619 433.24 283.394C434.4 281.439 435.559 279.483 436.721 277.528C436.822 277.576 436.925 277.619 437.031 277.653Z" fill="#62C0C4"/>
<path d="M436.556 277.741C435.39 279.663 434.222 281.584 433.056 283.506C432.673 281.629 432.29 279.752 431.907 277.875C431.097 276.402 428.774 277.978 428.576 275.923C428.211 272.18 427.837 268.331 429.317 264.719C430.189 267.106 431.431 268.727 433.864 268.083C435.046 267.771 435.462 268.217 434.928 269.71C434.485 270.949 435.242 271.807 435.852 272.656C434.746 274.619 436.244 276.062 436.556 277.741Z" fill="#F2B691"/>
<path d="M430.021 300.584C430.872 301.814 430.919 303.328 431.269 304.735C430.334 305.327 429.348 305.726 428.248 305.707C428.84 304 429.429 302.292 430.021 300.584Z" fill="#1A898C"/>
<path d="M317.353 268.871C317.403 269.321 317.314 269.906 317.522 270.196C319.855 273.47 319.865 277.106 318.82 280.935C318.693 284.27 320.363 287.782 318.123 290.91C317.889 291.003 317.655 291.097 317.424 291.191C314.265 290.868 311.44 290.264 311.526 285.239C311.557 283.494 310.25 282.224 308.961 281.327C307.802 280.518 307.046 279.444 306.979 277.802C306.932 277.335 306.885 276.868 306.838 276.402C307.72 273.111 308.55 269.82 306.646 266.604C306.817 263.476 309.422 261.312 313.028 261.303C315.473 261.298 316.93 263.015 317.18 266.218C317.248 267.101 317.297 267.987 317.353 268.871Z" fill="#242E56"/>
<path d="M299.094 269.252C297.9 270.588 296.709 271.922 295.516 273.258C294.12 272.158 293.976 270.21 293.155 268.718C291.058 262.191 290.121 255.103 285.827 249.643C284.92 248.493 284.178 246.909 285.337 245.272C286.199 244.058 284.628 242.869 285.33 241.663C290.14 244.522 289.37 250.913 291.908 255.253C294.534 259.746 296.716 264.572 299.094 269.252Z" fill="#F2B691"/>
<path d="M306.361 266.427C308.078 269.486 307.329 272.617 306.534 275.747C306.07 275.752 305.606 275.755 305.142 275.757L305.138 275.82C305.133 272.609 305.062 269.379 306.361 266.427Z" fill="#F2B691"/>
<path d="M437.006 278.256C436.664 276.533 435.033 275.053 436.238 273.036C439.334 270.068 439.933 267.619 438.463 264.185C438.232 263.642 436.88 263.2 438.169 262.391C439.214 261.737 439.765 262.562 439.946 263.551C440.57 266.954 440.497 270.336 439.292 273.588C438.693 275.208 437.995 276.785 437.343 278.382C437.23 278.351 437.117 278.308 437.006 278.256Z" fill="#C5E4EB"/>
<path d="M171.74 280.812C170.483 281.786 169.229 282.761 167.975 283.735C167.251 284.181 166.527 284.629 165.579 285.213C164.051 278.791 164.883 272.524 164.844 266.308C166.292 263.621 168.34 261.881 171.339 262.193C174.421 262.513 175.556 265.147 176.228 267.878C177.032 271.146 178.483 274.476 176.479 277.858C175.755 278.874 175.034 279.893 174.31 280.909C173.899 279.011 173.348 277.135 173.118 275.211C172.89 273.309 173.635 270.843 172.761 269.579C171.861 268.273 169.333 269.342 167.647 268.446C167.127 268.17 166.491 267.909 165.995 268.741C165.049 270.331 167.277 277.452 168.867 277.21C172.102 276.717 171.636 278.855 171.716 280.829L171.74 280.812Z" fill="#242E56"/>
<path d="M173.794 280.565C174.477 279.554 175.158 278.539 175.842 277.528C177.609 278.708 179.427 279.817 180.513 281.925C176.288 283.546 174.68 287.445 175.793 293.71C176.013 294.943 176.196 296.145 176.259 297.401C176.384 299.814 175.527 300.266 173.77 299.155C173.752 293.225 173.735 287.293 173.716 281.363C173.743 281.097 173.77 280.831 173.794 280.565Z" fill="#06D6A0"/>
<path d="M305.136 275.833C305.597 275.83 306.059 275.823 306.52 275.82C306.562 276.359 306.604 276.898 306.646 277.436C305.759 277.739 305.203 277.315 305.136 275.833Z" fill="#C5E4EB"/>
<path d="M318.731 291.08C320.93 287.902 319.291 284.333 319.415 280.944C321.706 283.522 323.708 286.412 325.529 289.492C324.794 291.198 324.059 292.901 323.322 294.607C321.63 293.748 320.134 292.505 318.731 291.08Z" fill="#1A898C"/>
<path d="M173.662 281.84C173.679 287.795 173.699 293.752 173.716 299.707C172.648 299.821 171.656 299.509 170.695 299.014C170.904 292.99 171.113 286.965 171.325 280.944L171.301 280.961C172.086 281.253 172.874 281.548 173.662 281.84Z" fill="#FEFEFE"/>
<path d="M173.638 281.798C172.823 281.503 172.008 281.205 171.193 280.91C171.113 278.917 171.568 276.758 168.422 277.256C166.873 277.5 164.707 270.31 165.628 268.705C166.111 267.862 166.729 268.126 167.235 268.407C168.875 269.313 171.334 268.236 172.209 269.551C173.059 270.83 172.335 273.318 172.557 275.238C172.78 277.18 173.316 279.074 173.716 280.991C173.691 281.258 173.663 281.528 173.638 281.798Z" fill="#F2B691"/>
<path d="M91.8154 349.88C91.7126 351.896 91.5707 353.977 91.3896 356.09L91.3994 355.393L91.4777 350.635L91.8595 326.904V326.891L91.8693 326.202C91.8693 326.202 91.8888 326.553 91.9231 327.206V327.209C92.065 330.139 92.3929 339.136 91.8154 349.88Z" fill="#30B0E6"/>
</svg>
