<svg width="500" height="380" viewBox="0 0 500 380" fill="none" xmlns="http://www.w3.org/2000/svg">
<g clip-path="url(#clip0)">
<path d="M359.805 225.429L363.738 222.94C364.112 222.697 364.481 222.437 364.86 222.194C356.424 220.706 348.736 216.308 343.069 209.728C337.402 203.149 334.096 194.781 333.698 186.012C333.409 179.98 334.521 173.965 336.942 168.46C339.196 163.31 342.524 158.73 346.692 155.042C350.86 151.354 355.766 148.649 361.063 147.118L360.869 162.995L369.372 145.714C369.407 145.708 369.443 145.708 369.478 145.714C374.406 145.478 379.331 146.24 383.971 147.956C388.612 149.672 392.878 152.309 396.525 155.716C400.172 159.123 403.129 163.233 405.227 167.813C407.326 172.392 408.524 177.35 408.753 182.404C408.785 183.139 408.753 183.862 408.753 184.564C411.713 181.103 414.398 177.392 416.178 173.326C419.78 165.09 419.864 155.764 419.564 144.428C418.995 121.963 418.052 99.3295 416.82 76.7612C407.941 75.7498 399.705 71.5244 393.591 64.8439C387.477 58.1635 383.886 49.4659 383.463 40.3138C383.41 39.1311 383.426 37.97 383.463 36.8143C383.463 36.5281 383.463 36.2365 383.505 35.9503C383.579 34.8324 383.679 33.7253 383.847 32.6344C383.847 32.4508 383.911 32.278 383.942 32.0944C384.097 31.1691 384.281 30.2546 384.495 29.351C384.579 29.0161 384.658 28.6759 384.748 28.3411C385.011 27.3582 385.274 26.3915 385.638 25.4357C385.748 25.117 385.88 24.8092 385.996 24.496C386.264 23.7939 386.554 23.1027 386.859 22.4168C387.023 22.055 387.181 21.6986 387.354 21.3368C387.396 21.2449 387.433 21.1531 387.481 21.0613C391.445 13.03 398.028 6.6775 406.086 3.10791C414.143 -0.461678 423.166 -1.0226 431.585 1.52264L431.332 22.1846L439.757 5.11932C446.667 9.17621 452.132 15.3929 455.353 22.8615C458.574 30.3301 459.382 38.6592 457.66 46.6323H457.702C457.644 46.9077 457.56 47.1723 457.497 47.4423C457.381 47.95 457.254 48.4522 457.117 48.9545C456.938 49.5971 456.738 50.229 456.533 50.8608C456.375 51.3306 456.222 51.8113 456.049 52.2757C455.796 52.9562 455.522 53.6204 455.217 54.2847C455.048 54.6735 454.895 55.0677 454.69 55.4512C454.209 56.4448 453.683 57.4169 453.11 58.3674C452.916 58.6968 452.694 59.01 452.489 59.3395C452.089 59.9767 451.683 60.6086 451.246 61.2242C450.978 61.6022 450.688 61.9641 450.404 62.3367C449.993 62.8767 449.572 63.4168 449.135 63.9082C448.824 64.27 448.508 64.6265 448.182 64.9883C447.724 65.4851 447.25 65.9658 446.76 66.441C446.439 66.7596 446.112 67.0782 445.775 67.3807C445.223 67.8829 444.643 68.3635 444.059 68.8334C443.764 69.071 443.48 69.3194 443.174 69.5462C442.286 70.2231 441.368 70.8585 440.42 71.4526C440.241 71.5606 440.052 71.6524 439.894 71.7604C439.104 72.241 438.314 72.6893 437.466 73.1105C437.114 73.2887 436.745 73.4453 436.382 73.6127C435.703 73.926 435.018 74.2284 434.318 74.5038C433.912 74.6604 433.496 74.8062 433.08 74.952C432.39 75.1951 431.69 75.4165 430.974 75.6163C430.553 75.7351 430.137 75.8539 429.71 75.9565C428.942 76.1455 428.157 76.3021 427.367 76.4372C427.314 76.4372 427.267 76.4372 427.214 76.4696C427.734 85.9887 428.196 95.5132 428.599 105.043C430.839 100.328 433.994 96.1312 437.872 92.7112C441.75 89.2912 446.268 86.7197 451.149 85.1547C456.03 83.5896 461.172 83.0638 466.258 83.6096C471.344 84.1555 476.269 85.7614 480.728 88.3289L474.088 106.987L487.747 93.5349C495.059 100.408 499.414 109.975 499.858 120.137C500.032 123.703 499.711 127.276 498.905 130.749C497.189 138.265 493.31 145.079 487.772 150.306C482.234 155.533 475.292 158.933 467.847 160.064C460.402 161.195 452.797 160.006 446.019 156.649C439.241 153.293 433.603 147.925 429.837 141.242C429.837 142.209 429.905 143.181 429.931 144.148C430.179 154.149 430.49 166.592 425.63 177.706C422.339 185.239 417.036 191.358 411.797 196.839C408.39 200.409 404.857 203.86 401.234 207.203C397.672 212.108 393.023 216.073 387.67 218.77C381.72 223.472 375.559 227.876 369.188 231.98L365.318 234.54C361.743 236.813 358.078 239.146 354.482 241.56C355.113 241.495 355.74 241.425 356.382 241.398C364.343 241.016 372.216 243.238 378.864 247.746C385.512 252.253 390.591 258.811 393.368 266.472L369.894 286.07L395.695 279.93C395.688 286.445 394.071 292.852 390.995 298.552C387.919 304.252 383.484 309.059 378.105 312.525C372.726 315.99 366.578 318.001 360.236 318.369C353.894 318.736 347.564 317.449 341.839 314.628C342.418 315.373 343.003 316.113 343.582 316.853C344.735 318.327 345.883 319.791 347.004 321.243C362.275 341.079 366.529 359.916 358.962 374.275L349.769 369.177C357.141 355.201 346.083 337.315 338.801 327.886C337.7 326.46 336.573 325.024 335.436 323.565C325.679 311.144 314.621 297.039 314.9 279.752C315.295 253.722 339.985 238.023 359.805 225.429Z" fill="#F2F2F2"/>
<path d="M239.845 380C372.308 380 479.691 374.923 479.691 368.659C479.691 362.396 372.308 357.318 239.845 357.318C107.382 357.318 0 362.396 0 368.659C0 374.923 107.382 380 239.845 380Z" fill="#3F3D56"/>
<path d="M433.612 364.43C435.192 361.455 433.402 357.809 431.359 355.152C429.315 352.495 426.825 349.752 426.878 346.355C426.951 341.495 431.98 338.627 436.003 336.051C438.982 334.138 441.73 331.87 444.191 329.295C445.223 328.305 446.077 327.135 446.713 325.839C447.54 323.938 447.518 321.778 447.466 319.693C447.29 312.759 446.957 305.832 446.465 298.913" stroke="#3F3D56" stroke-width="4" stroke-miterlimit="10"/>
<path d="M454.105 298.546C454.047 297.277 453.678 296.043 453.034 294.958C452.391 293.873 451.491 292.971 450.42 292.335L448.766 295.694L448.814 291.633C447.683 291.286 446.487 291.222 445.327 291.447C444.167 291.672 443.077 292.18 442.148 292.927C441.219 293.674 440.479 294.639 439.99 295.741C439.5 296.843 439.276 298.049 439.336 299.258C439.428 301.264 440.293 303.149 441.741 304.5C442.457 305.169 443.296 305.687 444.207 306.023C445.119 306.36 446.087 306.509 447.055 306.462C448.023 306.416 448.973 306.174 449.85 305.751C450.726 305.327 451.513 304.731 452.166 303.996C452.818 303.261 453.323 302.401 453.651 301.466C453.979 300.531 454.125 299.538 454.079 298.546H454.105Z" fill="#30B0E6"/>
<path d="M440.926 349.849C440.152 351.391 438.885 352.613 437.337 353.31C435.789 354.008 434.055 354.139 432.424 353.681C430.794 353.223 429.366 352.204 428.381 350.795C427.396 349.386 426.913 347.672 427.013 345.941C427.113 344.21 427.79 342.567 428.931 341.288C430.071 340.008 431.606 339.169 433.278 338.912C434.95 338.655 436.657 338.995 438.114 339.875C439.571 340.755 440.688 342.122 441.279 343.747L436.666 347.597L441.742 346.388C441.743 347.592 441.463 348.778 440.926 349.849Z" fill="#30B0E6"/>
<path d="M437.277 335.112C436.307 335.159 435.338 335.01 434.425 334.673C433.511 334.336 432.672 333.817 431.955 333.146C431.238 332.475 430.657 331.666 430.245 330.764C429.834 329.862 429.6 328.886 429.558 327.891C429.499 326.705 429.717 325.522 430.195 324.44C430.637 323.427 431.291 322.526 432.11 321.8C432.928 321.074 433.892 320.541 434.934 320.239L434.897 323.366L436.571 319.963C438.53 319.87 440.445 320.578 441.894 321.932C443.344 323.286 444.21 325.175 444.301 327.184C444.393 329.193 443.702 331.156 442.382 332.643C441.062 334.13 439.22 335.018 437.261 335.112H437.277Z" fill="#30B0E6"/>
<path d="M455.216 322.848C453.261 322.942 451.35 322.236 449.902 320.885C448.454 319.534 447.589 317.649 447.497 315.643C447.405 313.638 448.093 311.678 449.411 310.193C450.728 308.708 452.566 307.821 454.521 307.726C455.903 307.657 457.276 307.99 458.481 308.688L457.175 312.36L459.861 309.714C461.302 311.065 462.161 312.947 462.251 314.947C462.285 315.647 462.221 316.349 462.062 317.031C461.693 318.633 460.825 320.067 459.59 321.117C458.355 322.166 456.819 322.774 455.216 322.848Z" fill="#30B0E6"/>
<path opacity="0.1" d="M453.11 300.544C451.404 300.738 449.746 301.284 448.034 301.392C446.323 301.5 444.443 301.078 443.359 299.712C442.774 298.978 442.484 298.049 441.989 297.249C441.523 296.503 440.885 295.885 440.131 295.451C439.685 296.407 439.44 297.448 439.412 298.508C439.383 299.567 439.573 300.62 439.967 301.6C440.362 302.579 440.952 303.463 441.701 304.193C442.45 304.923 443.34 305.484 444.313 305.838C445.287 306.193 446.322 306.334 447.353 306.252C448.383 306.17 449.384 305.866 450.293 305.361C451.201 304.856 451.996 304.161 452.626 303.321C453.255 302.481 453.706 301.515 453.948 300.484C453.663 300.495 453.384 300.517 453.11 300.544Z" fill="black"/>
<path opacity="0.1" d="M455.217 322.848C453.942 322.914 452.673 322.64 451.532 322.052C450.392 321.464 449.42 320.583 448.712 319.494C448.003 318.406 447.582 317.147 447.49 315.842C447.398 314.536 447.638 313.229 448.187 312.047C448.774 312.453 449.278 312.972 449.672 313.575C450.198 314.391 450.514 315.33 451.136 316.081C452.284 317.469 454.253 317.923 456.038 317.836C457.823 317.75 459.54 317.237 461.303 317.069C461.546 317.069 461.798 317.026 462.046 317.021C461.68 318.621 460.816 320.056 459.583 321.108C458.351 322.159 456.818 322.77 455.217 322.848Z" fill="black"/>
<path opacity="0.1" d="M437.277 335.112C436.307 335.16 435.338 335.011 434.425 334.673C433.511 334.336 432.672 333.817 431.955 333.146C431.238 332.475 430.657 331.666 430.245 330.764C429.834 329.862 429.6 328.886 429.558 327.891C429.499 326.705 429.717 325.522 430.195 324.44C430.808 324.851 431.343 325.373 431.774 325.98C432.348 326.811 432.706 327.767 433.354 328.534C434.602 329.96 436.698 330.462 438.588 330.413C440.478 330.365 442.179 329.911 444.001 329.771C443.551 331.262 442.665 332.575 441.461 333.53C440.258 334.486 438.797 335.038 437.277 335.112Z" fill="black"/>
<path opacity="0.1" d="M440.926 349.85C440.528 350.757 439.96 351.575 439.254 352.258C438.548 352.94 437.718 353.473 436.812 353.826C435.905 354.179 434.939 354.346 433.97 354.317C433 354.287 432.046 354.062 431.161 353.654C430.276 353.246 429.478 352.664 428.813 351.94C428.148 351.216 427.628 350.365 427.284 349.435C426.939 348.505 426.777 347.514 426.805 346.52C426.834 345.525 427.054 344.547 427.451 343.639C428.058 344.053 428.604 344.553 429.073 345.124C429.773 346.005 430.237 346.998 431.053 347.824C432.564 349.342 435.002 349.985 437.171 350.028C438.425 350.045 439.679 349.985 440.926 349.85Z" fill="black"/>
<path d="M422.47 361.001C422.47 361.001 428.299 360.818 430.058 359.532C431.817 358.247 439.009 356.713 439.467 358.776C439.925 360.839 448.235 369.037 441.647 369.07C435.06 369.102 426.346 367.989 424.592 366.909C422.839 365.829 422.47 361.001 422.47 361.001Z" fill="#656380"/>
<path opacity="0.2" d="M441.763 368.351C435.181 368.405 426.461 367.271 424.708 366.191C423.376 365.359 422.839 362.362 422.665 360.979H422.47C422.47 360.979 422.839 365.802 424.576 366.92C426.314 368.038 435.044 369.123 441.632 369.08C443.532 369.08 444.191 368.367 444.154 367.341C443.906 367.951 443.18 368.34 441.763 368.351Z" fill="black"/>
<path d="M102.367 347.77C98.5445 340.512 102.894 331.623 107.864 325.154C112.835 318.684 118.922 311.955 118.79 303.708C118.601 291.86 106.343 284.866 96.5488 278.586C89.2813 273.925 82.5773 268.397 76.5766 262.12C74.1703 259.598 71.8376 256.908 70.437 253.69C68.415 249.056 68.4677 243.791 68.5993 238.715C69.0206 221.793 69.835 204.904 71.0425 188.048" stroke="#3F3D56" stroke-width="4" stroke-miterlimit="10"/>
<path d="M52.4185 187.124C52.5627 184.033 53.4618 181.028 55.0332 178.386C56.6046 175.744 58.7981 173.549 61.4121 172.003L65.4455 180.185L65.3244 170.28C68.9886 169.173 72.9012 169.289 76.4972 170.611C80.0932 171.933 83.1865 174.393 85.3305 177.635C87.4745 180.878 88.5582 184.735 88.4251 188.651C88.2921 192.566 86.9491 196.337 84.5902 199.419C82.2313 202.5 78.9785 204.733 75.3015 205.795C71.6245 206.857 67.7135 206.693 64.1333 205.327C60.5531 203.961 57.489 201.463 55.3833 198.194C53.2776 194.925 52.2394 191.054 52.4185 187.141V187.124Z" fill="#30B0E6"/>
<path d="M84.5488 312.176C86.3602 315.797 89.2868 318.703 92.8739 320.442C96.461 322.181 100.508 322.657 104.386 321.795C108.263 320.933 111.755 318.781 114.318 315.675C116.881 312.568 118.372 308.681 118.559 304.616C118.685 302.06 118.285 299.506 117.385 297.12C116.069 293.62 113.746 290.613 110.724 288.499C107.703 286.386 104.125 285.265 100.468 285.287C96.8101 285.309 93.2456 286.471 90.2479 288.621C87.2502 290.77 84.9612 293.804 83.6852 297.32L94.9377 306.706L82.5584 303.752C82.5532 306.683 83.2359 309.572 84.5488 312.176Z" fill="#30B0E6"/>
<path d="M93.4423 276.307C97.8598 276.514 102.197 275.048 105.629 272.188C109.061 269.327 111.347 265.272 112.053 260.795C112.759 256.318 111.834 251.731 109.456 247.907C107.078 244.083 103.412 241.29 99.1554 240.059L99.2501 247.669L95.1957 239.39H95.1483C90.3743 239.161 85.7074 240.887 82.1742 244.188C78.641 247.488 76.5309 252.093 76.3082 256.99C76.0854 261.886 77.7683 266.672 80.9865 270.296C84.2047 273.92 88.6946 276.084 93.4686 276.312L93.4423 276.307Z" fill="#30B0E6"/>
<path d="M49.7067 246.459C52.4959 246.598 55.2786 246.07 57.835 244.918C60.3915 243.765 62.6517 242.019 64.4373 239.817C66.223 237.615 67.4851 235.017 68.1241 232.229C68.7631 229.441 68.7615 226.539 68.1195 223.751C67.4774 220.964 66.2124 218.368 64.4244 216.168C62.6364 213.968 60.3742 212.224 57.8165 211.074C55.2588 209.925 52.4755 209.4 49.6864 209.543C46.8973 209.686 44.1787 210.491 41.7452 211.896L44.9045 220.844L38.3805 214.38C36.6365 216.008 35.2225 217.972 34.2196 220.161C33.2167 222.35 32.6445 224.72 32.5357 227.136C32.4521 228.845 32.6064 230.558 32.9938 232.223C33.8894 236.138 36.0061 239.646 39.0223 242.216C42.0386 244.785 45.7899 246.275 49.7067 246.459Z" fill="#30B0E6"/>
<path opacity="0.1" d="M54.8406 192.049C59.0003 192.519 63.0443 193.842 67.2146 194.107C71.3849 194.372 75.9712 193.351 78.6092 190.024C80.0309 188.231 80.7418 185.963 81.9423 184.008C83.0799 182.187 84.6392 180.682 86.4812 179.628C87.6283 181.97 88.2765 184.535 88.3831 187.154C88.4896 189.772 88.0519 192.384 87.099 194.816C86.1462 197.247 84.6999 199.443 82.8563 201.258C81.0127 203.072 78.8139 204.464 76.4058 205.34C73.9976 206.217 71.4353 206.558 68.8888 206.341C66.3424 206.124 63.87 205.354 61.6358 204.082C59.4016 202.811 57.4567 201.066 55.9302 198.964C54.4037 196.863 53.3305 194.452 52.7817 191.893C53.4821 191.925 54.1666 191.974 54.8406 192.049Z" fill="black"/>
<path opacity="0.1" d="M49.7067 246.459C52.8114 246.605 55.9004 245.927 58.674 244.488C61.4475 243.049 63.8112 240.9 65.5359 238.248C67.2605 235.596 68.2875 232.532 68.517 229.353C68.7466 226.174 68.1709 222.988 66.846 220.104C65.4155 221.091 64.1852 222.353 63.2233 223.82C61.9385 225.807 61.1645 228.103 59.6533 229.928C56.8467 233.309 52.0551 234.416 47.7057 234.216C43.3564 234.016 39.1598 232.741 34.8315 232.336C34.2312 232.282 33.6204 232.239 33.0149 232.223C33.9095 236.135 36.023 239.64 39.035 242.209C42.0471 244.778 45.7936 246.27 49.7067 246.459Z" fill="black"/>
<path opacity="0.1" d="M93.4421 276.307C96.5166 276.455 99.5768 275.793 102.331 274.383C105.085 272.973 107.441 270.864 109.174 268.255C110.907 265.646 111.959 262.625 112.23 259.481C112.502 256.337 111.983 253.173 110.724 250.293C109.24 251.304 107.95 252.585 106.917 254.073C105.516 256.098 104.642 258.431 103.004 260.3C99.9661 263.772 94.8586 264.998 90.2512 264.885C85.7913 264.788 81.4946 263.664 77.061 263.313C78.1587 266.943 80.3201 270.138 83.2512 272.463C86.1823 274.788 89.7407 276.13 93.4421 276.307Z" fill="black"/>
<path opacity="0.1" d="M84.5488 312.176C86.3602 315.797 89.2868 318.702 92.8739 320.442C96.461 322.181 100.508 322.656 104.386 321.794C108.263 320.932 111.755 318.781 114.318 315.675C116.881 312.568 118.372 308.68 118.559 304.615C118.685 302.06 118.285 299.506 117.385 297.12C115.902 298.118 114.572 299.336 113.436 300.733C111.724 302.893 110.592 305.301 108.612 307.299C104.926 311.004 98.9817 312.538 93.6898 312.7C90.6354 312.711 87.5831 312.536 84.5488 312.176Z" fill="black"/>
<path d="M227.061 358.56L157.555 373.141L155.976 372.979L94.8955 366.661V287.275L169.666 274.314L223.901 280.794L223.917 281.145L223.922 281.318L227.061 358.56Z" fill="#DE4439"/>
<path opacity="0.1" d="M227.061 358.56L157.555 373.142L155.976 372.98V291.595L223.917 281.146L227.061 358.56Z" fill="black"/>
<path opacity="0.05" d="M223.922 281.318L223.901 281.334L155.976 291.595L94.8955 287.275L169.666 274.314L223.901 280.794L223.917 281.145L223.922 281.318Z" fill="black"/>
<path d="M303.411 361.801L233.906 376.382L232.326 376.22L171.246 369.901V290.515L246.017 277.554L300.252 284.035L300.267 284.386L300.273 284.559L303.411 361.801Z" fill="#3F3D56"/>
<path opacity="0.1" d="M303.411 361.801L233.906 376.382L232.326 376.22V294.836L300.267 284.386L303.411 361.801Z" fill="black"/>
<path opacity="0.05" d="M300.273 284.559L300.252 284.575L232.326 294.836L171.246 290.515L246.017 277.554L300.252 284.035L300.267 284.386L300.273 284.559Z" fill="black"/>
<path d="M255.495 284.035L185.99 298.616L184.41 298.454L123.33 292.135V212.749L198.1 199.788L252.335 206.269L252.351 206.62L252.356 206.792L255.495 284.035Z" fill="#3F3D56"/>
<path opacity="0.1" d="M255.495 284.035L185.99 298.616L184.41 298.454V217.069L252.351 206.62L255.495 284.035Z" fill="black"/>
<path opacity="0.05" d="M252.356 206.792L252.335 206.809L184.41 217.069L123.33 212.749L198.1 199.788L252.335 206.269L252.351 206.62L252.356 206.792Z" fill="black"/>
<path d="M294.986 287.361L258.712 294.976L257.885 294.889L226.008 291.59V250.158L265.03 243.391L293.338 246.777L293.349 246.961V247.047L294.986 287.361Z" fill="#3F3D56"/>
<path opacity="0.1" d="M294.986 287.361L258.712 294.976L257.885 294.89V252.415L293.349 246.961L294.986 287.361Z" fill="black"/>
<path opacity="0.05" d="M293.349 247.047L293.338 247.058L257.885 252.415L226.008 250.158L265.03 243.391L293.338 246.777L293.349 246.961V247.047Z" fill="black"/>
<path d="M197.574 206.895L161.299 214.504L160.473 214.423L128.595 211.124V169.692L167.618 162.925L195.925 166.311L195.936 166.494V166.581L197.574 206.895Z" fill="#3F3D56"/>
<path opacity="0.1" d="M197.574 206.895L161.299 214.504L160.473 214.423V171.949L195.936 166.495L197.574 206.895Z" fill="black"/>
<path opacity="0.05" d="M195.936 166.581L195.925 166.592L160.473 171.949L128.595 169.692L167.618 162.925L195.925 166.311L195.936 166.494V166.581Z" fill="black"/>
<path d="M261.287 205.275L225.012 212.884L224.186 212.803L192.308 209.503V168.071L231.331 161.305L259.639 164.691L259.649 164.874V164.961L261.287 205.275Z" fill="#DE4439"/>
<path opacity="0.1" d="M261.287 205.275L225.012 212.884L224.186 212.803V170.329L259.649 164.875L261.287 205.275Z" fill="black"/>
<path opacity="0.05" d="M259.649 164.961L259.639 164.972L224.186 170.329L192.308 168.071L231.331 161.305L259.639 164.691L259.649 164.874V164.961Z" fill="black"/>
<path d="M280.243 163.692L243.968 171.301L243.142 171.22L211.264 167.92V126.488L250.287 119.722L278.595 123.108L278.605 123.291V123.378L280.243 163.692Z" fill="#3F3D56"/>
<path opacity="0.1" d="M280.243 163.692L243.968 171.301L243.142 171.22V128.746L278.605 123.292L280.243 163.692Z" fill="black"/>
<path opacity="0.05" d="M278.605 123.378L278.595 123.389L243.142 128.746L211.264 126.488L250.287 119.722L278.595 123.108L278.605 123.291V123.378Z" fill="black"/>
<path d="M304.949 78.9919C304.564 82.5021 301.953 85.332 300.984 88.7126C299.53 93.816 302.037 99.2974 305.491 103.294C308.275 106.469 311.645 109.046 315.407 110.876C319.169 112.706 323.247 113.752 327.406 113.954C328.628 114.062 329.858 113.924 331.029 113.549C332.071 113.114 333.01 112.455 333.783 111.616C336.373 108.943 337.769 105.243 338.322 101.512C338.874 97.7799 338.664 93.9834 338.448 90.2193C338.448 89.4403 338.308 88.668 338.037 87.9403C337.685 87.2483 337.199 86.6366 336.61 86.142C334.743 84.3818 332.685 82.847 330.476 81.5679C329.528 81.0278 328.512 80.4878 327.906 79.5535C327.491 78.8095 327.221 77.9896 327.111 77.1395L326.432 73.5969C326.312 72.5754 325.972 71.5941 325.437 70.7238C324.242 69.0713 321.951 68.8445 319.945 68.7635L312.573 68.4665C310.283 68.3747 307.271 67.6996 305.033 68.164C302.927 68.5907 303.638 70.5672 304.017 72.3602C304.565 74.5287 304.878 76.7528 304.949 78.9919Z" fill="#FFC0C6"/>
<path opacity="0.1" d="M304.949 78.9919C304.564 82.5021 301.953 85.332 300.984 88.7126C299.53 93.816 302.037 99.2974 305.491 103.294C308.275 106.469 311.645 109.046 315.407 110.876C319.169 112.706 323.247 113.752 327.406 113.954C328.628 114.062 329.858 113.924 331.029 113.549C332.071 113.114 333.01 112.455 333.783 111.616C336.373 108.943 337.769 105.243 338.322 101.512C338.874 97.7799 338.664 93.9834 338.448 90.2193C338.448 89.4403 338.308 88.668 338.037 87.9403C337.685 87.2483 337.199 86.6366 336.61 86.142C334.743 84.3818 332.685 82.847 330.476 81.5679C329.528 81.0278 328.512 80.4878 327.906 79.5535C327.491 78.8095 327.221 77.9896 327.111 77.1395L326.432 73.5969C326.312 72.5754 325.972 71.5941 325.437 70.7238C324.242 69.0713 321.951 68.8445 319.945 68.7635L312.573 68.4665C310.283 68.3747 307.271 67.6996 305.033 68.164C302.927 68.5907 303.638 70.5672 304.017 72.3602C304.565 74.5287 304.878 76.7528 304.949 78.9919Z" fill="black"/>
<path d="M351.764 237.094L348.637 272.262C347.821 281.486 346.989 290.747 345.388 299.852C344.861 302.99 344.187 306.112 343.419 309.206C341.281 317.798 338.179 326.196 337.179 335.004C337.147 335.258 337.121 335.544 337.095 335.776C336.889 337.72 336.71 339.686 336.042 341.5C335.515 342.845 334.773 344.071 334.23 345.4C333.177 348.057 333.009 350.994 332.877 353.873C329.081 351.675 324.925 350.211 320.614 349.553C318.507 349.234 316.217 349.012 314.821 347.392C313.242 345.632 313.426 342.937 313.689 340.572C314.518 333.227 315.343 325.886 316.164 318.549C316.438 315.391 316.966 312.263 317.744 309.195C318.028 308.175 318.37 307.17 318.718 306.166C319.197 304.783 319.682 303.401 320.045 301.98C320.549 299.698 320.897 297.383 321.087 295.052C321.935 287.664 322.957 280.292 323.852 272.91L323.899 272.521C325.242 261.331 326.263 250.088 325.969 238.817C325.926 237.148 325.858 235.48 325.753 233.805C325.605 231.381 325.389 230.095 327.332 228.578C329.496 226.904 332.345 225.732 334.82 224.636C336.152 224.042 350.822 218.695 351.143 219.872C351.824 222.373 352.178 224.955 352.196 227.552C352.226 230.738 352.082 233.924 351.764 237.094Z" fill="#605D82"/>
<path opacity="0.1" d="M345.388 299.852C344.861 302.99 344.187 306.112 343.419 309.206C341.281 317.798 338.179 326.196 337.179 335.004C337.147 335.258 337.121 335.544 337.095 335.776C330.555 326.196 325.047 315.892 318.665 306.209C319.144 304.826 319.629 303.444 319.992 302.023C320.516 299.729 320.882 297.399 321.087 295.052C321.935 287.664 322.957 280.292 323.852 272.91L323.899 272.521C324.269 274.088 324.798 275.61 325.479 277.063C329.765 285.995 339.949 290.51 344.93 299.059C345.095 299.325 345.247 299.59 345.388 299.852Z" fill="black"/>
<path d="M292.322 221.32C292.538 228.481 293.654 235.582 294.77 242.657L297.071 257.238C298.33 265.231 299.646 273.38 303.332 280.535C306.091 285.893 310.061 290.461 313.658 295.262C322.493 307.068 329.133 320.444 337.511 332.595C339.949 336.127 343.429 339.951 347.584 339.211C350.311 338.73 352.291 336.397 354.429 334.604C356.956 332.487 360 330.937 361.99 328.28C363.98 325.623 364.37 321.217 361.674 319.327C360.753 318.684 359.631 318.441 358.588 318.03C354.413 316.41 351.706 312.22 349.99 307.986C348.273 303.752 347.225 299.21 344.935 295.273C339.954 286.724 329.765 282.209 325.479 273.272C323.078 268.271 322.846 262.471 322.667 256.925L322.198 242.716C322.146 241.161 322.109 239.546 322.725 238.126C324.362 234.346 329.312 233.989 333.324 233.509C337.875 232.964 342.283 231.538 346.315 229.307C348.626 228.027 350.88 226.396 352.107 224.02C353.233 221.86 353.386 219.316 353.518 216.864L354.908 191.11C355.029 188.896 355.134 186.601 354.381 184.527C352.47 179.31 346.046 177.603 340.617 177.852C330.518 178.316 321.198 182.772 311.657 185.785C309.293 186.53 306.918 187.2 304.48 187.702C302.374 188.14 299.741 187.961 297.719 188.664C294.096 189.916 294.186 198.049 293.675 201.419C292.621 207.995 292.168 214.658 292.322 221.32Z" fill="#605D82"/>
<path d="M346.215 340.302C347.104 341.225 347.394 342.575 347.626 343.85C348.913 350.923 349.582 358.1 349.627 365.295C349.569 365.966 349.699 366.64 350 367.239C350.253 367.594 350.593 367.873 350.985 368.049C353.56 369.307 356.546 367.552 358.694 365.624C362.669 362.055 366.034 357.259 366.26 351.842C366.318 350.449 366.166 349.04 366.403 347.662C366.75 345.621 367.914 343.844 368.935 342.062C370.683 339.025 372.096 335.797 373.148 332.439C373.537 331.175 373.801 329.587 372.832 328.707C372.493 328.43 372.105 328.223 371.689 328.097L360.052 323.668C359.041 323.285 356.535 329.89 356.14 330.613C355.166 332.379 354.197 333.378 352.244 333.789C350.29 334.199 347.878 333.605 346.014 334.626C342.855 336.349 344.43 338.46 346.215 340.302Z" fill="#535070"/>
<path d="M328.27 344.379C328.054 343.938 327.753 343.546 327.385 343.228C326.847 342.877 326.235 342.664 325.6 342.607C323.388 342.219 320.766 341.965 319.234 343.655C317.802 345.237 318.049 347.813 316.854 349.595C316.475 350.136 315.959 350.622 315.632 351.216C315.226 352.125 315.046 353.123 315.106 354.121C315.042 356.87 314.979 359.629 315.169 362.373C315.322 364.673 315.695 367.087 317.101 368.891C319.355 371.786 323.42 372.202 327.022 372.385L329.944 372.542C330.747 372.638 331.562 372.561 332.334 372.315C332.813 372.089 333.243 371.767 333.598 371.367C333.952 370.967 334.225 370.498 334.399 369.987C335.92 366.11 333.514 361.935 332.029 358.047C330.318 353.57 330.623 348.607 328.27 344.379Z" fill="#535070"/>
<path d="M304.106 59.1996C304.069 58.8065 304.125 58.41 304.269 58.0439C304.696 57.2717 305.812 57.5039 306.655 57.6983C310.04 58.5732 313.61 57.7793 317.101 57.9845C320.592 58.1898 324.52 59.9773 325.221 63.4876C327.754 61.6492 329.936 59.3503 331.661 56.7046C332.629 55.2195 333.472 53.5184 333.34 51.7363C333.151 49.1657 331.05 47.2431 329.128 45.6122L323.336 40.7518C322.573 40.034 321.692 39.46 320.735 39.0561C319.397 38.5863 317.933 38.8131 316.522 38.8131C312.31 38.8131 307.792 36.8419 304.038 38.8131C302.458 39.6393 301.284 41.0597 300.146 42.4422L294.97 48.7282C294.579 49.1289 294.292 49.6251 294.138 50.1701C293.991 50.937 294.375 51.6931 294.512 52.4653C294.754 53.8694 294.165 55.3707 294.618 56.7208C295.37 58.9566 298.024 59.2752 299.646 60.5605C300.246 61.0358 301.194 62.6613 301.916 62.6397C303.185 62.6127 304.069 60.2365 304.106 59.1996Z" fill="#3F3D56"/>
<path d="M312.889 77.7389C322.049 77.7389 329.475 70.1227 329.475 60.7276C329.475 51.3325 322.049 43.7163 312.889 43.7163C303.728 43.7163 296.302 51.3325 296.302 60.7276C296.302 70.1227 303.728 77.7389 312.889 77.7389Z" fill="#FFC0C6"/>
<path d="M316.775 97.9526C316.213 96.3038 315.155 94.8807 313.753 93.8887C312.352 92.8967 310.679 92.3871 308.977 92.4334C308.488 92.5289 307.983 92.4627 307.534 92.2444C307.279 92.045 307.075 91.7857 306.939 91.4883C305.933 89.6265 305.123 87.6606 304.522 85.6235C304.259 84.7216 303.895 83.6577 303.006 83.4255C302.289 83.2365 301.558 83.7117 301.078 84.2896C300.654 84.9096 300.193 85.503 299.699 86.0663C297.593 87.978 293.907 86.2337 291.701 87.9888C291.337 88.2751 291.037 88.6423 290.647 88.9069C290.268 89.1439 289.859 89.3256 289.431 89.447C285.148 90.876 280.95 92.5583 276.857 94.4856C278.331 103.58 279.837 112.847 283.291 121.353C284.934 125.403 286.793 129.372 288.109 133.547C291.027 142.798 291.153 152.697 291.19 162.423C291.19 169.076 291.19 175.87 289.084 182.167C288.61 183.592 288.03 185.007 287.899 186.487C287.767 187.967 288.199 189.641 289.384 190.526C290.07 190.99 290.856 191.274 291.674 191.353C295.313 191.893 298.977 190.91 302.558 190.057C312.157 187.778 321.951 186.471 331.719 185.196L348.094 183.036C349.269 182.952 350.419 182.646 351.485 182.134C354.482 180.455 354.766 175.832 352.902 172.894C352.012 171.485 350.754 170.329 350.001 168.838C349.248 167.348 349.19 165.253 350.48 164.221C353.113 162.115 352.323 158.21 352.449 154.797C352.8 145.249 352.753 135.709 352.307 126.175C352.173 124.198 352.141 122.215 352.212 120.235C352.396 116.876 353.207 113.587 354.018 110.32L358.994 90.23C357.694 88.1239 355.203 86.7846 352.849 86.1797C350.496 85.5749 348.037 85.3967 345.714 84.6568C340.975 83.1447 336.721 79.3104 331.755 79.6668C331.379 79.6737 331.009 79.7659 330.671 79.9368C329.555 80.5903 329.728 82.2428 329.66 83.5605C329.502 86.4821 327.406 88.9177 325.1 90.6297C322.794 92.3416 320.15 93.5837 318.028 95.5332C317.66 95.8181 317.357 96.1824 317.14 96.6004C316.924 97.0184 316.799 97.4799 316.775 97.9526Z" fill="#DE4439"/>
<path d="M251.056 117.011C249.957 117.743 248.789 118.36 247.57 118.852C246.411 119.322 245.174 119.695 244.226 120.516C243.757 120.933 243.363 121.432 243.063 121.99C242.501 123.011 242.218 124.168 242.241 125.34C242.264 126.512 242.594 127.656 243.195 128.653C243.797 129.65 244.648 130.463 245.66 131.007C246.672 131.552 247.808 131.808 248.949 131.749C250.471 131.668 251.909 131.036 253.304 130.415L265.004 125.192C266.984 124.312 269.122 123.286 270.059 121.288C270.166 121.101 270.207 120.881 270.175 120.667C270.084 120.432 269.912 120.239 269.69 120.127C267.054 118.368 264.748 116.136 262.882 113.538C262.403 112.869 261.829 111.292 261.134 110.887C258.659 109.477 253.041 115.693 251.056 117.011Z" fill="#FFC0C6"/>
<path d="M376.123 112.771L380.435 117.826C381.362 118.906 382.289 119.986 383.131 121.153C385.205 124.081 386.867 127.293 388.07 130.695C389.008 133.217 389.787 135.907 389.461 138.585C389.242 139.959 388.88 141.304 388.381 142.598C387.591 145.086 386.61 147.505 385.448 149.835C384.478 151.602 383.381 153.293 382.168 154.895C378.828 159.434 375.173 163.72 371.231 167.721C369.757 169.217 369.125 171.641 368.498 173.661C367.314 177.393 364.497 180.304 361.774 183.058C360.899 184.007 359.93 184.861 358.884 185.607C357.316 186.644 355.483 187.178 353.618 187.141C352.804 187.145 351.999 186.974 351.254 186.638C349.39 185.731 348.442 183.522 348.247 181.416C348.075 179.502 348.387 177.575 349.153 175.821C351.628 170.199 357.983 167.764 362.475 163.66C365.107 161.256 367.124 158.232 369.115 155.246C370.463 153.379 371.589 151.354 372.469 149.213C373.469 146.465 373.079 143.214 373.959 140.427C374.327 139.244 375.012 138.18 375.386 137.009C375.76 135.837 375.886 134.449 375.186 133.439C374.661 132.793 373.99 132.289 373.232 131.97C370.362 130.479 367.15 128.557 366.603 125.3C366.384 123.497 366.843 121.676 367.888 120.208C368.927 118.759 370.142 117.452 371.505 116.32C372.753 115.164 374.865 113.884 376.123 112.771Z" fill="#FFC0C6"/>
<path d="M248.286 124.063C247.528 122.487 246.575 120.877 245.037 120.094C244.289 119.763 243.483 119.592 242.668 119.592C241.853 119.592 241.047 119.763 240.298 120.094C238.808 120.755 237.413 121.62 236.149 122.665L232.432 125.478C231.589 126.046 230.843 126.752 230.225 127.568C229.636 128.559 229.245 129.661 229.077 130.809C228.551 133.439 228.124 136.144 228.493 138.807C229.083 143.127 231.61 146.864 234.39 150.147C236.128 152.189 238.276 154.252 240.92 154.344C242.062 154.381 243.331 153.917 243.805 152.853C243.97 152.43 244.058 151.98 244.063 151.525C244.347 146.729 242.673 142.047 240.725 137.678C240.198 136.49 239.63 135.259 239.672 133.957C239.656 133.736 239.711 133.516 239.83 133.331C239.997 133.151 240.221 133.038 240.462 133.012C243.131 132.472 247.733 134.6 249.602 131.559C250.814 129.55 249.15 125.851 248.286 124.063Z" fill="#FFC0C6"/>
<path d="M303.232 53.8476C303.199 53.4541 303.257 53.0582 303.4 52.6919C303.827 51.9142 304.943 52.1519 305.786 52.3463C309.171 53.2211 312.742 52.4273 316.233 52.6325C319.724 52.8377 323.646 54.6252 324.352 58.1355C326.882 56.2942 329.064 53.9958 330.792 51.3526C331.761 49.8621 332.603 48.1609 332.471 46.3788C332.282 43.8082 330.176 41.8857 328.259 40.2601L322.467 35.3998C321.706 34.6821 320.827 34.108 319.871 33.704C318.528 33.2342 317.07 33.461 315.659 33.461C311.446 33.461 306.928 31.4899 303.174 33.461C301.594 34.2873 300.42 35.7076 299.283 37.0901L294.102 43.3762C293.712 43.7778 293.428 44.2737 293.275 44.8181C293.127 45.585 293.512 46.341 293.649 47.1133C293.891 48.5174 293.301 50.0187 293.754 51.3634C294.507 53.6046 297.161 53.9232 298.783 55.2085C299.383 55.6837 300.331 57.3092 301.052 57.2876C302.3 57.2606 303.185 54.8845 303.232 53.8476Z" fill="#3F3D56"/>
<path d="M268.006 100.464C267.337 100.909 266.749 101.47 266.268 102.122C265.662 103.067 265.536 104.282 265.015 105.254C263.898 107.382 261.282 108.144 259.654 109.888C259.391 110.126 259.207 110.444 259.128 110.795C259.118 111.27 259.273 111.733 259.565 112.102L267.432 124.782C270.064 125.02 272.56 123.335 275.183 123.562C276.157 123.643 277.162 123.988 278.1 123.691C278.769 123.385 279.398 122.991 279.969 122.519C281.549 121.504 283.613 121.385 284.924 120.051C286.235 118.718 286.345 116.757 286.33 114.937C286.353 113.358 286.196 111.781 285.861 110.239C284.703 105.379 281.075 101.631 278.8 97.3211C277.689 95.2204 277.089 93.9945 274.745 95.4364C272.402 96.8783 270.222 98.8008 268.006 100.464Z" fill="#DE4439"/>
<path d="M363.528 94.0537C365.006 95.0383 366.34 96.2349 367.487 97.6072C368.683 99.1895 369.362 101.134 370.515 102.754C371.668 104.374 373.148 105.54 374.412 106.988C376.333 109.18 377.634 111.848 378.908 114.5C375.789 118.662 372.39 122.596 368.735 126.273C368.328 126.764 367.79 127.124 367.187 127.309C366.779 127.354 366.365 127.295 365.985 127.135C365.604 126.976 365.268 126.722 365.007 126.397C364.439 125.792 364.038 125.036 363.496 124.404C362.218 123.052 360.515 122.209 358.689 122.022C356.877 121.841 355.054 121.814 353.239 121.941C352.84 121.99 352.436 121.921 352.075 121.742C351.806 121.552 351.589 121.296 351.443 120.996C349.337 117.281 349.995 112.615 350.748 108.37L352.47 98.6494C352.721 96.7935 353.204 94.9785 353.907 93.249C354.56 91.8179 356.014 89.3877 357.815 89.8198C359.615 90.2518 362.006 92.9304 363.528 94.0537Z" fill="#DE4439"/>
<path d="M213.37 165.312L177.096 172.921L176.269 172.84L144.392 169.54V128.109L183.415 121.342L211.722 124.728L211.733 124.911V124.998L213.37 165.312Z" fill="#DE4439"/>
<path opacity="0.1" d="M213.37 165.312L177.096 172.921L176.269 172.84V130.366L211.733 124.912L213.37 165.312Z" fill="black"/>
<path opacity="0.05" d="M211.733 124.998L211.722 125.009L176.269 130.366L144.392 128.109L183.415 121.342L211.722 124.728L211.733 124.911V124.998Z" fill="black"/>
<path d="M232.326 124.269L196.052 131.884L195.225 131.797L163.348 128.498V87.0655L202.371 80.2988L230.678 83.6849L230.689 83.8685V83.9549L232.326 124.269Z" fill="#3F3D56"/>
<path opacity="0.1" d="M232.326 124.269L196.052 131.884L195.225 131.797V89.3231L230.689 83.8687L232.326 124.269Z" fill="black"/>
<path opacity="0.05" d="M230.689 83.9549L230.678 83.9657L195.225 89.3229L163.348 87.0655L202.371 80.2988L230.678 83.6849L230.689 83.8685V83.9549Z" fill="black"/>
</g>
<defs>
<clipPath id="clip0">
<rect width="500" height="380" fill="white"/>
</clipPath>
</defs>
</svg>
