<svg width="483" height="345" viewBox="0 0 483 345" fill="none" xmlns="http://www.w3.org/2000/svg">
<g clip-path="url(#clip0)">
<path d="M477.771 175.419C475.9 175.476 475.27 174.98 475.251 172.994C475.174 165.699 475.442 158.404 474.926 151.071C474.449 144.025 474.812 136.921 474.831 129.836C474.831 129.282 474.64 128.385 475.155 128.251C477.638 127.621 475.995 126.475 475.556 125.52C475.136 124.642 474.582 123.84 474.067 123C467.803 112.573 461.52 102.165 455.257 91.7388C454.417 92.5409 454.779 93.5912 454.779 94.5078C454.741 105.488 454.76 116.469 454.741 127.449C454.741 128.098 454.741 128.748 454.741 129.397C454.741 140.797 455.047 152.198 454.684 163.579C453.748 194.172 454.531 224.764 454.302 255.356C454.283 257.571 453.634 258.087 451.533 258.049C445.747 257.915 439.98 257.992 434.194 257.992C428.083 257.992 421.972 257.896 415.88 258.049C413.741 258.106 413.111 257.533 413.13 255.337C413.226 239.296 413.188 223.255 413.188 207.214C413.188 179.047 413.188 150.861 413.188 122.694C413.188 121.376 413.264 120.059 412.004 119.18C409.139 117.213 406.275 115.227 403.391 113.26C403.391 149.582 403.582 185.922 403.277 222.243C403.181 233.453 403.009 244.681 402.933 255.91C402.914 257.495 402.456 258.087 400.851 258.03C397.93 257.934 394.989 257.953 392.048 258.011C390.711 258.049 390.024 257.61 390.177 256.197C390.215 255.872 390.177 255.547 390.177 255.223C390.177 204.808 390.177 154.375 390.177 103.96C390.177 84.6159 390.138 65.2713 390.215 45.9267C390.215 43.9407 389.737 43.2723 387.656 43.2914C377.898 43.3869 368.139 43.3296 358.4 43.3487C358.4 47.4735 358.419 51.6174 358.381 55.7422C358.381 56.5252 358.648 57.3845 357.904 58.0147C357.904 58.8358 357.904 59.6379 357.904 60.459C358.687 61.1847 358.381 62.1395 358.381 62.9988C358.4 122.579 358.4 182.16 358.381 241.722C358.381 242.886 358.744 244.242 357.235 244.892C365.58 249.589 373.887 254.382 382.309 258.946C384.963 260.379 386.491 262.365 387.312 265.153C389.489 272.543 389.489 280.067 388.935 287.648C388.783 289.672 388.515 291.678 388.305 293.702C421.857 293.702 455.391 293.702 488.943 293.683V175.381C485.257 175.381 481.514 175.285 477.771 175.419ZM386.51 103.388C385.269 103.846 383.684 105.66 381.927 103.999C381.564 103.655 380.934 103.617 380.418 103.445V103.464C380.399 103.483 380.38 103.502 380.342 103.521C380.323 103.598 380.304 103.674 380.285 103.75C380.266 103.712 380.227 103.655 380.246 103.617C380.266 103.579 380.304 103.559 380.342 103.521C380.342 103.483 380.361 103.464 380.361 103.426C380.38 103.426 380.399 103.445 380.399 103.445C380.437 102.28 379.234 101.631 379.368 100.199C379.521 98.6135 380.361 97.6969 381.259 97.0476C382.538 96.1119 384.18 96.0355 385.632 97.124C387.484 98.4989 388.229 102.757 386.51 103.388Z" fill="#DFF1FE"/>
<path d="M103.178 91.7769C103.178 120.364 103.158 148.951 103.158 177.539C102.108 177.596 101.058 177.71 100.008 177.71C89.1035 177.749 78.1804 177.901 67.2764 177.71C63.5908 177.653 61.0701 179.104 58.8931 181.759C56.9071 184.165 55.9523 186.896 55.7613 190.028C54.7492 205.706 53.508 221.365 52.5531 237.043C52.0184 245.808 51.3119 254.573 51.3692 263.377C50.548 264.561 50.7199 265.993 50.3952 267.291C33.6096 267.291 16.8048 267.291 0 267.291V190.524C8.23052 190.524 16.4419 190.524 24.6725 190.524C27.8807 190.524 27.8807 190.524 27.8807 187.22C27.8807 169.728 27.8807 152.217 27.8807 134.725C27.8807 131.364 27.8807 131.364 31.3562 131.364C40.3124 131.364 49.2686 131.306 58.2247 131.402C60.1726 131.421 60.5927 130.829 60.7073 128.919C61.452 117.538 61.051 106.156 61.0892 94.7941C61.0892 92.4835 61.7385 91.6814 64.1255 91.7005C77.1301 91.8151 90.1538 91.7769 103.178 91.7769Z" fill="#EEF7FE"/>
<path d="M0 267.292C16.8048 267.292 33.5905 267.292 50.3952 267.292C49.7269 276.095 49.0394 284.898 48.371 293.702C32.2537 293.702 16.1364 293.683 0.0190963 293.683C0 284.898 0 276.095 0 267.292Z" fill="#DFF1FE"/>
<path d="M144.234 296.585C148.13 296.509 152.007 296.452 155.902 296.394C152.026 296.452 148.13 296.509 144.234 296.585Z" fill="#30B0E6"/>
<path d="M387.369 265.172C386.548 262.384 385.02 260.398 382.366 258.965C373.945 254.401 365.638 249.627 357.293 244.911C350.532 241.741 344.403 237.845 339.724 231.772C335.064 225.719 330.042 219.952 325.612 213.707C319.157 205.782 313.18 197.475 306.114 190.047C298.247 183.783 289.004 181.224 279.227 180.117C269.927 179.697 260.627 179.276 251.327 178.856C240.251 178.627 229.175 178.417 218.099 178.188C206.374 178.035 194.63 177.902 182.886 177.749C177.348 177.73 171.81 177.711 166.272 177.672C160.428 177.634 154.585 177.615 148.741 177.577C142.344 177.806 135.966 177.711 129.569 177.52C129.244 177.52 128.9 177.5 128.576 177.5C120.441 177.73 112.306 177.73 104.151 177.5C103.808 177.5 103.483 177.52 103.139 177.52C102.089 177.577 101.039 177.691 99.9883 177.691C89.0843 177.73 78.1612 177.882 67.2572 177.691C63.5716 177.634 61.0509 179.085 58.8739 181.74C56.8879 184.146 55.9331 186.877 55.7421 190.009C54.73 205.687 53.4887 221.346 52.5339 237.024C51.9992 245.789 51.2927 254.554 51.35 263.358C52.6294 262.957 53.3742 263.491 53.6606 264.733C55.9522 274.835 58.2628 284.917 60.5353 295.019C60.6308 295.478 60.4971 295.974 60.4589 296.471C69.396 296.509 78.3522 296.547 87.2893 296.585C91.7578 296.604 96.2455 296.604 100.714 296.604C103.197 295.535 104.858 293.301 107.169 291.945C115.915 286.789 124.947 286.044 134.381 289.921C138.143 291.467 141.026 294.179 144.215 296.547C148.111 296.471 151.988 296.413 155.883 296.356H155.902C158.5 296.318 161.078 296.28 163.675 296.261C204.961 295.821 246.247 296.299 287.553 296.051C291.219 296.031 294.886 296.031 298.552 296.031C299.774 296.031 300.997 296.031 302.219 296.031C302.486 295.821 302.734 295.611 303.002 295.401C303.269 295.191 303.536 294.981 303.785 294.771C304.319 294.351 304.854 293.95 305.389 293.568C305.79 293.282 306.21 292.995 306.611 292.709C306.878 292.518 307.165 292.346 307.451 292.155C307.585 292.059 307.738 291.983 307.871 291.888C308.158 291.716 308.444 291.544 308.731 291.372C311.022 290.035 313.466 288.966 316.121 288.336C325.936 285.968 334.663 288.374 342.455 294.599C343.028 295.058 343.524 295.611 344.288 295.707C355.307 295.669 366.344 295.573 377.363 295.63C381.01 295.65 384.619 295.21 388.267 295.058C388.286 294.58 388.324 294.122 388.362 293.644C388.572 291.62 388.84 289.615 388.992 287.591C389.546 280.086 389.546 272.562 387.369 265.172ZM277.164 262.422C275.465 262.422 273.746 262.422 272.046 262.422C270.423 262.422 268.8 262.403 267.177 262.422C265.668 262.441 264.618 261.849 264.561 260.226C264.522 258.564 265.477 257.61 267.081 257.571C270.481 257.514 273.899 257.495 277.298 257.591C278.807 257.629 279.685 258.603 279.666 260.13C279.685 261.734 278.692 262.422 277.164 262.422ZM345.663 256.101C343.811 255.986 341.939 256.082 340.068 256.063C336.458 256.044 336.478 256.044 336.401 252.492C336.382 251.976 336.554 251.346 336.401 250.869C336.382 250.83 336.382 250.811 336.363 250.773C336.344 250.735 336.344 250.716 336.325 250.678C336.306 250.659 336.287 250.62 336.267 250.601C336.229 250.563 336.21 250.525 336.172 250.487C336.134 250.448 336.096 250.41 336.057 250.372C336.038 250.353 336 250.334 335.962 250.315C335.828 250.238 335.656 250.162 335.427 250.124C329.164 250.105 322.919 250.105 316.656 250.086C314.421 250.047 312.206 250.028 309.972 249.99C308.52 250.009 307.069 250.009 305.618 250.028C302.715 250.047 299.813 250.067 296.891 250.086C295.439 250.086 293.988 250.105 292.537 250.105C292.002 250.105 291.467 249.837 290.952 249.704C290.723 250.143 290.36 250.124 289.978 250.009C283.829 250.238 277.699 250.162 271.569 249.685C265 249.723 264.943 250.277 264.656 243.039C264.312 234.599 264.312 226.158 263.988 217.717C263.892 215.044 263.606 212.389 263.606 209.697C263.606 207.921 263.587 206.145 263.606 204.369C263.625 202.574 264.484 201.295 266.318 201.314C270.672 201.352 275.025 201.142 279.36 201.696C282.416 201.753 285.471 201.81 288.508 201.867C292.881 201.982 297.273 202.058 301.646 202.211C303.937 202.288 305.541 203.605 306.955 205.267C316.789 216.724 326.127 228.602 335.656 240.308C335.866 240.557 336.077 240.786 336.287 241.034C336.325 239.239 336.344 237.463 336.382 235.687C336.401 235.152 336.229 234.465 336.936 234.217C337.662 233.968 337.891 234.618 338.177 235.095C341.271 240.327 344.364 245.541 347.477 250.773C347.993 251.632 348.107 252.568 348.184 253.561C348.317 255.433 347.611 256.235 345.663 256.101ZM378.795 281.041C372.875 279.991 366.994 278.807 361.074 277.737C358.839 277.336 357.503 276.095 356.739 273.975C354.925 269.01 353.531 263.931 352.289 258.794C351.926 257.247 352.442 256.788 353.893 257.228C355.44 257.705 356.987 258.221 358.515 258.717C365.886 260.646 373.085 263.052 380.227 265.649C382.29 266.394 383.378 267.883 383.378 270.06C383.378 272.39 383.722 274.739 383.264 277.088C383.531 280.869 382.652 281.709 378.795 281.041Z" fill="#30B0E6"/>
<path d="M358.439 241.741C358.439 242.905 358.802 244.261 357.293 244.911C350.533 241.741 344.403 237.845 339.725 231.772C335.065 225.719 330.043 219.952 325.612 213.707C325.631 212.485 325.689 211.263 325.689 210.041C325.689 161.23 325.689 112.42 325.689 63.6099C325.689 60.459 325.689 60.459 328.878 60.459C338.579 60.459 348.28 60.459 357.961 60.459C358.744 61.1846 358.439 62.1395 358.439 62.9988C358.439 122.579 358.439 182.16 358.439 241.741Z" fill="#EEF7FE"/>
<path d="M251.347 157.277C251.347 164.477 251.327 171.676 251.308 178.875C240.232 178.646 229.157 178.436 218.081 178.207C218.081 142.058 218.081 105.908 218.081 69.7589C218.081 68.4603 218.081 67.1427 218.081 65.8441C218.081 51.1781 218.081 36.493 218.081 21.827C217.011 19.0963 218.673 16.4037 218.405 13.6538C218.634 16.1172 219.093 18.5807 219.016 21.025C218.883 25.1116 219.608 29.1218 219.551 33.1894C219.532 34.9462 220.907 35.7674 221.995 36.6267C223.16 37.5242 224.211 38.5363 225.261 39.5485C231.906 46.0221 238.552 52.4958 245.198 58.9694C245.656 59.4086 246.229 59.7524 246.725 60.1534C249.628 62.5023 251.499 64.9848 251.461 69.3006C251.232 98.6134 251.347 127.945 251.347 157.277Z" fill="#DFF1FE"/>
<path d="M218.099 69.759C218.099 105.908 218.099 142.058 218.099 178.207C206.374 178.054 194.63 177.921 182.886 177.768C182.886 142.822 182.886 107.856 182.886 72.9099C182.886 69.759 182.886 69.759 186.075 69.759C196.75 69.759 207.425 69.759 218.099 69.759Z" fill="#EEF7FE"/>
<path d="M129.588 177.539C129.263 177.539 128.919 177.52 128.595 177.52C128.308 176.679 127.583 176.851 126.971 176.851C119.925 176.851 112.878 176.851 105.813 176.851C105.183 176.851 104.476 176.679 104.17 177.52C103.827 177.52 103.502 177.539 103.158 177.539C103.158 148.951 103.177 120.364 103.177 91.777C103.177 90.8031 103.177 89.8101 103.177 88.8362C103.177 86.3918 103.177 83.9475 103.177 81.5032V78.5623C103.349 73.0244 102.738 67.4674 103.674 61.9485C111.389 61.9485 119.104 62.0058 126.838 61.9103C128.996 61.8721 129.645 62.6169 129.626 64.7366C129.53 75.2205 129.588 85.7044 129.588 96.1882C128.977 97.525 129.645 98.8426 129.645 100.16C129.569 125.94 129.588 151.739 129.588 177.539Z" fill="#DFF1FE"/>
<path d="M454.76 129.416C454.76 140.816 455.066 152.217 454.703 163.598C453.767 194.191 454.55 224.783 454.321 255.375C454.302 257.591 453.653 258.125 451.552 258.068C445.766 257.934 439.999 258.011 434.213 258.011C435.34 224.172 434.232 190.295 434.824 156.456C434.977 148.168 435.053 139.881 435.149 131.593C435.168 129.874 435.702 129.359 437.402 129.378C443.207 129.473 448.974 129.416 454.76 129.416ZM453.71 154.738C452.087 154.375 451.858 153.535 451.705 152.37C451.38 149.906 449.929 148.111 447.657 146.985C447.141 146.736 446.301 146.87 446.205 146.049C446.167 145.762 446.415 145.361 445.995 145.228C445.403 145.037 445.403 145.495 445.327 145.915C445.193 146.622 444.582 146.488 444.162 146.412C442.195 146.03 441.049 147.347 439.827 148.474C438.891 149.333 438.395 150.918 436.103 150.212C438.51 150.556 437.956 151.835 437.708 152.981C437.497 153.897 438.338 155.081 436.925 155.75C436.524 155.941 436.676 156.609 437.192 156.59C439.789 156.514 439.235 158.251 439.082 160.046C439.923 159.149 440.648 159.149 441.603 159.722C443.226 160.715 444.983 160.906 446.912 160.256C448.058 159.875 449.032 158.003 450.636 159.512C450.75 159.607 451.132 159.225 450.941 158.671C450.368 156.876 451.38 155.234 453.71 154.738Z" fill="#EEF7FE"/>
<path d="M403.429 113.28C403.429 149.601 403.62 185.941 403.315 222.262C403.219 233.472 403.047 244.701 402.971 255.929C402.952 257.514 402.512 258.106 400.889 258.049C397.968 257.954 395.027 257.973 392.086 258.049C390.749 258.087 390.062 257.648 390.214 256.235C390.253 255.91 390.214 255.586 390.214 255.261C390.214 204.847 390.214 154.413 390.214 103.999C393.785 105.756 396.707 108.429 399.973 110.625C401.195 111.427 402.283 112.382 403.429 113.28Z" fill="#EEF7FE"/>
<path d="M148.761 177.615C142.364 177.844 135.985 177.749 129.588 177.558C129.588 151.759 129.569 125.959 129.626 100.16C129.626 98.8235 128.958 97.5059 129.569 96.1882C135.928 96.1882 142.287 96.1882 148.665 96.2073C148.665 119.944 148.646 143.662 148.665 167.399C148.665 170.779 148.723 174.197 148.761 177.615Z" fill="#EEF7FE"/>
<path d="M52.572 49.2305C40.1785 49.2305 27.8041 49.1923 15.4105 49.2495C11.8013 49.2686 11.3812 48.6576 12.4697 44.972C13.8065 40.427 20.6048 36.4359 25.1306 38.3264C29.6373 40.1979 32.0244 38.7466 35.0225 35.6721C38.5744 32.0247 43.3103 32.3302 47.7789 34.0489C51.3499 35.4047 51.5217 35.5002 52.6866 31.7955C54.0425 27.4988 56.0667 23.6414 60.0578 21.2734C67.7536 16.6712 77.0726 19.1537 81.1784 26.9259C82.305 29.0456 84.0046 29.313 85.9143 29.6949C90.4592 30.6115 94.4503 32.5975 95.4624 37.5053C96.1308 40.7517 96.2645 43.8453 93.6101 47.149C91.7386 49.4596 90.1727 49.1923 88.2631 49.2114C76.3661 49.2686 64.4691 49.2305 52.572 49.2305Z" fill="#EEF7FE"/>
<path d="M437.287 76.118C425.39 76.118 413.493 76.118 401.596 76.118C397.891 76.118 396.784 73.9983 398.598 70.5991C400.699 66.6653 406.427 63.438 412.271 65.7296C415.116 66.8563 416.529 66.3789 418.458 63.9727C421.876 59.7142 427.682 58.9504 433.411 61.2992C435.969 62.3495 436.37 62.1968 437.23 59.4851C439.254 53.0687 442.691 48.18 449.814 46.6905C455.849 45.4111 462.456 48.18 465.263 53.6798C466.218 55.5321 467.345 56.3724 469.503 56.6779C474.238 57.3654 479.146 60.1916 479.967 65.7105C480.559 69.7398 479.032 72.7952 476.53 75.6215C475.842 76.3853 474.849 76.1371 473.99 76.1371C461.73 76.118 449.509 76.118 437.287 76.118Z" fill="#EEF7FE"/>
<path d="M166.271 177.711C160.428 177.672 154.584 177.653 148.741 177.615C148.703 174.197 148.646 170.798 148.646 167.379C148.646 143.643 148.646 119.925 148.646 96.1883C153.611 96.1883 158.576 96.2838 163.541 96.131C165.679 96.0737 166.29 96.6466 166.29 98.8427C166.233 125.119 166.271 151.415 166.271 177.711Z" fill="#DEF0FD"/>
<path d="M306.152 156.094C306.095 167.418 306.114 178.742 306.114 190.066C298.247 183.802 289.004 181.243 279.227 180.136C279.227 172.516 279.227 164.897 279.227 157.277C279.227 156.304 279.227 155.33 279.227 154.356C279.227 140.014 279.227 125.673 279.227 111.313C279.265 110.988 279.188 110.511 279.36 110.396C280.048 109.938 280.105 110.701 280.296 111.045C282.588 114.788 284.879 118.531 287.132 122.293C293.071 132.185 298.972 142.077 304.892 151.988C305.637 153.229 306.152 154.528 306.152 156.094Z" fill="#DFF1FE"/>
<path d="M291.659 22.3428C281.308 22.3428 270.977 22.3428 260.627 22.3237C259.863 22.3237 258.851 22.7629 258.412 21.8463C258.011 21.0251 258.736 20.3377 259.157 19.6693C261.696 15.7545 266.375 14.3032 270.901 16.3083C272.639 17.0722 273.574 16.7094 274.606 15.3726C277.814 11.2478 282.836 10.0447 287.61 12.3936C289.424 13.272 290.188 12.9665 290.761 11.0378C292.155 6.24457 294.504 2.17705 299.679 0.611147C305.637 -1.18391 311.194 0.954881 314.211 6.32095C315.147 8.00143 316.579 8.36426 318.203 8.63161C324.122 9.64372 327.388 14.5133 325.917 19.9176C325.44 21.6935 324.619 22.3619 322.69 22.3428C312.359 22.2855 302.009 22.3428 291.659 22.3428Z" fill="#EEF7FE"/>
<path d="M279.207 180.136C269.907 179.716 260.608 179.296 251.308 178.876C251.327 171.676 251.327 164.477 251.346 157.278H279.207C279.207 164.897 279.207 172.516 279.207 180.136Z" fill="#EEF7FE"/>
<path d="M218.08 21.8462C218.08 36.5122 218.08 51.1973 218.08 65.8633C207.099 65.8633 196.119 65.8633 185.139 65.8442C184.394 65.8442 183.363 66.2834 183.019 65.2331C182.752 64.4119 183.554 63.9154 184.088 63.4571C189.359 58.7785 194.668 54.1572 199.919 49.4786C203.605 46.194 207.252 42.8522 210.919 39.5294C211.988 38.5555 212.924 37.4097 214.222 36.665C217.316 34.889 216.628 31.6235 217.068 28.8736C217.335 27.2123 217.106 25.4745 217.125 23.7558C217.125 22.9729 216.877 22.0181 218.08 21.8462Z" fill="#EEF7FE"/>
<path d="M279.207 111.313C279.207 125.654 279.207 140.015 279.207 154.356C271.32 154.356 263.434 154.356 255.528 154.356C252.644 154.356 252.587 154.318 254.114 151.778C260.626 140.855 267.176 129.97 273.707 119.066C274.949 116.984 276.209 114.884 277.45 112.802C277.87 112.096 278.195 111.313 279.207 111.313Z" fill="#EEF7FE"/>
<path d="M103.674 61.9485C102.739 67.4674 103.35 73.0244 103.178 78.5624C90.1731 78.5624 77.1685 78.5624 64.1639 78.5433C63.4 78.5433 62.3115 78.9825 61.9487 78.1422C61.5668 77.2829 62.6362 76.7673 63.2091 76.2899C68.3078 71.8023 73.4447 67.3528 78.5625 62.8843C79.5555 62.0249 80.7395 61.9294 81.9808 61.9294C89.2183 61.9485 96.4367 61.9485 103.674 61.9485Z" fill="#EEF7FE"/>
<path d="M358.439 43.3678C358.439 47.4927 358.458 51.6366 358.42 55.7614C358.42 56.5443 358.687 57.4037 357.942 58.0338C348.108 58.0338 338.273 57.9575 328.419 58.0911C326.089 58.1293 325.459 57.3846 325.631 55.1885C325.803 52.916 325.669 50.6436 325.669 48.3711C325.898 48.4475 326.128 48.5048 326.338 48.6002C328.133 49.4596 330.004 48.1801 331.455 46.9007C332.926 45.6021 330.482 44.0744 332.258 43.3105C341.004 43.3105 349.731 43.3296 358.439 43.3678Z" fill="#EEF7FE"/>
<path d="M455.257 91.758C454.417 92.56 454.779 93.6103 454.779 94.527C454.741 105.507 454.76 116.488 454.741 127.468C448.478 127.468 442.195 127.392 435.931 127.487C433.697 127.525 433.64 126.838 434.614 125.158C440.992 114.12 447.313 103.063 453.653 92.0062C454.111 91.2424 454.493 90.3831 455.257 91.758Z" fill="#EEF7FE"/>
<path d="M103.177 81.5032C103.177 83.9475 103.177 86.3918 103.177 88.8362C100.79 89.4472 98.346 89.3327 95.9208 89.3327C85.4369 89.3327 74.9339 89.3327 64.45 89.3327C61.2991 89.3327 61.1273 89.1417 61.1273 86.029C61.1082 81.5032 61.1082 81.5032 65.6149 81.5032C78.1421 81.5032 90.6502 81.5032 103.177 81.5032Z" fill="#EEF7FE"/>
<path d="M291.143 24.0614C316.613 24.0614 337.261 23.9332 337.261 23.775C337.261 23.6168 316.613 23.4885 291.143 23.4885C265.673 23.4885 245.025 23.6168 245.025 23.775C245.025 23.9332 265.673 24.0614 291.143 24.0614Z" fill="#EEF7FE"/>
<path d="M302.219 296.07C299.03 300.176 296.127 304.51 294.962 309.647C294.485 311.729 293.664 312.302 291.563 312.34C278.253 312.55 264.962 311.595 251.652 311.824C250.716 311.843 249.685 311.461 248.883 312.321C233.205 312.302 217.527 312.283 201.848 312.244C192.262 312.206 182.676 312.13 173.108 312.053C172.631 310.869 171.581 311.347 170.779 311.347C165.26 311.309 159.722 311.194 154.203 311.385C152.007 311.461 151.052 310.812 150.613 308.673C149.926 305.389 148.302 302.467 146.488 299.66C145.801 298.591 144.368 298.075 144.254 296.585C148.15 296.509 152.026 296.452 155.922 296.394H155.941C158.538 296.356 161.116 296.318 163.713 296.299C204.999 295.86 246.286 296.337 287.591 296.089C291.258 296.07 294.924 296.07 298.591 296.07C299.774 296.07 300.997 296.07 302.219 296.07Z" fill="#0F1D2A"/>
<path d="M149.2 312.893C151.434 326.891 141.657 340.64 127.717 343.085C112.993 345.663 99.1866 336.344 96.3603 321.945C95.7874 319.023 95.4246 316.083 96.1885 313.123C97.8689 299.793 108.716 290.131 122.331 289.882C135.03 289.653 147.023 298.399 149.2 312.893ZM122.599 332.353C131.23 332.353 138.353 325.172 138.258 316.598C138.143 308.043 131.135 301.111 122.599 301.092C114.044 301.073 107.073 308.024 107.035 316.617C106.978 325.344 113.91 332.353 122.599 332.353Z" fill="#12191F"/>
<path d="M349.731 312.951C352.939 329.584 337.375 345.644 320.246 343.41C304.988 341.424 294.447 327.77 296.757 312.989C297.139 308.75 298.686 304.835 301.149 301.531C307.661 292.843 316.35 288.813 327.35 290.245C338.693 291.716 348.585 301.684 349.731 312.951ZM307.547 316.656C307.528 325.268 314.402 332.257 322.957 332.334C331.627 332.41 338.75 325.421 338.807 316.789C338.865 308.196 331.723 301.073 323.091 301.092C314.517 301.13 307.566 308.101 307.547 316.656Z" fill="#12191F"/>
<path d="M98.6138 300.29C96.3413 303.899 94.7754 307.776 93.8397 311.9C81.1597 311.843 68.4607 311.748 55.7807 311.805C53.7565 311.805 52.6107 311.098 51.8087 309.361C50.1091 305.732 49.1352 301.875 48.0085 298.056C47.5884 296.604 48.4286 296.623 49.3834 296.604C53.0881 296.566 56.7737 296.547 60.4784 296.509C69.4155 296.547 78.3717 296.585 87.3088 296.623C91.7773 296.642 96.2649 296.642 100.733 296.642C101.02 298.399 99.3586 299.106 98.6138 300.29Z" fill="#0F1D2A"/>
<path d="M389.355 296.471C388.056 300.672 386.93 304.911 385.593 309.093C384.81 311.499 382.977 312.836 380.418 312.836C370.984 312.817 361.532 312.741 352.098 312.683C351.812 309.151 350.417 306 348.89 302.849C347.649 300.29 345.242 298.514 344.307 295.783C355.325 295.745 366.363 295.65 377.381 295.707C381.029 295.726 384.638 295.287 388.286 295.134C389.393 294.962 389.718 295.287 389.355 296.471Z" fill="#0F1D2A"/>
<path d="M60.4778 296.509C56.7731 296.547 53.0875 296.566 49.3828 296.605C48.9817 295.669 48.3516 294.809 48.3516 293.721C49.0199 284.918 49.7074 276.114 50.3758 267.292C50.7004 265.993 50.5095 264.561 51.3497 263.377C52.6291 262.976 53.3739 263.511 53.6604 264.752C55.9519 274.854 58.2626 284.937 60.535 295.039C60.6496 295.516 60.4969 296.013 60.4778 296.509Z" fill="#A9C4D7"/>
<path d="M352.079 312.664C351.296 312.76 350.494 312.855 349.711 312.951C348.566 301.684 338.674 291.735 327.331 290.245C316.331 288.813 307.623 292.842 301.13 301.531C298.667 304.816 297.12 308.75 296.738 312.989C286.636 312.874 276.553 312.779 266.451 312.645C260.589 312.569 254.745 312.435 248.883 312.321C249.685 311.461 250.716 311.843 251.652 311.824C264.962 311.595 278.253 312.55 291.563 312.34C293.664 312.301 294.485 311.729 294.962 309.647C296.127 304.491 299.03 300.175 302.219 296.07C302.486 295.86 302.734 295.649 303.002 295.439C303.269 295.229 303.537 295.019 303.785 294.809C304.319 294.408 304.854 293.988 305.389 293.606C305.79 293.32 306.21 293.033 306.611 292.747C306.878 292.556 307.165 292.384 307.451 292.193C307.585 292.098 307.738 292.021 307.871 291.926C308.158 291.754 308.444 291.582 308.731 291.41C311.022 290.073 313.467 289.004 316.121 288.374C325.937 286.006 334.664 288.412 342.455 294.637C343.028 295.096 343.524 295.649 344.288 295.745C345.205 298.495 347.611 300.252 348.871 302.811C350.399 305.981 351.793 309.131 352.079 312.664Z" fill="#132740"/>
<path d="M173.108 312.053C167.513 312.072 161.917 312.187 156.322 312.092C153.878 312.053 151.567 312.493 149.199 312.913C147.022 298.419 135.03 289.672 122.331 289.902C108.715 290.15 97.8682 299.832 96.1877 313.161C95.5766 312.416 94.0871 313.371 93.8389 311.939C94.7746 307.795 96.3405 303.937 98.613 300.328C99.3577 299.144 101.019 298.438 100.733 296.662C103.215 295.592 104.877 293.358 107.187 292.002C115.933 286.846 124.966 286.101 134.4 289.978C138.161 291.525 141.045 294.237 144.234 296.604C144.349 298.094 145.781 298.629 146.468 299.679C148.302 302.467 149.925 305.408 150.593 308.692C151.032 310.831 151.987 311.48 154.183 311.404C159.702 311.213 165.24 311.328 170.759 311.366C171.58 311.347 172.63 310.869 173.108 312.053Z" fill="#132740"/>
<path d="M6.16797 343.734C14.9141 343.734 23.6602 343.734 32.3872 343.734C32.3872 343.887 32.3872 344.04 32.3872 344.212C23.6411 344.212 14.895 344.212 6.16797 344.212C6.18707 344.04 6.18707 343.887 6.16797 343.734Z" fill="#BCD3E2"/>
<path d="M80.3765 344.326C71.6304 344.326 62.9034 344.326 54.1572 344.326C54.1572 344.173 54.1572 344.02 54.1572 343.849C62.9034 343.849 71.6495 343.849 80.3765 343.849C80.3765 344.02 80.3765 344.173 80.3765 344.326Z" fill="#BCD3E2"/>
<path d="M196.272 344.326C187.525 344.326 178.779 344.326 170.033 344.326C170.033 344.173 170.033 344.021 170.033 343.868C178.779 343.868 187.525 343.868 196.272 343.868C196.272 344.021 196.272 344.173 196.272 344.326Z" fill="#BCD3E2"/>
<path d="M255.414 344.326C246.668 344.326 237.921 344.326 229.194 344.326C229.194 344.173 229.194 344.001 229.194 343.849C237.94 343.849 246.687 343.849 255.433 343.849C255.414 344.001 255.414 344.173 255.414 344.326Z" fill="#BCD3E2"/>
<path d="M314.554 344.307C305.808 344.307 297.081 344.307 288.335 344.307C288.335 344.154 288.335 343.982 288.335 343.83C297.081 343.83 305.808 343.83 314.554 343.83C314.554 344.001 314.554 344.154 314.554 344.307Z" fill="#BCD3E2"/>
<path d="M373.276 344.326C364.53 344.326 355.784 344.326 347.038 344.326C347.038 344.173 347.038 344.021 347.038 343.868C355.784 343.868 364.53 343.868 373.276 343.868C373.276 344.021 373.276 344.173 373.276 344.326Z" fill="#BCD3E2"/>
<path d="M486.69 344.384C477.943 344.384 469.197 344.384 460.451 344.384C460.451 344.231 460.451 344.059 460.451 343.906C469.197 343.906 477.943 343.906 486.69 343.906C486.69 344.059 486.69 344.231 486.69 344.384Z" fill="#BCD3E2"/>
<path d="M136.616 344.842C127.87 344.842 119.143 344.842 110.396 344.842C110.396 344.689 110.396 344.536 110.396 344.384C119.124 344.384 127.87 344.384 136.597 344.384C136.597 344.536 136.597 344.689 136.616 344.842Z" fill="#BCD3E2"/>
<path d="M413.913 344.918C424.165 344.918 432.475 344.781 432.475 344.613C432.475 344.444 424.165 344.307 413.913 344.307C403.662 344.307 395.352 344.444 395.352 344.613C395.352 344.781 403.662 344.918 413.913 344.918Z" fill="#BCD3E2"/>
<path d="M380.361 103.426C380.342 103.54 380.304 103.635 380.284 103.75C380.265 103.712 380.227 103.654 380.246 103.616C380.284 103.559 380.361 103.502 380.418 103.464C380.418 103.464 380.361 103.426 380.361 103.426Z" fill="#1D2130"/>
<path d="M335.446 249.341C331.818 247.546 328.208 245.655 324.542 243.975C322.938 243.249 322.308 242.581 323.205 240.786C324.294 238.609 325.019 236.279 325.898 234.007C326.184 233.243 326.623 232.383 325.535 231.944C324.523 231.543 324.084 232.288 323.759 233.109C322.919 235.21 322.059 237.31 321.2 239.411C320.188 239.64 319.176 239.85 318.164 240.079C317.572 240.079 316.961 240.06 316.369 240.06C311.404 240.194 306.63 241.588 301.817 242.6C299.736 243.039 298.265 242.638 296.852 241.13C294.809 238.953 292.651 236.89 290.531 234.771C289.252 231.792 287.724 228.927 286.006 226.177C285.986 226.024 285.967 225.872 285.948 225.719C291.181 226.521 292.307 225.719 293.3 220.391C293.625 218.634 293.205 217.183 291.448 216.381C291.391 215.101 291.314 213.822 291.257 212.542C291.601 212.332 291.983 212.16 292.307 211.931C293.262 211.206 293.377 210.232 293.243 209.105C293.09 207.787 292.231 208.475 291.582 208.36C291.123 208.284 291.295 207.692 291.295 207.31C293.167 206.355 295.458 206.145 297.101 203.701C293.701 204.14 290.455 205.419 288.488 201.906C292.861 202.02 297.253 202.097 301.626 202.249C303.918 202.326 305.522 203.644 306.935 205.305C316.77 216.763 326.108 228.641 335.637 240.347C335.847 240.595 336.057 240.824 336.267 241.072C336.286 243.478 336.324 245.904 336.343 248.31C336.382 248.883 336.554 249.666 335.446 249.341Z" fill="#C4DEF5"/>
<path d="M318.164 240.079C317.572 240.079 316.961 240.06 316.369 240.06C311.308 241.76 306.171 243.211 300.958 244.28C300.099 244.452 299.22 244.376 298.418 243.765C295.955 241.893 293.549 239.984 291.467 237.711C290.723 236.909 290.36 235.916 290.551 234.79C289.271 231.811 287.743 228.946 286.025 226.196C283.485 227.189 280.907 227.781 278.195 226.75C277.03 226.865 276.152 226.12 275.159 225.7C274.09 225.833 273.746 226.941 272.925 227.38C271.111 230.13 271.855 232.842 273.154 235.458C273.727 236.623 273.86 237.635 273.498 238.914C272.466 242.428 271.894 246.037 271.55 249.685C277.68 250.162 283.829 250.238 289.959 250.009C289.138 248.52 287.209 247.928 286.521 245.655C288.622 246.82 289.806 248.233 290.933 249.704C291.467 249.837 292.002 250.105 292.518 250.105C293.969 250.105 295.42 250.086 296.872 250.086C299.774 250.067 302.677 250.048 305.599 250.028C307.05 250.009 308.501 250.009 309.952 249.99C310.564 249.57 311.175 249.169 311.767 248.749C314.383 246.916 316.884 244.968 318.851 242.409C318.622 241.607 318.393 240.843 318.164 240.079ZM282.358 229.385C279.513 231.639 276.649 231.658 273.899 229.672C276.725 230.187 279.246 230.474 282.358 229.385ZM274.777 237.597C276.458 236.184 278.004 236.145 279.417 235.802C278.386 237.253 276.878 237.329 274.777 237.597ZM280.697 235.038C280.659 235.114 280.601 235.171 280.563 235.248C280.601 235.171 280.64 235.095 280.659 235.019C280.831 234.904 281.022 234.77 281.193 234.675C281.193 234.675 281.27 234.79 281.327 234.847C281.117 234.904 280.907 234.981 280.697 235.038ZM282.397 239.067C282.32 238.953 282.206 238.838 282.206 238.704C282.206 238.59 282.32 238.456 282.377 238.341C282.454 238.456 282.53 238.571 282.607 238.704C282.549 238.819 282.473 238.933 282.397 239.067ZM284.096 242.867C283.714 242.657 283.619 242.294 283.6 241.893C282.988 241.569 282.587 241.149 282.721 240.366C283.905 240.385 283.485 241.301 283.619 241.874C284.001 242.084 284.096 242.447 284.115 242.848C285.395 242.982 285.853 243.956 286.941 245.254C284.994 244.872 284.383 244.051 284.096 242.867Z" fill="#1D2130"/>
<path d="M273.498 238.895C272.467 242.409 271.894 246.018 271.55 249.666C264.981 249.704 264.924 250.258 264.637 243.02C264.293 234.58 264.293 226.139 263.969 217.698C263.873 215.025 263.587 212.371 263.587 209.678C269.106 209.697 269.812 210.232 270.844 215.617C271.588 219.513 272.238 223.446 272.925 227.342C271.111 230.092 271.856 232.804 273.154 235.42C273.746 236.604 273.88 237.616 273.498 238.895Z" fill="#0F1D2A"/>
<path d="M383.302 277.088C378.91 276.114 374.536 274.949 370.106 274.185C363.556 273.059 358.667 264.274 358.553 258.717C365.924 260.646 373.123 263.052 380.265 265.649C382.328 266.394 383.416 267.884 383.416 270.06C383.416 272.409 383.76 274.758 383.302 277.088Z" fill="#A9C4D7"/>
<path d="M378.795 281.041C372.875 279.991 366.994 278.807 361.074 277.737C358.84 277.336 357.503 276.095 356.739 273.975C354.925 269.01 353.531 263.931 352.29 258.794C351.927 257.247 352.442 256.789 353.894 257.228C355.441 257.705 356.987 258.221 358.515 258.717C358.63 264.274 363.518 273.059 370.068 274.185C374.499 274.949 378.872 276.114 383.264 277.088C383.531 280.869 382.653 281.709 378.795 281.041Z" fill="#BCD3E2"/>
<path d="M274.816 213.574C275.064 216.4 277.05 218.157 278.845 220.028C278.654 221.594 279.036 223.236 278.272 224.745C277.165 224.821 276.076 224.936 275.179 225.662C274.109 225.795 273.765 226.903 272.944 227.342C272.257 223.427 271.627 219.513 270.863 215.617C269.832 210.232 269.106 209.678 263.606 209.678C263.606 207.902 263.587 206.126 263.606 204.35C263.625 202.555 264.485 201.276 266.318 201.295C270.672 201.333 275.026 201.123 279.361 201.677C278.654 202.421 277.967 203.185 277.222 203.892C274.396 206.642 273.804 209.907 274.816 213.574Z" fill="#C4DEF5"/>
<path d="M345.663 256.101C343.811 255.986 341.94 256.082 340.068 256.063C336.459 256.044 336.478 256.044 336.402 252.492C336.383 251.976 336.554 251.346 336.402 250.869C336.383 250.83 336.383 250.811 336.363 250.773C336.344 250.735 336.344 250.716 336.325 250.678C336.306 250.659 336.287 250.62 336.268 250.601C336.23 250.563 336.211 250.525 336.173 250.487C336.134 250.448 336.096 250.41 336.058 250.372C336.02 250.353 336.001 250.334 335.962 250.315C335.829 250.238 335.657 250.162 335.428 250.124C335.428 249.876 335.447 249.608 335.447 249.36C336.554 249.685 336.383 248.883 336.363 248.272C336.344 245.865 336.306 243.44 336.287 241.034C336.325 239.239 336.344 237.463 336.383 235.687C336.402 235.152 336.23 234.465 336.936 234.217C337.662 233.968 337.891 234.618 338.178 235.095C341.271 240.327 344.365 245.541 347.478 250.773C347.993 251.632 348.108 252.568 348.184 253.561C348.318 255.433 347.611 256.235 345.663 256.101Z" fill="#132740"/>
<path d="M297.12 203.663C295.477 206.107 293.167 206.317 291.314 207.272C291.009 207.348 290.684 207.405 290.379 207.501C285.07 209.239 280.258 212.18 274.834 213.574C273.822 209.907 274.414 206.642 277.221 203.892C277.947 203.166 278.635 202.402 279.36 201.677C282.416 201.734 285.471 201.791 288.507 201.848C290.474 205.381 293.721 204.102 297.12 203.663Z" fill="#1D2130"/>
<path d="M335.446 249.341C335.446 249.589 335.427 249.857 335.427 250.105C329.163 250.086 322.919 250.086 316.655 250.067C317.706 247.489 318.756 244.911 319.806 242.352C320.704 241.932 322.021 242.161 322.27 240.767C322.403 239.965 321.869 239.621 321.2 239.392C322.06 237.291 322.9 235.191 323.759 233.09C324.084 232.288 324.523 231.524 325.535 231.925C326.624 232.364 326.204 233.224 325.898 233.988C325.02 236.26 324.294 238.59 323.205 240.767C322.308 242.562 322.938 243.23 324.542 243.956C328.228 245.675 331.818 247.546 335.446 249.341Z" fill="#0F1D2A"/>
<path d="M279.686 260.13C279.666 261.734 278.693 262.422 277.146 262.422C275.446 262.422 273.727 262.422 272.028 262.422C270.405 262.422 268.782 262.403 267.158 262.422C265.65 262.441 264.599 261.849 264.542 260.226C264.504 258.564 265.459 257.61 267.063 257.571C270.462 257.514 273.88 257.495 277.279 257.591C278.826 257.629 279.705 258.603 279.686 260.13Z" fill="#0F1D2A"/>
<path d="M319.806 242.352C318.756 244.93 317.706 247.508 316.655 250.066C314.421 250.028 312.206 250.009 309.972 249.971C310.583 249.551 311.194 249.15 311.786 248.711C314.402 246.877 316.904 244.93 318.871 242.371C319.176 242.371 319.501 242.371 319.806 242.352Z" fill="#BCD3E2"/>
<path d="M128.595 177.52C120.46 177.749 112.325 177.749 104.171 177.52C104.457 176.679 105.183 176.851 105.813 176.851C112.86 176.851 119.906 176.851 126.972 176.851C127.583 176.851 128.309 176.679 128.595 177.52Z" fill="#EEF7FE"/>
<path d="M290.952 249.685C290.723 250.124 290.36 250.105 289.978 249.99C289.157 248.501 287.228 247.909 286.541 245.636C288.642 246.801 289.826 248.214 290.952 249.685Z" fill="#1D2130"/>
<path d="M122.598 332.353C113.91 332.353 106.978 325.363 107.016 316.617C107.054 308.043 114.024 301.092 122.579 301.092C131.115 301.111 138.143 308.043 138.238 316.598C138.353 325.153 131.23 332.334 122.598 332.353ZM130.676 316.789C130.714 312.225 127.048 308.54 122.503 308.597C118.073 308.635 114.482 312.263 114.444 316.694C114.406 321.2 118.149 324.943 122.637 324.905C127.086 324.848 130.657 321.239 130.676 316.789Z" fill="#A9C4D7"/>
<path d="M307.546 316.656C307.565 308.081 314.516 301.111 323.09 301.092C331.722 301.073 338.864 308.196 338.807 316.789C338.749 325.44 331.645 332.41 322.957 332.334C314.402 332.276 307.527 325.268 307.546 316.656ZM331.244 316.77C331.264 312.206 327.597 308.54 323.052 308.578C318.641 308.635 315.013 312.283 314.994 316.694C314.974 321.181 318.736 324.943 323.224 324.886C327.635 324.848 331.206 321.22 331.244 316.77Z" fill="#A9C4D7"/>
<path d="M278.271 224.745C279.035 223.236 278.653 221.613 278.844 220.028C280.525 219.035 279.112 218.023 278.882 217.011C278.596 215.75 277.756 214.108 279.837 213.764C283.618 213.153 287.418 212.504 291.276 212.523C291.333 213.803 291.41 215.082 291.467 216.361C289.863 216.877 288.278 217.488 286.54 217.488C285.833 217.488 285.127 217.641 284.669 218.367C283.16 220.849 283.656 223.79 285.948 225.7C285.986 225.852 286.005 226.005 286.005 226.158C283.446 227.151 280.868 227.743 278.176 226.712C278.214 226.062 278.233 225.413 278.271 224.745Z" fill="#F3AD95"/>
<path d="M285.948 225.719C283.638 223.79 283.16 220.868 284.669 218.386C285.108 217.641 285.815 217.488 286.54 217.507C288.278 217.526 289.863 216.896 291.467 216.381C293.224 217.183 293.644 218.653 293.32 220.391C292.307 225.719 291.181 226.521 285.948 225.719Z" fill="#FEFEFE"/>
<path d="M291.257 212.523C287.4 212.504 283.6 213.153 279.819 213.764C277.737 214.108 278.577 215.75 278.864 217.011C279.093 218.023 280.506 219.054 278.826 220.028C277.05 218.157 275.045 216.4 274.815 213.574C280.239 212.179 285.07 209.22 290.36 207.501C290.665 207.405 290.99 207.348 291.296 207.272C291.276 207.673 291.124 208.246 291.582 208.322C292.231 208.437 293.091 207.768 293.243 209.067C293.377 210.193 293.262 211.167 292.308 211.893C291.983 212.141 291.62 212.313 291.257 212.523Z" fill="#12191F"/>
<path d="M316.35 240.06C311.289 241.76 306.172 243.211 300.939 244.28C300.08 244.452 299.202 244.376 298.399 243.765C295.936 241.893 293.53 239.984 291.448 237.711C290.704 236.909 290.36 235.916 290.532 234.79C292.651 236.909 294.809 238.972 296.853 241.149C298.266 242.657 299.717 243.058 301.818 242.619C306.63 241.569 311.385 240.175 316.35 240.06Z" fill="#1D2130"/>
<path d="M319.806 242.352C319.501 242.352 319.176 242.371 318.871 242.371C318.641 241.607 318.393 240.824 318.164 240.06C319.176 239.831 320.188 239.621 321.2 239.392C321.869 239.602 322.423 239.965 322.27 240.767C322.022 242.161 320.704 241.951 319.806 242.352Z" fill="#F3AD95"/>
<path d="M273.899 229.672C276.726 230.187 279.246 230.474 282.359 229.385C279.514 231.658 276.649 231.658 273.899 229.672Z" fill="#1D2130"/>
<path d="M278.272 224.745C278.253 225.394 278.234 226.063 278.196 226.712C277.031 226.826 276.152 226.063 275.159 225.662C276.076 224.936 277.164 224.821 278.272 224.745Z" fill="#1D2130"/>
<path d="M279.418 235.783C278.387 237.253 276.859 237.33 274.777 237.578C276.458 236.184 278.005 236.146 279.418 235.783Z" fill="#1D2130"/>
<path d="M284.134 242.829C285.413 242.963 285.872 243.937 286.96 245.235C285.012 244.872 284.382 244.051 284.096 242.848C284.096 242.867 284.134 242.829 284.134 242.829Z" fill="#1D2130"/>
<path d="M283.599 241.893C282.988 241.569 282.587 241.149 282.721 240.366C283.905 240.385 283.485 241.301 283.619 241.874L283.599 241.893Z" fill="#1D2130"/>
<path d="M282.607 238.704C282.531 238.838 282.473 238.952 282.397 239.067C282.321 238.952 282.206 238.838 282.206 238.704C282.206 238.59 282.321 238.456 282.378 238.341C282.454 238.456 282.531 238.57 282.607 238.704Z" fill="#1D2130"/>
<path d="M283.639 241.855C284.021 242.065 284.116 242.428 284.135 242.829L284.097 242.867C283.715 242.657 283.62 242.294 283.601 241.893L283.639 241.855Z" fill="#1D2130"/>
<path d="M280.678 235.019C280.85 234.904 281.041 234.771 281.212 234.656C281.212 234.656 281.289 234.771 281.346 234.828C281.136 234.904 280.926 234.962 280.716 235.038C280.697 235.038 280.678 235.019 280.678 235.019Z" fill="#1D2130"/>
<path d="M280.697 235.038C280.659 235.114 280.621 235.172 280.563 235.248C280.602 235.172 280.64 235.095 280.659 235.019C280.678 235.019 280.697 235.038 280.697 235.038Z" fill="#1D2130"/>
<path d="M130.677 316.789C130.638 321.258 127.067 324.867 122.637 324.905C118.149 324.943 114.406 321.2 114.445 316.694C114.464 312.263 118.073 308.635 122.503 308.597C127.048 308.54 130.715 312.225 130.677 316.789Z" fill="#12191F"/>
<path d="M331.245 316.77C331.226 321.22 327.636 324.848 323.225 324.886C318.737 324.924 314.975 321.182 314.994 316.694C315.013 312.283 318.642 308.635 323.053 308.578C327.579 308.54 331.264 312.206 331.245 316.77Z" fill="#12191F"/>
<path d="M445 164C450.523 164 455 159.523 455 154C455 148.477 450.523 144 445 144C439.477 144 435 148.477 435 154C435 159.523 439.477 164 445 164Z" fill="#EEF7FE"/>
<path d="M375.775 110.551C382.831 110.551 388.551 104.831 388.551 97.7754C388.551 90.7198 382.831 85 375.775 85C368.72 85 363 90.7198 363 97.7754C363 104.831 368.72 110.551 375.775 110.551Z" fill="#DFF1FE"/>
<path d="M143.432 208.551C142.764 207.883 141.847 207.482 140.835 207.482C138.811 207.482 137.169 209.124 137.169 211.148C137.169 211.797 137.341 212.409 137.627 212.924L137.646 212.943C137.723 213.058 137.799 213.172 137.875 213.287C139.002 215.101 139.651 217.259 139.651 219.551C139.651 226.101 134.342 231.409 127.792 231.409C127.621 231.409 127.468 231.409 127.296 231.39C129.129 232.25 131.192 232.746 133.349 232.746C141.198 232.746 147.557 226.387 147.557 218.538C147.576 214.662 145.991 211.129 143.432 208.551Z" fill="#1D2130"/>
<path d="M129.912 221.594C131.937 221.594 133.579 219.952 133.579 217.927C133.579 217.278 133.407 216.667 133.121 216.151L133.101 216.132C133.025 216.018 132.949 215.903 132.872 215.789C131.746 213.974 131.096 211.816 131.096 209.525C131.096 202.975 136.405 197.666 142.955 197.666C143.127 197.666 143.28 197.666 143.452 197.685C141.618 196.826 139.556 196.329 137.398 196.329C129.55 196.329 123.19 202.688 123.19 210.537C123.19 214.452 124.775 217.985 127.334 220.563C127.984 221.193 128.9 221.594 129.912 221.594Z" fill="#1D2130"/>
<path d="M88.7789 249.475C89.2181 249.284 89.791 249.188 90.4594 249.188C91.1659 249.188 91.7388 249.303 92.178 249.532C92.6363 249.761 92.961 250.086 93.1901 250.487C93.4193 250.888 93.5339 251.365 93.5339 251.9H97.7351C97.7351 250.716 97.4295 249.666 96.8375 248.749C96.2455 247.832 95.4053 247.126 94.3168 246.61C93.2283 246.095 91.968 245.846 90.5167 245.846C89.1035 245.846 87.8432 246.076 86.7547 246.534C85.6662 246.992 84.7878 247.622 84.1576 248.444C83.5274 249.265 83.2219 250.219 83.2219 251.327C83.2219 252.186 83.3937 252.931 83.7375 253.58C84.0812 254.23 84.5586 254.784 85.1697 255.28C85.7808 255.757 86.4873 256.197 87.2703 256.559C88.0723 256.922 88.8935 257.247 89.7719 257.533C90.8031 257.858 91.6051 258.183 92.1398 258.469C92.6745 258.756 93.0374 259.061 93.2283 259.386C93.4193 259.71 93.5148 260.092 93.5148 260.532C93.5148 260.933 93.4193 261.276 93.2092 261.601C92.9992 261.926 92.6936 262.174 92.2544 262.346C91.8343 262.537 91.2805 262.613 90.6121 262.613C90.0392 262.613 89.5236 262.556 89.0653 262.441C88.607 262.327 88.206 262.155 87.8814 261.887C87.5567 261.639 87.3085 261.314 87.1366 260.913C86.9647 260.512 86.8693 260.016 86.8693 259.443H82.6299C82.6299 260.57 82.859 261.525 83.3173 262.346C83.7757 263.167 84.3867 263.835 85.1506 264.37C85.9144 264.905 86.7738 265.306 87.7095 265.554C88.6643 265.802 89.6191 265.936 90.6121 265.936C92.0635 265.936 93.3047 265.726 94.3741 265.286C95.4435 264.847 96.2646 264.236 96.8566 263.415C97.4486 262.594 97.7351 261.62 97.7351 260.474C97.7351 259.386 97.4868 258.45 97.0094 257.667C96.5129 256.865 95.7872 256.178 94.8324 255.605C93.8585 255.013 92.6745 254.516 91.2423 254.077C90.4403 253.829 89.7528 253.561 89.1799 253.313C88.607 253.065 88.1869 252.759 87.8814 252.454C87.5949 252.148 87.4421 251.766 87.4421 251.346C87.4421 250.945 87.5567 250.582 87.7668 250.258C87.9959 249.933 88.3397 249.666 88.7789 249.475Z" fill="#1D2130"/>
<path d="M115.456 251.117H110.587L106.978 255.433L106.29 256.311V245.006H102.223V265.668H106.29V261.314L107.646 259.959L111.217 265.668H115.896L110.262 257.17L115.456 251.117Z" fill="#1D2130"/>
<path d="M126.245 250.849C125.348 250.849 124.584 251.136 123.954 251.69C123.591 252.014 123.285 252.415 123.037 252.874L122.903 251.117H119.084V265.668H123.152V256.254C123.171 256.215 123.19 256.177 123.209 256.139C123.438 255.7 123.782 255.375 124.221 255.165C124.679 254.955 125.252 254.841 125.978 254.841C126.188 254.841 126.436 254.86 126.703 254.879C126.971 254.898 127.2 254.917 127.41 254.955L127.467 251.04C127.315 250.983 127.143 250.926 126.914 250.907C126.684 250.888 126.455 250.849 126.245 250.849Z" fill="#1D2130"/>
<path d="M133.522 245.292C132.834 245.292 132.28 245.483 131.86 245.884C131.44 246.266 131.249 246.782 131.249 247.374C131.249 247.966 131.459 248.462 131.86 248.863C132.28 249.264 132.815 249.455 133.522 249.455C134.209 249.455 134.763 249.264 135.164 248.863C135.565 248.462 135.775 247.966 135.775 247.374C135.775 246.763 135.565 246.266 135.164 245.884C134.763 245.483 134.209 245.292 133.522 245.292Z" fill="#1D2130"/>
<path d="M135.565 251.117H131.497V265.668H135.565V251.117Z" fill="#1D2130"/>
<path d="M145.018 245.025H140.95V265.668H145.018V245.025Z" fill="#1D2130"/>
<path d="M154.451 245.025H150.384V265.668H154.451V245.025Z" fill="#1D2130"/>
<path d="M171.485 262.078V256.005C171.485 254.86 171.237 253.905 170.722 253.141C170.206 252.377 169.518 251.804 168.621 251.422C167.743 251.04 166.73 250.849 165.604 250.849C164.343 250.849 163.236 251.059 162.319 251.48C161.383 251.9 160.658 252.473 160.161 253.16C159.646 253.867 159.397 254.65 159.397 255.509H163.465C163.465 255.146 163.541 254.84 163.694 254.592C163.847 254.344 164.076 254.153 164.362 254.019C164.649 253.886 165.012 253.809 165.413 253.809C166.119 253.809 166.635 254 166.96 254.382C167.284 254.764 167.437 255.28 167.437 255.948V256.75H165.795C163.56 256.75 161.88 257.17 160.753 258.01C159.627 258.851 159.054 260.035 159.054 261.543C159.054 262.403 159.264 263.147 159.703 263.816C160.142 264.465 160.734 264.981 161.498 265.363C162.262 265.745 163.083 265.916 164 265.916C164.706 265.916 165.317 265.821 165.852 265.611C166.387 265.401 166.826 265.133 167.189 264.809C167.342 264.675 167.494 264.522 167.628 264.37C167.723 264.866 167.857 265.305 168.01 265.649H172.096V265.42C171.906 265.038 171.772 264.599 171.657 264.102C171.543 263.625 171.485 262.937 171.485 262.078ZM166.348 262.536C165.947 262.746 165.451 262.861 164.897 262.861C164.343 262.861 163.923 262.708 163.599 262.422C163.274 262.135 163.121 261.753 163.121 261.295C163.121 260.703 163.331 260.187 163.77 259.748C164.21 259.328 164.916 259.118 165.909 259.118H167.437V261.543C167.399 261.601 167.361 261.677 167.303 261.753C167.074 262.04 166.75 262.307 166.348 262.536Z" fill="#1D2130"/>
<path d="M181.167 262.403L187.908 253.485V251.117H186.495H185.158H176.183V254.382H182.695L175.973 263.243V265.668H177.042H178.684H188.118V262.403H181.167Z" fill="#1D2130"/>
</g>
<defs>
<clipPath id="clip0">
<rect width="489" height="344.842" fill="white"/>
</clipPath>
</defs>
</svg>
