<svg width="483" height="408" viewBox="0 0 483 408" fill="none" xmlns="http://www.w3.org/2000/svg">
<path d="M367.888 170.168C377.516 176.402 386.321 183.718 394.983 191.176C411.854 205.694 427.475 221.378 439.943 239.966C443.01 244.521 442.158 248.791 437.472 251.837C433.24 254.598 429.008 257.388 424.606 259.807C420.062 262.284 416.37 265.529 413.444 269.77C412.053 271.791 410.377 273.641 408.815 275.577C408.133 276.403 407.963 277 409.354 277.057C397.056 290.322 386.463 304.954 374.846 318.788C369.223 325.506 363.798 332.366 358.061 338.999C356.641 340.65 355.902 342.785 354.17 344.151C352.04 346.428 349.995 348.734 348.12 351.211C341.332 360.177 331.874 363.679 321.167 364.077C311.17 364.447 301.172 364.476 291.175 364.077C277.599 363.536 263.994 363.508 250.447 362.796C240.904 362.284 231.275 362.569 221.818 361.003C219.063 360.547 216.336 360.035 213.695 359.124C202.959 355.537 193.615 349.759 185.975 341.305C182.254 337.063 178.846 332.594 176.403 327.47C175.892 326.417 174.699 325.051 176.716 324.14C181.26 323.257 185.747 324.311 190.235 324.652C205.174 325.791 220.114 327.186 235.081 328.239C242.75 328.78 250.39 329.776 258.087 330.231C261.324 330.801 264.591 331.256 267.686 332.423C269.277 333.021 270.47 332.224 271.776 331.683C277.741 331.797 283.677 332.509 289.641 332.936C298.673 333.59 307.705 334.53 316.736 335.128C317.872 335.213 319.008 335.241 320.116 335.384C327.728 336.465 334.061 334.046 338.549 327.755C346.047 317.223 352.636 306.092 359.481 295.133C364.906 286.451 370.103 277.627 375.67 269.059C383.963 256.22 382.543 243.297 375.585 230.573C372.006 224.026 367.036 218.389 362.662 212.383C355.334 202.363 347.808 192.514 340.395 182.58C339.032 180.758 337.612 178.964 336.731 176.858C335.141 173.072 336.788 170.168 340.651 169.741C346.785 170.311 352.92 169.599 359.055 170.112C361.98 170.254 364.934 170.225 367.888 170.168Z" fill="#30B0E6"/>
<path d="M7.38477 199.318C6.64632 199.46 6.07829 199.09 5.53866 198.691C4.573 197.126 4.51619 195.361 4.51619 193.596C4.51619 171.734 4.51619 149.873 4.51619 128.011C4.51619 126.474 4.37419 124.88 5.42505 123.57C6.64633 122.574 8.12322 122.659 9.5717 122.659C52.4867 122.631 95.4018 122.659 138.317 122.631C139.254 122.631 140.191 122.574 141.043 123.058C141.072 145.631 141.157 168.204 141.1 190.778C141.1 195.247 138.288 198.236 133.716 199.375C132.409 199.773 131.046 199.659 129.711 199.659C94.6917 199.659 59.6724 199.716 24.6246 199.631C18.9159 199.574 13.1503 199.403 7.38477 199.318Z" fill="#30B0E6"/>
<path d="M174.557 216.71C174.443 215.571 173.449 215.031 172.796 214.29C167.854 208.683 166.15 201.851 165.412 194.706C165.156 192.258 165.071 189.781 164.929 187.333C165.554 186.337 166.576 186.138 167.627 186.109C174.813 185.768 181.998 185.227 189.212 184.8C198.982 184.231 208.753 183.889 218.494 183.035C221.789 182.75 225.084 183.177 228.35 182.494C232.894 181.868 237.41 182.779 241.897 183.063C256.894 184.031 271.918 185.17 286.801 187.305C292.31 188.102 297.82 188.87 303.217 190.265C313.924 192.998 318.923 198.634 319.122 209.764C319.292 220.069 318.582 230.402 318.27 240.707C318.014 249.588 317.332 258.441 317.361 267.322C317.361 268.802 318.014 270.738 315.799 271.45C315.231 269.115 315.77 266.724 315.429 264.39C316.367 272.361 315.316 280.303 315.486 288.273C315.515 289.525 315.543 290.749 315.941 291.945C315.941 294.905 317.162 297.98 315.003 300.684C313.697 299.289 314.492 297.695 314.492 295.959C313.867 298.948 314.748 301.595 315.174 304.271C315.259 305.466 314.918 306.377 313.697 306.804C310.715 307.573 307.676 307.943 304.665 308.455C302.365 308.398 302.024 306.491 301.456 304.897C298.36 296.073 295.861 287.077 293.248 278.111C289.328 263.849 286.63 249.389 285.352 234.672C285.125 232.195 285.238 229.719 285.238 227.242C285.238 225.392 284.557 224.623 282.625 224.965C274.929 226.331 267.118 226.958 259.393 227.954C244.51 229.32 229.599 229.861 214.66 229.349C207.588 229.093 200.488 228.381 193.529 226.758C187.423 225.335 181.885 222.659 176.715 219.187C175.75 218.617 174.784 217.962 174.557 216.71Z" fill="#3E5D93"/>
<path d="M174.557 216.71C184.668 224.538 196.398 227.157 208.867 228.068C218.665 228.78 228.436 228.609 238.206 228.466C245.278 228.353 252.35 227.356 259.45 227.356C260.899 228.381 261.041 230.004 261.41 231.512C262.234 239.682 258.428 245.119 251.384 248.677C248.714 250.015 246.073 251.41 243.204 252.321C241.529 252.862 240.023 253.801 238.603 254.854C232.895 259.153 231.702 265.472 235.65 271.421C243.488 283.206 252.463 294.137 261.211 305.239C264.08 308.882 267.005 312.497 269.902 316.141C272.799 319.756 275.781 323.286 278.934 326.673C280.78 328.78 283.421 328.552 285.75 328.694C289.613 328.951 293.419 329.634 297.31 329.548C299.98 330.032 302.678 330.061 305.347 330.317C306.796 330.744 308.301 330.943 309.665 331.74C311.653 332.936 313.3 330.886 315.203 330.972C317.021 331.228 318.81 331.313 320.656 331.057C323.723 330.63 325.655 328.979 327.103 326.446C329.546 324.311 332.727 323.713 335.567 322.375C336.703 321.834 338.35 321.436 336.93 319.585C335.823 318.191 333.408 318.618 332.727 316.596C332.556 315.344 333.352 314.462 333.863 313.465C342.781 296.101 351.5 278.68 359.481 260.86C363.713 251.438 363.088 242.927 359.112 233.818C352.665 219.016 345.053 204.84 337.385 190.692C335.027 186.337 332.414 182.096 330.426 177.57C328.893 174.068 328.637 170.567 330.824 167.208C331.932 165.5 333.323 164.162 335.595 164.333C342.156 164.532 348.717 164.276 355.278 164.475C355.448 164.532 355.619 164.618 355.789 164.675C356.897 166.326 358.033 167.948 359.14 169.599C358.203 170.51 357.039 170.197 355.959 170.197C351.188 170.282 346.416 170.083 341.645 170.311C341.105 170.482 340.537 170.596 339.998 170.254C336.959 171.336 336.163 172.702 336.987 175.549C337.498 177.37 338.606 178.879 339.742 180.359C350.733 195.105 361.725 209.85 372.716 224.595C377.346 230.829 380.442 237.718 381.663 245.461C382.884 253.118 381.805 260.434 377.744 266.981C365.105 287.334 353.006 308.028 339.486 327.84C334.999 334.444 328.637 337.063 320.798 336.38C319.151 336.238 317.503 336.095 315.856 335.953C301.144 334.729 286.46 333.477 271.748 332.253C271.067 331.968 270.47 331.569 269.987 331C251.015 307.573 232.27 283.946 213.241 260.547C213.099 260.377 212.957 260.234 212.843 260.063C207.503 251.381 199.324 246.286 190.69 241.39C172.541 231.114 154.591 220.553 136.641 209.964C136.471 209.85 136.329 209.708 136.187 209.537C136.016 209.252 136.045 208.996 136.272 208.74C142.634 208.711 148.996 208.711 155.358 208.683C157.176 208.683 158.738 209.451 160.328 210.163C165.071 212.326 169.814 214.518 174.557 216.71Z" fill="#3A3838"/>
<path d="M270.725 330.971C271.066 331.398 271.407 331.797 271.747 332.224C270.526 333.448 269.333 333.875 267.487 333.22C264.704 332.224 261.722 331.712 258.853 330.971C241.897 327.527 225.481 322.147 208.781 317.678C196.142 314.291 183.588 310.704 170.978 307.203C169.7 306.832 168.393 306.462 167.229 305.808C161.265 302.392 155.471 298.634 149.563 295.076C147.49 293.368 144.678 292.657 143.087 290.265C132.92 283.832 122.78 277.37 112.357 271.364C109.772 271.023 107.983 269.229 105.91 267.977C102.303 265.813 98.7523 263.536 95.1453 261.401C94.1797 260.832 93.2424 260.177 92.7312 259.095C85.0627 255.566 80.4332 249.161 76.1446 242.215C71.0322 233.989 65.4939 226.018 60.126 217.934C64.159 216.226 68.3341 217.108 72.4523 217.393C75.7185 217.621 78.9847 218.133 82.0521 216.482C83.9834 215.941 85.4035 217.137 86.8804 218.019C108.437 230.829 129.937 243.724 151.352 256.761C189.78 280.132 228.009 303.901 266.181 327.698C267.771 328.723 269.191 329.947 270.725 330.971Z" fill="#59C0EB"/>
<path d="M270.726 330.972C265.955 329.178 262.007 325.962 257.747 323.343C236.445 310.22 215.229 296.984 193.928 283.861C172.968 270.966 152.007 258.099 130.961 245.375C115.028 235.725 98.9526 226.303 82.934 216.767C82.1388 212.127 78.6454 211.586 74.8963 211.472C71.9142 211.387 68.9036 211.672 65.9498 211.273C64.4729 211.074 62.8256 211.131 61.6611 209.85C62.6268 209.024 63.7345 208.654 65.0125 208.768C67.3699 209.281 69.642 208.37 71.9994 208.37C89.4948 208.483 107.019 208.483 124.514 208.398C128.519 208.37 132.495 208.768 136.443 209.224C147.15 215.372 157.858 221.521 168.565 227.698C180.068 234.359 191.542 241.077 203.017 247.738C204.096 248.364 205.09 249.019 205.914 250.015C227.357 276.744 248.8 303.445 270.272 330.146C270.442 330.431 270.584 330.716 270.726 330.972Z" fill="#30B0E6"/>
<path d="M228.379 183.177C223.749 184.344 218.978 184.003 214.263 184.316C198.33 185.369 182.368 186.166 166.435 187.077C165.923 187.106 165.412 187.219 164.901 187.305C164.02 178.737 164.333 170.168 164.787 161.6C165.753 143.524 169.019 125.904 176.432 109.252C183.703 92.9123 194.183 79.0495 208.043 67.7485C209.293 67.8624 208.867 68.8302 208.64 69.3426C205.714 76.089 206.424 82.9493 207.844 89.838C205.089 110.533 212.332 127.84 225.737 143.126C228.038 145.745 231.105 147.652 232.753 150.84C233.065 152.833 232.554 154.768 232.27 156.676C231.077 164.532 230.197 172.446 229.373 180.359C229.316 181.384 229.259 182.437 228.379 183.177Z" fill="#30B0E6"/>
<path d="M207.39 90.151C205.203 83.1769 204.805 76.2597 207.844 69.3995C208.071 68.8871 208.668 68.3747 208.015 67.7484C210.94 64.9303 214.263 62.71 217.984 61.0305C219.688 61.1729 221.165 59.9773 222.869 60.1481C228.521 60.4897 232.582 63.6209 235.934 67.8338C238.149 70.6235 239.91 73.7832 241.813 76.8006C242.04 78.8786 243.034 80.7004 243.772 82.6076C244.454 84.4294 245.107 86.2512 245.107 88.2153C247.947 99.9717 252.009 111.159 260.103 120.439C271.72 133.761 286.716 138.514 303.871 137.575C306.853 137.404 309.778 136.806 312.732 136.408C314.72 137.433 314.095 139.311 314.18 140.934C314.266 142.243 313.584 143.496 313.669 144.805C313.47 149.559 313.073 150.015 308.415 150.669C304.865 151.153 301.314 151.836 297.707 151.808C296.656 151.779 295.634 151.836 294.612 152.178C277.258 153.715 260.444 152.377 244.937 143.41C243.971 142.841 242.949 142.3 241.813 142.158C238.745 141.247 237.24 138.087 234.371 136.863C222.443 127.014 213.809 114.916 209.207 100.057C208.242 96.8689 207.077 93.6238 207.39 90.151Z" fill="#30B0E6"/>
<path d="M108.921 400.001C87.2224 395.674 72.1126 383.32 65.7791 361.999C59.4739 340.735 64.643 321.606 81.0592 306.633C97.5606 291.575 116.902 288.728 137.834 296.414C138.317 296.585 138.8 296.784 139.254 296.983C140.021 297.894 139.567 298.805 139.084 299.545C137.209 302.648 135.733 305.95 133.972 309.11C132.779 311.216 131.245 311.871 128.831 311.131C121.674 308.911 114.431 308.797 107.189 310.732C93.2151 314.404 81.968 327.584 80.69 341.788C80.1503 344.72 79.7527 347.652 80.6616 350.613C82.3657 365.643 90.5738 375.862 104.377 381.157C124.059 388.7 144.707 378.936 152.206 359.096C153.682 355.224 154.194 354.598 158.312 355.11C162.288 355.594 166.35 355.11 170.241 356.192C171.235 357.302 170.752 358.555 170.411 359.722C164.503 381.299 150.501 394.564 129.03 400.086C127.752 400.428 126.445 400.741 125.082 400.855C120.935 401.68 116.732 401.567 112.557 401.31C111.279 401.225 109.944 401.026 108.921 400.001Z" fill="#3A3838"/>
<path d="M170.326 356.534C165.895 356.335 161.464 356.192 157.034 355.879C155.017 355.737 154.051 356.164 153.313 358.356C147.718 375.264 132.296 385.398 114.119 384.345C97.9863 383.406 83.8707 370.852 80.2637 354.2C80.0364 353.09 80.008 351.951 79.8944 350.841C79.866 347.738 80.1784 344.664 79.9512 341.561C80.7749 326.73 94.1521 312.213 109.773 309.252C116.476 307.971 123.15 308.228 129.569 310.562C131.5 311.245 132.296 310.789 133.119 309.11C135.107 305.039 137.238 301.026 139.282 297.012C140.561 294.792 141.867 292.571 143.145 290.351C145.474 291.774 147.803 293.226 150.104 294.649C150.189 297.439 148.201 299.403 147.292 301.794C144.991 305.352 143.514 309.338 141.271 312.924C140.333 314.433 140.845 315.657 142.094 316.71C148.314 321.948 152.489 328.552 154.761 336.38C155.216 337.946 156.011 338.971 157.744 338.914C162.373 338.771 166.974 339.113 171.575 339.454C176.517 339.568 181.516 338.743 186.287 340.764C193.785 348.734 202.675 354.598 213.013 358.27C211.593 359.75 209.747 359.38 208.071 359.267C198.614 358.669 189.156 358.27 179.698 358.071C176.517 357.957 173.279 357.986 170.326 356.534Z" fill="#6AAFEA"/>
<path d="M448.35 300.001C461.557 308.626 470.219 320.411 473.4 336.039C479.223 364.675 460.477 393.283 431.905 399.318C430.996 399.517 430.087 399.745 429.207 399.944C424.691 402.392 419.834 401.254 415.091 401.254C414.182 401.254 413.274 400.998 412.365 400.855C393.165 397.382 379.021 387.049 370.671 369.315C367.036 361.572 364.962 353.374 366.07 344.664C366.439 343.724 367.291 343.354 368.115 342.956C371.949 341.077 375.812 339.227 379.504 337.063C380.697 336.352 382.003 335.555 383.48 336.466C384.361 337.69 384.048 339.028 383.878 340.365C380.81 361.829 394.528 380.274 415.83 383.406C437.046 386.508 457.41 368.945 457.467 347.482C457.524 330.801 448.833 317.934 433.297 311.615C432.445 311.273 431.536 310.989 430.968 310.163C430.627 309.281 431.224 308.797 431.82 308.427C436.677 305.523 441.619 302.819 446.561 300.086C447.129 299.773 447.753 299.631 448.35 300.001Z" fill="#3A3838"/>
<path d="M411.825 399.973C417.619 400.713 423.413 400.684 429.207 399.944C430.144 400.912 431.365 400.485 432.445 400.485C440.596 400.514 448.747 400.514 456.899 400.514C457.722 400.514 458.574 400.4 459.37 400.599C461.329 401.055 463.062 402.222 462.948 404.3C462.806 406.492 461.414 408.114 458.83 407.972C458.12 407.943 457.381 407.972 456.671 407.972C334.345 407.972 212.019 407.972 89.7209 407.972C89.2096 407.972 88.6984 407.943 88.1588 407.972C85.6878 408.086 83.8417 407.26 83.5861 404.527C83.3021 401.311 85.7446 400.684 88.0168 400.599C92.6462 400.371 97.3041 400.628 101.934 400.485C104.263 400.428 106.648 401.14 108.92 400.001C114.516 400.684 120.111 400.684 125.734 400.001C129.142 400.314 132.465 399.46 135.874 399.46C224.487 399.517 313.101 399.517 401.714 399.46C405.094 399.46 408.417 400.257 411.825 399.973Z" fill="#DFDFDF"/>
<path d="M139.963 98.8048C141.355 100.57 141.156 102.676 141.156 104.726C141.128 108.341 141.071 111.956 141.043 115.571C139.878 116.71 138.373 116.567 136.953 116.567C94.5491 116.596 52.1453 116.596 9.74147 116.567C8.29298 116.567 6.8445 116.653 5.56642 115.742C1.30616 107.088 6.56048 97.837 15.9899 97.837C55.9511 97.7516 95.8839 97.78 135.845 97.8085C137.265 97.8085 138.742 97.78 139.963 98.8048Z" fill="#30B0E6"/>
<path d="M448.351 300.001C442.614 303.274 436.848 306.548 431.111 309.822C429.577 312.241 426.68 312.64 424.55 314.177C422.988 315.287 421.199 316.169 419.495 317.137C416.91 318.191 414.723 319.955 412.195 321.094C409.696 322.546 407.14 323.855 404.669 325.307C401.772 327.015 398.676 328.381 395.864 330.203C391.462 331.911 387.855 335.185 383.226 336.466C377.375 338.657 372.064 341.959 366.468 344.692C364.509 346.884 361.754 347.539 359.112 348.307C357.692 348.706 356.244 348.421 355.335 346.969C355.988 344.237 358.317 342.842 360.192 341.191C366.838 335.327 373.171 329.121 379.789 323.201C389.559 314.462 399.045 305.438 408.702 296.613C414.95 290.92 421.17 285.199 427.305 279.363C428.413 278.31 429.407 277.057 431.083 276.858C440.057 278.196 448.038 281.811 454.826 287.846C458.49 291.12 458.036 294.251 453.889 296.699C452.071 297.781 450.225 298.891 448.351 300.001Z" fill="#30B0E6"/>
<path d="M234.968 18.7875C238.518 11.7849 244.482 7.54351 250.93 3.38751C255.048 0.711728 258.683 -0.256108 263.597 0.0570155C270.101 0.484002 276.548 0.284742 282.654 3.01746C283.932 3.58677 284.926 4.26995 285.381 5.72171C287.255 11.728 289.187 17.7058 291.118 23.6836C291.686 26.2455 289.67 26.2455 288.164 26.5302C280.581 27.8965 272.941 28.9213 265.329 30.1169C264.506 30.2592 263.71 30.43 262.915 30.6008C257.462 30.9424 252.037 30.6862 246.584 30.7716C244.255 30.5723 241.699 31.3978 239.654 30.2023C237.581 28.9782 238.092 26.1601 237.212 24.1391C236.445 22.3742 235.28 20.7232 234.968 18.7875Z" fill="#30B0E6"/>
<path d="M5.50936 115.543C50.6965 115.543 95.8553 115.571 141.042 115.571C141.042 118.048 141.042 120.553 141.042 123.029C139.935 123.798 138.685 123.627 137.435 123.627C93.4696 123.627 49.5037 123.627 5.53776 123.627C5.42416 123.513 5.31055 123.399 5.16854 123.285C4.99813 123.001 4.88452 122.688 4.82772 122.346C4.74252 120.183 4.37329 118.019 5.14014 115.913C5.25375 115.799 5.36735 115.657 5.50936 115.543Z" fill="#2484AD"/>
<path d="M431.111 276.859C424.181 283.292 417.307 289.782 410.349 296.187C399.215 306.406 387.997 316.511 376.863 326.702C370.558 332.481 364.395 338.344 358.147 344.18C357.238 345.005 356.3 345.802 355.363 346.6C353.432 346.002 353.148 344.949 354.483 343.44C356.471 338.686 360.419 335.384 363.514 331.456C370.473 322.66 377.659 314.092 384.702 305.381C391.888 296.528 399.045 287.647 406.145 278.709C407.054 277.57 408.474 277.997 409.355 277.115C416.569 275.521 423.84 275.094 431.111 276.859Z" fill="#59C0EB"/>
<path d="M139.964 98.8047C98.7246 98.8047 57.4569 98.8047 16.2176 98.8047C8.97511 98.8047 5.5385 102.306 5.5385 109.65C5.5385 111.614 5.5385 113.578 5.5101 115.543V115.571C5.02727 115.998 4.48763 116.311 3.86279 116.368C1.78947 116.51 1.39184 117.848 1.44865 119.585C1.50545 121.122 1.42024 122.687 1.42024 124.225C1.42024 145.318 1.42024 166.382 1.39184 187.447C1.39184 189.041 1.87467 190.806 0.426183 192.116C-0.227057 191.176 0.000156518 190.123 0.000156518 189.098C0.000156518 160.718 -0.0282452 132.337 0.000156518 103.957C0.000156518 98.0361 3.06754 94.4779 8.60589 93.8801C9.57154 94.364 10.6224 94.1363 11.6449 94.1363C50.8961 94.1363 90.1473 94.1363 129.399 94.1363C130.421 94.1363 131.472 94.364 132.437 93.8801C135.988 93.994 138.515 95.5596 139.964 98.8047Z" fill="#59C0EB"/>
<path d="M67.3402 206.32C66.2893 205.381 65.0112 205.665 63.8184 205.665C50.2707 205.665 36.7231 205.665 23.1471 205.665C21.6702 205.665 20.1649 205.694 19.4264 204.1C18.83 202.79 18.83 201.481 20.2217 200.57C21.2726 199.745 22.5222 199.745 23.7435 199.745C59.8705 199.745 96.0259 199.716 132.153 199.745C132.465 199.745 132.778 199.802 133.09 199.83C133.289 199.858 133.488 199.915 133.687 199.944C135.22 200.627 135.874 201.823 135.504 203.445C135.164 204.954 134.141 205.694 132.579 205.637C130.676 206.519 128.319 206.69 127.211 208.939C126.842 208.854 126.558 208.683 126.302 208.398C125.166 206.349 123.206 206.633 121.389 206.605C106.535 206.576 91.6805 206.605 76.8263 206.576C75.4915 206.576 74.1566 206.633 72.8217 206.491C71.0324 206.463 69.1579 206.69 67.3402 206.32Z" fill="#BBBBBB"/>
<path d="M284.727 45.8869C288.192 53.7434 287.312 58.6395 281.347 64.7881C279.984 66.183 278.621 67.6062 277.172 68.9441C274.787 71.136 272.088 72.4739 268.794 71.4776C265.613 70.5098 262.119 70.282 259.506 67.8055C255.7 64.5035 253.173 60.2621 250.872 55.8783C249.679 53.6011 248.231 51.4661 247.322 49.0466C247.294 48.3634 247.492 47.851 248.174 47.6233C249.992 47.7087 250.361 49.2743 251.043 50.4983C253.428 54.8536 255.814 59.1804 258.91 63.0802C262.091 67.0939 263.255 67.0085 265.556 62.5678C267.26 59.2658 268.425 55.7076 269.901 52.3201C270.782 50.2706 270.157 49.2743 268.055 48.7904C264.562 47.9364 261.523 46.2854 259.194 43.4673C258.484 42.6133 257.49 41.8732 258.086 40.5068C260.5 40.1368 261.239 42.841 263.17 43.3534C268.709 46.8832 274.73 46.4846 280.808 45.6591C282.143 45.4314 283.478 45.1467 284.727 45.8869Z" fill="#E5EEF3"/>
<path d="M355.789 164.646C355.675 164.675 355.561 164.703 355.448 164.76C355.306 164.703 355.164 164.646 354.993 164.561C354.681 164.418 354.368 164.333 354.056 164.305C347.864 164.191 341.644 164.219 335.453 164.305C332.982 164.76 330.994 163.365 328.807 162.682C327.16 161.913 325.455 161.173 323.95 160.149C321.337 158.412 319.633 156.163 320.116 152.776C320.258 152.093 320.542 151.523 321.224 151.21C322.956 150.84 324.319 151.865 325.825 152.434C329.148 157.416 334.516 156.989 339.458 157.359C342.582 157.587 344.967 154.285 344.74 150.983C344.655 149.502 343.831 148.25 343.604 146.798C343.519 145.432 343.235 144.009 344.343 142.87C349.966 145.66 355.362 148.848 360.304 152.747C361.668 153.829 363.003 155.025 364.053 156.391C366.297 159.266 365.275 162.511 361.866 163.792C359.907 164.504 357.833 164.561 355.789 164.646Z" fill="#30B0E6"/>
<path d="M92.7607 259.124C99.3783 263.109 106.053 267.009 112.415 271.393C100.628 275.919 88.8412 280.445 77.0545 284.914C76.4297 285.17 75.6344 285.028 74.9244 285.085C74.5835 284.43 74.8676 283.861 75.2084 283.348C78.6734 277.883 81.7408 272.161 85.1206 266.667C85.4898 266.041 85.8874 265.443 86.6827 265.33C89.9205 264.476 91.085 261.572 92.7607 259.124Z" fill="#3A3838"/>
<path d="M248.458 47.7657C248.174 48.1642 247.919 48.5342 247.635 48.9328C247.578 49.2459 247.436 49.5305 247.18 49.7583C245.419 50.9538 243.374 51.1816 241.386 51.6939C239.285 51.7793 237.41 51.4662 236.53 49.1605C234.03 43.1827 233.065 36.9771 233.576 30.5439C234.655 29.4906 236.047 29.4052 237.296 29.7184C240.108 30.4585 242.948 30.1453 245.789 30.2592C251.611 30.2023 257.405 30.3731 263.227 30.1738C268.51 30.1453 273.537 31.8533 278.678 32.5365C278.933 32.6788 279.161 32.8781 279.303 33.1342C277.116 33.7605 279.388 35.4115 278.564 36.3509C277.882 36.8348 277.144 36.8348 276.349 36.6925C275.071 36.3224 273.793 36.1801 272.486 36.664C271.492 36.9202 270.526 37.2903 269.476 37.3472C267.289 37.091 266.266 38.7989 264.96 40.0514C262.006 42.8695 260.87 42.7557 258.569 39.3398C257.944 38.4004 257.49 37.3756 257.064 36.3509C256.638 35.013 255.758 33.8744 255.388 32.5365C255.417 32.2518 255.729 31.9672 255.729 31.7679C255.729 31.3978 255.417 31.711 255.275 31.7394C254.536 31.9956 253.741 32.1379 252.974 32.3941C247.89 33.789 246.016 37.2049 247.18 42.3287C247.663 44.0936 249.396 45.6307 248.458 47.7657Z" fill="#3A3838"/>
<path d="M86.6817 265.329C82.7623 271.905 78.8429 278.509 74.895 285.085C71.288 291.205 67.7662 297.353 64.0455 303.417C62.8811 305.324 60.893 306.491 58.7912 305.039C56.6611 303.559 57.3427 301.367 58.4504 299.488C64.926 288.586 71.4584 277.684 77.9624 266.781C78.9281 265.187 79.8653 263.593 80.831 261.999C82.8191 258.612 85.3752 257.217 87.1361 258.754C89.6639 261.003 88.0734 263.195 86.6817 265.329Z" fill="#BBBBBB"/>
<path d="M5.53932 123.627C5.53932 147.339 5.53931 171.023 5.48251 194.735C5.48251 196.044 6.10735 197.353 5.56772 198.663C2.92635 197.695 1.33586 195.816 0.682617 193.112C1.10864 192.002 0.881429 190.863 0.881429 189.725C0.909831 168.005 0.881429 146.286 0.881429 124.595C0.853028 124.196 0.938233 123.826 1.16545 123.456C2.64234 122.574 4.09083 122.602 5.53932 123.627Z" fill="#59C0EB"/>
<path d="M279.274 33.0773C274.133 32.6503 269.078 31.6255 264.051 30.4584C263.681 30.373 263.284 30.2876 263.113 29.8891C268.936 28.2381 274.957 27.868 280.864 26.8433C283.676 26.3309 286.516 25.9608 289.356 25.5623C290.464 25.42 290.947 24.7653 291.061 23.712C291.685 25.1353 292.878 25.0784 294.156 25.0499C299.524 24.9645 304.864 25.0215 310.232 24.8507C312.703 24.7653 313.157 25.6762 312.248 27.7542C310.175 32.508 305.971 33.2196 301.541 33.5612C298.303 33.3335 295.094 33.8174 291.856 33.6181C290.095 33.8458 288.306 33.732 286.601 34.2728C284.045 34.6429 281.546 34.5006 279.274 33.0773Z" fill="#59C0EB"/>
<path d="M105.172 46.0579C94.7482 46.0579 84.3247 46.0579 73.9013 46.0579C72.5096 46.0579 70.8339 46.3995 70.6067 44.2361C70.4079 42.4427 71.2883 41.418 73.0777 41.4749C94.3222 41.9873 115.595 41.5603 136.84 41.7026C137.152 41.7026 137.464 41.7026 137.777 41.7026C139.14 41.7026 139.907 42.3289 139.935 43.7522C139.964 45.2893 139.254 46.0579 137.692 46.0294C133.886 46.0294 130.052 46.0294 126.246 46.0294C119.202 46.0579 112.187 46.0579 105.172 46.0579Z" fill="#EAF2F5"/>
<path d="M344.343 142.87C344.315 144.35 344.258 145.859 344.23 147.339C344.485 149.189 344.031 150.812 342.781 152.207C342.44 152.605 341.958 152.975 341.446 152.776C340.907 152.577 340.822 152.007 340.793 151.495C340.765 150.869 340.935 150.271 340.935 149.645C340.935 146.485 339.657 144.008 336.845 142.557C333.92 141.048 331.08 141.304 328.438 143.382C327.558 144.094 326.82 145.005 325.769 145.46C322.701 146.77 319.605 147.367 316.339 146.257C315.146 145.859 314.209 144.891 312.931 144.72C312.846 141.959 314.323 139.141 312.789 136.408C315.175 136.892 317.362 136.01 319.577 135.469C322.957 134.615 326.365 133.761 329.745 132.907C336.164 131.313 341.446 134.188 343.662 140.507C343.917 141.276 344.116 142.073 344.343 142.87Z" fill="#FEAA96"/>
<path d="M136.499 59.6928C128.462 59.6928 120.424 59.6928 112.386 59.6928C110.881 59.6928 109.035 60.0344 109.006 57.6717C108.95 55.366 110.398 54.7397 112.443 54.7397C128.717 54.7682 145.02 54.7682 161.294 54.7397C163.225 54.7397 165.1 55.2237 165.128 57.3871C165.157 59.8351 163.027 59.7212 161.237 59.7212C153.001 59.6928 144.736 59.6928 136.499 59.6928Z" fill="#EAF2F5"/>
<path d="M141.47 13.7776C148.371 13.7776 155.301 13.8345 162.203 13.7491C163.964 13.7206 165.611 14.1476 165.639 15.9694C165.668 17.8197 164.134 18.7306 162.26 18.7306C148.428 18.7306 134.625 18.7306 120.793 18.7306C118.833 18.7306 117.612 17.8766 117.669 15.7986C117.697 13.6637 119.288 13.7776 120.765 13.7776C127.666 13.7776 134.568 13.7776 141.47 13.7776Z" fill="#EAF2F5"/>
<path d="M62.8252 407.972C59.1046 407.972 55.4123 407.943 51.6917 407.972C49.3912 407.972 47.8291 406.947 47.7155 404.613C47.5734 402.193 49.0503 400.599 51.4361 400.571C59.275 400.457 67.1138 400.428 74.9243 400.599C76.9976 400.627 78.7302 401.795 78.5881 404.328C78.4461 406.833 77.026 408 74.5551 407.972C70.6357 407.972 66.7446 407.972 62.8252 407.972Z" fill="#DFDFDF"/>
<path d="M269.561 36.8064C270.527 36.5502 271.521 36.3224 272.487 36.0663C273.708 35.6108 274.958 35.6677 276.179 36.0093C277.003 36.0378 277.855 36.0663 278.678 36.0947C281.575 34.5291 284.529 34.643 287.454 35.9809C287.596 37.4041 286.404 38.1158 285.722 39.0552C284.103 41.1616 283.592 43.3535 284.728 45.83C278.309 46.5986 271.862 48.3919 265.528 45.4315C264.421 44.9191 263.199 44.6345 262.461 43.5528C263.796 40.2507 265.954 37.8027 269.561 36.8064Z" fill="#F1998C"/>
<path d="M236.587 49.1321C238.007 50.3561 239.654 50.9824 241.529 50.9539C242.523 51.6371 242.921 52.7188 243.176 53.8289C244.653 59.8067 246.471 65.6707 248.459 71.5062C248.743 72.3886 249.027 73.2711 248.715 74.2104C247.465 75.4914 246.726 74.2104 245.96 73.5842C240.308 68.9727 235.508 63.3934 229.884 58.725C228.919 57.928 227.669 57.0171 228.379 55.3661C231.134 53.2881 233.86 51.2101 236.587 49.1321Z" fill="#F19A8C"/>
<path d="M228.407 55.3374C228.407 56.0206 228.804 56.5045 229.259 56.9315C235.621 62.8239 241.983 68.6879 248.345 74.5803C248.6 74.6942 248.799 74.8649 248.941 75.1211C251.639 77.3699 249.85 80.0742 249.396 82.4653C249.055 84.2302 247.55 81.3551 246.669 82.6361C244.823 80.8997 242.608 79.5049 241.5 77.0568C239.171 74.8365 238.063 71.7622 236.16 69.2572C232.837 64.9019 229.003 61.3722 223.209 60.8598C222.442 60.5182 221.505 60.4612 221.079 59.5503C223.124 57.4723 226.049 56.903 228.407 55.3374Z" fill="#E5EEF3"/>
<path d="M61.6603 209.85C67.2838 211.045 73.0778 210.106 78.7297 211.017C82.7343 211.672 83.4728 212.611 82.9331 216.767C80.4054 219.699 76.9972 218.788 73.9866 218.475C69.3571 217.963 64.756 218.133 60.155 217.991C57.7408 214.262 58.1952 211.842 61.6603 209.85Z" fill="#F22F6B"/>
<path d="M248.912 75.1496C248.713 74.9788 248.514 74.7796 248.315 74.6088C246.185 67.2361 244.027 59.835 241.897 52.4624C241.755 51.9785 241.641 51.4661 241.527 50.9822C243.373 50.3844 245.22 49.8151 247.066 49.2173C247.833 50.0428 247.946 51.096 247.889 52.1208C247.605 56.903 249.736 60.4043 253.456 63.194C254.564 64.0195 256.012 64.8165 255.217 66.6668C253.115 69.4849 251.014 72.303 248.912 75.1496Z" fill="#EB786B"/>
<path d="M475.616 407.972C474.367 407.972 473.145 407.972 471.896 407.972C469.595 408 468.061 406.89 467.863 404.613C467.692 402.449 469.226 400.969 471.157 400.77C474.111 400.457 477.122 400.485 480.075 400.77C482.007 400.969 483.199 402.592 482.944 404.556C482.717 406.491 481.666 408.057 479.308 408C478.087 407.972 476.866 407.972 475.616 407.972Z" fill="#DFDFDF"/>
<path d="M35.5315 407.972C34.3102 407.972 33.0606 408.029 31.8393 407.972C29.5955 407.858 27.9482 406.662 27.9482 404.413C27.9482 402.25 29.5671 400.798 31.6973 400.599C34.2534 400.371 36.838 400.428 39.3941 400.571C41.6947 400.713 42.9728 402.449 43.1148 404.47C43.2568 406.605 41.6095 407.772 39.5361 407.943C38.2013 408.057 36.8664 407.972 35.5315 407.972Z" fill="#DFDFDF"/>
<path d="M93.4141 59.6927C91.5679 59.6927 89.7218 59.6927 87.8757 59.6927C86.2284 59.6927 84.9504 59.038 84.8935 57.3016C84.8367 55.5367 86.0296 54.7397 87.7053 54.7397C91.3975 54.7112 95.0898 54.6827 98.782 54.7397C100.656 54.7681 101.565 55.8498 101.509 57.7286C101.423 59.6358 100.06 59.6927 98.6684 59.6927C96.9075 59.6927 95.1466 59.6927 93.4141 59.6927Z" fill="#EAF2F5"/>
<path d="M7.38477 199.318C8.35042 198.378 9.5433 198.777 10.6226 198.777C50.5838 198.748 90.5166 198.748 130.478 198.777C131.557 198.777 132.778 198.378 133.716 199.346L133.772 199.432C132.665 200.2 131.387 199.972 130.165 199.972C94.6917 199.972 59.1895 200.058 23.7158 199.887C18.4898 199.859 13.2071 199.944 7.9812 199.46C7.81079 199.432 7.61198 199.375 7.38477 199.318Z" fill="#59C0EB"/>
<path d="M8.00879 199.488C13.3767 199.46 18.7162 199.403 24.0842 199.403C60.6656 199.403 97.2187 199.431 133.8 199.46C133.772 199.631 133.743 199.801 133.743 199.972L133.715 200.001C132.863 200.541 131.897 200.314 130.988 200.314C95.0601 200.314 59.1319 200.314 23.1753 200.314C22.2665 200.314 21.3292 200.541 20.4488 200.029C16.3305 199.545 12.127 200.485 8.00879 199.488Z" fill="#59C0EB"/>
<path d="M132.465 93.8802C131.528 94.8481 130.335 94.4495 129.228 94.4495C90.09 94.478 50.9525 94.478 11.8433 94.4495C10.764 94.4495 9.54273 94.8481 8.60547 93.8802C9.31551 93.8233 10.054 93.7664 10.764 93.7664C50.6116 93.7664 90.4593 93.7664 130.307 93.7664C131.045 93.7664 131.755 93.8518 132.465 93.8802Z" fill="#59C0EB"/>
<path d="M20.4489 200.029C58.1948 200.029 95.9407 200 133.687 200C133.09 200.826 132.238 200.627 131.414 200.627C94.3502 200.627 57.2859 200.598 20.2217 200.57C20.3069 200.371 20.3637 200.2 20.4489 200.029Z" fill="#B6BAC6"/>
<path d="M255.218 66.6383C255.104 65.0727 253.883 64.4749 252.776 63.7348C247.521 60.2335 246.584 54.9958 247.067 49.2173C247.266 49.1319 247.464 49.018 247.635 48.9326C251.469 55.2805 255.019 61.8561 259.507 67.8054C257.916 68.0616 257.007 65.6136 255.218 66.6383Z" fill="#F19A8C"/>
<path d="M180.181 13.7776C181.629 13.7776 183.077 13.6922 184.526 13.806C185.918 13.8914 186.827 14.7169 186.969 16.1402C187.111 17.592 186.031 18.2467 184.924 18.4744C181.97 19.0437 178.959 18.8729 176.005 18.5883C174.529 18.446 173.904 17.0796 174.074 15.5424C174.245 14.0338 175.267 13.7776 176.517 13.7776C177.71 13.7776 178.931 13.7776 180.181 13.7776Z" fill="#EAF2F5"/>
<path d="M154.704 46.0294C153.256 46.0294 151.835 46.0863 150.387 46.0009C149.137 45.9155 148.143 45.1754 148.115 43.9229C148.086 42.6419 149.052 41.8734 150.302 41.7595C152.943 41.5033 155.585 41.8164 158.254 41.304C159.561 41.0479 161.293 42.0157 161.322 43.6667C161.35 45.2608 160.186 46.2002 158.396 46.0863C157.175 45.9724 155.925 46.0578 154.704 46.0294Z" fill="#EAF2F5"/>
<path d="M245.561 30.4584C241.585 30.4869 237.609 30.5154 233.661 30.5154C233.775 26.5586 234.371 22.6588 234.968 18.7875C237.268 21.0363 238.404 23.9967 238.887 26.9856C239.285 29.5475 240.307 30.2307 242.636 29.9176C243.744 29.7753 244.88 29.9461 246.016 30.003C245.959 30.2592 245.817 30.4015 245.561 30.4584Z" fill="#30B0E6"/>
<path d="M126.956 208.484C127.155 208.569 127.353 208.569 127.552 208.484C129.228 207.516 130.875 207.573 132.551 208.484C133.801 208.569 135.05 208.683 136.3 208.768C136.357 208.911 136.414 209.082 136.47 209.252C113.323 209.281 90.1756 209.309 67.0282 209.338C66.3181 209.338 65.5797 209.423 65.04 208.797C65.7217 208.711 66.3749 208.626 67.0566 208.512C68.9027 207.544 70.8624 207.801 72.8221 207.801C89.8063 207.573 106.762 207.744 123.746 207.715C124.854 207.715 125.962 207.801 126.956 208.484Z" fill="#30B0E6"/>
<path d="M1.16512 123.627C1.16512 145.802 1.16512 168.005 1.16512 190.18C1.16512 191.176 1.50594 192.258 0.65389 193.141C0.597087 192.799 0.540283 192.457 0.455078 192.116C0.511882 172.901 0.540283 153.687 0.568685 134.444C0.568685 130.829 0.597087 127.214 0.625489 123.599C0.824301 123.428 0.994711 123.456 1.16512 123.627Z" fill="#59C0EB"/>
<path d="M287.454 36.0378C284.529 35.9809 281.604 36.6925 278.678 36.1517C278.082 34.9846 276.548 33.6182 279.275 33.0774C281.774 33.2482 284.245 33.419 286.744 33.5613C287.738 33.1343 288.761 33.3336 289.783 33.3905C290.408 33.6182 291.146 33.5898 291.658 34.1876C290.522 35.4116 288.732 35.1554 287.454 36.0378Z" fill="#3A3838"/>
<path d="M241.5 77.0854C243.289 78.8788 245.959 79.8466 246.669 82.6647C246.158 84.515 245.647 86.3653 245.135 88.2156C243.801 84.8566 242.466 81.4976 241.131 78.1102C240.96 77.6832 241.131 77.3416 241.5 77.0854Z" fill="#30B0E6"/>
<path d="M341.02 170.083C345.706 169.172 350.421 169.912 355.135 169.685C356.47 169.628 357.805 169.599 359.14 169.571C362.037 170.083 365.047 169.058 367.888 170.169C365.076 171.563 362.094 170.482 359.197 170.823C354.226 170.112 349.228 170.709 344.257 170.482C343.178 170.453 342.014 170.88 341.02 170.083Z" fill="#30B0E6"/>
<path d="M72.4815 208.483C70.6638 208.483 68.846 208.483 67.0283 208.512C67.1419 207.772 67.2555 207.06 67.3407 206.348C68.9312 204.982 70.8058 205.893 72.5383 205.665C73.1915 206.605 73.2767 207.544 72.4815 208.483Z" fill="#A8A8A7"/>
<path d="M132.551 208.483C130.875 208.483 129.228 208.483 127.552 208.512C127.183 203.844 130.705 206.178 132.636 205.637C132.608 206.576 132.579 207.516 132.551 208.483Z" fill="#ABABAA"/>
<path d="M291.63 34.1875C290.976 34.0452 290.323 33.8744 289.642 33.7321C290.124 32.9635 291.118 33.6751 291.658 33.0204C294.953 33.3335 298.304 32.3657 301.542 33.5613C298.276 34.2729 294.953 34.0736 291.63 34.1875Z" fill="#59C0EB"/>
<path d="M221.079 59.5789C222.045 59.5789 222.698 60.1197 223.209 60.8883C221.448 60.4044 219.773 62.0554 218.012 61.0306C219.034 60.5467 220.057 60.0628 221.079 59.5789Z" fill="#30B0E6"/>
<path d="M167.088 304.954C173.99 307.63 181.26 309.11 188.389 311.103C208.668 316.824 228.947 322.375 249.226 328.068C252.464 328.979 255.815 329.463 258.882 331C248.402 330.744 238.007 329.435 227.584 328.581C221.847 328.097 216.109 327.727 210.401 327.271C201.085 326.503 191.798 325.649 182.51 324.909C180.352 324.738 178.193 324.823 176.006 324.766C174.813 324.539 174.387 323.542 173.99 322.631C171.803 317.507 169.445 312.469 167.258 307.317C166.889 306.548 166.52 305.78 167.088 304.954Z" fill="#30B0E6"/>
<path d="M417.308 244.692C415.405 244.777 413.615 244.407 411.94 243.496C404.243 239.312 398.676 233.106 395.126 225.107C394.331 223.286 393.081 221.122 394.899 219.329C396.489 217.763 398.591 218.532 400.465 219.073C407.765 221.179 414.269 224.993 420.858 228.609C424.493 230.573 428.1 232.594 431.196 235.355C434.065 237.888 433.894 239.34 430.6 241.19C426.481 243.525 421.994 244.436 417.308 244.692Z" fill="#F8F8F8"/>
<path d="M341.019 170.083C346.018 170.111 351.017 170.14 356.016 170.225C357.095 170.254 358.288 169.827 359.197 170.823C353.772 170.823 348.347 170.852 342.922 170.823C341.928 170.823 340.849 171.165 340.025 170.282C340.338 170.197 340.679 170.14 341.019 170.083Z" fill="#30B0E6"/>
<path d="M260.813 231.826C260.358 230.317 259.904 228.837 259.421 227.328C261.778 226.161 264.391 226.446 266.891 226.161C272.486 225.535 278.052 224.88 283.591 223.855C285.295 223.542 286.119 223.684 286.119 225.648C285.977 243.468 289.612 260.69 294.071 277.798C294.128 277.997 294.071 278.196 294.071 278.424C293.844 279.62 293.787 280.815 293.304 282.011C290.492 288.985 287.709 295.959 284.897 302.961C284.272 304.499 283.676 306.121 281.631 306.207C278.791 305.694 276.036 304.897 273.309 304.015C272.06 303.303 271.776 302.193 271.861 300.855C272.912 281.071 274.587 261.345 278.024 241.789C278.194 240.878 278.365 239.967 278.478 239.027C278.905 235.925 278.564 235.469 275.383 235.128C271.577 234.701 267.856 233.989 264.079 233.363C262.858 233.163 261.579 233.05 260.813 231.826Z" fill="#597DAE"/>
<path d="M309.181 320.496C307.846 316.227 306.767 311.871 304.864 307.772C307.733 307.26 310.573 306.747 313.442 306.207C313.413 310.306 313.385 314.433 313.328 318.532C312.419 320.155 311.141 321.037 309.181 320.496Z" fill="#FDAB97"/>
<path d="M315.969 271.649C315.912 273.642 315.827 275.634 315.77 277.627C315.088 280.587 315.94 283.633 315.287 286.594C315.6 288.359 315.372 290.124 315.174 291.86C313.924 287.305 314.407 282.609 314.776 278.054C315.174 273.499 315.06 269.002 315.23 264.476C315.259 263.878 315.316 263.309 315.969 262.711C315.969 265.7 315.969 268.66 315.969 271.649Z" fill="#3D5D94"/>
<path d="M314.691 300.769C314.634 301.936 314.606 303.104 314.549 304.299C313.299 301.453 314.265 298.521 314.435 295.646C314.549 297.353 314.606 299.061 314.691 300.769Z" fill="#31538D"/>
<path d="M309.181 320.496C310.573 319.841 311.965 319.187 313.328 318.532C318.866 317.251 324.49 317.137 330.142 317.166C331.136 317.166 332.187 317.479 333.095 316.71C334.317 318.02 336.617 317.365 337.611 319.158C337.214 320.411 336.106 320.752 335.055 321.179C327.727 324.083 320.513 327.299 313.129 330.089C311.851 330.573 310.289 331.797 309.124 329.719C309.408 326.645 308.017 323.57 309.181 320.496Z" fill="#3E5D94"/>
<path d="M269.447 316.71C270.101 316.255 270.782 315.97 271.606 316.027C273.622 315.202 275.468 315.429 277.144 316.853C281.745 318.931 286.602 320.439 290.976 323.001C293.191 324.282 295.605 325.364 296.798 327.869C296.77 328.324 296.542 328.723 296.088 328.723C290.01 328.666 283.875 329.007 278.053 326.702C274.872 323.627 272.231 320.098 269.447 316.71Z" fill="#597DAE"/>
<path d="M309.125 329.691C309.778 330.545 310.516 330.232 311.312 329.919C320.059 326.303 328.835 322.745 337.583 319.158C339.628 320.582 339.344 321.663 337.157 322.574C333.948 323.912 330.767 325.279 327.557 326.645C323.78 329.207 319.548 330.659 315.146 331.655C311.88 333.875 308.841 332.623 305.83 331.086C306.909 330.516 308.727 331.769 309.125 329.691Z" fill="#BABABB"/>
<path d="M278.082 326.673C284.33 327.015 290.522 328.239 296.827 327.84C297.537 328.581 297.168 329.52 297.282 330.345C291.857 329.947 286.432 329.52 280.979 329.121C279.417 329.008 278.735 327.84 278.082 326.673Z" fill="#B9B9BB"/>
<path d="M355.448 164.76C350.535 165.842 345.565 165.045 340.623 165.187C338.776 165.244 336.76 165.87 335.027 164.618L334.999 164.475C339.685 163.479 344.4 164.162 349.115 164.048C351.216 163.992 353.432 163.479 355.477 164.561L355.448 164.76Z" fill="#31007C"/>
<path d="M234.769 136.778C233.889 141.304 233.037 145.83 232.156 150.356C218.58 138.856 209.918 124.424 206.992 106.832C206.083 101.338 205.26 95.6736 207.39 90.1797C209.009 96.556 210.571 102.961 213.411 108.939C218.182 119.044 224.8 127.698 233.292 134.928C233.917 135.44 234.712 135.81 234.769 136.778Z" fill="#30B0E6"/>
<path d="M311.083 160.348C303.244 162.568 295.178 162.653 287.197 161.97C269.645 160.519 254.422 153.573 241.527 141.56C242.521 140.564 243.26 141.589 243.97 141.959C252.86 146.912 262.232 150.442 272.4 151.324C277.456 151.751 282.54 152.349 287.68 151.637C290.009 151.296 292.395 151.58 294.781 151.58C295.633 151.324 296.456 151.666 297.308 151.58C302.222 152.036 307.192 152.093 312.049 153.203C312.759 155.736 312.873 158.156 311.083 160.348Z" fill="#30B0E6"/>
<path d="M311.965 153.545C306.852 153.402 301.769 152.975 296.741 152.093C296.315 151.381 296.94 151.296 297.338 151.068C301.627 150.556 305.915 149.958 310.232 149.588C313.726 149.275 312.476 146.599 312.93 144.72C314.379 142.642 314.635 145.432 315.572 145.403C317.049 146.03 318.128 147.026 318.582 148.62C317.191 151.353 315.004 153.032 311.965 153.545Z" fill="#FDFCF9"/>
<path d="M297.338 151.068C297.14 151.41 296.941 151.751 296.742 152.093C295.975 152.349 295.379 151.893 294.754 151.58C295.464 150.669 296.43 150.954 297.338 151.068Z" fill="#FADC79"/>
<path d="M79.8941 341.561C80.7745 344.664 80.8597 347.767 79.8373 350.841C79.1272 347.767 79.2976 344.664 79.8941 341.561Z" fill="#6CBBF2"/>
<path d="M126.445 355.139C130.024 354.228 133.574 355.452 137.153 355.224C139.311 355.082 141.47 355.31 143.628 355.338C145.077 355.338 145.73 355.651 145.077 357.331C137.778 376.033 115.34 381.441 101.281 371.421C103.44 367.55 104.718 363.28 106.649 359.295C106.99 358.583 107.53 357.729 106.848 356.989C106.025 356.107 105.144 356.818 104.32 357.132C100.202 358.669 96.4816 361.088 92.3633 362.569C85.7741 352.093 86.0013 339.084 92.9314 329.406C100.231 319.187 112.387 314.575 124.457 317.45C127.894 318.276 128.007 318.504 126.332 321.663C124.088 325.848 121.788 329.975 119.515 334.131C118.607 335.014 117.414 334.843 116.306 334.957C111.25 335.384 107.785 338.23 106.223 343.183C104.86 347.482 106.365 352.662 109.802 355.538C113.324 358.498 118.805 359.067 122.895 356.904C124.031 356.278 125.025 355.31 126.445 355.139Z" fill="#FEFEFE"/>
<path d="M146.78 301.168C160.612 310.562 168.82 323.457 170.865 340.166C166.236 339.967 161.606 339.711 157.005 339.625C155.244 339.597 154.534 338.971 154.108 337.234C152.063 328.951 147.689 322.09 140.987 316.824C139.453 315.629 139.254 314.718 140.248 313.038C142.52 309.167 144.622 305.125 146.78 301.168Z" fill="#3A3838"/>
<path d="M126.444 355.139C121.587 359.637 115.367 360.348 110.34 356.99C105.54 353.773 103.552 347.738 105.455 342.244C107.443 336.523 112.726 333.477 119.485 334.132C118.832 336.437 117.611 337.889 115.055 338.601C111.59 339.568 109.431 343.326 109.744 346.742C110.084 350.414 112.584 353.175 116.162 354.114C119.542 354.997 123.092 353.915 126.444 355.139Z" fill="#3A3838"/>
<path d="M92.3623 362.597C96.3101 359.124 101.422 357.843 106.024 355.594C107.387 354.94 108.636 356.477 108.154 357.672C106.336 362.255 104.206 366.696 102.161 371.194C102.076 371.365 101.593 371.365 101.28 371.45C97.361 369.429 94.606 366.269 92.3623 362.597Z" fill="#EAF2F5"/>
<path d="M141.014 328.581C143.031 330.972 144.281 333.761 145.445 336.608C146.127 338.316 146.098 339.198 143.798 339.056C138.913 338.714 133.999 338.515 129.086 338.458C126.16 338.401 127.296 337.234 128.205 335.982C129.995 334.245 132.267 333.306 134.482 332.31C136.783 331.256 138.828 329.805 141.014 328.581Z" fill="#FDFDFE"/>
<path d="M141.015 328.581C140.419 329.349 140.163 330.345 139.084 330.829C135.392 332.395 132.04 334.672 128.206 335.982C130.223 332.082 132.296 328.21 134.256 324.282C134.966 322.887 135.676 322.688 136.755 323.827C138.26 325.364 140.021 326.645 141.015 328.581Z" fill="#EAF2F5"/>
<path d="M383.253 336.494C387.116 333.534 391.603 331.712 395.835 329.406C396.375 330.516 395.75 331.399 395.267 332.281C390.098 341.96 390.353 351.61 395.551 361.203C397.908 365.643 401.345 369.059 405.747 371.507C416.654 377.798 430.854 376.46 439.432 368.319C449.827 358.441 452.326 345.66 446.248 333.391C445.652 332.196 444.999 331.029 444.26 329.89C441.42 326.19 438.239 322.888 433.979 320.838C430.343 318.788 426.367 317.991 422.306 317.536C421.226 317.422 420.005 317.65 419.267 316.54C423.101 314.035 427.077 311.843 431.167 309.822C443.067 313.892 451.929 321.379 456.075 333.42C461.358 348.82 458.319 362.825 446.475 374.012C434.745 385.114 420.601 387.619 405.776 381.328C390.95 375.037 383.253 363.167 382.713 346.913C382.543 343.497 383.026 339.995 383.253 336.494Z" fill="#6AAFEA"/>
<path d="M395.153 362C389.217 352.179 389.217 342.216 394.358 332.111C394.813 331.2 395.324 330.317 395.807 329.406C398.675 327.869 401.544 326.304 404.412 324.766C405.804 325.279 406.429 326.56 406.94 327.727C408.445 331.2 411.03 334.16 411.655 338.031C409.553 341.163 408.559 344.55 408.928 348.393C409.127 350.613 410.717 352.264 410.945 354.428C410.888 354.741 410.859 355.111 410.604 355.253C405.861 357.787 401.231 360.576 396.034 362.142C395.778 362.227 395.466 362.113 395.153 362Z" fill="#FEFEFE"/>
<path d="M419.21 316.568C424.663 316.767 430.002 317.393 434.745 320.468C433.212 325.705 430.826 330.63 428.866 335.697C428.724 336.095 428.298 336.266 427.9 336.409C424.89 335.925 422.021 334.672 418.925 334.587C417.591 333.96 417.108 332.651 416.511 331.484C415.176 328.922 413.955 326.303 412.45 323.827C411.882 322.887 411.2 321.891 411.711 320.638C414.211 319.301 416.71 317.934 419.21 316.568Z" fill="#FEFEFE"/>
<path d="M411.712 320.667C414.07 325.165 416.427 329.634 418.784 334.131C419.892 334.758 420.687 335.668 421.227 336.836C422.221 338.999 423.499 340.992 424.919 342.899C426.964 345.631 426.368 348.933 423.698 350.784C421.284 352.463 417.052 351.808 415.887 348.99C414.354 345.29 412.081 341.902 411.286 337.917C409.014 333.533 406.714 329.15 404.441 324.795C406.856 323.4 409.27 322.033 411.712 320.667Z" fill="#6AAFEA"/>
<path d="M245.562 30.4585C245.704 30.3161 245.846 30.1454 245.988 30.003C251.696 29.9746 257.405 29.9176 263.142 29.8892C263.455 30.0884 263.767 30.2877 264.079 30.4585C257.888 30.4585 251.725 30.4585 245.562 30.4585Z" fill="#3A3838"/>
<path d="M1.16472 123.627C0.994314 123.627 0.795502 123.599 0.625091 123.599C0.596689 122.574 0.539886 121.521 0.568288 120.496C0.625091 114.831 -0.113354 115.657 5.51019 115.571C5.51019 118.076 5.51019 120.553 5.51019 123.058C4.11851 123.798 2.52801 122.83 1.16472 123.627Z" fill="#59C0EB"/>
<path d="M1.16504 123.627C2.47152 122.46 4.06202 123.257 5.4821 123.029C5.51051 123.228 5.51051 123.428 5.51051 123.627C4.06202 123.655 2.61353 123.655 1.16504 123.627Z" fill="#59C0EB"/>
<path d="M72.4814 208.483C72.5098 207.544 72.5382 206.576 72.5667 205.637C89.7213 205.637 106.904 205.694 124.059 205.608C126.303 205.608 127.41 206.092 126.956 208.512C108.779 208.483 90.6301 208.483 72.4814 208.483Z" fill="#FBFAF6"/>
<path d="M248.459 47.7657C247.89 45.4884 246.442 43.5527 246.158 41.1332C245.533 35.7816 247.947 32.4511 253.287 31.7394C254.338 31.1986 255.076 31.711 255.701 32.508C257.149 33.2766 257.036 34.8992 257.689 36.1232C257.717 37.4326 258.74 38.5712 258.229 39.9661C258.967 43.6381 261.893 45.2322 264.79 46.7694C265.784 47.3102 266.891 47.5949 267.971 47.9365C271.918 49.189 271.975 49.189 270.385 53.2026C268.823 57.1309 267.402 61.1161 265.272 64.7882C263.568 67.7202 262.404 67.9479 260.075 65.5283C255.957 61.23 253.258 55.9923 250.418 50.84C249.85 49.7868 249.566 48.5058 248.459 47.7657Z" fill="#F1998B"/>
<path d="M258.229 39.9659C257.661 38.7419 257.547 37.4609 257.689 36.123C257.888 36.4646 258.087 36.8062 258.257 37.1763C260.728 42.2147 261.524 42.3571 265.415 38.5426C266.551 37.4609 267.488 35.7815 269.533 36.8062C266.494 38.3718 264.534 41.0476 262.432 43.6096C260.529 43.0118 259.535 41.3038 258.229 39.9659Z" fill="#3A3838"/>
<path d="M325.796 144.777C330.142 140.166 334.856 139.368 338.719 142.727C341.758 145.375 342.326 148.762 341.105 152.69C342.752 151.409 342.752 151.409 344.201 147.339C346.132 150.47 346.246 153.203 344.343 155.622C342.326 158.156 339.742 158.896 336.646 157.843C336.078 157.643 335.453 157.416 334.885 157.501C330.71 158.099 327.728 156.334 325.569 152.89C323.638 150.129 323.723 147.453 325.796 144.777Z" fill="#3A3838"/>
<path d="M311.965 153.545C314.067 151.837 316.708 150.812 318.299 148.506C320.031 148.705 321.168 149.559 321.366 151.41C321.168 151.78 320.969 152.178 320.798 152.548C319.634 155.993 320.173 158.981 323.184 161.287C323.667 161.657 324.178 162.056 324.036 162.796C320.997 163.28 318.327 161.942 315.516 161.145C314.067 160.746 312.675 160.063 311.085 160.348C311.397 158.099 311.681 155.822 311.965 153.545Z" fill="#F19A8B"/>
<path d="M321.365 151.41C320.343 150.442 319.32 149.474 318.298 148.506C317.389 147.481 316.48 146.428 315.543 145.403C319.036 146.542 322.445 146.001 325.796 144.777C324.83 147.453 324.603 150.157 325.569 152.89C324.007 152.89 322.842 151.723 321.365 151.41Z" fill="#DB6F6E"/>
<path d="M324.036 162.796C319.236 159.722 318.242 156.533 320.798 152.577C320.571 156.448 322.36 158.953 325.939 160.348C327.047 160.775 328.069 161.486 329.148 162.056C327.558 163.081 325.797 162.853 324.036 162.796Z" fill="#35296C"/>
<path d="M334.942 164.02C335.766 163.137 336.845 163.393 337.839 163.393C342.753 163.365 347.695 163.365 352.608 163.393C353.574 163.393 354.682 163.023 355.477 164.048C348.632 164.475 341.787 164.475 334.942 164.02Z" fill="#30B0E6"/>
<path d="M334.971 164.02C341.816 164.02 348.632 164.02 355.477 164.02C355.505 164.191 355.505 164.362 355.477 164.532C348.66 164.504 341.816 164.475 334.999 164.447C334.942 164.333 334.942 164.191 334.971 164.02Z" fill="#30B0E6"/>
<path d="M255.701 32.5081C254.906 32.2519 254.082 31.9957 253.287 31.7395C253.884 30.9709 254.736 31.1417 255.502 31.1702C257.86 31.2556 255.417 32.0811 255.701 32.5081Z" fill="#3A3838"/>
<path d="M276.179 36.0378C274.957 36.0662 273.708 36.0662 272.486 36.0947C273.708 35.1838 274.929 35.2123 276.179 36.0378Z" fill="#3A3838"/>
<path d="M291.686 33.0202C291.203 33.7603 290.351 33.5611 289.669 33.7319C288.704 33.6749 287.71 33.618 286.744 33.5611C288.278 32.4509 290.039 33.248 291.686 33.0202Z" fill="#59C0EB"/>
<path d="M315.288 286.593C315.458 283.605 314.634 280.559 315.771 277.627C315.771 280.616 316.026 283.633 315.288 286.593Z" fill="#3E5D93"/>
<path d="M277.145 316.853C275.299 316.568 273.453 316.312 271.606 316.027C272.316 311.9 273.055 307.772 273.765 303.616C276.605 303.872 279.247 304.868 281.973 305.666C280.354 309.395 278.764 313.124 277.145 316.853Z" fill="#DC6F6E"/>
<path d="M444.601 329.178C452.98 340.565 451.985 356.506 442.272 366.753C432.303 377.286 416.483 379.477 405.066 371.934C404.697 371.08 405.066 370.311 405.407 369.571C407.281 365.33 409.212 361.089 410.803 356.705C411.03 356.107 411.286 355.566 412.053 355.538C414.779 356.306 416.995 358.242 420.119 358.214C429.292 358.071 434.774 349.475 430.855 341.106C430.372 340.081 429.633 339.198 429.463 338.031C429.463 337.12 429.946 336.437 430.684 336.039C435.257 333.676 439.744 331.057 444.601 329.178Z" fill="#FEFEFE"/>
<path d="M411.797 355.851C410.064 361.43 407.536 366.668 405.037 371.934C400.777 369.6 397.454 366.326 395.153 362.028C400.294 359.551 405.463 357.075 410.604 354.598C411.598 354.456 412.052 354.826 411.797 355.851Z" fill="#EAF2F5"/>
<path d="M444.601 329.178C441.391 332.053 437.216 333.164 433.609 335.299C432.303 336.067 430.627 336.266 429.832 337.803C428.44 338.031 427.929 337.263 427.815 336.01C429.548 331.769 431.309 327.527 433.041 323.258C433.467 322.233 433.808 321.123 434.774 320.439C438.892 322.404 441.988 325.506 444.601 329.178Z" fill="#EAF2F5"/>
<path d="M427.788 336.039C428.469 336.636 429.123 337.234 429.804 337.832C436.734 346.685 431.48 356.591 423.954 358.612C419.409 359.836 415.433 358.669 411.798 355.851C411.4 355.424 411.002 355.025 410.605 354.598C406.77 348.08 406.969 343.098 411.286 337.917C413.047 340.906 415.064 343.753 415.774 347.283C416.2 349.389 417.705 350.67 419.892 350.926C421.909 351.182 423.556 350.499 424.664 348.763C425.771 347.026 425.998 345.005 424.635 343.554C421.994 340.792 420.801 337.234 418.784 334.131C422.079 333.42 424.976 334.558 427.788 336.039Z" fill="#3A3838"/>
<path d="M82.8765 148.392C82.0813 147.595 80.9452 147.083 79.7239 147.083C77.253 147.083 75.2648 149.075 75.2648 151.552C75.2648 152.349 75.4637 153.089 75.8329 153.715C75.8329 153.715 75.8329 153.744 75.8613 153.744C75.9465 153.886 76.0601 154.028 76.1453 154.17C77.537 156.391 78.3322 159.01 78.3322 161.799C78.3322 169.798 71.8566 176.288 63.8757 176.288C63.6769 176.288 63.4781 176.288 63.2793 176.288C65.523 177.342 68.0224 177.939 70.6638 177.939C80.2067 177.939 87.9604 170.168 87.9604 160.604C87.9036 155.85 85.9723 151.523 82.8765 148.392Z" fill="#3A3A3A"/>
<path d="M66.4035 164.304C68.8744 164.304 70.8626 162.312 70.8626 159.835C70.8626 159.038 70.6637 158.298 70.2945 157.672C70.2945 157.672 70.2945 157.643 70.2661 157.643C70.1809 157.501 70.0673 157.359 69.9821 157.216C68.5904 154.996 67.7952 152.377 67.7952 149.588C67.7952 141.589 74.2708 135.099 82.2516 135.099C82.4505 135.099 82.6493 135.099 82.8481 135.099C80.6044 134.045 78.105 133.448 75.4636 133.448C65.9207 133.448 58.167 141.219 58.167 150.783C58.167 155.565 60.0983 159.892 63.1941 163.023C64.0461 163.82 65.1538 164.304 66.4035 164.304Z" fill="#3A3A3A"/>
</svg>
