<svg width="500" height="380" viewBox="0 0 500 380" fill="none" xmlns="http://www.w3.org/2000/svg">
<g clip-path="url(#clip0)">
<path opacity="0.1" d="M493.639 109.614C493.552 110.022 493.469 110.43 493.373 110.834C490.369 124.707 485.459 138.075 478.159 150.353C477.917 150.761 477.674 151.169 477.427 151.577C472.613 159.476 466.853 166.756 460.276 173.256C456.639 176.851 452.673 180.268 447.956 182.731C441.348 186.189 433.622 187.592 426.029 188.739C418.143 189.936 410.147 190.936 402.173 192.013C399.34 192.389 396.524 192.788 393.724 193.21C386.021 194.352 378.373 195.673 370.908 197.425C361.68 199.585 352.736 202.415 344.286 206.395C343.611 206.701 342.944 207.025 342.285 207.368C341.625 207.698 340.961 208.033 340.311 208.372C339.661 208.711 339.02 209.051 338.383 209.399C338.053 209.578 337.724 209.757 337.398 209.945C337.073 210.133 336.753 210.298 336.437 210.482C335.484 211.014 334.55 211.559 333.616 212.11L333.579 212.133C332.961 212.495 332.352 212.867 331.747 213.238C328.294 215.339 324.914 217.531 321.534 219.737L319.409 221.112L316.117 223.245C315.475 223.662 314.821 224.08 314.175 224.492C313.717 224.795 313.259 225.098 312.76 225.41C310.36 226.923 307.928 228.409 305.432 229.826C304.841 230.166 304.246 230.505 303.646 230.835C298.603 233.652 293.33 236.034 287.883 237.953L287.81 237.98C285.069 238.938 282.274 239.728 279.438 240.347C277.803 240.705 276.163 240.998 274.506 241.223C270.074 241.852 265.581 241.915 261.133 241.411C252.4 240.397 244.216 237.04 235.487 235.907C217.516 233.614 200.063 241.003 183.164 246.79C179.009 248.212 174.823 249.544 170.607 250.785C167.804 251.615 164.992 252.399 162.157 253.156C144.789 257.751 127.063 260.864 109.17 262.461C101.69 263.195 94.1659 263.362 86.661 262.961C83.8079 262.787 80.9868 262.503 78.2161 262.044C68.7362 260.576 59.8974 257.499 52.7623 251.863C46.9186 247.235 42.7374 241.204 39.5545 234.894C36.2963 228.455 33.9959 221.573 32.7262 214.467C32.5522 213.499 32.3964 212.527 32.2682 211.555C32.0392 209.892 31.8683 208.219 31.7553 206.538C31.1391 197.574 32.2079 188.575 34.9061 180.007C37.9287 170.412 42.9663 161.203 45.1829 151.536C45.2745 151.126 45.3615 150.718 45.4439 150.311C45.7467 148.843 45.9714 147.36 46.1172 145.867C47.2483 133.989 42.9114 122.409 39.5087 110.792C39.3896 110.389 39.2705 109.981 39.156 109.572C38.7897 108.282 38.4386 106.994 38.1027 105.706C34.9519 93.4246 34.0772 80.2761 36.8845 68.0173C36.9715 67.6091 37.0769 67.201 37.1776 66.7974C39.057 59.0485 42.5913 51.7995 47.5369 45.5497C52.7943 38.9457 59.6959 33.4468 67.0692 28.6176C70.6627 26.2634 74.3783 24.0636 78.2161 22.0181C80.9639 20.5506 83.7789 19.161 86.661 17.8493C109.766 7.30116 136.122 2.1509 162.184 3.28827C163.558 3.34789 164.932 3.42127 166.306 3.52216C167.68 3.62306 169.182 3.7423 170.62 3.8753C187.409 5.50797 203.745 9.44748 219.966 13.7539C225.402 15.1985 230.829 16.6799 236.252 18.1337C238.665 18.7757 241.074 19.4178 243.488 20.0415C255.308 23.1005 267.302 25.8705 279.447 27.9389C282.259 28.425 285.074 28.8683 287.892 29.2689C297.676 30.7089 307.54 31.5466 317.426 31.7775C321.27 31.8539 325.116 31.8203 328.963 31.6766C330.904 31.6063 332.848 31.5008 334.793 31.3601C354.874 29.943 374.283 25.2009 393.724 20.7707C396.536 20.1286 399.352 19.4958 402.173 18.872C405.874 18.0557 409.574 17.2669 413.293 16.5377C436.434 11.9836 457.061 14.6023 478.576 23.9994C483.467 26.1319 488.354 28.7093 491.349 32.7131C494.344 36.7168 495.095 41.6331 495.654 46.3798C496.446 53.1398 496.963 59.9869 497.16 66.8708C497.16 67.2744 497.16 67.6825 497.188 68.0907C497.499 81.9959 496.464 96.0342 493.639 109.614Z" fill="#00B0FF"/>
<path opacity="0.1" d="M340.137 150.353H338.626V150.894V151.577H340.339L340.137 150.353ZM322.996 150.353C322.993 150.363 322.993 150.374 322.996 150.385C322.954 150.72 322.908 151.054 322.863 151.394V151.485V151.577H335.961V151.504L336.877 150.353H322.996ZM287.892 150.353V110.834H302.959C302.799 110.728 302.634 110.618 302.465 110.517L302.245 110.375L301.961 110.201C301.796 110.105 301.631 110.008 301.457 109.917C301.283 109.825 301.178 109.761 301.031 109.683L300.931 109.628H300.908H287.892V107.449L287.54 107.587L287.169 107.761H287.141L287.063 107.802L286.83 107.926L286.596 108.05C286.367 108.174 286.138 108.311 285.909 108.454L285.689 108.6L285.232 108.894C284.641 109.288 284.059 109.701 283.459 110.086C283.308 110.183 283.157 110.279 283.001 110.366C282.676 110.559 282.342 110.742 281.998 110.907C281.852 110.981 281.71 111.045 281.54 111.104L281.293 111.201L281.064 111.279C280.527 111.466 279.975 111.61 279.415 111.71V150.344H256.824C256.824 150.389 256.856 150.426 256.87 150.472C256.993 150.839 257.117 151.201 257.236 151.568H279.447V193.926C279.563 193.926 279.678 193.926 279.791 193.926L280.189 193.949L280.908 193.99L282.058 194.128L282.584 194.178L283.157 194.238H283.244L284.256 194.361L284.471 194.389L284.961 194.458L285.662 194.559L287.343 194.485L287.572 194.527C287.663 194.527 287.759 194.554 287.856 194.572V151.577H322.817V151.485V151.394C322.863 151.054 322.909 150.72 322.95 150.385C322.947 150.374 322.947 150.363 322.95 150.353H287.892ZM340.137 150.353H338.626V150.894V151.577H340.339L340.137 150.353ZM322.052 150.353C321.997 150.761 321.947 151.169 321.892 151.577H336.496L337.49 150.353H322.052ZM287.892 150.353V110.834H302.959C302.799 110.728 302.634 110.618 302.465 110.517L302.245 110.375L301.961 110.201C301.796 110.105 301.631 110.008 301.457 109.917C301.283 109.825 301.178 109.761 301.031 109.683L300.931 109.628H300.899H287.892V107.449L287.54 107.587L287.169 107.761H287.141L287.063 107.802L286.83 107.926L286.596 108.05C286.367 108.174 286.138 108.311 285.909 108.454L285.689 108.6L285.232 108.894C284.641 109.288 284.059 109.701 283.459 110.086C283.308 110.183 283.157 110.279 283.001 110.366C282.676 110.559 282.342 110.742 281.998 110.907C281.852 110.981 281.71 111.045 281.54 111.104L281.293 111.201L281.064 111.279C280.527 111.466 279.975 111.61 279.415 111.71V150.344H256.824C256.824 150.389 256.856 150.426 256.87 150.472C256.993 150.834 257.121 151.201 257.241 151.568H279.447V193.921H279.791L280.189 193.944L280.908 193.985L282.058 194.128L282.584 194.178L283.157 194.238H283.244L284.256 194.361L284.471 194.389L284.961 194.458L285.662 194.559L287.343 194.485L287.572 194.527C287.663 194.527 287.759 194.554 287.856 194.572V151.577H321.901C321.956 151.169 322.006 150.761 322.061 150.353H287.892ZM402.174 68.0586H497.188C497.188 67.6505 497.188 67.2423 497.161 66.8387H402.174V18.8583C399.352 19.4698 396.536 20.1027 393.724 20.757V66.8387H290.388L290.127 66.6048L290.521 66.2563L328.958 31.6675C325.111 31.8142 321.266 31.8479 317.422 31.7684L287.888 58.3406V29.2689C285.067 28.8684 282.252 28.4251 279.443 27.9389V57.0014L236.261 18.1337C230.839 16.6799 225.412 15.1986 219.976 13.7539L278.701 66.6048L278.44 66.8387H170.634V3.91662C169.196 3.78209 167.758 3.66438 166.32 3.56348C164.946 3.46259 163.572 3.38921 162.198 3.32959V66.8387H86.6613V17.8906C83.8097 19.1992 80.9947 20.5888 78.2164 22.0595V66.8387H37.1779C37.0771 67.2423 36.9718 67.6505 36.8848 68.0586H78.2164V109.614H39.1563C39.2708 110.022 39.3899 110.43 39.5089 110.834H78.2164V150.353H45.4442C45.3617 150.759 45.2747 151.167 45.1831 151.577H78.2164V262.072C80.9642 262.498 83.8081 262.796 86.6613 262.989V151.577H162.185V253.174C165.02 252.418 167.831 251.633 170.634 250.803V151.577H279.447V240.342C282.283 239.723 285.079 238.933 287.819 237.976L287.892 237.948V151.577H393.724V193.21C396.533 192.798 399.349 192.402 402.174 192.023V151.577H477.427C477.674 151.169 477.917 150.761 478.16 150.353H402.174V110.834H493.373C493.469 110.43 493.552 110.022 493.639 109.614H402.174V68.0586ZM86.6613 68.0586H162.185V109.614H86.6613V68.0586ZM86.6613 150.353V110.834H162.185V150.353H86.6613ZM170.634 68.0586H279.447V109.614H170.634V68.0586ZM170.634 150.353V110.834H279.447V150.353H170.634ZM393.724 150.353H287.892V110.834H393.724V150.353ZM393.724 109.614H287.892V69.1731L289.376 68.0586H393.724V109.614ZM322.996 150.353C322.993 150.363 322.993 150.374 322.996 150.385C322.954 150.72 322.908 151.054 322.863 151.394V151.485V151.577H335.961V151.504L336.877 150.353H322.996ZM340.137 150.353H338.626V150.894V151.577H340.339L340.137 150.353ZM287.892 150.353V110.834H302.959C302.799 110.728 302.634 110.618 302.465 110.517L302.245 110.375L301.961 110.201C301.796 110.105 301.631 110.008 301.457 109.917C301.283 109.825 301.178 109.761 301.031 109.683L300.931 109.628H300.908H287.892V107.449L287.54 107.587L287.169 107.761H287.141L287.063 107.802L286.83 107.926L286.596 108.05C286.367 108.174 286.138 108.311 285.909 108.454L285.689 108.6L285.232 108.894C284.641 109.288 284.059 109.701 283.459 110.086C283.308 110.183 283.157 110.279 283.001 110.366C282.676 110.559 282.342 110.742 281.998 110.907C281.852 110.981 281.71 111.045 281.54 111.104L281.293 111.201L281.064 111.279C280.527 111.466 279.975 111.61 279.415 111.71V150.344H256.824C256.824 150.389 256.856 150.426 256.87 150.472C256.993 150.839 257.117 151.201 257.236 151.568H279.447V193.926C279.563 193.926 279.678 193.926 279.791 193.926L280.189 193.949L280.908 193.99L282.058 194.128L282.584 194.178L283.157 194.238H283.244L284.256 194.361L284.471 194.389L284.961 194.458L285.662 194.559L287.343 194.485L287.572 194.527C287.663 194.527 287.759 194.554 287.856 194.572V151.577H322.817V151.485V151.394C322.863 151.054 322.909 150.72 322.95 150.385C322.947 150.374 322.947 150.363 322.95 150.353H287.892Z" fill="#00B0FF"/>
<path opacity="0.1" d="M122.974 39.4502H123.629C123.413 39.3588 123.225 39.2117 123.084 39.024C122.943 38.8364 122.855 38.6147 122.827 38.3816C122.827 37.5378 124.087 36.8499 125.625 36.8499H145.208C146.747 36.8499 148.002 37.5378 148.002 38.3816C148.002 39.2209 146.747 39.9134 145.208 39.9134H144.553C144.769 40.0033 144.957 40.1493 145.098 40.3363C145.239 40.5234 145.328 40.7447 145.355 40.9774C145.355 41.6974 144.439 42.3028 143.216 42.4633H148.854C150.388 42.4633 151.647 43.1512 151.647 43.9951C151.647 44.8389 150.388 45.5269 148.854 45.5269H129.266C127.732 45.5269 126.473 44.8344 126.473 43.9951C126.473 43.2751 127.389 42.6743 128.611 42.5092H122.974C121.435 42.5092 120.18 41.8212 120.18 40.9774C120.18 40.1335 121.435 39.4502 122.974 39.4502Z" fill="#00B0FF"/>
<path opacity="0.1" d="M335.214 54.0204H335.869C335.654 53.9283 335.467 53.781 335.327 53.5934C335.187 53.4057 335.099 53.1844 335.072 52.9518C335.072 52.108 336.327 51.42 337.866 51.42H357.448C358.987 51.42 360.246 52.108 360.246 52.9518C360.246 53.7911 358.987 54.479 357.448 54.479H356.798C357.013 54.5711 357.2 54.7184 357.34 54.906C357.48 55.0937 357.568 55.315 357.595 55.5476C357.595 56.2676 356.679 56.873 355.456 57.0335H361.094C362.633 57.0335 363.887 57.7214 363.887 58.5653C363.887 59.4091 362.633 60.097 361.094 60.097H341.511C339.972 60.097 338.713 59.4045 338.713 58.5653C338.713 57.8452 339.629 57.2399 340.852 57.0794H335.214C333.68 57.0794 332.42 56.3914 332.42 55.5476C332.42 54.7037 333.68 54.0204 335.214 54.0204Z" fill="#00B0FF"/>
<path opacity="0.1" d="M92.9173 116.374H93.5676C93.3524 116.282 93.1652 116.135 93.0252 115.947C92.8852 115.759 92.7974 115.538 92.7708 115.305C92.7708 114.466 94.0302 113.773 95.5644 113.773H115.152C116.686 113.773 117.945 114.466 117.945 115.305C117.945 116.149 116.686 116.837 115.152 116.837H114.497C114.712 116.927 114.9 117.073 115.04 117.26C115.18 117.447 115.268 117.669 115.294 117.901C115.294 118.621 114.378 119.226 113.155 119.387H118.792C120.331 119.387 121.591 120.079 121.591 120.919C121.591 121.758 120.331 122.45 118.792 122.45H99.2281C97.6893 122.45 96.4345 121.763 96.4345 120.919C96.4345 120.203 97.3505 119.598 98.5732 119.433H92.9173C91.3786 119.433 90.1191 118.745 90.1191 117.901C90.1191 117.057 91.3969 116.374 92.9173 116.374Z" fill="#00B0FF"/>
<path opacity="0.1" d="M461.651 279.803C464.94 263.683 424.663 241.827 371.69 230.985C318.716 220.144 273.106 224.424 269.816 240.544C266.526 256.665 306.803 278.521 359.777 289.362C412.75 300.203 458.361 295.924 461.651 279.803Z" fill="#00B0FF"/>
<path d="M354.673 176.512C354.673 176.512 359.88 150.917 379.76 153.288C379.76 153.288 393.499 154.233 396.325 163.24V183.148L354.673 176.512Z" fill="#3A3768"/>
<path d="M463.545 185.996L286.509 171.298L263.789 176.04L265.209 207.799L266.757 207.987L268.52 255.678L442.241 286.961L460.706 271.317V219.617L463.069 218.228L463.545 185.996Z" fill="#D48A9B"/>
<path opacity="0.05" d="M463.784 185.996L463.308 218.228L444.137 227.235L443.899 193.577L463.784 185.996Z" fill="black"/>
<path opacity="0.05" d="M460.706 219.65L460.94 270.372L442.479 286.016L443.665 227.235L460.706 219.65Z" fill="black"/>
<path opacity="0.05" d="M266.995 209.886L443.807 231.491L443.899 227.391L266.862 208.271L266.995 209.886Z" fill="black"/>
<path opacity="0.05" d="M460.706 221.512V219.65L443.189 227.391V231.5L460.706 221.512Z" fill="black"/>
<path d="M263.551 176.04L286.271 171.298L463.308 185.996L443.427 193.577L263.551 176.04Z" fill="#EFC6CD"/>
<path opacity="0.1" d="M444.449 186.909L453.136 187.478L438.738 191.793L431.406 191.266L444.449 186.909Z" fill="black"/>
<path d="M444.449 186.528L453.136 187.097L438.738 191.417L431.406 190.885L444.449 186.528Z" fill="white"/>
<path d="M443.409 187.505C443.752 187.358 444.114 187.638 444.48 187.707C444.691 187.748 444.906 187.707 445.117 187.748C445.543 187.803 445.964 188.088 446.372 187.945" fill="#D3DAE1"/>
<path d="M442.96 187.767C443.299 187.62 443.665 187.895 444.032 187.968C444.242 188.005 444.457 187.968 444.668 188.005C445.094 188.065 445.515 188.349 445.923 188.207" fill="#D3DAE1"/>
<path d="M441.925 188.289C442.268 188.143 442.635 188.418 443.001 188.487C443.207 188.528 443.427 188.487 443.633 188.528C444.064 188.587 444.485 188.872 444.888 188.725" fill="#D3DAE1"/>
<path opacity="0.1" d="M406.895 182.625L415.583 183.199L401.184 187.514L393.852 186.982L406.895 182.625Z" fill="black"/>
<path d="M406.895 182.249L415.583 182.818L401.184 187.134L393.852 186.606L406.895 182.249Z" fill="white"/>
<path d="M405.855 183.226C406.199 183.08 406.561 183.355 406.927 183.428C407.138 183.465 407.353 183.428 407.564 183.465C407.99 183.524 408.411 183.809 408.819 183.667" fill="#D3DAE1"/>
<path d="M405.407 183.488C405.746 183.341 406.112 183.616 406.478 183.685C406.689 183.726 406.904 183.685 407.115 183.726C407.541 183.786 407.962 184.07 408.37 183.923" fill="#D3DAE1"/>
<path d="M404.372 184.006C404.715 183.859 405.081 184.139 405.448 184.208C405.654 184.249 405.874 184.208 406.08 184.249C406.51 184.304 406.932 184.593 407.335 184.446" fill="#D3DAE1"/>
<path opacity="0.1" d="M424.907 184.767L433.599 185.336L419.201 189.656L411.864 189.124L424.907 184.767Z" fill="black"/>
<path d="M424.907 184.391L433.599 184.96L419.201 189.275L411.864 188.743L424.907 184.391Z" fill="white"/>
<path d="M423.868 185.368C424.211 185.221 424.578 185.496 424.944 185.565C425.15 185.606 425.365 185.565 425.576 185.606C426.002 185.661 426.428 185.95 426.831 185.804" fill="#D3DAE1"/>
<path d="M423.418 185.625C423.762 185.478 424.128 185.758 424.495 185.827C424.701 185.868 424.916 185.827 425.127 185.868C425.553 185.923 425.979 186.212 426.382 186.065" fill="#D3DAE1"/>
<path d="M422.388 186.148C422.727 186.001 423.093 186.276 423.46 186.349C423.671 186.386 423.886 186.349 424.096 186.386C424.522 186.446 424.944 186.73 425.351 186.588" fill="#D3DAE1"/>
<path opacity="0.1" d="M228.215 362.939C279.428 362.939 320.944 354.381 320.944 343.824C320.944 333.267 279.428 324.709 228.215 324.709C177.002 324.709 135.485 333.267 135.485 343.824C135.485 354.381 177.002 362.939 228.215 362.939Z" fill="#00B0FF"/>
<path d="M329.76 187.29C328.771 178.585 324.855 170.279 324.855 170.279L325.153 167.344C325.153 167.344 325.217 165.877 325.121 163.675C325.131 162.301 325.311 160.933 325.656 159.603C326.458 157.058 324.653 153.93 324.452 153.641C324.25 153.352 324.553 147.771 322.748 145.033C320.944 142.295 308.927 137.204 308.927 137.204C308.927 137.204 308.281 135.851 307.37 134.269L307.452 134.108C306.706 132.754 305.782 131.506 304.704 130.398C303.967 129.609 303.257 129.16 302.685 129.38C302.452 128.619 302.274 127.842 302.153 127.055C302.273 127.087 302.396 127.119 302.515 127.142C303.011 127.257 303.526 127.27 304.027 127.179C305.144 126.926 305.886 125.922 306.509 124.977C309.614 120.254 312.288 115.071 312.833 109.481C312.98 108.34 312.925 107.182 312.673 106.059C312.415 105.187 312.056 104.348 311.601 103.56C310.799 101.943 309.782 100.442 308.579 99.0977C306.44 96.8413 303.491 95.4609 300.459 94.6445C297.044 93.7248 293.485 93.4587 289.972 93.8603C289.056 93.9658 288.14 94.1171 287.224 94.1767C286.062 94.228 284.898 94.2081 283.739 94.1171L277.744 93.7686L277.716 93.6768L276.718 93.6172C276.324 94.4015 276.718 95.3324 277.208 96.0662C277.698 96.8 278.261 97.5659 278.22 98.4327C278.179 99.2995 277.551 99.9966 277.061 100.726C276.571 101.455 276.2 102.409 276.69 103.124C276.759 103.223 276.841 103.313 276.933 103.39C277.451 103.927 278.353 103.987 279.136 103.977H279.273C277.301 106.579 276.235 109.755 276.237 113.021C276.25 115.812 277.03 118.546 278.492 120.922C279.953 123.299 282.039 125.227 284.522 126.495C284.609 126.794 284.696 127.101 284.778 127.413C285.686 130.634 286.012 133.992 285.74 137.328L285.635 137.557L285.57 137.314C285.57 137.314 278.509 142.111 276.411 143.382C274.314 144.652 272.207 148.958 272.106 150.132C272.005 151.307 268.699 169.014 268.699 169.014C268.027 170.797 267.473 172.624 267.041 174.48L262.823 178.191C262.823 178.191 254.122 178.975 251.603 178.388L251.676 178.874C249.455 178.366 247.193 178.059 244.917 177.957C243.674 177.797 242.41 177.966 241.253 178.447L241.166 178.489L241.097 178.521C239.771 178.702 238.477 179.067 237.25 179.603C237.104 179.663 236.971 179.722 236.843 179.782L236.87 179.181L227.454 178.695L222.646 177.718C222.646 177.718 220.942 176.342 219.939 176.544C218.936 176.746 216.834 175.37 216.834 175.37C216.354 174.994 215.835 174.671 215.286 174.407C215.126 173.297 215.025 172.623 215.025 172.623C215.025 172.623 211.283 157.755 208.481 149.013C206.603 143.175 203.901 140.3 202.307 139.048C201.597 137.809 201.13 137.011 201.13 137.011C200.823 135.938 199.138 133.521 198.708 133.462C198.639 133.352 198.589 133.297 198.561 133.297C198.469 133.287 198.376 133.301 198.291 133.338C197.503 129.412 197.045 124.491 198.25 120.203C199.898 118.846 201.227 117.141 202.141 115.21C203.055 113.278 203.531 111.168 203.535 109.031C203.535 108.967 203.535 108.903 203.535 108.839C203.535 108.774 203.535 108.706 203.535 108.641C203.534 105.233 202.328 101.935 200.132 99.3316L199.976 99.1573C200.018 99.1277 200.058 99.0956 200.095 99.061C200.439 98.7815 200.702 98.4139 200.854 97.9973C201.006 97.5807 201.043 97.1305 200.961 96.6945C200.755 95.814 200.068 95.1215 199.715 94.2868C199.503 93.6443 199.334 92.9886 199.207 92.3239C198.937 91.3799 198.442 90.5158 197.764 89.8061L197.833 89.9896C196.038 87.9671 192.951 86.9627 190.171 87.4122C188.106 87.7424 186.182 88.7054 184.108 89.0035C182.619 89.2145 181.103 89.0769 179.606 89.2283C178.216 89.3713 176.864 89.7628 175.612 90.384C175.285 90.5233 174.995 90.7368 174.765 91.0077C174.552 91.3706 174.409 91.7705 174.344 92.1863C173.835 94.0437 172.223 95.3691 171.056 96.9193C169.722 98.6903 168.949 100.822 168.839 103.037C168.793 103.6 168.848 104.167 168.999 104.711C169.1 105.037 169.256 105.344 169.329 105.674C169.558 106.683 169.031 107.688 168.775 108.687C168.452 109.963 168.566 111.31 169.1 112.512C170.909 116.566 176.849 117.919 178.085 122.175C179.031 122.611 180.031 122.919 181.058 123.092C181.14 123.514 181.213 123.941 181.273 124.372C181.245 124.384 181.219 124.399 181.195 124.418C179.592 125.982 179.194 129.004 179.194 129.004L179.001 129.16C178.346 129.701 176.107 131.517 174.083 132.916C171.678 134.581 167.671 140.158 164.868 141.822C162.066 143.487 159.758 153.746 160.362 157.475C160.967 161.203 163.467 171.66 162.464 175.476C161.461 179.291 163.966 196.705 163.966 196.705C165.647 197.026 167.292 197.514 168.876 198.163L168.825 198.925L168.674 201.218C168.674 201.218 164.136 217.655 165.871 230.308C167.607 242.961 165.07 244.263 165.07 244.263C165.07 244.263 165.601 249.872 164.268 251.831C162.936 253.789 162.666 258.091 162.666 258.091C162.666 258.091 162.533 267.745 162.798 270.473C163.064 273.202 163.197 278.173 162.263 279.348C161.328 280.522 159.593 288.213 159.725 290.561C159.858 292.909 156.387 298.261 158.255 305.172C160.124 312.084 152.76 312.217 152.76 312.217C152.76 312.217 153.699 322.765 155.7 325.782L155.993 326.213C155.943 326.388 155.892 326.571 155.837 326.768C155.082 329.52 154.047 333.863 154.766 334.913C155.833 336.482 156.369 336.216 156.369 336.216L156.767 343.26C156.767 343.26 164.781 350.043 170.927 349.786C177.073 349.53 175.869 343.26 175.869 343.26L170.634 329.667L170.456 329.208L176.272 318.201C176.272 318.201 177.875 313.377 178.273 311.68C178.672 309.983 180.847 303.971 180.847 303.971C180.847 303.971 186.343 290.928 186.457 289.359C186.572 287.791 186.993 279.32 188.06 277.619C189.127 275.917 192.067 266.153 192.067 266.153L192.14 266.217C192.639 266.708 192.995 267.325 193.171 268.003C193.347 268.681 193.336 269.393 193.139 270.065C192.466 272.542 192.869 277.628 192.869 277.628C192.869 277.628 192.603 281.934 192.067 284.154C191.531 286.374 191.403 304.503 192.337 308.804C193.084 312.249 193.061 318.697 193.024 321.137C192.397 323.728 191.847 326.947 192.869 327.328C194.609 327.984 203.425 327.851 203.425 327.851C203.425 327.851 207.162 326.544 212.241 331.112C217.319 335.679 232.941 329.809 232.941 329.809C232.941 329.809 237.749 328.502 228.265 324.723C221.647 322.086 217.374 320.329 214.581 318.449C214.645 318.325 214.714 318.201 214.773 318.068C214.773 318.068 210.899 314.4 214.105 307.896C217.31 301.393 217.178 295.894 217.178 295.894L217.713 273.977L216.11 244.883L214.869 214.348L215.089 214.275C215.3 219.888 216.394 233.252 222.124 230.661C229.337 227.4 223.191 218.92 223.191 218.92L219.953 212.601L220.919 212.27L217.297 200.548C216.949 198.26 216.903 195.937 217.159 193.637C217.231 192.291 217.203 190.942 217.077 189.601C221.821 188.771 226.364 187.89 227.18 188.092C228.141 188.326 233.522 188.372 235.638 188.381C234.947 188.922 234.393 189.459 234.393 189.459L243.007 195.265C243.007 195.265 245.929 193.664 246.538 191.967C247.137 191.816 247.691 191.52 248.15 191.105C248.241 193.109 248.773 195.279 250.623 195.329C251.086 195.339 251.545 195.248 251.969 195.063L266.056 192.27L264.847 199.833L265.69 201.332C265.264 207.712 264.774 214.485 264.344 220.443L264.147 221.745L264.247 221.768C263.579 230.941 263.043 237.889 263.043 237.889C263.832 236.383 265.056 235.151 266.556 234.353L266.647 247.964C266.647 247.964 267.352 269.487 267.352 272.422C267.352 275.358 267.449 281.911 267.449 281.911C267.449 281.911 268.955 289.932 269.853 292.574C270.751 295.216 271.456 307.25 271.456 307.25C271.456 307.25 273.562 310.575 272.66 311.836C271.758 313.097 276.168 315.844 276.168 315.844C276.168 315.844 273.361 319.66 273.16 322.205C273.137 322.499 273.425 322.811 273.947 323.122C273.782 323.255 273.613 323.388 273.425 323.517C272.125 324.388 270.219 324.994 267.352 324.746C259.535 324.058 254.026 331.3 258.834 332.767C263.643 334.235 278.069 334.528 278.069 334.528C278.069 334.528 282.438 331.799 285.854 333.029C285.804 335.899 285.946 338.532 285.969 338.88L285.928 338.913C283.885 340.747 279.974 343.902 276.155 345.191C270.659 347.048 269.441 354.583 276.553 355.56C283.665 356.537 294.084 354.386 294.084 354.386C294.084 354.386 299.493 350.378 303.601 349.497C307.709 348.617 311.217 346.659 310.516 344.31C310.058 342.811 308.881 338.88 308.084 336.239C308.038 336.08 307.993 335.927 307.947 335.78C308.07 335.505 308.194 335.221 308.309 334.927C308.309 334.927 306.206 323.971 307.91 321.233C309.614 318.495 308.712 291.097 308.712 291.097C308.712 291.097 305.803 284.154 307.31 279.948C308.817 275.743 304.906 269.772 304.906 269.772C304.906 269.772 305.332 257.806 306.477 251.138C306.529 250.854 306.579 250.579 306.628 250.313C308.545 249.743 310.413 249.02 312.215 248.152C312.215 248.152 313.218 233.082 313.818 229.661C313.877 229.34 313.96 228.822 314.061 228.148L314.519 225.731L315.059 222.979L316.891 213.6L320.197 209.317L328.716 200.603C328.716 200.603 330.763 195.999 329.76 187.29ZM198.396 133.48L198.332 133.526C198.322 133.493 198.315 133.459 198.309 133.425C198.336 133.447 198.365 133.465 198.396 133.48ZM282.557 144.161L282.227 144.881L283.432 143.68L281.797 145.514L282.346 144.359L282.557 144.161ZM274.424 160.993C274.107 161.832 273.769 162.74 273.416 163.685L274.062 161.754L274.424 160.993Z" fill="url(#paint0_linear)"/>
<path d="M248.14 188.432C248.14 188.432 247.018 195.912 250.385 196.008C253.751 196.104 255.999 190.239 255.999 190.239L254.625 185.547L248.14 188.432Z" fill="#585B8A"/>
<path opacity="0.2" d="M248.14 188.432C248.14 188.432 247.018 195.912 250.385 196.008C253.751 196.104 255.999 190.239 255.999 190.239L254.625 185.547L248.14 188.432Z" fill="black"/>
<path d="M172.745 350.341C166.755 350.603 158.942 343.824 158.942 343.824L158.553 336.785C158.553 336.785 158.035 337.046 156.991 335.482C156.29 334.432 157.298 330.08 158.035 327.342C158.392 326.003 158.686 325.049 158.686 325.049L171.829 328.571L172.457 330.236L177.558 343.82C177.558 343.82 178.731 350.08 172.745 350.341Z" fill="#636992"/>
<path d="M233.138 330.401C233.138 330.401 217.91 336.266 212.987 331.703C208.064 327.14 204.396 328.442 204.396 328.442C204.396 328.442 195.804 328.575 194.11 327.92C193.111 327.539 193.652 324.278 194.275 321.682C194.696 319.889 195.154 318.408 195.154 318.408C195.154 318.408 210.12 313.322 212.465 316.45C213.169 317.369 214.011 318.173 214.961 318.834C217.672 320.797 221.908 322.577 228.608 325.315C237.823 329.094 233.138 330.401 233.138 330.401Z" fill="#636992"/>
<path d="M219.472 211.257L223.635 219.599C223.635 219.599 229.625 228.074 222.595 231.33C215.566 234.587 215.698 212.564 215.698 212.564L219.472 211.257Z" fill="#FFD6D6"/>
<path d="M202.028 138.915C202.028 138.915 206.585 141.002 209.319 149.734C212.053 158.466 215.698 173.329 215.698 173.329C215.698 173.329 218.171 190.142 217.777 194.316C217.527 196.614 217.571 198.935 217.91 201.222L221.423 212.954L214.393 215.43L203.59 173.981L202.028 138.915Z" fill="#DCE6F2"/>
<path opacity="0.05" d="M202.028 138.915C202.028 138.915 206.585 141.002 209.319 149.734C212.053 158.466 215.698 173.329 215.698 173.329C215.698 173.329 218.171 190.142 217.777 194.316C217.527 196.614 217.571 198.935 217.91 201.222L221.423 212.954L214.393 215.43L203.59 173.981L202.028 138.915Z" fill="black"/>
<path opacity="0.1" d="M171.829 328.575L172.457 330.24L171.687 331.712C168.692 333.015 161.273 331.974 161.273 331.974C161.273 331.974 159.899 330.226 158.021 327.351C158.379 326.012 158.672 325.058 158.672 325.058L171.829 328.575Z" fill="black"/>
<path opacity="0.1" d="M215.437 319.449C211.641 328.062 198.735 324.865 195.149 323.787C194.559 323.609 194.233 323.489 194.233 323.489C194.233 323.489 194.256 322.788 194.265 321.682C194.687 319.889 195.145 318.408 195.145 318.408C195.145 318.408 210.111 313.322 212.456 316.45C213.16 317.369 214.002 318.173 214.952 318.834C215.095 319.053 215.258 319.259 215.437 319.449Z" fill="black"/>
<path d="M214.782 308.502C211.659 315.014 215.437 318.669 215.437 318.669C211.641 327.277 198.735 324.086 195.149 323.003C194.559 322.829 194.233 322.71 194.233 322.71C194.233 322.71 194.495 313.712 193.583 309.41C192.672 305.108 192.8 286.993 193.322 284.778C193.844 282.562 194.101 278.256 194.101 278.256C194.101 278.256 193.711 273.175 194.362 270.698C194.557 270.029 194.571 269.32 194.4 268.644C194.229 267.968 193.881 267.35 193.391 266.855L193.322 266.786C193.322 266.786 190.46 276.564 189.416 278.251C188.371 279.939 187.987 288.419 187.854 289.983C187.721 291.547 182.386 304.585 182.386 304.585C182.386 304.585 180.307 310.579 179.917 312.272C179.528 313.964 177.962 318.793 177.962 318.793L171.688 330.919C168.693 332.221 161.274 331.18 161.274 331.18C161.274 331.18 159.845 329.346 157.889 326.356C155.934 323.366 155.027 312.804 155.027 312.804C155.027 312.804 162.185 312.671 160.362 305.764C158.539 298.857 161.924 293.51 161.796 291.161C161.667 288.813 163.357 281.127 164.269 279.953C165.18 278.779 165.047 273.826 164.786 271.088C164.525 268.35 164.658 258.705 164.658 258.705C164.658 258.705 164.919 254.403 166.22 252.45C167.52 250.496 167.003 244.887 167.003 244.887C167.003 244.887 169.471 243.585 167.781 230.941C166.091 218.297 170.529 201.874 170.529 201.874L170.68 199.58L170.918 195.866C170.918 195.866 208.147 193.518 211.142 196.384C211.925 197.179 212.567 198.102 213.042 199.113C214.067 201.319 214.791 203.652 215.195 206.052L216.756 245.548L218.318 274.615L217.796 296.514C217.796 296.514 217.91 301.98 214.782 308.502Z" fill="#565988"/>
<path opacity="0.1" d="M203.745 230.551L199.839 315.275L195.149 322.999C194.558 322.824 194.233 322.705 194.233 322.705C194.233 322.705 194.494 313.707 193.583 309.405C192.671 305.103 192.8 286.988 193.322 284.773C193.844 282.558 194.1 278.251 194.1 278.251C194.1 278.251 193.711 273.17 194.361 270.693C194.557 270.024 194.57 269.315 194.399 268.639C194.229 267.963 193.88 267.346 193.39 266.85L193.455 266.392L203.745 230.551Z" fill="black"/>
<path opacity="0.1" d="M161.676 321.536C161.676 321.536 171.83 317.495 173.391 318.784C174.953 320.073 161.42 322.04 161.42 322.04L161.676 321.536Z" fill="black"/>
<path opacity="0.1" d="M211.792 310.845C211.402 310.978 201.51 314.514 202.422 318.275C203.333 322.036 211.792 310.845 211.792 310.845Z" fill="black"/>
<path d="M180.879 117.997C180.879 117.997 184.195 126.014 182.441 130.123C180.687 134.232 201.378 141.268 201.378 141.268C201.378 141.268 195.328 125.624 201.185 116.823C207.043 108.022 180.879 117.997 180.879 117.997Z" fill="#FFD6D6"/>
<path d="M302.03 350.08C298.027 350.96 292.756 354.969 292.756 354.969C292.756 354.969 282.603 357.12 275.669 356.143C268.736 355.166 269.913 347.635 275.28 345.778C279.003 344.494 282.818 341.325 284.81 339.509C285.69 338.697 286.212 338.133 286.212 338.133L305.643 334.221C305.643 334.221 305.959 335.308 306.399 336.808C307.177 339.454 308.327 343.38 308.767 344.875C309.449 347.246 306.032 349.199 302.03 350.08Z" fill="#505484"/>
<path d="M297.052 335.023C297.052 335.023 288.849 335.904 285.433 333.95C282.017 331.997 277.135 335.124 277.135 335.124C277.135 335.124 263.075 334.831 258.39 333.363C253.705 331.896 259.072 324.65 266.688 325.347C269.464 325.599 271.341 324.989 272.61 324.118C273.935 323.208 274.859 321.821 275.188 320.247L291.675 321.224L293.965 327.076L297.052 335.023Z" fill="#505484"/>
<path opacity="0.1" d="M294.217 329.745C294.217 329.745 275.055 326.608 272.61 324.118C273.935 323.208 274.859 321.821 275.188 320.247L291.675 321.224L293.965 327.076L294.217 329.745Z" fill="black"/>
<path d="M265.809 219.961L266.006 248.602C266.006 248.602 266.688 270.111 266.688 273.046C266.688 275.981 266.785 282.526 266.785 282.526C266.785 282.526 268.25 290.542 269.129 293.184C270.009 295.826 270.691 307.86 270.691 307.86C270.691 307.86 272.743 311.185 271.863 312.446C270.984 313.707 275.28 316.454 275.28 316.454C275.28 316.454 272.532 320.27 272.353 322.811C272.175 325.351 294.217 328.961 294.217 328.961L285.63 240.783L278.792 218.691L265.809 219.961Z" fill="#575988"/>
<path opacity="0.1" d="M265.809 219.961L266.006 248.602C266.006 248.602 266.688 270.111 266.688 273.046C266.688 275.981 266.785 282.526 266.785 282.526C266.785 282.526 268.25 290.542 269.129 293.184C270.009 295.826 270.691 307.86 270.691 307.86C270.691 307.86 272.743 311.185 271.863 312.446C270.984 313.707 275.28 316.454 275.28 316.454C275.28 316.454 272.532 320.27 272.353 322.811C272.175 325.351 294.217 328.961 294.217 328.961L285.63 240.783L278.792 218.691L265.809 219.961Z" fill="black"/>
<path opacity="0.1" d="M306.399 336.83C300.019 352.061 284.847 340.307 284.847 340.307C284.847 340.307 284.847 340.013 284.81 339.509C285.689 338.697 286.211 338.133 286.211 338.133L305.643 334.221C305.643 334.221 305.959 335.331 306.399 336.83Z" fill="black"/>
<path d="M306.619 335.514C300.368 351.566 284.847 339.523 284.847 339.523C284.847 339.523 284.357 331.212 285.337 327.401C286.317 323.59 284.261 312.148 284.261 312.148C284.261 312.148 283.088 301.98 282.017 299.637C280.945 297.293 281.041 292.597 281.041 292.207C281.041 291.817 281.431 288.685 280.551 286.534C279.672 284.383 279.177 279.105 279.177 279.105C279.177 279.105 279.177 271.675 278.298 267.277L275.271 252.142L269.803 221.149L271.511 220.856L302.117 215.481C302.117 215.481 307.878 244.832 305.923 247.841C305.501 248.501 305.13 249.946 304.824 251.808C303.706 258.467 303.289 270.423 303.289 270.423C303.289 270.423 307.095 276.385 305.634 280.59C304.173 284.796 307.008 291.735 307.008 291.735C307.008 291.735 307.887 319.11 306.225 321.848C304.562 324.585 306.619 335.514 306.619 335.514Z" fill="#575988"/>
<path d="M303.687 135.397C303.687 135.397 275.962 154.948 282.209 145.17C285.575 139.905 284.956 133.2 283.637 128.137C282.971 125.562 282.05 123.059 280.89 120.666C280.89 120.666 304.448 110.632 301.324 119.625C300.592 121.721 300.281 123.94 300.408 126.156C300.595 129.487 301.733 132.695 303.687 135.397Z" fill="#D28690"/>
<path d="M253.769 180.172C253.769 180.172 242.054 176.783 240.103 180.108C238.152 183.433 240.689 190.729 244.225 191.903C247.76 193.077 255.876 187.927 255.876 187.927L253.769 180.172Z" fill="#D28690"/>
<path d="M267.178 174.407L262.296 178.906C262.296 178.906 253.801 179.686 251.36 179.099C251.36 179.099 253.609 194.155 250.385 196.012L270.105 192.004L267.178 174.407Z" fill="#585B8A"/>
<path opacity="0.1" d="M267.178 174.407L262.296 178.906C262.296 178.906 253.801 179.686 251.36 179.099C251.36 179.099 253.609 194.155 250.385 196.012L270.105 192.004L267.178 174.407Z" fill="black"/>
<path opacity="0.1" d="M204.501 109.784C204.501 113.676 202.957 117.409 200.209 120.161C197.46 122.913 193.733 124.459 189.846 124.459C182.326 120.841 175.191 117.896 175.191 109.784C175.113 107.809 175.434 105.839 176.135 103.992C176.836 102.145 177.902 100.458 179.269 99.0334C180.637 97.6087 182.277 96.4753 184.093 95.7011C185.908 94.9269 187.861 94.5278 189.835 94.5278C191.808 94.5278 193.761 94.9269 195.576 95.7011C197.392 96.4753 199.033 97.6087 200.4 99.0334C201.768 100.458 202.834 102.145 203.534 103.992C204.235 105.839 204.556 107.809 204.478 109.784H204.501Z" fill="black"/>
<path d="M204.501 109.389C204.503 112.84 203.288 116.182 201.071 118.824C198.853 121.466 195.775 123.239 192.379 123.83C188.984 124.421 185.489 123.793 182.511 122.056C179.533 120.318 177.263 117.584 176.102 114.334C174.94 111.085 174.962 107.529 176.163 104.294C177.364 101.059 179.667 98.3522 182.666 96.6516C185.666 94.9511 189.168 94.3656 192.556 94.9986C195.944 95.6315 199 97.4422 201.185 100.111C203.325 102.729 204.497 106.006 204.501 109.389Z" fill="#FFD6D6"/>
<path opacity="0.1" d="M213.042 199.126C211.592 200.028 210.075 200.816 208.504 201.484C208.504 201.484 201.085 200.406 200.013 201.676C198.941 202.947 189.48 203.437 189.48 203.437C189.48 203.437 175.031 202.754 172.883 200.897C172.219 200.358 171.48 199.919 170.689 199.594L170.928 195.879C170.928 195.879 208.156 193.531 211.151 196.398C211.931 197.194 212.57 198.117 213.042 199.126Z" fill="black"/>
<path d="M214.851 196.499C214.558 198.159 208.504 200.7 208.504 200.7C208.504 200.7 201.085 199.626 200.013 200.897C198.941 202.167 189.48 202.658 189.48 202.658C189.48 202.658 175.031 201.97 172.883 200.113C170.735 198.255 165.949 197.361 165.949 197.361C165.949 197.361 163.508 179.961 164.488 176.15C165.468 172.339 163.023 161.873 162.437 158.158C161.85 154.444 164.094 144.18 166.829 142.52C169.563 140.859 173.469 135.283 175.809 133.622C177.783 132.224 179.963 130.412 180.6 129.866L180.787 129.71C180.787 129.71 181.181 126.679 182.743 125.124C184.305 123.57 198.653 134.998 198.653 134.998C198.653 134.998 198.753 135.879 199.729 134.219C199.949 133.847 201.84 136.58 202.17 137.736C202.17 137.736 209.978 151.426 210.468 154.246C210.958 157.067 213.005 166.271 213.395 168.518C213.495 169.096 213.66 171.123 213.853 173.838C213.889 174.37 213.921 174.935 213.963 175.522C214.251 180.025 214.562 185.776 214.75 190.124C214.75 190.619 214.791 191.096 214.805 191.555C214.904 193.201 214.919 194.851 214.851 196.499Z" fill="#DCE6F2"/>
<path opacity="0.1" d="M165.276 161.203C165.276 161.203 170.643 167.753 172.402 167.753C174.16 167.753 165.276 161.203 165.276 161.203Z" fill="black"/>
<path opacity="0.1" d="M176.583 175.283C176.583 175.283 167.795 184.864 168.967 186.625C170.139 188.386 176.583 175.283 176.583 175.283Z" fill="black"/>
<path opacity="0.1" d="M170.14 194.348C170.14 194.348 180.215 183.3 180.673 179.489L170.14 194.348Z" fill="black"/>
<path opacity="0.1" d="M182.83 195.127C182.83 195.127 194.449 188.968 195.424 184.079C196.4 179.19 182.83 195.127 182.83 195.127Z" fill="black"/>
<path opacity="0.1" d="M197.572 135.691L195.96 139.598L198.644 140.869L201.282 148.252C201.282 148.252 208.554 162.818 208.261 170.394C207.968 177.971 209.58 189.358 209.58 189.358L213.775 188.578L211.796 166.294C211.488 162.844 210.625 159.466 209.241 156.292C205.889 148.605 199.651 134.416 199.257 134.416C198.722 134.416 199.097 134.613 199.097 134.613L197.572 135.691Z" fill="black"/>
<path d="M197.961 135.296L196.349 139.208L199.037 140.479L201.671 147.862C201.671 147.862 208.943 162.428 208.65 170.004C208.357 177.581 209.969 188.968 209.969 188.968L214.169 188.189L212.186 165.904C211.881 162.454 211.02 159.076 209.635 155.902C206.282 148.211 200.045 134.026 199.656 134.026C199.115 134.026 199.491 134.223 199.491 134.223L197.961 135.296Z" fill="#575989"/>
<path d="M245.503 192.752C243.46 192.596 238.56 190.115 236.613 189.083L235.789 188.624L235.89 181.052C236.371 180.769 236.87 180.516 237.383 180.296C239.984 179.158 245.319 177.613 247.994 182.589C251.603 189.262 248.09 192.926 245.503 192.752Z" fill="#FFD6D6"/>
<path opacity="0.1" d="M201.185 100.111C200.975 100.243 200.745 100.337 200.503 100.391C198.804 100.762 196.871 99.2995 195.415 100.24C194.526 100.817 194.32 102.014 194.201 103.069C193.994 104.904 193.786 106.726 193.578 108.536C193.535 109.18 193.399 109.815 193.175 110.421C192.456 112.067 190.482 112.842 188.683 112.815C187.978 112.865 187.281 112.634 186.745 112.173C186.429 111.852 186.26 111.402 185.912 111.109C183.622 109.187 182.926 113.897 183.531 115.236C184.501 117.424 187.95 119.534 186.503 122.313C186.259 122.765 185.89 123.136 185.44 123.381C183.259 122.697 181.268 121.512 179.627 119.92C177.985 118.329 176.737 116.374 175.984 114.214C175.231 112.053 174.993 109.746 175.288 107.477C175.584 105.207 176.406 103.039 177.688 101.144C178.97 99.2497 180.676 97.6816 182.671 96.5652C184.666 95.4489 186.894 94.8152 189.177 94.7148C191.46 94.6144 193.735 95.0501 195.82 95.9871C197.905 96.9241 199.742 98.3364 201.185 100.111Z" fill="black"/>
<path d="M185.523 111.09C185.866 111.379 186.04 111.829 186.356 112.15C186.892 112.611 187.589 112.842 188.294 112.792C190.093 112.819 192.067 112.049 192.782 110.393C193.009 109.79 193.147 109.157 193.189 108.513L193.812 103.046C193.931 101.992 194.133 100.795 195.026 100.217C196.482 99.2994 198.415 100.739 200.114 100.368C200.726 100.212 201.256 99.8286 201.597 99.2953C201.937 98.7621 202.062 98.1191 201.946 97.4971C201.749 96.6211 201.08 95.9286 200.737 95.0939C200.528 94.4526 200.362 93.7985 200.237 93.1356C199.289 89.5768 195.117 87.5772 191.49 88.1734C189.475 88.5082 187.602 89.4713 185.582 89.7648C184.135 89.9758 182.656 89.8382 181.195 89.9941C179.838 90.1344 178.518 90.5246 177.302 91.1452C176.983 91.2867 176.701 91.5002 176.478 91.769C176.271 92.132 176.131 92.5299 176.066 92.943C175.576 94.7775 174 96.1304 172.86 97.6759C171.556 99.4542 170.801 101.577 170.689 103.78C170.644 104.343 170.697 104.909 170.845 105.454C170.941 105.775 171.092 106.087 171.166 106.417C171.39 107.422 170.877 108.426 170.625 109.426C170.312 110.701 170.425 112.045 170.946 113.251C172.704 117.3 178.498 118.653 179.702 122.904C180.772 123.418 181.927 123.729 183.109 123.822C184.291 123.845 185.564 123.335 186.114 122.285C187.556 119.534 184.112 117.396 183.141 115.213C182.532 113.87 183.215 109.164 185.523 111.09Z" fill="#353045"/>
<path opacity="0.1" d="M301.347 119.625C300.615 121.721 300.304 123.94 300.431 126.156C299.726 126.757 298.957 124.959 298.142 125.422C295.907 126.716 293.324 129.793 290.558 129.793C288.159 129.794 285.794 129.227 283.656 128.137C282.989 125.562 282.069 123.059 280.908 120.666C280.908 120.666 304.471 110.632 301.347 119.625Z" fill="black"/>
<path d="M305.771 113.76C305.771 116.777 304.878 119.726 303.204 122.234C301.53 124.743 299.151 126.698 296.368 127.852C293.585 129.007 290.522 129.309 287.568 128.72C284.613 128.132 281.899 126.679 279.768 124.546C277.638 122.412 276.188 119.694 275.6 116.735C275.012 113.777 275.314 110.71 276.467 107.922C277.619 105.135 279.572 102.753 282.077 101.077C284.582 99.4007 287.527 98.5061 290.539 98.5061C292.54 98.5055 294.521 98.8996 296.369 99.666C298.217 100.432 299.897 101.556 301.311 102.972C302.726 104.389 303.848 106.071 304.613 107.922C305.378 109.773 305.772 111.756 305.771 113.76Z" fill="#D28690"/>
<path d="M305.121 138.786C305.121 138.786 302.254 141.914 301.865 142.171C301.476 142.428 293.163 177.484 293.017 177.893C292.87 178.301 283.12 209.954 283.12 209.954L267.499 217.645L268.804 178.929L280.253 147C280.253 147 284.032 142.698 285.199 141.134C286.367 139.571 300.949 130.183 300.949 130.183L303.44 135.324L305.121 138.786Z" fill="#F0F3F7"/>
<path opacity="0.1" d="M303.056 136.108L285.094 148.986L284.806 141.914C285.978 140.35 300.555 130.967 300.555 130.967L303.056 136.108Z" fill="black"/>
<path d="M303.445 135.324L285.483 148.202L285.204 141.134C286.376 139.566 300.954 130.183 300.954 130.183L303.445 135.324Z" fill="#F0F3F7"/>
<path d="M284.604 137.988L285.204 141.135L281.187 145.221L284.393 138.034C284.393 138.034 277.524 142.827 275.463 144.097C273.402 145.368 271.341 149.669 271.263 150.843C271.185 152.017 267.943 169.711 267.943 169.711C267.943 169.711 265.502 176.26 266.189 178.117C266.876 179.975 262.479 238.535 262.479 238.535C263.067 237.398 263.898 236.404 264.913 235.625C265.928 234.846 267.101 234.3 268.351 234.027L266.784 199.42C266.784 199.42 268.69 176.397 268.786 176.104C268.882 175.81 273.228 162.465 273.228 162.465L284.604 137.988Z" fill="#585B8A"/>
<path opacity="0.1" d="M285.598 141.524L285.286 147.945C285.286 147.945 280.94 161.68 279.479 163.928C278.018 166.175 273.571 179.571 273.571 179.571L271.066 202.841L266.771 204.8L264.655 200.897L268.172 178.425C268.172 178.425 274.808 159.461 275.788 157.502L280.684 147.174L285.598 141.524Z" fill="black"/>
<path d="M285.204 141.135L284.897 147.555C284.897 147.555 280.551 161.291 279.085 163.538C277.62 165.785 273.182 179.181 273.182 179.181L270.691 202.447L266.395 204.401L264.247 200.493L267.764 178.021C267.764 178.021 274.4 159.053 275.376 157.099L280.308 146.785L285.204 141.135Z" fill="#663D5C"/>
<path d="M234.571 190.142L242.965 195.962C242.965 195.962 248.887 192.637 245.438 190.486C241.99 188.335 238.931 188.01 237.822 188.01C236.714 188.01 234.571 190.142 234.571 190.142Z" fill="#D28690"/>
<path d="M240.841 179.383C240.653 179.5 240.499 179.663 240.392 179.856C240.286 180.05 240.23 180.267 240.231 180.488C240.231 182.272 240.433 186.996 241.926 184.864C243.758 182.254 243.424 179.91 246.222 181.603C247.961 182.687 249.483 184.087 250.71 185.73L249.931 180.126C249.931 180.126 244.179 177.283 240.841 179.383Z" fill="#D28690"/>
<path opacity="0.1" d="M305.931 247.822C305.51 248.483 305.139 249.927 304.832 251.789C287.713 256.93 275.188 246.061 275.188 246.061C273.673 240.919 272.434 235.698 271.479 230.422C271.172 228.616 271.24 225.112 271.524 220.837L302.13 215.462C302.13 215.462 307.887 244.791 305.931 247.822Z" fill="black"/>
<path d="M323.504 160.323C322.725 162.868 323.018 168.046 323.018 168.046L315.988 201.287C315.988 201.287 312.572 226.9 311.986 230.322C311.4 233.743 310.424 248.799 310.424 248.799C290.507 258.577 275.161 245.282 275.161 245.282C273.645 240.137 272.407 234.915 271.451 229.638C270.471 223.832 273.356 200.571 274.721 190.239C275.129 187.18 275.403 185.253 275.403 185.253L280.528 166.189C280.528 166.189 286.825 150.105 289.17 145.413C291.515 140.722 300.93 130.183 300.93 130.183C302.098 129.44 303.967 132.063 305.354 134.452C306.403 136.259 307.186 137.938 307.186 137.938C307.186 137.938 318.901 143.019 320.655 145.734C322.409 148.449 322.121 154.045 322.318 154.338C322.514 154.632 324.287 157.782 323.504 160.323Z" fill="#585B8A"/>
<path opacity="0.1" d="M295.879 148.495C295.879 148.495 296.759 153.678 294.506 155.241C292.33 156.755 276.136 188.642 275.129 190.633C275.536 187.569 275.811 185.643 275.811 185.643L280.936 166.583C280.936 166.583 287.238 150.499 289.578 145.803C291.918 141.107 301.343 130.573 301.343 130.573C302.511 129.83 304.375 132.453 305.762 134.842C303.669 139.194 299.305 147.422 295.879 148.495Z" fill="black"/>
<path d="M295.49 148.105C295.49 148.105 296.365 153.288 294.116 154.852C291.868 156.416 275.752 188.248 274.73 190.239C275.138 187.18 275.413 185.253 275.413 185.253L280.537 166.189C280.537 166.189 286.835 150.105 289.179 145.413C291.524 140.722 300.94 130.183 300.94 130.183C302.108 129.44 303.976 132.063 305.364 134.452C303.28 138.8 298.911 147.032 295.49 148.105Z" fill="#585B8A"/>
<path d="M318.723 194.935L313.213 223.64V223.644L312.687 226.391V226.396L311.5 232.573L306.44 231.5L304.081 231L271.442 224.075L269.042 223.566L263.565 222.406L264.637 215.279L265.081 212.316L269.033 186.038L318.723 194.935Z" fill="#00B0FF"/>
<path d="M288.263 218.397C288.263 218.397 275.28 223.089 278.11 228.661C280.94 234.234 299.099 224.359 299.099 224.359L288.263 218.397Z" fill="#D28690"/>
<path opacity="0.1" d="M297.537 258.38C297.537 258.769 298.027 263.759 299.978 265.516C301.929 267.272 297.537 258.38 297.537 258.38Z" fill="black"/>
<path opacity="0.1" d="M284.458 276.073C284.458 276.073 286.798 282.526 296.072 285.167C305.345 287.809 284.458 276.073 284.458 276.073Z" fill="black"/>
<path opacity="0.1" d="M305.772 113.76C305.772 116.441 305.067 119.075 303.726 121.397C302.386 123.718 300.458 125.644 298.137 126.982C297.262 126.491 296.486 125.843 295.847 125.069C295.183 124.262 294.666 123.161 295.064 122.198C295.385 121.423 296.232 120.932 296.438 120.13C296.535 119.639 296.51 119.132 296.365 118.653C296.195 117.896 296.035 117.14 295.87 116.387C295.728 115.745 295.476 114.989 294.84 114.833C294.203 114.677 293.672 115.209 293.173 115.603C291.95 116.571 289.605 117.227 288.135 116.433C286.665 115.64 287.077 112.985 286.839 111.549C286.836 111.424 286.806 111.302 286.75 111.19C286.695 111.078 286.616 110.98 286.519 110.902C286.305 110.831 286.076 110.816 285.854 110.857C285.062 110.857 284.426 110.146 284.197 109.384C284.034 108.607 283.945 107.816 283.931 107.023C283.844 106.229 283.555 105.39 282.878 104.982C282.336 104.729 281.736 104.631 281.142 104.697L278.271 104.729C280.175 102.151 282.844 100.239 285.896 99.2655C288.948 98.2924 292.229 98.3078 295.273 99.3094C298.316 100.311 300.966 102.248 302.847 104.844C304.728 107.441 305.743 110.566 305.749 113.773L305.772 113.76Z" fill="black"/>
<path d="M293.58 115.603C294.08 115.209 294.629 114.686 295.247 114.837C295.866 114.989 296.131 115.755 296.273 116.388L296.768 118.649C296.914 119.129 296.941 119.637 296.846 120.13C296.612 120.937 295.769 121.423 295.444 122.198C295.046 123.161 295.568 124.262 296.227 125.065C297.43 126.516 299.093 127.512 300.94 127.885C301.422 128.001 301.923 128.012 302.41 127.917C303.5 127.665 304.242 126.661 304.828 125.72C307.855 120.997 310.461 115.819 310.992 110.233C311.138 109.094 311.085 107.938 310.837 106.816C310.588 105.945 310.238 105.106 309.792 104.317C309.013 102.705 308.023 101.204 306.848 99.8545C304.764 97.6072 301.888 96.2268 298.934 95.4105C295.612 94.4872 292.142 94.2147 288.717 94.6079C287.801 94.7134 286.922 94.8647 286.019 94.9243C284.887 94.9771 283.752 94.9587 282.621 94.8693L275.88 94.4657C275.495 95.25 275.88 96.1809 276.338 96.9147C276.796 97.6485 277.364 98.4098 277.327 99.2812C277.29 100.153 276.672 100.84 276.196 101.574C275.72 102.308 275.358 103.257 275.834 103.973C276.31 104.688 277.281 104.734 278.124 104.725L281.522 104.688C282.114 104.627 282.711 104.73 283.249 104.986C283.926 105.395 284.215 106.238 284.302 107.027C284.321 107.821 284.41 108.611 284.568 109.389C284.801 110.15 285.433 110.87 286.225 110.861C286.447 110.817 286.677 110.834 286.889 110.912C286.987 110.989 287.066 111.086 287.121 111.197C287.177 111.308 287.207 111.43 287.21 111.554C287.448 112.989 287.009 115.64 288.506 116.438C290.004 117.236 292.358 116.571 293.58 115.603Z" fill="#663D5C"/>
<path opacity="0.1" d="M312.939 145.73C311.255 145.551 309.56 145.95 308.133 146.863C306.706 147.775 305.631 149.147 305.085 150.752C303.253 155.975 300.198 165.4 300.963 169.124C302.039 174.402 303.308 183.203 303.308 183.203C303.308 183.203 308.872 186.414 306.055 189.651C303.239 192.889 302.442 197.475 302.442 197.475C302.442 197.475 298.829 199.039 298.05 202.364C297.272 205.689 291.996 210.28 291.996 210.28L284.091 218.2C284.091 218.2 297.171 231.5 299.809 232.179L307.91 222.695L317.477 209.986L325.776 201.273C325.776 201.273 327.727 196.687 326.751 187.973C325.776 179.259 321.965 170.963 321.965 170.963L322.258 168.028C322.258 168.028 323.156 147 312.939 145.73Z" fill="black"/>
<path d="M313.717 145.73C312.035 145.553 310.342 145.953 308.917 146.866C307.492 147.778 306.418 149.148 305.872 150.752C304.04 155.975 300.986 165.4 301.751 169.124C302.822 174.403 304.091 183.203 304.091 183.203C304.091 183.203 309.655 186.414 306.839 189.652C304.022 192.889 303.23 197.475 303.23 197.475C303.23 197.475 299.616 199.039 298.833 202.364C298.05 205.689 292.784 210.28 292.784 210.28L284.875 218.2C284.875 218.2 297.954 231.5 300.592 232.179L308.693 222.695L318.237 209.987L326.536 201.273C326.536 201.273 328.491 196.687 327.511 187.973C326.531 179.259 322.73 170.963 322.73 170.963L323.023 168.028C323.023 168.028 323.935 147 313.717 145.73Z" fill="#585B8A"/>
<path opacity="0.1" d="M305.542 175.48C305.542 175.48 313.841 185.643 317.358 183.396C320.875 181.149 305.542 175.48 305.542 175.48Z" fill="black"/>
<path opacity="0.1" d="M308.666 167.656C309.545 167.95 316.772 178.021 320.481 176.829C324.191 175.636 308.666 167.656 308.666 167.656Z" fill="black"/>
<path opacity="0.1" d="M310.717 184.955C310.717 184.955 311.207 190.725 317.161 189.94C323.114 189.156 310.717 184.955 310.717 184.955Z" fill="black"/>
<path opacity="0.1" d="M284.407 138.424L281.188 145.611L285.208 141.524L284.407 138.424Z" fill="black"/>
<path d="M284.407 138.034L281.188 145.221L285.208 141.134L284.407 138.034Z" fill="#F0F3F7"/>
<path opacity="0.3" d="M271.442 224.075L269.042 223.566L264.637 215.279L265.081 212.316L271.442 224.075Z" fill="black"/>
<path opacity="0.3" d="M313.213 223.644L312.687 226.391V226.396L306.44 231.5L304.082 231L313.213 223.644Z" fill="black"/>
<path opacity="0.1" d="M214.791 191.573C213.582 191.775 212.41 191.958 211.338 192.096C205.385 192.88 191.224 185.84 191.224 185.84C191.224 185.84 173.945 171.371 168.967 157.686C163.989 144.001 174.921 141.946 174.921 141.946C179.043 139.598 188.005 146.147 189.274 147.225C190.542 148.303 191.618 151.036 191.518 152.797C191.417 154.558 194.449 156.805 194.449 156.805C194.449 156.805 199.624 165.799 200.892 166.776C202.161 167.753 202.454 168.633 202.843 170.298C203.232 171.963 206.649 173.329 208.114 173.228C209.58 173.128 211.32 173.719 211.32 174.499C211.32 175.127 212.754 175.439 213.93 175.54C214.279 180.553 214.622 187.12 214.791 191.573Z" fill="black"/>
<path opacity="0.1" d="M214.737 190.142C213.821 190.289 212.941 190.422 212.117 190.532C206.163 191.316 192.008 184.276 192.008 184.276C192.008 184.276 174.729 169.807 169.75 156.122C164.772 142.437 175.704 140.382 175.704 140.382C179.826 138.034 188.784 144.583 190.052 145.661C191.321 146.739 192.397 149.472 192.301 151.233C192.205 152.994 195.227 155.241 195.227 155.241C195.227 155.241 200.402 164.235 201.671 165.212C202.939 166.189 203.232 167.069 203.626 168.734C204.02 170.399 207.432 171.761 208.898 171.664C210.363 171.568 212.103 172.155 212.103 172.935C212.103 173.393 212.918 173.701 213.825 173.852C213.862 174.384 213.894 174.948 213.935 175.535C214.237 180.043 214.549 185.794 214.737 190.142Z" fill="black"/>
<path opacity="0.1" d="M237.383 180.296L237.012 189.083H236.613L235.789 188.624L235.89 181.052C236.371 180.769 236.87 180.516 237.383 180.296Z" fill="black"/>
<path d="M174.921 141.162C174.921 141.162 163.989 143.217 168.967 156.902C173.945 170.587 191.224 185.061 191.224 185.061C191.224 185.061 205.38 192.096 211.338 191.316C217.297 190.537 226.369 188.482 227.541 188.776C228.714 189.069 236.623 189.069 236.623 189.069L237.012 179.897L227.853 179.406L223.168 178.429C223.168 178.429 221.505 177.053 220.53 177.255C219.554 177.457 217.507 176.081 217.507 176.081C217.507 176.081 215.941 174.811 214.759 174.811C213.578 174.811 211.343 174.517 211.343 173.738C211.343 172.958 209.584 172.362 208.137 172.467C206.69 172.573 203.232 171.197 202.829 169.514C202.426 167.831 202.147 166.973 200.878 165.996C199.61 165.019 194.435 156.021 194.435 156.021C194.435 156.021 191.408 153.774 191.504 152.017C191.6 150.261 190.528 147.518 189.26 146.441C187.991 145.363 179.015 138.819 174.921 141.162Z" fill="#DCE6F2"/>
<path opacity="0.1" d="M203.04 172.641C203.04 172.641 198.841 176.847 199.912 177.627L203.04 172.641Z" fill="black"/>
<path opacity="0.1" d="M207.528 175.966C207.528 175.966 202.06 180.172 203.525 180.465C204.991 180.759 207.528 175.966 207.528 175.966Z" fill="black"/>
<path opacity="0.1" d="M198.25 182.203C199.033 182.598 210.647 189.541 215.043 189.44L198.25 182.203Z" fill="black"/>
<path opacity="0.1" d="M199.037 135.787C199.037 135.787 196.986 142.533 196.203 142.533C195.589 142.533 185.285 134.177 180.984 130.664L181.172 130.508C181.172 130.508 181.561 127.477 183.123 125.922C184.685 124.368 199.037 135.787 199.037 135.787Z" fill="black"/>
<path d="M198.643 135.003C198.643 135.003 196.596 141.749 195.813 141.749C195.195 141.749 184.891 133.393 180.59 129.88L180.778 129.724C180.778 129.724 181.172 126.693 182.734 125.138C184.295 123.583 198.643 135.003 198.643 135.003Z" fill="#DCE6F2"/>
<g opacity="0.15">
<path opacity="0.15" d="M170.996 113.2C172.37 116.342 176.153 117.864 178.346 120.368C177.041 117.291 173.226 115.782 170.996 113.2Z" fill="black"/>
<path opacity="0.15" d="M184.996 120.437C184.451 121.487 183.164 121.996 181.992 121.974C180.95 121.899 179.929 121.638 178.979 121.203C179.323 121.712 179.586 122.272 179.757 122.863C180.826 123.378 181.982 123.689 183.164 123.78C184.35 123.808 185.624 123.299 186.169 122.244C187.043 120.57 186.132 119.139 185.065 117.786C185.264 118.202 185.361 118.659 185.349 119.12C185.337 119.581 185.216 120.032 184.996 120.437Z" fill="black"/>
<path opacity="0.15" d="M201.991 97.4513C201.794 96.5708 201.126 95.8783 200.782 95.0482C200.572 94.4059 200.405 93.7501 200.283 93.0853C200.023 92.1453 199.541 91.2817 198.877 90.5675C198.969 90.7932 199.047 91.0245 199.111 91.26C199.239 91.9277 199.41 92.5865 199.624 93.2321C199.967 94.0622 200.636 94.7547 200.833 95.6352C200.949 96.2573 200.824 96.9002 200.484 97.4335C200.143 97.9667 199.613 98.3503 199.001 98.5061C197.306 98.8776 195.374 97.41 193.917 98.3548C193.024 98.9281 192.818 100.125 192.699 101.18C192.495 103.014 192.287 104.838 192.076 106.651C192.035 107.294 191.899 107.928 191.673 108.531C190.954 110.182 188.98 110.958 187.181 110.93C186.477 110.977 185.784 110.747 185.248 110.288C184.988 109.919 184.708 109.564 184.41 109.224C182.12 107.298 181.424 112.008 182.028 113.352C182.331 113.956 182.706 114.521 183.146 115.035C182.642 113.521 183.347 109.164 185.582 111.031C185.88 111.369 186.158 111.725 186.416 112.095C186.954 112.553 187.649 112.783 188.353 112.737C190.153 112.764 192.127 111.989 192.846 110.338C193.072 109.733 193.208 109.098 193.249 108.454C193.456 106.619 193.664 104.797 193.872 102.987C193.991 101.932 194.197 100.735 195.085 100.162C196.546 99.217 198.479 100.685 200.173 100.308C200.781 100.151 201.306 99.7683 201.644 99.2381C201.981 98.708 202.105 98.0695 201.991 97.4513Z" fill="black"/>
</g>
<path opacity="0.1" d="M303.386 126.748C302.898 126.839 302.398 126.826 301.915 126.711C300.071 126.338 298.41 125.344 297.208 123.895C296.544 123.088 296.021 121.987 296.424 121.024C296.745 120.249 297.588 119.763 297.798 118.956C297.894 118.463 297.867 117.955 297.72 117.475L297.226 115.214C297.084 114.571 296.837 113.815 296.2 113.663C295.563 113.512 295.032 114.035 294.533 114.429C293.31 115.397 290.961 116.057 289.495 115.259C288.03 114.461 288.437 111.811 288.199 110.375C288.195 110.251 288.165 110.13 288.109 110.019C288.054 109.908 287.975 109.811 287.879 109.733C287.664 109.658 287.434 109.641 287.21 109.683C286.418 109.683 285.786 108.972 285.552 108.21C285.394 107.433 285.306 106.642 285.291 105.849C285.2 105.06 284.916 104.216 284.233 103.808C283.695 103.554 283.099 103.451 282.507 103.51L279.109 103.546C278.271 103.546 277.277 103.491 276.819 102.794C276.361 102.097 276.7 101.107 277.181 100.396C277.661 99.6848 278.271 98.9785 278.312 98.1026C278.353 97.2266 277.785 96.4699 277.323 95.7361C277.057 95.3349 276.862 94.8913 276.746 94.4245L275.77 94.3649C275.39 95.1445 275.77 96.0755 276.228 96.8139C276.686 97.5522 277.258 98.309 277.217 99.1757C277.176 100.043 276.567 100.74 276.086 101.469C275.605 102.198 275.253 103.152 275.729 103.867C276.205 104.583 277.171 104.633 278.019 104.624L281.417 104.583C282.009 104.525 282.606 104.63 283.143 104.886C283.826 105.294 284.114 106.138 284.201 106.926C284.216 107.72 284.305 108.511 284.467 109.288C284.696 110.045 285.332 110.77 286.125 110.756C286.347 110.716 286.575 110.734 286.789 110.806C286.886 110.884 286.965 110.983 287.02 111.094C287.075 111.206 287.106 111.328 287.109 111.453C287.348 112.884 286.908 115.539 288.405 116.337C289.903 117.135 292.239 116.475 293.443 115.507C293.942 115.113 294.496 114.59 295.115 114.737C295.733 114.883 295.999 115.654 296.136 116.287L296.635 118.552C296.78 119.033 296.805 119.541 296.708 120.034C296.479 120.836 295.632 121.327 295.312 122.097C294.913 123.06 295.431 124.166 296.095 124.968C297.305 126.424 298.979 127.418 300.835 127.784C301.317 127.899 301.818 127.912 302.305 127.821C303.092 127.581 303.768 127.067 304.21 126.372C303.96 126.545 303.681 126.673 303.386 126.748Z" fill="black"/>
<path opacity="0.1" d="M93.2834 329.291C99.3967 329.291 104.353 328.529 104.353 327.589C104.353 326.65 99.3967 325.888 93.2834 325.888C87.1701 325.888 82.2144 326.65 82.2144 327.589C82.2144 328.529 87.1701 329.291 93.2834 329.291Z" fill="#00B0FF"/>
<path opacity="0.1" d="M479.772 285.053C485.885 285.053 490.841 284.291 490.841 283.351C490.841 282.412 485.885 281.65 479.772 281.65C473.658 281.65 468.703 282.412 468.703 283.351C468.703 284.291 473.658 285.053 479.772 285.053Z" fill="#00B0FF"/>
<path opacity="0.1" d="M366.923 356.84C384.628 356.84 398.981 354.635 398.981 351.914C398.981 349.194 384.628 346.989 366.923 346.989C349.218 346.989 334.866 349.194 334.866 351.914C334.866 354.635 349.218 356.84 366.923 356.84Z" fill="#00B0FF"/>
<path opacity="0.1" d="M458.055 334.89C471.865 334.89 483.06 333.17 483.06 331.047C483.06 328.925 471.865 327.204 458.055 327.204C444.245 327.204 433.05 328.925 433.05 331.047C433.05 333.17 444.245 334.89 458.055 334.89Z" fill="#00B0FF"/>
<path opacity="0.1" d="M453.937 375.859C477.356 375.859 496.341 372.941 496.341 369.342C496.341 365.742 477.356 362.825 453.937 362.825C430.519 362.825 411.534 365.742 411.534 369.342C411.534 372.941 430.519 375.859 453.937 375.859Z" fill="#00B0FF"/>
<path opacity="0.1" d="M45.9064 380C63.6114 380 77.9641 377.795 77.9641 375.074C77.9641 372.354 63.6114 370.149 45.9064 370.149C28.2014 370.149 13.8486 372.354 13.8486 375.074C13.8486 377.795 28.2014 380 45.9064 380Z" fill="#00B0FF"/>
<path d="M93.7872 273.399C93.7872 273.399 95.042 275.041 93.2101 277.527C91.3783 280.013 89.867 282.113 90.4623 283.645C90.4623 283.645 93.2101 279.059 95.5 278.976C97.7898 278.894 96.2648 276.169 93.7872 273.399Z" fill="#00B0FF"/>
<path opacity="0.1" d="M93.7873 273.399C93.8992 273.556 93.9858 273.729 94.0438 273.913C96.242 276.5 97.4099 278.907 95.2986 278.958C93.3339 279.013 90.9754 282.535 90.4121 283.425C90.4293 283.493 90.4507 283.561 90.4762 283.626C90.4762 283.626 93.224 279.04 95.5139 278.958C97.8037 278.875 96.2649 276.169 93.7873 273.399Z" fill="black"/>
<path d="M96.1227 275.491C96.1227 276.068 96.054 276.536 95.9761 276.536C95.8983 276.536 95.8296 276.078 95.8296 275.491C95.8296 274.904 95.912 275.188 95.9899 275.188C96.0677 275.188 96.1227 274.913 96.1227 275.491Z" fill="#FFD037"/>
<path d="M96.9197 276.183C96.416 276.458 95.9717 276.642 95.9351 276.554C95.8984 276.467 96.274 276.206 96.7823 275.926C97.2907 275.646 97.0892 275.853 97.1258 275.926C97.1624 276 97.4281 275.903 96.9197 276.183Z" fill="#FFD037"/>
<path d="M87.1652 273.399C87.1652 273.399 85.9104 275.041 87.7422 277.527C89.5741 280.013 91.09 282.113 90.49 283.645C90.49 283.645 87.7422 279.059 85.4753 278.976C83.2084 278.894 84.6739 276.169 87.1652 273.399Z" fill="#00B0FF"/>
<path opacity="0.1" d="M87.1649 273.399C87.0554 273.557 86.9691 273.73 86.9084 273.913C84.7102 276.5 83.5423 278.907 85.6536 278.958C87.6183 279.013 89.9768 282.535 90.5447 283.425C90.5259 283.493 90.503 283.561 90.476 283.626C90.476 283.626 87.7282 279.04 85.4612 278.958C83.1943 278.875 84.6735 276.169 87.1649 273.399Z" fill="black"/>
<path d="M84.834 275.491C84.834 276.068 84.8981 276.536 84.976 276.536C85.0538 276.536 85.1225 276.078 85.1225 275.491C85.1225 274.904 85.0401 275.188 84.9622 275.188C84.8844 275.188 84.834 274.913 84.834 275.491Z" fill="#FFD037"/>
<path d="M84.0326 276.183C84.541 276.458 84.9806 276.642 85.0218 276.554C85.063 276.467 84.6783 276.206 84.17 275.926C83.6617 275.646 83.8632 275.853 83.8265 275.926C83.7899 276 83.5243 275.903 84.0326 276.183Z" fill="#FFD037"/>
<path opacity="0.1" d="M90.4759 296.202C97.7172 296.202 103.587 295.3 103.587 294.188C103.587 293.076 97.7172 292.175 90.4759 292.175C83.2345 292.175 77.3643 293.076 77.3643 294.188C77.3643 295.3 83.2345 296.202 90.4759 296.202Z" fill="#00B0FF"/>
<path d="M97.2268 281.425L97.1627 281.939L97.0757 282.663L97.039 282.966L96.952 283.691L96.9108 283.993L96.8238 284.718L95.8208 292.973C95.7338 293.707 94.5339 294.28 93.073 294.28H87.8797C86.4325 294.28 85.2326 293.707 85.1319 292.973L84.1289 284.718L84.0419 283.993L84.0052 283.691L83.9137 282.966L83.877 282.663L83.79 281.939L83.7259 281.425C83.6755 281.008 84.3258 280.659 85.1456 280.659H95.8117C96.6269 280.659 97.2772 281.008 97.2268 281.425Z" fill="#65617D"/>
<path d="M97.1622 281.939L97.0752 282.663H83.8766L83.7896 281.939H97.1622Z" fill="#9D9CB5"/>
<path d="M97.0389 282.966L96.9519 283.691H84.0052L83.9136 282.966H97.0389Z" fill="#9D9CB5"/>
<path d="M96.915 283.993L96.8234 284.718H84.1285L84.0415 283.993H96.915Z" fill="#9D9CB5"/>
<path d="M471.047 267.047C471.047 267.047 469.481 274.349 476.447 275.211L476.877 274.399C476.877 274.399 471.478 269.313 471.047 267.047Z" fill="#00B0FF"/>
<path d="M479.094 274.339L477.473 274.683L477.312 274.72C477.312 274.72 472.989 271.207 473.044 263.365C473.622 264.521 474.314 265.616 475.109 266.635C476.822 268.905 478.769 271.932 479.094 274.339Z" fill="#00B0FF"/>
<path d="M479.639 275.092C479.512 275.175 479.367 275.228 479.217 275.248C479.066 275.268 478.913 275.253 478.769 275.206C474.61 274.234 476.021 260.664 476.021 260.664C476.25 260.769 476.479 262.498 477.459 264.727C479.131 268.639 480.976 274.11 479.639 275.092Z" fill="#00B0FF"/>
<path d="M488.862 267.047C488.862 267.047 489.133 274.349 482.167 275.211L481.732 274.385C481.732 274.385 488.432 269.313 488.862 267.047Z" fill="#00B0FF"/>
<path d="M486.866 263.378C486.921 271.221 481.306 274.734 481.306 274.734L481.141 274.697L479.524 274.353C479.845 271.945 481.814 268.919 483.504 266.648C484.474 265.413 485.605 264.314 486.866 263.378Z" fill="#00B0FF"/>
<path d="M481.118 274.385C480.872 274.69 480.558 274.933 480.202 275.096C480.092 275.146 479.977 275.184 479.859 275.211C478.837 275.449 478.485 274.711 478.54 273.454C478.636 271.221 480.037 267.346 481.287 264.442C481.89 263.018 482.778 261.733 483.898 260.668C483.898 260.668 483.834 271.23 481.118 274.385Z" fill="#00B0FF"/>
<path d="M479.955 255.903C479.955 255.903 475.311 272.413 479.309 274.881C483.307 277.348 480.981 257.361 479.955 255.903Z" fill="#00B0FF"/>
<path opacity="0.1" d="M471.047 267.047C471.047 267.047 469.481 274.349 476.447 275.211L476.877 274.399C476.877 274.399 471.478 269.313 471.047 267.047Z" fill="black"/>
<path opacity="0.1" d="M479.094 274.339L477.473 274.683L477.312 274.72C477.312 274.72 472.989 271.207 473.044 263.365C473.622 264.521 474.314 265.616 475.109 266.635C476.822 268.905 478.769 271.932 479.094 274.339Z" fill="black"/>
<path opacity="0.1" d="M479.639 275.092C479.512 275.175 479.367 275.228 479.217 275.248C479.066 275.268 478.913 275.253 478.769 275.206C474.61 274.234 476.021 260.664 476.021 260.664C476.25 260.769 476.479 262.498 477.459 264.727C479.131 268.639 480.976 274.11 479.639 275.092Z" fill="black"/>
<path opacity="0.1" d="M488.862 267.047C488.862 267.047 489.133 274.349 482.167 275.211L481.732 274.385C481.732 274.385 488.432 269.313 488.862 267.047Z" fill="black"/>
<path opacity="0.1" d="M486.866 263.378C486.921 271.221 481.306 274.734 481.306 274.734L481.141 274.697L479.524 274.353C479.845 271.945 481.814 268.919 483.504 266.648C484.474 265.413 485.605 264.314 486.866 263.378Z" fill="black"/>
<path opacity="0.1" d="M481.118 274.385C480.872 274.69 480.558 274.933 480.202 275.096C480.092 275.146 479.977 275.184 479.859 275.211C478.837 275.449 478.485 274.711 478.54 273.454C478.636 271.221 480.037 267.346 481.287 264.442C481.89 263.018 482.778 261.733 483.898 260.668C483.898 260.668 483.834 271.23 481.118 274.385Z" fill="black"/>
<path opacity="0.1" d="M479.955 255.903C479.955 255.903 475.311 272.413 479.309 274.881C483.307 277.348 480.981 257.361 479.955 255.903Z" fill="black"/>
<path d="M471.048 267.047C471.048 267.047 470.132 274.349 477.093 275.211L477.523 274.399C477.523 274.399 471.478 269.313 471.048 267.047Z" fill="#00B0FF"/>
<path d="M479.739 274.339L478.118 274.683L477.958 274.72C477.958 274.72 472.989 271.207 473.03 263.378C473.03 263.378 474.303 264.754 475.741 266.648C477.468 268.905 479.414 271.932 479.739 274.339Z" fill="#00B0FF"/>
<path opacity="0.1" d="M479.74 274.34L478.119 274.684C476.584 273.335 475.975 269.813 475.755 266.635C477.468 268.905 479.415 271.932 479.74 274.34Z" fill="black"/>
<path d="M480.289 275.092C480.161 275.175 480.016 275.228 479.865 275.248C479.714 275.268 479.56 275.254 479.415 275.206C475.256 274.234 476.016 260.664 476.016 260.664C476.245 260.769 477.143 262.498 478.1 264.727C479.781 268.639 481.622 274.11 480.289 275.092Z" fill="#00B0FF"/>
<path d="M488.862 267.047C488.862 267.047 489.778 274.349 482.817 275.211L482.387 274.399C482.387 274.399 488.432 269.313 488.862 267.047Z" fill="#00B0FF"/>
<path d="M486.865 263.378C486.92 271.221 481.951 274.734 481.951 274.734L481.791 274.697L480.17 274.353C480.491 271.945 482.46 268.919 484.154 266.648C485.592 264.754 486.865 263.378 486.865 263.378Z" fill="#00B0FF"/>
<path opacity="0.1" d="M484.154 266.635C483.944 269.597 483.403 272.858 482.089 274.381C481.999 274.491 481.899 274.592 481.791 274.684L480.17 274.34C480.49 271.932 482.441 268.905 484.154 266.635Z" fill="black"/>
<path d="M481.764 274.385C481.519 274.691 481.205 274.935 480.848 275.096C480.739 275.145 480.625 275.184 480.509 275.211C479.483 275.449 479.135 274.711 479.185 273.454C479.286 271.221 480.688 267.346 481.933 264.442C482.849 262.356 483.678 260.774 483.898 260.668C483.898 260.664 484.479 271.23 481.764 274.385Z" fill="#00B0FF"/>
<path opacity="0.1" d="M480.289 275.092C480.052 275.094 479.821 275.02 479.629 274.881C477.674 273.661 477.633 269.084 478.1 264.727C479.78 268.639 481.621 274.11 480.289 275.092Z" fill="black"/>
<path opacity="0.1" d="M481.763 274.385C481.539 274.876 481.237 275.133 480.848 275.096C480.648 275.072 480.458 275 480.293 274.885C479.784 274.536 479.396 274.035 479.185 273.454C479.286 271.221 480.687 267.346 481.933 264.443C482.382 268.465 482.533 272.73 481.763 274.385Z" fill="black"/>
<path d="M479.955 255.903C479.955 255.903 475.962 272.413 479.955 274.881C483.948 277.348 480.981 257.361 479.955 255.903Z" fill="#00B0FF"/>
<path d="M487.621 274.073H470.992V276.83H473.529L473.593 277.155L474.61 282.507H484.278L485.295 277.155L485.354 276.83H487.621V274.073Z" fill="#4B4770"/>
<path opacity="0.1" d="M487.621 274.073H470.992V276.83H473.529L473.593 277.155L474.61 282.507H484.278L485.295 277.155L485.354 276.83H487.621V274.073Z" fill="black"/>
<path d="M486.22 275.692L485.94 277.155L484.924 282.507H475.256L474.239 277.155L473.96 275.692H486.22Z" fill="#4B4770"/>
<path opacity="0.1" d="M486.22 275.692L485.94 277.155H474.239L473.96 275.692H486.22Z" fill="black"/>
<path d="M488.267 274.073H471.638V276.83H488.267V274.073Z" fill="#4B4770"/>
<path d="M63.8362 321.237C63.3978 321.843 63.0464 322.507 62.7921 323.21C62.7279 323.379 62.6638 323.576 62.5997 323.764C62.4835 323.71 62.3624 323.667 62.2379 323.636C61.7041 323.501 61.1518 323.455 60.603 323.498C60.603 323.283 60.6304 323.04 60.635 322.824C60.7037 320.407 60.4198 317.041 58.1162 318.467C55.9088 319.843 57.4842 322.136 58.9085 323.604C59.0321 323.732 59.1558 323.852 59.2749 323.966C57.9742 324.883 57.7269 327.053 57.5117 329.305C57.2964 331.556 55.3867 334.019 54.1181 335.418C53.9899 335.56 53.8754 335.688 53.7609 335.808C53.2481 335.398 52.6545 335.101 52.0191 334.938C51.3837 334.774 50.7209 334.747 50.0743 334.858C50.0239 334.661 49.9644 334.455 49.9048 334.239C48.879 330.529 46.7494 324.104 44.0337 322.696L44.3909 322.237C45.545 320.728 46.8456 318.481 44.9267 317.908C43.0079 317.335 42.8338 319.852 42.9392 321.742C42.9575 321.98 42.9758 322.205 42.9941 322.416C42.6105 322.434 42.2346 322.53 41.8896 322.699C41.5445 322.867 41.2378 323.105 40.9882 323.398L40.6905 323.044C39.1334 321.21 36.2803 318.289 35.4147 320.495C34.6087 322.549 37.123 325.218 38.8907 326.764L39.0006 326.86C37.8145 331.68 42.9941 335.611 45.7831 337.33L46.1449 337.55C42.298 342.091 39.9211 350.603 39.9211 350.603L50.6926 352.529C50.6926 352.529 57.8368 346.356 56.9209 340.559H56.9942C64.1339 339.128 65.7551 331.506 64.6422 326.979L64.7705 326.929C66.0713 326.396 67.2109 325.533 68.077 324.425C70.0737 321.65 65.8971 318.513 63.8362 321.237Z" fill="#00B0FF"/>
<path opacity="0.1" d="M63.8362 321.237C63.3978 321.843 63.0464 322.507 62.7921 323.21C62.7279 323.379 62.6638 323.576 62.5997 323.764C62.4835 323.71 62.3624 323.667 62.2379 323.636C61.7041 323.501 61.1518 323.455 60.603 323.498C60.603 323.283 60.6304 323.04 60.635 322.824C60.7037 320.407 60.4198 317.041 58.1162 318.467C55.9088 319.843 57.4842 322.136 58.9085 323.604C59.0321 323.732 59.1558 323.852 59.2749 323.966C57.9742 324.883 57.7269 327.053 57.5117 329.305C57.2964 331.556 55.3867 334.019 54.1181 335.418C53.9899 335.56 53.8754 335.688 53.7609 335.808C53.2481 335.398 52.6545 335.101 52.0191 334.938C51.3837 334.774 50.7209 334.747 50.0743 334.858C50.0239 334.661 49.9644 334.455 49.9048 334.239C48.879 330.529 46.7494 324.104 44.0337 322.696L44.3909 322.237C45.545 320.728 46.8456 318.481 44.9267 317.908C43.0079 317.335 42.8338 319.852 42.9392 321.742C42.9575 321.98 42.9758 322.205 42.9941 322.416C42.6105 322.434 42.2346 322.53 41.8896 322.699C41.5445 322.867 41.2378 323.105 40.9882 323.398L40.6905 323.044C39.1334 321.21 36.2803 318.289 35.4147 320.495C34.6087 322.549 37.123 325.218 38.8907 326.764L39.0006 326.86C37.8145 331.68 42.9941 335.611 45.7831 337.33L46.1449 337.55C42.298 342.091 39.9211 350.603 39.9211 350.603L50.6926 352.529C50.6926 352.529 57.8368 346.356 56.9209 340.559H56.9942C64.1339 339.128 65.7551 331.506 64.6422 326.979L64.7705 326.929C66.0713 326.396 67.2109 325.533 68.077 324.425C70.0737 321.65 65.8971 318.513 63.8362 321.237Z" fill="black"/>
<path d="M42.3944 324.374L41.135 328.043C41.135 328.043 40.4343 327.548 39.5504 326.768C37.7826 325.223 35.2684 322.554 36.0744 320.499C36.94 318.293 39.7931 321.205 41.3502 323.049C41.9776 323.783 42.3944 324.374 42.3944 324.374Z" fill="#00B0FF"/>
<path d="M45.0504 322.242C44.6679 322.747 44.2581 323.231 43.8231 323.691C43.7156 323.047 43.6407 322.398 43.5987 321.747C43.4933 319.857 43.6948 317.348 45.5862 317.913C47.4777 318.477 46.2045 320.733 45.0504 322.242Z" fill="#00B0FF"/>
<path d="M61.3173 322.824C61.2806 324.04 61.1616 325.012 61.1616 325.012C60.6076 324.578 60.0829 324.107 59.5907 323.604C58.1665 322.123 56.5911 319.839 58.7985 318.467C61.0791 317.037 61.3631 320.407 61.3173 322.824Z" fill="#00B0FF"/>
<path d="M68.7365 324.416C67.8704 325.524 66.7308 326.387 65.43 326.92C65.0689 327.076 64.6988 327.211 64.3217 327.323L62.8379 325.237C62.9937 324.547 63.1988 323.87 63.4516 323.209C63.7059 322.506 64.0573 321.843 64.4957 321.237C66.5474 318.513 70.7332 321.65 68.7365 324.416Z" fill="#00B0FF"/>
<path opacity="0.1" d="M41.3501 323.049C41.9775 323.783 42.3943 324.352 42.3943 324.352L41.1349 328.02C41.1349 328.02 40.4342 327.525 39.5503 326.745C39.7467 325.563 40.2347 324.449 40.97 323.503C41.0936 323.352 41.2265 323.196 41.3501 323.049Z" fill="black"/>
<path opacity="0.1" d="M45.0504 322.242C44.6678 322.747 44.2581 323.231 43.823 323.691C43.7155 323.047 43.6406 322.398 43.5986 321.747C44.122 321.757 44.6292 321.93 45.0504 322.242Z" fill="black"/>
<path d="M51.2422 336.899L48.1097 338.275C48.1097 338.275 47.4273 337.945 46.4427 337.33C43.1499 335.303 36.5323 330.199 40.9471 324.182C45.3619 318.165 49.0852 328.956 50.5644 334.235C51.0086 335.84 51.2422 336.899 51.2422 336.899Z" fill="#00B0FF"/>
<path opacity="0.1" d="M59.5679 323.604C60.0235 323.134 60.6409 322.855 61.2944 322.824C61.2578 324.04 61.1387 325.012 61.1387 325.012C60.5847 324.578 60.06 324.107 59.5679 323.604Z" fill="black"/>
<path opacity="0.1" d="M65.4388 326.92C65.0777 327.076 64.7076 327.211 64.3305 327.323L62.8467 325.237C63.0025 324.547 63.2076 323.87 63.4604 323.21C64.4083 323.769 65.1136 325.163 65.4388 326.92Z" fill="black"/>
<path d="M57.6535 340.55C57.4841 340.587 57.3055 340.619 57.1269 340.646C46.6257 342.242 53.6646 336.569 53.6646 336.569C53.6646 336.569 54.1226 336.111 54.7775 335.418C56.0461 334.019 57.9512 331.57 58.171 329.305C58.5008 325.897 58.8809 322.701 62.8973 323.636C66.8404 324.563 67.596 338.555 57.6535 340.55Z" fill="#00B0FF"/>
<path d="M57.4566 366.732H37.3931V372.015H57.4566V366.732Z" fill="#D4DFEC"/>
<path d="M60.4196 349.562H34.2056V367.998H60.4196V349.562Z" fill="#D4DFEC"/>
<path opacity="0.1" d="M57.4566 366.732H37.3931V372.015H57.4566V366.732Z" fill="black"/>
<path opacity="0.1" d="M60.4196 349.562H34.2056V367.998H60.4196V349.562Z" fill="black"/>
<path d="M58.7755 366.732H38.7119V372.015H58.7755V366.732Z" fill="#D4DFEC"/>
<path opacity="0.1" d="M50.5641 334.239C51.0221 335.817 51.2419 336.899 51.2419 336.899L48.1094 338.275C48.1094 338.275 47.427 337.945 46.4424 337.33C47.6697 335.776 49.0528 334.602 50.5641 334.239Z" fill="black"/>
<path opacity="0.1" d="M57.6535 340.55C57.4841 340.587 57.3055 340.619 57.1269 340.646C46.6257 342.242 53.6646 336.569 53.6646 336.569C53.6646 336.569 54.1226 336.11 54.7775 335.418C56.7376 336.991 57.5482 338.761 57.6535 340.55Z" fill="black"/>
<path d="M40.5806 350.607C40.5806 350.607 46.4609 329.511 54.7089 336.019C62.9569 342.527 51.352 352.529 51.352 352.529L40.5806 350.607Z" fill="#00B0FF"/>
<path opacity="0.1" d="M43.5481 328.149C43.9124 328.149 44.2076 327.853 44.2076 327.489C44.2076 327.124 43.9124 326.828 43.5481 326.828C43.1839 326.828 42.8887 327.124 42.8887 327.489C42.8887 327.853 43.1839 328.149 43.5481 328.149Z" fill="black"/>
<path opacity="0.1" d="M43.4935 331.231C43.8577 331.231 44.1529 330.935 44.1529 330.57C44.1529 330.206 43.8577 329.91 43.4935 329.91C43.1292 329.91 42.834 330.206 42.834 330.57C42.834 330.935 43.1292 331.231 43.4935 331.231Z" fill="black"/>
<path opacity="0.1" d="M62.6224 328.754C62.9866 328.754 63.2818 328.459 63.2818 328.094C63.2818 327.729 62.9866 327.433 62.6224 327.433C62.2581 327.433 61.9629 327.729 61.9629 328.094C61.9629 328.459 62.2581 328.754 62.6224 328.754Z" fill="black"/>
<path opacity="0.1" d="M47.2347 344.554C47.5989 344.554 47.8941 344.258 47.8941 343.893C47.8941 343.528 47.5989 343.233 47.2347 343.233C46.8705 343.233 46.5752 343.528 46.5752 343.893C46.5752 344.258 46.8705 344.554 47.2347 344.554Z" fill="black"/>
<path opacity="0.1" d="M61.2488 333.872C61.613 333.872 61.9083 333.577 61.9083 333.212C61.9083 332.847 61.613 332.552 61.2488 332.552C60.8846 332.552 60.5894 332.847 60.5894 333.212C60.5894 333.577 60.8846 333.872 61.2488 333.872Z" fill="black"/>
<path opacity="0.1" d="M54.4339 340.701C54.7981 340.701 55.0934 340.406 55.0934 340.041C55.0934 339.676 54.7981 339.38 54.4339 339.38C54.0697 339.38 53.7744 339.676 53.7744 340.041C53.7744 340.406 54.0697 340.701 54.4339 340.701Z" fill="black"/>
<path opacity="0.1" d="M45.8011 329.47C46.1653 329.47 46.4606 329.174 46.4606 328.809C46.4606 328.445 46.1653 328.149 45.8011 328.149C45.4369 328.149 45.1416 328.445 45.1416 328.809C45.1416 329.174 45.4369 329.47 45.8011 329.47Z" fill="black"/>
<path opacity="0.1" d="M60.8089 330.735C61.1731 330.735 61.4684 330.44 61.4684 330.075C61.4684 329.71 61.1731 329.415 60.8089 329.415C60.4447 329.415 60.1494 329.71 60.1494 330.075C60.1494 330.44 60.4447 330.735 60.8089 330.735Z" fill="black"/>
<path opacity="0.1" d="M58.5555 335.854C58.9197 335.854 59.2149 335.558 59.2149 335.193C59.2149 334.829 58.9197 334.533 58.5555 334.533C58.1913 334.533 57.896 334.829 57.896 335.193C57.896 335.558 58.1913 335.854 58.5555 335.854Z" fill="black"/>
<path opacity="0.1" d="M51.6312 344.058C51.9954 344.058 52.2906 343.763 52.2906 343.398C52.2906 343.033 51.9954 342.738 51.6312 342.738C51.2669 342.738 50.9717 343.033 50.9717 343.398C50.9717 343.763 51.2669 344.058 51.6312 344.058Z" fill="black"/>
<path opacity="0.1" d="M50.2024 340.811C50.5667 340.811 50.8619 340.516 50.8619 340.151C50.8619 339.786 50.5667 339.49 50.2024 339.49C49.8382 339.49 49.543 339.786 49.543 340.151C49.543 340.516 49.8382 340.811 50.2024 340.811Z" fill="black"/>
<path opacity="0.1" d="M46.7903 333.487C47.1545 333.487 47.4498 333.191 47.4498 332.827C47.4498 332.462 47.1545 332.166 46.7903 332.166C46.4261 332.166 46.1309 332.462 46.1309 332.827C46.1309 333.191 46.4261 333.487 46.7903 333.487Z" fill="black"/>
<path opacity="0.1" d="M58.7755 366.732H38.7119V368.663H58.7755V366.732Z" fill="black"/>
<path d="M61.7385 349.562H35.5244V367.998H61.7385V349.562Z" fill="#D4DFEC"/>
<path opacity="0.1" d="M52.5105 347.03C52.8748 347.03 53.17 346.734 53.17 346.37C53.17 346.005 52.8748 345.709 52.5105 345.709C52.1463 345.709 51.8511 346.005 51.8511 346.37C51.8511 346.734 52.1463 347.03 52.5105 347.03Z" fill="black"/>
<path opacity="0.1" d="M48.5535 347.856C48.9177 347.856 49.213 347.56 49.213 347.195C49.213 346.83 48.9177 346.535 48.5535 346.535C48.1893 346.535 47.894 346.83 47.894 347.195C47.894 347.56 48.1893 347.856 48.5535 347.856Z" fill="black"/>
<path opacity="0.1" d="M22.8983 28.6452C25.5439 28.6452 27.6886 26.4974 27.6886 23.848C27.6886 21.1986 25.5439 19.0509 22.8983 19.0509C20.2526 19.0509 18.1079 21.1986 18.1079 23.848C18.1079 26.4974 20.2526 28.6452 22.8983 28.6452Z" fill="#00B0FF"/>
<path opacity="0.1" d="M482.959 181.195C486.5 181.195 489.371 178.32 489.371 174.774C489.371 171.228 486.5 168.353 482.959 168.353C479.418 168.353 476.548 171.228 476.548 174.774C476.548 178.32 479.418 181.195 482.959 181.195Z" fill="#00B0FF"/>
<path opacity="0.1" d="M495.32 165.702C497.905 165.702 500 163.604 500 161.015C500 158.427 497.905 156.328 495.32 156.328C492.735 156.328 490.639 158.427 490.639 161.015C490.639 163.604 492.735 165.702 495.32 165.702Z" fill="#00B0FF"/>
<path opacity="0.1" d="M31.142 12.8412C34.683 12.8412 37.5536 9.96663 37.5536 6.42062C37.5536 2.87461 34.683 0 31.142 0C27.601 0 24.7305 2.87461 24.7305 6.42062C24.7305 9.96663 27.601 12.8412 31.142 12.8412Z" fill="#00B0FF"/>
<path opacity="0.1" d="M6.41155 42.1927C9.95255 42.1927 12.8231 39.3181 12.8231 35.7721C12.8231 32.2261 9.95255 29.3514 6.41155 29.3514C2.87055 29.3514 0 32.2261 0 35.7721C0 39.3181 2.87055 42.1927 6.41155 42.1927Z" fill="#00B0FF"/>
</g>
<defs>
<linearGradient id="paint0_linear" x1="241.409" y1="355.817" x2="241.409" y2="87.2975" gradientUnits="userSpaceOnUse">
<stop stop-color="#808080" stop-opacity="0.25"/>
<stop offset="0.54" stop-color="#808080" stop-opacity="0.12"/>
<stop offset="1" stop-color="#808080" stop-opacity="0.1"/>
</linearGradient>
<clipPath id="clip0">
<rect width="500" height="380" fill="white"/>
</clipPath>
</defs>
</svg>
