<svg width="568" height="361" viewBox="0 0 568 361" fill="none" xmlns="http://www.w3.org/2000/svg">
<g clip-path="url(#clip0)">
<path d="M342.83 88.855C348.666 95.2803 352.727 102.889 358.056 109.653C360.509 112.781 362.369 116.754 366.768 118.022C367.106 118.107 367.276 118.276 367.191 118.614C366.176 119.713 365.245 120.897 365.076 122.503C361.608 135.861 363.723 147.866 373.197 158.35C373.62 158.857 374.042 159.28 374.212 159.956C374.296 161.478 373.366 162.492 372.604 163.591C369.898 167.227 368.121 171.2 368.46 175.85C368.544 177.203 368.629 178.64 367.106 179.485C364.23 180.331 361.27 179.908 358.309 179.908C351.881 179.908 345.537 180.162 339.108 179.739C338.178 179.57 337.501 179.063 336.993 178.217C336.571 177.626 336.401 176.865 335.978 176.273C335.555 175.681 335.048 174.92 334.287 175.089C333.272 175.258 333.779 176.273 333.61 176.949C333.356 178.133 334.118 179.824 332.172 180.331C331.918 180.077 331.664 179.824 331.495 179.485C330.988 177.964 331.072 176.357 331.157 174.751C332.341 159.956 331.411 145.076 331.664 130.281C331.664 128.929 331.495 127.576 331.072 126.223C330.565 124.025 329.296 122.334 327.52 120.897C324.305 118.445 321.768 115.148 318.469 112.696C317.538 112.02 316.862 111.005 317.454 109.653C317.285 109.399 318.638 108.469 317.116 108.892C316.523 109.061 316.016 109.399 315.424 109.145C310.433 105.933 306.627 101.283 301.975 97.563C301.298 97.0557 300.79 96.3794 300.198 95.7876C299.183 94.9422 298.253 93.3358 296.815 93.8431C295.461 94.3504 296.138 96.1258 296.138 97.3094C296.053 104.665 296.138 112.104 296.053 119.46C296.053 120.643 296.815 122.503 294.531 122.757C293.431 121.404 293.685 119.713 293.685 118.192C293.685 111.259 293.685 104.242 293.685 97.3094C293.685 93.0822 293.431 92.8286 289.202 92.8286C267.379 92.8286 245.471 92.8286 223.647 92.8286C221.871 92.8286 220.095 92.9977 218.318 92.4904C217.811 92.3213 217.049 91.7295 217.219 91.5604C219.672 89.1932 216.034 88.0942 216.457 85.9806C215.527 86.6569 215.611 87.3333 215.442 87.8405C215.019 88.855 212.651 89.5314 215.104 90.9686C215.527 91.2223 214.85 92.0677 214.173 92.3213C212.059 92.9131 209.944 92.6595 207.829 92.6595C197.51 92.9131 187.106 92.2368 176.786 93.0822C176.109 93.1668 175.517 93.0822 174.925 92.8286C174.671 92.6595 174.333 92.4904 174.249 92.2368C173.995 91.4759 174.841 91.5604 175.094 91.1377C174.502 91.3913 173.91 91.5604 173.487 92.0677C173.234 92.2368 172.98 92.4059 172.641 92.575C165.959 95.1958 165.029 96.5485 165.029 103.819C165.029 124.617 165.029 145.415 165.029 166.212C165.029 170.524 166.382 174.836 165.282 179.147C165.198 179.485 164.944 179.739 164.69 179.908C163.083 179.655 163.506 178.302 163.337 177.287C163.083 176.357 163.844 175.174 162.66 174.582C160.715 175.258 160.461 176.949 160.207 178.64C159.953 202.143 160.207 225.731 160.123 249.234C160.123 251.094 160.292 253.038 159.869 254.898C159.784 255.321 159.53 255.659 159.277 255.997C158.938 256.166 158.515 256.251 158.092 256.251C136.354 256.082 114.615 256.082 92.8761 256.335C92.5377 256.42 92.1994 256.589 91.9456 256.843C90.846 257.773 90.0847 258.872 90.3385 260.393C90.4231 277.725 90.3385 294.972 90.4231 312.303C90.4231 313.825 90.0001 315.516 90.9306 316.953C92.1148 318.39 93.7219 318.306 95.3291 318.306C127.387 318.306 159.361 318.306 191.42 318.306C192.942 318.306 194.38 318.221 195.649 317.207C196.579 316.277 196.241 315.008 196.241 313.909C196.241 303.933 196.241 293.873 196.241 283.896C196.241 282.206 196.072 280.515 196.918 278.908C197.172 278.57 197.51 278.401 197.933 278.317C199.963 278.486 201.908 278.401 203.938 278.401C245.301 278.401 286.664 278.401 328.027 278.401C329.465 278.401 330.988 278.486 332.426 278.317C332.764 278.232 333.102 278.148 333.356 277.978C334.71 277.048 336.148 276.288 336.909 274.766C337.247 274.259 337.586 273.751 337.924 273.244C338.093 272.99 338.262 272.652 338.347 272.314C338.431 246.782 338.347 221.334 338.347 195.887C338.347 193.181 338.685 190.983 341.899 190.73C346.129 190.222 350.189 191.068 354.334 191.744C354.926 191.913 355.518 192.082 356.195 192.252C357.379 192.59 359.071 191.913 359.494 193.435C359.832 194.619 358.225 195.211 357.463 196.056C356.195 197.409 354.841 198.761 353.403 200.03C351.712 201.551 351.796 202.989 353.403 204.595C356.279 207.385 359.071 210.259 361.862 213.134C362.369 213.641 362.877 214.233 363.046 214.994C363.131 215.332 363.131 215.67 363.046 216.008C362.2 225.393 360.17 234.523 358.901 243.823C358.648 245.514 358.309 247.12 358.986 248.811C359.747 249.656 360.678 249.318 361.524 249.149C362.623 248.98 363.807 248.896 364.484 250.079C365.415 252.362 364.484 254.729 364.315 257.012C363.3 269.862 362.454 282.713 361.947 295.563C361.608 304.694 360.762 313.909 361.101 323.125C361.27 326.929 361.354 327.098 365.245 327.352C366.176 327.436 367.191 327.436 368.037 327.944C368.967 328.704 368.291 329.296 367.783 329.888C366.176 330.733 364.4 330.48 362.708 330.564C360.593 330.48 358.563 330.311 356.533 331.072C351.373 332.255 346.044 332.171 340.8 332.509C323.206 333.439 305.612 334.707 288.018 335.299C276.176 335.722 264.418 336.144 252.576 336.567C243.779 336.905 235.066 336.99 226.354 337.074C224.662 337.074 222.971 337.159 221.279 336.821C219.925 336.398 218.572 336.313 217.219 336.313C209.098 336.313 200.978 336.313 192.858 336.313C191.504 336.313 190.151 336.398 188.797 336.821C180.593 337.243 172.303 337.412 164.098 336.652C162.406 336.482 160.715 336.398 159.023 336.398C146.335 336.313 133.731 335.299 121.043 334.707C114.277 334.369 107.594 333.608 100.827 333.862C92.7915 333.523 84.7557 333.523 76.72 333.777C70.2068 333.777 63.7782 334.538 57.3496 335.214C56.25 335.299 55.0658 335.637 53.9662 335.13C52.782 334.369 52.6974 333.016 52.359 331.833C48.1297 313.148 44.4079 294.38 45.2537 275.104C46.0996 255.744 51.7669 238.159 66.2313 224.293C67.7538 222.856 69.361 221.504 71.391 220.658C80.0189 215.247 89.7464 212.373 98.8817 208.146C100.151 207.554 101.25 206.708 102.688 206.624C103.703 206.708 104.295 206.286 104.549 205.356C107.933 202.566 111.401 199.86 113.938 196.056C118.337 189.293 119.183 182.022 118.59 174.075C117.829 164.014 114.53 154.376 113.515 144.4C111.993 129.436 113.515 114.725 119.352 100.691C122.651 92.8286 127.303 85.896 132.378 79.2171C132.801 78.7098 133.139 78.2026 133.816 78.0335C134.577 78.8789 135.339 79.6398 136.1 78.0335C134.916 77.019 134.916 76.4272 136.1 75.0745C144.982 65.8593 155.386 58.9267 166.889 53.4314C169.004 52.4169 170.95 51.2333 172.98 50.2188C175.01 49.3733 176.702 50.6415 178.393 51.3178C192.688 56.8131 206.984 62.3084 221.279 67.8038C222.548 68.311 223.816 69.1565 225.085 67.9728C228.046 62.4775 229.737 56.5595 232.021 50.8106C233.29 47.6824 234.559 44.6389 235.659 41.4262C235.997 40.4963 236.335 39.3972 237.604 39.2281C238.873 40.3272 240.48 40.5808 242.003 40.5808C252.66 40.8344 263.065 43.1171 273.3 45.907C289.033 50.2187 303.835 56.8131 317.369 66.0283C323.883 70.5091 330.057 75.3281 335.64 81.0771C337.586 83.1061 339.785 84.9661 341.815 86.9951C342.069 87.5024 342.322 88.3478 342.83 88.855Z" fill="#F2EFF6"/>
<path d="M396.12 120.559C399.588 117.853 403.987 117.6 408.047 116.839C417.098 115.233 426.148 114.303 435.368 114.81C450.763 115.74 464.72 120.305 476.816 130.366C487.812 139.496 493.733 151.333 496.186 165.113C497.709 173.398 497.032 181.853 495.848 190.222C495.51 192.759 495.848 195.38 495.848 197.916C496.271 199.607 496.017 201.298 495.848 202.904C495.171 214.571 498.978 224.801 505.068 234.523C510.058 242.555 515.895 250.079 520.124 258.618C523.846 266.227 525.876 274.259 526.891 282.544C527.06 283.558 526.976 284.657 526.722 285.672C526.299 291.167 526.215 296.663 526.807 302.073C526.891 309.936 525.115 317.545 522.324 324.9C522.07 325.492 521.562 325.915 521.139 326.337C518.433 331.748 515.641 337.159 510.397 340.625C509.551 341.217 508.705 341.724 507.775 342.231C506.421 343.161 505.068 342.4 503.884 341.978C487.728 336.144 470.979 332.678 453.977 330.733C445.688 329.804 437.398 329.043 429.024 329.127C427.756 329.127 425.725 329.888 425.472 327.436C427.333 327.183 429.194 327.436 431.054 327.183C422.934 328.113 414.814 327.859 406.693 327.859C405.255 327.859 403.733 328.113 402.464 327.098C401.703 322.11 402.041 317.037 401.787 311.965C401.195 301.735 400.688 291.505 400.265 281.36C399.842 271.891 399.081 262.422 398.996 252.954C398.573 251.347 399.081 250.164 400.603 249.403C402.126 248.642 402.887 247.374 403.31 245.852C403.733 244.584 403.564 243.316 403.648 242.048C403.733 230.55 403.395 219.052 403.902 207.638C403.902 205.863 405.086 204.848 406.355 203.834C408.131 202.481 409.654 200.959 410.246 198.677C411.261 196.394 410.246 194.196 410.077 191.913C409.654 186.08 408.385 180.331 406.609 174.751C406.101 173.145 405.594 171.538 405.594 169.848C406.778 163.338 404.832 157.081 404.156 150.741C403.225 142.455 401.195 134.424 398.996 126.392C398.573 124.448 397.727 122.672 396.289 121.235C395.866 121.066 395.951 120.812 396.12 120.559Z" fill="#F2EFF6"/>
<path d="M425.048 327.944C433.253 328.535 441.458 328.958 449.579 329.634C468.864 331.325 487.643 335.214 505.913 341.893C506.505 342.147 507.098 342.231 507.69 342.4C516.741 346.374 525.791 350.432 534.25 355.674C536.195 356.942 538.141 358.21 540.002 359.478C539.241 360.831 537.972 360.408 536.872 360.408C528.498 360.408 520.209 360.408 511.834 360.408C511.073 360.408 510.227 360.493 509.466 360.239C501.43 358.125 493.648 354.913 485.528 352.968C471.402 349.587 457.191 347.304 442.643 346.374C431.139 345.613 419.635 344.768 408.131 345.275C395.612 345.782 383.009 346.12 370.49 346.966C359.24 347.727 347.905 348.318 336.655 349.079C323.037 350.009 309.418 350.348 295.884 351.447C291.063 351.785 286.157 351.954 281.336 352.038C272.877 352.207 264.418 352.63 256.044 352.968C228.469 353.898 200.894 353.56 173.318 353.391C159.869 353.307 146.335 352.546 132.801 351.785C122.228 351.193 111.739 350.347 101.166 350.263C93.4684 350.263 85.771 349.925 78.0736 350.178C60.395 350.77 43.1393 353.053 26.5603 359.394C25.6298 359.732 24.784 360.07 23.8535 360.239C23.0922 360.493 22.2464 360.408 21.4851 360.408C15.564 360.408 9.72754 360.408 3.80647 360.408C2.70684 360.408 1.43804 360.746 0.676758 359.478C9.22002 349.84 20.2163 344.091 32.143 339.949C37.0491 338.258 42.0397 336.99 47.1149 335.975C48.9758 334.284 51.175 334.115 53.5435 334.707C61.1563 334.115 68.6845 332.762 76.2973 332.932C84.333 333.354 92.3688 333.354 100.405 332.932C111.57 332.847 122.735 333.946 133.901 334.453C152.087 335.299 170.358 336.229 188.629 335.975C192.604 335.299 196.58 335.722 200.555 335.722C207.322 335.722 214.174 335.299 220.941 335.975C236.758 336.313 252.661 335.637 268.478 335.045C291.994 334.284 315.509 333.016 339.024 331.494C344.945 331.156 350.781 330.649 356.702 330.226C358.648 329.634 360.763 330.395 362.708 329.719C364.315 329.634 365.922 329.634 367.529 329.55C369.052 329.973 368.714 331.072 368.375 332.171C364.823 334.453 361.016 336.229 357.464 338.511C356.618 339.019 355.349 339.526 355.687 340.794C356.026 341.978 357.294 342.062 358.31 342.062C363.977 342.147 369.729 342.147 375.396 342.062C381.317 342.062 387.238 342.062 393.159 342.062C396.627 342.062 397.219 341.301 396.797 337.835C396.627 336.229 396.204 334.707 395.951 333.185C395.866 332.424 395.866 331.663 396.035 330.903C396.627 327.436 399.08 327.352 401.787 327.521C408.808 327.436 415.829 327.521 422.849 327.521C423.695 327.521 424.456 327.352 425.048 327.944Z" fill="#2484AD"/>
<path d="M526.045 285.418C525.368 272.821 521.393 261.323 514.626 250.671C510.227 243.823 505.49 237.229 501.515 230.127C496.186 220.743 494.325 210.682 495.086 199.945C495.171 199.184 495.34 198.508 495.847 197.916C501.261 196.479 505.406 193.182 508.62 188.701C512.003 183.966 514.203 178.556 516.74 173.314C520.208 166.212 523 158.772 528.329 152.685C529.005 151.924 529.767 151.163 530.613 150.487C535.011 147.021 538.987 147.613 542.116 152.263C545.161 156.743 546.261 161.9 547.022 167.142C547.53 170.101 548.037 173.145 547.699 176.273C547.022 181.092 547.614 185.995 547.361 190.223C547.53 191.322 548.122 190.814 547.784 190.983C547.699 190.983 547.614 190.983 547.614 190.814C547.361 187.433 547.107 184.051 547.784 180.585C548.629 182.698 548.291 184.981 548.122 187.179C547.784 192.082 549.56 195.971 552.774 199.522C556.75 203.749 560.725 207.977 564.447 212.373C569.522 218.291 569.099 223.279 563.517 228.774C560.472 231.733 556.919 234.016 553.366 236.299C548.376 239.511 543.385 242.639 538.987 246.697C533.742 251.516 531.966 257.434 532.558 264.367C533.319 273.244 535.772 281.529 540.255 289.223C541.27 290.998 542.116 292.774 543.131 294.464C550.067 305.962 544.146 315.093 536.787 320.25C532.05 323.547 526.552 325.154 520.97 326.506C523.507 318.644 525.706 310.781 525.96 302.496C526.129 296.747 526.129 291.083 526.045 285.418Z" fill="#30B0E6"/>
<path d="M37.7256 198.677C38.6561 188.87 41.0245 179.401 44.9155 170.355C47.4531 164.352 50.0753 158.35 54.1354 153.108C57.9418 148.289 62.3403 144.062 67.9231 141.272C69.5302 140.426 71.4757 140.004 72.4062 138.059C72.7445 137.298 73.9287 137.467 74.5208 138.313C74.2671 138.567 73.9287 138.82 73.7595 139.158C74.0979 138.905 74.2671 138.482 74.5208 138.228C79.9344 136.622 85.4325 135.608 91.0152 136.453C99.1356 137.721 103.027 141.356 104.126 150.234C105.057 157.673 106.579 165.113 106.241 172.722C105.903 180.754 103.449 187.771 96.175 192.336C95.7521 192.59 95.16 192.674 94.7371 192.843C94.0604 193.182 93.6374 193.942 92.7916 194.111C89.1543 196.901 84.7558 198.17 80.4419 199.184C70.799 201.467 64.8779 208.061 60.7332 216.6C60.2257 217.615 60.564 218.122 61.3253 218.714C58.3648 222.434 54.8967 225.054 49.8215 224.716C44.7463 224.463 41.1937 221.842 39.2482 217.361C36.8797 211.866 36.626 205.948 37.1335 199.945C37.0489 199.522 37.3027 199.015 37.7256 198.677Z" fill="#F2EFF6"/>
<path d="M37.7255 198.677C37.7255 203.919 37.5563 209.16 38.9097 214.317C40.1785 218.967 42.5469 222.433 47.2838 223.617C51.9361 224.801 56.0808 223.786 58.9568 219.644C59.5489 218.798 60.3947 218.798 61.156 218.798C64.5395 219.474 67.8384 220.151 71.2218 220.827C66.2312 225.477 61.2406 230.127 57.5188 235.96C51.1748 245.937 47.7913 256.927 46.5225 268.594C44.1541 290.322 48.7218 311.289 53.1203 332.255C53.2895 333.101 53.4586 333.946 53.5432 334.707C51.4286 335.13 49.3139 335.552 47.1146 335.975C44.6616 331.41 40.3477 328.874 36.1183 326.422C32.1428 324.139 27.6597 322.617 23.9379 319.743C17.9322 315.178 16.748 310.274 20.7236 303.764C23.8533 298.522 27.5751 293.619 30.7048 288.377C35.6954 279.923 34.2574 272.906 26.7292 266.565C24.2762 264.536 21.9078 262.422 19.7085 260.14C15.1408 255.49 14.9717 251.516 19.0318 246.444C23.092 241.371 26.3063 235.96 25.3758 229.197C24.8683 225.223 24.0224 221.334 23.2612 217.361C22.4999 213.218 21.8232 209.076 21.1465 204.933C20.9773 203.58 20.9773 202.228 21.0619 200.79C21.5694 193.435 25.9679 191.068 32.2274 194.957C34.342 196.141 35.9492 197.409 37.7255 198.677Z" fill="#4DBEEE"/>
<path d="M360.932 66.6201C361.27 66.3665 361.609 66.1129 361.947 65.8592C363.47 66.1974 363.47 67.6347 363.977 68.7337C364.315 69.4101 364.231 70.5937 365.246 70.5937C366.092 70.5937 366.346 69.4946 366.853 68.8183C367.953 67.4656 368.629 65.7747 369.983 64.5911C373.282 64.8447 374.973 67.7192 377.342 69.3255C378.78 70.34 380.133 71.5236 381.994 70.34C383.094 73.8909 386.562 74.4827 389.099 76.089C396.966 81.077 405.509 83.5288 414.983 83.9515C421.158 84.2051 427.417 83.6979 433.507 85.0506C440.021 86.4878 446.28 88.6859 451.524 92.8286C453.808 94.604 454.739 97.3094 454.147 100.184C453.554 102.974 451.186 103.904 448.818 104.411C443.066 105.595 437.398 105.341 431.562 104.834C425.81 104.326 419.973 104.496 414.222 104.918C405.171 105.595 396.628 108.723 387.746 110.16C380.894 111.259 375.058 108.892 370.152 104.326C363.893 98.4084 357.802 92.3213 353.065 84.966C352.05 83.3597 351.797 81.4152 350.528 79.8934C349.851 79.4707 349.682 78.6253 349.09 78.118C349.936 76.4272 349.597 74.6517 349.682 72.8763C349.936 68.7337 354.419 65.2674 358.479 65.9438C359.156 67.1274 360.086 66.6201 360.932 66.6201Z" fill="#F2EFF6"/>
<path d="M168.412 0.676351C169.766 -0.676342 171.204 0.253634 172.472 0.760894C190.574 7.69345 208.591 14.626 226.608 21.6431C230.499 23.1649 234.475 24.6021 238.366 26.2084C239.973 26.8848 241.918 27.5611 240.649 30.0129C230.837 31.9574 221.194 34.3246 211.467 36.4382C208.591 37.03 205.715 37.5372 202.839 38.129C194.719 40.3272 194.719 40.3272 190.067 33.141C183.215 23.7567 176.617 14.2033 169.85 4.81897C169.004 3.63537 167.482 2.5363 168.412 0.676351Z" fill="#4DBEEE"/>
<path d="M396.12 120.559C396.035 120.728 396.035 120.982 396.12 121.151C397.304 122.503 398.15 124.194 399.165 125.631C402.21 134.17 403.732 143.132 404.917 152.093C405.678 158.011 407.285 163.93 406.101 169.932C404.24 170.017 404.155 168.41 403.479 167.227C401.364 163.591 399.757 159.618 396.796 156.574C394.597 154.63 391.806 154.292 389.183 153.193C388.93 153.023 388.676 152.77 388.507 152.432C387.915 150.487 388.084 148.458 388.253 146.514C388.084 145.753 389.691 144.907 387.999 144.315C387.492 141.272 388.338 138.736 390.791 136.791C391.552 136.199 392.398 135.607 391.89 134.508C391.467 133.578 390.621 133.494 389.691 133.578C388.761 133.663 387.745 133.578 386.815 133.663C382.078 134.17 380.048 130.366 377.341 127.83C376.411 126.984 375.734 125.97 374.55 124.786C373.45 127.576 371.336 129.605 371.166 132.564C371.759 133.071 372.774 132.987 373.197 133.832C373.112 134.424 372.689 134.678 372.182 134.931C368.798 136.199 368.798 136.284 369.813 139.75C371.42 144.907 375.227 147.19 380.217 147.951C381.063 148.458 381.232 149.219 381.317 150.064C381.401 150.91 381.317 151.755 381.063 152.516C378.695 155.137 377.003 158.434 373.535 159.956C363.385 150.656 359.324 134.255 364.146 121.827C364.738 120.559 365.668 119.629 366.514 118.53C366.514 118.361 366.43 118.107 366.43 117.938C371.082 112.358 377.764 114.133 383.685 112.95C385.377 114.133 387.407 114.303 389.268 114.81C392.313 116.247 394.343 118.192 396.12 120.559Z" fill="#1C134C"/>
<path d="M190.574 32.5492C190.658 32.6337 190.658 32.7183 190.743 32.8028C196.157 40.2426 193.619 39.2281 202.754 37.4527C204.277 36.9454 204.869 38.129 205.546 38.9745C211.974 48.0206 218.403 56.9822 224.831 66.0283C225.339 66.7892 225.931 67.5501 225.677 68.6492C224.324 70.5091 222.886 69.4101 221.448 68.8183C205.799 62.8157 190.066 56.8131 174.418 50.726C173.91 50.5569 173.403 50.3878 172.895 50.2187C167.143 47.9361 161.391 45.7379 155.555 43.4553C154.202 42.948 152.594 42.6098 152.679 40.6653C153.525 39.4817 154.878 39.1436 156.232 38.8054C166.213 36.6073 176.11 34.4091 186.091 32.211C187.529 31.9574 189.136 31.3656 190.574 32.5492Z" fill="#2484AD"/>
<path d="M190.574 32.5492C185.33 33.0564 180.254 34.5782 175.179 35.6773C167.651 37.2836 160.207 39.059 152.679 40.7499C154.625 33.9019 157.67 27.392 160.123 20.7131C162.238 14.8796 164.606 9.13068 166.805 3.38174C167.144 2.45176 167.313 1.26815 168.412 0.760895C170.273 5.24169 173.741 8.70797 176.363 12.6815C180.931 19.3604 185.837 25.8703 190.574 32.5492Z" fill="#30B0E6"/>
<path d="M225.592 68.6492C218.995 59.2649 212.312 49.8806 205.714 40.5808C204.869 39.3972 204.276 37.96 202.754 37.4527C214.934 34.7473 227.03 32.0419 239.211 29.3365C239.887 29.1675 240.733 28.8293 240.818 30.0129C239.718 33.141 238.619 36.1845 237.519 39.3127C233.966 48.2742 230.414 57.2358 226.861 66.1974C226.523 67.0429 226.015 67.8037 225.592 68.6492Z" fill="#30B0E6"/>
<path d="M509.635 360.155C510.227 360.155 510.819 360.155 511.411 360.239C511.665 360.324 511.75 360.493 511.665 360.577C511.58 360.746 511.496 360.746 511.496 360.746C510.312 360.831 509.212 360.915 508.028 360.915C347.144 360.915 186.26 360.915 25.3758 360.915C24.1916 360.915 23.092 360.831 21.9078 360.746C21.654 360.577 21.654 360.493 21.7386 360.324C21.8232 360.239 21.9078 360.155 21.9923 360.155C22.5844 360.155 23.1766 360.07 23.7687 360.07C25.9679 359.309 28.2518 359.056 30.6202 359.056C187.782 359.056 345.029 359.056 502.191 359.056C504.729 359.14 507.266 359.309 509.635 360.155Z" fill="#261661"/>
<path d="M382.078 70.4246C381.486 72.6227 380.556 72.8764 378.695 71.27C375.988 68.9874 373.112 67.0429 370.236 64.9293C369.728 64.9293 369.39 64.6756 369.052 64.3375C367.868 62.4775 369.559 61.3785 370.405 60.1949C376.665 51.5714 382.924 43.0326 389.099 34.3246C391.383 33.4792 390.537 35.17 390.283 36.0155C389.183 40.7499 387.999 45.3998 386.815 50.1342C385.292 56.8977 383.685 63.6611 382.078 70.4246Z" fill="#30B0E6"/>
<path d="M389.099 34.3246C389.776 36.1845 388.084 37.1145 387.323 38.2981C381.571 46.3297 375.735 54.2768 369.814 62.2239C369.306 62.9002 369.052 63.4075 369.475 64.1684C368.714 65.8592 367.783 67.381 367.445 69.241C367.107 69.7482 366.853 70.34 366.515 70.8473C366.092 71.3546 365.923 72.3691 364.992 72.2C364.146 72.0309 364.146 71.1009 363.893 70.5091C363.216 68.9874 362.624 67.4656 362.032 65.9438C361.355 63.9148 360.678 61.8857 360.002 59.7721C359.24 58.2503 360.594 57.6585 361.439 57.0667C369.391 50.3878 377.173 43.4553 385.462 37.1145C386.139 36.6073 386.9 36.2691 387.323 35.5082C387.831 35.0009 388.423 34.6628 389.099 34.3246Z" fill="#2484AD"/>
<path d="M387.153 35.3391C384.447 39.4817 380.133 41.7644 376.496 44.9771C371.167 49.7115 365.584 54.1923 360.17 58.7576C360.001 58.9267 359.916 59.3494 359.832 59.6031C356.702 58.504 353.572 57.4049 349.428 56.0522C362.539 48.9506 374.888 42.1871 387.153 35.3391Z" fill="#30B0E6"/>
<path d="M48.4682 89.6159C47.5377 88.5169 46.3535 89.0241 45.2539 88.9396C44.3234 88.855 43.5621 88.686 43.4775 87.5869C43.4775 86.4878 44.2388 86.2342 45.1693 86.1497C46.2689 86.0651 47.5377 86.4878 48.4682 85.5578C49.314 84.3742 48.8911 83.1906 48.7219 81.9225C50.4982 80.5698 51.1749 81.5843 51.0903 83.2752C51.0058 85.3042 51.3441 86.5724 53.7971 86.2342C54.8122 86.0651 56.1656 86.2342 55.9964 87.756C55.9118 89.0241 54.7276 89.1087 53.7971 88.9396C51.3441 88.6014 51.0903 89.785 51.0903 91.8141C51.0903 93.8431 50.8366 93.8431 48.7219 93.2513C48.8065 92.0677 49.2294 90.7995 48.4682 89.6159Z" fill="#FD4A6B"/>
<path d="M95.4986 55.7141C97.7824 55.8831 99.0512 57.2358 98.9666 59.3494C98.882 61.3785 97.6132 62.7311 95.4986 62.7311C93.2993 62.7311 91.8613 61.3785 91.8613 59.2649C91.8613 57.0667 93.2147 55.7986 95.4986 55.7141Z" fill="#696460"/>
<path d="M437.483 59.1803C439.259 59.5185 440.443 60.533 440.359 62.3084C440.274 64.1684 439.005 65.1829 437.144 65.0984C435.453 65.0138 434.438 63.8302 434.438 62.1393C434.522 60.3639 435.706 59.434 437.483 59.1803Z" fill="#30B0E6"/>
<path d="M511.496 360.746C511.496 360.577 511.496 360.408 511.411 360.155C519.701 360.155 527.99 360.155 536.364 360.155C537.633 360.155 538.902 360.239 540.001 359.563C540.509 359.816 541.017 360.155 542.116 360.746C531.458 360.746 521.477 360.746 511.496 360.746Z" fill="#3E229B"/>
<path d="M21.9926 360.239C21.9926 360.408 21.908 360.577 21.908 360.831C15.0564 360.915 8.2895 360.915 1.43797 360.915C0.930454 360.915 0.0845867 361.338 0 360.408C0 360.155 0.592107 359.816 0.845867 359.563C2.62219 360.577 4.56768 360.239 6.42859 360.239C11.5884 360.239 16.7482 360.239 21.9926 360.239Z" fill="#3E239B"/>
<path d="M547.783 180.669C547.783 184.304 547.783 187.94 547.783 191.575C547.445 186.503 546.346 181.43 547.699 176.442C547.699 177.795 547.699 179.232 547.783 180.669Z" fill="#8B67FE"/>
<path d="M389.691 114.894C387.492 115.233 385.293 115.571 384.108 113.034C386.054 113.204 388.169 113.034 389.691 114.894Z" fill="#292055"/>
<path d="M360.931 66.6201C360.085 66.9583 360.085 68.6492 358.647 68.0574C357.463 67.5501 358.309 66.7047 358.478 66.0283C359.662 64.9293 360.593 64.5066 360.931 66.6201Z" fill="#575655"/>
<path d="M96.3442 91.1377C96.7671 91.645 97.3592 92.0677 97.3592 92.4059C97.2747 93.4204 96.4288 94.0122 95.5829 94.3504C94.9062 94.604 94.3141 93.9276 94.3987 93.3358C94.5679 92.2368 95.6675 91.9831 96.3442 91.1377Z" fill="#595857"/>
<path d="M89.7466 99.8457C89.3236 100.776 88.8161 101.706 87.8857 101.959C87.2936 102.128 86.5323 101.621 86.786 100.945C87.0398 100.099 87.6319 99.2539 88.5623 99.0848C88.9853 99.0002 89.4082 99.592 89.7466 99.8457Z" fill="#565453"/>
<path d="M349.174 78.2026C351.035 77.7799 351.373 78.4562 350.612 79.978C349.935 80.3162 349.681 81.5843 348.666 80.7389C347.313 79.6398 349.174 79.048 349.174 78.2026Z" fill="#595755"/>
<path d="M92.7915 194.111C92.7915 192.674 93.3836 192.167 94.737 192.843C94.737 193.689 96.2596 194.365 95.1599 195.211C93.722 196.31 93.6374 194.45 92.7915 194.111Z" fill="#52504F"/>
<path d="M135.931 78.2026C136.523 78.7098 137.031 79.3016 136.438 79.978C135.931 80.5698 135.085 80.2316 134.408 80.1471C133.055 79.8934 133.732 78.9635 133.732 78.2026C134.408 78.2026 135.17 78.2026 135.931 78.2026Z" fill="#575756"/>
<path d="M119.183 81.1616C118.168 81.3307 117.66 81.2461 117.575 80.4007C117.491 79.1325 118.59 79.3862 119.267 79.1325C120.028 78.8789 120.536 79.2171 120.621 79.8934C120.705 81.2461 119.521 80.908 119.183 81.1616Z" fill="#545352"/>
<path d="M113.6 82.8525C112.754 83.0215 112.416 82.4297 112.416 81.8379C112.501 80.8234 113.516 80.8234 114.277 80.5698C115.038 80.3162 115.461 80.908 115.461 81.5843C115.377 82.6834 114.277 82.4297 113.6 82.8525Z" fill="#504E4C"/>
<path d="M347.652 83.0215C347.229 83.867 346.806 84.7124 345.791 84.966C345.283 85.1351 344.691 84.4588 344.776 84.0361C344.945 83.1061 345.622 82.2606 346.552 82.007C346.975 82.007 347.398 82.5143 347.652 83.0215Z" fill="#51504E"/>
<path d="M108.525 85.0506C107.933 84.966 107.425 84.5433 107.51 84.0361C107.679 82.8524 108.779 82.7679 109.624 82.5143C110.132 82.3452 110.639 83.0215 110.555 83.5288C110.47 84.6279 109.201 84.6279 108.525 85.0506Z" fill="#52514F"/>
<path d="M105.902 85.9806C105.818 87.0796 104.803 87.3332 104.042 87.6714C103.534 87.925 102.942 87.3332 102.942 86.826C102.942 85.6424 104.042 85.4733 104.803 85.0506C105.31 84.8815 105.649 85.4733 105.902 85.9806Z" fill="#52504E"/>
<path d="M84.5869 106.102C83.9102 106.017 83.4027 105.595 83.4873 105.087C83.741 104.242 84.1639 103.227 85.179 103.058C85.6865 102.974 86.2786 103.396 86.194 103.988C86.0249 105.003 85.4327 105.764 84.5869 106.102Z" fill="#575655"/>
<path d="M75.2824 128.675C75.0287 129.351 75.4516 130.45 74.1828 130.535C73.4215 130.535 73.1678 129.943 73.2524 129.182C73.3369 128.506 73.2524 127.576 74.2674 127.407C75.0287 127.407 75.367 127.83 75.2824 128.675Z" fill="#545251"/>
<path d="M74.5208 134.17C74.4362 134.931 74.6053 135.692 73.6749 135.777C72.5753 135.861 72.6598 135.016 72.7444 134.255C72.7444 133.663 72.7444 132.902 73.5903 132.818C74.7745 132.733 74.4362 133.663 74.5208 134.17Z" fill="#302E2C"/>
<path d="M100.236 88.2632C101.166 88.2632 101.589 88.855 101.589 89.1932C101.335 90.1232 100.489 90.715 99.6434 90.8841C99.0513 91.0532 98.5438 90.4614 98.6284 89.9541C98.6284 88.855 99.8126 88.7705 100.236 88.2632Z" fill="#4C4A48"/>
<path d="M76.4666 123.602C76.2128 124.194 76.4666 125.293 75.1978 125.293C74.4365 125.293 74.1827 124.701 74.4365 123.941C74.6056 123.264 74.6056 122.334 75.5361 122.25C76.1282 122.165 76.7203 122.588 76.4666 123.602Z" fill="#504F4D"/>
<path d="M124.173 80.3162C123.158 80.3162 122.651 79.8935 122.905 79.2171C123.243 78.2026 124.258 78.4562 125.019 78.3717C125.611 78.2871 125.95 78.7944 125.95 79.3862C125.78 80.6544 124.512 79.8089 124.173 80.3162Z" fill="#4A4846"/>
<path d="M102.096 203.158C101.927 203.749 101.504 204.257 100.997 204.088C100.066 203.834 99.4742 202.989 99.305 202.143C99.2204 201.72 99.8125 201.129 100.32 201.213C101.25 201.382 101.589 202.312 102.096 203.158Z" fill="#4C4A48"/>
<path d="M98.628 198.761C98.628 199.438 98.2051 199.945 97.6976 199.86C96.6825 199.691 96.175 198.846 95.9212 197.916C95.7521 197.324 96.4288 196.817 96.7671 196.901C97.9513 197.071 98.2051 198.085 98.628 198.761Z" fill="#4D4B49"/>
<path d="M92.4533 95.1112C92.9608 95.3649 93.5529 95.703 93.2991 96.2103C92.9608 97.0557 92.2841 97.9012 91.269 97.9857C90.8461 97.9857 90.254 97.4784 90.4232 96.8866C90.8461 96.0412 91.5228 95.3649 92.4533 95.1112Z" fill="#494846"/>
<path d="M81.9644 107.539C82.5565 107.624 83.2332 107.877 83.1486 108.385C83.064 109.315 82.5565 110.16 81.7106 110.498C81.2877 110.667 80.5264 110.244 80.611 109.737C80.611 108.807 81.2031 108.046 81.9644 107.539Z" fill="#4F4D4C"/>
<path d="M76.9741 120.136C76.382 119.967 75.7899 119.798 75.959 119.206C76.2128 118.445 76.1282 117.177 77.3124 117.092C77.9045 117.008 78.5812 117.515 78.2429 118.276C77.9891 119.037 77.9891 120.052 76.9741 120.136Z" fill="#4E4D4B"/>
<path d="M342.83 88.855C341.054 89.1087 340.715 88.4323 341.561 86.9951C342.238 86.7415 342.746 85.5579 343.676 86.5724C344.606 87.756 342.83 88.0096 342.83 88.855Z" fill="#464443"/>
<path d="M104.464 205.525C104.549 206.37 106.41 206.962 104.972 207.977C103.703 208.822 103.534 206.962 102.604 206.793C102.688 205.525 103.28 205.018 104.464 205.525Z" fill="#474645"/>
<path d="M80.4419 113.457C80.0189 114.049 80.1035 115.233 79.0039 115.233C78.4118 115.233 77.6505 114.81 78.158 113.964C78.4964 113.288 78.4964 112.189 79.6806 112.274C80.1881 112.358 80.611 112.781 80.4419 113.457Z" fill="#444241"/>
<path d="M129.587 79.978C128.91 79.978 128.318 79.978 128.318 79.1326C128.318 77.9489 129.164 78.2026 129.84 78.2026C130.433 78.2026 131.109 78.2026 131.109 79.048C131.109 80.1471 130.263 79.978 129.587 79.978Z" fill="#333130"/>
<path d="M48.4682 89.6159C49.737 90.715 49.2295 91.9831 48.7219 93.2513C48.1298 92.0677 48.3836 90.8841 48.4682 89.6159Z" fill="#FD3B5E"/>
<path d="M48.6375 81.9225C49.4834 83.1061 49.145 84.3742 48.8913 85.7269C48.8913 85.7269 48.7221 85.8115 48.6375 85.7269C48.5529 85.7269 48.4683 85.6424 48.3838 85.5578C48.3838 84.3742 48.13 83.1061 48.6375 81.9225Z" fill="#FD3B5E"/>
<path d="M217.303 92.0677C241.918 92.0677 266.533 92.1522 291.063 91.9831C294.108 91.9831 294.7 92.9977 294.7 95.7876C294.531 103.819 294.615 111.851 294.7 119.798C294.7 120.897 294.277 122.165 295.292 123.095C299.521 124.363 303.835 123.941 308.065 123.941C314.324 123.941 320.668 123.941 326.928 123.941C328.45 123.941 330.142 123.771 331.411 124.955C332.595 126.308 332.679 127.999 332.679 129.689C332.679 142.963 332.764 156.321 332.595 169.594C332.51 173.145 331.749 176.696 332.087 180.246C332.087 181.684 330.903 182.191 329.973 182.783C322.529 187.771 315.085 192.759 307.557 197.747C306.288 198.592 305.02 199.269 303.497 199.353C266.702 199.438 229.907 199.438 193.111 199.353C191.758 199.269 190.743 198.677 189.643 198C181.946 193.012 174.248 188.109 166.72 182.952C165.79 182.275 164.352 181.853 164.521 180.162C163.337 154.122 164.098 128.168 163.929 102.128C163.929 98.2393 164.859 94.6885 168.75 92.9131C170.442 92.1522 172.388 91.8986 174.164 91.3913C174.333 91.4759 174.333 91.645 174.248 91.7295C174.164 91.814 174.164 91.8986 174.079 91.8986C174.502 92.9131 175.517 92.744 176.279 92.6595C189.051 91.2222 201.824 92.4058 214.596 92.0677C215.527 93.5895 216.457 93.674 217.303 92.0677Z" fill="#FEFEFE"/>
<path d="M337.247 275.358C336.825 277.049 335.387 277.809 333.949 278.486C333.61 278.739 333.187 278.824 332.764 278.739C288.441 278.655 244.117 278.739 199.794 278.655C199.202 278.655 198.525 278.655 197.933 278.655C197.51 278.739 197.172 278.57 196.833 278.401C195.903 277.133 196.072 275.611 196.072 274.174C196.072 269.524 196.072 264.79 196.072 260.14C196.326 258.534 194.973 257.773 194.211 256.758C192.52 255.744 190.489 256.927 188.882 255.828C188.375 253.799 190.32 253.461 191.335 252.785C204.108 244.077 217.134 235.791 229.991 227.168C230.922 226.492 231.937 225.9 232.867 225.223C236.589 222.264 240.819 220.066 244.71 217.445C247.247 215.67 249.869 215.924 252.407 217.53C256.298 219.982 260.189 222.518 263.911 225.223C287.595 240.695 311.026 256.589 334.625 272.23C335.725 272.99 337.332 273.413 337.247 275.358Z" fill="#CB3C67"/>
<path d="M337.247 275.358C332.426 271.215 326.928 268.087 321.683 264.621C303.413 252.362 285.057 240.188 266.702 228.013C265.687 227.337 264.587 226.661 263.572 225.9C263.995 224.378 265.349 223.955 266.448 223.194C275.161 217.192 284.127 211.612 292.924 205.778C295.884 203.919 298.676 201.889 301.636 200.03C302.567 199.353 303.666 199.1 304.681 198.677C313.901 192.759 323.121 186.756 332.088 180.415C332.257 180.331 332.426 180.331 332.595 180.246C333.779 178.725 334.794 176.865 337.247 177.626C337.501 178.217 337.755 178.809 338.009 179.401C339.108 183.121 338.516 187.01 338.432 190.814C338.347 191.237 338.262 191.575 338.178 191.913C338.093 192.336 338.009 192.759 338.009 193.182C338.009 219.728 337.924 246.359 338.093 272.906C338.093 273.329 338.009 273.751 337.839 274.09C337.67 274.428 337.417 274.85 337.247 275.358Z" fill="#FD496A"/>
<path d="M233.036 225.9C219.079 235.2 205.123 244.415 191.166 253.715C190.32 254.306 189.474 254.983 188.628 255.574C188.374 255.913 188.036 256.082 187.613 256.251C179.747 256.758 171.88 256.335 164.014 256.504C162.66 256.504 161.307 256.504 159.953 256.589C159.53 256.589 159.192 256.504 158.854 256.251C158.854 231.311 158.854 206.455 158.854 181.515C158.854 180.162 158.431 178.725 159.361 177.541C161.138 176.78 162.068 178.133 163.252 179.063C163.506 179.401 163.591 179.908 164.014 180.077C164.183 180.077 164.352 180.162 164.521 180.162C170.442 184.812 177.04 188.616 183.215 192.928C186.091 194.872 189.051 196.732 191.927 198.592C192.773 199.184 193.788 199.015 194.634 199.522C197.679 201.551 200.64 203.58 203.685 205.525C212.482 211.358 221.279 217.276 230.076 223.11C231.26 223.871 232.698 224.378 233.036 225.9Z" fill="#FD496A"/>
<path d="M158.854 256.251C159.108 256.251 159.277 256.251 159.531 256.251C162.322 255.49 165.114 255.997 167.99 255.913C174.587 255.828 181.185 255.913 187.867 255.913C190.067 256.082 192.266 255.49 194.381 256.335C195.311 257.096 196.664 257.35 196.834 258.787C196.326 260.309 194.804 260.901 193.619 261.662C180.255 270.623 166.805 279.5 153.441 288.462C151.072 290.068 148.704 291.59 146.335 293.196C144.136 294.633 142.021 294.633 139.822 293.196C137.454 291.59 135.085 290.068 132.717 288.462C118.929 279.247 105.057 270.031 91.2693 260.816C90.5926 260.309 89.8314 259.971 89.2393 259.379C89.2393 258.026 90.0851 257.35 91.1002 256.843C91.2693 256.843 91.5231 256.758 91.6923 256.758C105.734 256.504 119.775 256.674 133.732 256.674C141.768 256.674 149.719 256.674 157.755 256.674C158.093 256.589 158.516 256.504 158.854 256.251Z" fill="#4DBEEE"/>
<path d="M132.886 288.039C135.677 289.138 137.876 291.083 140.329 292.689C142.19 293.873 143.713 293.873 145.574 292.689C148.027 291.083 150.311 289.138 153.017 288.039C154.286 288.039 155.132 288.8 156.147 289.476C168.666 297.762 181.185 306.131 193.619 314.501C194.888 315.347 196.833 315.938 196.241 318.221C195.226 319.658 193.788 319.658 192.266 319.658C159.446 319.658 126.542 319.658 93.7221 319.658C92.0304 319.658 90.2541 319.658 89.4082 317.798C89.4928 316.361 90.5078 315.6 91.6075 314.924C104.465 306.3 117.322 297.762 130.264 289.138C131.109 288.546 131.871 288.039 132.886 288.039Z" fill="#2484AD"/>
<path d="M196.326 318.221C196.241 316.699 194.972 316.192 193.957 315.516C180.931 306.808 167.905 298.1 154.794 289.392C154.202 288.969 153.694 288.462 153.102 288.039C161.814 281.529 171.204 275.865 180.17 269.693C185.583 265.973 191.166 262.423 196.749 258.787C196.833 265.297 197.003 271.807 197.087 278.401C197.256 278.655 197.256 278.824 197.087 279.078C197.087 290.914 197.003 302.75 196.918 314.67C197.003 315.854 197.426 317.207 196.326 318.221Z" fill="#30B0E6"/>
<path d="M132.886 288.039C125.188 293.873 116.899 298.861 108.863 304.271C103.281 308.076 97.6978 311.796 92.0305 315.431C91.1 316.107 90.085 316.699 89.4083 317.629C89.2391 317.037 88.9854 316.446 88.9854 315.854C88.9854 297.001 88.9854 278.148 89.0699 259.294C89.9158 259.21 90.6771 259.548 91.4384 260.055C105.057 269.101 118.675 278.232 132.209 287.278C132.548 287.532 132.717 287.785 132.886 288.039Z" fill="#30B0E6"/>
<path d="M368.206 328.451C367.868 328.451 367.614 328.366 367.276 328.366C359.748 328.197 359.663 328.197 359.917 320.504C360.509 297.931 361.609 275.442 363.554 253.038C363.639 252.108 363.639 251.178 363.723 250.164C363.554 249.826 363.385 249.487 363.216 249.149C363.047 244.415 363.893 239.765 364.231 235.03C364.569 231.395 364.823 227.675 365.331 224.04C365.5 223.11 365.5 222.18 366.176 221.419C368.207 220.574 369.137 222.18 370.321 223.279C370.49 223.617 370.575 223.955 370.66 224.378C371.759 235.538 372.69 246.697 373.535 257.773C374.466 269.355 375.566 280.853 376.496 292.435C377.257 301.397 378.019 310.274 378.611 319.236C378.78 321.772 379.457 324.224 379.457 326.76C379.457 327.605 379.034 328.282 378.357 328.789C377.849 329.127 377.257 329.212 376.665 329.296C373.874 329.212 370.913 330.226 368.206 328.451Z" fill="#5A48B5"/>
<path d="M362.539 215.078C358.986 211.527 355.349 208.061 351.796 204.51C350.274 203.073 350.443 201.72 352.05 200.283C354.334 198.17 356.364 195.802 358.563 193.604C357.548 193.097 356.026 193.942 354.926 192.928C360.509 191.913 364.146 188.193 367.783 184.304C369.475 182.698 371.082 181.007 372.774 179.401C374.635 177.626 376.496 177.626 378.356 179.316C379.625 180.5 380.81 181.684 381.994 182.867C385.377 186.418 388.422 190.307 392.06 193.604C392.736 194.281 393.413 194.957 393.328 195.971C392.313 198 390.199 198.677 388.422 199.776C385.208 201.805 382.163 204.003 378.864 205.863C376.411 207.216 374.719 209.076 374.55 211.95C374.212 212.204 373.789 212.457 373.45 212.373C369.729 210.851 366.937 212.88 364.061 214.74C363.554 215.078 363.131 215.247 362.539 215.078Z" fill="#C5C6E4"/>
<path d="M331.411 125.04C320.753 125.04 310.18 125.04 299.522 125.04C297.746 125.04 296.138 124.955 295.208 123.18C295.208 113.964 295.208 104.665 295.293 95.4494C295.293 94.5195 294.616 93.0822 295.885 92.6595C296.984 92.3213 298.169 92.9977 299.014 93.7586C302.229 96.633 305.358 99.5075 308.488 102.467C311.026 104.834 313.479 107.201 316.355 109.145C317.116 108.892 317.623 109.23 318.046 109.822C317.201 112.02 319.315 112.443 320.33 113.373C323.46 116.332 326.759 119.122 329.889 121.996C330.734 122.757 331.327 123.771 331.411 125.04Z" fill="#C5C6E4"/>
<path d="M381.571 183.628C375.481 178.048 375.481 178.048 369.221 183.882C368.883 184.135 368.544 184.389 368.206 184.643C366.261 182.952 366.43 180.923 367.36 178.809C366.514 171.538 369.644 165.62 373.873 160.041C376.242 157.758 378.018 154.799 380.64 152.77C382.84 151.502 385.208 151.924 387.576 152.093C388.169 152.178 388.676 152.516 389.184 152.854C389.353 152.939 389.522 152.939 389.691 153.023C390.537 154.207 389.776 155.306 389.353 156.321C386.138 164.099 384.362 172.215 383.009 180.5C382.924 181.684 383.178 183.121 381.571 183.628Z" fill="#FD496A"/>
<path d="M367.36 178.809C367.614 180.754 367.952 182.698 368.206 184.643C365.668 187.179 363.131 189.631 360.593 192.167C358.901 193.858 356.787 192.421 354.841 193.012C350.612 192.59 346.382 192.167 342.153 191.744C341.561 192.167 340.969 191.998 340.377 191.913C339.615 191.491 338.516 191.913 337.924 190.983C337.839 187.094 337.585 183.29 338.093 179.401C343.168 178.386 348.328 179.147 353.488 178.978C358.055 178.725 362.708 178.809 367.36 178.809Z" fill="#452B99"/>
<path d="M367.107 221.334C365.5 223.533 366.176 226.153 365.838 228.521C364.823 235.369 364.4 242.386 363.723 249.318C361.862 249.826 359.917 249.91 358.056 249.995C356.533 248.98 357.295 247.458 357.548 246.275C358.817 237.736 360.171 229.197 361.693 220.743C362.032 219.052 361.186 217.192 362.708 215.755C362.962 215.585 363.3 215.585 363.554 215.755C364.992 216.6 365.753 218.122 366.684 219.39C366.938 219.897 367.276 220.489 367.107 221.334Z" fill="#452B99"/>
<path d="M362.877 215.67L362.624 215.585C362.539 215.416 362.539 215.247 362.539 215.078C365.923 212.035 369.56 209.752 374.381 211.95C376.496 212.965 377.173 214.825 377.511 216.854C377.003 218.883 375.396 219.813 373.535 220.404C372.52 220.743 371.251 220.743 370.744 222.095C370.575 222.518 370.321 222.856 369.898 223.11C368.545 223.11 368.037 221.757 366.938 221.25C366.599 220.574 366.345 219.982 366.007 219.305C365.33 217.276 366.938 216.346 367.953 214.994C366.261 215.332 364.738 216.769 362.877 215.67Z" fill="#F5BC8D"/>
<path d="M197.087 279.078C197.087 278.824 197.087 278.655 197.087 278.401C197.256 278.401 197.425 278.401 197.594 278.317C198.44 277.978 199.286 278.148 200.132 278.148C243.694 278.148 287.172 278.148 330.734 278.148C331.58 278.148 332.426 278.063 333.272 278.317C333.525 278.401 333.779 278.401 333.948 278.486C333.948 278.655 333.948 278.824 333.948 278.993C333.102 279.669 332.087 279.416 331.241 279.416C287.51 279.416 243.863 279.416 200.132 279.416C199.286 279.416 198.44 279.585 197.679 279.162C197.425 279.078 197.256 279.078 197.087 279.078Z" fill="#E6B2C5"/>
<path d="M197.595 279.078C232.867 279.078 268.225 279.078 303.497 278.993C313.648 278.993 323.798 278.908 333.949 278.908C333.103 280.092 331.834 279.585 330.734 279.585C287.341 279.585 244.033 279.585 200.64 279.585C199.625 279.669 198.525 280.007 197.595 279.078Z" fill="#F4F7FC"/>
<path d="M92.5377 320.335C126.203 320.335 159.953 320.335 193.619 320.335C193.619 320.419 193.619 320.504 193.619 320.673C159.869 320.673 126.119 320.673 92.4531 320.673C92.4531 320.504 92.4531 320.419 92.5377 320.335Z" fill="#F7F5F8"/>
<path d="M340.462 191.406C341.054 191.491 341.646 191.491 342.154 191.575C339.278 191.913 338.94 193.773 338.94 196.394C339.024 221.25 339.024 246.19 339.024 271.046C339.024 271.976 338.94 272.906 338.94 273.836C338.94 273.92 338.77 274.005 338.686 274.005C338.601 274.005 338.517 273.92 338.347 273.92C337.671 272.906 337.755 271.722 337.755 270.539C337.755 245.26 337.755 219.897 337.755 194.619C337.755 192.928 337.417 190.645 340.462 191.406Z" fill="#F2F7FD"/>
<path d="M340.461 191.406C337.924 191.406 338.431 193.266 338.431 194.788C338.431 217.276 338.431 239.765 338.431 262.253C338.431 266.142 338.431 270.031 338.431 274.005C338.262 274.005 338.093 274.005 337.924 274.005C337.839 273.751 337.754 273.498 337.754 273.329C337.416 272.652 337.585 271.891 337.585 271.13C337.585 245.26 337.585 219.39 337.585 193.435C337.585 192.59 337.416 191.744 337.924 190.983L338.093 190.899C338.769 191.068 339.615 191.237 340.461 191.406Z" fill="#F5C8D7"/>
<path d="M368.206 328.451C371.167 328.451 374.212 328.535 377.172 328.535C378.187 330.057 377.426 331.494 376.834 332.932C373.45 336.398 369.898 336.144 368.206 332.34C368.206 331.41 368.629 330.311 367.529 329.634C367.868 329.296 368.037 328.874 368.206 328.451Z" fill="#F6BC8C"/>
<path d="M158.769 256.251C158.769 256.42 158.854 256.674 158.854 256.843C158.177 257.35 157.416 257.181 156.739 257.181C135.339 257.181 114.023 257.181 92.6223 257.181C92.1148 257.181 91.6072 257.181 91.0997 257.012L91.0151 256.843C91.0151 256.674 91.0151 256.504 91.0151 256.335C91.6072 255.744 92.3685 255.997 93.1298 255.997C114.192 255.997 135.254 255.997 156.401 255.997C156.993 255.997 157.67 255.913 158.262 256.251C158.431 256.166 158.6 256.251 158.769 256.251Z" fill="#C7B8FB"/>
<path d="M158.262 256.166C137.2 256.166 116.222 256.166 95.1599 256.251C93.8065 256.251 92.4531 256.335 91.0151 256.335C91.7764 255.236 92.9606 255.659 93.8911 255.659C114.361 255.659 134.746 255.659 155.216 255.659C156.232 255.574 157.416 255.236 158.262 256.166Z" fill="#F7F6F4"/>
<path d="M217.303 92.0677C216.965 92.9976 217.811 94.7731 216.035 94.7731C214.427 94.7731 214.85 93.1667 214.681 92.0677C214.597 90.6304 213.497 90.8841 212.567 90.8841C211.805 90.7995 210.959 90.7995 211.044 89.785C211.129 89.0241 211.89 88.855 212.482 88.9396C214.343 89.1087 214.85 88.0941 214.766 86.4878C214.681 85.6424 215.189 85.0506 216.035 84.966C217.05 84.8815 217.219 85.7269 217.134 86.4878C217.05 88.1787 217.557 89.1087 219.418 88.9396C220.01 88.855 220.771 89.0241 220.856 89.785C220.941 90.7995 220.095 90.7995 219.333 90.8841C218.488 90.8841 217.303 90.6304 217.303 92.0677Z" fill="#F3A0BC"/>
<path d="M240.564 293.45C240.818 291.421 242.002 290.237 244.117 290.322C246.232 290.406 247.501 291.759 247.331 293.788C247.247 295.817 245.809 297.17 243.779 297.085C241.749 297.001 240.564 295.648 240.564 293.45Z" fill="#7448FE"/>
<path d="M303.328 311.965C301.721 313.571 300.283 315.177 298.676 316.615C298.422 316.784 297.83 316.023 297.83 315.516C297.915 313.994 297.407 313.064 295.716 313.233C295.124 313.233 294.701 312.895 294.785 312.218C294.87 311.542 295.377 311.373 295.885 311.373C297.492 311.458 297.83 310.612 297.83 309.175C297.83 308.414 298.253 307.653 299.184 307.738C299.86 307.822 300.283 308.499 300.199 309.09C300.114 310.781 300.96 311.373 302.483 311.289C302.99 311.373 303.244 311.711 303.328 311.965Z" fill="#C8C8E5"/>
<path d="M221.025 336.06C210.282 336.398 199.455 336.313 188.713 336.06C189.305 335.299 190.235 335.468 191.081 335.468C200.301 335.468 209.521 335.468 218.741 335.468C219.502 335.468 220.433 335.299 221.025 336.06Z" fill="#FBFAFB"/>
<path d="M337.332 177.541C335.471 177.879 334.287 179.401 332.68 180.162C332.68 177.879 332.68 175.681 332.68 172.891C334.879 174.159 336.909 175.005 337.332 177.541Z" fill="#CB3D68"/>
<path d="M100.489 332.932C99.8125 333.693 98.9666 333.523 98.1207 333.523C91.6076 333.523 85.179 333.523 78.6658 333.523C77.8199 333.523 76.9741 333.693 76.2974 332.932C84.5023 332.424 92.538 332.509 100.489 332.932Z" fill="#3F239C"/>
<path d="M124.004 178.217C122.651 178.133 121.805 177.287 121.805 176.019C121.721 174.582 122.651 173.652 124.174 173.737C125.612 173.821 126.288 174.751 126.288 176.019C126.204 177.287 125.358 178.048 124.004 178.217Z" fill="#6B6662"/>
<path d="M163.337 179.57C162.068 178.894 160.715 178.217 159.446 177.626C159.784 175.681 160.968 174.582 162.745 173.906C164.436 175.597 163.591 177.541 163.337 179.57Z" fill="#CC3F69"/>
<path d="M332.426 98.662C331.834 99.3384 331.242 100.184 330.312 100.268C329.889 100.268 329.297 99.7611 329.55 99.1693C329.889 98.3239 330.565 97.563 331.58 97.4784C332.003 97.3939 332.342 97.9857 332.426 98.662Z" fill="#535151"/>
<path d="M160.715 84.7124C161.392 85.1351 162.576 84.966 162.576 86.0651C162.576 86.7414 162.068 87.2487 161.307 86.9951C160.63 86.7414 159.531 86.826 159.531 85.6424C159.531 84.966 159.869 84.4588 160.715 84.7124Z" fill="#555353"/>
<path d="M172.557 90.2077C172.303 90.8841 172.05 91.4759 171.204 91.0531C170.527 90.715 169.427 90.715 169.512 89.6159C169.597 88.855 170.189 88.5169 170.865 88.855C171.542 89.1932 172.557 89.1087 172.557 90.2077Z" fill="#525050"/>
<path d="M166.298 88.9396C165.705 88.6014 164.521 88.7705 164.606 87.5869C164.606 87.0796 164.944 86.4033 165.536 86.7414C166.298 87.0796 167.651 86.9105 167.482 88.2632C167.482 88.7705 166.974 89.1087 166.298 88.9396Z" fill="#4E4C4B"/>
<path d="M157.501 84.2897C157.247 84.966 156.824 85.3887 156.063 85.0506C155.47 84.7969 154.455 84.8815 154.455 83.9515C154.371 83.2752 154.794 82.7679 155.64 83.0215C156.401 83.2752 157.416 83.1906 157.501 84.2897Z" fill="#444341"/>
<path d="M152.51 82.2607C152.256 83.1061 152.087 83.7824 151.241 83.5288C150.564 83.2752 149.465 83.5288 149.38 82.3452C149.295 81.7534 149.549 81.3307 150.226 81.3307C151.072 81.4152 151.918 81.6689 152.51 82.2607Z" fill="#4B4A49"/>
<path d="M140.668 80.9925C140.076 80.6543 138.892 81.1616 138.892 79.8934C138.892 79.2171 139.315 78.6253 140.076 78.8789C140.753 79.1326 141.852 78.7944 141.937 79.978C141.937 80.7389 141.598 81.2461 140.668 80.9925Z" fill="#565454"/>
<path d="M358.056 249.91C359.832 248.642 361.862 249.572 363.723 249.234C363.723 249.487 363.723 249.826 363.723 250.079C361.862 249.741 359.917 250.925 358.056 249.91Z" fill="#381D92"/>
<path d="M145.405 80.0625C145.997 80.3162 147.181 80.0625 147.181 81.2461C147.181 81.9225 146.673 82.3452 145.827 82.0916C145.151 81.9225 144.22 82.0916 144.136 81.0771C144.136 80.2316 144.474 79.8089 145.405 80.0625Z" fill="#4F4E4C"/>
<path d="M323.968 105.256C323.545 106.102 322.868 106.694 321.938 106.778C321.43 106.863 320.923 106.186 321.092 105.764C321.43 104.834 322.276 104.326 323.122 104.157C323.545 104.073 323.883 104.665 323.968 105.256Z" fill="#4C4B49"/>
<path d="M336.402 94.6885C336.064 95.6185 335.387 96.2948 334.456 96.5485C333.864 96.7175 333.272 95.8721 333.441 95.6185C333.864 94.9421 334.541 94.3503 335.218 93.9276C335.81 93.5895 336.064 94.1813 336.402 94.6885Z" fill="#444341"/>
<path d="M338.939 90.0386C339.785 90.2077 340.293 90.6304 340.208 91.0532C339.954 91.8986 339.362 92.744 338.347 92.8286C337.755 92.9131 337.163 92.2368 337.332 91.8986C337.755 91.1377 338.432 90.5459 338.939 90.0386Z" fill="#454443"/>
<path d="M163.337 179.57C163.168 177.71 163.76 175.681 162.745 173.906C163.76 172.891 164.183 173.314 164.183 174.497C164.183 176.357 164.183 178.302 164.183 180.162C163.845 179.908 163.591 179.739 163.337 179.57Z" fill="#C93560"/>
<path d="M318.046 109.822C317.285 109.991 316.862 109.568 316.354 109.145C316.524 108.807 316.693 108.3 316.947 108.215C317.623 107.877 318.385 106.609 319.23 107.793C320.076 108.976 318.469 109.145 318.046 109.822Z" fill="#474544"/>
<path d="M326.335 103.566C325.659 103.566 325.151 102.889 325.236 102.551C325.574 101.621 326.335 101.029 327.35 100.86C327.604 100.776 328.196 101.452 328.112 101.706C328.112 102.889 327.097 103.143 326.335 103.566Z" fill="#464543"/>
<path d="M366.853 118.614C366.768 120.221 365.499 120.981 364.484 121.911C364.823 120.474 364.823 118.868 366.853 118.614Z" fill="#918BA8"/>
<path d="M362.793 329.804C360.847 330.48 358.817 330.311 356.787 330.311C358.733 329.212 360.763 329.973 362.793 329.804Z" fill="#F0ECF5"/>
<path d="M174.164 91.8986C174.249 91.7295 174.249 91.5604 174.249 91.4759C175.264 90.2923 176.11 91.3068 177.632 91.814C176.025 92.3213 175.095 92.3213 174.164 91.8986Z" fill="#4F4D4C"/>
<path d="M379.033 327.521C377.257 322.786 377.595 317.798 377.172 312.895C376.073 300.552 375.312 288.293 373.958 275.949C373.281 269.609 373.112 263.183 372.605 256.843C371.843 248.05 370.913 239.342 370.236 230.55C370.067 228.267 370.236 226.069 370.236 223.786C374.127 225.223 376.073 228.859 378.949 231.48C379.879 232.325 380.556 233.424 381.233 234.439C382.332 237.905 381.74 241.54 382.417 245.091C383.094 248.557 383.77 249.403 387.323 249.572C389.522 249.656 391.721 249.572 393.921 249.572C399.08 249.572 399.08 249.572 398.911 255.236C399.165 254.053 398.657 253.038 399.419 252.277C400.349 256.927 400.095 261.746 400.349 266.396C401.449 285.08 402.295 303.849 403.225 322.617C403.31 324.224 403.394 325.745 402.464 327.183C402.379 327.605 402.21 327.944 402.041 328.366C400.095 328.789 397.219 327.521 396.881 331.072C396.458 330.818 396.289 330.48 396.12 330.057C396.035 329.634 395.951 329.212 395.782 328.874C395.612 328.62 395.443 328.451 395.189 328.282C390.453 328.028 385.631 328.197 380.894 328.197C380.218 328.197 379.541 328.113 379.033 327.521Z" fill="#4E3EA2"/>
<path d="M377.088 216.854C376.158 215.247 375.312 213.641 374.381 211.95C373.535 209.498 374.381 207.807 376.581 206.455C382.079 202.989 387.492 199.522 392.99 196.056C394.598 193.435 394.175 190.983 393.075 188.278C391.214 183.797 389.522 179.232 387.915 174.667C385.97 168.918 386.985 163.676 391.129 159.111C392.821 157.251 394.767 155.982 397.389 156.236C400.603 159.364 402.21 163.591 404.325 167.396C404.917 168.41 405.002 169.594 406.186 170.186C406.44 173.99 408.385 177.372 409.062 181.176C409.739 184.896 410.754 188.616 410.669 192.421C410.246 194.703 410.923 197.07 410.669 199.353C409.992 203.073 406.524 204.426 404.24 206.708C404.156 207.047 403.987 207.3 403.817 207.554C397.051 212.626 389.691 216.6 382.079 220.066C380.894 220.658 379.626 220.151 378.441 219.474C377.426 218.798 377.426 217.699 377.088 216.854Z" fill="#2D1D66"/>
<path d="M399.334 252.277C399.249 253.63 399.164 254.898 399.08 256.251C398.234 250.586 398.234 250.586 392.059 250.586C390.283 250.586 388.507 250.586 386.73 250.586C382.839 250.502 381.74 249.318 381.401 245.598C381.147 242.47 380.725 239.342 380.725 236.214C380.725 235.453 380.302 234.608 380.048 233.847C380.048 232.917 380.555 232.241 381.232 231.733C388.084 226.153 393.666 219.136 400.602 213.641C401.533 212.965 402.717 211.189 403.563 213.726C403.732 223.786 403.394 233.931 403.732 243.992C403.986 244.922 403.986 245.852 403.732 246.867C403.394 248.642 402.463 249.995 400.602 250.417C399.503 250.502 399.418 251.347 399.334 252.277Z" fill="#452B98"/>
<path d="M403.817 246.697C403.733 245.852 403.648 245.007 403.564 244.077C403.141 234.439 403.479 224.885 403.31 215.247C403.31 214.233 403.733 213.134 402.972 212.204C395.359 219.39 387.746 226.492 380.133 233.678C376.834 230.381 373.535 227.083 370.237 223.702C370.152 223.448 370.067 223.279 370.067 223.025C370.152 222.687 370.152 222.349 370.237 222.011C370.575 221.165 371.082 220.32 371.928 220.32C374.297 220.32 376.327 219.136 378.441 218.375C380.218 219.559 381.91 219.221 383.77 218.291C390.791 214.656 397.558 210.597 404.24 206.455C405.594 208.822 404.41 211.189 404.41 213.556C404.494 223.448 404.41 233.424 404.41 243.316C404.325 244.499 404.663 245.683 403.817 246.697Z" fill="#C5C6E4"/>
<path d="M444.25 274.681C444.08 276.118 442.981 276.457 441.966 276.372C439.936 276.203 439.09 277.048 439.259 279.078C439.343 279.923 439.174 280.853 438.075 280.853C436.721 280.937 436.637 279.838 436.721 278.908C436.89 276.964 436.129 276.203 434.184 276.372C433.084 276.457 431.9 276.372 431.815 274.935C431.731 273.244 433.084 273.159 434.268 273.329C436.298 273.498 436.89 272.568 436.721 270.792C436.637 269.862 436.637 268.679 437.906 268.594C439.428 268.51 439.428 269.862 439.344 270.877C439.174 272.737 439.851 273.582 441.797 273.413C442.812 273.244 443.827 273.413 444.25 274.681Z" fill="#F3A0BC"/>
<path d="M458.799 201.889C456.515 201.805 455.246 200.368 455.246 198.254C455.331 196.141 456.769 194.788 458.968 194.872C461.083 194.957 462.267 196.394 462.351 198.339C462.436 200.537 461.083 201.805 458.799 201.889Z" fill="#908A8A"/>
<path d="M435.96 131.634C435.791 132.395 435.368 132.564 434.776 132.564C433.507 132.564 432.83 132.987 432.83 134.424C432.83 135.269 432.661 136.199 431.477 136.115C430.546 136.03 430.377 135.269 430.377 134.508C430.377 134.339 430.292 134.086 430.377 133.917C430.546 131.718 426.74 133.663 427.586 131.296C427.924 130.197 430.8 131.127 430.546 128.59C430.462 127.491 431.815 127.238 432.238 128.083C433.084 129.52 433.422 131.127 435.537 131.042C435.706 131.042 435.875 131.465 435.96 131.634Z" fill="#C8C9E5"/>
<path d="M402.041 328.366C401.787 327.859 401.787 327.436 402.464 327.183C412.868 327.183 423.188 327.183 433.592 327.183C433.592 327.436 433.592 327.69 433.592 327.944C430.8 327.944 428.009 327.944 425.133 327.944C418.451 327.944 411.853 328.028 405.171 328.113C404.071 328.113 403.056 328.282 402.041 328.366Z" fill="#F7F5F9"/>
<path d="M526.045 285.418C526.89 291.083 526.89 296.832 526.045 302.496C525.114 296.747 525.114 291.083 526.045 285.418Z" fill="#F8F7F5"/>
<path d="M410.669 199.184C409.653 196.901 409.653 194.534 410.669 192.252C411.007 194.534 411.768 196.817 410.669 199.184Z" fill="#21115D"/>
<path d="M399.249 125.631C397.642 124.532 396.373 123.18 396.204 121.151C398.573 121.658 398.657 123.856 399.249 125.631Z" fill="#4A4171"/>
<path d="M509.635 360.155C378.272 360.155 246.993 360.155 115.63 360.155C85.0095 360.155 54.3045 360.155 23.6841 360.155C29.8589 356.519 36.7104 354.828 43.562 353.307C55.7425 350.601 68.0921 349.84 80.4418 349.164C90.2538 348.657 100.066 349.418 109.793 349.587C121.889 349.756 133.985 350.686 145.997 351.447C178.562 353.307 211.213 352.546 243.779 352.461C256.382 352.377 269.07 351.7 281.674 351.193C290.302 350.855 298.929 350.348 307.557 350.009C318.469 349.587 329.381 348.91 340.292 348.149C350.189 347.389 360.001 346.881 369.898 346.205C379.541 345.613 389.268 345.359 398.911 344.852C406.693 344.429 414.559 344.176 422.341 344.514C435.029 345.021 447.717 345.613 460.321 347.389C472.755 349.164 484.936 351.785 496.947 355.42C501.345 356.604 505.744 357.872 509.635 360.155Z" fill="#30B0E6"/>
<path d="M396.627 332.847C396.797 333.27 397.05 333.608 397.135 334.031C399.334 342.57 398.911 343.077 390.283 343.077C385.208 343.077 380.218 343.077 375.142 342.992C373.028 340.456 373.366 339.357 377.088 336.821C380.725 335.383 383.601 332.424 387.577 331.748C388.507 331.833 389.268 332.424 390.03 332.932C392.314 334.876 394.428 332.509 396.627 332.847Z" fill="#E13D65"/>
<path d="M377.849 337.328C375.565 338.596 373.366 339.864 375.142 342.992C369.39 342.992 363.554 343.077 357.802 343.077C356.279 343.077 354.757 342.992 354.334 341.132C353.995 339.357 355.264 338.765 356.533 338.089C359.409 336.482 362.2 334.876 365.076 333.27C366.091 332.678 367.106 332.086 368.291 332.34C371.505 335.214 372.605 335.299 376.58 332.763C378.695 333.862 378.526 335.468 377.849 337.328Z" fill="#FD496A"/>
<path d="M396.627 332.847C394.428 334.115 392.229 335.552 389.691 333.608C389.776 333.101 389.437 332.593 389.776 332.171C390.03 332.002 390.283 331.917 390.537 331.917C392.144 332.171 393.498 332.34 394.259 330.311C394.597 329.381 395.528 328.197 396.712 329.804C396.797 330.226 396.881 330.649 396.881 331.072C396.797 331.663 396.712 332.255 396.627 332.847Z" fill="#F1B58A"/>
<path d="M56.4195 168.833C58.8725 167.311 59.9722 167.734 59.803 170.439C59.6338 173.145 60.3105 174.159 63.1864 173.906C65.5549 173.652 66.5699 174.751 65.0474 177.034C64.8782 177.034 64.7936 177.034 64.6244 177.118C63.4402 177.287 62.256 176.949 61.0718 177.372C60.818 177.456 60.6489 177.626 60.4797 177.795C60.3105 177.964 60.1413 178.133 59.9722 178.302C59.8876 179.232 59.8876 180.162 59.803 181.092C59.803 182.275 59.38 183.205 58.1112 183.29C56.8424 183.374 56.3349 182.36 56.2503 181.261C56.1658 179.908 56.0812 178.556 55.9966 177.287C54.5586 176.442 53.036 176.696 51.5981 177.118C50.4984 176.949 50.1601 176.273 50.3293 175.343C50.4984 174.413 51.2597 174.075 52.1902 173.906C53.459 173.737 54.897 174.497 55.9966 173.314C55.8274 171.708 55.4045 170.186 56.4195 168.833Z" fill="#462C9F"/>
<path d="M84.3331 175.85C84.5022 176.78 83.9947 177.203 83.318 177.118C82.303 177.118 82.303 176.019 81.8801 175.427C81.4571 174.582 82.1338 174.159 82.6413 174.159C83.9947 173.99 83.8255 175.343 84.3331 175.85Z" fill="#565453"/>
<path d="M74.7746 145.161C74.8592 145.837 74.8592 146.514 74.0133 146.598C72.7445 146.767 72.9137 145.668 72.7445 144.907C72.5753 144.231 72.7445 143.639 73.5058 143.555C74.8592 143.301 74.6054 144.4 74.7746 145.161Z" fill="#575655"/>
<path d="M74.6054 148.712C75.6204 148.965 75.4512 149.98 75.6204 150.741C75.8742 151.586 75.1975 151.924 74.5208 151.84C73.3366 151.755 73.5903 150.656 73.4212 149.895C73.252 149.05 73.8441 148.796 74.6054 148.712Z" fill="#5D5B5B"/>
<path d="M91.3535 191.152C90.5077 190.73 90.0001 189.969 89.831 189.039C89.7464 188.447 90.4231 188.024 90.846 188.109C91.8611 188.363 92.284 189.208 92.4532 190.138C92.4532 190.814 91.8611 191.068 91.3535 191.152Z" fill="#504E4E"/>
<path d="M86.8707 180.754C87.1244 181.515 86.5323 181.853 86.1094 181.937C84.756 182.106 84.8406 180.838 84.4176 180.162C84.0793 179.57 84.6714 179.147 85.0943 179.063C86.4477 178.725 86.2785 180.077 86.8707 180.754Z" fill="#504E4C"/>
<path d="M89.5772 185.234C89.7463 186.08 89.3234 186.503 88.8159 186.503C87.5471 186.587 87.4625 185.404 87.0396 184.643C86.7858 183.966 87.4625 183.628 87.8008 183.544C89.1542 183.459 88.9005 184.896 89.5772 185.234Z" fill="#504F4D"/>
<path d="M82.0492 170.947C82.2184 171.961 81.6263 172.384 81.0342 172.299C80.0191 172.215 80.0191 171.116 79.6808 170.439C79.427 169.678 79.9345 169.256 80.6958 169.256C81.7954 169.34 81.4571 170.608 82.0492 170.947Z" fill="#504F4E"/>
<path d="M76.8892 159.195C78.0734 159.111 77.9043 160.21 78.2426 160.886C78.5809 161.647 78.158 162.154 77.4813 162.239C76.2125 162.408 76.4663 161.14 76.1279 160.548C75.705 159.871 75.9588 159.364 76.8892 159.195Z" fill="#575555"/>
<path d="M74.5211 138.313C74.5211 138.482 74.5211 138.736 74.5211 138.905C74.3519 139.75 75.0286 140.934 73.5906 141.103C72.491 141.272 72.6602 140.257 72.5756 139.581C72.4064 138.059 73.3369 137.975 74.5211 138.313Z" fill="#535151"/>
<path d="M75.705 154.122C76.8046 154.292 76.5509 155.391 76.72 156.067C76.9738 156.912 76.2125 157.335 75.6204 157.166C74.6899 156.912 74.6899 155.813 74.6054 155.052C74.4362 154.292 74.9437 154.122 75.705 154.122Z" fill="#4D4C4A"/>
<path d="M78.4966 164.268C79.6808 164.268 79.5962 165.282 79.9346 165.959C80.3575 166.719 79.7654 167.142 79.1733 167.227C77.9891 167.396 78.1582 166.212 77.8199 165.536C77.4815 164.944 77.7353 164.437 78.4966 164.268Z" fill="#4C4A49"/>
<path d="M59.9721 178.217C59.8875 178.048 59.8875 177.795 59.9721 177.626C61.5793 176.611 63.271 176.78 64.9627 177.456C63.5248 179.063 61.6639 177.964 59.9721 178.217Z" fill="#FDFBFC"/>
<path d="M64.9629 177.541C63.2712 177.626 61.664 177.626 59.9723 177.71C59.9723 177.541 59.9723 177.287 59.8877 177.118C61.4948 176.442 63.2712 176.865 64.8783 176.78L64.9629 177.034C64.9629 177.203 64.9629 177.372 64.9629 177.541Z" fill="#ADA1D3"/>
<path d="M56.4191 168.833C56.3345 170.27 56.2499 171.792 56.1653 173.229C55.2349 171.708 54.8965 170.186 56.4191 168.833Z" fill="#FCFCFC"/>
<path d="M51.6826 176.949C53.2052 176.019 54.6432 175.766 56.0811 177.118C54.6432 177.118 53.2052 177.034 51.6826 176.949Z" fill="#381C97"/>
<path d="M367.445 69.241C367.36 67.212 367.022 65.1829 369.475 64.1684C369.729 64.422 369.983 64.6757 370.236 64.9293C369.306 66.3665 368.375 67.8038 367.445 69.241Z" fill="#AC3360"/>
<path d="M357.717 70.6782C357.21 71.4391 356.956 72.4536 355.856 72.4536C355.433 72.4536 354.757 71.9464 355.01 71.3546C355.349 70.5937 355.687 69.4946 356.787 69.4946C357.294 69.5791 357.802 70.0019 357.717 70.6782Z" fill="#575555"/>
<path d="M352.642 76.8499C352.134 76.5963 351.542 76.3426 351.711 75.7508C351.88 74.9054 352.472 74.1445 353.234 73.8909C353.741 73.7218 354.333 74.3136 354.333 74.7363C354.249 75.6663 353.487 76.3426 352.642 76.8499Z" fill="#413F3D"/>
<path d="M387.831 152.939C385.462 152.854 383.094 152.854 380.641 152.77C380.726 152.009 380.81 151.163 380.895 150.403C381.064 149.557 381.741 148.543 380.133 148.374C374.466 148.881 369.222 144.315 368.291 136.453C368.122 135.1 368.968 134.762 369.898 134.508C370.998 134.17 372.098 134.086 373.197 133.832C372.521 133.071 371.421 133.917 370.66 133.24C369.391 133.156 369.814 132.479 370.152 131.803C371.675 129.013 373.113 126.308 374.804 123.264C376.412 125.885 378.188 128.252 380.81 129.774C381.233 130.028 382.925 130.197 381.741 131.634C381.233 132.226 381.91 132.648 382.417 132.564C385.039 132.226 387.492 133.748 390.199 132.818C391.553 132.31 392.652 133.156 393.244 134.424C393.752 135.523 393.414 136.791 392.398 137.214C388.761 138.567 388.93 141.779 388.338 144.654C388.677 146.514 388.169 148.458 388.592 150.318C388.93 151.333 388.507 152.178 387.831 152.939Z" fill="#F6BC8C"/>
<path d="M397.389 156.067C388.677 159.787 385.885 166.381 389.099 175.343C390.876 180.246 392.737 185.234 394.682 190.053C395.697 192.59 395.443 194.534 392.99 195.971C389.184 191.829 385.378 187.771 381.571 183.628C383.009 176.188 384.024 168.748 386.562 161.562C387.577 158.688 388.677 155.898 389.776 153.023C392.568 153.277 395.105 154.376 397.389 156.067Z" fill="#452B99"/>
<path d="M388.507 150.403C387.154 148.543 387.746 146.598 388.423 144.738C388.846 144.654 389.353 144.146 389.692 144.823C389.861 145.33 389.607 145.753 389.1 146.006C388.338 147.359 389.269 148.965 388.507 150.403Z" fill="#483558"/>
<path d="M388.507 150.403C388.676 148.965 388.084 147.359 389.099 146.006C389.184 148.289 389.184 150.656 389.268 152.939C388.845 152.939 388.338 152.939 387.915 152.939C388.084 152.093 388.253 151.248 388.507 150.403Z" fill="#A47C74"/>
<path d="M370.744 133.325C371.675 133.156 372.774 132.31 373.282 133.917C372.436 133.748 371.421 134.17 370.744 133.325Z" fill="#050344"/>
<path d="M380.218 148.374C380.556 148.12 381.064 147.866 381.317 148.204C381.825 148.965 381.571 149.726 381.064 150.403C380.725 149.726 381.233 148.796 380.218 148.374Z" fill="#906E6F"/>
<path d="M184.906 144.654C182.115 143.639 181.185 141.356 181.1 138.736C181.015 134.508 181.015 130.281 181.1 126.054C181.185 121.658 183.468 119.375 187.782 119.375C208.337 119.375 228.976 119.375 249.531 119.375C253.591 119.375 255.79 121.573 255.875 125.631C255.959 130.197 255.875 134.678 255.875 139.243C255.875 141.864 254.86 143.977 252.068 144.654C231.683 144.654 211.213 144.654 190.828 144.654C188.882 144.738 186.937 144.315 184.906 144.654Z" fill="#C5C6E4"/>
<path d="M312.971 159.871C314.832 160.548 315.762 161.816 315.339 163.76C314.916 165.789 313.478 166.719 311.448 166.804C310.687 166.804 310.01 166.804 309.249 166.804C268.732 166.804 228.13 166.804 187.613 166.804C186.852 166.804 186.175 166.804 185.414 166.804C183.299 166.804 181.523 165.789 181.354 163.676C181.185 161.816 182.115 160.21 184.314 159.871C185.329 160.463 186.345 160.21 187.444 160.21C228.3 160.21 269.155 160.21 310.01 160.21C310.941 160.21 312.04 160.463 312.971 159.871Z" fill="#C5C6E4"/>
<path d="M312.971 179.57C314.832 180.246 315.762 181.515 315.34 183.459C314.917 185.488 313.479 186.418 311.449 186.503C310.687 186.503 310.011 186.503 309.249 186.503C268.563 186.503 227.961 186.503 187.275 186.503C186.768 186.503 186.26 186.503 185.668 186.503C183.723 186.503 182.031 185.911 181.439 183.882C180.762 181.853 181.946 180.5 183.638 179.57C184.653 180.077 185.668 179.824 186.768 179.824C227.792 179.824 268.901 179.824 309.926 179.824C310.941 179.824 312.041 180.077 312.971 179.57Z" fill="#C6C7E4"/>
<path d="M194.126 199.86C193.281 199.607 192.519 199.269 192.012 198.592C229.568 198.592 267.125 198.592 304.681 198.592C303.835 199.184 302.99 199.691 302.144 200.283C300.198 200.706 298.168 200.875 296.223 200.875C264.333 200.875 232.529 200.875 200.64 200.875C198.44 200.875 196.241 200.706 194.126 199.86Z" fill="#C0C3E2"/>
<path d="M184.907 144.654C185.753 143.724 186.852 144.062 187.867 144.062C208.253 144.062 228.723 144.062 249.108 144.062C250.123 144.062 251.223 143.724 252.069 144.654C250.884 145.33 249.616 145.245 248.347 145.245C228.638 145.245 208.929 145.245 189.136 145.245C187.783 145.245 186.345 145.076 184.907 144.654Z" fill="#C0C3E2"/>
<path d="M312.971 179.57C312.04 180.585 310.772 180.162 309.672 180.162C268.732 180.162 227.792 180.162 186.937 180.162C185.837 180.162 184.568 180.585 183.638 179.57C205.123 179.57 226.523 179.486 248.008 179.486C269.662 179.486 291.317 179.57 312.971 179.57Z" fill="#C0C3E2"/>
<path d="M312.971 159.871C312.041 160.886 310.772 160.463 309.672 160.463C268.986 160.463 228.215 160.463 187.529 160.463C186.429 160.463 185.16 160.886 184.23 159.871C227.2 159.871 270.086 159.871 312.971 159.871Z" fill="#C0C3E2"/>
<path d="M233.036 225.9C223.14 219.305 213.158 212.711 203.262 206.032C203.093 205.609 203.262 205.271 203.769 205.018C205.546 204.51 207.322 204.595 209.098 204.595C235.658 204.595 262.303 204.595 288.863 204.595C290.217 204.595 291.655 204.426 292.924 205.018C293.347 205.271 293.431 205.609 293.347 206.032C283.45 212.626 273.469 219.221 263.572 225.815C259.681 223.279 255.875 220.658 251.984 218.122C249.531 216.431 247.162 216.515 244.625 218.206C240.818 220.827 236.927 223.363 233.036 225.9Z" fill="#FEFEFE"/>
<path d="M333.272 278.317C332.426 278.401 331.58 278.401 330.734 278.401C287.087 278.401 243.441 278.401 199.794 278.401C199.033 278.401 198.356 278.317 197.595 278.317C198.61 277.387 199.794 277.809 200.894 277.809C243.864 277.809 286.834 277.809 329.888 277.809C331.073 277.809 332.257 277.387 333.272 278.317Z" fill="#CA3663"/>
<path d="M197.848 279.754C197.941 279.754 198.017 274.795 198.017 268.679C198.017 262.562 197.941 257.604 197.848 257.604C197.754 257.604 197.679 262.562 197.679 268.679C197.679 274.795 197.754 279.754 197.848 279.754Z" fill="#CA3663"/>
<path d="M194.296 256.335C192.181 256.335 190.151 256.251 188.036 256.251C187.867 256.082 187.783 255.913 187.867 255.828C187.952 255.659 188.036 255.659 188.121 255.659C188.29 255.659 188.544 255.659 188.713 255.659C190.574 255.744 192.519 255.828 194.38 255.913C194.38 255.913 194.465 256.082 194.465 256.166C194.38 256.166 194.38 256.251 194.296 256.335Z" fill="#CD355B"/>
<path d="M203.346 205.609C203.346 205.778 203.346 205.948 203.346 206.032C200.217 204.172 197.087 202.228 194.211 199.86C222.378 199.86 250.546 199.776 278.629 199.776C285.48 199.776 292.332 199.776 299.183 199.776C300.198 199.776 301.298 199.438 302.228 200.283C299.268 202.228 296.307 204.172 293.431 206.117C293.431 205.948 293.431 205.778 293.431 205.609C292.67 204.933 291.824 205.187 290.978 205.187C262.98 205.187 234.982 205.187 207.068 205.187C205.715 205.187 204.446 204.933 203.346 205.609Z" fill="#C5C6E4"/>
<path d="M337.755 190.983C337.755 217.276 337.755 243.569 337.755 269.862C337.755 271.046 337.67 272.145 337.67 273.329C336.74 272.314 337.163 271.13 337.163 270.031C337.163 244.753 337.163 219.559 337.163 194.281C337.163 193.182 336.655 191.913 337.755 190.983Z" fill="#FD4467"/>
<path d="M188.036 255.574C188.036 255.828 188.036 255.997 187.952 256.251C178.478 256.251 168.92 256.251 159.446 256.251C160.376 255.152 161.645 255.574 162.745 255.574C171.203 255.574 179.662 255.574 188.036 255.574Z" fill="#FE425E"/>
<path d="M91.1001 257.012C108.61 257.012 126.119 256.927 143.713 256.927C148.788 256.927 153.863 256.927 158.939 256.927C158.262 257.857 157.247 257.604 156.316 257.604C135.424 257.604 114.446 257.604 93.5531 257.604C92.6227 257.519 91.7768 257.688 91.1001 257.012Z" fill="#A78AFE"/>
<path d="M377.849 337.328C377.511 335.806 377.426 334.284 376.58 332.932C376.749 331.494 377.003 330.057 377.172 328.62C377.511 328.62 377.764 328.62 378.103 328.62C378.695 328.62 379.287 328.451 379.879 328.62C380.302 328.62 380.809 328.704 381.232 328.789C383.262 329.296 385.292 328.958 387.323 328.958C387.661 329.043 387.915 329.212 388.168 329.465C388.676 330.48 388.761 331.494 387.915 332.424C384.193 333.185 381.317 335.806 377.849 337.328Z" fill="#462A9D"/>
<path d="M379.625 329.043C379.033 329.212 378.526 329.127 378.188 328.535C378.526 328.197 378.78 327.859 379.118 327.521C379.541 327.605 379.964 327.605 380.387 327.69C380.471 327.859 380.471 327.944 380.556 328.113C380.387 328.62 380.048 328.874 379.625 329.043Z" fill="#DEDAEF"/>
<path d="M363.131 200.706C361.946 200.706 361.439 199.776 360.931 199.1C360.339 198.254 360.678 197.493 361.354 196.817C362.792 195.38 364.146 193.942 365.584 192.59C368.544 189.8 371.589 187.01 374.55 184.22C375.649 183.205 376.326 183.544 377.172 184.474C378.018 185.319 378.525 186.08 377.426 187.094C373.112 191.406 368.798 195.718 364.399 200.03C364.146 200.283 363.553 200.452 363.131 200.706Z" fill="#D6D2ED"/>
<path d="M362.877 215.67C365.245 215.839 367.106 213.641 369.813 214.317C368.037 215.67 366.853 217.276 366.176 219.305C365.076 218.122 363.977 216.938 362.877 215.67Z" fill="#C5C5E2"/>
<path d="M378.441 218.545C377.257 220.235 375.734 221.25 373.45 220.827C372.097 220.574 371.082 221.419 370.151 222.18C370.067 220.743 370.913 220.235 372.181 220.066C374.296 219.728 376.072 218.883 377.087 216.854C377.595 217.361 378.018 217.953 378.441 218.545Z" fill="#EDB185"/>
<path d="M387.999 332.255C387.915 331.156 387.83 330.142 387.83 329.043C387.661 328.62 387.83 328.282 388.168 328.028C391.044 327.774 393.92 327.183 396.712 328.366C396.712 328.789 396.627 329.212 396.627 329.634C395.866 329.127 394.851 329.296 394.851 330.057C394.512 334.284 391.89 332.593 389.776 332.171C389.353 331.663 389.522 331.072 389.437 330.48C389.437 331.072 389.268 331.663 389.776 332.171C389.86 332.593 390.452 333.101 389.691 333.439C389.099 333.185 388.591 332.763 387.999 332.255Z" fill="#F2B68A"/>
<path d="M380.302 327.69C385.8 326.929 391.299 326.76 396.712 327.859C393.836 328.535 390.96 328.028 388.084 328.197C385.8 328.958 383.517 328.874 381.233 328.451C380.894 328.282 380.556 328.113 380.218 327.859L380.302 327.69Z" fill="#4433A0"/>
<path d="M387.83 327.944C390.791 327.944 393.751 327.859 396.712 327.859C396.712 328.113 396.712 328.282 396.712 328.535C393.751 328.535 390.791 328.535 387.83 328.535C387.661 328.451 387.661 328.282 387.661 328.113C387.746 328.028 387.746 327.944 387.83 327.944Z" fill="#82639A"/>
<path d="M403.056 212.288C404.494 212.035 403.817 213.134 403.817 213.556C403.817 223.702 403.732 233.931 403.648 244.077C402.802 243.062 403.14 241.878 403.14 240.695C403.056 231.311 403.056 221.842 403.056 212.288Z" fill="#3B2094"/>
<path d="M64.9628 176.696C63.2711 176.78 61.5793 176.865 59.9722 177.034C61.5793 175.85 63.2711 176.273 64.9628 176.696Z" fill="#381C97"/>
<path d="M377.68 140.68C375.227 140.342 376.496 138.736 376.411 137.552C377.595 138.313 376.411 140.004 377.68 140.68Z" fill="#916E6F"/>
<path d="M371.674 135.185C372.435 135.269 372.773 135.692 372.689 136.284C372.604 136.791 372.35 137.045 371.843 137.045C371.335 136.96 370.828 136.622 370.997 136.03C371.082 135.692 371.505 135.438 371.674 135.185Z" fill="#302252"/>
<path d="M382.248 133.748C382.755 133.832 383.009 134.17 383.009 134.593C382.924 135.185 382.586 135.608 381.994 135.354C381.74 135.269 381.571 134.678 381.486 134.339C381.402 133.917 381.825 133.832 382.248 133.748Z" fill="#2D2051"/>
<path d="M203.347 205.609C204.193 204.426 205.461 204.933 206.561 204.933C234.39 204.933 262.304 204.933 290.133 204.933C291.232 204.933 292.501 204.51 293.347 205.609C264.926 205.609 236.42 205.609 207.999 205.609C206.476 205.609 204.869 205.609 203.347 205.609Z" fill="#C0C3E2"/>
<path d="M387.83 327.944C387.83 328.113 387.83 328.366 387.915 328.535C387.915 328.704 387.83 328.958 387.83 329.127C387.661 329.127 387.407 329.127 387.238 329.212C385.885 329.719 384.531 329.381 383.178 329.465C382.332 329.043 381.063 329.381 380.81 328.028C383.178 327.944 385.462 327.944 387.83 327.944Z" fill="#8E82C2"/>
<path d="M382.671 329.043C384.193 329.127 385.631 329.127 387.154 329.212C385.039 330.142 382.925 330.057 380.895 329.296C381.402 328.535 382.079 328.789 382.671 329.043Z" fill="#351896"/>
<path d="M382.67 329.043C382.078 329.127 381.486 329.212 380.894 329.212C380.471 329.127 380.048 329.043 379.625 329.043C379.794 328.704 380.048 328.282 380.217 327.944C380.386 327.944 380.64 327.944 380.809 328.028C381.486 328.282 382.078 328.62 382.67 329.043Z" fill="#D3CBE6"/>
<path d="M389.86 332.424C388.93 331.325 389.183 330.564 389.606 329.804C389.691 330.649 389.775 331.41 389.86 332.424Z" fill="#F1B58A"/>
</g>
<defs>
<clipPath id="clip0">
<rect width="568" height="361" fill="white"/>
</clipPath>
</defs>
</svg>
