<svg width="129" height="87" viewBox="0 0 129 87" fill="none" xmlns="http://www.w3.org/2000/svg">
<g filter="url(#filter0_d)">
<path d="M119.98 34.12L104.43 43.96L113.85 26.83C111.183 24.7018 107.882 23.523 104.47 23.48H104.22C103.141 23.5011 102.063 23.4207 101 23.24L95.74 26.58L97.99 22.48C94.2636 21.172 91.0443 18.7226 88.79 15.48L79.38 21.48L85.32 10.66C79.82 4.05 72.4 0 64.23 0C54.44 0 45.72 5.81999 40.09 14.9C38.4204 17.6191 36.0604 19.8473 33.2499 21.358C30.4394 22.8686 27.2789 23.6077 24.09 23.5H23.57C12.76 23.5 4 35.75 4 50.87C4 65.99 12.76 78.24 23.57 78.24C25.9453 78.2325 28.2829 77.6455 30.38 76.53C34.0605 74.7445 38.0845 73.7787 42.1745 73.6993C46.2645 73.6199 50.323 74.4287 54.07 76.07C57.2353 77.492 60.6646 78.2314 64.1346 78.24C67.6047 78.2486 71.0377 77.5263 74.21 76.12C77.926 74.5095 81.9446 73.7162 85.9939 73.7938C90.0432 73.8714 94.0285 74.8182 97.68 76.57C99.7643 77.6577 102.079 78.2304 104.43 78.24C115.24 78.24 124 65.99 124 50.87C124.086 45.0379 122.704 39.2778 119.98 34.12Z" fill="#F2F2F2"/>
</g>
<path opacity="0.03" d="M90.66 73.51C85.0131 72.4416 79.1762 73.0751 73.89 75.33C70.7239 76.7476 67.294 77.4804 63.825 77.4804C60.356 77.4804 56.9261 76.7476 53.76 75.33C50.0142 73.6841 45.955 72.8728 41.8643 72.9522C37.7736 73.0316 33.7491 73.9999 30.07 75.79C27.968 76.9022 25.628 77.4889 23.25 77.5C13.65 77.5 5.66 67.82 4 55.06C5.92086 53.6651 7.55127 51.909 8.79999 49.89C14.43 40.82 23.15 35 32.94 35C42.73 35 51.36 40.7 56.98 49.7C58.6615 52.42 61.0194 54.6577 63.8236 56.1947C66.6278 57.7317 69.7825 58.5157 72.98 58.47H73.23C80.82 58.45 87.44 64.57 90.66 73.51Z" fill="black"/>
<defs>
<filter id="filter0_d" x="0" y="0" width="128.004" height="86.2401" filterUnits="userSpaceOnUse" color-interpolation-filters="sRGB">
<feFlood flood-opacity="0" result="BackgroundImageFix"/>
<feColorMatrix in="SourceAlpha" type="matrix" values="0 0 0 0 0 0 0 0 0 0 0 0 0 0 0 0 0 0 127 0"/>
<feOffset dy="4"/>
<feGaussianBlur stdDeviation="2"/>
<feColorMatrix type="matrix" values="0 0 0 0 0 0 0 0 0 0 0 0 0 0 0 0 0 0 0.25 0"/>
<feBlend mode="normal" in2="BackgroundImageFix" result="effect1_dropShadow"/>
<feBlend mode="normal" in="SourceGraphic" in2="effect1_dropShadow" result="shape"/>
</filter>
</defs>
</svg>
