<svg width="123" height="89" viewBox="0 0 123 89" fill="none" xmlns="http://www.w3.org/2000/svg">
<path d="M61.5 45C57.3579 45 54 40.9705 54 36C54 31.0294 57.3579 27 61.5 27C65.6421 27 69 31.0294 69 36C69 40.9705 65.6421 45 61.5 45Z" fill="#30B0E6"/>
<path d="M62 42C59.2386 42 57 39.3137 57 36C57 32.6864 59.2386 30 62 30C64.7614 30 67 32.6864 67 36C67 39.3137 64.7614 42 62 42Z" fill="#30B0E6"/>
<path opacity="0.2" d="M62 42C59.2386 42 57 39.3137 57 36C57 32.6864 59.2386 30 62 30C64.7614 30 67 32.6864 67 36C67 39.3137 64.7614 42 62 42Z" fill="#F5F5F5"/>
<path d="M62 40C60.3432 40 59 38.2091 59 36C59 33.7909 60.3432 32 62 32C63.6568 32 65 33.7909 65 36C65 38.2091 63.6568 40 62 40Z" fill="#30B0E6"/>
<path opacity="0.25" d="M62 40C60.3432 40 59 38.2091 59 36C59 33.7909 60.3432 32 62 32C63.6568 32 65 33.7909 65 36C65 38.2091 63.6568 40 62 40Z" fill="black"/>
<path d="M73.2937 23.0044C73.2937 23.0044 83.2413 33.6764 81.8703 54.7917C81.8703 54.7917 80.6684 57.5104 77.5803 54.7917C77.5803 54.7917 80.1524 28.0193 63 23L73.2937 23.0044Z" fill="#30B0E6"/>
<path d="M50.7195 23.0044C50.7195 23.0044 40.7674 33.6764 42.1278 54.7917C42.1278 54.7917 43.3294 57.5104 46.4182 54.7917C46.4182 54.7917 43.8454 28.0193 61 23L50.7195 23.0044Z" fill="#30B0E6"/>
<path d="M55.3102 5H68.6897C73.2793 5 77 9.47714 77 15C77 20.5228 73.2793 25 68.6897 25H55.3102C50.7206 25 47 20.5228 47 15C47 9.47714 50.7206 5 55.3102 5Z" fill="#30B0E6"/>
<path d="M72.556 20.9983L95.6348 20.1802C96.536 20.1488 97.3917 19.6739 98.0204 18.8566C98.6491 18.0391 99 16.9439 99 15.8039V14.6863C99 13.5595 98.6565 12.4763 98.0405 11.662C97.4253 10.8477 96.5846 10.3648 95.6946 10.3142L72.6161 9.00442C72.1491 8.97785 71.6826 9.07124 71.2448 9.27897C70.8071 9.48672 70.4072 9.80449 70.0692 10.2131C69.7313 10.6216 69.4623 11.1126 69.2786 11.6563C69.0948 12.2 69.0001 12.7851 69 13.3764V16.6264C69.0003 17.211 69.0933 17.7897 69.2733 18.3281C69.4534 18.8666 69.7169 19.354 70.0484 19.7615C70.3798 20.169 70.7726 20.4885 71.2032 20.7009C71.6339 20.9134 72.0939 21.0145 72.556 20.9983Z" fill="#30B0E6"/>
<path d="M51.444 20.9983L28.3651 20.1802C27.464 20.1488 26.6081 19.6739 25.9796 18.8566C25.3511 18.0391 24.9996 16.9439 25 15.8039V14.6863C25 13.5595 25.3435 12.4763 25.9592 11.662C26.5748 10.8477 27.4151 10.3648 28.305 10.3142L51.3839 9.00442C51.851 8.97785 52.3174 9.07124 52.7552 9.27897C53.1929 9.48672 53.5929 9.80449 53.9308 10.2131C54.2687 10.6216 54.5377 11.1126 54.7215 11.6563C54.9052 12.2 55 12.7851 55 13.3764V16.6264C54.9997 17.211 54.9067 17.7897 54.7267 18.3281C54.5466 18.8666 54.2831 19.354 53.9516 19.7615C53.6202 20.169 53.2275 20.4885 52.7968 20.7009C52.3661 20.9134 51.9061 21.0145 51.444 20.9983Z" fill="#30B0E6"/>
<path opacity="0.2" d="M72.556 20.9983L95.6348 20.1802C96.536 20.1488 97.3917 19.6739 98.0204 18.8566C98.6491 18.0391 99 16.9439 99 15.8039V14.6863C99 13.5595 98.6565 12.4763 98.0405 11.662C97.4253 10.8477 96.5846 10.3648 95.6946 10.3142L72.6161 9.00442C72.1491 8.97785 71.6826 9.07124 71.2448 9.27897C70.8071 9.48672 70.4072 9.80449 70.0692 10.2131C69.7313 10.6216 69.4623 11.1126 69.2786 11.6563C69.0948 12.2 69.0001 12.7851 69 13.3764V16.6264C69.0003 17.211 69.0933 17.7897 69.2733 18.3281C69.4534 18.8666 69.7169 19.354 70.0484 19.7615C70.3798 20.169 70.7726 20.4885 71.2032 20.7009C71.6339 20.9134 72.0939 21.0145 72.556 20.9983Z" fill="#F5F5F5"/>
<path opacity="0.2" d="M51.444 20.9983L28.3651 20.1802C27.464 20.1488 26.6081 19.6739 25.9796 18.8566C25.3511 18.0391 24.9996 16.9439 25 15.8039V14.6863C25 13.5595 25.3435 12.4763 25.9592 11.662C26.5748 10.8477 27.4151 10.3648 28.305 10.3142L51.3839 9.00442C51.851 8.97785 52.3174 9.07124 52.7552 9.27897C53.1929 9.48672 53.5929 9.80449 53.9308 10.2131C54.2687 10.6216 54.5377 11.1126 54.7215 11.6563C54.9052 12.2 55 12.7851 55 13.3764V16.6264C54.9997 17.211 54.9067 17.7897 54.7267 18.3281C54.5466 18.8666 54.2831 19.354 53.9516 19.7615C53.6202 20.169 53.2275 20.4885 52.7968 20.7009C52.3661 20.9134 51.9061 21.0145 51.444 20.9983Z" fill="#F5F5F5"/>
<path d="M100.989 8H102.011C104.214 8 106 10.3178 106 13.1768V15.8232C106 18.6823 104.214 21 102.011 21H100.989C98.7864 21 97 18.6823 97 15.8232V13.1768C97 10.3178 98.7864 8 100.989 8Z" fill="#30B0E6"/>
<path d="M20.9894 8H22.0107C24.214 8 26 10.3178 26 13.1768V15.8232C26 18.6823 24.214 21 22.0107 21H20.9894C18.7861 21 17 18.6823 17 15.8232V13.1768C17 10.3178 18.7861 8 20.9894 8Z" fill="#30B0E6"/>
<path d="M100.249 6H102.751C103.441 6 104 6.67069 104 7.49803V7.50197C104 8.32931 103.441 9 102.751 9H100.249C99.559 9 99 8.32931 99 7.50197V7.49803C99 6.67069 99.559 6 100.249 6Z" fill="#30B0E6"/>
<path d="M100 2.33469C100 1.04528 100.895 0 102 0C103.105 0 104 1.04528 104 2.33469V4.66531C104 5.95472 103.105 7 102 7C100.895 7 100 5.95472 100 4.66531V2.33469Z" fill="#30B0E6"/>
<path d="M112 6C105.925 6 101 5.10457 101 4C101 2.89543 105.925 2 112 2C118.075 2 123 2.89543 123 4C123 5.10457 118.075 6 112 6Z" fill="#30B0E6"/>
<path d="M91.5 6C85.1488 6 80 5.10457 80 4C80 2.89543 85.1488 2 91.5 2C97.8519 2 103 2.89543 103 4C103 5.10457 97.8519 6 91.5 6Z" fill="#30B0E6"/>
<path d="M20.2492 6H22.7508C23.4407 6 24 6.67069 24 7.49803V7.50197C24 8.32931 23.4407 9 22.7508 9H20.2492C19.5593 9 19 8.32931 19 7.50197V7.49803C19 6.67069 19.5593 6 20.2492 6Z" fill="#30B0E6"/>
<path d="M20 2.33469C20 1.04528 20.8955 0 22 0C23.1046 0 24 1.04528 24 2.33469V4.66531C24 5.95472 23.1046 7 22 7C20.8955 7 20 5.95472 20 4.66531V2.33469Z" fill="#30B0E6"/>
<path d="M32.5 6C26.1487 6 21 5.10457 21 4C21 2.89543 26.1487 2 32.5 2C38.8512 2 44 2.89543 44 4C44 5.10457 38.8512 6 32.5 6Z" fill="#30B0E6"/>
<path d="M11.5 6C5.14872 6 0 5.10457 0 4C0 2.89543 5.14872 2 11.5 2C17.8512 2 23 2.89543 23 4C23 5.10457 17.8512 6 11.5 6Z" fill="#30B0E6"/>
<path opacity="0.2" d="M112 6C105.925 6 101 5.10457 101 4C101 2.89543 105.925 2 112 2C118.075 2 123 2.89543 123 4C123 5.10457 118.075 6 112 6Z" fill="#F5F5F5"/>
<path opacity="0.2" d="M91.5 6C85.1488 6 80 5.10457 80 4C80 2.89543 85.1488 2 91.5 2C97.8519 2 103 2.89543 103 4C103 5.10457 97.8519 6 91.5 6Z" fill="#F5F5F5"/>
<path opacity="0.2" d="M32.5 6C26.1487 6 21 5.10457 21 4C21 2.89543 26.1487 2 32.5 2C38.8512 2 44 2.89543 44 4C44 5.10457 38.8512 6 32.5 6Z" fill="#F5F5F5"/>
<path opacity="0.2" d="M11.5 6C5.14872 6 0 5.10457 0 4C0 2.89543 5.14872 2 11.5 2C17.8512 2 23 2.89543 23 4C23 5.10457 17.8512 6 11.5 6Z" fill="#F5F5F5"/>
<path d="M57.8007 21H66.1992C67.7461 21 69 22.567 69 24.5C69 26.4331 67.7461 28 66.1992 28H57.8007C56.2539 28 55 26.4331 55 24.5C55 22.567 56.2539 21 57.8007 21Z" fill="#30B0E6"/>
<path opacity="0.2" d="M57.8007 21H66.1992C67.7461 21 69 22.567 69 24.5C69 26.4331 67.7461 28 66.1992 28H57.8007C56.2539 28 55 26.4331 55 24.5C55 22.567 56.2539 21 57.8007 21Z" fill="#F5F5F5"/>
<path d="M63.0881 51.4077C61.7985 53.8517 62.0134 57 62.0134 57C62.0134 57 64.299 56.1902 65.5959 53.7462C66.8926 51.3023 67.3871 48.8008 66.6706 48.1538C65.9541 47.5069 64.3778 48.959 63.0881 51.4077Z" fill="#67647E"/>
<path d="M60.9118 51.4077C62.2015 53.8517 61.9866 57 61.9866 57C61.9866 57 59.701 56.1902 58.4042 53.7462C57.1073 51.3023 56.613 48.8008 57.3294 48.1538C58.0459 47.5069 59.6222 48.959 60.9118 51.4077Z" fill="#67647E"/>
<path d="M85.3519 56.0025H37.3969V88.393H85.3519V56.0025Z" fill="#DAB785"/>
<path opacity="0.1" d="M68.8554 61.6357H54.277V65.3911H68.8554V61.6357Z" fill="black"/>
<path opacity="0.1" d="M67.0331 62.1051H56.0994V64.9216H67.0331V62.1051Z" fill="black"/>
<g opacity="0.6" clip-path="url(#clip0)">
<path d="M65.292 74.4954C65.292 76.6042 63.5761 78.3137 61.4587 78.3137C60.874 78.3137 60.3191 78.1833 59.8234 77.9497C59.8672 77.9518 59.9114 77.9524 59.9558 77.9524C61.7249 77.9524 63.1592 76.5237 63.1592 74.7617C63.1592 74.144 62.983 73.5669 62.6775 73.0784C62.6575 73.0462 62.637 73.0146 62.6158 72.9834C62.6147 72.9815 62.6133 72.9796 62.612 72.9775C62.5326 72.8358 62.4876 72.6724 62.4876 72.4984C62.4876 71.9544 62.9303 71.514 63.4758 71.514C63.7491 71.514 63.9959 71.6241 64.1747 71.802C64.8657 72.4915 65.292 73.4443 65.292 74.4954Z" fill="#1D2130"/>
<path d="M59.8251 75.0217C59.1341 74.332 58.7081 73.3792 58.7081 72.3282C58.7079 70.2197 60.4236 68.5098 62.5408 68.5098C63.1257 68.5098 63.6807 68.6404 64.1764 68.8738C64.1327 68.8719 64.0885 68.8711 64.0439 68.8711C62.2748 68.8711 60.8405 70.3002 60.8405 72.0618C60.8405 72.6795 61.0166 73.2567 61.3222 73.7451C61.3424 73.7775 61.3628 73.8091 61.3839 73.8401C61.3851 73.8422 61.3866 73.8439 61.3878 73.846C61.4671 73.9879 61.5123 74.1513 61.5123 74.3255C61.5123 74.8695 61.0697 75.3099 60.5242 75.3099C60.2506 75.3099 60.0036 75.1998 59.8251 75.0217Z" fill="#1D2130"/>
</g>
<defs>
<clipPath id="clip0">
<rect width="9.84127" height="9.80392" fill="white" transform="translate(57.0793 68.5098)"/>
</clipPath>
</defs>
</svg>
