<svg width="575" height="383" viewBox="0 0 575 383" fill="none" xmlns="http://www.w3.org/2000/svg">
<g clip-path="url(#clip0)">
<path d="M466.399 159.741C475.483 165.593 483.79 172.461 491.962 179.462C507.878 193.09 522.616 207.813 534.379 225.263C537.273 229.538 536.469 233.546 532.048 236.406C528.055 238.998 524.063 241.616 519.91 243.888C515.622 246.212 512.139 249.259 509.379 253.24C508.066 255.137 506.485 256.874 505.011 258.691C504.368 259.466 504.208 260.027 505.52 260.081C493.918 272.533 483.923 286.268 472.964 299.255C467.659 305.561 462.541 312.001 457.128 318.227C455.788 319.777 455.092 321.781 453.457 323.064C451.448 325.201 449.518 327.366 447.75 329.69C441.346 338.108 432.423 341.395 422.321 341.769C412.889 342.116 403.457 342.143 394.025 341.769C381.217 341.261 368.382 341.234 355.601 340.566C346.598 340.085 337.514 340.352 328.591 338.883C325.992 338.455 323.42 337.974 320.928 337.119C310.799 333.752 301.984 328.328 294.776 320.391C291.265 316.41 288.05 312.215 285.746 307.405C285.263 306.416 284.138 305.133 286.04 304.278C290.328 303.45 294.561 304.439 298.795 304.759C312.889 305.828 326.984 307.137 341.105 308.126C348.339 308.634 355.547 309.569 362.809 309.997C365.864 310.531 368.945 310.959 371.866 312.054C373.366 312.615 374.492 311.867 375.724 311.359C381.351 311.466 386.951 312.134 392.578 312.535C401.099 313.15 409.62 314.032 418.141 314.593C419.213 314.673 420.285 314.7 421.33 314.833C428.511 315.849 434.486 313.577 438.72 307.672C445.794 297.785 452.01 287.337 458.468 277.049C463.586 268.899 468.489 260.615 473.741 252.572C481.566 240.521 480.226 228.389 473.661 216.445C470.285 210.299 465.596 205.008 461.469 199.369C454.556 189.963 447.455 180.718 440.462 171.392C439.175 169.682 437.836 167.998 437.005 166.021C435.504 162.467 437.059 159.741 440.703 159.341C446.49 159.875 452.278 159.207 458.066 159.688C460.826 159.822 463.613 159.795 466.399 159.741Z" fill="#30B0E6"/>
<path d="M126.313 187.104C125.616 187.238 125.08 186.891 124.571 186.516C123.66 185.047 123.607 183.39 123.607 181.733C123.607 161.211 123.607 140.689 123.607 120.167C123.607 118.724 123.473 117.227 124.464 115.998C125.616 115.063 127.01 115.143 128.376 115.143C168.864 115.116 209.352 115.143 249.839 115.116C250.723 115.116 251.608 115.063 252.412 115.517C252.438 136.707 252.519 157.898 252.465 179.088C252.465 183.283 249.812 186.089 245.498 187.158C244.266 187.532 242.98 187.425 241.72 187.425C208.682 187.425 175.643 187.478 142.578 187.398C137.165 187.345 131.726 187.185 126.313 187.104Z" fill="#30B0E6"/>
<path d="M284.003 203.431C283.896 202.362 282.958 201.855 282.342 201.16C277.706 195.896 276.099 189.509 275.402 182.775C275.161 180.477 275.08 178.153 274.946 175.855C275.536 174.919 276.5 174.732 277.492 174.705C284.271 174.385 291.05 173.877 297.856 173.476C307.074 172.942 316.291 172.621 325.482 171.82C328.59 171.552 331.699 171.953 334.78 171.312C339.067 170.724 343.328 171.579 347.562 171.846C361.709 172.755 375.884 173.824 389.925 175.828C395.123 176.576 400.321 177.297 405.413 178.607C415.514 181.172 420.23 186.463 420.418 196.911C420.579 206.584 419.909 216.284 419.614 225.957C419.373 234.295 418.73 242.605 418.757 250.942C418.757 252.332 419.373 254.149 417.283 254.817C416.747 252.626 417.256 250.381 416.935 248.19C417.819 255.672 416.827 263.127 416.988 270.609C417.015 271.785 417.042 272.934 417.417 274.056C417.417 276.835 418.569 279.721 416.533 282.26C415.3 280.95 416.05 279.454 416.05 277.824C415.461 280.63 416.291 283.115 416.693 285.627C416.774 286.749 416.452 287.604 415.3 288.005C412.487 288.726 409.619 289.074 406.779 289.555C404.609 289.501 404.287 287.711 403.751 286.214C400.831 277.931 398.473 269.487 396.007 261.07C392.31 247.682 389.764 234.107 388.558 220.292C388.344 217.968 388.451 215.643 388.451 213.318C388.451 211.581 387.808 210.86 385.986 211.18C378.724 212.463 371.356 213.051 364.067 213.986C350.027 215.269 335.959 215.777 321.865 215.296C315.193 215.055 308.494 214.387 301.929 212.864C296.168 211.528 290.943 209.016 286.066 205.756C285.128 205.221 284.217 204.607 284.003 203.431Z" fill="#3E5D93"/>
<path d="M284.003 203.431C293.542 210.78 304.609 213.238 316.372 214.093C325.616 214.761 334.834 214.601 344.051 214.467C350.723 214.36 357.395 213.425 364.094 213.425C365.461 214.387 365.595 215.91 365.943 217.326C366.72 224.995 363.129 230.099 356.484 233.439C353.965 234.695 351.474 236.005 348.767 236.86C347.186 237.368 345.766 238.249 344.426 239.238C339.041 243.273 337.915 249.205 341.64 254.79C349.035 265.853 357.502 276.114 365.755 286.535C368.462 289.956 371.222 293.349 373.955 296.769C376.688 300.163 379.501 303.477 382.476 306.656C384.217 308.634 386.709 308.42 388.907 308.554C392.551 308.794 396.141 309.435 399.812 309.355C402.331 309.81 404.877 309.836 407.395 310.077C408.762 310.478 410.182 310.665 411.468 311.413C413.344 312.535 414.898 310.611 416.693 310.691C418.408 310.932 420.096 311.012 421.838 310.772C424.732 310.371 426.554 308.821 427.92 306.443C430.225 304.439 433.226 303.877 435.905 302.622C436.977 302.114 438.531 301.74 437.192 300.003C436.147 298.693 433.869 299.094 433.226 297.197C433.065 296.021 433.815 295.193 434.298 294.258C442.711 277.958 450.938 261.604 458.467 244.876C462.46 236.031 461.87 228.042 458.119 219.491C452.036 205.596 444.855 192.288 437.62 179.008C435.396 174.919 432.931 170.938 431.056 166.689C429.609 163.402 429.367 160.116 431.431 156.962C432.476 155.359 433.789 154.103 435.932 154.264C442.122 154.451 448.312 154.21 454.501 154.397C454.662 154.451 454.823 154.531 454.984 154.584C456.029 156.134 457.101 157.657 458.146 159.207C457.261 160.062 456.163 159.768 455.144 159.768C450.643 159.848 446.141 159.661 441.64 159.875C441.131 160.035 440.595 160.142 440.086 159.822C437.218 160.837 436.468 162.12 437.245 164.792C437.728 166.502 438.773 167.918 439.844 169.308C450.214 183.149 460.584 196.991 470.954 210.833C475.321 216.685 478.242 223.152 479.394 230.42C480.546 237.608 479.528 244.475 475.696 250.621C463.773 269.727 452.358 289.154 439.603 307.752C435.37 313.951 429.367 316.41 421.972 315.768C420.418 315.635 418.864 315.501 417.31 315.368C403.43 314.219 389.576 313.043 375.696 311.894C375.053 311.627 374.491 311.253 374.035 310.718C356.136 288.726 338.451 266.547 320.498 244.582C320.364 244.422 320.23 244.288 320.123 244.128C315.086 235.978 307.368 231.195 299.223 226.599C282.101 216.952 265.166 207.039 248.231 197.098C248.071 196.991 247.937 196.858 247.803 196.697C247.642 196.43 247.669 196.19 247.883 195.949C253.885 195.922 259.887 195.922 265.889 195.896C267.604 195.896 269.078 196.617 270.579 197.285C275.08 199.316 279.528 201.374 284.003 203.431Z" fill="#3A3838"/>
<path d="M374.732 310.691C375.053 311.092 375.375 311.466 375.697 311.867C374.544 313.016 373.419 313.417 371.677 312.802C369.051 311.867 366.238 311.386 363.532 310.691C347.535 307.458 332.047 302.408 316.291 298.212C304.368 295.033 292.524 291.666 280.627 288.379C279.421 288.032 278.189 287.684 277.09 287.07C271.463 283.863 265.997 280.336 260.423 276.996C258.467 275.392 255.814 274.724 254.314 272.48C244.721 266.441 235.155 260.375 225.321 254.737C222.883 254.416 221.195 252.732 219.239 251.557C215.836 249.526 212.487 247.388 209.084 245.384C208.172 244.85 207.288 244.235 206.806 243.22C199.571 239.906 195.204 233.894 191.157 227.374C186.334 219.651 181.109 212.169 176.045 204.58C179.85 202.977 183.789 203.805 187.701 204.072C190.782 204.286 193.864 204.767 196.758 203.217C198.58 202.71 199.92 203.832 201.313 204.66C221.65 216.685 241.935 228.79 262.138 241.028C298.392 262.967 334.459 285.279 370.471 307.618C371.972 308.58 373.285 309.729 374.732 310.691Z" fill="#59C0EB"/>
<path d="M374.731 310.691C370.23 309.008 366.505 305.988 362.486 303.53C342.389 291.211 322.373 278.786 302.277 266.467C282.502 254.362 262.727 242.284 242.872 230.313C227.84 221.254 212.673 212.41 197.561 203.458C196.811 199.102 193.515 198.595 189.978 198.488C187.164 198.408 184.324 198.675 181.537 198.301C180.144 198.114 178.59 198.167 177.491 196.965C178.402 196.19 179.447 195.842 180.653 195.949C182.877 196.43 185.021 195.575 187.245 195.575C203.751 195.682 220.283 195.682 236.789 195.602C240.567 195.575 244.319 195.949 248.043 196.377C258.145 202.149 268.247 207.92 278.349 213.719C289.201 219.972 300.026 226.278 310.851 232.531C311.87 233.119 312.807 233.733 313.584 234.669C333.815 259.76 354.045 284.825 374.303 309.89C374.49 310.184 374.597 310.451 374.731 310.691Z" fill="#30B0E6"/>
<path d="M334.78 171.953C330.413 173.049 325.911 172.728 321.463 173.022C306.431 174.011 291.372 174.759 276.34 175.614C275.857 175.641 275.375 175.748 274.893 175.828C274.062 167.785 274.357 159.741 274.786 151.698C275.697 134.73 278.778 118.189 285.772 102.557C292.631 87.2191 302.519 74.2057 315.595 63.5973C316.774 63.7042 316.372 64.6127 316.157 65.0937C313.398 71.4267 314.067 77.8666 315.407 84.3332C312.808 103.76 319.641 120.006 332.288 134.356C334.459 136.814 337.352 138.605 338.907 141.598C339.201 143.468 338.719 145.285 338.451 147.075C337.326 154.451 336.495 161.879 335.718 169.308C335.664 170.27 335.638 171.258 334.78 171.953Z" fill="#30B0E6"/>
<path d="M315.006 84.6272C312.942 78.0804 312.567 71.587 315.434 65.1472C315.649 64.6662 316.211 64.1852 315.595 63.5973C318.355 60.9519 321.49 58.8676 325 57.291C326.608 57.4246 328.001 56.3023 329.609 56.4626C334.941 56.7833 338.773 59.7227 341.935 63.6775C344.025 66.2962 345.686 69.2623 347.482 72.0948C347.696 74.0454 348.634 75.7556 349.33 77.546C349.974 79.2561 350.59 80.9663 350.59 82.8101C353.269 93.8461 357.101 104.348 364.738 113.059C375.697 125.565 389.845 130.027 406.029 129.145C408.843 128.985 411.603 128.424 414.389 128.05C416.265 129.012 415.676 130.775 415.756 132.298C415.836 133.528 415.193 134.703 415.274 135.933C415.086 140.395 414.711 140.823 410.317 141.437C406.967 141.891 403.618 142.533 400.215 142.506C399.223 142.479 398.259 142.533 397.294 142.853C380.922 144.296 365.059 143.04 350.429 134.623C349.518 134.089 348.553 133.581 347.482 133.447C344.588 132.592 343.168 129.626 340.461 128.477C329.207 119.232 321.061 107.875 316.721 93.9263C315.783 90.9334 314.684 87.8872 315.006 84.6272Z" fill="#30B0E6"/>
<path d="M222.079 375.491C201.607 371.43 187.352 359.832 181.377 339.818C175.428 319.857 180.305 301.9 195.793 287.845C211.361 273.709 229.608 271.037 249.357 278.252C249.812 278.412 250.268 278.599 250.696 278.786C251.42 279.641 250.991 280.496 250.536 281.191C248.767 284.104 247.374 287.203 245.712 290.169C244.587 292.147 243.14 292.761 240.862 292.067C234.11 289.982 227.277 289.875 220.444 291.692C207.261 295.14 196.65 307.512 195.444 320.846C194.935 323.598 194.56 326.35 195.418 329.129C197.025 343.238 204.769 352.831 217.792 357.802C236.361 364.883 255.841 355.717 262.915 337.092C264.308 333.458 264.791 332.87 268.676 333.351C272.427 333.806 276.259 333.351 279.93 334.367C280.868 335.409 280.412 336.585 280.091 337.68C274.517 357.935 261.307 370.387 241.05 375.571C239.844 375.892 238.612 376.186 237.325 376.293C233.413 377.068 229.448 376.961 225.509 376.72C224.303 376.64 223.044 376.453 222.079 375.491Z" fill="#3A3838"/>
<path d="M280.01 334.687C275.83 334.5 271.65 334.367 267.47 334.073C265.568 333.939 264.657 334.34 263.96 336.398C258.681 352.27 244.131 361.783 226.982 360.794C211.763 359.913 198.445 348.128 195.042 332.496C194.828 331.454 194.801 330.385 194.694 329.343C194.667 326.43 194.962 323.545 194.748 320.632C195.525 306.71 208.145 293.082 222.883 290.303C229.206 289.101 235.503 289.341 241.559 291.532C243.381 292.173 244.131 291.746 244.908 290.169C246.784 286.348 248.794 282.58 250.723 278.813C251.929 276.728 253.161 274.644 254.367 272.56C256.564 273.896 258.762 275.259 260.932 276.595C261.012 279.214 259.137 281.057 258.279 283.302C256.109 286.642 254.716 290.383 252.599 293.75C251.714 295.166 252.197 296.315 253.376 297.304C259.244 302.221 263.183 308.42 265.326 315.769C265.755 317.238 266.505 318.2 268.14 318.147C272.508 318.013 276.848 318.334 281.189 318.655C285.852 318.761 290.568 317.986 295.069 319.884C302.143 327.366 310.53 332.87 320.284 336.317C318.944 337.707 317.202 337.36 315.621 337.253C306.698 336.692 297.776 336.317 288.853 336.13C285.852 336.024 282.797 336.05 280.01 334.687Z" fill="#6AAFEA"/>
<path d="M542.337 281.618C554.797 289.715 562.969 300.778 565.971 315.448C571.464 342.33 553.779 369.185 526.823 374.85C525.965 375.037 525.108 375.251 524.277 375.438C520.017 377.736 515.435 376.667 510.96 376.667C510.102 376.667 509.245 376.426 508.388 376.293C490.274 373.033 476.93 363.333 469.052 346.685C465.622 339.417 463.666 331.721 464.711 323.545C465.06 322.663 465.863 322.315 466.641 321.941C470.258 320.178 473.902 318.441 477.385 316.41C478.511 315.742 479.743 314.994 481.137 315.849C481.967 316.998 481.673 318.254 481.512 319.51C478.618 339.658 491.56 356.973 511.657 359.913C531.673 362.825 550.885 346.338 550.938 326.19C550.992 310.531 542.793 298.453 528.136 292.521C527.332 292.2 526.474 291.933 525.938 291.158C525.617 290.33 526.18 289.875 526.742 289.528C531.324 286.802 535.987 284.264 540.649 281.699C541.158 281.405 541.774 281.271 542.337 281.618Z" fill="#3A3838"/>
<path d="M507.851 375.464C513.317 376.159 518.783 376.133 524.249 375.438C525.134 376.346 526.286 375.945 527.304 375.945C534.994 375.972 542.685 375.972 550.375 375.972C551.152 375.972 551.956 375.865 552.706 376.052C554.555 376.48 556.189 377.576 556.082 379.526C555.948 381.584 554.635 383.107 552.197 382.973C551.527 382.947 550.83 382.973 550.16 382.973C434.753 382.973 319.346 382.973 203.965 382.973C203.483 382.973 203.001 382.947 202.492 382.973C200.16 383.08 198.419 382.305 198.178 379.74C197.91 376.72 200.214 376.133 202.358 376.052C206.725 375.839 211.12 376.079 215.487 375.945C217.685 375.892 219.935 376.56 222.079 375.491C227.358 376.133 232.636 376.133 237.942 375.491C241.157 375.785 244.292 374.984 247.508 374.984C331.109 375.037 414.71 375.037 498.312 374.984C501.5 374.984 504.662 375.732 507.851 375.464Z" fill="#DFDFDF"/>
<path d="M251.367 92.7505C252.68 94.4072 252.492 96.3846 252.492 98.3086C252.465 101.702 252.412 105.096 252.385 108.489C251.287 109.558 249.866 109.425 248.527 109.425C208.521 109.451 168.516 109.451 128.51 109.425C127.144 109.425 125.777 109.505 124.572 108.65C120.552 100.526 125.509 91.842 134.405 91.842C172.106 91.7618 209.781 91.7885 247.482 91.8152C248.848 91.8152 250.215 91.7885 251.367 92.7505Z" fill="#30B0E6"/>
<path d="M542.337 281.618C536.924 284.691 531.485 287.764 526.072 290.837C524.625 293.109 521.892 293.483 519.882 294.926C518.408 295.968 516.72 296.796 515.113 297.705C512.674 298.693 510.611 300.35 508.226 301.419C505.868 302.782 503.457 304.011 501.125 305.374C498.392 306.977 495.472 308.26 492.819 309.97C488.666 311.573 485.263 314.646 480.895 315.849C475.375 317.906 470.364 321.006 465.086 323.571C463.237 325.629 460.638 326.243 458.146 326.965C456.806 327.339 455.439 327.072 454.582 325.709C455.198 323.144 457.396 321.834 459.164 320.284C465.434 314.78 471.409 308.955 477.653 303.396C486.87 295.193 495.82 286.722 504.93 278.438C510.825 273.094 516.694 267.723 522.481 262.245C523.526 261.257 524.464 260.081 526.045 259.894C534.512 261.15 542.042 264.543 548.446 270.208C551.903 273.281 551.474 276.221 547.562 278.519C545.82 279.534 544.078 280.576 542.337 281.618Z" fill="#30B0E6"/>
<path d="M340.997 17.6362C344.346 11.0627 349.974 7.08118 356.056 3.17984C359.968 0.66801 363.398 -0.213802 368.007 0.0801355C374.143 0.480959 380.225 0.293908 385.986 2.85918C387.192 3.39361 388.13 4.03493 388.559 5.39773C390.327 11.036 392.149 16.6475 393.971 22.259C394.507 24.664 392.605 24.664 391.185 24.9312C384.03 26.2138 376.822 27.1758 369.641 28.2981C368.864 28.4317 368.114 28.592 367.364 28.7524C362.219 29.073 357.101 28.8325 351.956 28.9127C349.759 28.7256 347.348 29.5006 345.418 28.3783C343.462 27.2292 343.945 24.5838 343.114 22.6866C342.39 21.0031 341.292 19.4533 340.997 17.6362Z" fill="#30B0E6"/>
<path d="M124.517 108.463C167.149 108.463 209.753 108.49 252.384 108.49C252.384 110.814 252.384 113.166 252.384 115.491C251.339 116.212 250.16 116.052 248.981 116.052C207.502 116.052 166.023 116.052 124.544 116.052C124.437 115.945 124.33 115.838 124.196 115.731C124.035 115.464 123.928 115.17 123.874 114.849C123.794 112.818 123.445 110.788 124.169 108.81C124.276 108.703 124.41 108.57 124.517 108.463Z" fill="#2484AD"/>
<path d="M526.045 259.894C519.507 265.933 513.023 272.025 506.458 278.038C495.954 287.631 485.37 297.117 474.866 306.683C468.918 312.108 463.103 317.612 457.208 323.09C456.351 323.865 455.466 324.613 454.582 325.362C452.76 324.8 452.492 323.812 453.752 322.396C455.627 317.933 459.352 314.833 462.272 311.146C468.837 302.889 475.616 294.846 482.262 286.669C489.041 278.358 495.793 270.021 502.492 261.631C503.35 260.562 504.689 260.963 505.52 260.134C512.353 258.638 519.185 258.237 526.045 259.894Z" fill="#59C0EB"/>
<path d="M251.366 92.7505C212.46 92.7505 173.526 92.7505 134.619 92.7505C127.787 92.7505 124.544 96.0373 124.544 102.931C124.544 104.775 124.544 106.619 124.518 108.463V108.49C124.062 108.89 123.553 109.184 122.963 109.238C121.007 109.371 120.632 110.627 120.686 112.257C120.739 113.7 120.659 115.17 120.659 116.613C120.659 136.414 120.659 156.187 120.632 175.961C120.632 177.458 121.088 179.115 119.721 180.344C119.105 179.462 119.319 178.473 119.319 177.511C119.319 150.87 119.292 124.229 119.319 97.5871C119.319 92.029 122.213 88.6888 127.438 88.1277C128.349 88.582 129.341 88.3682 130.305 88.3682C167.336 88.3682 204.368 88.3682 241.399 88.3682C242.363 88.3682 243.355 88.582 244.266 88.1277C247.615 88.2346 250 89.7043 251.366 92.7505Z" fill="#59C0EB"/>
<path d="M182.851 193.678C181.859 192.796 180.654 193.063 179.528 193.063C166.747 193.063 153.966 193.063 141.157 193.063C139.764 193.063 138.344 193.09 137.647 191.594C137.085 190.364 137.085 189.135 138.397 188.28C139.389 187.505 140.568 187.505 141.72 187.505C175.804 187.505 209.914 187.478 243.998 187.505C244.292 187.505 244.587 187.559 244.882 187.585C245.07 187.612 245.257 187.665 245.445 187.692C246.892 188.333 247.508 189.456 247.16 190.979C246.838 192.395 245.873 193.09 244.4 193.037C242.604 193.865 240.38 194.025 239.335 196.136C238.987 196.056 238.719 195.896 238.478 195.628C237.433 193.705 235.557 193.972 233.842 193.945C219.828 193.918 205.814 193.945 191.8 193.918C190.541 193.918 189.282 193.972 188.022 193.838C186.334 193.811 184.593 194.025 182.851 193.678Z" fill="#BBBBBB"/>
<path d="M387.942 43.0752C391.211 50.4503 390.381 55.0464 384.754 60.8183C383.467 62.1276 382.181 63.4637 380.815 64.7196C378.564 66.7772 376.018 68.0331 372.91 67.0978C369.909 66.1893 366.613 65.9755 364.148 63.6507C360.557 60.551 358.173 56.5695 356.002 52.4544C354.877 50.3167 353.51 48.3126 352.653 46.0412C352.626 45.3999 352.814 44.9189 353.457 44.7052C355.172 44.7853 355.52 46.255 356.163 47.404C358.414 51.4924 360.665 55.5541 363.585 59.215C366.586 62.9827 367.685 62.9025 369.855 58.734C371.463 55.6343 372.562 52.2941 373.955 49.1142C374.786 47.1903 374.196 46.255 372.213 45.8008C368.918 44.9991 366.051 43.4493 363.853 40.8038C363.183 40.0022 362.246 39.3074 362.808 38.0248C365.086 37.6774 365.783 40.2159 367.605 40.6969C372.83 44.0104 378.51 43.6363 384.245 42.8614C385.531 42.6476 386.763 42.3804 387.942 43.0752Z" fill="#E5EEF3"/>
<path d="M454.984 154.557C454.877 154.584 454.77 154.611 454.662 154.664C454.528 154.611 454.394 154.557 454.234 154.477C453.939 154.344 453.644 154.264 453.349 154.237C447.508 154.13 441.64 154.157 435.799 154.237C433.467 154.664 431.592 153.355 429.528 152.714C427.974 151.992 426.367 151.297 424.946 150.335C422.481 148.705 420.874 146.594 421.329 143.415C421.463 142.773 421.731 142.239 422.374 141.945C424.009 141.597 425.295 142.559 426.715 143.094C429.85 147.77 434.914 147.369 439.577 147.717C442.524 147.93 444.775 144.831 444.561 141.731C444.48 140.342 443.703 139.166 443.489 137.803C443.408 136.52 443.14 135.184 444.185 134.115C449.491 136.734 454.582 139.727 459.244 143.388C460.531 144.403 461.79 145.526 462.781 146.808C464.898 149.507 463.934 152.553 460.718 153.756C458.869 154.424 456.913 154.477 454.984 154.557Z" fill="#30B0E6"/>
<path d="M206.833 243.246C213.076 246.987 219.373 250.648 225.375 254.763C214.255 259.012 203.135 263.261 192.015 267.456C191.426 267.697 190.675 267.563 190.006 267.616C189.684 267.002 189.952 266.467 190.273 265.986C193.542 260.856 196.436 255.485 199.625 250.327C199.973 249.74 200.348 249.178 201.099 249.072C204.153 248.27 205.279 245.544 206.833 243.246Z" fill="#3A3838"/>
<path d="M353.725 44.8388C353.457 45.2129 353.216 45.5602 352.948 45.9343C352.895 46.2283 352.761 46.4955 352.519 46.7093C350.858 47.8316 348.929 48.0454 347.053 48.5263C345.07 48.6065 343.302 48.3126 342.471 46.1481C340.113 40.5366 339.202 34.7113 339.685 28.6722C340.703 27.6835 342.016 27.6034 343.195 27.8973C345.847 28.5921 348.527 28.2981 351.206 28.405C356.699 28.3516 362.166 28.5119 367.659 28.3248C372.643 28.2981 377.385 29.9014 382.235 30.5427C382.477 30.6763 382.691 30.8634 382.825 31.1039C380.762 31.6918 382.905 33.2416 382.128 34.1234C381.485 34.5777 380.788 34.5777 380.038 34.4441C378.832 34.0967 377.627 33.9631 376.394 34.4174C375.456 34.6579 374.545 35.0052 373.554 35.0587C371.49 34.8182 370.526 36.4215 369.293 37.5972C366.507 40.2427 365.435 40.1358 363.264 36.9292C362.675 36.0474 362.246 35.0854 361.844 34.1234C361.442 32.8675 360.612 31.7986 360.263 30.5427C360.29 30.2755 360.585 30.0083 360.585 29.8213C360.585 29.4739 360.29 29.7678 360.156 29.7945C359.459 30.035 358.709 30.1686 357.986 30.4091C353.189 31.7185 351.421 34.9251 352.519 39.7349C352.975 41.3917 354.609 42.8346 353.725 44.8388Z" fill="#3A3838"/>
<path d="M201.099 249.072C197.401 255.244 193.703 261.444 189.979 267.616C186.576 273.361 183.253 279.133 179.743 284.825C178.644 286.615 176.769 287.711 174.786 286.348C172.776 284.959 173.419 282.901 174.464 281.137C180.574 270.903 186.737 260.669 192.873 250.434C193.784 248.938 194.668 247.442 195.579 245.945C197.455 242.765 199.866 241.456 201.528 242.899C203.912 245.01 202.412 247.067 201.099 249.072Z" fill="#BBBBBB"/>
<path d="M124.544 116.052C124.544 138.311 124.544 160.543 124.49 182.802C124.49 184.031 125.08 185.261 124.571 186.49C122.079 185.581 120.578 183.818 119.962 181.279C120.364 180.237 120.149 179.168 120.149 178.099C120.176 157.711 120.149 137.322 120.149 116.96C120.123 116.586 120.203 116.239 120.417 115.891C121.811 115.063 123.177 115.09 124.544 116.052Z" fill="#59C0EB"/>
<path d="M382.797 31.0505C377.947 30.6496 373.178 29.6877 368.435 28.5921C368.087 28.5119 367.712 28.4317 367.551 28.0576C373.044 26.5078 378.724 26.1604 384.298 25.1984C386.951 24.7174 389.63 24.3701 392.31 23.996C393.355 23.8624 393.81 23.2478 393.917 22.2591C394.507 23.5951 395.632 23.5417 396.838 23.515C401.902 23.4348 406.94 23.4883 412.004 23.3279C414.335 23.2478 414.764 24.1028 413.907 26.0535C411.951 30.516 407.985 31.1841 403.805 31.5047C400.75 31.2909 397.722 31.7452 394.668 31.5582C393.006 31.7719 391.318 31.665 389.71 32.1728C387.299 32.5201 384.941 32.3865 382.797 31.0505Z" fill="#59C0EB"/>
<path d="M444.186 134.115C444.159 135.505 444.105 136.921 444.078 138.311C444.32 140.048 443.891 141.571 442.712 142.88C442.39 143.254 441.935 143.602 441.452 143.415C440.943 143.227 440.863 142.693 440.836 142.212C440.809 141.624 440.97 141.063 440.97 140.475C440.97 137.509 439.764 135.184 437.112 133.821C434.352 132.405 431.672 132.646 429.18 134.596C428.35 135.264 427.653 136.12 426.661 136.547C423.768 137.776 420.847 138.337 417.765 137.295C416.64 136.921 415.756 136.013 414.55 135.852C414.47 133.26 415.863 130.615 414.416 128.05C416.667 128.504 418.73 127.676 420.82 127.168C424.009 126.366 427.224 125.565 430.413 124.763C436.469 123.267 441.452 125.965 443.542 131.898C443.784 132.619 443.971 133.367 444.186 134.115Z" fill="#FEAA96"/>
<path d="M178.591 382.973C175.081 382.973 171.598 382.947 168.087 382.973C165.917 382.973 164.443 382.011 164.336 379.82C164.202 377.549 165.595 376.052 167.846 376.026C175.242 375.919 182.637 375.892 190.006 376.052C191.962 376.079 193.596 377.175 193.463 379.553C193.329 381.904 191.989 383 189.658 382.973C185.987 382.973 182.289 382.973 178.591 382.973Z" fill="#DFDFDF"/>
<path d="M373.633 34.551C374.544 34.3105 375.482 34.0967 376.393 33.8562C377.545 33.4286 378.724 33.4821 379.877 33.8028C380.654 33.8295 381.458 33.8562 382.235 33.8829C384.968 32.4132 387.754 32.5201 390.514 33.776C390.648 35.1121 389.523 35.7801 388.88 36.662C387.353 38.6394 386.87 40.6969 387.942 43.0217C381.886 43.7432 375.804 45.4266 369.828 42.6476C368.783 42.1666 367.631 41.8994 366.935 40.884C368.194 37.7843 370.257 35.4862 373.633 34.551Z" fill="#F1998C"/>
<path d="M342.525 46.1214C343.865 47.2705 345.419 47.8583 347.187 47.8316C348.125 48.4729 348.5 49.4883 348.741 50.5305C350.135 56.142 351.85 61.6467 353.725 67.1246C353.993 67.9529 354.261 68.7813 353.967 69.6631C352.788 70.8656 352.091 69.6631 351.367 69.0752C346.035 64.7464 341.507 59.5089 336.201 55.1266C335.29 54.3784 334.111 53.5233 334.781 51.9734C337.38 50.0228 339.953 48.0721 342.525 46.1214Z" fill="#F19A8C"/>
<path d="M334.807 51.9467C334.807 52.588 335.182 53.0423 335.611 53.4431C341.613 58.9745 347.615 64.4791 353.617 70.0105C353.858 70.1173 354.046 70.2777 354.18 70.5182C356.725 72.6292 355.037 75.1677 354.608 77.4123C354.287 79.0691 352.867 76.3702 352.036 77.5726C350.294 75.9426 348.204 74.6333 347.159 72.3352C344.962 70.2509 343.917 67.365 342.122 65.0135C338.987 60.9251 335.369 57.6117 329.903 57.1307C329.18 56.81 328.295 56.7566 327.894 55.9015C329.823 53.9508 332.583 53.4164 334.807 51.9467Z" fill="#E5EEF3"/>
<path d="M177.492 196.991C182.798 198.114 188.264 197.232 193.596 198.087C197.375 198.701 198.071 199.583 197.562 203.485C195.177 206.237 191.962 205.382 189.122 205.088C184.754 204.607 180.413 204.767 176.072 204.634C173.795 201.133 174.223 198.862 177.492 196.991Z" fill="#F22F6B"/>
<path d="M354.153 70.5449C353.966 70.3845 353.778 70.1975 353.591 70.0372C351.581 63.1163 349.545 56.1687 347.535 49.2478C347.401 48.7935 347.294 48.3125 347.187 47.8583C348.928 47.2971 350.67 46.7627 352.412 46.2015C353.135 46.9765 353.242 47.9652 353.189 48.9271C352.921 53.4164 354.93 56.7031 358.441 59.3218C359.486 60.0967 360.852 60.845 360.102 62.5819C358.119 65.2273 356.136 67.8727 354.153 70.5449Z" fill="#EB786B"/>
<path d="M568.033 382.973C566.854 382.973 565.702 382.973 564.523 382.973C562.353 383 560.906 381.958 560.718 379.82C560.558 377.789 562.004 376.4 563.826 376.213C566.613 375.919 569.454 375.946 572.24 376.213C574.062 376.4 575.188 377.923 574.946 379.767C574.732 381.584 573.741 383.053 571.517 383C570.364 382.973 569.212 382.973 568.033 382.973Z" fill="#DFDFDF"/>
<path d="M152.84 382.973C151.688 382.973 150.509 383.027 149.356 382.973C147.24 382.866 145.686 381.744 145.686 379.633C145.686 377.602 147.213 376.239 149.223 376.052C151.634 375.839 154.072 375.892 156.484 376.026C158.654 376.159 159.86 377.789 159.994 379.686C160.128 381.691 158.574 382.786 156.618 382.946C155.359 383.053 154.099 382.973 152.84 382.973Z" fill="#DFDFDF"/>
<path d="M126.312 187.104C127.224 186.222 128.349 186.597 129.367 186.597C167.068 186.57 204.742 186.57 242.443 186.597C243.462 186.597 244.614 186.222 245.498 187.131L245.552 187.211C244.507 187.933 243.301 187.719 242.149 187.719C208.681 187.719 175.187 187.799 141.72 187.639C136.789 187.612 131.806 187.692 126.875 187.238C126.688 187.211 126.5 187.158 126.312 187.104Z" fill="#59C0EB"/>
<path d="M126.876 187.265C131.94 187.238 136.978 187.184 142.042 187.184C176.554 187.184 211.04 187.211 245.552 187.238C245.526 187.398 245.499 187.559 245.499 187.719L245.472 187.746C244.668 188.253 243.757 188.04 242.9 188.04C209.004 188.04 175.107 188.04 141.185 188.04C140.327 188.04 139.443 188.253 138.612 187.772C134.727 187.318 130.761 188.2 126.876 187.265Z" fill="#59C0EB"/>
<path d="M244.293 88.1277C243.409 89.0362 242.283 88.6621 241.238 88.6621C204.314 88.6888 167.39 88.6888 130.493 88.6621C129.475 88.6621 128.323 89.0362 127.438 88.1277C128.108 88.0742 128.805 88.0208 129.475 88.0208C167.069 88.0208 204.663 88.0208 242.256 88.0208C242.953 88.0208 243.623 88.1009 244.293 88.1277Z" fill="#59C0EB"/>
<path d="M138.612 187.772C174.223 187.772 209.834 187.746 245.445 187.746C244.882 188.521 244.078 188.334 243.301 188.334C208.333 188.334 173.365 188.307 138.397 188.28C138.478 188.093 138.558 187.933 138.612 187.772Z" fill="#B6BAC6"/>
<path d="M360.102 62.5551C359.995 61.0854 358.843 60.5243 357.798 59.8295C352.841 56.5428 351.956 51.626 352.412 46.2015C352.6 46.1214 352.787 46.0145 352.948 45.9343C356.565 51.8932 359.915 58.0659 364.148 63.6507C362.648 63.8912 361.817 61.5932 360.102 62.5551Z" fill="#F19A8C"/>
<path d="M350.991 28.5921C347.24 28.6188 343.488 28.6455 339.764 28.6455C339.871 24.9312 340.434 21.2704 340.996 17.6362C343.167 19.7472 344.238 22.5263 344.694 25.332C345.069 27.737 346.034 28.3783 348.231 28.0844C349.276 27.9508 350.348 28.1111 351.42 28.1645C351.366 28.405 351.232 28.5386 350.991 28.5921Z" fill="#30B0E6"/>
<path d="M239.094 195.709C239.282 195.789 239.47 195.789 239.657 195.709C241.238 194.8 242.792 194.854 244.373 195.709C245.552 195.789 246.731 195.896 247.91 195.976C247.964 196.109 248.017 196.27 248.071 196.43C226.233 196.457 204.394 196.484 182.556 196.51C181.886 196.51 181.19 196.59 180.681 196.003C181.324 195.922 181.94 195.842 182.583 195.735C184.325 194.827 186.174 195.067 188.023 195.067C204.046 194.854 220.043 195.014 236.067 194.987C237.112 194.987 238.157 195.067 239.094 195.709Z" fill="#30B0E6"/>
<path d="M120.418 116.052C120.418 136.868 120.418 157.711 120.418 178.527C120.418 179.462 120.739 180.477 119.936 181.306C119.882 180.985 119.828 180.664 119.748 180.344C119.775 162.307 119.802 144.243 119.855 126.206C119.855 122.812 119.882 119.419 119.909 116.025C120.096 115.865 120.257 115.891 120.418 116.052Z" fill="#59C0EB"/>
<path d="M390.514 33.8295C387.754 33.776 384.994 34.444 382.235 33.9363C381.672 32.8408 380.225 31.5581 382.797 31.0504C385.155 31.2107 387.486 31.3711 389.844 31.5047C390.782 31.1039 391.747 31.2909 392.712 31.3444C393.301 31.5581 393.998 31.5314 394.48 32.0926C393.408 33.2416 391.72 33.0011 390.514 33.8295Z" fill="#3A3838"/>
<path d="M347.16 72.3619C348.848 74.0454 351.367 74.9539 352.037 77.5994C351.554 79.3363 351.072 81.0732 350.59 82.8101C349.33 79.6569 348.071 76.5038 346.812 73.3239C346.651 72.9231 346.812 72.6024 347.16 72.3619Z" fill="#30B0E6"/>
<path d="M441.051 159.661C445.472 158.806 449.92 159.501 454.368 159.287C455.627 159.234 456.887 159.207 458.146 159.18C460.879 159.661 463.72 158.699 466.399 159.741C463.746 161.051 460.933 160.035 458.2 160.356C453.511 159.688 448.795 160.249 444.105 160.035C443.087 160.009 441.989 160.409 441.051 159.661Z" fill="#30B0E6"/>
<path d="M187.701 195.709C185.986 195.709 184.272 195.709 182.557 195.735C182.664 195.041 182.771 194.373 182.851 193.704C184.352 192.422 186.12 193.277 187.755 193.063C188.371 193.945 188.452 194.827 187.701 195.709Z" fill="#A8A8A7"/>
<path d="M244.373 195.709C242.792 195.709 241.238 195.709 239.657 195.735C239.309 191.353 242.631 193.544 244.454 193.036C244.427 193.918 244.4 194.8 244.373 195.709Z" fill="#ABABAA"/>
<path d="M394.454 32.0926C393.838 31.959 393.221 31.7987 392.578 31.6651C393.034 30.9436 393.971 31.6116 394.481 30.997C397.589 31.291 400.751 30.3824 403.805 31.5047C400.724 32.1728 397.589 31.9857 394.454 32.0926Z" fill="#59C0EB"/>
<path d="M327.894 55.9282C328.805 55.9282 329.421 56.4359 329.904 57.1574C328.242 56.7031 326.661 58.253 325 57.291C325.965 56.8368 326.929 56.3825 327.894 55.9282Z" fill="#30B0E6"/>
<path d="M276.956 286.268C283.467 288.78 290.327 290.169 297.053 292.04C316.184 297.411 335.316 302.622 354.448 307.966C357.503 308.821 360.665 309.275 363.558 310.718C353.671 310.478 343.864 309.249 334.03 308.447C328.617 307.993 323.205 307.645 317.819 307.218C309.03 306.496 300.268 305.695 291.506 305C289.47 304.839 287.433 304.92 285.37 304.866C284.245 304.652 283.843 303.717 283.467 302.862C281.404 298.052 279.18 293.322 277.117 288.486C276.769 287.764 276.42 287.043 276.956 286.268Z" fill="#30B0E6"/>
<path d="M513.022 229.698C511.227 229.779 509.539 229.431 507.958 228.576C500.696 224.648 495.445 218.823 492.095 211.314C491.345 209.604 490.166 207.573 491.881 205.89C493.381 204.42 495.364 205.141 497.133 205.649C504.019 207.626 510.155 211.207 516.372 214.601C519.802 216.445 523.205 218.342 526.125 220.934C528.832 223.312 528.671 224.675 525.563 226.412C521.704 228.603 517.444 229.458 513.022 229.698Z" fill="#F8F8F8"/>
<path d="M441.05 159.661C445.766 159.688 450.482 159.715 455.198 159.795C456.216 159.822 457.342 159.421 458.199 160.356C453.081 160.356 447.963 160.383 442.845 160.356C441.908 160.356 440.889 160.677 440.112 159.848C440.407 159.768 440.729 159.715 441.05 159.661Z" fill="#30B0E6"/>
<path d="M365.38 217.62C364.952 216.204 364.523 214.814 364.067 213.398C366.291 212.303 368.757 212.57 371.115 212.303C376.393 211.715 381.645 211.1 386.87 210.138C388.478 209.844 389.255 209.978 389.255 211.822C389.121 228.549 392.551 244.716 396.758 260.776C396.811 260.963 396.758 261.15 396.758 261.363C396.543 262.486 396.49 263.608 396.034 264.73C393.382 271.277 390.756 277.824 388.103 284.397C387.513 285.84 386.951 287.364 385.021 287.444C382.342 286.963 379.743 286.215 377.17 285.386C375.991 284.718 375.723 283.676 375.804 282.42C376.795 263.849 378.376 245.331 381.618 226.973C381.779 226.118 381.94 225.263 382.047 224.381C382.449 221.468 382.127 221.041 379.126 220.72C375.536 220.319 372.026 219.651 368.462 219.063C367.31 218.876 366.104 218.769 365.38 217.62Z" fill="#597DAE"/>
<path d="M411.04 300.858C409.78 296.85 408.762 292.761 406.967 288.913C409.673 288.432 412.353 287.951 415.059 287.444C415.032 291.292 415.005 295.166 414.952 299.014C414.068 300.537 412.862 301.366 411.04 300.858Z" fill="#FDAB97"/>
<path d="M417.417 255.004C417.364 256.874 417.283 258.745 417.23 260.615C416.587 263.394 417.39 266.254 416.774 269.033C417.069 270.689 416.855 272.346 416.667 273.976C415.488 269.701 415.943 265.292 416.292 261.016C416.667 256.741 416.56 252.519 416.721 248.27C416.747 247.709 416.801 247.174 417.417 246.613C417.417 249.419 417.417 252.198 417.417 255.004Z" fill="#3D5D94"/>
<path d="M416.237 282.34C416.184 283.435 416.157 284.531 416.103 285.653C414.924 282.981 415.835 280.229 415.996 277.53C416.076 279.133 416.157 280.737 416.237 282.34Z" fill="#31538D"/>
<path d="M411.04 300.858C412.353 300.243 413.666 299.629 414.952 299.014C420.177 297.812 425.482 297.705 430.815 297.731C431.752 297.731 432.744 298.025 433.601 297.304C434.754 298.533 436.924 297.919 437.862 299.602C437.487 300.778 436.442 301.098 435.45 301.499C428.537 304.225 421.731 307.244 414.764 309.863C413.558 310.317 412.085 311.466 410.986 309.516C411.227 306.63 409.914 303.744 411.04 300.858Z" fill="#3E5D94"/>
<path d="M373.526 297.304C374.143 296.876 374.786 296.609 375.563 296.663C377.465 295.888 379.207 296.101 380.788 297.438C385.129 299.388 389.711 300.804 393.837 303.209C395.927 304.412 398.205 305.427 399.33 307.779C399.303 308.206 399.089 308.58 398.66 308.58C392.926 308.527 387.138 308.848 381.645 306.683C378.671 303.797 376.152 300.484 373.526 297.304Z" fill="#597DAE"/>
<path d="M410.96 309.489C411.576 310.291 412.273 309.997 413.023 309.703C421.276 306.309 429.556 302.969 437.809 299.602C439.738 300.938 439.47 301.954 437.407 302.809C434.379 304.065 431.378 305.347 428.35 306.63C424.786 309.035 420.794 310.398 416.64 311.333C413.559 313.417 410.692 312.241 407.852 310.798C408.87 310.264 410.585 311.44 410.96 309.489Z" fill="#BABABB"/>
<path d="M381.672 306.656C387.567 306.977 393.408 308.126 399.357 307.752C400.027 308.447 399.678 309.329 399.785 310.104C394.668 309.73 389.55 309.329 384.405 308.955C382.931 308.848 382.288 307.752 381.672 306.656Z" fill="#B9B9BB"/>
<path d="M454.663 154.664C450.027 155.68 445.338 154.932 440.676 155.065C438.934 155.119 437.031 155.706 435.397 154.531L435.37 154.397C439.791 153.462 444.239 154.103 448.687 153.996C450.67 153.943 452.76 153.462 454.69 154.477L454.663 154.664Z" fill="#31007C"/>
<path d="M340.809 128.397C339.978 132.646 339.174 136.895 338.343 141.143C325.535 130.348 317.363 116.8 314.603 100.286C313.745 95.1287 312.968 89.8111 314.978 84.6539C316.505 90.6395 317.979 96.6519 320.658 102.263C325.16 111.75 331.403 119.873 339.415 126.66C340.005 127.141 340.755 127.489 340.809 128.397Z" fill="#30B0E6"/>
<path d="M412.835 150.522C405.44 152.607 397.83 152.687 390.301 152.046C373.741 150.683 359.379 144.163 347.214 132.886C348.152 131.951 348.848 132.913 349.518 133.26C357.905 137.91 366.748 141.223 376.34 142.052C381.11 142.453 385.906 143.014 390.756 142.346C392.953 142.025 395.204 142.292 397.455 142.292C398.259 142.052 399.036 142.372 399.84 142.292C404.475 142.72 409.164 142.773 413.746 143.815C414.39 146.194 414.497 148.465 412.835 150.522Z" fill="#30B0E6"/>
<path d="M413.64 144.136C408.816 144.002 404.02 143.602 399.277 142.773C398.875 142.105 399.465 142.025 399.84 141.811C403.886 141.33 407.932 140.769 412.005 140.422C415.301 140.128 414.122 137.616 414.551 135.852C415.917 133.902 416.158 136.52 417.043 136.494C418.436 137.082 419.454 138.017 419.883 139.513C418.57 142.078 416.507 143.655 413.64 144.136Z" fill="#FDFCF9"/>
<path d="M399.84 141.811C399.652 142.132 399.465 142.453 399.277 142.773C398.554 143.014 397.991 142.586 397.401 142.292C398.071 141.437 398.982 141.704 399.84 141.811Z" fill="#FADC79"/>
<path d="M194.695 320.632C195.525 323.545 195.606 326.457 194.641 329.343C193.971 326.457 194.132 323.545 194.695 320.632Z" fill="#6CBBF2"/>
<path d="M238.612 333.378C241.988 332.523 245.338 333.672 248.714 333.458C250.75 333.325 252.787 333.538 254.823 333.565C256.19 333.565 256.806 333.859 256.19 335.436C249.303 352.992 228.135 358.069 214.871 348.663C216.908 345.029 218.114 341.02 219.936 337.279C220.257 336.611 220.766 335.81 220.123 335.115C219.346 334.287 218.515 334.955 217.738 335.249C213.853 336.692 210.343 338.963 206.458 340.352C200.241 330.519 200.455 318.307 206.994 309.222C213.88 299.629 225.348 295.3 236.736 297.999C239.979 298.774 240.086 298.987 238.505 301.954C236.388 305.882 234.218 309.756 232.074 313.658C231.216 314.486 230.091 314.326 229.046 314.432C224.276 314.833 221.007 317.505 219.534 322.155C218.248 326.19 219.668 331.053 222.91 333.752C226.233 336.531 231.404 337.066 235.263 335.035C236.334 334.447 237.299 333.538 238.612 333.378Z" fill="#FEFEFE"/>
<path d="M257.797 282.714C270.847 291.532 278.59 303.637 280.52 319.323C276.152 319.135 271.784 318.895 267.444 318.815C265.782 318.788 265.112 318.2 264.711 316.57C262.781 308.794 258.655 302.354 252.331 297.411C250.884 296.289 250.697 295.433 251.634 293.857C253.778 290.223 255.761 286.428 257.797 282.714Z" fill="#3A3838"/>
<path d="M238.612 333.378C234.03 337.6 228.161 338.268 223.419 335.115C218.89 332.095 217.015 326.43 218.81 321.273C220.686 315.902 225.67 313.043 232.047 313.658C231.43 315.822 230.278 317.185 227.867 317.853C224.598 318.761 222.561 322.289 222.856 325.495C223.178 328.942 225.536 331.534 228.912 332.416C232.1 333.244 235.45 332.229 238.612 333.378Z" fill="#3A3838"/>
<path d="M206.458 340.379C210.183 337.119 215.006 335.917 219.347 333.806C220.633 333.191 221.812 334.634 221.356 335.756C219.641 340.058 217.632 344.227 215.702 348.449C215.622 348.609 215.166 348.609 214.872 348.69C211.174 346.792 208.575 343.826 206.458 340.379Z" fill="#EAF2F5"/>
<path d="M252.385 308.447C254.287 310.691 255.466 313.31 256.565 315.982C257.208 317.586 257.181 318.414 255.011 318.28C250.402 317.96 245.766 317.773 241.131 317.719C238.371 317.666 239.443 316.57 240.3 315.395C241.988 313.764 244.132 312.883 246.222 311.947C248.392 310.959 250.295 309.596 252.385 308.447Z" fill="#FDFDFE"/>
<path d="M252.384 308.447C251.822 309.168 251.581 310.104 250.562 310.558C247.079 312.028 243.917 314.165 240.3 315.394C242.202 311.734 244.158 308.099 246.007 304.412C246.677 303.103 247.347 302.915 248.365 303.984C249.759 305.427 251.42 306.63 252.384 308.447Z" fill="#EAF2F5"/>
<path d="M480.895 315.875C484.539 313.096 488.773 311.386 492.766 309.222C493.275 310.264 492.685 311.092 492.23 311.921C487.353 321.006 487.594 330.065 492.498 339.07C494.722 343.238 497.964 346.445 502.117 348.743C512.407 354.648 525.804 353.393 533.896 345.75C543.703 336.478 546.061 324.48 540.327 312.963C539.765 311.841 539.148 310.745 538.452 309.676C535.772 306.202 532.771 303.103 528.752 301.179C525.322 299.255 521.571 298.506 517.739 298.079C516.721 297.972 515.568 298.186 514.872 297.144C518.489 294.792 522.24 292.735 526.099 290.837C537.326 294.659 545.686 301.686 549.598 312.99C554.582 327.446 551.715 340.593 540.542 351.094C529.475 361.516 516.131 363.867 502.144 357.962C488.157 352.056 480.895 340.914 480.386 325.656C480.225 322.449 480.681 319.162 480.895 315.875Z" fill="#6AAFEA"/>
<path d="M492.121 339.818C486.521 330.599 486.521 321.246 491.371 311.76C491.8 310.905 492.282 310.077 492.738 309.222C495.444 307.779 498.15 306.309 500.856 304.866C502.169 305.347 502.759 306.55 503.241 307.645C504.661 310.905 507.1 313.684 507.689 317.318C505.706 320.258 504.769 323.438 505.117 327.045C505.305 329.129 506.805 330.679 507.019 332.71C506.966 333.004 506.939 333.351 506.698 333.485C502.223 335.863 497.855 338.482 492.952 339.952C492.711 340.032 492.416 339.925 492.121 339.818Z" fill="#FEFEFE"/>
<path d="M514.818 297.17C519.963 297.357 525 297.945 529.475 300.831C528.028 305.748 525.777 310.371 523.929 315.127C523.795 315.501 523.393 315.662 523.017 315.795C520.177 315.341 517.471 314.165 514.55 314.085C513.291 313.497 512.835 312.268 512.273 311.172C511.013 308.768 509.861 306.309 508.441 303.984C507.905 303.103 507.262 302.167 507.744 300.992C510.102 299.736 512.46 298.453 514.818 297.17Z" fill="#FEFEFE"/>
<path d="M507.744 301.018C509.968 305.24 512.192 309.436 514.416 313.658C515.461 314.245 516.212 315.101 516.721 316.196C517.659 318.227 518.864 320.097 520.204 321.888C522.133 324.453 521.571 327.553 519.052 329.29C516.774 330.866 512.782 330.252 511.683 327.606C510.236 324.132 508.093 320.953 507.342 317.211C505.199 313.096 503.028 308.981 500.885 304.893C503.162 303.584 505.467 302.301 507.744 301.018Z" fill="#6AAFEA"/>
<path d="M350.991 28.592C351.125 28.4584 351.259 28.2981 351.393 28.1645C356.779 28.1378 362.165 28.0843 367.577 28.0576C367.872 28.2447 368.167 28.4317 368.462 28.592C362.62 28.592 356.806 28.592 350.991 28.592Z" fill="#3A3838"/>
<path d="M120.419 116.052C120.258 116.052 120.07 116.025 119.91 116.025C119.883 115.063 119.829 114.074 119.856 113.112C119.91 107.795 119.213 108.57 124.518 108.49C124.518 110.841 124.518 113.166 124.518 115.517C123.232 116.212 121.705 115.303 120.419 116.052Z" fill="#59C0EB"/>
<path d="M120.418 116.052C121.651 114.956 123.151 115.704 124.491 115.491C124.518 115.678 124.518 115.865 124.518 116.052C123.151 116.078 121.785 116.078 120.418 116.052Z" fill="#59C0EB"/>
<path d="M187.701 195.709C187.728 194.827 187.755 193.918 187.782 193.036C203.966 193.036 220.177 193.09 236.361 193.01C238.478 193.01 239.523 193.464 239.095 195.735C221.972 195.709 204.823 195.709 187.701 195.709Z" fill="#FBFAF6"/>
<path d="M353.724 44.8387C353.188 42.701 351.822 40.8839 351.554 38.6126C350.964 33.589 353.242 30.4625 358.279 29.7945C359.271 29.2868 359.968 29.7678 360.557 30.516C361.924 31.2375 361.816 32.7606 362.433 33.9096C362.46 35.1388 363.424 36.2077 362.942 37.517C363.639 40.9641 366.398 42.4605 369.132 43.9035C370.069 44.4112 371.114 44.6784 372.133 44.9991C375.857 46.1748 375.911 46.1748 374.41 49.9425C372.936 53.6301 371.597 57.3711 369.587 60.8182C367.979 63.5705 366.881 63.7843 364.684 61.513C360.798 57.478 358.253 52.5613 355.573 47.7247C355.037 46.736 354.769 45.5335 353.724 44.8387Z" fill="#F1998B"/>
<path d="M362.942 37.517C362.406 36.368 362.299 35.1656 362.433 33.9096C362.621 34.2303 362.808 34.551 362.969 34.8983C365.3 39.6281 366.051 39.7617 369.722 36.181C370.793 35.1655 371.678 33.589 373.607 34.551C370.74 36.0206 368.891 38.5325 366.908 40.9374C365.113 40.3763 364.175 38.773 362.942 37.517Z" fill="#3A3838"/>
<path d="M426.689 135.906C430.788 131.577 435.236 130.829 438.88 133.982C441.748 136.467 442.283 139.647 441.131 143.334C442.685 142.132 442.685 142.132 444.052 138.311C445.874 141.25 445.981 143.815 444.186 146.087C442.283 148.465 439.845 149.16 436.924 148.171C436.388 147.984 435.799 147.77 435.263 147.85C431.324 148.411 428.511 146.755 426.474 143.521C424.679 140.929 424.733 138.418 426.689 135.906Z" fill="#3A3838"/>
<path d="M413.639 144.136C415.622 142.533 418.114 141.571 419.615 139.406C421.249 139.593 422.321 140.395 422.508 142.132C422.321 142.479 422.133 142.853 421.973 143.201C420.874 146.434 421.383 149.24 424.223 151.404C424.679 151.752 425.161 152.126 425.027 152.821C422.16 153.275 419.641 152.019 416.989 151.271C415.622 150.897 414.309 150.255 412.809 150.523C413.103 148.412 413.371 146.274 413.639 144.136Z" fill="#F19A8B"/>
<path d="M422.535 142.132C421.57 141.223 420.606 140.315 419.641 139.406C418.784 138.444 417.926 137.456 417.042 136.494C420.338 137.563 423.553 137.055 426.715 135.906C425.804 138.418 425.59 140.956 426.501 143.521C425 143.521 423.902 142.426 422.535 142.132Z" fill="#DB6F6E"/>
<path d="M425.027 152.821C420.498 149.935 419.56 146.942 421.972 143.228C421.758 146.862 423.446 149.213 426.822 150.523C427.867 150.923 428.831 151.591 429.85 152.126C428.349 153.088 426.688 152.874 425.027 152.821Z" fill="#35296C"/>
<path d="M435.316 153.97C436.093 153.141 437.112 153.382 438.05 153.382C442.685 153.355 447.348 153.355 451.983 153.382C452.894 153.382 453.939 153.034 454.689 153.996C448.232 154.397 441.774 154.397 435.316 153.97Z" fill="#30B0E6"/>
<path d="M435.343 153.97C441.8 153.97 448.231 153.97 454.689 153.97C454.716 154.13 454.716 154.29 454.689 154.451C448.258 154.424 441.8 154.397 435.37 154.37C435.316 154.264 435.316 154.13 435.343 153.97Z" fill="#30B0E6"/>
<path d="M360.558 30.516C359.808 30.2755 359.031 30.035 358.28 29.7945C358.843 29.073 359.647 29.2334 360.37 29.2601C362.594 29.3403 360.29 30.1152 360.558 30.516Z" fill="#3A3838"/>
<path d="M379.877 33.8295C378.725 33.8562 377.546 33.8562 376.394 33.8829C377.546 33.0278 378.698 33.0546 379.877 33.8295Z" fill="#3A3838"/>
<path d="M394.507 30.997C394.052 31.6917 393.248 31.5047 392.605 31.665C391.694 31.6116 390.756 31.5581 389.845 31.5047C391.292 30.4626 392.953 31.2108 394.507 30.997Z" fill="#59C0EB"/>
<path d="M416.773 269.033C416.934 266.227 416.157 263.368 417.229 260.615C417.229 263.421 417.47 266.254 416.773 269.033Z" fill="#3E5D93"/>
<path d="M380.789 297.438C379.047 297.17 377.305 296.93 375.563 296.663C376.233 292.788 376.93 288.913 377.6 285.012C380.279 285.253 382.771 286.188 385.344 286.936C383.816 290.437 382.316 293.937 380.789 297.438Z" fill="#DC6F6E"/>
<path d="M538.773 309.008C546.678 319.697 545.74 334.661 536.576 344.28C527.171 354.167 512.246 356.225 501.474 349.144C501.126 348.342 501.474 347.621 501.796 346.926C503.564 342.944 505.386 338.963 506.887 334.848C507.101 334.287 507.342 333.779 508.066 333.752C510.638 334.474 512.728 336.291 515.676 336.264C524.33 336.13 529.502 328.06 525.804 320.204C525.349 319.242 524.652 318.414 524.491 317.318C524.491 316.463 524.947 315.822 525.643 315.448C529.984 313.23 534.191 310.772 538.773 309.008Z" fill="#FEFEFE"/>
<path d="M507.824 334.046C506.19 339.284 503.805 344.2 501.447 349.144C497.428 346.953 494.292 343.88 492.122 339.845C496.972 337.52 501.849 335.195 506.699 332.87C507.637 332.737 508.065 333.084 507.824 334.046Z" fill="#EAF2F5"/>
<path d="M538.774 309.008C535.746 311.707 531.807 312.749 528.404 314.753C527.171 315.475 525.59 315.662 524.84 317.105C523.527 317.318 523.045 316.597 522.938 315.421C524.572 311.44 526.233 307.458 527.868 303.45C528.27 302.488 528.591 301.446 529.502 300.805C533.388 302.648 536.308 305.561 538.774 309.008Z" fill="#EAF2F5"/>
<path d="M522.91 315.448C523.553 316.009 524.169 316.57 524.812 317.131C531.35 325.442 526.393 334.741 519.292 336.638C515.005 337.787 511.254 336.691 507.824 334.046C507.449 333.645 507.074 333.271 506.699 332.87C503.081 326.751 503.269 322.075 507.342 317.212C509.003 320.017 510.906 322.689 511.575 326.003C511.977 327.98 513.397 329.183 515.461 329.423C517.363 329.664 518.917 329.022 519.962 327.392C521.007 325.762 521.222 323.865 519.936 322.502C517.444 319.91 516.318 316.57 514.416 313.658C517.524 312.99 520.257 314.058 522.91 315.448Z" fill="#3A3838"/>
<path d="M197.508 139.299C196.758 138.551 195.686 138.07 194.534 138.07C192.203 138.07 190.327 139.941 190.327 142.266C190.327 143.014 190.515 143.708 190.863 144.296C190.863 144.296 190.863 144.323 190.89 144.323C190.97 144.457 191.077 144.59 191.158 144.724C192.471 146.808 193.221 149.267 193.221 151.885C193.221 159.394 187.112 165.487 179.582 165.487C179.395 165.487 179.207 165.487 179.02 165.487C181.136 166.475 183.494 167.036 185.986 167.036C194.99 167.036 202.305 159.741 202.305 150.763C202.251 146.3 200.429 142.239 197.508 139.299Z" fill="#3A3A3A"/>
<path d="M181.967 154.237C184.298 154.237 186.174 152.366 186.174 150.042C186.174 149.293 185.986 148.599 185.638 148.011C185.638 148.011 185.638 147.984 185.611 147.984C185.531 147.85 185.424 147.717 185.343 147.583C184.03 145.499 183.28 143.04 183.28 140.422C183.28 132.913 189.389 126.82 196.919 126.82C197.106 126.82 197.294 126.82 197.481 126.82C195.365 125.832 193.007 125.271 190.515 125.271C181.511 125.271 174.196 132.566 174.196 141.544C174.196 146.033 176.018 150.095 178.939 153.034C179.743 153.783 180.788 154.237 181.967 154.237Z" fill="#3A3A3A"/>
<path d="M154.26 26.294V1.44293H169.372V6.1192H158.949V11.517H169.131V16.1932H158.949V26.2672H154.26V26.294Z" fill="white"/>
<path d="M188.638 24.2364C187.968 25.4923 185.825 26.4543 183.735 26.4543C178.563 26.4543 175.348 22.9003 175.348 17.4759C175.348 12.1048 178.563 8.52414 183.735 8.52414C185.825 8.52414 187.915 9.45939 188.638 10.7687V8.71119H193.327V26.2405H188.638V24.2364ZM184.351 21.778C186.896 21.778 188.665 20.0144 188.638 17.5026C188.638 15.0175 186.843 13.2004 184.351 13.2004C181.752 13.2004 180.037 14.8839 180.037 17.4759C180.037 20.0946 181.752 21.778 184.351 21.778Z" fill="white"/>
<path d="M204.206 20.2549C204.206 21.4841 205.358 22.4995 206.725 22.4995C207.958 22.4995 208.681 22.0452 208.681 21.2169C208.681 20.0678 207.422 19.667 205.814 19.1593C203.402 18.4111 200.241 17.7431 200.241 13.8952C200.241 10.4481 203.054 8.52414 206.698 8.52414C210.396 8.52414 212.942 10.9291 212.968 14.4296H208.788C208.788 13.3607 207.85 12.4789 206.671 12.4789C205.68 12.4789 204.93 12.9866 204.93 13.8417C204.93 14.8304 206.109 15.1244 207.529 15.4717C210.074 16.0863 213.37 16.9681 213.37 21.1367C213.37 24.1562 210.476 26.4276 206.591 26.4276C203.268 26.4276 199.731 24.2364 199.731 20.2282H204.206V20.2549Z" fill="white"/>
<path d="M225.696 5.02359V8.73789H228.885V13.1469H225.696V19.7739C225.696 21.0298 226.42 21.6711 227.893 21.6711H228.885V26.2939H227.438C222.883 26.2939 220.98 24.5303 220.98 20.0411V13.1469H218.676V8.73789H220.98L222.106 5.02359H225.696V5.02359Z" fill="white"/>
<path d="M154.26 63.2231V38.3721H162.459C170.176 38.3721 174.624 42.9148 174.624 50.7976C174.624 58.627 170.23 63.2231 162.727 63.2231H154.26ZM158.949 43.0484V58.5469H162.727C167.148 58.5469 169.908 55.5808 169.908 50.7976C169.908 45.9076 167.148 43.0484 162.459 43.0484H158.949Z" fill="white"/>
<path d="M197.106 57.8521C195.9 61.1389 192.765 63.3835 189.201 63.3835C184.083 63.3835 180.466 59.6692 180.466 54.4051C180.466 49.328 184.19 45.4533 189.121 45.4533C194.051 45.4533 197.776 49.3012 197.776 54.4051C197.776 54.9662 197.749 55.5541 197.668 56.0618H185.423C185.959 57.8521 187.379 58.9744 189.201 58.9744C190.568 58.9744 191.666 58.4935 192.149 57.8254H197.106V57.8521ZM192.818 52.6949C192.283 50.958 190.916 49.8624 189.094 49.8624C187.272 49.8624 185.905 50.9847 185.369 52.6949H192.818Z" fill="white"/>
<path d="M204.233 63.2231V38.3721H208.923V63.2231H204.233Z" fill="white"/>
<path d="M218.006 38.1583C219.587 38.1583 220.605 39.1737 220.605 40.7503C220.605 42.3269 219.587 43.369 218.006 43.369C216.398 43.369 215.38 42.3269 215.38 40.7503C215.38 39.2005 216.398 38.1583 218.006 38.1583ZM215.675 63.2231V45.6938H220.364V63.2231H215.675Z" fill="white"/>
<path d="M232.341 63.2231L225.884 45.6938H230.868L234.833 56.4626L238.799 45.6938H243.783L237.325 63.2231H232.341Z" fill="white"/>
<path d="M265.004 57.8521C263.798 61.1389 260.663 63.3835 257.1 63.3835C251.982 63.3835 248.364 59.6692 248.364 54.4051C248.364 49.328 252.089 45.4533 257.019 45.4533C261.949 45.4533 265.674 49.3012 265.674 54.4051C265.674 54.9662 265.647 55.5541 265.567 56.0618H253.321C253.857 57.8521 255.277 58.9744 257.1 58.9744C258.466 58.9744 259.565 58.4935 260.047 57.8254H265.004V57.8521ZM260.717 52.6949C260.181 50.958 258.814 49.8624 256.992 49.8624C255.17 49.8624 253.804 50.9847 253.268 52.6949H260.717Z" fill="white"/>
<path d="M282.529 50.1563C278.724 50.1563 276.661 51.813 276.661 54.9929V63.2231H271.972V45.6938H276.661V48.2591C277.867 46.5222 280.064 45.48 282.529 45.48V50.1563Z" fill="white"/>
<path d="M298.58 64.8799C297.079 68.7278 296.677 70.5181 292.122 70.5181H290.675V65.8953H291.667C292.658 65.8953 293.247 65.7617 293.73 64.5325L294.239 63.2231L287.781 45.6938H292.765L296.731 56.4626L300.697 45.6938H305.68L299.223 63.2231L298.58 64.8799Z" fill="white"/>
<path d="M22.6422 36.4482C15.8094 36.4482 9.0034 36.4482 2.1706 36.4482C1.25956 36.4482 0.160955 36.6887 0.000182789 35.2725C-0.133794 34.0967 0.455703 33.4554 1.6079 33.4821C15.5147 33.8295 29.4214 33.5356 43.3282 33.6157C43.5425 33.6157 43.7301 33.6157 43.9445 33.6157C44.8287 33.6157 45.3378 34.0166 45.3646 34.9518C45.3914 35.9672 44.9091 36.4482 43.9177 36.4482C41.4257 36.4482 38.9069 36.4482 36.415 36.4482C31.833 36.4482 27.2242 36.4482 22.6422 36.4482Z" fill="#30B0E6"/>
<path d="M45.9543 48.3927C40.7024 48.3927 35.4237 48.3927 30.1718 48.3927C29.1804 48.3927 27.9746 48.6332 27.9478 47.0834C27.921 45.587 28.8589 45.1594 30.1986 45.1594C40.8632 45.1594 51.5009 45.1594 62.1654 45.1594C63.4248 45.1594 64.6574 45.4801 64.6842 46.8963C64.711 48.4729 63.3176 48.4195 62.1386 48.4195C56.7528 48.3927 51.3669 48.3927 45.9543 48.3927Z" fill="#30B0E6"/>
<path d="M46.3832 15.4451C50.9116 15.4451 55.4132 15.4718 59.9416 15.4183C61.0938 15.4183 62.1656 15.6588 62.1924 16.8613C62.2192 18.0638 61.201 18.6784 59.9684 18.6784C50.9384 18.6784 41.8816 18.6784 32.8516 18.6784C31.5654 18.6784 30.7883 18.1172 30.8151 16.7544C30.8419 15.3649 31.8601 15.4451 32.8516 15.4451C37.3532 15.4451 41.8816 15.4451 46.3832 15.4451Z" fill="#30B0E6"/>
<path d="M58.2533 61.8604C62.7817 61.8604 67.2833 61.8872 71.8117 61.8337C72.9639 61.8337 74.0357 62.0742 74.0625 63.2767C74.0893 64.4791 73.0711 65.0937 71.8385 65.0937C62.8085 65.0937 53.7517 65.0937 44.7217 65.0937C43.4355 65.0937 42.6584 64.5326 42.6852 63.1698C42.712 61.7803 43.7303 61.8604 44.7217 61.8604C49.2233 61.8604 53.7517 61.8604 58.2533 61.8604Z" fill="#30B0E6"/>
<path d="M17.7654 48.3927C16.5596 48.3927 15.3538 48.3927 14.148 48.3927C13.0762 48.3927 12.2456 47.9652 12.192 46.8429C12.1384 45.6939 12.9423 45.1861 14.0141 45.1861C16.4256 45.1594 18.864 45.1594 21.2756 45.1861C22.5082 45.2129 23.0977 45.9076 23.0709 47.1368C23.0173 48.366 22.133 48.4194 21.1952 48.4194C20.043 48.3927 18.9176 48.3927 17.7654 48.3927Z" fill="#30B0E6"/>
<path d="M71.704 15.4451C72.6418 15.4451 73.6064 15.3916 74.5443 15.4451C75.4553 15.4985 76.0448 16.0329 76.152 16.9682C76.2592 17.9034 75.5357 18.331 74.8122 18.4913C72.883 18.8654 70.9001 18.7585 68.9708 18.5715C68.0062 18.4913 67.5775 17.5828 67.7115 16.5674C67.8187 15.6054 68.4885 15.4183 69.2924 15.4183C70.0963 15.4451 70.9001 15.4451 71.704 15.4451Z" fill="#30B0E6"/>
<path d="M55.0375 36.4482C54.0997 36.4482 53.1618 36.5017 52.224 36.4482C51.3933 36.3948 50.7503 35.9138 50.7235 35.0855C50.6967 34.2571 51.3398 33.7494 52.1436 33.6692C53.8585 33.5089 55.6002 33.6959 57.3419 33.3753C58.1993 33.215 59.3248 33.8295 59.3515 34.9251C59.3783 35.9673 58.6013 36.5819 57.4491 36.5017C56.672 36.4215 55.8682 36.4482 55.0375 36.4482Z" fill="#30B0E6"/>
<path d="M34.1107 65.0135C33.1729 65.0135 32.2351 65.067 31.2972 65.0135C30.4666 64.9601 29.8235 64.4791 29.7967 63.6507C29.7699 62.8224 30.413 62.3147 31.2169 62.2345C32.9318 62.0742 34.6734 62.2612 36.4151 61.9406C37.2726 61.7802 38.398 62.3948 38.4248 63.4904C38.4516 64.5326 37.6745 65.1471 36.5223 65.067C35.7185 64.9868 34.9146 65.0135 34.1107 65.0135Z" fill="#30B0E6"/>
<path d="M107.343 68.8348C98.5537 68.8348 90.2739 65.4144 84.0574 59.215C77.8409 53.0156 74.4111 44.7586 74.4111 35.994C74.4111 27.2293 77.8409 18.9723 84.0574 12.7729C90.2739 6.57353 98.5537 3.15317 107.343 3.15317C116.131 3.15317 124.411 6.57353 130.628 12.7729C136.844 18.9723 140.274 27.2293 140.274 35.994C140.274 44.7586 136.844 53.0156 130.628 59.215C124.411 65.4144 116.131 68.8348 107.343 68.8348ZM107.343 6.19943C90.8634 6.19943 77.4658 19.5602 77.4658 35.994C77.4658 52.4277 90.8634 65.7885 107.343 65.7885C123.822 65.7885 137.219 52.4277 137.219 35.994C137.219 19.5602 123.822 6.19943 107.343 6.19943Z" fill="#30B0E6"/>
<path d="M107.342 13.4944C106.86 13.4944 106.484 13.0936 106.484 12.6393V9.37932C106.484 8.89833 106.886 8.52423 107.342 8.52423C107.824 8.52423 108.199 8.92505 108.199 9.37932V12.6393C108.199 13.1203 107.824 13.4944 107.342 13.4944Z" fill="#30B0E6"/>
<path d="M87.0589 25.1718C86.8981 25.1718 86.7641 25.145 86.6302 25.0649L83.7899 23.4349C83.5219 23.2745 83.4147 23.034 83.3879 22.9004C83.3611 22.7668 83.3075 22.5263 83.4683 22.2324C83.6291 21.9652 83.897 21.8048 84.2186 21.8048C84.3794 21.8048 84.5133 21.8316 84.6473 21.9117L87.4876 23.5417C87.7556 23.7021 87.8627 23.9426 87.8895 24.0762C87.9163 24.2098 87.9699 24.4503 87.8092 24.7442C87.6752 25.0114 87.3804 25.1718 87.0589 25.1718Z" fill="#30B0E6"/>
<path d="M84.218 50.1564C83.8964 50.1564 83.6285 49.9961 83.4677 49.7289C83.2266 49.328 83.3605 48.7936 83.7893 48.5531L86.6296 46.9231C86.7635 46.8429 86.8975 46.8162 87.0583 46.8162C87.3798 46.8162 87.6478 46.9766 87.8086 47.2438C88.0497 47.6446 87.9157 48.179 87.487 48.4195L84.6467 50.0495C84.5395 50.1297 84.3788 50.1564 84.218 50.1564Z" fill="#30B0E6"/>
<path d="M107.342 63.4637C106.86 63.4637 106.484 63.0629 106.484 62.6086V59.3219C106.484 58.8409 106.886 58.4668 107.342 58.4668C107.824 58.4668 108.199 58.8676 108.199 59.3219V62.5819C108.199 63.0896 107.824 63.4637 107.342 63.4637Z" fill="#30B0E6"/>
<path d="M130.467 50.1564C130.306 50.1564 130.172 50.1297 130.038 50.0495L127.198 48.4195C126.796 48.179 126.635 47.6446 126.876 47.2438C127.037 46.9766 127.305 46.8162 127.626 46.8162C127.787 46.8162 127.921 46.8429 128.055 46.9231L130.895 48.5531C131.297 48.7936 131.458 49.328 131.217 49.7289C131.056 49.9961 130.761 50.1564 130.467 50.1564Z" fill="#30B0E6"/>
<path d="M127.627 25.1718C127.305 25.1718 127.038 25.0114 126.877 24.7442C126.716 24.477 126.743 24.2098 126.796 24.0762C126.823 23.9426 126.93 23.7021 127.198 23.5417L130.039 21.9117C130.173 21.8316 130.307 21.8048 130.467 21.8048C130.789 21.8048 131.057 21.9652 131.218 22.2324C131.378 22.4996 131.352 22.7668 131.298 22.9004C131.271 23.034 131.164 23.2745 130.896 23.4349L128.056 25.0649C127.922 25.145 127.761 25.1718 127.627 25.1718Z" fill="#30B0E6"/>
<path d="M107.342 37.1964C108.007 37.1964 108.547 36.6581 108.547 35.994C108.547 35.3299 108.007 34.7915 107.342 34.7915C106.676 34.7915 106.136 35.3299 106.136 35.994C106.136 36.6581 106.676 37.1964 107.342 37.1964Z" fill="#30B0E6"/>
<path d="M106.833 35.994C106.779 35.2725 106.753 34.5778 106.726 33.8563L106.699 32.7874L106.672 31.7186C106.646 30.3023 106.646 28.8594 106.646 27.4431C106.672 26.0269 106.672 24.5839 106.753 23.1677C106.779 22.4462 106.86 21.7514 106.94 21.0299C106.994 20.6826 107.047 20.3085 107.101 19.9611C107.155 19.6137 107.235 19.2396 107.342 18.8922C107.449 19.2396 107.53 19.6137 107.583 19.9611C107.637 20.3085 107.691 20.6826 107.744 21.0299C107.825 21.7514 107.905 22.4462 107.932 23.1677C107.985 24.5839 108.012 26.0269 108.039 27.4431C108.066 28.8594 108.066 30.3023 108.012 31.7186L107.985 32.7874L107.958 33.8563C107.932 34.5778 107.905 35.2725 107.851 35.994H106.833Z" fill="#30B0E6"/>
<path d="M107.343 36.7422C106.378 36.8758 105.387 36.9292 104.422 36.956C103.457 36.9827 102.466 36.9827 101.501 36.9292C101.019 36.9025 100.537 36.9025 100.028 36.8491C99.5454 36.8224 99.063 36.7956 98.5539 36.7155C98.0716 36.6353 97.5893 36.5551 97.0802 36.4483C96.5979 36.3146 96.1156 36.181 95.6064 35.9673C96.0888 35.7535 96.5711 35.5932 97.0802 35.4863C97.5625 35.3527 98.0448 35.2725 98.5539 35.2191C99.0362 35.1656 99.5186 35.1122 100.028 35.0855C100.51 35.0587 100.992 35.032 101.501 35.0053C102.466 34.9786 103.457 34.9518 104.422 34.9786C105.387 35.0053 106.378 35.0587 107.343 35.1923V36.7422Z" fill="#30B0E6"/>
</g>
<defs>
<clipPath id="clip0">
<rect width="575" height="383" fill="white"/>
</clipPath>
</defs>
</svg>
