<svg width="433" height="317" viewBox="0 0 433 317" fill="none" xmlns="http://www.w3.org/2000/svg">
<g clip-path="url(#clip0)">
<path d="M433 96.2519C433 96.2519 426.954 93.7839 407.721 102.631C388.488 111.479 386.086 110.366 381.104 109.011C376.122 107.655 373.351 107.332 368.004 99.932C368.004 99.932 364.241 79.4385 360.596 76.2608C356.952 73.0831 341.47 78.0709 341.47 78.0709C341.47 78.0709 322.912 82.349 319.375 57.4458C319.375 57.4458 321.884 38.6627 318.466 32.9014C318.466 32.9014 325.365 35.8877 336.75 31.0633C348.135 26.239 357.254 36.2465 357.254 36.2465C357.254 36.2465 360.124 43.7143 359.822 48.1639C359.521 52.6135 361.343 54.288 366.773 52.151C366.773 52.151 369.441 48.3393 365.662 42.0397C361.883 35.7402 359.187 31.0474 360.243 26.1513C361.299 21.2552 364.328 14.4771 374.07 11.0841C383.811 7.69114 397.042 7.03726 403.394 4.38187C409.745 1.72648 411.282 -0.00390625 411.282 -0.00390625C411.282 -0.00390625 407.375 3.92734 416.581 20.6013C425.787 37.2752 419.92 44.5237 419.92 44.5237C419.92 44.5237 415.021 56.2457 393.398 55.2888C393.398 55.2888 372.561 56.0543 383.922 64.9295C383.922 64.9295 391.195 63.4423 402.072 59.9696C412.949 56.4969 420.801 70.8264 422.75 80.7981C424.699 90.7697 433 96.2519 433 96.2519Z" fill="#00B0FF"/>
<path d="M404.994 12.6431L405.105 12.6152C405.943 15.8049 396.63 28.5635 388.67 38.7425L388.575 38.6707C399.805 24.3332 405.637 15.0912 404.994 12.6431Z" fill="#444053"/>
<path d="M388.742 38.4595L388.789 38.591C382.438 46.7087 374.431 56.3973 368.032 63.574C367.424 64.2598 366.817 64.9775 366.233 65.7111L366.051 65.5636C366.638 64.826 367.242 64.1043 367.857 63.4185C374.256 56.2458 382.386 46.5771 388.742 38.4595Z" fill="#444053"/>
<path d="M366.206 65.3677L366.333 65.587C354.686 80.1916 353.916 102.87 353.888 103.065L351.431 100.219C351.47 100.019 354.475 80.076 366.206 65.3677Z" fill="#444053"/>
<path d="M419.491 88.3297C419.491 88.3297 405.756 81.153 395.054 83.7326C384.351 86.3123 360.251 74.6381 360.251 74.6381C360.251 74.6381 350.021 70.4636 347.945 65.7031C347.945 65.7031 340.923 58.2512 340.522 54.3878C340.121 50.5243 333.289 40.8317 328.831 40.4609" stroke="#444053" stroke-miterlimit="10"/>
<path d="M417.502 95.2353C417.502 95.2353 410.587 90.5544 411.389 85.1001" stroke="#444053" stroke-miterlimit="10"/>
<path d="M406.891 101.28C406.891 101.28 397.002 97.6714 396.006 83.5293" stroke="#444053" stroke-miterlimit="10"/>
<path d="M390.929 104.94C390.929 104.94 381.477 97.0612 384.613 83.2979" stroke="#444053" stroke-miterlimit="10"/>
<path d="M371.751 101.088C371.751 101.088 365.451 87.8311 371.056 79.2031" stroke="#444053" stroke-miterlimit="10"/>
<path d="M419.65 79.5898C419.65 79.5898 412.504 81.8704 414.033 85.6502" stroke="#444053" stroke-miterlimit="10"/>
<path d="M411.016 66.5479C411.016 66.5479 401.445 69.598 401.219 83.1979" stroke="#444053" stroke-miterlimit="10"/>
<path d="M397.669 63.4102C397.669 63.4102 388.96 74.2111 389.595 84.0273" stroke="#444053" stroke-miterlimit="10"/>
<path d="M382.434 67.6445C382.434 67.6445 373.78 75.9536 374.892 80.5746" stroke="#444053" stroke-miterlimit="10"/>
<path d="M377.194 64.7103C377.194 64.7103 369.08 66.1735 367.944 63.5142" stroke="#444053" stroke-miterlimit="10"/>
<path d="M366.65 54.8701C366.65 54.8701 370.751 60.3244 371.811 59.1044" stroke="#444053" stroke-miterlimit="10"/>
<path d="M407.293 51.421C407.293 51.421 386.837 52.9121 382.208 46.7202" stroke="#444053" stroke-miterlimit="10"/>
<path d="M362.347 27.3911C362.347 27.3911 371.945 48.084 378.912 50.7195" stroke="#444053" stroke-miterlimit="10"/>
<path d="M372.414 17.5352C372.414 17.5352 378.309 36.5694 385.613 42.5102" stroke="#444053" stroke-miterlimit="10"/>
<path d="M415.899 35.7003C415.899 35.7003 400.346 42.4065 391.005 35.6245" stroke="#444053" stroke-width="0.75" stroke-miterlimit="10"/>
<path d="M386.272 13.4766C386.272 13.4766 389.825 27.4712 394.609 30.8482" stroke="#444053" stroke-width="0.75" stroke-miterlimit="10"/>
<path d="M413.552 20.043C413.552 20.043 404.819 23.3642 401.544 20.8404" stroke="#444053" stroke-width="0.75" stroke-miterlimit="10"/>
<path d="M359.163 59.4434C359.163 59.4434 359.139 71.6398 355.853 72.505" stroke="#444053" stroke-miterlimit="10"/>
<path d="M332.138 75.244C332.138 75.244 345.266 76.3683 351.319 69.5903" stroke="#444053" stroke-miterlimit="10"/>
<path d="M355.774 45.0337C355.774 45.0337 352.598 57.3936 343.833 60.7348" stroke="#444053" stroke-miterlimit="10"/>
<path d="M324.262 62.2141C324.262 62.2141 333.555 65.4595 341.546 57.1943" stroke="#444053" stroke-miterlimit="10"/>
<path d="M345.44 34.4004C345.44 34.4004 344.563 44.9063 338.878 49.8224" stroke="#444053" stroke-miterlimit="10"/>
<path d="M324.615 46.2064C324.615 46.2064 332.328 46.2582 334.142 43.7344" stroke="#444053" stroke-miterlimit="10"/>
<path d="M74.5947 296.084C74.5947 296.084 79.8784 292.583 85.1144 295.075C85.1144 295.075 83.5028 298.193 76.8733 297.898L74.5947 296.084Z" fill="#00B0FF"/>
<path d="M73.9476 296.271C73.9476 296.271 72.3398 302.435 76.3691 306.602C76.3691 306.602 78.7946 304.066 76.3889 297.858L73.9476 296.271Z" fill="#00B0FF"/>
<path d="M67.3584 290.371C67.3584 290.371 67.7554 285.14 79.5057 286.874C79.5057 286.874 79.5613 290.247 75.4328 291.846C71.3043 293.445 69.4187 292.097 67.3584 290.371Z" fill="#00B0FF"/>
<path d="M66.6358 290.334C66.6358 290.334 61.6657 291.929 66.0959 303.009C66.0959 303.009 69.3749 302.276 69.9545 297.87C70.5341 293.464 68.7914 291.937 66.6358 290.334Z" fill="#00B0FF"/>
<path d="M59.9785 282.899C59.9785 282.899 59.3076 274.294 71.3199 275.18C71.3199 275.18 72.1734 282.966 62.1022 284.968L59.9785 282.899Z" fill="#00B0FF"/>
<path d="M52.043 273.202C52.043 273.202 53.6864 263.453 65.6948 266.36C65.6948 266.36 65.7424 274.789 54 275.53L52.043 273.202Z" fill="#00B0FF"/>
<path d="M46.2393 263.163C46.2393 263.163 49.0181 253.642 60.8954 256.508C60.8954 256.508 58.065 265.049 47.0292 264.917L46.2393 263.163Z" fill="#00B0FF"/>
<path d="M40.7295 253.354C40.7295 253.354 43.4249 243.498 54.9093 246.457C54.9093 246.457 51.0746 255.822 41.4837 255.033L40.7295 253.354Z" fill="#00B0FF"/>
<path d="M37.1758 244.037C37.1758 244.037 39.248 231.984 49.9582 234.651C49.9582 234.651 46.846 245.615 37.9657 245.791L37.1758 244.037Z" fill="#00B0FF"/>
<path d="M33.8457 232.781C33.8457 232.781 36.3347 220.633 47.1601 224.165C47.1601 224.165 42.9085 235.648 34.5999 234.46L33.8457 232.781Z" fill="#00B0FF"/>
<path d="M31.7852 222.295C31.7852 222.295 35.731 210.143 44.1111 210.473C44.1111 210.473 40.0739 223.308 32.4838 224.731L31.7852 222.295Z" fill="#00B0FF"/>
<path d="M30.4756 212.084C30.4756 212.084 34.7708 197.456 41.5908 198.588C41.5908 198.588 38.6175 209.752 30.7177 214.365L30.4756 212.084Z" fill="#00B0FF"/>
<path d="M29.7295 199.876C29.7295 199.876 33.7587 187.687 40.4914 187.209C40.4914 187.209 37.7483 199.202 29.8803 203.05L29.7295 199.876Z" fill="#00B0FF"/>
<path d="M28.915 188.509C28.915 188.509 33.9407 176.304 38.3868 176.029C38.3868 176.029 36.2074 188.046 29.3596 190.51L28.915 188.509Z" fill="#00B0FF"/>
<path d="M28.3555 177.923C28.3555 177.923 31.4439 164.67 35.8979 163.569C35.8979 163.569 35.2905 174.406 28.812 178.912L28.3555 177.923Z" fill="#00B0FF"/>
<path d="M26.6885 164.084C26.6885 164.084 29.9357 153.522 33.5323 151.912C33.5323 151.912 32.8217 164.363 27.5221 166.664L26.6885 164.084Z" fill="#00B0FF"/>
<path d="M25.2946 154.969L24.6396 136.346C24.6396 136.346 31.3564 150.404 25.7909 158.255L25.2946 154.969Z" fill="#00B0FF"/>
<path d="M20.1029 136.461C20.1029 136.461 15.2598 122.861 14.0967 122.108C14.0967 122.108 23.5962 130.931 22.6673 142.282L20.1029 136.461Z" fill="#00B0FF"/>
<path d="M59.6533 282.855C59.6533 282.855 51.1343 281.734 51.3884 293.827C51.3884 293.827 59.0896 295.087 61.6024 285.087L59.6533 282.855Z" fill="#00B0FF"/>
<path d="M51.6383 272.879C51.6383 272.879 41.7934 272.843 42.5953 285.239C42.5953 285.239 50.8563 286.722 53.5834 275.231L51.6383 272.879Z" fill="#00B0FF"/>
<path d="M46.1435 263.964C46.1435 263.964 37.2077 259.774 31.4873 270.619C31.4873 270.619 39.7443 274.123 46.9335 265.719L46.1435 263.964Z" fill="#00B0FF"/>
<path d="M40.531 253.446C40.531 253.446 31.3808 248.964 26.0059 259.582C26.0059 259.582 35.5332 262.875 41.2853 255.124L40.531 253.446Z" fill="#00B0FF"/>
<path d="M37.2912 244.3C37.2912 244.3 28.4864 235.847 21.4561 244.395C21.4561 244.395 30.4554 251.349 37.6961 246.182L37.2912 244.3Z" fill="#00B0FF"/>
<path d="M34.3459 232.494C34.3459 232.494 25.4855 223.85 18.5107 232.893C18.5107 232.893 28.4588 239.982 34.6595 234.308L34.3459 232.494Z" fill="#00B0FF"/>
<path d="M32.7024 221.96C32.7024 221.96 25.8785 211.195 17.8398 213.587C17.8398 213.587 24.9218 225.014 32.627 224.504L32.7024 221.96Z" fill="#00B0FF"/>
<path d="M30.6778 212.017C30.6778 212.017 23.7904 198.425 17.292 200.785C17.292 200.785 22.2502 211.231 30.8525 214.301L30.6778 212.017Z" fill="#00B0FF"/>
<path d="M30.2014 199.17C30.2014 199.17 23.1313 188.469 16.5059 189.776C16.5059 189.776 22.2858 200.625 30.8881 202.264L30.2014 199.17Z" fill="#00B0FF"/>
<path d="M29.6616 188.269C29.6616 188.269 24.1834 176.264 19.7373 176.161C19.7373 176.161 22.3692 188.082 29.3043 190.287L29.6616 188.269Z" fill="#00B0FF"/>
<path d="M28.5778 177.66C28.5778 177.66 22.4843 165.503 17.9072 165.479C17.9072 165.479 21.0274 175.874 28.3714 178.733L28.5778 177.66Z" fill="#00B0FF"/>
<path d="M27.6616 164.817C27.6616 164.817 23.1044 154.754 19.3252 153.614C19.3252 153.614 21.6038 165.878 27.1535 167.485L27.6616 164.817Z" fill="#00B0FF"/>
<path d="M24.7635 154.618L14.5732 139.041C14.5732 139.041 17.1813 154.407 26.2402 157.589L24.7635 154.618Z" fill="#00B0FF"/>
<path d="M17.7644 137.717C17.7644 137.717 5.93068 129.512 5.50195 128.2C5.50195 128.2 11.5399 139.695 22.6987 141.72L17.7644 137.717Z" fill="#00B0FF"/>
<path d="M17.058 134.025C17.058 134.025 3.46972 120.908 -0.0117188 120.92C-0.0117188 120.92 11.1948 121.434 17.3716 133.328L17.058 134.025Z" fill="#00B0FF"/>
<path d="M27.5417 166.763L27.0455 166.827C24.493 146.752 20.7694 134.89 16.5615 133.423L16.7283 132.949C21.1902 134.504 24.9138 146.198 27.5417 166.763Z" fill="#444053"/>
<path d="M31.2819 214.76L30.5356 214.824C30.3768 212.95 30.2577 211.032 30.1744 209.122C29.4638 192.504 28.3562 177.25 26.9033 165.811L27.336 165.276C28.7929 176.731 30.2101 192.452 30.9088 209.086C31.008 210.988 31.1152 212.894 31.2819 214.76Z" fill="#444053"/>
<path d="M88.5484 305.625C88.4174 305.565 75.2538 299.664 61.5861 285.578C53.5834 277.333 46.9312 267.868 41.8765 257.533C35.5607 244.623 31.7101 228.75 30.4199 213.324L31.2139 213.691C34.1157 248.315 49.808 271.986 62.2887 284.86C75.8215 298.815 88.8382 304.664 88.9692 304.72L88.5484 305.625Z" fill="#444053"/>
<path d="M397.225 53.1359V294.29C397.225 301.467 390.338 307.292 381.831 307.292H56.0644C47.5613 307.292 40.6738 301.459 40.6738 294.29V53.1359C40.6738 45.9592 47.5613 38.627 56.0644 38.627L381.815 39.4244C390.318 39.4204 397.225 45.9512 397.225 53.1359Z" fill="#E8EAF2"/>
<path d="M397.225 53.2077V64.3715H40.6738V53.2077C40.6738 49.3406 42.2033 45.632 44.9258 42.8976C47.6483 40.1631 51.3408 38.627 55.1911 38.627H382.692C384.6 38.6254 386.489 39.0013 388.252 39.7333C390.015 40.4653 391.617 41.539 392.966 42.8931C394.316 44.2471 395.387 45.855 396.117 47.6248C396.848 49.3946 397.225 51.2917 397.225 53.2077Z" fill="#65617D"/>
<path opacity="0.8" d="M57.9462 56.6483C60.7788 56.6483 63.0751 54.342 63.0751 51.497C63.0751 48.652 60.7788 46.3457 57.9462 46.3457C55.1137 46.3457 52.8174 48.652 52.8174 51.497C52.8174 54.342 55.1137 56.6483 57.9462 56.6483Z" fill="#FA5959"/>
<path opacity="0.8" d="M72.8759 56.6483C75.7085 56.6483 78.0048 54.342 78.0048 51.497C78.0048 48.652 75.7085 46.3457 72.8759 46.3457C70.0433 46.3457 67.7471 48.652 67.7471 51.497C67.7471 54.342 70.0433 56.6483 72.8759 56.6483Z" fill="#FED253"/>
<path opacity="0.8" d="M87.8017 56.6483C90.6343 56.6483 92.9306 54.342 92.9306 51.497C92.9306 48.652 90.6343 46.3457 87.8017 46.3457C84.9691 46.3457 82.6729 48.652 82.6729 51.497C82.6729 54.342 84.9691 56.6483 87.8017 56.6483Z" fill="#8CCF4D"/>
<path d="M389.305 302.288L380.639 289.677C380.639 289.677 380.477 286.555 379.909 285.825C379.341 285.096 379.79 283.469 379.79 283.469C379.79 283.469 380.397 282.576 379.869 282.496C379.341 282.416 379.79 280.427 379.79 280.427L379.746 277.261C379.746 277.261 380.234 274.219 379.829 273.489C379.711 273.292 379.652 273.065 379.659 272.836C379.666 272.606 379.739 272.383 379.869 272.194C379.869 272.194 380.353 270.447 379.869 270.001C379.385 269.554 379.504 266.835 379.627 264.686C379.75 262.537 378.777 261.321 378.777 260.994C378.777 260.667 375.578 257.505 375.578 257.222C375.578 256.939 373.553 255.759 372.339 255.436C371.124 255.113 370.517 254.87 370.556 254.706C370.596 254.543 368.655 253.909 368.655 253.909C368.655 253.909 366.952 253.789 366.305 252.936C365.658 252.083 363.677 251.84 363.621 251.832C363.566 251.824 363.593 251.716 363.581 251.66L363.546 251.477C363.697 251.221 363.839 250.954 363.967 250.679L364.082 250.432C364.791 250.434 365.484 250.217 366.066 249.81C366.352 249.569 366.585 249.273 366.751 248.938C366.918 248.603 367.015 248.238 367.035 247.864C367.07 247.115 366.907 246.369 366.563 245.703C366.205 244.97 365.685 244.216 365.864 243.423C365.943 243.08 366.146 242.781 366.261 242.446C366.416 241.792 366.312 241.103 365.971 240.524C365.662 239.934 365.237 239.416 364.895 238.846C364.458 238.112 364.166 237.299 364.038 236.453C364.012 236.007 363.906 235.57 363.724 235.162C363.54 234.874 363.298 234.628 363.014 234.44C361.743 233.527 360.208 233.062 358.647 233.116C357.544 233.152 356.444 233.451 355.348 233.316C354.695 233.202 354.052 233.033 353.427 232.809C352.069 232.41 350.501 232.239 349.318 233.021C348.135 233.802 347.667 235.337 346.865 236.537C346.154 237.602 345.118 238.491 344.578 239.615C344.578 239.595 344.578 239.571 344.578 239.551C344.447 239.813 344.346 240.088 344.277 240.373C344.128 241.27 344.189 242.19 344.455 243.06C344.518 243.527 344.751 243.953 345.11 244.256C345.507 244.511 346.059 244.451 346.528 244.535C346.528 244.611 346.488 244.687 346.472 244.766C345.988 247.052 346.38 249.437 347.57 251.445C348.76 253.453 350.66 254.937 352.891 255.599C352.891 255.683 352.891 255.767 352.891 255.847C352.891 256.08 352.876 256.313 352.847 256.544C352.847 256.544 348.778 255.703 347.687 256.273C346.595 256.843 344.447 257.286 344.114 257.613C343.781 257.94 342.979 257.693 342.248 259.606C341.518 261.52 341.454 263.462 340.509 264.355C339.565 265.248 339.092 265.854 339.053 266.504C339.013 267.154 339.172 267.301 338.806 267.517C338.441 267.732 337.917 268.573 338.08 268.896C338.136 269.121 338.123 269.357 338.044 269.575C337.964 269.792 337.822 269.981 337.635 270.116C337.446 270.249 337.294 270.429 337.195 270.639C337.095 270.849 337.051 271.081 337.068 271.312C337.068 271.312 336.826 272.205 336.274 272.409C335.722 272.612 335.341 273.948 335.341 273.948L333.507 276.069L329.867 272.026C329.593 271.724 329.212 271.543 328.806 271.522C328.4 271.501 328.002 271.642 327.699 271.914L325.913 273.509C325.224 273.678 324.602 274.05 324.126 274.578C323.737 274.98 323.423 275.448 323.198 275.961L322.221 276.846C321.913 277.23 321.724 277.697 321.68 278.188C321.635 278.679 321.737 279.172 321.971 279.605L324.301 282.193V282.217C323.487 282.309 322.718 282.644 322.094 283.178C318.613 286.26 318.569 289.103 319.097 290.398C319.625 291.694 324.035 296.69 324.035 296.69C324.035 296.69 326.6 300.035 330.299 301.817L330.272 301.845C330.2 301.925 330.125 302.009 330.053 302.101L329.994 302.176C329.977 302.204 329.958 302.23 329.938 302.256L329.875 302.352L329.823 302.431L329.752 302.551L329.708 302.627L329.625 302.786C329.625 302.786 329.605 302.818 329.597 302.838C329.589 302.858 329.529 302.982 329.498 303.057C329.485 303.085 329.475 303.113 329.466 303.141C329.442 303.193 329.422 303.249 329.402 303.301L329.367 303.408C329.367 303.46 329.331 303.512 329.315 303.564L329.279 303.679L329.232 303.859C329.232 303.895 329.212 303.931 329.2 303.966C329.188 304.002 329.156 304.158 329.136 304.258C329.132 304.296 329.125 304.335 329.116 304.373L329.081 304.584C329.081 304.632 329.081 304.68 329.061 304.732L329.037 304.931C329.037 304.983 329.037 305.035 329.037 305.087C329.037 305.139 329.037 305.238 329.037 305.318V305.462C329.037 305.589 329.037 305.717 329.037 305.86C328.954 310.609 329.232 311.299 329.232 311.299C329.411 311.738 329.705 312.12 330.083 312.405C330.461 312.69 330.909 312.867 331.379 312.917C331.611 312.934 331.845 312.922 332.074 312.882C334.178 312.515 339.116 311.662 340.859 311.988C341.907 312.184 343.844 311.893 345.226 311.634L345.591 311.562L345.845 312.359L346.639 312.14L347.322 312.539C347.5 312.646 347.647 312.73 347.75 312.786C348.544 315.509 351.791 314.58 351.791 314.58L352.562 315.027L360.374 315.23C361.255 315.763 362.186 316.209 363.153 316.562C363.283 316.601 363.415 316.631 363.55 316.649C364.275 316.706 365.002 316.719 365.729 316.689C366.328 316.689 366.789 316.649 366.789 316.649C366.789 316.649 366.71 314.516 366.598 312.132C369.02 312.072 371.436 311.874 373.835 311.538C378.007 310.8 379.75 306.989 380.389 304.951C380.578 305.784 380.711 306.628 380.786 307.479C380.957 308.223 381.174 308.955 381.433 309.672C381.662 310.248 381.962 310.794 382.326 311.295C385.403 310.238 383.541 308.655 382.894 307.966C382.247 307.276 383.339 306.71 383.339 306.71C383.339 306.71 384.188 306.139 384.109 305.613C384.029 305.087 383.986 304.517 386.741 304.561C389.496 304.604 389.305 302.288 389.305 302.288ZM346.547 276.372C346.583 276.607 346.968 279.103 347.314 279.761C347.413 280.2 347.444 280.652 347.405 281.101C345.773 280.969 344.074 280.897 344.074 280.897C344.123 280.958 344.154 281.031 344.162 281.109L343.908 281.049L343.534 280.957L346.539 276.368L346.547 276.372ZM340.593 285.889L343.419 286.336L343.653 286.376C343.575 286.818 343.526 287.266 343.507 287.715C343.507 287.755 343.574 287.807 343.661 287.867C343.623 288.088 343.606 288.312 343.61 288.537C343.654 288.76 344.975 289.246 346.488 289.649C346.468 289.733 346.448 289.808 346.424 289.88C345.087 289.174 342.983 288.844 342.74 288.321C342.498 287.799 335.329 285.291 335.329 285.291C335.329 285.291 335.067 285.151 334.614 284.932L336.504 285.291L337.02 285.239C338.196 285.536 339.389 285.756 340.593 285.897V285.889Z" fill="url(#paint0_linear)"/>
<path d="M380.088 304.05C380.088 304.05 378.965 310.864 373.264 311.869C367.564 312.873 348.545 312.666 348.545 312.666C348.545 312.666 337.672 311.071 333.738 301.861C329.804 292.651 327.279 288.967 330.649 288.803C334.019 288.64 352.197 294.971 353.241 295.051C354.285 295.131 381.092 281.037 380.088 304.05Z" fill="#65617D"/>
<path opacity="0.05" d="M380.088 304.05C380.088 304.05 378.965 310.864 373.264 311.869C367.564 312.873 348.545 312.666 348.545 312.666C348.545 312.666 337.672 311.071 333.738 301.861C329.804 292.651 327.279 288.967 330.649 288.803C334.019 288.64 352.197 294.971 353.241 295.051C354.285 295.131 381.092 281.037 380.088 304.05Z" fill="black"/>
<path d="M329.077 311.63C329.256 312.063 329.549 312.44 329.923 312.72C330.297 313.001 330.74 313.175 331.205 313.224C331.434 313.241 331.665 313.229 331.892 313.189C333.98 312.826 338.874 311.992 340.601 312.303C341.637 312.495 343.558 312.208 344.924 311.949C345.833 311.777 346.512 311.618 346.512 311.618C346.512 311.618 344.904 306.255 344.706 306.096C344.507 305.936 337.481 301.71 337.481 301.71L331.923 301.311C331.176 301.425 330.501 301.823 330.038 302.423C329.45 303.137 328.946 304.309 328.914 306.227C328.803 310.944 329.077 311.63 329.077 311.63Z" fill="#3F3D56"/>
<path opacity="0.05" d="M329.078 311.629C329.257 312.063 329.549 312.439 329.924 312.72C330.298 313.001 330.741 313.175 331.205 313.224C330.659 312.517 330.155 311.778 329.697 311.011L329.725 307.104C329.611 306.032 329.75 304.949 330.129 303.941C330.508 302.932 331.117 302.028 331.908 301.299C331.908 301.299 328.978 301.498 328.899 306.215C328.82 310.932 329.078 311.629 329.078 311.629Z" fill="black"/>
<path opacity="0.1" d="M353.2 303.085L358.361 299.014L366.507 290.952C366.507 290.952 365.63 290.908 364.3 290.853C363.97 291.064 363.045 291.73 363.01 292.535C362.97 293.52 360.81 292.603 359.687 293.169C358.564 293.735 353.066 300.8 352.101 300.744C351.136 300.689 350.374 300.254 349.973 300.94L349.945 300.984L353.2 303.085Z" fill="black"/>
<path opacity="0.1" d="M330.006 302.435L330.57 302.695C334.5 304.385 339.354 307.934 339.7 308.579C339.922 308.978 342.737 310.685 344.908 311.973C345.817 311.801 346.496 311.642 346.496 311.642C346.496 311.642 344.888 306.279 344.69 306.119C344.491 305.96 337.465 301.734 337.465 301.734L331.907 301.335C331.156 301.442 330.475 301.836 330.006 302.435Z" fill="black"/>
<path d="M319.089 290.873C319.613 292.16 323.988 297.12 323.988 297.12C323.988 297.12 326.766 300.745 330.688 302.439C334.611 304.134 339.477 307.678 339.839 308.324C340.069 308.723 343.205 310.632 345.396 311.936L345.892 312.227L346.988 312.865L347.568 313.2L350.247 311.027C351.569 309.951 352.883 308.866 352.903 308.806C352.943 308.687 353.467 307.315 353.344 307.235C353.284 307.192 353.006 306.637 352.498 305.987C351.96 305.267 351.26 304.686 350.454 304.293C349.282 303.69 348.349 302.706 347.806 301.502C347.806 301.502 347.631 301.374 347.365 301.207C346.818 300.83 346.205 300.56 345.559 300.41C344.678 300.298 343.034 298.484 343.034 298.484C342.391 298.063 341.854 297.498 341.466 296.833C341.045 295.948 334.821 291.65 334.245 291.251L349.33 300.984L352.939 303.312L358.099 299.241L366.249 291.184C366.249 291.184 365.153 291.128 363.558 291.06C359.588 290.888 352.569 290.617 351.68 290.821C350.957 290.989 350.212 291.037 349.473 290.964C349.473 290.964 347.488 291.056 346.143 290.35C344.797 289.644 342.733 289.322 342.49 288.799C342.248 288.277 335.146 285.781 335.146 285.781C335.146 285.781 325.476 280.622 322.023 283.684C318.569 286.746 318.569 289.581 319.089 290.873Z" fill="#65617D"/>
<path d="M350.279 261.289L351.522 265.439L353.11 274.789L359.009 275.188L360.716 272.345L362.419 269.506C362.419 269.506 363.483 265.726 364.245 262.074C364.92 258.837 365.36 255.695 364.642 255.36C363.991 255.057 363.562 253.969 363.284 252.796C363.248 252.653 363.217 252.505 363.189 252.358C362.99 251.366 362.857 250.361 362.792 249.351C362.792 249.351 350.43 248.71 352.157 253.829C352.466 254.702 352.623 255.622 352.621 256.548C352.621 256.78 352.607 257.012 352.582 257.242C352.497 258.04 352.249 258.811 351.853 259.508C351.456 260.204 350.921 260.811 350.279 261.289Z" fill="#EE8E9E"/>
<path d="M347.703 260.603L348.144 267.656L349.148 273.661L350.272 276.451L351.276 291.67C351.276 291.67 360.95 292.794 363.304 291.65C363.472 291.578 363.619 291.462 363.729 291.315C366.555 286.993 365.642 274.526 365.642 274.526L366.726 266.468L366.003 262.281L364.257 262.098L362.911 261.951C362.911 261.951 362.609 262.325 362.173 262.907C360.982 264.502 358.794 267.588 358.941 268.888C359.14 270.662 358.699 272.476 358.016 272.759C357.334 273.043 356.774 273.525 356.651 273.039C356.483 272.631 356.442 272.182 356.532 271.751C356.651 271.065 356.012 268.96 356.012 268.96C356.012 268.96 354.928 266.504 355.007 265.455C355.087 264.407 354.888 263.198 354.567 262.915C354.245 262.632 353.805 262.349 354.17 261.061C354.535 259.774 352.582 257.262 352.582 257.262L347.703 260.603Z" fill="#E3E8F4"/>
<path opacity="0.1" d="M360.485 278.218L360.882 290.271L363.201 291.559C363.369 291.489 363.516 291.375 363.625 291.228C366.468 286.914 365.535 274.43 365.535 274.43L366.618 266.368L365.896 262.186L364.153 261.999C364.828 258.765 365.269 255.619 364.55 255.284C363.899 254.981 363.471 253.893 363.193 252.725L361.942 261.249C361.942 261.249 362.045 262.018 362.081 262.812C362.134 263.314 362.101 263.821 361.982 264.311C361.7 265.037 361.903 266.328 361.903 266.328C361.176 267.608 360.815 269.981 360.64 272.269C360.394 275.323 360.485 278.218 360.485 278.218Z" fill="black"/>
<path d="M363.216 252.529C363.216 252.529 365.241 252.784 365.88 253.629C366.519 254.475 368.21 254.598 368.21 254.598C368.21 254.598 370.135 255.24 370.096 255.396C370.056 255.551 370.655 255.794 371.862 256.121C373.069 256.448 375.07 257.612 375.07 257.895C375.07 258.178 378.245 261.32 378.245 261.643C378.245 261.966 379.21 263.174 379.087 265.311C378.964 267.448 378.849 270.148 379.329 270.59C379.81 271.033 379.329 272.767 379.329 272.767C379.201 272.956 379.129 273.177 379.122 273.405C379.115 273.633 379.173 273.859 379.29 274.055C379.686 274.781 379.21 277.803 379.21 277.803L379.25 280.949C379.25 280.949 378.809 282.942 379.329 283.002C379.849 283.062 379.25 283.971 379.25 283.971C379.25 283.971 378.809 285.566 379.369 286.307C379.929 287.049 380.091 290.139 380.091 290.139L388.678 302.674C388.678 302.674 388.801 304.971 386.07 304.931C383.339 304.891 383.382 305.453 383.462 305.979C383.541 306.506 382.699 307.064 382.699 307.064C382.699 307.064 381.616 307.63 382.259 308.316C382.902 309.002 384.748 310.573 381.695 311.621C381.337 311.128 381.041 310.592 380.814 310.026C380.555 309.316 380.34 308.59 380.171 307.853C380.171 307.853 379.889 304.787 379.329 304.385C378.769 303.982 378.861 302.036 378.861 302.036C378.861 302.036 379.655 300.465 378.539 299.819C377.424 299.174 361.12 290.107 361.12 290.107L360.723 278.054C360.723 278.054 360.445 269.147 362.128 266.165C362.128 266.165 361.93 264.873 362.208 264.147C362.486 263.421 362.168 261.085 362.168 261.085L363.216 252.529Z" fill="#3F3D56"/>
<path opacity="0.1" d="M352.701 257.381C352.701 257.381 348.668 256.548 347.584 257.11C346.5 257.673 344.372 258.119 344.051 258.442C343.729 258.765 342.927 258.522 342.205 260.436C341.482 262.349 341.411 264.267 340.478 265.152C339.545 266.037 339.077 266.643 339.037 267.289C338.997 267.935 339.156 268.087 338.795 268.298C338.434 268.509 337.91 269.343 338.073 269.666C338.235 269.989 346.409 277.082 346.409 277.082C346.409 277.082 346.806 279.785 347.171 280.467C347.536 281.148 346.774 290.586 345.98 291.232C345.186 291.878 351.399 291.814 351.399 291.814C351.399 291.814 351.681 285.626 351.923 285.307C352.165 284.988 351.76 278.373 351.76 278.373C351.76 278.373 351.72 272.732 352.24 271.237C352.76 269.741 352.705 264.789 352.705 264.789C352.705 264.789 353.165 261.815 353.725 261.121C354.285 260.428 352.701 257.381 352.701 257.381Z" fill="black"/>
<path d="M352.582 257.245C352.582 257.245 348.545 256.408 347.461 256.974C346.377 257.541 344.253 257.983 343.932 258.306C343.61 258.629 342.808 258.386 342.086 260.28C341.363 262.173 341.292 264.107 340.359 264.996C339.426 265.885 338.954 266.488 338.914 267.129C338.874 267.771 339.037 267.927 338.676 268.138C338.315 268.349 337.791 269.187 337.953 269.51C338.116 269.833 346.31 276.918 346.31 276.918C346.31 276.918 346.707 279.617 347.072 280.303C347.437 280.988 346.675 290.418 345.881 291.068C345.087 291.718 351.276 291.67 351.276 291.67C351.276 291.67 351.558 285.482 351.796 285.159C352.034 284.836 351.637 278.225 351.637 278.225C351.637 278.225 351.597 272.584 352.117 271.093C352.637 269.601 352.582 264.645 352.582 264.645C352.582 264.645 353.042 261.671 353.602 260.977C354.162 260.284 352.582 257.245 352.582 257.245Z" fill="#3F3D56"/>
<path opacity="0.1" d="M352.157 253.833C352.465 254.706 352.622 255.626 352.621 256.552C354.595 257.141 356.708 257.049 358.623 256.289C360.538 255.529 362.144 254.146 363.185 252.362C362.985 251.37 362.853 250.365 362.788 249.355C362.788 249.355 350.43 248.713 352.157 253.833Z" fill="black"/>
<path d="M346.06 247.462C346.062 249.823 346.967 252.093 348.588 253.804C350.208 255.515 352.42 256.536 354.768 256.657C357.116 256.777 359.42 255.989 361.206 254.453C362.992 252.918 364.123 250.752 364.366 248.404C364.609 246.055 363.946 243.702 362.513 241.831C361.079 239.959 358.986 238.711 356.663 238.344C354.341 237.978 351.967 238.52 350.031 239.859C348.095 241.199 346.744 243.234 346.258 245.544C346.125 246.174 346.059 246.817 346.06 247.462Z" fill="#EE8E9E"/>
<path d="M340.161 268.824L337.973 269.51C338.025 269.731 338.011 269.963 337.932 270.176C337.853 270.389 337.712 270.573 337.529 270.706C337.341 270.841 337.191 271.021 337.093 271.231C336.995 271.44 336.953 271.671 336.969 271.902C336.969 271.902 336.727 272.791 336.175 272.991C335.623 273.19 335.25 274.526 335.25 274.526L333.404 276.659C333.404 276.659 332.721 277.225 332.845 277.508C332.968 277.791 332.122 277.871 332.122 277.871L332.563 285.048L336.374 285.773L338.755 285.53L340.681 284.804L342.364 283.8L343.13 281.806L346.5 276.647L340.161 268.824Z" fill="#3F3D56"/>
<path d="M332.654 278.457C332.654 278.457 327.759 271.364 324.107 275.192C320.455 279.019 325.591 285.227 326.794 285.028C327.997 284.828 333.737 284.493 333.737 284.493L332.654 278.457Z" fill="#EE8E9E"/>
<path d="M344.228 275.426L322.494 264.285C322.193 264.13 321.825 264.25 321.671 264.552L313.182 281.257C313.029 281.559 313.148 281.929 313.449 282.083L335.183 293.225C335.484 293.379 335.852 293.26 336.006 292.957L344.495 276.252C344.648 275.95 344.529 275.581 344.228 275.426Z" fill="#3F3D56"/>
<path d="M342.155 276.388L322.97 266.553L315.59 281.074L334.776 290.909L342.155 276.388Z" fill="#00B0FF"/>
<path d="M318.561 273.772C318.756 273.772 318.915 273.613 318.915 273.417C318.915 273.221 318.756 273.062 318.561 273.062C318.366 273.062 318.208 273.221 318.208 273.417C318.208 273.613 318.366 273.772 318.561 273.772Z" fill="#E6E8EC"/>
<path d="M339.327 284.689C339.649 284.689 339.91 284.426 339.91 284.103C339.91 283.779 339.649 283.517 339.327 283.517C339.004 283.517 338.743 283.779 338.743 284.103C338.743 284.426 339.004 284.689 339.327 284.689Z" fill="#E6E8EC"/>
<path d="M329.485 279.948C329.446 285.271 340.398 286.395 340.398 286.395L343.177 286.842L344.431 287.041L344.955 281.858C344.955 281.858 344.38 281.774 343.661 281.607C342.601 281.356 341.228 280.929 340.942 280.327C340.478 279.31 329.525 274.63 329.485 279.948Z" fill="#EE8E9E"/>
<path opacity="0.1" d="M346.258 245.544C346.51 245.562 346.748 245.67 346.929 245.847C347.242 246.178 347.258 246.76 347.659 246.963C347.81 247.032 347.977 247.051 348.139 247.019C349.207 246.868 349.823 245.659 350.847 245.325C351.447 245.174 352.08 245.229 352.645 245.48C352.875 245.556 353.079 245.694 353.237 245.879C353.582 246.325 353.34 246.983 353.499 247.521C353.721 248.271 354.61 248.566 355.38 248.666C356.15 248.765 357.02 248.817 357.532 249.399C357.704 249.617 357.828 249.869 357.897 250.138C357.965 250.408 357.976 250.688 357.929 250.962C357.883 251.151 357.883 251.348 357.929 251.536C358.143 252.142 359.183 252.051 359.457 251.576C359.656 251.229 359.592 250.938 360.061 250.843C360.398 250.816 360.736 250.875 361.045 251.014C361.861 251.3 362.722 251.435 363.586 251.413C364.136 250.235 364.431 248.954 364.454 247.653C364.476 246.353 364.225 245.062 363.715 243.866C363.206 242.67 362.451 241.595 361.5 240.713C360.548 239.83 359.422 239.16 358.194 238.745C356.966 238.33 355.665 238.181 354.376 238.307C353.087 238.433 351.839 238.831 350.714 239.475C349.589 240.119 348.612 240.995 347.847 242.045C347.083 243.095 346.548 244.296 346.278 245.568L346.258 245.544Z" fill="black"/>
<path d="M357.909 251.281C357.863 251.091 357.863 250.893 357.909 250.703C357.956 250.43 357.945 250.149 357.876 249.881C357.808 249.612 357.684 249.361 357.512 249.144C356.999 248.558 356.13 248.502 355.36 248.406C354.59 248.311 353.701 248.008 353.478 247.262C353.32 246.724 353.562 246.066 353.216 245.623C353.061 245.436 352.856 245.298 352.625 245.225C352.061 244.968 351.426 244.913 350.827 245.069C349.802 245.4 349.187 246.612 348.119 246.764C347.957 246.792 347.79 246.772 347.639 246.708C347.242 246.505 347.218 245.91 346.908 245.588C346.424 245.069 345.499 245.404 344.9 245.021C344.542 244.719 344.311 244.292 344.253 243.825C343.988 242.961 343.927 242.046 344.074 241.154C344.423 239.655 345.757 238.626 346.611 237.346C347.405 236.15 347.849 234.643 349.044 233.854C350.239 233.064 351.767 233.244 353.113 233.642C353.733 233.862 354.371 234.03 355.019 234.145C356.106 234.28 357.194 233.981 358.286 233.945C359.829 233.896 361.345 234.358 362.601 235.261C362.882 235.448 363.122 235.693 363.303 235.979C363.484 236.383 363.59 236.816 363.617 237.259C363.745 238.093 364.032 238.894 364.463 239.619C364.8 240.185 365.225 240.699 365.53 241.285C365.868 241.861 365.971 242.545 365.816 243.195C365.713 243.526 365.511 243.825 365.419 244.164C365.241 244.962 365.757 245.703 366.11 246.429C366.449 247.092 366.61 247.833 366.578 248.578C366.559 248.949 366.463 249.313 366.297 249.646C366.131 249.978 365.898 250.273 365.614 250.512C365.018 250.928 364.307 251.144 363.581 251.13C362.7 251.157 361.822 251.022 360.989 250.731C360.681 250.594 360.344 250.535 360.009 250.559C359.54 250.659 359.612 250.958 359.401 251.293C359.163 251.799 358.123 251.883 357.909 251.281Z" fill="#3F3D56"/>
<path opacity="0.1" d="M352.958 303.325L358.119 299.254L366.269 291.196C366.269 291.196 365.173 291.14 363.577 291.072C363.263 291.359 363.062 291.75 363.01 292.173C362.97 293.158 360.81 292.24 359.687 292.807C358.564 293.373 353.066 300.438 352.101 300.382C351.136 300.326 350.374 299.892 349.973 300.577L349.945 300.621C349.785 300.805 349.571 300.934 349.334 300.988L352.958 303.325Z" fill="black"/>
<path d="M342.526 303.045L345.119 311.382L345.516 312.694L346.754 312.351L349.485 311.597L361.648 308.244C363.173 308.167 364.663 307.759 366.015 307.048C368.31 305.758 370.936 305.182 373.558 305.394C375.145 305.545 376.952 304.847 378.436 302.096C378.436 302.096 381.807 292.101 373.3 289.238C364.792 286.375 364.384 290.761 364.384 290.761L364.268 290.833C363.939 291.044 363.014 291.71 362.978 292.515C362.939 293.5 360.779 292.583 359.656 293.149C358.532 293.715 353.034 300.781 352.07 300.725C351.105 300.669 350.343 300.234 349.942 300.92L349.914 300.964C349.616 301.363 348.723 301.47 348.132 301.49C347.81 301.49 347.576 301.49 347.576 301.49L347.5 301.514L346.881 301.698L342.526 303.045Z" fill="#65617D"/>
<path opacity="0.1" d="M343.197 286.842L344.452 287.041L344.976 281.858C344.976 281.858 344.4 281.774 343.682 281.607C343.872 282.317 343.443 285.12 343.197 286.842Z" fill="black"/>
<path opacity="0.1" d="M376.015 262.565C376.015 262.565 379.746 261.476 378.821 272.134C377.896 282.791 370.997 289.505 370.997 289.505C370.997 289.505 363.058 293.01 359.485 292.448C355.912 291.886 353.304 291.762 353.304 291.762C352.18 291.19 350.95 290.86 349.692 290.793C347.707 290.713 343.471 289.465 343.392 289.059C343.312 288.652 344.436 282.731 343.951 282.281C343.951 282.281 349.573 282.512 350.132 282.923C350.692 283.333 351.498 283.038 352.117 282.923C352.736 282.807 354.562 281.192 358.215 282.604C358.215 282.604 359.461 282.723 359.941 282.404C360.334 282.219 360.782 282.189 361.196 282.321C361.506 282.215 361.8 282.066 362.069 281.878C362.188 281.719 363.153 281.878 363.153 281.878C363.21 281.906 363.273 281.921 363.336 281.921C363.4 281.922 363.463 281.908 363.52 281.881C363.578 281.854 363.628 281.814 363.669 281.764C363.709 281.715 363.737 281.657 363.752 281.595C363.88 281.265 364.071 280.964 364.316 280.71C364.316 280.71 365.4 274.582 367.444 272.285C367.609 272.143 367.736 271.962 367.813 271.758C367.89 271.553 367.915 271.333 367.885 271.117C367.706 270.447 371.196 261.257 376.015 262.565Z" fill="black"/>
<path d="M375.916 261.731C375.916 261.731 379.648 260.643 378.723 271.3C377.798 281.958 370.898 288.672 370.898 288.672C370.898 288.672 362.959 292.176 359.386 291.614C355.814 291.052 353.205 290.929 353.205 290.929C352.082 290.356 350.851 290.026 349.593 289.96C347.608 289.88 343.372 288.632 343.293 288.225C343.214 287.819 344.337 281.898 343.857 281.447C343.857 281.447 349.474 281.679 350.034 282.089C350.593 282.5 351.399 282.205 352.019 282.089C352.638 281.974 354.464 280.359 358.116 281.77C358.116 281.77 359.362 281.89 359.843 281.567C360.236 281.384 360.684 281.356 361.097 281.487C361.408 281.381 361.702 281.232 361.971 281.045C362.09 280.885 363.054 281.045 363.054 281.045C363.111 281.073 363.174 281.087 363.238 281.088C363.301 281.088 363.364 281.075 363.422 281.047C363.479 281.02 363.53 280.98 363.57 280.931C363.61 280.881 363.639 280.824 363.654 280.762C363.781 280.432 363.973 280.131 364.217 279.876C364.217 279.876 365.301 273.748 367.346 271.452C367.511 271.31 367.638 271.128 367.715 270.924C367.793 270.72 367.819 270.5 367.79 270.283C367.608 269.63 371.101 260.439 375.916 261.731Z" fill="#3F3D56"/>
<path opacity="0.1" d="M346.929 301.718L352.232 308.161L352.264 308.125C352.304 308.001 352.824 306.63 352.705 306.55C352.586 306.47 351.661 304.453 349.815 303.607C348.877 303.149 348.09 302.429 347.548 301.534L346.929 301.718Z" fill="black"/>
<path opacity="0.1" d="M347.005 312.865L347.584 313.2L350.264 311.027C351.586 309.951 352.9 308.866 352.92 308.806C352.959 308.687 353.483 307.315 353.36 307.236C353.301 307.192 353.023 306.637 352.515 305.988C348.942 304.979 351.213 307.483 351.514 307.582C351.514 307.582 347.148 306.574 346.901 311.358C346.869 311.863 346.904 312.37 347.005 312.865Z" fill="black"/>
<path d="M351.434 314.895L352.196 315.337L359.941 315.536C360.81 316.067 361.729 316.512 362.684 316.864C362.814 316.903 362.947 316.931 363.081 316.948C363.799 317.007 364.521 317.02 365.241 316.988C365.832 316.988 366.293 316.948 366.293 316.948C366.293 316.948 365.923 307.14 365.649 306.107C365.514 305.613 364.856 305.708 364.228 305.967C363.747 306.164 363.282 306.4 362.839 306.673C362.839 306.673 359.548 306.992 359.028 307.279C358.508 307.566 357.019 307.116 356.098 307.279C355.177 307.443 353.53 306.187 353.53 306.187C349.036 304.696 351.545 307.479 351.882 307.598C351.882 307.598 347.516 306.589 347.27 311.374C347.024 316.158 351.434 314.895 351.434 314.895Z" fill="#3F3D56"/>
<path d="M362.629 311.103C362.716 313.137 364.292 315.657 365.233 316.988C365.824 316.988 366.285 316.948 366.285 316.948C366.285 316.948 365.915 307.14 365.642 306.107C365.507 305.613 364.848 305.709 364.22 305.968C363.442 307.431 362.585 309.469 362.629 311.103Z" fill="#565387"/>
<path opacity="0.1" d="M362.629 311.103C362.716 313.137 364.292 315.657 365.233 316.988C365.824 316.988 366.285 316.948 366.285 316.948C366.285 316.948 365.915 307.14 365.642 306.107C365.507 305.613 364.848 305.709 364.22 305.968C363.442 307.431 362.585 309.469 362.629 311.103Z" fill="black"/>
<path opacity="0.05" d="M361.306 311.374C361.838 313.336 361.834 315.533 362.684 316.865C362.814 316.904 362.946 316.932 363.081 316.948C363.799 317.007 364.52 317.02 365.24 316.988C365.832 316.988 366.292 316.948 366.292 316.948C366.292 316.948 365.923 307.14 365.649 306.107C365.514 305.613 364.855 305.709 364.228 305.968C363.747 306.164 363.282 306.401 362.839 306.674C362.839 306.674 360.624 308.863 361.306 311.374Z" fill="black"/>
<path opacity="0.1" d="M334.587 291.487C334.587 291.487 338.434 292.743 341.693 297.2L334.587 291.487Z" fill="black"/>
<g opacity="0.1">
<path opacity="0.1" d="M365.848 243.124L365.824 243.211C365.787 243.326 365.742 243.438 365.689 243.546C365.731 243.401 365.784 243.26 365.848 243.124Z" fill="black"/>
<path opacity="0.1" d="M344.083 241.17C344.151 240.894 344.251 240.626 344.38 240.373C344.38 240.44 344.341 240.508 344.325 240.58C344.174 241.473 344.235 242.39 344.503 243.255C344.56 243.722 344.791 244.15 345.15 244.451C345.746 244.85 346.671 244.503 347.159 245.021C347.469 245.348 347.485 245.935 347.889 246.138C348.04 246.204 348.208 246.224 348.37 246.194C349.434 246.042 350.053 244.83 351.077 244.499C351.675 244.343 352.309 244.398 352.871 244.655C353.102 244.732 353.307 244.87 353.467 245.053C353.808 245.5 353.57 246.154 353.729 246.696C353.947 247.442 354.836 247.741 355.607 247.836C356.377 247.932 357.246 247.992 357.762 248.574C357.933 248.792 358.056 249.043 358.124 249.311C358.193 249.58 358.204 249.86 358.159 250.133C358.112 250.323 358.112 250.521 358.159 250.711C358.369 251.317 359.41 251.225 359.683 250.747C359.882 250.4 359.822 250.113 360.291 250.017C360.627 249.988 360.965 250.047 361.271 250.189C362.104 250.478 362.983 250.613 363.864 250.587C364.59 250.598 365.302 250.381 365.9 249.965C366.16 249.759 366.372 249.5 366.523 249.204C366.39 249.742 366.086 250.222 365.658 250.571C365.062 250.987 364.351 251.203 363.625 251.189C362.744 251.217 361.866 251.082 361.033 250.791C360.724 250.653 360.386 250.594 360.049 250.619C359.58 250.719 359.652 251.018 359.441 251.353C359.171 251.831 358.131 251.919 357.917 251.317C357.873 251.127 357.873 250.929 357.917 250.739C357.965 250.466 357.955 250.185 357.886 249.916C357.818 249.648 357.693 249.397 357.52 249.18C357.008 248.594 356.139 248.538 355.368 248.442C354.598 248.347 353.709 248.044 353.487 247.298C353.328 246.76 353.57 246.102 353.225 245.659C353.069 245.473 352.864 245.335 352.633 245.261C352.069 245.004 351.435 244.949 350.835 245.105C349.811 245.436 349.192 246.648 348.128 246.8C347.966 246.828 347.799 246.808 347.647 246.744C347.25 246.541 347.227 245.946 346.917 245.624C346.429 245.105 345.508 245.44 344.908 245.057C344.549 244.756 344.318 244.328 344.261 243.861C343.992 242.991 343.93 242.069 344.083 241.17Z" fill="black"/>
</g>
<path opacity="0.1" d="M366.472 273.429C365.733 274.426 364.884 275.347 364.245 276.404C363.54 277.435 363.197 278.672 363.268 279.92C363.943 279.227 364.252 278.27 364.677 277.401C365.396 275.925 366.468 274.677 367.377 273.322C367.547 273.063 368.655 271.567 368.095 271.5C367.631 271.44 366.722 273.09 366.472 273.429Z" fill="black"/>
<path d="M113.792 143.638H80.9506C80.8015 143.629 80.652 143.651 80.5115 143.702C80.371 143.753 80.2424 143.833 80.1336 143.936C80.0248 144.038 79.9381 144.163 79.8789 144.3C79.8196 144.438 79.7891 144.587 79.7891 144.737C79.7891 144.887 79.8196 145.035 79.8789 145.173C79.9381 145.311 80.0248 145.435 80.1336 145.538C80.2424 145.641 80.371 145.72 80.5115 145.771C80.652 145.822 80.8015 145.844 80.9506 145.835H113.792C113.941 145.844 114.091 145.822 114.231 145.771C114.372 145.72 114.5 145.641 114.609 145.538C114.718 145.435 114.805 145.311 114.864 145.173C114.923 145.035 114.954 144.887 114.954 144.737C114.954 144.587 114.923 144.438 114.864 144.3C114.805 144.163 114.718 144.038 114.609 143.936C114.5 143.833 114.372 143.753 114.231 143.702C114.091 143.651 113.941 143.629 113.792 143.638ZM113.792 147.406H80.9506C80.66 147.406 80.3814 147.522 80.1759 147.728C79.9704 147.935 79.855 148.215 79.855 148.507C79.855 148.798 79.9704 149.078 80.1759 149.285C80.3814 149.491 80.66 149.607 80.9506 149.607H113.792C114.083 149.607 114.361 149.491 114.567 149.285C114.772 149.078 114.888 148.798 114.888 148.507C114.888 148.215 114.772 147.935 114.567 147.728C114.361 147.522 114.083 147.406 113.792 147.406ZM112.145 121.977H82.602C81.8745 121.978 81.177 122.268 80.6621 122.784C80.1473 123.301 79.8571 124.001 79.855 124.732V138.686C79.8571 139.417 80.1473 140.117 80.6621 140.634C81.177 141.15 81.8745 141.44 82.602 141.441H112.145C112.871 141.439 113.568 141.148 114.082 140.632C114.596 140.116 114.886 139.416 114.888 138.686V124.732C114.886 124.002 114.596 123.302 114.082 122.786C113.568 122.27 112.871 121.979 112.145 121.977ZM86.2661 138.942H83.4515C83.161 138.942 82.8823 138.826 82.6768 138.619C82.4713 138.413 82.3559 138.133 82.3559 137.841C82.3559 137.549 82.4713 137.269 82.6768 137.063C82.8823 136.857 83.161 136.741 83.4515 136.741H86.2661C86.5566 136.741 86.8353 136.857 87.0408 137.063C87.2463 137.269 87.3617 137.549 87.3617 137.841C87.3617 138.133 87.2463 138.413 87.0408 138.619C86.8353 138.826 86.5566 138.942 86.2661 138.942ZM86.2661 126.689H83.4515C83.161 126.689 82.8823 126.573 82.6768 126.367C82.4713 126.161 82.3559 125.881 82.3559 125.589C82.3559 125.297 82.4713 125.017 82.6768 124.811C82.8823 124.604 83.161 124.488 83.4515 124.488H86.2661C86.5566 124.488 86.8353 124.604 87.0408 124.811C87.2463 125.017 87.3617 125.297 87.3617 125.589C87.3617 125.881 87.2463 126.161 87.0408 126.367C86.8353 126.573 86.5566 126.689 86.2661 126.689ZM97.3813 137.997C96.1439 137.997 94.9343 137.628 93.9055 136.938C92.8766 136.247 92.0747 135.266 91.6012 134.118C91.1277 132.969 91.0038 131.706 91.2452 130.487C91.4866 129.268 92.0825 128.149 92.9574 127.27C93.8324 126.391 94.9471 125.793 96.1607 125.55C97.3743 125.308 98.6322 125.432 99.7754 125.908C100.919 126.383 101.896 127.189 102.583 128.222C103.271 129.255 103.638 130.47 103.638 131.713C103.635 133.38 102.975 134.978 101.8 136.157C100.625 137.335 99.0333 137.997 97.3733 137.997H97.3813ZM111.303 138.942H108.489C108.198 138.942 107.919 138.826 107.714 138.619C107.508 138.413 107.393 138.133 107.393 137.841C107.393 137.549 107.508 137.269 107.714 137.063C107.919 136.857 108.198 136.741 108.489 136.741H111.303C111.594 136.741 111.872 136.857 112.078 137.063C112.283 137.269 112.399 137.549 112.399 137.841C112.399 138.133 112.283 138.413 112.078 138.619C111.872 138.826 111.594 138.942 111.303 138.942ZM111.303 126.689H108.489C108.198 126.689 107.919 126.573 107.714 126.367C107.508 126.161 107.393 125.881 107.393 125.589C107.393 125.297 107.508 125.017 107.714 124.811C107.919 124.604 108.198 124.488 108.489 124.488H111.303C111.594 124.488 111.872 124.604 112.078 124.811C112.283 125.017 112.399 125.297 112.399 125.589C112.399 125.881 112.283 126.161 112.078 126.367C111.872 126.573 111.594 126.689 111.303 126.689Z" fill="white"/>
<path d="M97.3729 136.027C99.6618 136.027 101.517 134.163 101.517 131.864C101.517 129.565 99.6618 127.702 97.3729 127.702C95.084 127.702 93.2285 129.565 93.2285 131.864C93.2285 134.163 95.084 136.027 97.3729 136.027Z" fill="white"/>
<path opacity="0.2" d="M309.291 94.2065H160.153V177.369H309.291V94.2065Z" fill="#00B0FF"/>
<path opacity="0.2" d="M309.291 195.973H160.153V279.135H309.291V195.973Z" fill="#00B0FF"/>
<path d="M193.996 152.115H189.482V167.305H193.996V152.115Z" fill="white"/>
<path d="M202.591 133.308H198.077V167.305H202.591V133.308Z" fill="white"/>
<path d="M211.188 116.363H206.675V167.306H211.188V116.363Z" fill="#DFE3EF"/>
<path d="M219.787 104.274H215.273V167.306H219.787V104.274Z" fill="white"/>
<path d="M211.188 104.274H206.675V167.306H211.188V104.274Z" fill="#00B0FF"/>
<path d="M228.381 132.658H223.867V167.305H228.381V132.658Z" fill="#00B0FF"/>
<path opacity="0.2" d="M236.98 123.703H232.467V167.306H236.98V123.703Z" fill="#00B0FF"/>
<path d="M245.574 110.103H241.061V167.306H245.574V110.103Z" fill="#00B0FF"/>
<path opacity="0.2" d="M254.173 141.832H249.659V167.305H254.173V141.832Z" fill="#00B0FF"/>
<path d="M262.77 130.07H258.257V167.306H262.77V130.07Z" fill="#00B0FF"/>
<path opacity="0.2" d="M271.365 116.363H266.852V167.306H271.365V116.363Z" fill="#00B0FF"/>
<path d="M279.964 116.363H275.45V167.306H279.964V116.363Z" fill="#00B0FF"/>
<path d="M114.875 227.498C114.873 226.833 114.609 226.195 114.141 225.724C113.672 225.254 113.037 224.988 112.375 224.986H82.3596C81.6966 224.988 81.0612 225.254 80.592 225.724C80.1229 226.195 79.8578 226.832 79.8547 227.498V231.27H114.875V227.498ZM79.8428 247.605C79.8449 248.272 80.1094 248.91 80.5787 249.382C81.0481 249.853 81.684 250.119 82.3477 250.121H112.375C113.038 250.119 113.673 249.853 114.142 249.381C114.611 248.91 114.874 248.271 114.875 247.605V235.054H79.8547L79.8428 247.605ZM90.958 243.837H103.784C103.933 243.828 104.083 243.85 104.223 243.901C104.364 243.952 104.492 244.032 104.601 244.134C104.71 244.237 104.797 244.361 104.856 244.499C104.915 244.637 104.946 244.786 104.946 244.936C104.946 245.086 104.915 245.234 104.856 245.372C104.797 245.51 104.71 245.634 104.601 245.737C104.492 245.84 104.364 245.919 104.223 245.97C104.083 246.021 103.933 246.043 103.784 246.034H90.958C90.6793 246.017 90.4175 245.894 90.2262 245.69C90.0348 245.486 89.9282 245.216 89.9282 244.936C89.9282 244.655 90.0348 244.385 90.2262 244.181C90.4175 243.977 90.6793 243.854 90.958 243.837ZM85.3289 243.837H86.2658C86.4149 243.828 86.5644 243.85 86.7049 243.901C86.8454 243.952 86.9739 244.032 87.0827 244.134C87.1915 244.237 87.2782 244.361 87.3375 244.499C87.3968 244.637 87.4273 244.786 87.4273 244.936C87.4273 245.086 87.3968 245.234 87.3375 245.372C87.2782 245.51 87.1915 245.634 87.0827 245.737C86.9739 245.84 86.8454 245.919 86.7049 245.97C86.5644 246.021 86.4149 246.043 86.2658 246.034H85.3289C85.1798 246.043 85.0303 246.021 84.8898 245.97C84.7493 245.919 84.6207 245.84 84.5119 245.737C84.4031 245.634 84.3164 245.51 84.2572 245.372C84.1979 245.234 84.1674 245.086 84.1674 244.936C84.1674 244.786 84.1979 244.637 84.2572 244.499C84.3164 244.361 84.4031 244.237 84.5119 244.134C84.6207 244.032 84.7493 243.952 84.8898 243.901C85.0303 243.85 85.1798 243.828 85.3289 243.837Z" fill="white"/>
<path d="M193.996 253.877H189.482V269.068H193.996V253.877Z" fill="white"/>
<path d="M202.591 235.07H198.077V269.068H202.591V235.07Z" fill="white"/>
<path d="M211.188 218.125H206.675V269.067H211.188V218.125Z" fill="#DFE3EF"/>
<path d="M219.787 206.036H215.273V269.068H219.787V206.036Z" fill="white"/>
<path d="M211.188 206.036H206.675V269.068H211.188V206.036Z" fill="#00B0FF"/>
<path d="M228.381 234.42H223.867V269.068H228.381V234.42Z" fill="#00B0FF"/>
<path d="M236.98 225.465H232.467V269.067H236.98V225.465Z" fill="white"/>
<path d="M245.574 211.865H241.061V269.068H245.574V211.865Z" fill="white"/>
<path opacity="0.2" d="M254.173 243.594H249.659V269.068H254.173V243.594Z" fill="#00B0FF"/>
<path opacity="0.2" d="M262.77 231.832H258.257V269.067H262.77V231.832Z" fill="#00B0FF"/>
<path opacity="0.2" d="M271.365 218.125H266.852V269.067H271.365V218.125Z" fill="#00B0FF"/>
<path opacity="0.2" d="M279.964 218.125H275.45V269.067H279.964V218.125Z" fill="#00B0FF"/>
</g>
<defs>
<linearGradient id="paint0_linear" x1="354.074" y1="316.701" x2="354.074" y2="232.47" gradientUnits="userSpaceOnUse">
<stop stop-color="#808080" stop-opacity="0.25"/>
<stop offset="0.54" stop-color="#808080" stop-opacity="0.12"/>
<stop offset="1" stop-color="#808080" stop-opacity="0.1"/>
</linearGradient>
<clipPath id="clip0">
<rect width="433" height="317" fill="white"/>
</clipPath>
</defs>
</svg>
