<svg width="109" height="118" viewBox="0 0 109 118" fill="none" xmlns="http://www.w3.org/2000/svg">
<path d="M12.2965 62.0973C11.523 59.6893 9.9639 57.7604 8.70552 55.6502C6.10283 51.2809 3.39578 46.9763 0.701019 42.6718C-0.287267 41.0923 -0.403891 40.1991 1.49288 38.9562C9.35006 33.8231 17.0415 28.3923 24.7943 23.0715C26.7709 21.7769 28.8027 20.5599 30.7117 19.1618C31.9026 18.2879 33.5109 17.9384 34.1493 16.3136C37.6543 15.155 40.3184 12.4752 43.3937 10.5462C48.3167 7.45209 53.1047 4.11202 57.8436 0.707215C59.4825 -0.470874 60.2867 -0.153696 61.2565 1.48398C65.1115 7.97641 69.0462 14.4106 72.9563 20.8642C75.0618 24.1978 77.1612 27.5249 79.2666 30.8585C77.5049 36.5289 75.6941 42.1863 73.9815 47.8696C71.9005 54.7892 69.3838 61.5535 67.6466 68.5897C66.732 68.6156 65.8112 68.6738 64.8966 68.6674C60.3787 68.6285 58.8196 69.7419 57.0701 74.1759C56.7571 74.9786 56.5545 75.8848 55.8302 76.4479C50.6125 75.8006 45.3948 75.1274 40.1711 74.5125C32.9768 73.671 25.7765 72.8748 18.5822 72.0528C16.6364 68.6415 14.8869 65.0749 12.2965 62.0973ZM22.3082 61.3788C22.9098 60.9904 23.4377 60.6732 23.9472 60.3237C38.4155 50.4912 52.8837 40.6522 67.3397 30.8002C67.8185 30.4766 68.9848 30.4248 68.3403 29.3632C67.7939 28.4764 67.0635 29.2144 66.5356 29.5574C63.9329 31.2469 61.3547 32.9946 58.7827 34.7358C49.8329 40.7946 40.8831 46.8533 31.9456 52.925C28.729 55.1064 25.5309 57.3267 22.3512 59.5598C21.9706 59.8252 21.2217 60.0065 21.6085 60.7962C21.7251 61.0422 22.0443 61.1716 22.3082 61.3788ZM11.4739 43.2737C11.8422 43.0537 12.2535 42.8401 12.6402 42.5747C26.8507 32.9169 41.0734 23.2721 55.247 13.5561C56.0204 13.0254 57.9295 12.5981 57.2666 11.5625C56.3519 10.1319 55.1242 11.8214 54.2219 12.4234C40.4902 21.6733 26.7954 30.9815 13.1006 40.2962C12.3333 40.814 11.5783 41.3966 10.9645 42.0957C10.5777 42.5294 10.5716 43.1767 11.4739 43.2737ZM17.3116 52.0512C17.4773 51.9346 17.7842 51.7081 18.1034 51.4945C21.0069 49.5526 23.9227 47.6301 26.82 45.6688C37.82 38.2313 48.8201 30.7808 59.814 23.3304C60.6488 22.7608 61.4591 22.1523 62.2694 21.5438C62.785 21.1555 62.9139 20.5729 62.5395 20.0745C62.122 19.5178 61.7415 20.0745 61.3854 20.314C59.7035 21.4338 58.0277 22.5536 56.3581 23.6864C45.358 31.1304 34.3641 38.5743 23.3641 46.0248C21.3077 47.4165 19.2636 48.8341 17.2011 50.2258C16.6609 50.5882 16.1207 50.9378 16.3724 51.734C16.4706 52.0512 16.7898 52.1677 17.3116 52.0512ZM19.6872 56.8412C20.0555 56.5887 20.4422 56.3298 20.8289 56.0709C35.3585 46.219 49.8882 36.367 64.4239 26.5216C65.0132 26.1203 65.8296 25.6866 65.3079 24.8904C64.737 24.0165 64.1047 24.8839 63.5646 25.2464C60.2068 27.4925 56.8553 29.7387 53.5098 32.0042C42.5712 39.4029 31.6325 46.8015 20.7061 54.2131C20.1352 54.6015 19.5337 55.0287 19.147 55.5919C18.8646 56.0062 18.8339 56.7052 19.6872 56.8412ZM14.1503 47.7272C14.9115 47.2805 15.6726 46.8922 16.3785 46.4132C20.3685 43.7139 24.3462 40.9823 28.33 38.2766C38.6119 31.2857 48.906 24.3078 59.1695 17.2781C59.6114 16.9804 60.7777 16.7409 60.0166 15.7375C59.4027 14.9284 58.7336 15.6858 58.2057 16.0418C55.8793 17.5888 53.5958 19.2136 51.2754 20.78C40.2754 28.2369 29.2631 35.6809 18.263 43.1378C16.8451 44.0958 15.4578 45.0991 14.0644 46.096C13.6531 46.3873 13.4014 46.8015 13.604 47.3323C13.6654 47.4941 13.9355 47.5783 14.1503 47.7272Z" fill="#B9DDF7"/>
<path d="M55.838 76.4481C56.5623 75.8785 56.7587 74.9722 57.0779 74.1761C58.8212 69.742 60.3804 68.6352 64.9044 68.6675C65.819 68.674 66.7398 68.6157 67.6544 68.5898C81.337 69.4831 95.0256 69.9298 108.727 70.1434C109.365 73.1922 108.401 75.4253 105.485 77.4126C96.2103 83.7302 86.9229 90.0285 77.6416 96.3332C67.8447 102.987 58.0416 109.635 48.2447 116.296C45.7771 117.972 43.2788 118.853 40.584 116.833C40.6392 116.432 40.6147 115.998 40.7559 115.642C43.5366 108.567 46.3664 101.518 49.1287 94.4366C51.4551 88.4749 54.0517 82.6298 55.838 76.4481Z" fill="#2484AD"/>
<path d="M55.837 76.4483C54.0507 82.6301 51.448 88.4752 49.1277 94.4304C46.3654 101.512 43.5356 108.561 40.7549 115.636C40.6137 115.998 40.6382 116.432 40.583 116.827C39.6254 116.523 39.0975 115.727 38.6003 114.905C29.9758 100.78 21.3513 86.6563 12.7391 72.5257C12.5795 72.2603 12.4936 71.9366 12.377 71.6454C14.4517 71.7813 16.5204 71.9172 18.5952 72.0532C25.7955 72.8688 32.9898 73.6649 40.184 74.5129C45.4078 75.1278 50.6193 75.8075 55.837 76.4483Z" fill="#30B0E6"/>
<path d="M108.731 70.1433C95.0304 69.9297 81.3356 69.4831 67.6592 68.5898C69.3902 61.5537 71.907 54.7829 73.994 47.8697C75.7066 42.1799 77.5113 36.5225 79.2792 30.8521C80.0219 28.8455 80.7586 26.8324 81.5013 24.8258C84.8345 29.3634 87.5108 34.3605 90.488 39.1506C96.0309 48.0704 101.457 57.0614 106.902 66.0459C107.663 67.3211 108.658 68.5121 108.731 70.1433Z" fill="#30B0E6"/>
<path d="M18.5881 72.0594C16.5133 71.9234 14.4447 71.7875 12.3699 71.6516C10.6143 69.9815 10.0189 68.1044 11.1668 65.7223C11.7069 64.6025 11.9279 63.3079 12.2962 62.0974C14.8866 65.075 16.6361 68.6416 18.5881 72.0594Z" fill="#2F4159"/>
<path d="M81.4904 24.8257C80.7477 26.8323 80.011 28.8454 79.2683 30.852C77.1628 27.5184 75.0635 24.1913 72.958 20.8577C74.1427 20.9483 75.3336 21.136 76.5183 21.1037C79.0964 21.0325 80.8029 22.1458 81.4904 24.8257Z" fill="#2F4159"/>
<path d="M34.1557 16.3134C33.5173 17.9382 31.9091 18.2877 30.7182 19.1616C28.8092 20.5597 26.7774 21.7767 24.8008 23.0713C26.1758 18.7149 29.1775 16.5465 34.1557 16.3134Z" fill="#2F4159"/>
<path d="M22.3086 61.379C22.0446 61.1718 21.7254 61.0424 21.6088 60.8029C21.2159 60.0132 21.9648 59.8319 22.3515 59.5665C25.5374 57.3333 28.7355 55.1196 31.9459 52.9317C40.8834 46.86 49.8332 40.8013 58.7831 34.7425C61.3551 33.0013 63.9332 31.2536 66.5359 29.5641C67.0638 29.2211 67.7943 28.4831 68.3406 29.3699C68.9913 30.4315 67.8188 30.4833 67.34 30.8069C52.884 40.6589 38.4158 50.4978 23.9475 60.3303C23.438 60.6734 22.9101 60.9906 22.3086 61.379Z" fill="#ECF1F4"/>
<path d="M11.4743 43.2741C10.5719 43.177 10.5781 42.5297 10.9586 42.096C11.5725 41.4034 12.3336 40.8208 13.0948 40.2965C26.7896 30.9883 40.4844 21.6801 54.2161 12.4237C55.1184 11.8152 56.3461 10.1258 57.2607 11.5628C57.9237 12.5985 56.0146 13.0257 55.2412 13.5565C41.0676 23.2724 26.8449 32.9172 12.6344 42.575C12.2538 42.8404 11.8426 43.0604 11.4743 43.2741Z" fill="#ECF1F4"/>
<path d="M17.3126 52.0513C16.7909 52.1679 16.4717 52.0578 16.3673 51.7342C16.1157 50.938 16.6558 50.5884 17.196 50.226C19.2585 48.8343 21.3026 47.4167 23.359 46.025C34.3529 38.5745 45.3529 31.1306 56.353 23.6866C58.0226 22.5538 59.7046 21.434 61.3803 20.3142C61.7364 20.0747 62.1231 19.518 62.5344 20.0747C62.9088 20.5731 62.786 21.1557 62.2643 21.544C61.454 22.1525 60.6437 22.7674 59.8089 23.3306C48.815 30.781 37.815 38.2315 26.8149 45.669C23.9176 47.6238 21.0018 49.5528 18.0984 51.4947C17.7914 51.7018 17.4784 51.9284 17.3126 52.0513Z" fill="#ECF1F4"/>
<path d="M19.6871 56.8414C18.8339 56.7119 18.8646 56.0064 19.1469 55.5921C19.5336 55.0289 20.1352 54.6017 20.7061 54.2133C31.6325 46.8017 42.5711 39.4031 53.5098 32.0044C56.8552 29.7453 60.2068 27.4927 63.5645 25.2466C64.1047 24.8841 64.7308 24.0232 65.3078 24.8906C65.8296 25.6868 65.0193 26.1205 64.4239 26.5218C49.8881 36.3672 35.3585 46.2192 20.8289 56.0711C20.4421 56.33 20.0554 56.5889 19.6871 56.8414Z" fill="#ECF1F4"/>
<path d="M14.151 47.7272C13.9361 47.5783 13.666 47.4942 13.6046 47.3259C13.4021 46.7951 13.6537 46.3808 14.065 46.0895C15.4584 45.0927 16.8519 44.0958 18.2637 43.1313C29.2637 35.6744 40.2761 28.2305 51.2761 20.7736C53.5903 19.2071 55.8738 17.5824 58.2064 16.0353C58.7343 15.6858 59.4034 14.9219 60.0172 15.7311C60.7784 16.7344 59.6059 16.9674 59.1701 17.2717C48.9067 24.2949 38.6125 31.2728 28.3307 38.2701C24.3469 40.9823 20.3692 43.7074 16.3792 46.4067C15.6733 46.8857 14.9121 47.2805 14.151 47.7272Z" fill="#ECF1F4"/>
</svg>
