<svg width="486" height="382" viewBox="0 0 486 382" fill="none" xmlns="http://www.w3.org/2000/svg">
<path d="M246.824 86.7922H248.834V31.8178C248.834 23.3792 252.192 15.2862 258.168 9.31922C264.145 3.35223 272.251 1.05223e-05 280.703 2.01935e-10H397.361C401.546 -1.48856e-05 405.69 0.822961 409.556 2.42194C413.423 4.02091 416.936 6.36458 419.895 9.31911C422.855 12.2737 425.202 15.7812 426.804 19.6415C428.405 23.5018 429.23 27.6392 429.23 31.8176V333.412C429.23 337.59 428.405 341.728 426.804 345.588C425.202 349.448 422.855 352.956 419.896 355.91C416.936 358.865 413.423 361.209 409.557 362.808C405.69 364.407 401.546 365.23 397.361 365.23H280.703C276.518 365.23 272.374 364.407 268.507 362.808C264.641 361.209 261.128 358.865 258.168 355.911C255.209 352.956 252.861 349.448 251.26 345.588C249.658 341.728 248.834 337.59 248.834 333.412V125.924H246.824V86.7922Z" fill="#3F3D56"/>
<path d="M279.657 9.03041H294.885C294.185 10.7445 293.917 12.6043 294.106 14.4458C294.296 16.2874 294.936 18.0542 295.97 19.5907C297.004 21.1272 298.401 22.3862 300.037 23.2567C301.674 24.1272 303.499 24.5826 305.354 24.5828H372.185C374.04 24.5826 375.865 24.1272 377.502 23.2567C379.138 22.3862 380.535 21.1272 381.569 19.5907C382.603 18.0542 383.243 16.2874 383.433 14.4458C383.622 12.6043 383.354 10.7445 382.654 9.03041H396.877C403.189 9.0304 409.242 11.5338 413.706 15.9899C418.169 20.4459 420.676 26.4897 420.676 32.7915V333.943C420.676 337.064 420.061 340.153 418.865 343.036C417.669 345.919 415.916 348.538 413.706 350.745C411.496 352.951 408.872 354.702 405.985 355.896C403.097 357.09 400.002 357.704 396.877 357.704H279.657C273.345 357.704 267.292 355.201 262.829 350.745C258.365 346.289 255.858 340.245 255.858 333.943V32.7915C255.858 29.6712 256.473 26.5814 257.669 23.6985C258.865 20.8157 260.619 18.1963 262.829 15.9899C265.038 13.7835 267.662 12.0332 270.55 10.8391C273.437 9.645 276.532 9.03041 279.657 9.03041H279.657ZM282.216 148.737C282.22 150.367 282.871 151.93 284.026 153.083C285.181 154.237 286.747 154.886 288.38 154.891H318.175C319.809 154.886 321.374 154.237 322.529 153.083C323.684 151.93 324.335 150.367 324.34 148.737V147.198C324.335 145.567 323.684 144.004 322.529 142.851C321.374 141.698 319.809 141.048 318.175 141.043H288.38C286.747 141.048 285.181 141.698 284.026 142.851C282.871 144.004 282.22 145.567 282.216 147.198V148.737ZM278.876 121.554C278.881 123.185 279.532 124.747 280.687 125.9C281.842 127.054 283.407 127.704 285.041 127.708H391.892C393.526 127.704 395.091 127.054 396.246 125.9C397.401 124.747 398.052 123.185 398.057 121.554V120.015C398.052 118.384 397.401 116.822 396.246 115.668C395.091 114.515 393.526 113.865 391.892 113.86H285.041C283.407 113.865 281.842 114.515 280.687 115.668C279.532 116.822 278.881 118.384 278.876 120.015V121.554ZM278.876 94.3708C278.881 96.0017 279.532 97.5643 280.687 98.7175C281.842 99.8707 283.407 100.521 285.041 100.525H391.892C393.526 100.521 395.091 99.8707 396.246 98.7175C397.401 97.5644 398.052 96.0017 398.057 94.3708V92.8322C398.052 91.2013 397.401 89.6387 396.246 88.4855C395.091 87.3323 393.526 86.6823 391.892 86.6775H285.041C283.407 86.6823 281.842 87.3323 280.687 88.4855C279.532 89.6387 278.881 91.2013 278.876 92.8322V94.3708ZM278.876 67.1879C278.881 68.8188 279.532 70.3814 280.687 71.5346C281.842 72.6878 283.407 73.3378 285.041 73.3425H391.892C393.526 73.3378 395.091 72.6878 396.246 71.5346C397.401 70.3814 398.052 68.8188 398.057 67.1879V65.6493C398.052 64.0184 397.401 62.4557 396.246 61.3026C395.091 60.1494 393.526 59.4994 391.892 59.4946H285.041C283.407 59.4994 281.842 60.1494 280.687 61.3026C279.532 62.4557 278.881 64.0184 278.876 65.6493V67.1879Z" fill="white"/>
<path d="M389.581 124.631C387.595 124.631 385.985 123.024 385.985 121.041C385.985 119.058 387.595 117.451 389.581 117.451C391.567 117.451 393.177 119.058 393.177 121.041C393.177 123.024 391.567 124.631 389.581 124.631Z" fill="white"/>
<path d="M377.765 124.631C375.779 124.631 374.169 123.024 374.169 121.041C374.169 119.058 375.779 117.451 377.765 117.451C379.751 117.451 381.361 119.058 381.361 121.041C381.361 123.024 379.751 124.631 377.765 124.631Z" fill="white"/>
<path d="M365.95 124.631C363.964 124.631 362.354 123.024 362.354 121.041C362.354 119.058 363.964 117.451 365.95 117.451C367.936 117.451 369.546 119.058 369.546 121.041C369.546 123.024 367.936 124.631 365.95 124.631Z" fill="white"/>
<path d="M354.135 124.631C352.149 124.631 350.539 123.024 350.539 121.041C350.539 119.058 352.149 117.451 354.135 117.451C356.121 117.451 357.73 119.058 357.73 121.041C357.73 123.024 356.121 124.631 354.135 124.631Z" fill="white"/>
<path d="M315.607 151.814C313.621 151.814 312.011 150.207 312.011 148.224C312.011 146.241 313.621 144.634 315.607 144.634C317.593 144.634 319.203 146.241 319.203 148.224C319.203 150.207 317.593 151.814 315.607 151.814Z" fill="white"/>
<path d="M303.791 151.814C301.805 151.814 300.195 150.207 300.195 148.224C300.195 146.241 301.805 144.634 303.791 144.634C305.777 144.634 307.387 146.241 307.387 148.224C307.387 150.207 305.777 151.814 303.791 151.814Z" fill="white"/>
<path d="M291.976 151.814C289.99 151.814 288.38 150.207 288.38 148.224C288.38 146.241 289.99 144.634 291.976 144.634C293.962 144.634 295.572 146.241 295.572 148.224C295.572 150.207 293.962 151.814 291.976 151.814Z" fill="white"/>
<path d="M278.05 194.741H399.911C402.774 194.741 405.519 195.877 407.544 197.898C409.568 199.919 410.706 202.66 410.706 205.519V264.797C410.706 267.655 409.568 270.396 407.544 272.418C405.519 274.439 402.774 275.574 399.911 275.574H278.05C275.187 275.574 272.441 274.439 270.417 272.418C268.392 270.396 267.255 267.655 267.255 264.797V205.519C267.255 202.66 268.392 199.919 270.417 197.898C272.441 195.877 275.187 194.741 278.05 194.741H278.05ZM402.926 202.093C402.685 202.05 396.979 201.08 392.254 203.919C387.529 206.757 385.714 212.245 385.639 212.477L385.448 213.069L386.061 213.177C386.936 213.314 387.82 213.379 388.706 213.371C391.514 213.425 394.286 212.727 396.733 211.351C401.458 208.514 403.273 203.026 403.348 202.794L403.539 202.202L402.926 202.093ZM376.473 257.129H398.208C399.793 257.129 401.313 256.5 402.434 255.381C403.555 254.262 404.185 252.744 404.185 251.162C404.185 249.579 403.555 248.061 402.434 246.942C401.313 245.823 399.793 245.194 398.208 245.194H376.473C374.888 245.194 373.367 245.823 372.247 246.942C371.126 248.061 370.496 249.579 370.496 251.162C370.496 252.744 371.126 254.262 372.247 255.381C373.367 256.5 374.888 257.129 376.473 257.129ZM277.579 256.044C277.584 257.769 278.273 259.422 279.494 260.642C280.716 261.862 282.372 262.549 284.099 262.554H300.401C302.128 262.549 303.784 261.862 305.006 260.642C306.227 259.422 306.916 257.769 306.921 256.044V246.279C306.916 244.554 306.227 242.901 305.006 241.681C303.784 240.462 302.128 239.774 300.401 239.769H284.099C282.372 239.774 280.716 240.462 279.494 241.681C278.273 242.901 277.584 244.554 277.579 246.279L277.579 256.044Z" fill="#6C63FF"/>
<path d="M295.145 254.032H301.699C302.167 254.032 302.616 254.217 302.947 254.548C303.278 254.878 303.464 255.326 303.464 255.794C303.464 256.261 303.278 256.709 302.947 257.039C302.616 257.37 302.167 257.555 301.699 257.555H295.145C294.677 257.555 294.228 257.37 293.897 257.039C293.566 256.709 293.38 256.261 293.38 255.794C293.38 255.326 293.566 254.878 293.897 254.548C294.228 254.217 294.677 254.032 295.145 254.032Z" fill="#3F3D56"/>
<path d="M283.045 254.032H289.599C290.067 254.032 290.516 254.217 290.847 254.548C291.178 254.878 291.364 255.326 291.364 255.794C291.364 256.261 291.178 256.709 290.847 257.039C290.516 257.37 290.067 257.555 289.599 257.555H283.045C282.577 257.555 282.128 257.37 281.797 257.039C281.466 256.709 281.28 256.261 281.28 255.794C281.28 255.326 281.466 254.878 281.797 254.548C282.128 254.217 282.577 254.032 283.045 254.032Z" fill="#3F3D56"/>
<path d="M295.146 249.059H301.7C302.168 249.059 302.617 249.244 302.948 249.575C303.279 249.905 303.465 250.353 303.465 250.82C303.465 251.288 303.279 251.736 302.948 252.066C302.617 252.397 302.168 252.582 301.7 252.582H295.146C294.678 252.582 294.229 252.397 293.898 252.066C293.567 251.736 293.381 251.288 293.381 250.82C293.381 250.353 293.567 249.905 293.898 249.575C294.229 249.244 294.678 249.059 295.146 249.059Z" fill="#3F3D56"/>
<path d="M283.046 249.059H289.6C290.068 249.059 290.517 249.244 290.848 249.575C291.179 249.905 291.365 250.353 291.365 250.82C291.365 251.288 291.179 251.736 290.848 252.066C290.517 252.397 290.068 252.582 289.6 252.582H283.046C282.578 252.582 282.129 252.397 281.798 252.066C281.467 251.736 281.281 251.288 281.281 250.82C281.281 250.353 281.467 249.905 281.798 249.575C282.129 249.244 282.578 249.059 283.046 249.059H283.046Z" fill="#3F3D56"/>
<path d="M295.146 244.186H301.7C302.168 244.186 302.617 244.372 302.948 244.702C303.279 245.032 303.465 245.481 303.465 245.948C303.465 246.415 303.279 246.863 302.948 247.194C302.617 247.524 302.168 247.71 301.7 247.71H295.146C294.678 247.71 294.229 247.524 293.898 247.194C293.567 246.863 293.381 246.415 293.381 245.948C293.381 245.481 293.567 245.032 293.898 244.702C294.229 244.372 294.678 244.186 295.146 244.186Z" fill="#3F3D56"/>
<path d="M283.046 244.186H289.6C290.068 244.186 290.517 244.372 290.848 244.702C291.179 245.032 291.365 245.481 291.365 245.948C291.365 246.415 291.179 246.863 290.848 247.194C290.517 247.524 290.068 247.71 289.6 247.71H283.046C282.578 247.71 282.129 247.524 281.798 247.194C281.467 246.863 281.281 246.415 281.281 245.948C281.281 245.481 281.467 245.032 281.798 244.702C282.129 244.372 282.578 244.186 283.046 244.186H283.046Z" fill="#3F3D56"/>
<path d="M193.647 217.071H209.542V232.941H193.647V217.071Z" fill="#6C63FF"/>
<path d="M228.275 226.706H202.162V252.777H228.275V226.706ZM203.297 227.84H227.14V251.644H203.297V227.84Z" fill="#3F3D56"/>
<path d="M470.105 86.1484H486V102.018H470.105V86.1484Z" fill="#6C63FF"/>
<path d="M451.372 92.3828H477.485V66.3116H451.372V92.3828ZM476.35 91.2493H452.507V67.4451H476.35V91.2493Z" fill="#3F3D56"/>
<path d="M115.264 374.868H122.223L125.534 348.067H115.263L115.264 374.868Z" fill="#FFB8B8"/>
<path d="M127.195 372.883H113.773V381.32H135.646C135.646 379.082 134.755 376.936 133.17 375.354C131.585 373.772 129.436 372.883 127.195 372.883Z" fill="#2F2E41"/>
<path d="M80.6356 374.868H87.5953L90.906 348.067H80.6345L80.6356 374.868Z" fill="#FFB8B8"/>
<path d="M92.5664 372.883H79.1443V381.32H101.017C101.017 379.082 100.127 376.936 98.5421 375.354C96.9573 373.772 94.8077 372.883 92.5664 372.883Z" fill="#2F2E41"/>
<path d="M150.176 279.021C150.677 278.284 151.01 277.447 151.152 276.568C151.293 275.689 151.24 274.79 150.996 273.934C150.752 273.078 150.323 272.286 149.739 271.613C149.155 270.941 148.43 270.404 147.616 270.041L123.958 204.939L112.316 211.282L139.329 273.496C138.809 274.902 138.824 276.449 139.371 277.845C139.917 279.241 140.958 280.388 142.295 281.069C143.632 281.75 145.173 281.917 146.626 281.54C148.078 281.162 149.342 280.266 150.176 279.021Z" fill="#FFB8B8"/>
<path d="M84.1904 291.254C84.9639 290.811 85.6307 290.204 86.1439 289.476C86.6571 288.749 87.0042 287.917 87.1608 287.041C87.3173 286.165 87.2796 285.265 87.0501 284.405C86.8207 283.545 86.4052 282.745 85.8328 282.063L93.1619 213.195L79.9136 213.8L76.8676 281.54C75.7831 282.576 75.1168 283.973 74.9952 285.467C74.8735 286.96 75.3048 288.447 76.2075 289.644C77.1101 290.841 78.4213 291.667 79.8926 291.963C81.3639 292.26 82.8931 292.007 84.1904 291.254V291.254Z" fill="#FFB8B8"/>
<path d="M105.325 192.88C97.625 192.88 91.3827 186.648 91.3827 178.96C91.3827 171.272 97.625 165.039 105.325 165.039C113.026 165.039 119.268 171.272 119.268 178.96C119.268 186.648 113.026 192.88 105.325 192.88Z" fill="#FFB8B8"/>
<path d="M84.2795 275.591H126.314L126.264 275.265C126.188 274.776 118.772 226.274 124.242 210.406C124.791 208.847 124.742 207.14 124.106 205.614C123.47 204.088 122.291 202.851 120.796 202.141H120.796C112.978 198.465 97.9713 193.939 85.305 204.923C83.4411 206.566 81.9856 208.619 81.0536 210.921C80.1216 213.222 79.7387 215.709 79.9351 218.183L84.2795 275.591Z" fill="#6C63FF"/>
<path d="M118.241 233.442L137.165 229.609L128.295 208.621C127.764 206.589 126.447 204.849 124.633 203.784C122.82 202.719 120.657 202.416 118.62 202.941C116.582 203.467 114.837 204.777 113.766 206.585C112.695 208.394 112.386 210.552 112.907 212.587L118.241 233.442Z" fill="#6C63FF"/>
<path d="M94.0033 240.559L95.141 214.521C96.0038 209.626 93.1973 204.999 88.8811 204.243C84.5636 203.489 80.3479 206.884 79.4813 211.815L75.205 236.145L94.0033 240.559Z" fill="#6C63FF"/>
<path d="M85.6779 272.474C78.9143 298.192 78.1764 330.89 80.0011 366.557L89.0839 365.423L105.547 297.412L114.629 366.557L124.847 365.99C127.9 328.567 130.872 296.439 125.983 275.308L85.6779 272.474Z" fill="#2F2E41"/>
<path d="M96.1384 189.718C98.7395 192.484 103.57 190.999 103.909 187.22C103.936 186.927 103.934 186.631 103.903 186.338C103.728 184.664 102.76 183.145 102.992 181.377C103.044 180.937 103.208 180.518 103.468 180.159C105.541 177.388 110.407 181.399 112.363 178.89C113.562 177.352 112.152 174.93 113.073 173.211C114.288 170.942 117.886 172.061 120.143 170.818C122.653 169.436 122.503 165.59 120.851 163.25C118.835 160.398 115.301 158.875 111.811 158.656C108.321 158.437 104.855 159.378 101.597 160.646C97.8955 162.086 94.2246 164.077 91.9465 167.327C89.1761 171.279 88.9095 176.592 90.2951 181.214C91.1379 184.025 94.0144 187.459 96.1384 189.718Z" fill="#2F2E41"/>
<path d="M0.567703 382H216.852C217.003 382 217.147 381.94 217.254 381.834C217.36 381.728 217.42 381.584 217.42 381.433C217.42 381.283 217.36 381.139 217.254 381.032C217.147 380.926 217.003 380.866 216.852 380.866H0.567703C0.417145 380.866 0.272797 380.926 0.166336 381.032C0.0598755 381.139 1.52588e-05 381.283 1.52588e-05 381.433C1.52588e-05 381.584 0.0598755 381.728 0.166336 381.834C0.272797 381.94 0.417145 382 0.567703 382Z" fill="#3F3D56"/>
</svg>
