<svg width="160" height="94" viewBox="0 0 160 94" fill="none" xmlns="http://www.w3.org/2000/svg">
<path d="M122.886 61.3163L60.936 6.38258C54.3764 9.4964 48.6636 14.1469 44.2818 19.9399L111.836 79.1036C116.864 74.1256 120.65 68.0318 122.886 61.3163V61.3163Z" fill="#F2F2F2"/>
<path d="M122.852 61.0933L158.697 60.6748L158.355 31.3885L122.621 31.8057C125.941 41.2724 126.023 51.5754 122.852 61.0933Z" fill="#6C63FF"/>
<path d="M38.0129 32.7935L1.33465 33.2217L1.67657 62.508L38.4657 62.0785C35.0732 52.6373 34.914 42.3352 38.0129 32.7935V32.7935Z" fill="#6C63FF"/>
<path d="M35.3343 47.6274C35.0434 22.7101 55.0632 2.20184 79.9619 1.91114C104.86 1.62044 125.354 21.6557 125.645 46.573C125.936 71.4903 105.916 91.9986 81.0171 92.2893C56.1184 92.58 35.6252 72.5447 35.3343 47.6274ZM125.33 46.5767C125.041 21.833 104.691 1.93738 79.9656 2.22605C55.2405 2.51472 35.36 22.8801 35.6489 47.6238C35.9378 72.3675 56.2884 92.2631 81.0134 91.9744C105.739 91.6858 125.619 71.3204 125.33 46.5767Z" stroke="#6C63FF" stroke-width="2"/>
<path d="M80.1181 15.2947C71.6891 15.3931 63.6444 18.8384 57.7539 24.8727C51.8633 30.907 48.6093 39.0359 48.7078 47.4713L112.271 46.7292C112.173 38.2938 108.73 30.243 102.7 24.3479C96.67 18.4528 88.5471 15.1963 80.1181 15.2947V15.2947Z" fill="#575A89"/>
<path d="M112.271 46.7291L48.7078 47.4712C48.8063 55.9066 52.2492 63.9574 58.279 69.8525C64.3089 75.7476 72.4318 79.0042 80.8608 78.9058C89.2898 78.8074 97.3345 75.362 103.225 69.3277C109.116 63.2935 112.37 55.1645 112.271 46.7291V46.7291Z" fill="#6C63FF"/>
<path d="M74.5108 47.17C74.5392 49.6049 76.5346 51.5557 78.9676 51.5273C81.4007 51.4989 83.35 49.502 83.3215 47.0671C83.2931 44.6323 81.2977 42.6815 78.8647 42.7099C76.4317 42.7383 74.4824 44.7352 74.5108 47.17Z" fill="#2F2E41"/>
<path d="M95.0718 46.9224L86.3774 48.1224L77.683 49.3225L77.6574 47.1257L77.6317 44.9289L86.3518 45.9257L95.0718 46.9224Z" fill="#2F2E41"/>
<path d="M78.9757 73.4083L78.2728 59.0826L77.5702 44.7571L78.8211 44.7504L80.0724 44.7436L79.524 59.0758L78.9757 73.4083Z" fill="#2F2E41"/>
</svg>
