<svg width="135" height="105" viewBox="0 0 135 105" fill="none" xmlns="http://www.w3.org/2000/svg">
<g filter="url(#filter0_d)">
<path d="M130 7.27V21.71H129.629V21.5561H5.37147V21.71H5V7.27C5.0016 5.60759 5.64787 4.01374 6.79698 2.83824C7.9461 1.66274 9.50418 1.00163 11.1293 1H123.871C125.496 1.00163 127.054 1.66274 128.203 2.83824C129.352 4.01374 129.998 5.60759 130 7.27Z" fill="#6C63FF"/>
<path d="M123.871 0.5H123.871L11.1293 0.5L11.1288 0.5C9.36753 0.501769 7.68128 1.21837 6.43944 2.48872C5.19797 3.7587 4.50172 5.47828 4.5 7.26952V7.27L4.5 89.73L4.5 89.7305C4.50172 91.5217 5.19797 93.2413 6.43944 94.5113C7.68128 95.7816 9.36753 96.4982 11.1288 96.5H11.1293H123.871H123.871C125.632 96.4982 127.319 95.7816 128.561 94.5113C129.802 93.2413 130.498 91.5217 130.5 89.7305V89.73V7.27V7.26952C130.498 5.47828 129.802 3.7587 128.561 2.48872C127.319 1.21837 125.632 0.501769 123.871 0.5ZM127.582 3.45686C128.569 4.46658 129.127 5.83789 129.129 7.27062V89.7294C129.127 91.1621 128.569 92.5334 127.582 93.5431C126.596 94.5525 125.26 95.1182 123.87 95.12H11.1299C9.73954 95.1182 8.40427 94.5525 7.41758 93.5431C6.4306 92.5335 5.87334 91.1623 5.87147 89.7297V7.2703C5.87334 5.83768 6.4306 4.4665 7.41758 3.45686C8.40419 2.4476 9.73935 1.8819 11.1296 1.88H123.87C125.261 1.8819 126.596 2.4476 127.582 3.45686Z" fill="#6C63FF" stroke="#6C63FF"/>
<path d="M30.2601 15.155C32.3116 15.155 33.9748 13.4536 33.9748 11.355C33.9748 9.25628 32.3116 7.55496 30.2601 7.55496C28.2085 7.55496 26.5453 9.25628 26.5453 11.355C26.5453 13.4536 28.2085 15.155 30.2601 15.155Z" fill="white"/>
<path d="M104.74 15.155C106.792 15.155 108.455 13.4536 108.455 11.355C108.455 9.25628 106.792 7.55496 104.74 7.55496C102.688 7.55496 101.025 9.25628 101.025 11.355C101.025 13.4536 102.688 15.155 104.74 15.155Z" fill="white"/>
<path d="M40.9927 53.7254H18.8946C17.9584 53.7243 17.0608 53.3433 16.3989 52.6662C15.7369 51.989 15.3645 51.0709 15.3635 50.1132V39.429C15.3645 38.4713 15.7369 37.5532 16.3989 36.876C17.0608 36.1988 17.9584 35.8179 18.8946 35.8168H40.9927C41.9289 35.8179 42.8264 36.1988 43.4884 36.876C44.1504 37.5532 44.5227 38.4713 44.5238 39.429V50.1132C44.5227 51.0709 44.1504 51.989 43.4884 52.6662C42.8264 53.3433 41.9289 53.7243 40.9927 53.7254Z" fill="#6C63FF"/>
<path d="M78.5853 53.7254H56.4872C55.551 53.7243 54.6534 53.3433 53.9915 52.6662C53.3295 51.989 52.9571 51.0709 52.9561 50.1132V39.429C52.9571 38.4713 53.3295 37.5532 53.9915 36.876C54.6534 36.1988 55.551 35.8179 56.4872 35.8168H78.5853C79.5214 35.8179 80.419 36.1988 81.081 36.876C81.7429 37.5532 82.1153 38.4713 82.1164 39.429V50.1132C82.1153 51.0709 81.7429 51.989 81.081 52.6662C80.419 53.3433 79.5214 53.7243 78.5853 53.7254Z" fill="#6C63FF"/>
<path d="M78.5853 81.3307H56.4872C55.5226 81.3296 54.5979 80.9372 53.9158 80.2395C53.2338 79.5418 52.8501 78.5958 52.8491 77.6091V66.9248C52.8501 65.9381 53.2338 64.9921 53.9158 64.2944C54.5979 63.5967 55.5226 63.2043 56.4872 63.2032H78.5853C79.5498 63.2043 80.4746 63.5967 81.1566 64.2944C81.8386 64.9921 82.2223 65.9381 82.2234 66.9248V77.6091C82.2223 78.5958 81.8386 79.5418 81.1566 80.2395C80.4746 80.9372 79.5498 81.3296 78.5853 81.3307Z" fill="#F2F2F2"/>
<path d="M40.9203 81.3307H18.8221C17.8576 81.3296 16.9329 80.9372 16.2508 80.2395C15.5688 79.5418 15.1851 78.5958 15.1841 77.6091V66.9248C15.1851 65.9381 15.5688 64.9921 16.2508 64.2944C16.9329 63.5967 17.8576 63.2043 18.8221 63.2032H40.9203C41.8848 63.2043 42.8095 63.5967 43.4916 64.2944C44.1736 64.9921 44.5573 65.9381 44.5584 66.9248V77.6091C44.5573 78.5958 44.1736 79.5418 43.4916 80.2395C42.8095 80.9372 41.8848 81.3296 40.9203 81.3307Z" fill="#F2F2F2"/>
<path d="M116.178 81.3307H94.0798C93.1153 81.3296 92.1905 80.9372 91.5085 80.2395C90.8264 79.5418 90.4428 78.5958 90.4417 77.6091V66.9248C90.4428 65.9381 90.8264 64.9921 91.5085 64.2944C92.1905 63.5967 93.1153 63.2043 94.0798 63.2032H116.178C117.142 63.2043 118.067 63.5967 118.749 64.2944C119.431 64.9921 119.815 65.9381 119.816 66.9248V77.6091C119.815 78.5958 119.431 79.5418 118.749 80.2395C118.067 80.9372 117.142 81.3296 116.178 81.3307Z" fill="#F2F2F2"/>
<path d="M116.178 53.7469H94.0798C93.1153 53.7458 92.1905 53.3533 91.5085 52.6556C90.8264 51.9579 90.4428 51.0119 90.4417 50.0252V39.3409C90.4428 38.3542 90.8264 37.4083 91.5085 36.7106C92.1905 36.0129 93.1153 35.6204 94.0798 35.6193H116.178C117.142 35.6204 118.067 36.0129 118.749 36.7106C119.431 37.4083 119.815 38.3542 119.816 39.3409V50.0252C119.815 51.0119 119.431 51.9579 118.749 52.6556C118.067 53.3533 117.142 53.7458 116.178 53.7469Z" fill="#F2F2F2"/>
<path d="M67.6432 50.8128C70.9526 50.8128 73.6354 48.0684 73.6354 44.683C73.6354 41.2977 70.9526 38.5533 67.6432 38.5533C64.3338 38.5533 61.6511 41.2977 61.6511 44.683C61.6511 48.0684 64.3338 50.8128 67.6432 50.8128Z" fill="white"/>
<path d="M67.0492 47.0214C66.9144 47.0216 66.7832 46.977 66.6753 46.8943L66.6686 46.8892L65.2604 45.7863C65.1287 45.683 65.0425 45.5305 65.0207 45.3622C64.9989 45.194 65.0434 45.0237 65.1443 44.889C65.2452 44.7543 65.3943 44.6661 65.5588 44.6438C65.7233 44.6215 65.8897 44.667 66.0214 44.7702L66.9336 45.4857L69.0891 42.6101C69.1391 42.5434 69.2014 42.4874 69.2725 42.4454C69.3437 42.4033 69.4222 42.376 69.5037 42.365C69.5851 42.354 69.6679 42.3595 69.7473 42.3812C69.8266 42.403 69.901 42.4405 69.9662 42.4916L69.9528 42.5102L69.9666 42.4919C70.0981 42.5953 70.1841 42.7478 70.2058 42.9161C70.2275 43.0843 70.1831 43.2544 70.0824 43.3892L67.547 46.7716C67.4883 46.8496 67.4129 46.9126 67.3266 46.956C67.2403 46.9993 67.1454 47.0217 67.0492 47.0214Z" fill="#6C63FF"/>
</g>
<defs>
<filter id="filter0_d" x="0" y="0" width="135" height="105" filterUnits="userSpaceOnUse" color-interpolation-filters="sRGB">
<feFlood flood-opacity="0" result="BackgroundImageFix"/>
<feColorMatrix in="SourceAlpha" type="matrix" values="0 0 0 0 0 0 0 0 0 0 0 0 0 0 0 0 0 0 127 0"/>
<feOffset dy="4"/>
<feGaussianBlur stdDeviation="2"/>
<feColorMatrix type="matrix" values="0 0 0 0 0 0 0 0 0 0 0 0 0 0 0 0 0 0 0.25 0"/>
<feBlend mode="normal" in2="BackgroundImageFix" result="effect1_dropShadow"/>
<feBlend mode="normal" in="SourceGraphic" in2="effect1_dropShadow" result="shape"/>
</filter>
</defs>
</svg>
