<svg width="135" height="105" viewBox="0 0 135 105" fill="none" xmlns="http://www.w3.org/2000/svg">
<g filter="url(#filter0_d)">
<path d="M130 7.27V21.71H129.629V21.5561H5.37147V21.71H5V7.27C5.0016 5.60759 5.64787 4.01374 6.79698 2.83824C7.9461 1.66274 9.50418 1.00163 11.1293 1H123.871C125.496 1.00163 127.054 1.66274 128.203 2.83824C129.352 4.01374 129.998 5.60759 130 7.27Z" fill="#03B4FF"/>
<path d="M123.871 0.5H123.871L11.1293 0.5L11.1288 0.5C9.36753 0.501769 7.68128 1.21837 6.43944 2.48872C5.19797 3.7587 4.50172 5.47828 4.5 7.26952V7.27L4.5 89.73L4.5 89.7305C4.50172 91.5217 5.19797 93.2413 6.43944 94.5113C7.68128 95.7816 9.36753 96.4982 11.1288 96.5H11.1293H123.871H123.871C125.632 96.4982 127.319 95.7816 128.561 94.5113C129.802 93.2413 130.498 91.5217 130.5 89.7305V89.73V7.27V7.26952C130.498 5.47828 129.802 3.7587 128.561 2.48872C127.319 1.21837 125.632 0.501769 123.871 0.5ZM127.582 3.45686C128.569 4.46658 129.127 5.83789 129.129 7.27062V89.7294C129.127 91.1621 128.569 92.5334 127.582 93.5431C126.596 94.5525 125.26 95.1182 123.87 95.12H11.1299C9.73954 95.1182 8.40427 94.5525 7.41758 93.5431C6.4306 92.5335 5.87334 91.1623 5.87147 89.7297V7.2703C5.87334 5.83768 6.4306 4.4665 7.41758 3.45686C8.40419 2.4476 9.73935 1.8819 11.1296 1.88H123.87C125.261 1.8819 126.596 2.4476 127.582 3.45686Z" fill="#03B4FF" stroke="#03B4FF"/>
<path d="M30.2601 15.155C32.3117 15.155 33.9748 13.4536 33.9748 11.355C33.9748 9.25628 32.3117 7.55496 30.2601 7.55496C28.2085 7.55496 26.5454 9.25628 26.5454 11.355C26.5454 13.4536 28.2085 15.155 30.2601 15.155Z" fill="white"/>
<path d="M104.74 15.155C106.792 15.155 108.455 13.4536 108.455 11.355C108.455 9.25628 106.792 7.55496 104.74 7.55496C102.688 7.55496 101.025 9.25628 101.025 11.355C101.025 13.4536 102.688 15.155 104.74 15.155Z" fill="white"/>
<path d="M40.9927 53.7254H18.8946C17.9584 53.7243 17.0609 53.3434 16.3989 52.6662C15.7369 51.989 15.3645 51.0709 15.3635 50.1132V39.429C15.3645 38.4713 15.7369 37.5532 16.3989 36.876C17.0609 36.1988 17.9584 35.8179 18.8946 35.8168H40.9927C41.9289 35.8179 42.8264 36.1988 43.4884 36.876C44.1504 37.5532 44.5227 38.4713 44.5238 39.429V50.1132C44.5227 51.0709 44.1504 51.989 43.4884 52.6662C42.8264 53.3434 41.9289 53.7243 40.9927 53.7254Z" fill="#03B4FF"/>
<path d="M78.5852 53.7254H56.4871C55.551 53.7243 54.6534 53.3434 53.9914 52.6662C53.3295 51.989 52.9571 51.0709 52.956 50.1132V39.429C52.9571 38.4713 53.3295 37.5532 53.9914 36.876C54.6534 36.1988 55.551 35.8179 56.4871 35.8168H78.5852C79.5214 35.8179 80.419 36.1988 81.0809 36.876C81.7429 37.5532 82.1153 38.4713 82.1164 39.429V50.1132C82.1153 51.0709 81.7429 51.989 81.0809 52.6662C80.419 53.3434 79.5214 53.7243 78.5852 53.7254Z" fill="#03B4FF"/>
<path d="M78.5853 81.3307H56.4872C55.5226 81.3296 54.5979 80.9372 53.9158 80.2395C53.2338 79.5418 52.8501 78.5958 52.8491 77.6091V66.9248C52.8501 65.9381 53.2338 64.9921 53.9158 64.2944C54.5979 63.5967 55.5226 63.2043 56.4872 63.2032H78.5853C79.5498 63.2043 80.4746 63.5967 81.1566 64.2944C81.8386 64.9921 82.2223 65.9381 82.2234 66.9248V77.6091C82.2223 78.5958 81.8386 79.5418 81.1566 80.2395C80.4746 80.9372 79.5498 81.3296 78.5853 81.3307Z" fill="#F2F2F2"/>
<path d="M40.9203 81.3307H18.8221C17.8576 81.3296 16.9329 80.9372 16.2508 80.2395C15.5688 79.5418 15.1851 78.5958 15.1841 77.6091V66.9248C15.1851 65.9381 15.5688 64.9921 16.2508 64.2944C16.9329 63.5967 17.8576 63.2043 18.8221 63.2032H40.9203C41.8848 63.2043 42.8095 63.5967 43.4916 64.2944C44.1736 64.9921 44.5573 65.9381 44.5584 66.9248V77.6091C44.5573 78.5958 44.1736 79.5418 43.4916 80.2395C42.8095 80.9372 41.8848 81.3296 40.9203 81.3307Z" fill="#F2F2F2"/>
<path d="M116.178 81.3307H94.0798C93.1152 81.3296 92.1905 80.9372 91.5084 80.2395C90.8264 79.5418 90.4428 78.5958 90.4417 77.6091V66.9248C90.4428 65.9381 90.8264 64.9921 91.5084 64.2944C92.1905 63.5967 93.1152 63.2043 94.0798 63.2032H116.178C117.142 63.2043 118.067 63.5967 118.749 64.2944C119.431 64.9921 119.815 65.9381 119.816 66.9248V77.6091C119.815 78.5958 119.431 79.5418 118.749 80.2395C118.067 80.9372 117.142 81.3296 116.178 81.3307Z" fill="#F2F2F2"/>
<path d="M116.178 53.7469H94.0798C93.1152 53.7458 92.1905 53.3533 91.5084 52.6556C90.8264 51.9579 90.4428 51.012 90.4417 50.0253V39.341C90.4428 38.3543 90.8264 37.4083 91.5084 36.7106C92.1905 36.0129 93.1152 35.6204 94.0798 35.6193H116.178C117.142 35.6204 118.067 36.0129 118.749 36.7106C119.431 37.4083 119.815 38.3543 119.816 39.341V50.0253C119.815 51.012 119.431 51.9579 118.749 52.6556C118.067 53.3533 117.142 53.7458 116.178 53.7469Z" fill="#F2F2F2"/>
<path d="M29.9436 50.9009C33.253 50.9009 35.9358 48.1565 35.9358 44.7711C35.9358 41.3857 33.253 38.6414 29.9436 38.6414C26.6342 38.6414 23.9515 41.3857 23.9515 44.7711C23.9515 48.1565 26.6342 50.9009 29.9436 50.9009Z" fill="white"/>
<path d="M29.3497 47.1095C29.2149 47.1097 29.0836 47.0651 28.9758 46.9824L28.9691 46.9773L27.5609 45.8743C27.4956 45.8233 27.4407 45.7595 27.3995 45.6867C27.3583 45.614 27.3315 45.5336 27.3207 45.4502C27.3099 45.3669 27.3152 45.2821 27.3364 45.2009C27.3576 45.1196 27.3943 45.0434 27.4443 44.9767C27.4943 44.9099 27.5566 44.8539 27.6278 44.8118C27.699 44.7698 27.7776 44.7424 27.8591 44.7314C27.9406 44.7204 28.0234 44.726 28.1028 44.7478C28.1822 44.7695 28.2567 44.8071 28.3219 44.8583L29.234 45.5738L31.3895 42.6981C31.4395 42.6315 31.5018 42.5755 31.573 42.5334C31.6441 42.4914 31.7227 42.4641 31.8041 42.4531C31.8856 42.4421 31.9683 42.4476 32.0477 42.4693C32.1271 42.491 32.2015 42.5286 32.2667 42.5797L32.2533 42.5983L32.267 42.58C32.3985 42.6834 32.4846 42.8359 32.5063 43.0041C32.528 43.1724 32.4836 43.3425 32.3828 43.4773L29.8474 46.8597C29.7888 46.9376 29.7134 47.0007 29.6271 47.044C29.5407 47.0873 29.4458 47.1097 29.3497 47.1095Z" fill="#00BFA6"/>
</g>
<defs>
<filter id="filter0_d" x="0" y="0" width="135" height="105" filterUnits="userSpaceOnUse" color-interpolation-filters="sRGB">
<feFlood flood-opacity="0" result="BackgroundImageFix"/>
<feColorMatrix in="SourceAlpha" type="matrix" values="0 0 0 0 0 0 0 0 0 0 0 0 0 0 0 0 0 0 127 0"/>
<feOffset dy="4"/>
<feGaussianBlur stdDeviation="2"/>
<feColorMatrix type="matrix" values="0 0 0 0 0 0 0 0 0 0 0 0 0 0 0 0 0 0 0.25 0"/>
<feBlend mode="normal" in2="BackgroundImageFix" result="effect1_dropShadow"/>
<feBlend mode="normal" in="SourceGraphic" in2="effect1_dropShadow" result="shape"/>
</filter>
</defs>
</svg>
